%TF.GenerationSoftware,KiCad,Pcbnew,7.0.1-3b83917a11~172~ubuntu22.04.1*%
%TF.CreationDate,2023-12-10T14:46:01-05:00*%
%TF.ProjectId,coil_template_first,636f696c-5f74-4656-9d70-6c6174655f66,rev?*%
%TF.SameCoordinates,Original*%
%TF.FileFunction,Copper,L1,Top*%
%TF.FilePolarity,Positive*%
%FSLAX46Y46*%
G04 Gerber Fmt 4.6, Leading zero omitted, Abs format (unit mm)*
G04 Created by KiCad (PCBNEW 7.0.1-3b83917a11~172~ubuntu22.04.1) date 2023-12-10 14:46:01*
%MOMM*%
%LPD*%
G01*
G04 APERTURE LIST*
%TA.AperFunction,SMDPad,CuDef*%
%ADD10R,5.000000X5.000000*%
%TD*%
%TA.AperFunction,ViaPad*%
%ADD11C,4.000000*%
%TD*%
%TA.AperFunction,Conductor*%
%ADD12C,5.000000*%
%TD*%
G04 APERTURE END LIST*
D10*
%TO.P,J2,1,Pin_1*%
%TO.N,Net-(J1-Pin_1)*%
X3250000Y-730431000D03*
%TD*%
D11*
%TO.N,Net-(J1-Pin_1)*%
X173886239Y-739863271D03*
X268174452Y-750011144D03*
X86919787Y-749956733D03*
X96299866Y-739831783D03*
X478190478Y-728121864D03*
%TD*%
D12*
%TO.N,Net-(J1-Pin_1)*%
X413900000Y-894449200D02*
X412970000Y-885310000D01*
X624250000Y-1254599600D02*
X615450000Y-1272320000D01*
X62310000Y-790788700D02*
X61430000Y-770750000D01*
X332850000Y-572325700D02*
X332220000Y-568310000D01*
X297110000Y-1092244600D02*
X297450000Y-1089390000D01*
X9220000Y-655398000D02*
X9790000Y-638250000D01*
X693410000Y-285456300D02*
X693410000Y-297100000D01*
X651890000Y-751916100D02*
X651600000Y-788140000D01*
X664110000Y-1078044900D02*
X660420000Y-1102180000D01*
X90380000Y-964975000D02*
X79480000Y-947610000D01*
X583540000Y-627785500D02*
X584130000Y-633220000D01*
X526510000Y-45840800D02*
X550490000Y-45840000D01*
X613830000Y-1047569100D02*
X613460000Y-1048950000D01*
X42170000Y-750000000D02*
X61410000Y-740000000D01*
X70480000Y-275071000D02*
X67600000Y-261550000D01*
X585640000Y-1224405400D02*
X583160000Y-1229190000D01*
X289270000Y-49493500D02*
X309060000Y-49490000D01*
X284670000Y-240346500D02*
X303570000Y-213290000D01*
X295380000Y-979269300D02*
X300490000Y-948140000D01*
X166130000Y-1086031300D02*
X174210000Y-1076820000D01*
X164640000Y-990810500D02*
X142260000Y-1011930000D01*
X362260000Y-1031590100D02*
X362790000Y-1020100000D01*
X412960000Y-614684400D02*
X413890000Y-605560000D01*
X483260000Y-375699000D02*
X509650000Y-377070000D01*
X26450000Y-674774800D02*
X27470000Y-654930000D01*
X696230000Y-642839100D02*
X696230000Y-657720000D01*
X648550000Y-323580300D02*
X653450000Y-348300000D01*
X687520000Y-652714300D02*
X688060000Y-687420000D01*
X362750000Y-477394200D02*
X362380000Y-465220000D01*
X405960000Y-1176071900D02*
X396970000Y-1162840000D01*
X690300000Y-454868700D02*
X692150000Y-485620000D01*
X156950000Y-314330400D02*
X154390000Y-309800000D01*
X96990000Y-670376600D02*
X97530000Y-668920000D01*
X343060000Y-1003696500D02*
X345310000Y-972760000D01*
X688320000Y-727156700D02*
X688320000Y-732950000D01*
X590430000Y-716617800D02*
X590970000Y-743180000D01*
X217670000Y-946613900D02*
X216820000Y-948100000D01*
X632410000Y-1099730700D02*
X626600000Y-1121610000D01*
X348940000Y-222827300D02*
X374890000Y-205620000D01*
X254510000Y-1080356800D02*
X259430000Y-1057720000D01*
X239910000Y-1258646000D02*
X233240000Y-1224930000D01*
X683420000Y-1293649900D02*
X677560000Y-1322300000D01*
X304210000Y-469969200D02*
X301250000Y-443550000D01*
X225710000Y-924500300D02*
X217670000Y-946610000D01*
X396550000Y-565371100D02*
X399000000Y-534330000D01*
X527250000Y-301783100D02*
X544480000Y-312630000D01*
X544510000Y-690088700D02*
X544530000Y-690250000D01*
X372350000Y-394178300D02*
X372720000Y-390750000D01*
X651570000Y-791624300D02*
X650690000Y-828550000D01*
X379640000Y-585343600D02*
X379030000Y-555310000D01*
X629090000Y-818597400D02*
X627870000Y-841660000D01*
X597770000Y-460058600D02*
X604550000Y-485390000D01*
X150620000Y-1051307000D02*
X130860000Y-1070790000D01*
X391090000Y-1398551200D02*
X361560000Y-1394100000D01*
X424510000Y-1373704700D02*
X413700000Y-1372760000D01*
X323880000Y-482043500D02*
X323390000Y-463780000D01*
X252390000Y-148161400D02*
X252390000Y-148160000D01*
X328500000Y-685842300D02*
X326800000Y-655580000D01*
X477740000Y-750000000D02*
X449770000Y-740000000D01*
X365020000Y-872866200D02*
X365520000Y-866660000D01*
X434010000Y-1149730400D02*
X426980000Y-1140280000D01*
X165990000Y-669464200D02*
X166850000Y-671870000D01*
X350620000Y-880903700D02*
X352360000Y-859100000D01*
X608560000Y-1283183600D02*
X590270000Y-1305100000D01*
X534730000Y-496261300D02*
X544380000Y-504660000D01*
X491680000Y-659896200D02*
X504860000Y-633090000D01*
X355090000Y-719108100D02*
X354520000Y-700780000D01*
X429540000Y-1345178400D02*
X405270000Y-1340210000D01*
X585600000Y-546825600D02*
X587170000Y-555190000D01*
X693410000Y-1202900600D02*
X693410000Y-1214540000D01*
X684300000Y-1289087900D02*
X683420000Y-1293650000D01*
X713120000Y-513467200D02*
X713120000Y-547750000D01*
X272750000Y-494559800D02*
X271230000Y-489600000D01*
X332780000Y-927376500D02*
X334050000Y-913450000D01*
X274250000Y-573076200D02*
X273200000Y-566460000D01*
X683280000Y-205642700D02*
X684300000Y-210910000D01*
X396750000Y-575511700D02*
X396550000Y-565370000D01*
X355770000Y-1323473700D02*
X330250000Y-1309700000D01*
X170670000Y-66724500D02*
X178310000Y-64650000D01*
X292730000Y-990935100D02*
X295380000Y-979270000D01*
X207600000Y-917514200D02*
X203680000Y-928290000D01*
X670000000Y-697791400D02*
X670210000Y-722550000D01*
X424420000Y-519730000D02*
X427190000Y-503190000D01*
X584800000Y-274603600D02*
X599450000Y-299530000D01*
X240260000Y-101448800D02*
X272970000Y-90560000D01*
X544850000Y-450564100D02*
X545260000Y-451340000D01*
X687520000Y-647841300D02*
X687520000Y-652710000D01*
X133330000Y-638502900D02*
X141590000Y-645650000D01*
X684300000Y-1287912100D02*
X684300000Y-1289090000D01*
X406420000Y-1454881000D02*
X390860000Y-1454020000D01*
X380550000Y-133383800D02*
X413700000Y-127240000D01*
X435690000Y-587850600D02*
X440200000Y-559600000D01*
X202810000Y-569077700D02*
X203980000Y-572200000D01*
X212780000Y-658113700D02*
X217150000Y-678670000D01*
X425670000Y-1237840800D02*
X414810000Y-1233160000D01*
X320950000Y-1122675700D02*
X320490000Y-1118640000D01*
X614970000Y-970047100D02*
X613830000Y-976690000D01*
X198610000Y-889071700D02*
X197110000Y-892820000D01*
X396760000Y-924493100D02*
X395550000Y-895310000D01*
X209400000Y-644143900D02*
X212780000Y-658110000D01*
X612740000Y-611015300D02*
X613830000Y-621040000D01*
X64120000Y-692096200D02*
X65450000Y-686010000D01*
X526500000Y-1454167600D02*
X511130000Y-1455070000D01*
X631580000Y-939694800D02*
X628580000Y-960920000D01*
X300570000Y-947596800D02*
X305880000Y-915160000D01*
X207980000Y-1383683700D02*
X181810000Y-1363830000D01*
X149780000Y-292780000D02*
X144530000Y-275070000D01*
X326230000Y-113845700D02*
X355470000Y-107600000D01*
X180260000Y-482835400D02*
X181090000Y-484580000D01*
X648550000Y-1176430300D02*
X646030000Y-1187330000D01*
X180450000Y-1016654200D02*
X180050000Y-1017530000D01*
X618260000Y-692711300D02*
X619140000Y-727000000D01*
X381750000Y-740000000D02*
X381550000Y-716310000D01*
X571850000Y-705944400D02*
X572420000Y-713950000D01*
X273510000Y-854817400D02*
X274450000Y-846190000D01*
X305410000Y-286410400D02*
X310170000Y-275070000D01*
X306030000Y-750000000D02*
X293450000Y-740000000D01*
X614640000Y-1366055900D02*
X587760000Y-1383740000D01*
X104720000Y-1086031300D02*
X101340000Y-1088850000D01*
X657520000Y-1024068400D02*
X656880000Y-1034000000D01*
X654020000Y-1145746000D02*
X653450000Y-1151700000D01*
X200020000Y-1086031300D02*
X209540000Y-1068880000D01*
X424010000Y-262980600D02*
X424010000Y-262980000D01*
X380950000Y-664368100D02*
X380000000Y-635640000D01*
X449020000Y-153070400D02*
X467250000Y-152070000D01*
X274750000Y-996722400D02*
X276710000Y-988360000D01*
X474930000Y-1072940700D02*
X458460000Y-1058310000D01*
X613830000Y-878955600D02*
X612740000Y-888980000D01*
X144200000Y-1232917300D02*
X144520000Y-1224930000D01*
X300490000Y-948142000D02*
X300550000Y-947770000D01*
X694760000Y-577097900D02*
X695620000Y-603300000D01*
X124040000Y-527635000D02*
X146230000Y-539040000D01*
X213990000Y-1442679100D02*
X180700000Y-1435360000D01*
X342530000Y-773676400D02*
X342590000Y-766180000D01*
X339300000Y-847842400D02*
X341360000Y-812900000D01*
X696160000Y-338569100D02*
X698300000Y-362430000D01*
X403570000Y-1106998600D02*
X397150000Y-1090050000D01*
X363310000Y-586165400D02*
X362750000Y-555150000D01*
X347580000Y-563864400D02*
X345070000Y-535800000D01*
X298450000Y-631976200D02*
X297830000Y-628330000D01*
X705170000Y-677592200D02*
X705170000Y-702740000D01*
X579100000Y-901573500D02*
X577370000Y-908560000D01*
X142260000Y-1011932000D02*
X138440000Y-1014550000D01*
X320490000Y-1118640000D02*
X320290000Y-1087770000D01*
X620850000Y-574535700D02*
X624160000Y-604450000D01*
X62590000Y-1090829800D02*
X57120000Y-1090760000D01*
X122070000Y-579989800D02*
X139010000Y-588060000D01*
X511130000Y-44934600D02*
X526510000Y-45840000D01*
X573550000Y-753191700D02*
X572420000Y-786050000D01*
X616090000Y-648980100D02*
X616220000Y-651650000D01*
X689690000Y-1244927300D02*
X689690000Y-1252290000D01*
X148110000Y-959972200D02*
X125720000Y-971820000D01*
X267220000Y-1169299400D02*
X266640000Y-1155480000D01*
X427200000Y-996803400D02*
X424430000Y-980270000D01*
X690300000Y-446798100D02*
X690300000Y-454870000D01*
X534740000Y-1003741600D02*
X509650000Y-1024300000D01*
X660420000Y-397817300D02*
X664100000Y-421960000D01*
X27470000Y-654933300D02*
X28040000Y-637810000D01*
X650170000Y-509735600D02*
X650280000Y-511660000D01*
X450710000Y-795923500D02*
X450110000Y-784200000D01*
X251960000Y-801436300D02*
X249750000Y-819500000D01*
X659940000Y-663683200D02*
X660160000Y-676890000D01*
X244070000Y-1120993300D02*
X246360000Y-1110240000D01*
X668550000Y-641820900D02*
X669220000Y-658350000D01*
X395620000Y-815494000D02*
X395890000Y-804330000D01*
X209540000Y-1068880400D02*
X215150000Y-1053030000D01*
X238460000Y-1056210600D02*
X238670000Y-1055610000D01*
X679540000Y-732198800D02*
X679540000Y-767800000D01*
X658520000Y-875390700D02*
X656800000Y-904820000D01*
X319520000Y-579984300D02*
X316250000Y-559140000D01*
X704060000Y-582436500D02*
X704570000Y-598160000D01*
X478030000Y-771723700D02*
X477750000Y-768330000D01*
X289270000Y-1450506400D02*
X267380000Y-1447380000D01*
X327950000Y-1452617000D02*
X309060000Y-1450510000D01*
X188300000Y-1051307000D02*
X194610000Y-1042880000D01*
X341360000Y-687108400D02*
X339290000Y-652150000D01*
X504870000Y-866920700D02*
X491690000Y-840100000D01*
X713520000Y-906984700D02*
X713350000Y-912220000D01*
X613200000Y-176692500D02*
X617970000Y-182730000D01*
X685170000Y-1130030500D02*
X683280000Y-1151150000D01*
X302510000Y-669528700D02*
X301310000Y-658200000D01*
X526440000Y-1341414100D02*
X511240000Y-1344200000D01*
X295700000Y-1149934300D02*
X295320000Y-1122630000D01*
X89100000Y-706763700D02*
X96900000Y-670980000D01*
X686670000Y-612337200D02*
X687520000Y-647840000D01*
X704060000Y-558563500D02*
X704060000Y-582440000D01*
X336150000Y-610454400D02*
X336140000Y-610330000D01*
X465890000Y-1285182700D02*
X452370000Y-1283430000D01*
X683870000Y-969048200D02*
X683870000Y-969730000D01*
X650650000Y-830982200D02*
X649090000Y-869360000D01*
X268190000Y-769023900D02*
X268174452Y-750011144D01*
X700000000Y-1079447100D02*
X700000000Y-1098660000D01*
X694760000Y-922902100D02*
X694760000Y-936100000D01*
X669550000Y-1017162400D02*
X668040000Y-1040410000D01*
X274450000Y-846191700D02*
X278020000Y-816400000D01*
X380900000Y-823953200D02*
X381560000Y-796090000D01*
X268350000Y-290858200D02*
X271580000Y-275070000D01*
X256950000Y-205622200D02*
X258220000Y-203780000D01*
X238670000Y-1055607800D02*
X238740000Y-1055460000D01*
X652490000Y-1066848400D02*
X652170000Y-1071190000D01*
X180100000Y-739840800D02*
X180100000Y-760160000D01*
X253890000Y-617678800D02*
X249360000Y-600030000D01*
X713650000Y-632834500D02*
X713650000Y-667720000D01*
X288590000Y-837553100D02*
X290280000Y-823440000D01*
X661510000Y-981893100D02*
X660710000Y-996320000D01*
X143140000Y-205622200D02*
X149650000Y-188140000D01*
X200200000Y-414130000D02*
X191770000Y-392610000D01*
X249360000Y-600034000D02*
X245320000Y-582710000D01*
X618520000Y-1363014800D02*
X617030000Y-1364560000D01*
X52850000Y-518142000D02*
X64790000Y-492040000D01*
X285870000Y-944718100D02*
X291130000Y-915150000D01*
X112300000Y-580378200D02*
X112300000Y-580380000D01*
X679100000Y-687769000D02*
X679210000Y-692500000D01*
X557160000Y-1329834700D02*
X547750000Y-1333430000D01*
X323310000Y-884575600D02*
X325590000Y-855700000D01*
X587510000Y-665390900D02*
X588230000Y-675460000D01*
X280320000Y-602496800D02*
X274250000Y-573080000D01*
X688060000Y-692914300D02*
X688320000Y-727160000D01*
X295340000Y-1155480200D02*
X295700000Y-1149930000D01*
X624160000Y-604452400D02*
X625020000Y-616820000D01*
X116760000Y-920971700D02*
X110390000Y-914550000D01*
X405740000Y-1019395300D02*
X403830000Y-1010150000D01*
X579100000Y-979391300D02*
X575900000Y-987500000D01*
X240240000Y-240346500D02*
X245670000Y-229320000D01*
X695620000Y-603298900D02*
X695620000Y-617480000D01*
X660900000Y-717206400D02*
X661110000Y-742790000D01*
X197830000Y-608499400D02*
X197980000Y-608910000D01*
X250250000Y-540932500D02*
X241800000Y-513340000D01*
X274990000Y-503223800D02*
X272750000Y-494560000D01*
X97143577Y-749960852D02*
X96299866Y-749117141D01*
X655120000Y-1224894600D02*
X654200000Y-1231910000D01*
X430050000Y-823943500D02*
X429190000Y-796220000D01*
X374260000Y-74875200D02*
X382910000Y-73630000D01*
X297830000Y-628334700D02*
X293160000Y-595120000D01*
X568770000Y-823841000D02*
X566880000Y-836800000D01*
X703370000Y-542153900D02*
X704060000Y-558560000D01*
X417610000Y-443866500D02*
X425710000Y-422670000D01*
X166850000Y-671867300D02*
X175080000Y-702840000D01*
X713720000Y-792345600D02*
X713720000Y-827320000D01*
X627110000Y-642648300D02*
X627870000Y-658340000D01*
X543030000Y-1425452400D02*
X534830000Y-1426890000D01*
X178070000Y-719107400D02*
X180100000Y-739840000D01*
X641450000Y-754077400D02*
X641150000Y-785640000D01*
X47630000Y-653992000D02*
X50000000Y-635740000D01*
X501140000Y-1428880700D02*
X496280000Y-1429210000D01*
X328450000Y-1174727100D02*
X325140000Y-1156900000D01*
X262290000Y-523818800D02*
X256760000Y-502470000D01*
X9690000Y-877790000D02*
X9580000Y-858800000D01*
X640340000Y-1273455000D02*
X631310000Y-1295960000D01*
X629090000Y-681402600D02*
X629590000Y-699220000D01*
X696160000Y-323764100D02*
X696160000Y-338570000D01*
X645420000Y-389203300D02*
X646250000Y-392320000D01*
X713650000Y-867165500D02*
X713520000Y-872240000D01*
X544380000Y-355692100D02*
X552570000Y-366350000D01*
X20290000Y-484025200D02*
X20570000Y-483420000D01*
X99040000Y-1398551200D02*
X86960000Y-1386050000D01*
X379230000Y-1126454000D02*
X371660000Y-1104910000D01*
X399060000Y-526921100D02*
X403710000Y-491740000D01*
X605290000Y-1413032200D02*
X588720000Y-1416500000D01*
X450110000Y-784200900D02*
X449700000Y-755460000D01*
X613830000Y-331806400D02*
X623930000Y-365250000D01*
X472030000Y-1169099200D02*
X439560000Y-1154450000D01*
X695620000Y-882521100D02*
X695620000Y-896700000D01*
X683870000Y-530270400D02*
X683870000Y-530950000D01*
X451700000Y-123953400D02*
X465880000Y-123720000D01*
X416870000Y-1054810000D02*
X412430000Y-1045350000D01*
X215790000Y-1120755800D02*
X225360000Y-1096420000D01*
X93750000Y-1026983700D02*
X80130000Y-1016580000D01*
X364990000Y-627022700D02*
X364040000Y-594300000D01*
X341360000Y-812896200D02*
X341490000Y-806700000D01*
X72890000Y-858766300D02*
X71310000Y-847190000D01*
X324190000Y-1013694700D02*
X326400000Y-998790000D01*
X158310000Y-551192100D02*
X168200000Y-559200000D01*
X247140000Y-838919400D02*
X242210000Y-863930000D01*
X240080000Y-754720200D02*
X238780000Y-785910000D01*
X70490000Y-1224929000D02*
X84850000Y-1199040000D01*
X621980000Y-1004595900D02*
X620800000Y-1013280000D01*
X586920000Y-82942100D02*
X603100000Y-86350000D01*
X367660000Y-711890900D02*
X367540000Y-708270000D01*
X616220000Y-848350100D02*
X616090000Y-851020000D01*
X614660000Y-133446000D02*
X615810000Y-134620000D01*
X166510000Y-825765100D02*
X164560000Y-831290000D01*
X586650000Y-426551200D02*
X589880000Y-437080000D01*
X605860000Y-774522800D02*
X604800000Y-804650000D01*
X285860000Y-862445400D02*
X288590000Y-837550000D01*
X618110000Y-812295900D02*
X616220000Y-848350000D01*
X57120000Y-1090761700D02*
X53910000Y-1086030000D01*
X406420000Y-45118700D02*
X431240000Y-45120000D01*
X126110000Y-861574400D02*
X116560000Y-857600000D01*
X692150000Y-1014375100D02*
X690300000Y-1045130000D01*
X341490000Y-806695600D02*
X342530000Y-773680000D01*
X681240000Y-329999100D02*
X681660000Y-332100000D01*
X513970000Y-255681400D02*
X527840000Y-262700000D01*
X603050000Y-417134200D02*
X613270000Y-450510000D01*
X321420000Y-601997200D02*
X319520000Y-579980000D01*
X604550000Y-1014606000D02*
X597770000Y-1039940000D01*
X222460000Y-517233000D02*
X213040000Y-493270000D01*
X318120000Y-759654400D02*
X318120000Y-750000000D01*
X321480000Y-1070857900D02*
X321200000Y-1053710000D01*
X96640000Y-1091402100D02*
X62590000Y-1090830000D01*
X71310000Y-847188200D02*
X65900000Y-820480000D01*
X245670000Y-229316200D02*
X256950000Y-205620000D01*
X273490000Y-928810800D02*
X279600000Y-901480000D01*
X573570000Y-507491600D02*
X575900000Y-512510000D01*
X256880000Y-936438600D02*
X262960000Y-910640000D01*
X251180000Y-52619700D02*
X267380000Y-52620000D01*
X377600000Y-133828500D02*
X380550000Y-133380000D01*
X617970000Y-182727700D02*
X631190000Y-203740000D01*
X429190000Y-796218000D02*
X429170000Y-783550000D01*
X352910000Y-840027100D02*
X354080000Y-820200000D01*
X650100000Y-182440600D02*
X653680000Y-190380000D01*
X655030000Y-1303570100D02*
X653980000Y-1308710000D01*
X670330000Y-762506200D02*
X670210000Y-777450000D01*
X249740000Y-680491000D02*
X251950000Y-698570000D01*
X80590000Y-625919400D02*
X86920000Y-605620000D01*
X73730000Y-136173300D02*
X86970000Y-113960000D01*
X180050000Y-1017531900D02*
X175350000Y-1023800000D01*
X616220000Y-651649900D02*
X618110000Y-687700000D01*
X482270000Y-805614500D02*
X478030000Y-771720000D01*
X566880000Y-836797700D02*
X562780000Y-860290000D01*
X62550000Y-409234600D02*
X96660000Y-408630000D01*
X543080000Y-1188617400D02*
X526840000Y-1198370000D01*
X249060000Y-1021812400D02*
X252930000Y-1011640000D01*
X413890000Y-605558700D02*
X415420000Y-576210000D01*
X61430000Y-770751200D02*
X61400000Y-750000000D01*
X482270000Y-694380500D02*
X484870000Y-684460000D01*
X175350000Y-1023803600D02*
X156950000Y-1046770000D01*
X708560000Y-236864700D02*
X708560000Y-265910000D01*
X268174452Y-750011144D02*
X268180000Y-750000000D01*
X711430000Y-1112771700D02*
X711430000Y-1145120000D01*
X508330000Y-1246166000D02*
X488550000Y-1249410000D01*
X113300000Y-344519800D02*
X106580000Y-332580000D01*
X552410000Y-202772000D02*
X580230000Y-224170000D01*
X679100000Y-812231000D02*
X678510000Y-846990000D01*
X61410000Y-740000000D02*
X61410000Y-731600000D01*
X649070000Y-869965400D02*
X648550000Y-878880000D01*
X350390000Y-1138104400D02*
X348230000Y-1124470000D01*
X180690000Y-64649300D02*
X213990000Y-57320000D01*
X385900000Y-463174600D02*
X388620000Y-441560000D01*
X623930000Y-365253600D02*
X626590000Y-378390000D01*
X524610000Y-342518400D02*
X544380000Y-355690000D01*
X203680000Y-928291700D02*
X192340000Y-948080000D01*
X625020000Y-616818600D02*
X627110000Y-642650000D01*
X183560000Y-640396600D02*
X189960000Y-655690000D01*
X454330000Y-518782200D02*
X469050000Y-494100000D01*
X688220000Y-93879900D02*
X689290000Y-96690000D01*
X41380000Y-947133600D02*
X34580000Y-921650000D01*
X655120000Y-275105700D02*
X661720000Y-303660000D01*
X12850000Y-934774900D02*
X11290000Y-912410000D01*
X255510000Y-940309000D02*
X256880000Y-936440000D01*
X705170000Y-822407800D02*
X704940000Y-837280000D01*
X361930000Y-953900100D02*
X362790000Y-944770000D01*
X566570000Y-557752100D02*
X576640000Y-589030000D01*
X483840000Y-182610200D02*
X508860000Y-185830000D01*
X236380000Y-944372900D02*
X243820000Y-923320000D01*
X571930000Y-1104879200D02*
X562610000Y-1118470000D01*
X471340000Y-44755300D02*
X486100000Y-44930000D01*
X445440000Y-1104742700D02*
X439310000Y-1099080000D01*
X595990000Y-520364600D02*
X600430000Y-538300000D01*
X336210000Y-888941300D02*
X339200000Y-851540000D01*
X429180000Y-703779100D02*
X430040000Y-676060000D01*
X544530000Y-809746200D02*
X544510000Y-809910000D01*
X342530000Y-726325200D02*
X341490000Y-693300000D01*
X618700000Y-1211521700D02*
X613830000Y-1223340000D01*
X180700000Y-1435356500D02*
X178300000Y-1435360000D01*
X544380000Y-810837200D02*
X529900000Y-841400000D01*
X324220000Y-1250762600D02*
X310150000Y-1224930000D01*
X113280000Y-528119300D02*
X124040000Y-527640000D01*
X393800000Y-1337960700D02*
X368020000Y-1329100000D01*
X366320000Y-1181379700D02*
X357950000Y-1159520000D01*
X247190000Y-661413500D02*
X249740000Y-680490000D01*
X341490000Y-693300200D02*
X341360000Y-687110000D01*
X88320000Y-783294000D02*
X86919787Y-749956733D01*
X617030000Y-1364561200D02*
X614640000Y-1366060000D01*
X639500000Y-1063909800D02*
X636680000Y-1075930000D01*
X21390000Y-480904000D02*
X30060000Y-448690000D01*
X601550000Y-165825000D02*
X613200000Y-176690000D01*
X93750000Y-473026300D02*
X105100000Y-474060000D01*
X665400000Y-1428789700D02*
X656500000Y-1437440000D01*
X664100000Y-421955500D02*
X665500000Y-440620000D01*
X535200000Y-130846900D02*
X539870000Y-131680000D01*
X631190000Y-203739500D02*
X640440000Y-226810000D01*
X713720000Y-707654400D02*
X713760000Y-712550000D01*
X156940000Y-1185646000D02*
X167710000Y-1155480000D01*
X280500000Y-777937900D02*
X280880000Y-761730000D01*
X24930000Y-701891700D02*
X25760000Y-690280000D01*
X424010000Y-262980600D02*
X442080000Y-255050000D01*
X613830000Y-390374700D02*
X618570000Y-408220000D01*
X328510000Y-814153500D02*
X329070000Y-805840000D01*
X672220000Y-377403000D02*
X674650000Y-405990000D01*
X20570000Y-483417500D02*
X21390000Y-480900000D01*
X252390000Y-148161400D02*
X261720000Y-140430000D01*
X79480000Y-947609100D02*
X67920000Y-934340000D01*
X577370000Y-591439000D02*
X579100000Y-598430000D01*
X663520000Y-1180181400D02*
X661720000Y-1196340000D01*
X428510000Y-1278768600D02*
X404010000Y-1268570000D01*
X293580000Y-754438700D02*
X293580000Y-750000000D01*
X435410000Y-593198300D02*
X435690000Y-587850000D01*
X575780000Y-182860900D02*
X584710000Y-188710000D01*
X642020000Y-953197000D02*
X638570000Y-983600000D01*
X692150000Y-1004180500D02*
X692150000Y-1014380000D01*
X711430000Y-387228200D02*
X712000000Y-394450000D01*
X562600000Y-381522700D02*
X571920000Y-395120000D01*
X365460000Y-1060589100D02*
X362260000Y-1031590000D01*
X300430000Y-551050000D02*
X300140000Y-549760000D01*
X696610000Y-817494500D02*
X696230000Y-842280000D01*
X144530000Y-275071000D02*
X144210000Y-267060000D01*
X52800000Y-981858000D02*
X46090000Y-971070000D01*
X539870000Y-131675300D02*
X547600000Y-134480000D01*
X30060000Y-448693000D02*
X32520000Y-435860000D01*
X405480000Y-1225927700D02*
X387650000Y-1211480000D01*
X579100000Y-520613200D02*
X585600000Y-546830000D01*
X708560000Y-265913200D02*
X709800000Y-276040000D01*
X650280000Y-988341300D02*
X650170000Y-990260000D01*
X712000000Y-427443500D02*
X712460000Y-434070000D01*
X666170000Y-919674100D02*
X664590000Y-940230000D01*
X266410000Y-309795300D02*
X268350000Y-290860000D01*
X167710000Y-1155480200D02*
X173820000Y-1145590000D01*
X451950000Y-676967800D02*
X453550000Y-662560000D01*
X60270000Y-1295144400D02*
X60150000Y-1294380000D01*
X646230000Y-589108600D02*
X646500000Y-591620000D01*
X212880000Y-1007052100D02*
X221950000Y-982930000D01*
X445470000Y-183821300D02*
X471480000Y-182320000D01*
X620800000Y-1013283100D02*
X613830000Y-1047570000D01*
X481440000Y-1403386600D02*
X475850000Y-1403450000D01*
X460810000Y-70359600D02*
X496270000Y-70800000D01*
X644050000Y-1265972700D02*
X640340000Y-1273460000D01*
X681660000Y-332095700D02*
X683280000Y-348860000D01*
X192340000Y-948078700D02*
X186610000Y-960600000D01*
X424430000Y-980273600D02*
X419890000Y-961110000D01*
X354070000Y-679805500D02*
X352900000Y-659960000D01*
X687390000Y-1403616700D02*
X687390000Y-1410430000D01*
X314660000Y-837449900D02*
X315560000Y-821590000D01*
X603650000Y-257231700D02*
X613830000Y-276650000D01*
X255360000Y-560880500D02*
X250250000Y-540930000D01*
X659320000Y-384817400D02*
X660420000Y-397820000D01*
X455650000Y-639203500D02*
X459380000Y-619320000D01*
X326270000Y-499421500D02*
X323880000Y-482040000D01*
X515060000Y-1072217200D02*
X509650000Y-1076080000D01*
X34480000Y-579253200D02*
X41470000Y-552870000D01*
X619140000Y-727001100D02*
X619200000Y-733140000D01*
X231740000Y-840574300D02*
X225510000Y-866020000D01*
X320400000Y-412326400D02*
X320260000Y-383340000D01*
X367030000Y-45977300D02*
X390860000Y-45980000D01*
X186610000Y-960596700D02*
X169910000Y-982080000D01*
X224790000Y-1442679100D02*
X213990000Y-1442680000D01*
X554560000Y-1295987200D02*
X547180000Y-1301080000D01*
X604480000Y-1134312100D02*
X595200000Y-1158140000D01*
X305090000Y-1023834700D02*
X310460000Y-987500000D01*
X331720000Y-240346500D02*
X348940000Y-222830000D01*
X629010000Y-1239890800D02*
X624250000Y-1254600000D01*
X648550000Y-405135900D02*
X652170000Y-428810000D01*
X397150000Y-1090048400D02*
X394810000Y-1079330000D01*
X362220000Y-982647400D02*
X361930000Y-953900000D01*
X635330000Y-598036600D02*
X637120000Y-623770000D01*
X342580000Y-733819000D02*
X342530000Y-726330000D01*
X41470000Y-552866400D02*
X46130000Y-529010000D01*
X603970000Y-1242371100D02*
X589450000Y-1263420000D01*
X618570000Y-408220100D02*
X619660000Y-414290000D01*
X700000000Y-401336200D02*
X700000000Y-420550000D01*
X347680000Y-935908100D02*
X347950000Y-921190000D01*
X249000000Y-476729200D02*
X239970000Y-449310000D01*
X677000000Y-606785600D02*
X677410000Y-613760000D01*
X390860000Y-45977300D02*
X406420000Y-45120000D01*
X478190478Y-728121864D02*
X482270000Y-694380000D01*
X301250000Y-443550800D02*
X298200000Y-420920000D01*
X704570000Y-622620700D02*
X704940000Y-637840000D01*
X263280000Y-198657900D02*
X282850000Y-177210000D01*
X155090000Y-170897700D02*
X157320000Y-167010000D01*
X696800000Y-737824600D02*
X696800000Y-762180000D01*
X455660000Y-860791100D02*
X453560000Y-837450000D01*
X411810000Y-846087700D02*
X411590000Y-813340000D01*
X544530000Y-690254400D02*
X547260000Y-728400000D01*
X258220000Y-1296227100D02*
X256950000Y-1294380000D01*
X607250000Y-1005498000D02*
X604550000Y-1014610000D01*
X399530000Y-100339100D02*
X436360000Y-97230000D01*
X325590000Y-855700900D02*
X326810000Y-844420000D01*
X590970000Y-756817000D02*
X590430000Y-783380000D01*
X635330000Y-901963500D02*
X633540000Y-918180000D01*
X693620000Y-963447200D02*
X693620000Y-975330000D01*
X679540000Y-767801200D02*
X679510000Y-772110000D01*
X308080000Y-1379349900D02*
X292740000Y-1375020000D01*
X326400000Y-998792700D02*
X328170000Y-972040000D01*
X705280000Y-782583700D02*
X705170000Y-797260000D01*
X544380000Y-689156300D02*
X544510000Y-690090000D01*
X311550000Y-205622200D02*
X330250000Y-190300000D01*
X675870000Y-574756000D02*
X677000000Y-606790000D01*
X698970000Y-140599700D02*
X703940000Y-159740000D01*
X61320000Y-240346500D02*
X60210000Y-206270000D01*
X395550000Y-895314100D02*
X395920000Y-884120000D01*
X411580000Y-686663600D02*
X411800000Y-653910000D01*
X330190000Y-733407800D02*
X330040000Y-726610000D01*
X88950000Y-535948300D02*
X88950000Y-535950000D01*
X380210000Y-875097700D02*
X380020000Y-864350000D01*
X350090000Y-602312900D02*
X347820000Y-577270000D01*
X295300000Y-376558700D02*
X295630000Y-348860000D01*
X269760000Y-377370900D02*
X267990000Y-361990000D01*
X544690000Y-197591700D02*
X552410000Y-202770000D01*
X12940000Y-552866400D02*
X12930000Y-540660000D01*
X653450000Y-348299700D02*
X654020000Y-354250000D01*
X442990000Y-296685500D02*
X475510000Y-288230000D01*
X175670000Y-875439100D02*
X161910000Y-899980000D01*
X696230000Y-657716600D02*
X696610000Y-682510000D01*
X484870000Y-684456400D02*
X491680000Y-659900000D01*
X461770000Y-214968400D02*
X493090000Y-215730000D01*
X644060000Y-234026800D02*
X648550000Y-247930000D01*
X580510000Y-1233038100D02*
X558360000Y-1255210000D01*
X442080000Y-255051000D02*
X474290000Y-249900000D01*
X239490000Y-101726800D02*
X240260000Y-101450000D01*
X615450000Y-1272319600D02*
X608560000Y-1283180000D01*
X352360000Y-859098900D02*
X352910000Y-840030000D01*
X355100000Y-780894000D02*
X355260000Y-758900000D01*
X238620000Y-443437500D02*
X227880000Y-414220000D01*
X374900000Y-1294377800D02*
X348930000Y-1277180000D01*
X368000000Y-1244403400D02*
X352180000Y-1225060000D01*
X410470000Y-1308933700D02*
X380530000Y-1297140000D01*
X369180000Y-136173300D02*
X377600000Y-133830000D01*
X713520000Y-593015300D02*
X713520000Y-627760000D01*
X465880000Y-123715800D02*
X491930000Y-124540000D01*
X686670000Y-608440700D02*
X686670000Y-612340000D01*
X344590000Y-407367500D02*
X348070000Y-374540000D01*
X292230000Y-795100000D02*
X292860000Y-785040000D01*
X150540000Y-448693000D02*
X156910000Y-453280000D01*
X673830000Y-536035500D02*
X675180000Y-565850000D01*
X214520000Y-599950100D02*
X222450000Y-624450000D01*
X428950000Y-740000000D02*
X429170000Y-716450000D01*
X696610000Y-697827700D02*
X696800000Y-722290000D01*
X200870000Y-807688600D02*
X200260000Y-811630000D01*
X571710000Y-1356516600D02*
X548200000Y-1365340000D01*
X663780000Y-958188800D02*
X661510000Y-981890000D01*
X696800000Y-722286500D02*
X696800000Y-737820000D01*
X626770000Y-976823400D02*
X621980000Y-1004600000D01*
X309060000Y-49493500D02*
X327950000Y-47380000D01*
X675180000Y-934149000D02*
X673830000Y-963960000D01*
X199370000Y-886709600D02*
X198610000Y-889070000D01*
X67150000Y-567238600D02*
X78380000Y-552970000D01*
X669550000Y-482837400D02*
X671250000Y-497630000D01*
X656880000Y-465995500D02*
X657520000Y-475930000D01*
X183650000Y-379244200D02*
X173840000Y-354380000D01*
X96900000Y-670975400D02*
X96990000Y-670380000D01*
X239010000Y-1397981500D02*
X207980000Y-1383680000D01*
X590950000Y-384194300D02*
X596820000Y-401180000D01*
X266970000Y-891899200D02*
X273510000Y-854820000D01*
X181830000Y-136173300D02*
X207990000Y-116320000D01*
X713350000Y-946775200D02*
X713120000Y-952240000D01*
X197310000Y-309795300D02*
X196590000Y-304830000D01*
X474930000Y-939303500D02*
X471600000Y-931410000D01*
X568770000Y-676158700D02*
X571850000Y-705940000D01*
X656500000Y-1437441100D02*
X652150000Y-1438960000D01*
X683280000Y-348855600D02*
X685170000Y-369970000D01*
X178170000Y-780375800D02*
X175230000Y-796640000D01*
X693410000Y-1214543800D02*
X689690000Y-1244930000D01*
X282450000Y-881772100D02*
X285860000Y-862450000D01*
X306030000Y-752715500D02*
X306030000Y-750000000D01*
X706770000Y-1301992300D02*
X704120000Y-1315770000D01*
X268130000Y-1023627900D02*
X273920000Y-999780000D01*
X130010000Y-83439000D02*
X130010000Y-83440000D01*
X429540000Y-154815600D02*
X449020000Y-153070000D01*
X436360000Y-1402765100D02*
X399530000Y-1399660000D01*
X301310000Y-658201400D02*
X298450000Y-631980000D01*
X583480000Y-228010900D02*
X588210000Y-235330000D01*
X28040000Y-637812700D02*
X30170000Y-623010000D01*
X470520000Y-926970500D02*
X461900000Y-897090000D01*
X701380000Y-461232300D02*
X702490000Y-479690000D01*
X696610000Y-682505500D02*
X696610000Y-697830000D01*
X299560000Y-1190204700D02*
X295600000Y-1161690000D01*
X453560000Y-837450200D02*
X451960000Y-823030000D01*
X683190000Y-1415734800D02*
X665400000Y-1428790000D01*
X222450000Y-624446900D02*
X225610000Y-634180000D01*
X302520000Y-830474900D02*
X302600000Y-829030000D01*
X129620000Y-361908000D02*
X113300000Y-344520000D01*
X592640000Y-917330900D02*
X587170000Y-944810000D01*
X704940000Y-837281200D02*
X704940000Y-862160000D01*
X267230000Y-330669600D02*
X266410000Y-309800000D01*
X509650000Y-625466700D02*
X509650000Y-625470000D01*
X700000000Y-1098664000D02*
X698300000Y-1120320000D01*
X582080000Y-1030931300D02*
X579100000Y-1039600000D01*
X547380000Y-768221900D02*
X547260000Y-771600000D01*
X355330000Y-347027100D02*
X364060000Y-323100000D01*
X295520000Y-338425800D02*
X299450000Y-310100000D01*
X623800000Y-1402656000D02*
X605290000Y-1413030000D01*
X664590000Y-940233200D02*
X663780000Y-958190000D01*
X336140000Y-610325600D02*
X336030000Y-609110000D01*
X619660000Y-1085703700D02*
X618570000Y-1091780000D01*
X225580000Y-1031021900D02*
X228870000Y-1020300000D01*
X381550000Y-504464400D02*
X382970000Y-477390000D01*
X579100000Y-309973100D02*
X579650000Y-310910000D01*
X679190000Y-453178200D02*
X681570000Y-489740000D01*
X385560000Y-290761900D02*
X404040000Y-275150000D01*
X713350000Y-912224800D02*
X713350000Y-946780000D01*
X696160000Y-1161430600D02*
X696160000Y-1176240000D01*
X685170000Y-1127858400D02*
X685170000Y-1130030000D01*
X367940000Y-750000000D02*
X355250000Y-740000000D01*
X648550000Y-247931800D02*
X654200000Y-268090000D01*
X295280000Y-344297900D02*
X295520000Y-338430000D01*
X695620000Y-617478900D02*
X696230000Y-642840000D01*
X679210000Y-692499200D02*
X679510000Y-727890000D01*
X654000000Y-946317300D02*
X653720000Y-952410000D01*
X629030000Y-459564700D02*
X633110000Y-479640000D01*
X652490000Y-433151100D02*
X656880000Y-466000000D01*
X261720000Y-1359570200D02*
X252400000Y-1351850000D01*
X442630000Y-343414200D02*
X473190000Y-330640000D01*
X629010000Y-260110600D02*
X636490000Y-278260000D01*
X602170000Y-656971600D02*
X604140000Y-684600000D01*
X668550000Y-858179100D02*
X667960000Y-880820000D01*
X190410000Y-844949600D02*
X186710000Y-853280000D01*
X705280000Y-742694800D02*
X705280000Y-757310000D01*
X713650000Y-832279000D02*
X713650000Y-867170000D01*
X587510000Y-834609000D02*
X584130000Y-866780000D01*
X549150000Y-408204200D02*
X554090000Y-416520000D01*
X62740000Y-1329102300D02*
X60270000Y-1295140000D01*
X629840000Y-1178033300D02*
X620480000Y-1204900000D01*
X712460000Y-1065929300D02*
X712000000Y-1072560000D01*
X441270000Y-1402887300D02*
X436360000Y-1402770000D01*
X263280000Y-198657900D02*
X263280000Y-198660000D01*
X305230000Y-712361600D02*
X305090000Y-707940000D01*
X9720000Y-604919600D02*
X11280000Y-588000000D01*
X80180000Y-483417500D02*
X93750000Y-473030000D01*
X333640000Y-310688800D02*
X344600000Y-285620000D01*
X365520000Y-866657600D02*
X366520000Y-832210000D01*
X412970000Y-268043200D02*
X424010000Y-262980000D01*
X456590000Y-1429571600D02*
X421460000Y-1428700000D01*
X571850000Y-794055900D02*
X568770000Y-823840000D01*
X381400000Y-994234300D02*
X380020000Y-983870000D01*
X355770000Y-176525500D02*
X355770000Y-176530000D01*
X186710000Y-853284700D02*
X175670000Y-875440000D01*
X336130000Y-891795400D02*
X336210000Y-888940000D01*
X429670000Y-186959400D02*
X445470000Y-183820000D01*
X330250000Y-190299200D02*
X355770000Y-176530000D01*
X282020000Y-1254774300D02*
X271580000Y-1224930000D01*
X341950000Y-1041346200D02*
X343390000Y-1009780000D01*
X618320000Y-1316773400D02*
X613690000Y-1322710000D01*
X658520000Y-624609300D02*
X658820000Y-636230000D01*
X596820000Y-1098821100D02*
X590960000Y-1115810000D01*
X230270000Y-965172700D02*
X236380000Y-944370000D01*
X671250000Y-497631800D02*
X672730000Y-524560000D01*
X86919787Y-749956733D02*
X86970000Y-750000000D01*
X415940000Y-71768100D02*
X421460000Y-71300000D01*
X511130000Y-1455067200D02*
X486090000Y-1455070000D01*
X660790000Y-796916500D02*
X660160000Y-823110000D01*
X512110000Y-293164500D02*
X527250000Y-301780000D01*
X588720000Y-1416501000D02*
X571750000Y-1421960000D01*
X546200000Y-165942200D02*
X555750000Y-169420000D01*
X472340000Y-1317636300D02*
X446840000Y-1316360000D01*
X713350000Y-553224800D02*
X713350000Y-587780000D01*
X124180000Y-920657600D02*
X116760000Y-920970000D01*
X497170000Y-543386100D02*
X509650000Y-537430000D01*
X483890000Y-250037600D02*
X513970000Y-255680000D01*
X295320000Y-1122631900D02*
X297110000Y-1092240000D01*
X265530000Y-810437200D02*
X265670000Y-809310000D01*
X271560000Y-385320800D02*
X269760000Y-377370000D01*
X32520000Y-435860200D02*
X54000000Y-413970000D01*
X639870000Y-1337524300D02*
X618520000Y-1363010000D01*
X613830000Y-976687700D02*
X607250000Y-1005500000D01*
X310470000Y-515120300D02*
X310110000Y-509480000D01*
X651600000Y-711863200D02*
X651890000Y-748080000D01*
X710720000Y-346930400D02*
X711430000Y-354880000D01*
X327950000Y-525713700D02*
X326270000Y-499420000D01*
X404670000Y-325279300D02*
X404670000Y-325280000D01*
X113000000Y-89847000D02*
X130010000Y-83440000D01*
X46130000Y-529014900D02*
X52850000Y-518140000D01*
X170650000Y-1433275500D02*
X144070000Y-1425510000D01*
X192410000Y-275071000D02*
X194230000Y-249420000D01*
X32470000Y-1064223700D02*
X29990000Y-1051310000D01*
X292860000Y-785035500D02*
X293580000Y-754440000D01*
X676040000Y-415097800D02*
X678510000Y-448100000D01*
X536680000Y-1368811200D02*
X504790000Y-1374580000D01*
X508860000Y-185831900D02*
X532510000Y-193160000D01*
X306180000Y-587643000D02*
X301310000Y-556510000D01*
X663520000Y-319817700D02*
X667550000Y-340200000D01*
X241800000Y-513339400D02*
X240570000Y-510290000D01*
X475840000Y-1170166500D02*
X472030000Y-1169100000D01*
X161780000Y-599598600D02*
X175890000Y-623580000D01*
X139580000Y-1259653500D02*
X144200000Y-1232920000D01*
X297940000Y-871645000D02*
X298220000Y-870070000D01*
X678280000Y-852589300D02*
X677410000Y-886240000D01*
X636370000Y-503671000D02*
X638570000Y-516400000D01*
X437630000Y-1027740900D02*
X427200000Y-996800000D01*
X342580000Y-750000000D02*
X330200000Y-740000000D01*
X580030000Y-311754400D02*
X595190000Y-341870000D01*
X709800000Y-1223959000D02*
X708560000Y-1234090000D01*
X585260000Y-1270018300D02*
X582360000Y-1273490000D01*
X362790000Y-1020101500D02*
X361400000Y-994020000D01*
X194280000Y-456638800D02*
X188790000Y-449320000D01*
X316520000Y-938402900D02*
X319330000Y-921270000D01*
X65900000Y-820482500D02*
X64660000Y-810710000D01*
X343480000Y-1356122000D02*
X331220000Y-1350180000D01*
X86970000Y-113963000D02*
X99060000Y-101450000D01*
X695620000Y-896701100D02*
X694760000Y-922900000D01*
X57160000Y-409306300D02*
X57160000Y-409310000D01*
X352900000Y-659964700D02*
X352340000Y-640910000D01*
X360590000Y-1326337400D02*
X355770000Y-1323470000D01*
X554590000Y-604521800D02*
X557980000Y-618200000D01*
X657520000Y-475931300D02*
X660710000Y-503680000D01*
X645430000Y-1110795200D02*
X638830000Y-1143300000D01*
X173150000Y-1352771800D02*
X157310000Y-1333010000D01*
X278020000Y-816403500D02*
X278970000Y-802720000D01*
X618260000Y-807288800D02*
X618110000Y-812300000D01*
X266630000Y-894259600D02*
X266970000Y-891900000D01*
X380190000Y-624914300D02*
X379220000Y-595310000D01*
X396560000Y-934625900D02*
X396760000Y-924490000D01*
X612740000Y-888984700D02*
X612530000Y-890360000D01*
X67920000Y-934339700D02*
X62420000Y-913170000D01*
X366510000Y-667781200D02*
X365500000Y-633350000D01*
X544170000Y-570618000D02*
X544380000Y-570860000D01*
X230050000Y-588372500D02*
X231050000Y-591000000D01*
X105100000Y-1025942500D02*
X93750000Y-1026980000D01*
X380530000Y-202853400D02*
X409870000Y-191270000D01*
X198070000Y-609189900D02*
X209400000Y-644140000D01*
X398290000Y-1399589700D02*
X391090000Y-1398550000D01*
X589100000Y-47898500D02*
X608000000Y-51940000D01*
X305370000Y-475415300D02*
X304210000Y-469970000D01*
X589200000Y-1452096800D02*
X567580000Y-1452100000D01*
X242900000Y-983198100D02*
X243040000Y-982580000D01*
X404010000Y-1268565300D02*
X395770000Y-1265080000D01*
X579100000Y-407208800D02*
X586650000Y-426550000D01*
X666900000Y-600984000D02*
X667960000Y-619180000D01*
X704060000Y-917563500D02*
X704060000Y-941440000D01*
X694760000Y-563902100D02*
X694760000Y-577100000D01*
X395580000Y-418586500D02*
X398110000Y-406570000D01*
X705280000Y-757305200D02*
X705280000Y-782580000D01*
X646500000Y-908379300D02*
X646230000Y-910890000D01*
X249280000Y-477990000D02*
X249000000Y-476730000D01*
X362380000Y-465222700D02*
X365450000Y-436750000D01*
X656880000Y-1034004700D02*
X652490000Y-1066850000D01*
X468920000Y-1347908300D02*
X449010000Y-1346920000D01*
X712000000Y-1105554700D02*
X711430000Y-1112770000D01*
X243040000Y-370944400D02*
X236980000Y-344520000D01*
X664590000Y-66790600D02*
X679530000Y-85270000D01*
X395960000Y-764479100D02*
X395960000Y-750000000D01*
X308400000Y-82802700D02*
X331340000Y-80160000D01*
X509650000Y-962568000D02*
X497170000Y-956610000D01*
X553890000Y-974851700D02*
X544380000Y-995350000D01*
X615810000Y-134620000D02*
X639150000Y-161170000D01*
X471800000Y-1011072600D02*
X469040000Y-1005900000D01*
X458460000Y-1058310900D02*
X440220000Y-1034430000D01*
X519850000Y-99191200D02*
X532810000Y-101470000D01*
X284660000Y-1259653500D02*
X282020000Y-1254770000D01*
X506960000Y-871213300D02*
X504870000Y-866920000D01*
X449770000Y-740000000D02*
X450100000Y-715800000D01*
X629030000Y-1040434600D02*
X626510000Y-1056450000D01*
X643000000Y-946255700D02*
X642020000Y-953200000D01*
X555740000Y-1394460300D02*
X531830000Y-1398710000D01*
X634740000Y-343179200D02*
X638820000Y-356700000D01*
X636490000Y-1221740700D02*
X629010000Y-1239890000D01*
X504790000Y-125422100D02*
X535200000Y-130850000D01*
X317630000Y-780510800D02*
X318120000Y-759650000D01*
X587170000Y-555189900D02*
X592640000Y-582670000D01*
X595190000Y-341869700D02*
X604470000Y-365680000D01*
X651600000Y-788136800D02*
X651570000Y-791620000D01*
X611040000Y-1447555100D02*
X589200000Y-1452100000D01*
X399010000Y-965671200D02*
X396560000Y-934630000D01*
X399000000Y-534331600D02*
X399060000Y-526920000D01*
X317080000Y-798950800D02*
X317630000Y-780510000D01*
X192390000Y-1224929000D02*
X196560000Y-1195230000D01*
X626590000Y-378389000D02*
X632410000Y-400270000D01*
X367030000Y-1454022400D02*
X350160000Y-1452620000D01*
X387650000Y-1211480900D02*
X373620000Y-1192110000D01*
X225510000Y-866016600D02*
X222950000Y-874170000D01*
X235390000Y-549260700D02*
X234600000Y-547390000D01*
X34580000Y-921650400D02*
X33940000Y-912410000D01*
X419880000Y-538882700D02*
X424420000Y-519730000D01*
X593840000Y-1342331900D02*
X587280000Y-1346440000D01*
X345390000Y-1099348500D02*
X343840000Y-1087860000D01*
X395960000Y-750000000D02*
X381750000Y-740000000D01*
X671710000Y-1241969200D02*
X667280000Y-1257800000D01*
X332220000Y-568313300D02*
X329340000Y-534460000D01*
X381550000Y-703909700D02*
X380890000Y-676040000D01*
X381560000Y-796093500D02*
X381550000Y-783690000D01*
X679510000Y-727892800D02*
X679540000Y-732200000D01*
X195370000Y-233259200D02*
X203100000Y-205620000D01*
X112500000Y-848629600D02*
X95590000Y-823060000D01*
X524880000Y-1238464300D02*
X508330000Y-1246170000D01*
X622330000Y-96314300D02*
X625560000Y-98000000D01*
X687520000Y-847285700D02*
X687520000Y-852160000D01*
X518510000Y-954531900D02*
X509650000Y-962570000D01*
X261720000Y-140432000D02*
X269550000Y-136170000D01*
X67600000Y-261554000D02*
X61320000Y-240350000D01*
X644770000Y-1190949400D02*
X636490000Y-1221740000D01*
X289010000Y-485229200D02*
X282760000Y-455970000D01*
X412970000Y-885308300D02*
X412260000Y-853620000D01*
X656800000Y-904817600D02*
X656470000Y-914100000D01*
X194230000Y-249424800D02*
X193920000Y-240350000D01*
X88950000Y-535948300D02*
X113280000Y-528120000D01*
X545980000Y-273041500D02*
X557140000Y-284060000D01*
X590430000Y-783382300D02*
X589980000Y-796140000D01*
X243820000Y-923317300D02*
X249180000Y-900600000D01*
X191750000Y-1107360700D02*
X200020000Y-1086030000D01*
X497170000Y-956613200D02*
X474930000Y-939300000D01*
X293160000Y-595121800D02*
X290810000Y-583700000D01*
X140510000Y-1120755800D02*
X152410000Y-1108320000D01*
X698970000Y-124049500D02*
X698970000Y-140600000D01*
X592640000Y-582669200D02*
X595160000Y-599660000D01*
X379030000Y-944690100D02*
X379650000Y-914660000D01*
X595200000Y-1158135300D02*
X580120000Y-1188200000D01*
X693620000Y-975330700D02*
X692150000Y-1004180000D01*
X437640000Y-472248500D02*
X438310000Y-469690000D01*
X650170000Y-990264500D02*
X648550000Y-1004390000D01*
X652170000Y-428813200D02*
X652490000Y-433150000D01*
X506550000Y-1281699000D02*
X492140000Y-1284130000D01*
X613460000Y-330954400D02*
X613620000Y-331280000D01*
X362750000Y-555151900D02*
X361890000Y-545460000D01*
X509650000Y-1024296600D02*
X492940000Y-1019620000D01*
X579100000Y-1092802500D02*
X571930000Y-1104880000D01*
X544110000Y-1144574800D02*
X525020000Y-1157260000D01*
X238260000Y-793563600D02*
X233970000Y-828570000D01*
X139010000Y-588058900D02*
X154600000Y-593650000D01*
X544380000Y-401241700D02*
X549150000Y-408200000D01*
X619140000Y-772998900D02*
X618260000Y-807290000D01*
X395390000Y-644483800D02*
X395910000Y-615890000D01*
X492910000Y-480396100D02*
X509650000Y-475710000D01*
X474930000Y-427090200D02*
X498240000Y-424340000D01*
X318110000Y-740000000D02*
X317630000Y-719490000D01*
X299450000Y-310098200D02*
X305410000Y-286410000D01*
X224850000Y-467561100D02*
X216050000Y-449290000D01*
X164560000Y-831293000D02*
X160520000Y-840390000D01*
X525110000Y-1275596600D02*
X506550000Y-1281700000D01*
X371490000Y-311123600D02*
X385560000Y-290760000D01*
X266750000Y-606322900D02*
X259330000Y-574490000D01*
X688010000Y-1091773300D02*
X685170000Y-1127860000D01*
X615070000Y-227053000D02*
X624250000Y-245400000D01*
X544380000Y-1050212800D02*
X515060000Y-1072220000D01*
X12850000Y-959490200D02*
X12850000Y-947130000D01*
X275220000Y-414063100D02*
X271560000Y-385320000D01*
X398290000Y-100408700D02*
X399530000Y-100340000D01*
X395770000Y-655855800D02*
X395390000Y-644480000D01*
X253620000Y-777390100D02*
X251960000Y-801440000D01*
X712000000Y-394445400D02*
X712000000Y-427440000D01*
X265660000Y-690694200D02*
X265520000Y-689560000D01*
X315010000Y-955732800D02*
X316520000Y-938400000D01*
X667550000Y-1159803300D02*
X663520000Y-1180180000D01*
X271580000Y-1224929000D02*
X268350000Y-1209130000D01*
X379220000Y-595306800D02*
X379640000Y-585340000D01*
X633540000Y-581822100D02*
X635330000Y-598040000D01*
X326810000Y-844424900D02*
X328510000Y-814150000D01*
X498200000Y-1075689200D02*
X474930000Y-1072940000D01*
X496280000Y-1429208500D02*
X460810000Y-1429640000D01*
X706770000Y-224992300D02*
X708560000Y-236860000D01*
X600670000Y-857277000D02*
X598140000Y-880600000D01*
X590980000Y-196037000D02*
X608160000Y-216350000D01*
X650690000Y-828549800D02*
X650650000Y-830980000D01*
X712830000Y-507697200D02*
X713120000Y-513470000D01*
X471340000Y-1455244800D02*
X446100000Y-1455240000D01*
X672730000Y-975444900D02*
X671250000Y-1002370000D01*
X238740000Y-1055458400D02*
X249060000Y-1021810000D01*
X421570000Y-365788700D02*
X435750000Y-349360000D01*
X607240000Y-494502500D02*
X613830000Y-523320000D01*
X613830000Y-276651900D02*
X618700000Y-288480000D01*
X640060000Y-824899000D02*
X639530000Y-834960000D01*
X417440000Y-936366900D02*
X415430000Y-923790000D01*
X205890000Y-1018568100D02*
X212880000Y-1007050000D01*
X369180000Y-1363826700D02*
X343480000Y-1356120000D01*
X658820000Y-863769000D02*
X658520000Y-875390000D01*
X579700000Y-1189122800D02*
X579140000Y-1190090000D01*
X506230000Y-1208771500D02*
X488550000Y-1210950000D01*
X566880000Y-663202700D02*
X568770000Y-676160000D01*
X544380000Y-995348200D02*
X534740000Y-1003740000D01*
X365640000Y-428637900D02*
X372350000Y-394180000D01*
X159140000Y-947188000D02*
X148110000Y-959970000D01*
X204240000Y-975546800D02*
X200760000Y-982970000D01*
X692150000Y-485625000D02*
X692150000Y-495820000D01*
X620150000Y-933133900D02*
X615130000Y-968640000D01*
X576640000Y-910969800D02*
X566570000Y-942250000D01*
X626770000Y-523176800D02*
X628570000Y-539080000D01*
X600430000Y-961695600D02*
X595990000Y-979630000D01*
X608260000Y-374254700D02*
X613830000Y-390370000D01*
X599470000Y-1200477800D02*
X585640000Y-1224410000D01*
X403830000Y-1010154300D02*
X403720000Y-1008180000D01*
X24390000Y-750000000D02*
X42220000Y-740000000D01*
X350160000Y-1452617000D02*
X327950000Y-1452620000D01*
X101340000Y-1088853300D02*
X96640000Y-1091400000D01*
X606040000Y-765471900D02*
X605860000Y-774520000D01*
X266580000Y-704017000D02*
X265660000Y-690690000D01*
X282760000Y-455966100D02*
X282010000Y-449290000D01*
X430040000Y-676060700D02*
X430120000Y-664430000D01*
X544850000Y-1049438700D02*
X544380000Y-1050210000D01*
X310750000Y-877342000D02*
X311840000Y-863570000D01*
X689690000Y-247705100D02*
X689690000Y-255070000D01*
X167750000Y-344519800D02*
X156950000Y-314330000D01*
X224790000Y-57323300D02*
X251180000Y-52620000D01*
X475850000Y-1403454700D02*
X441270000Y-1402890000D01*
X544480000Y-312628700D02*
X555270000Y-324910000D01*
X12930000Y-565084500D02*
X12940000Y-552870000D01*
X213990000Y-57323300D02*
X224790000Y-57320000D01*
X645430000Y-1027427700D02*
X644600000Y-1031490000D01*
X196820000Y-826789500D02*
X190410000Y-844950000D01*
X236980000Y-344519800D02*
X234680000Y-317900000D01*
X343060000Y-415265400D02*
X344590000Y-407370000D01*
X142540000Y-210728300D02*
X143140000Y-205620000D01*
X106580000Y-1167421100D02*
X113290000Y-1155480000D01*
X649070000Y-630034600D02*
X649090000Y-630640000D01*
X160520000Y-840389200D02*
X135750000Y-855040000D01*
X350160000Y-47382700D02*
X367030000Y-45980000D01*
X597770000Y-1039942500D02*
X589880000Y-1062920000D01*
X685470000Y-928240700D02*
X685470000Y-930760000D01*
X292850000Y-714966900D02*
X292230000Y-704900000D01*
X322470000Y-366225100D02*
X324610000Y-344900000D01*
X438310000Y-469691400D02*
X440200000Y-465630000D01*
X683280000Y-518632700D02*
X683870000Y-530270000D01*
X28130000Y-864401600D02*
X27450000Y-845240000D01*
X253610000Y-722605100D02*
X254220000Y-737160000D01*
X62740000Y-170897700D02*
X68240000Y-150810000D01*
X557100000Y-1215688000D02*
X543030000Y-1229300000D01*
X672830000Y-1333226600D02*
X667210000Y-1354060000D01*
X172940000Y-934476200D02*
X159140000Y-947190000D01*
X224820000Y-1329102300D02*
X210760000Y-1309400000D01*
X688010000Y-413661900D02*
X690300000Y-446800000D01*
X233240000Y-1224929000D02*
X232710000Y-1201740000D01*
X615130000Y-531360700D02*
X620150000Y-566870000D01*
X625100000Y-51943800D02*
X654460000Y-63330000D01*
X395060000Y-235342300D02*
X403700000Y-231620000D01*
X280720000Y-1055845400D02*
X286500000Y-1025640000D01*
X310110000Y-509481200D02*
X307560000Y-490970000D01*
X292740000Y-124982900D02*
X308080000Y-120650000D01*
X702490000Y-479686100D02*
X702490000Y-501760000D01*
X648550000Y-621119300D02*
X649070000Y-630030000D01*
X44280000Y-689616500D02*
X45270000Y-667250000D01*
X302600000Y-829034200D02*
X305100000Y-792070000D01*
X325590000Y-644281300D02*
X323560000Y-617550000D01*
X654000000Y-553682600D02*
X656470000Y-585900000D01*
X618110000Y-687704100D02*
X618260000Y-692710000D01*
X576640000Y-589030100D02*
X577370000Y-591440000D01*
X554590000Y-895477900D02*
X544380000Y-929140000D01*
X200560000Y-983492700D02*
X180450000Y-1016650000D01*
X713120000Y-986532800D02*
X712830000Y-992300000D01*
X344600000Y-285620700D02*
X351950000Y-275180000D01*
X343090000Y-1084032800D02*
X342570000Y-1046950000D01*
X363350000Y-913331400D02*
X364050000Y-906120000D01*
X669220000Y-841651400D02*
X668550000Y-858180000D01*
X304850000Y-1029535400D02*
X305090000Y-1023830000D01*
X604140000Y-815399300D02*
X602170000Y-843030000D01*
X580120000Y-1188195700D02*
X579700000Y-1189120000D01*
X509650000Y-377074500D02*
X520860000Y-384560000D01*
X157310000Y-1333009400D02*
X155070000Y-1329100000D01*
X259430000Y-1057724100D02*
X265510000Y-1037330000D01*
X8330000Y-690653900D02*
X8310000Y-673110000D01*
X355250000Y-740000000D02*
X355090000Y-719110000D01*
X626150000Y-1447555100D02*
X611040000Y-1447560000D01*
X529900000Y-658593200D02*
X544380000Y-689160000D01*
X157320000Y-167009200D02*
X173090000Y-147330000D01*
X374890000Y-205622200D02*
X377910000Y-203830000D01*
X681660000Y-1167904800D02*
X681240000Y-1170000000D01*
X544380000Y-1098769800D02*
X520870000Y-1115440000D01*
X471600000Y-931411400D02*
X470520000Y-926970000D01*
X435700000Y-912145100D02*
X435420000Y-906810000D01*
X95020000Y-818566500D02*
X89130000Y-791570000D01*
X604800000Y-695351100D02*
X605860000Y-725480000D01*
X598140000Y-619400400D02*
X600670000Y-642720000D01*
X450100000Y-715796700D02*
X450710000Y-704080000D01*
X712830000Y-1026252700D02*
X712460000Y-1032400000D01*
X555750000Y-169422300D02*
X575780000Y-182860000D01*
X403810000Y-489734200D02*
X405480000Y-481640000D01*
X575900000Y-512505200D02*
X579100000Y-520610000D01*
X632410000Y-400270400D02*
X636680000Y-424070000D01*
X315560000Y-821593900D02*
X317080000Y-798950000D01*
X395920000Y-884120600D02*
X395410000Y-855510000D01*
X677560000Y-1322298300D02*
X672830000Y-1333230000D01*
X65450000Y-686012000D02*
X70350000Y-653660000D01*
X439560000Y-1154452600D02*
X434010000Y-1149730000D01*
X381780000Y-750000000D02*
X367870000Y-740000000D01*
X547260000Y-771600600D02*
X544530000Y-809750000D01*
X330200000Y-740000000D02*
X330190000Y-733410000D01*
X654200000Y-268091000D02*
X655120000Y-275110000D01*
X380530000Y-202853400D02*
X380530000Y-202850000D01*
X660160000Y-823110200D02*
X659940000Y-836320000D01*
X543030000Y-1229302600D02*
X524880000Y-1238460000D01*
X627870000Y-841655500D02*
X627110000Y-857350000D01*
X9790000Y-638253900D02*
X9710000Y-622590000D01*
X671710000Y-258030600D02*
X675500000Y-286810000D01*
X20250000Y-1016057100D02*
X16340000Y-981860000D01*
X223980000Y-745473400D02*
X223980000Y-754530000D01*
X64770000Y-1007980400D02*
X52800000Y-981860000D01*
X669780000Y-1136693600D02*
X667550000Y-1159800000D01*
X281940000Y-537431100D02*
X279890000Y-525010000D01*
X442140000Y-948335100D02*
X440200000Y-940360000D01*
X705170000Y-797259000D02*
X705170000Y-822410000D01*
X411590000Y-813341000D02*
X411370000Y-806450000D01*
X486090000Y-1455067200D02*
X471340000Y-1455240000D01*
X292570000Y-908706800D02*
X297940000Y-871640000D01*
X243290000Y-1127652400D02*
X244070000Y-1120990000D01*
X653680000Y-190385000D02*
X654800000Y-195820000D01*
X440200000Y-940364400D02*
X435700000Y-912150000D01*
X331340000Y-1419842000D02*
X308400000Y-1417200000D01*
X669780000Y-363305400D02*
X672220000Y-377400000D01*
X429570000Y-1313066800D02*
X410470000Y-1308930000D01*
X641450000Y-745922600D02*
X641450000Y-754080000D01*
X388000000Y-1259653500D02*
X368000000Y-1244400000D01*
X690300000Y-1045131200D02*
X690300000Y-1053200000D01*
X242280000Y-636321200D02*
X247190000Y-661410000D01*
X86920000Y-605616100D02*
X104660000Y-589240000D01*
X509060000Y-1166834900D02*
X480200000Y-1169690000D01*
X584130000Y-866779300D02*
X583540000Y-872210000D01*
X105100000Y-474061000D02*
X133440000Y-483990000D01*
X395620000Y-684501300D02*
X395770000Y-655860000D01*
X323560000Y-617554000D02*
X321420000Y-602000000D01*
X149740000Y-1207294000D02*
X154360000Y-1190200000D01*
X368020000Y-1329102300D02*
X360590000Y-1326340000D01*
X178310000Y-64649300D02*
X180690000Y-64650000D01*
X174210000Y-1076824800D02*
X188300000Y-1051310000D01*
X519860000Y-1400818400D02*
X517160000Y-1400980000D01*
X543710000Y-1266895600D02*
X525110000Y-1275600000D01*
X239970000Y-449312000D02*
X238620000Y-443440000D01*
X64660000Y-810708900D02*
X63940000Y-807440000D01*
X9580000Y-858803600D02*
X9100000Y-845280000D01*
X681780000Y-491579800D02*
X683280000Y-518630000D01*
X435750000Y-349356700D02*
X442630000Y-343410000D01*
X583160000Y-1026892000D02*
X582080000Y-1030930000D01*
X613630000Y-1168722500D02*
X613480000Y-1169030000D01*
X589980000Y-703861100D02*
X590430000Y-716620000D01*
X577370000Y-908561000D02*
X576640000Y-910970000D01*
X305090000Y-707936800D02*
X302600000Y-670960000D01*
X554090000Y-416524000D02*
X567100000Y-437780000D01*
X328170000Y-972036900D02*
X329460000Y-963700000D01*
X708560000Y-1263135300D02*
X706770000Y-1275010000D01*
X589450000Y-1263419200D02*
X585260000Y-1270020000D01*
X96660000Y-408629800D02*
X101330000Y-411160000D01*
X562680000Y-1391868100D02*
X555740000Y-1394460000D01*
X590270000Y-1305096600D02*
X587410000Y-1308760000D01*
X234680000Y-317901500D02*
X233020000Y-309800000D01*
X8330000Y-810917100D02*
X8320000Y-789980000D01*
X592340000Y-156455500D02*
X601550000Y-165820000D01*
X382970000Y-477388000D02*
X385900000Y-463170000D01*
X613830000Y-1109638300D02*
X608260000Y-1125750000D01*
X645430000Y-472572600D02*
X648550000Y-495610000D01*
X228890000Y-479879600D02*
X224850000Y-467560000D01*
X619200000Y-733143200D02*
X619200000Y-766860000D01*
X271200000Y-941718100D02*
X273490000Y-928810000D01*
X273630000Y-646227300D02*
X267640000Y-611000000D01*
X179710000Y-579011200D02*
X197830000Y-608500000D01*
X381550000Y-716308400D02*
X381550000Y-703910000D01*
X626600000Y-1121608600D02*
X623930000Y-1134750000D01*
X651890000Y-748083900D02*
X651890000Y-751920000D01*
X583160000Y-1229191500D02*
X580510000Y-1233040000D01*
X664590000Y-559766800D02*
X666170000Y-580330000D01*
X175890000Y-623577500D02*
X183560000Y-640400000D01*
X615130000Y-968639000D02*
X614970000Y-970050000D01*
X459390000Y-880688500D02*
X455660000Y-860790000D01*
X710720000Y-1153069500D02*
X710720000Y-1184600000D01*
X25760000Y-690276300D02*
X26450000Y-674770000D01*
X279910000Y-1061982700D02*
X280140000Y-1059710000D01*
X456590000Y-70428500D02*
X460810000Y-70360000D01*
X204700000Y-774291400D02*
X200870000Y-807690000D01*
X586220000Y-1309896800D02*
X579270000Y-1314580000D01*
X417430000Y-563637900D02*
X419880000Y-538880000D01*
X61330000Y-1259653500D02*
X67610000Y-1238460000D01*
X345070000Y-535803700D02*
X345140000Y-525380000D01*
X217190000Y-821352900D02*
X213060000Y-839510000D01*
X439310000Y-1099081400D02*
X425320000Y-1076390000D01*
X225610000Y-634178300D02*
X231860000Y-660030000D01*
X298200000Y-420916400D02*
X297720000Y-413800000D01*
X704120000Y-1339207000D02*
X699290000Y-1357610000D01*
X200200000Y-688408100D02*
X200790000Y-692270000D01*
X138440000Y-1014550500D02*
X130910000Y-1016580000D01*
X46090000Y-971066700D02*
X41380000Y-947130000D01*
X613830000Y-1168226900D02*
X613630000Y-1168720000D01*
X387240000Y-1148540100D02*
X379230000Y-1126450000D01*
X613830000Y-523315300D02*
X614970000Y-529950000D01*
X571450000Y-78072700D02*
X586920000Y-82940000D01*
X87110000Y-740000000D02*
X88340000Y-714110000D01*
X552570000Y-366347800D02*
X562600000Y-381520000D01*
X310980000Y-624776300D02*
X306690000Y-593540000D01*
X112300000Y-580378200D02*
X122070000Y-579990000D01*
X348070000Y-374544900D02*
X348420000Y-373500000D01*
X449700000Y-755456400D02*
X449700000Y-750000000D01*
X545270000Y-1048656200D02*
X544850000Y-1049440000D01*
X30170000Y-623014200D02*
X32660000Y-601040000D01*
X613690000Y-1322706700D02*
X602350000Y-1333490000D01*
X361560000Y-105900600D02*
X391070000Y-101450000D01*
X403710000Y-491740300D02*
X403810000Y-489730000D01*
X245620000Y-1270590800D02*
X240230000Y-1259650000D01*
X712460000Y-467596000D02*
X712830000Y-473750000D01*
X713350000Y-587775200D02*
X713520000Y-593020000D01*
X62420000Y-913172800D02*
X53800000Y-890190000D01*
X613620000Y-331283600D02*
X613830000Y-331810000D01*
X713120000Y-547755000D02*
X713350000Y-553220000D01*
X503880000Y-217750600D02*
X525860000Y-224450000D01*
X324610000Y-344902200D02*
X327780000Y-327960000D01*
X210950000Y-1140787800D02*
X215790000Y-1120760000D01*
X300140000Y-549764300D02*
X294830000Y-517610000D01*
X133440000Y-483987500D02*
X138430000Y-485330000D01*
X317630000Y-719487200D02*
X317080000Y-701050000D01*
X240230000Y-1259653500D02*
X239910000Y-1258650000D01*
X561270000Y-481018100D02*
X573570000Y-507490000D01*
X600670000Y-642723100D02*
X602170000Y-656970000D01*
X320290000Y-1087771900D02*
X321480000Y-1070860000D01*
X681780000Y-1008420200D02*
X681570000Y-1010260000D01*
X557980000Y-881797100D02*
X554590000Y-895480000D01*
X712000000Y-1072556400D02*
X712000000Y-1105550000D01*
X644770000Y-309049400D02*
X646030000Y-312670000D01*
X11280000Y-587999300D02*
X12930000Y-565080000D01*
X474930000Y-485149100D02*
X474930000Y-485150000D01*
X532510000Y-193156800D02*
X544690000Y-197590000D01*
X144080000Y-74496500D02*
X170670000Y-66720000D01*
X305490000Y-1213913600D02*
X299560000Y-1190200000D01*
X474930000Y-560685700D02*
X497170000Y-543390000D01*
X89130000Y-791565300D02*
X88320000Y-783290000D01*
X329340000Y-534455900D02*
X327950000Y-525710000D01*
X183590000Y-1120755800D02*
X191750000Y-1107360000D01*
X704060000Y-941436500D02*
X703370000Y-957850000D01*
X104660000Y-589238600D02*
X112300000Y-580380000D01*
X713760000Y-747564900D02*
X713760000Y-752440000D01*
X644600000Y-468508200D02*
X645430000Y-472570000D01*
X411800000Y-653905200D02*
X412250000Y-646390000D01*
X673830000Y-963964500D02*
X672730000Y-975440000D01*
X276710000Y-988359500D02*
X280480000Y-971720000D01*
X42220000Y-740000000D02*
X42460000Y-720880000D01*
X573550000Y-746808300D02*
X573550000Y-753190000D01*
X712460000Y-1032404000D02*
X712460000Y-1065930000D01*
X180100000Y-760159100D02*
X178170000Y-780380000D01*
X266580000Y-796055600D02*
X268140000Y-770840000D01*
X711430000Y-1145117200D02*
X710720000Y-1153070000D01*
X280880000Y-738267500D02*
X280500000Y-722060000D01*
X172630000Y-472644100D02*
X180260000Y-482840000D01*
X493090000Y-215730400D02*
X503880000Y-217750000D01*
X282850000Y-177206800D02*
X291340000Y-170900000D01*
X544380000Y-929145000D02*
X544170000Y-929380000D01*
X282010000Y-449292500D02*
X280830000Y-440480000D01*
X300540000Y-1060413200D02*
X303510000Y-1040570000D01*
X203220000Y-521296300D02*
X204350000Y-524180000D01*
X654460000Y-63331700D02*
X660110000Y-63330000D01*
X380550000Y-1366615000D02*
X377600000Y-1366170000D01*
X278020000Y-683599500D02*
X274580000Y-654870000D01*
X544380000Y-570855100D02*
X554590000Y-604520000D01*
X251180000Y-1447381000D02*
X224790000Y-1442680000D01*
X288640000Y-662947600D02*
X286040000Y-639100000D01*
X380030000Y-515993300D02*
X381550000Y-504460000D01*
X636680000Y-424071500D02*
X639490000Y-436090000D01*
X557980000Y-618203300D02*
X562780000Y-639710000D01*
X471600000Y-568585900D02*
X474930000Y-560690000D01*
X106580000Y-332576400D02*
X88480000Y-309800000D01*
X670210000Y-722549600D02*
X670330000Y-737490000D01*
X195360000Y-1266760700D02*
X193910000Y-1259650000D01*
X233850000Y-1338654100D02*
X224820000Y-1329100000D01*
X403720000Y-1008177300D02*
X399060000Y-973040000D01*
X589880000Y-1062919800D02*
X586660000Y-1073450000D01*
X130020000Y-1416580700D02*
X113000000Y-1410170000D01*
X311840000Y-863573200D02*
X314660000Y-837450000D01*
X509650000Y-625466700D02*
X512270000Y-628830000D01*
X650690000Y-671450200D02*
X651570000Y-708380000D01*
X547750000Y-1333431300D02*
X526440000Y-1341410000D01*
X708560000Y-1234086900D02*
X708560000Y-1263140000D01*
X181090000Y-484580000D02*
X203220000Y-521300000D01*
X274720000Y-1089415000D02*
X279910000Y-1061980000D01*
X232640000Y-595910100D02*
X240240000Y-625520000D01*
X544510000Y-809910800D02*
X544380000Y-810840000D01*
X342880000Y-493514400D02*
X343110000Y-489050000D01*
X395960000Y-735521700D02*
X395870000Y-724530000D01*
X345170000Y-77363600D02*
X374260000Y-74880000D01*
X336030000Y-609108300D02*
X332850000Y-572330000D01*
X280500000Y-722064200D02*
X278960000Y-697280000D01*
X595160000Y-900335300D02*
X592640000Y-917330000D01*
X33940000Y-912409200D02*
X32760000Y-899990000D01*
X12850000Y-947133600D02*
X12850000Y-934770000D01*
X268180000Y-740000000D02*
X268180000Y-730970000D01*
X424510000Y-126291500D02*
X451700000Y-123950000D01*
X475510000Y-288230900D02*
X479060000Y-287710000D01*
X63940000Y-807444900D02*
X62310000Y-790790000D01*
X648550000Y-878880900D02*
X646500000Y-908380000D01*
X613270000Y-450514500D02*
X613450000Y-451050000D01*
X203090000Y-1294377800D02*
X195360000Y-1266760000D01*
X70350000Y-653655600D02*
X71690000Y-650000000D01*
X604470000Y-365682900D02*
X608260000Y-374250000D01*
X411950000Y-1122183800D02*
X403570000Y-1107000000D01*
X395910000Y-615888000D02*
X395540000Y-604680000D01*
X231860000Y-660030200D02*
X233650000Y-669190000D01*
X653450000Y-1151701700D02*
X648550000Y-1176430000D01*
X97530000Y-668916000D02*
X121650000Y-643790000D01*
X666670000Y-144237400D02*
X672570000Y-165530000D01*
X395770000Y-1265080700D02*
X388000000Y-1259650000D01*
X646030000Y-1187330700D02*
X644770000Y-1190950000D01*
X676040000Y-1084902600D02*
X674660000Y-1094010000D01*
X677320000Y-294697800D02*
X681240000Y-330000000D01*
X268140000Y-729161500D02*
X266580000Y-704020000D01*
X279600000Y-901483200D02*
X282450000Y-881770000D01*
X562780000Y-860290500D02*
X557980000Y-881800000D01*
X382910000Y-73629000D02*
X415940000Y-71770000D01*
X303510000Y-1040570200D02*
X304850000Y-1029540000D01*
X365610000Y-1071270800D02*
X365460000Y-1060590000D01*
X398110000Y-406568000D02*
X409790000Y-381220000D01*
X435420000Y-906806900D02*
X432110000Y-874320000D01*
X372720000Y-390750100D02*
X376050000Y-380660000D01*
X413700000Y-1372760400D02*
X380550000Y-1366620000D01*
X421460000Y-1428697000D02*
X415940000Y-1428230000D01*
X289240000Y-1014353800D02*
X292730000Y-990940000D01*
X605600000Y-934223000D02*
X600430000Y-961700000D01*
X679510000Y-772107200D02*
X679210000Y-807500000D01*
X613830000Y-1223342900D02*
X603970000Y-1242370000D01*
X620480000Y-295100300D02*
X629840000Y-321970000D01*
X649640000Y-118128500D02*
X655450000Y-125990000D01*
X42460000Y-720880400D02*
X42940000Y-708250000D01*
X343390000Y-1009784700D02*
X343060000Y-1003700000D01*
X624250000Y-245399300D02*
X629010000Y-260110000D01*
X608260000Y-1125747900D02*
X604480000Y-1134310000D01*
X331220000Y-149815600D02*
X343480000Y-143880000D01*
X566570000Y-942248200D02*
X559470000Y-960720000D01*
X474980000Y-1124056100D02*
X445440000Y-1104740000D01*
X688010000Y-1086337800D02*
X688010000Y-1091770000D01*
X135750000Y-855037400D02*
X126110000Y-861570000D01*
X619200000Y-766856800D02*
X619140000Y-773000000D01*
X710720000Y-315402800D02*
X710720000Y-346930000D01*
X491930000Y-1375464300D02*
X465870000Y-1376280000D01*
X636370000Y-996328700D02*
X633110000Y-1020360000D01*
X355260000Y-758899000D02*
X355260000Y-750000000D01*
X675500000Y-286810300D02*
X677320000Y-294700000D01*
X269550000Y-136173300D02*
X292740000Y-124980000D01*
X555240000Y-105450600D02*
X561180000Y-107600000D01*
X554100000Y-1083469700D02*
X549150000Y-1091800000D01*
X608000000Y-51943800D02*
X625100000Y-51940000D01*
X512260000Y-871165300D02*
X509650000Y-874520000D01*
X531830000Y-1398714200D02*
X519860000Y-1400820000D01*
X661500000Y-518106800D02*
X663780000Y-541810000D01*
X60150000Y-1294377800D02*
X60210000Y-1293720000D01*
X608160000Y-216352400D02*
X615070000Y-227050000D01*
X451960000Y-823027700D02*
X450710000Y-795920000D01*
X68230000Y-1349203300D02*
X62740000Y-1329100000D01*
X234660000Y-1182070700D02*
X236950000Y-1155480000D01*
X232710000Y-1201738000D02*
X233000000Y-1190200000D01*
X280880000Y-750000000D02*
X268180000Y-740000000D01*
X684300000Y-212088100D02*
X689690000Y-247710000D01*
X8320000Y-789975900D02*
X8310000Y-776050000D01*
X280880000Y-761731300D02*
X280880000Y-750000000D01*
X534820000Y-73125500D02*
X542770000Y-74520000D01*
X558360000Y-1255211900D02*
X543710000Y-1266900000D01*
X350090000Y-898955400D02*
X350620000Y-880900000D01*
X42940000Y-708250000D02*
X44280000Y-689620000D01*
X95590000Y-823062100D02*
X95020000Y-818570000D01*
X413700000Y-127236400D02*
X424510000Y-126290000D01*
X641150000Y-785640800D02*
X640930000Y-794270000D01*
X688060000Y-812581100D02*
X687520000Y-847290000D01*
X24910000Y-720151500D02*
X24930000Y-701890000D01*
X267380000Y-1447381000D02*
X251180000Y-1447380000D01*
X603050000Y-1082867300D02*
X596820000Y-1098820000D01*
X672730000Y-524555000D02*
X673830000Y-536040000D01*
X679210000Y-807500800D02*
X679100000Y-812230000D01*
X655450000Y-125991400D02*
X666670000Y-144240000D01*
X291340000Y-1329102300D02*
X282840000Y-1322790000D01*
X571640000Y-1152947000D02*
X555330000Y-1174930000D01*
X579140000Y-1190091300D02*
X557100000Y-1215690000D01*
X233020000Y-309795300D02*
X232730000Y-298290000D01*
X215150000Y-1053028900D02*
X225580000Y-1031020000D01*
X227700000Y-1086722600D02*
X238460000Y-1056210000D01*
X67610000Y-1238460600D02*
X70490000Y-1224930000D01*
X412260000Y-853617700D02*
X411810000Y-846090000D01*
X604140000Y-684600700D02*
X604800000Y-695350000D01*
X314860000Y-542772500D02*
X310470000Y-515120000D01*
X517170000Y-99031800D02*
X519850000Y-99190000D01*
X613480000Y-1169034100D02*
X599470000Y-1200480000D01*
X509580000Y-155406900D02*
X524480000Y-158090000D01*
X571380000Y-346675400D02*
X576110000Y-352830000D01*
X660710000Y-503683700D02*
X661500000Y-518110000D01*
X474290000Y-249903600D02*
X478690000Y-249260000D01*
X467250000Y-152068200D02*
X488530000Y-152760000D01*
X196590000Y-304826100D02*
X192410000Y-275070000D01*
X130010000Y-83439000D02*
X144080000Y-74500000D01*
X379230000Y-904686300D02*
X380210000Y-875100000D01*
X703370000Y-980931800D02*
X702490000Y-998240000D01*
X650700000Y-1316268500D02*
X639870000Y-1337520000D01*
X311870000Y-636398700D02*
X310980000Y-624780000D01*
X681570000Y-1010256500D02*
X679190000Y-1046820000D01*
X254220000Y-737156300D02*
X254220000Y-762850000D01*
X143130000Y-1294377800D02*
X142530000Y-1289300000D01*
X478690000Y-249259300D02*
X483890000Y-250040000D01*
X683870000Y-969729600D02*
X683280000Y-981370000D01*
X619660000Y-414294900D02*
X626510000Y-443550000D01*
X656470000Y-914104300D02*
X654000000Y-946320000D01*
X442130000Y-551661100D02*
X443360000Y-548740000D01*
X219100000Y-559169200D02*
X230050000Y-588370000D01*
X666900000Y-899016000D02*
X666170000Y-919670000D01*
X45270000Y-667249300D02*
X47630000Y-653990000D01*
X259050000Y-854976500D02*
X260630000Y-846980000D01*
X690300000Y-1053202000D02*
X688010000Y-1086340000D01*
X421460000Y-71302000D02*
X456590000Y-70430000D01*
X659940000Y-836316800D02*
X658820000Y-863770000D01*
X459380000Y-619317800D02*
X461890000Y-602900000D01*
X685470000Y-569240700D02*
X685470000Y-571760000D01*
X517160000Y-1400977400D02*
X481440000Y-1403390000D01*
X509650000Y-423939200D02*
X515050000Y-427790000D01*
X233650000Y-669192200D02*
X233950000Y-671420000D01*
X627110000Y-857351700D02*
X625020000Y-883180000D01*
X677410000Y-886241400D02*
X677000000Y-893210000D01*
X367540000Y-708265800D02*
X366790000Y-672500000D01*
X230760000Y-910195900D02*
X225710000Y-924500000D01*
X320260000Y-383338100D02*
X321050000Y-375570000D01*
X701380000Y-1059565700D02*
X700000000Y-1079450000D01*
X303570000Y-213291300D02*
X311550000Y-205620000D01*
X16340000Y-981858000D02*
X12850000Y-959490000D01*
X316250000Y-559140200D02*
X314860000Y-542770000D01*
X330040000Y-773385600D02*
X330200000Y-766590000D01*
X121650000Y-643787400D02*
X133330000Y-638500000D01*
X677080000Y-175541700D02*
X683280000Y-205640000D01*
X665500000Y-440625000D02*
X668040000Y-459590000D01*
X689690000Y-1252294800D02*
X684300000Y-1287910000D01*
X206440000Y-482311200D02*
X194280000Y-456640000D01*
X452700000Y-216350900D02*
X461770000Y-214970000D01*
X149600000Y-1311776400D02*
X143130000Y-1294380000D01*
X436360000Y-97232300D02*
X441270000Y-97110000D01*
X200260000Y-811629700D02*
X196820000Y-826790000D01*
X569890000Y-142596800D02*
X585400000Y-152290000D01*
X381550000Y-783689100D02*
X381780000Y-756330000D01*
X621980000Y-495403600D02*
X626770000Y-523180000D01*
X447590000Y-1204647600D02*
X434030000Y-1199370000D01*
X626510000Y-1056450100D02*
X619660000Y-1085700000D01*
X414810000Y-1233164600D02*
X405480000Y-1225930000D01*
X585600000Y-953174700D02*
X579100000Y-979390000D01*
X93750000Y-473026300D02*
X93750000Y-473030000D01*
X652150000Y-1438960800D02*
X626150000Y-1447560000D01*
X367660000Y-788111700D02*
X367940000Y-751620000D01*
X238240000Y-706443700D02*
X238770000Y-714080000D01*
X366520000Y-832211800D02*
X366800000Y-827500000D01*
X667960000Y-619183900D02*
X668550000Y-641820000D01*
X281120000Y-967825600D02*
X285870000Y-944720000D01*
X681240000Y-1170000300D02*
X677320000Y-1205300000D01*
X113000000Y-1410166200D02*
X99040000Y-1398550000D01*
X627870000Y-658344500D02*
X629090000Y-681400000D01*
X409790000Y-381217600D02*
X413730000Y-374260000D01*
X491930000Y-124536900D02*
X504790000Y-125420000D01*
X504790000Y-1374581800D02*
X491930000Y-1375460000D01*
X452370000Y-1283432400D02*
X428510000Y-1278770000D01*
X83980000Y-881688600D02*
X72890000Y-858770000D01*
X613450000Y-451047200D02*
X613830000Y-452440000D01*
X149650000Y-188140400D02*
X155090000Y-170900000D01*
X675870000Y-925244000D02*
X675180000Y-934150000D01*
X367550000Y-791731300D02*
X367660000Y-788110000D01*
X440200000Y-559599000D02*
X442130000Y-551660000D01*
X527840000Y-262703400D02*
X545980000Y-273040000D01*
X553890000Y-525149200D02*
X559470000Y-539280000D01*
X342030000Y-453228000D02*
X342220000Y-451450000D01*
X130850000Y-429220900D02*
X150540000Y-448690000D01*
X633540000Y-918177800D02*
X631580000Y-939690000D01*
X362070000Y-515652700D02*
X361310000Y-504850000D01*
X629840000Y-321970000D02*
X634740000Y-343180000D01*
X550500000Y-1454167600D02*
X526500000Y-1454170000D01*
X535580000Y-1305513800D02*
X510540000Y-1313880000D01*
X348930000Y-1277177900D02*
X331710000Y-1259650000D01*
X280480000Y-971717400D02*
X281120000Y-967830000D01*
X701380000Y-440434400D02*
X701380000Y-461230000D01*
X580230000Y-224167400D02*
X583480000Y-228010000D01*
X388620000Y-441555200D02*
X395580000Y-418590000D01*
X203100000Y-205622200D02*
X210770000Y-190610000D01*
X178300000Y-1435356500D02*
X170650000Y-1433280000D01*
X114360000Y-972298200D02*
X90380000Y-964970000D01*
X330040000Y-726612900D02*
X329060000Y-694170000D01*
X293450000Y-740000000D02*
X292850000Y-714970000D01*
X440200000Y-465633400D02*
X458640000Y-441480000D01*
X709800000Y-306514600D02*
X710720000Y-315400000D01*
X693410000Y-297099400D02*
X696160000Y-323760000D01*
X664090000Y-1277479700D02*
X655030000Y-1303570000D01*
X653860000Y-1375520600D02*
X634440000Y-1396740000D01*
X247980000Y-396102500D02*
X243840000Y-377880000D01*
X696800000Y-762175400D02*
X696800000Y-777710000D01*
X520860000Y-384562100D02*
X544380000Y-401240000D01*
X306690000Y-593538500D02*
X306180000Y-587640000D01*
X305100000Y-792065800D02*
X305230000Y-787640000D01*
X329070000Y-805835700D02*
X330040000Y-773390000D01*
X543670000Y-570095400D02*
X544170000Y-570620000D01*
X339200000Y-851540200D02*
X339300000Y-847840000D01*
X588210000Y-235328400D02*
X603650000Y-257230000D01*
X156950000Y-1046765500D02*
X150620000Y-1051310000D01*
X469050000Y-494100800D02*
X471810000Y-488930000D01*
X706770000Y-198007700D02*
X706770000Y-224990000D01*
X231050000Y-590995100D02*
X232640000Y-595910000D01*
X582160000Y-269575800D02*
X584800000Y-274600000D01*
X488550000Y-1249412600D02*
X471590000Y-1249720000D01*
X360590000Y-173661600D02*
X368020000Y-170900000D01*
X604550000Y-485393000D02*
X607240000Y-494500000D01*
X685170000Y-372141100D02*
X688010000Y-408230000D01*
X266640000Y-1155480200D02*
X267540000Y-1141530000D01*
X238660000Y-505436500D02*
X228890000Y-479880000D01*
X374260000Y-1425123800D02*
X345170000Y-1422640000D01*
X265520000Y-689559000D02*
X260740000Y-653630000D01*
X249750000Y-819502300D02*
X247140000Y-838920000D01*
X683280000Y-1151153300D02*
X681660000Y-1167900000D01*
X269370000Y-549721700D02*
X265010000Y-532710000D01*
X661720000Y-1196342800D02*
X655120000Y-1224890000D01*
X431240000Y-1454881000D02*
X406420000Y-1454880000D01*
X258830000Y-989960300D02*
X262050000Y-976180000D01*
X693620000Y-524669300D02*
X693620000Y-536550000D01*
X583540000Y-872214500D02*
X579100000Y-901570000D01*
X9680000Y-895547100D02*
X9690000Y-877790000D01*
X355260000Y-750000000D02*
X342580000Y-740000000D01*
X343840000Y-1087862900D02*
X343090000Y-1084030000D01*
X214770000Y-899565900D02*
X207600000Y-917510000D01*
X345310000Y-972756800D02*
X345200000Y-962350000D01*
X411340000Y-726688400D02*
X411370000Y-693550000D01*
X665500000Y-1059374700D02*
X664110000Y-1078040000D01*
X696160000Y-1176236200D02*
X693410000Y-1202900000D01*
X205060000Y-344519800D02*
X198150000Y-312040000D01*
X54000000Y-413968700D02*
X57160000Y-409310000D01*
X307560000Y-490972300D02*
X305370000Y-475420000D01*
X238780000Y-785911500D02*
X238260000Y-793560000D01*
X458640000Y-441478200D02*
X474930000Y-427090000D01*
X427190000Y-503190000D02*
X437640000Y-472250000D01*
X450710000Y-704079500D02*
X451950000Y-676970000D01*
X182860000Y-916293100D02*
X172940000Y-934480000D01*
X638570000Y-516400500D02*
X642020000Y-546800000D01*
X292230000Y-704897300D02*
X290270000Y-676560000D01*
X696800000Y-777713500D02*
X696610000Y-802170000D01*
X380020000Y-983866300D02*
X379820000Y-954650000D01*
X555270000Y-324913000D02*
X571380000Y-346680000D01*
X669630000Y-682329400D02*
X670000000Y-697790000D01*
X99060000Y-101448800D02*
X113000000Y-89850000D01*
X633110000Y-479645000D02*
X636370000Y-503670000D01*
X712830000Y-473747300D02*
X712830000Y-507700000D01*
X506950000Y-628782500D02*
X509650000Y-625470000D01*
X273200000Y-566465000D02*
X269370000Y-549720000D01*
X677320000Y-1205302500D02*
X675500000Y-1213190000D01*
X334050000Y-913445900D02*
X336130000Y-891800000D01*
X16410000Y-518142000D02*
X20290000Y-484030000D01*
X703940000Y-183482100D02*
X706770000Y-198010000D01*
X140520000Y-379244200D02*
X129620000Y-361910000D01*
X636680000Y-1075927500D02*
X632410000Y-1099730000D01*
X239000000Y-102025300D02*
X239490000Y-101730000D01*
X27450000Y-845243400D02*
X26250000Y-822570000D01*
X189960000Y-655692800D02*
X197980000Y-678000000D01*
X547380000Y-731778300D02*
X547380000Y-768220000D01*
X216820000Y-948103800D02*
X204240000Y-975550000D01*
X409870000Y-191268000D02*
X429670000Y-186960000D01*
X642020000Y-546802900D02*
X643000000Y-553740000D01*
X242640000Y-984169800D02*
X242900000Y-983200000D01*
X679190000Y-1046822000D02*
X678510000Y-1051900000D01*
X674660000Y-1094006500D02*
X672230000Y-1122600000D01*
X391070000Y-101448800D02*
X398290000Y-100410000D01*
X431890000Y-635111600D02*
X432100000Y-625680000D01*
X433170000Y-301014700D02*
X442990000Y-296690000D01*
X509650000Y-1076076400D02*
X498200000Y-1075690000D01*
X8400000Y-832205000D02*
X8330000Y-810920000D01*
X411280000Y-766612300D02*
X411280000Y-750000000D01*
X60270000Y-204863200D02*
X62740000Y-170900000D01*
X181810000Y-1363826700D02*
X180310000Y-1362420000D01*
X30430000Y-878290900D02*
X28130000Y-864400000D01*
X618570000Y-1091781100D02*
X613830000Y-1109640000D01*
X173840000Y-354376000D02*
X167750000Y-344520000D01*
X694760000Y-936097900D02*
X693620000Y-963450000D01*
X140740000Y-486864500D02*
X164640000Y-509160000D01*
X173090000Y-147330300D02*
X180310000Y-137590000D01*
X545260000Y-451338800D02*
X561270000Y-481020000D01*
X540910000Y-1368059200D02*
X536680000Y-1368810000D01*
X297690000Y-407467000D02*
X295300000Y-376560000D01*
X678280000Y-647410700D02*
X678510000Y-653010000D01*
X53800000Y-890190700D02*
X52670000Y-879580000D01*
X686670000Y-891559300D02*
X685470000Y-928240000D01*
X669630000Y-817670600D02*
X669220000Y-841650000D01*
X470990000Y-1211255300D02*
X447590000Y-1204650000D01*
X585610000Y-115342400D02*
X612910000Y-132390000D01*
X634750000Y-1156816600D02*
X629840000Y-1178030000D01*
X342570000Y-1046953700D02*
X341950000Y-1041350000D01*
X713760000Y-787453800D02*
X713720000Y-792350000D01*
X432110000Y-874317900D02*
X431900000Y-864890000D01*
X631310000Y-1295959300D02*
X618320000Y-1316770000D01*
X311550000Y-1294377800D02*
X303570000Y-1286710000D01*
X672570000Y-165528500D02*
X677080000Y-175540000D01*
X629590000Y-800777000D02*
X629090000Y-818600000D01*
X588230000Y-824535400D02*
X587510000Y-834610000D01*
X217150000Y-678670400D02*
X221040000Y-703900000D01*
X484880000Y-815550500D02*
X482270000Y-805610000D01*
X549150000Y-1091799200D02*
X544380000Y-1098770000D01*
X222410000Y-784464300D02*
X221080000Y-796080000D01*
X480860000Y-1124125200D02*
X474980000Y-1124060000D01*
X200790000Y-692267000D02*
X204700000Y-725710000D01*
X88340000Y-714111800D02*
X89100000Y-706760000D01*
X278960000Y-697276700D02*
X278020000Y-683600000D01*
X518510000Y-545468300D02*
X543670000Y-570100000D01*
X652170000Y-1071187300D02*
X648550000Y-1094870000D01*
X301310000Y-556507700D02*
X300430000Y-551050000D01*
X567100000Y-47898500D02*
X589100000Y-47900000D01*
X575900000Y-987495700D02*
X573580000Y-992510000D01*
X45490000Y-835616800D02*
X44380000Y-809900000D01*
X688320000Y-772843300D02*
X688060000Y-807090000D01*
X161910000Y-899984600D02*
X155430000Y-904290000D01*
X605860000Y-725477200D02*
X606040000Y-734530000D01*
X545300000Y-234329900D02*
X557770000Y-243760000D01*
X655130000Y-1373719600D02*
X653860000Y-1375520000D01*
X295630000Y-348855900D02*
X295280000Y-344300000D01*
X425710000Y-422666900D02*
X441850000Y-397980000D01*
X661720000Y-303657800D02*
X663520000Y-319820000D01*
X286640000Y-88537500D02*
X308400000Y-82800000D01*
X440200000Y-465633400D02*
X440200000Y-465630000D01*
X696230000Y-842283400D02*
X696230000Y-857160000D01*
X47530000Y-845695800D02*
X45490000Y-835620000D01*
X587760000Y-1383737700D02*
X562680000Y-1391870000D01*
X445720000Y-394386400D02*
X475970000Y-375770000D01*
X504860000Y-633087400D02*
X506950000Y-628780000D01*
X286640000Y-1411462800D02*
X272970000Y-1409440000D01*
X96299866Y-749117141D02*
X96299866Y-739831783D01*
X259260000Y-646070500D02*
X253890000Y-617680000D01*
X268140000Y-770840400D02*
X268190000Y-769020000D01*
X303570000Y-1286712500D02*
X284660000Y-1259650000D01*
X498240000Y-424335200D02*
X509650000Y-423940000D01*
X713760000Y-752435100D02*
X713760000Y-787450000D01*
X660110000Y-63331700D02*
X664590000Y-66790000D01*
X713520000Y-872237500D02*
X713520000Y-906980000D01*
X300550000Y-947767400D02*
X300570000Y-947600000D01*
X352180000Y-1225057200D02*
X345070000Y-1215360000D01*
X382860000Y-1021257800D02*
X381400000Y-994230000D01*
X683870000Y-530951700D02*
X685470000Y-569240000D01*
X61400000Y-750000000D02*
X87110000Y-740000000D01*
X660710000Y-996316400D02*
X657520000Y-1024070000D01*
X321530000Y-897096500D02*
X323310000Y-884580000D01*
X297450000Y-1089391600D02*
X297750000Y-1087810000D01*
X703940000Y-159740000D02*
X703940000Y-183480000D01*
X282030000Y-245233300D02*
X284670000Y-240350000D01*
X173820000Y-1145594500D02*
X183590000Y-1120760000D01*
X280140000Y-1059709600D02*
X280720000Y-1055850000D01*
X441850000Y-397976700D02*
X441850000Y-397980000D01*
X256760000Y-502472100D02*
X249280000Y-477990000D01*
X479060000Y-287712700D02*
X482980000Y-288300000D01*
X88480000Y-309795300D02*
X84850000Y-300970000D01*
X649090000Y-630641200D02*
X650650000Y-669020000D01*
X547600000Y-134478500D02*
X569890000Y-142600000D01*
X501140000Y-71125200D02*
X534820000Y-73130000D01*
X327780000Y-327958900D02*
X333640000Y-310690000D01*
X366790000Y-672502700D02*
X366510000Y-667780000D01*
X9710000Y-622586400D02*
X9720000Y-604920000D01*
X272190000Y-1110996900D02*
X274720000Y-1089420000D01*
X510480000Y-333617700D02*
X524610000Y-342520000D01*
X395410000Y-855507500D02*
X395780000Y-844150000D01*
X543670000Y-929904600D02*
X518510000Y-954530000D01*
X705170000Y-702741000D02*
X705280000Y-717420000D01*
X474930000Y-1014858300D02*
X471800000Y-1011070000D01*
X681570000Y-489743400D02*
X681780000Y-491580000D01*
X579100000Y-460405800D02*
X582080000Y-469070000D01*
X350570000Y-618738600D02*
X350090000Y-602310000D01*
X428920000Y-756482900D02*
X428920000Y-750000000D01*
X670330000Y-737493800D02*
X670330000Y-762510000D01*
X129620000Y-1138083100D02*
X140510000Y-1120760000D01*
X297720000Y-413802500D02*
X297690000Y-407470000D01*
X639490000Y-436090800D02*
X644600000Y-468510000D01*
X260740000Y-653634800D02*
X259260000Y-646070000D01*
X260630000Y-846984200D02*
X265530000Y-810440000D01*
X678510000Y-448098800D02*
X679190000Y-453180000D01*
X660790000Y-703083500D02*
X660900000Y-717210000D01*
X395890000Y-804325100D02*
X395870000Y-775460000D01*
X297750000Y-1087807900D02*
X300540000Y-1060410000D01*
X209050000Y-855893800D02*
X199370000Y-886710000D01*
X171620000Y-520590500D02*
X185180000Y-538780000D01*
X361310000Y-504854300D02*
X362750000Y-477390000D01*
X703370000Y-957846100D02*
X703370000Y-980930000D01*
X197980000Y-608905000D02*
X198070000Y-609190000D01*
X592070000Y-503218300D02*
X595990000Y-520360000D01*
X698300000Y-362426400D02*
X698300000Y-379680000D01*
X629590000Y-699223000D02*
X630150000Y-720680000D01*
X213040000Y-493272100D02*
X206440000Y-482310000D01*
X620800000Y-486717400D02*
X621980000Y-495400000D01*
X269550000Y-1363826700D02*
X261720000Y-1359570000D01*
X44380000Y-809899300D02*
X42970000Y-790540000D01*
X702490000Y-501758300D02*
X703370000Y-519070000D01*
X638130000Y-863683500D02*
X637120000Y-876230000D01*
X668040000Y-459586900D02*
X669550000Y-482840000D01*
X252400000Y-1351847600D02*
X233850000Y-1338650000D01*
X599450000Y-299534100D02*
X613460000Y-330950000D01*
X572420000Y-786051200D02*
X571850000Y-794060000D01*
X169056284Y-744693226D02*
X169056284Y-749960852D01*
X438290000Y-1030331700D02*
X437630000Y-1027740000D01*
X222950000Y-874168100D02*
X214770000Y-899570000D01*
X343110000Y-489051800D02*
X342030000Y-453230000D01*
X236950000Y-1155480200D02*
X243290000Y-1127650000D01*
X448610000Y-1246750700D02*
X425670000Y-1237840000D01*
X68240000Y-150806800D02*
X73730000Y-136170000D01*
X710720000Y-1184597300D02*
X709800000Y-1193490000D01*
X194210000Y-1250546700D02*
X192390000Y-1224930000D01*
X267990000Y-361985400D02*
X266660000Y-344470000D01*
X321050000Y-375567900D02*
X322470000Y-366230000D01*
X101330000Y-411161800D02*
X104690000Y-413970000D01*
X222400000Y-715543400D02*
X223980000Y-745470000D01*
X387230000Y-240822200D02*
X395060000Y-235340000D01*
X96990000Y-670376600D02*
X96990000Y-670380000D01*
X347820000Y-577272800D02*
X347580000Y-563860000D01*
X324230000Y-249252300D02*
X331720000Y-240350000D01*
X430130000Y-835567100D02*
X430050000Y-823940000D01*
X656800000Y-595182400D02*
X658520000Y-624610000D01*
X80130000Y-1016582500D02*
X64770000Y-1007980000D01*
X291440000Y-502514400D02*
X289010000Y-485230000D01*
X366800000Y-827503300D02*
X367550000Y-791730000D01*
X11290000Y-912409200D02*
X9680000Y-895550000D01*
X221080000Y-796079400D02*
X217190000Y-821350000D01*
X666170000Y-580325900D02*
X666900000Y-600980000D01*
X653720000Y-952413100D02*
X650280000Y-988340000D01*
X323160000Y-1037573700D02*
X324190000Y-1013690000D01*
X630150000Y-779319800D02*
X629590000Y-800780000D01*
X267380000Y-52619700D02*
X289270000Y-49490000D01*
X453550000Y-662555200D02*
X455650000Y-639200000D01*
X329060000Y-694168000D02*
X328500000Y-685840000D01*
X689290000Y-96688100D02*
X698970000Y-124050000D01*
X282730000Y-619665800D02*
X280320000Y-602500000D01*
X361890000Y-545460800D02*
X362070000Y-515650000D01*
X155070000Y-1329102300D02*
X149600000Y-1311780000D01*
X373620000Y-1192113400D02*
X366320000Y-1181380000D01*
X713120000Y-952245000D02*
X713120000Y-986530000D01*
X511240000Y-1344201400D02*
X489250000Y-1347260000D01*
X525860000Y-224454000D02*
X545300000Y-234330000D01*
X243040000Y-982580300D02*
X245200000Y-975380000D01*
X310170000Y-275071000D02*
X324230000Y-249250000D01*
X166110000Y-413968700D02*
X152420000Y-391670000D01*
X86960000Y-1386051100D02*
X73720000Y-1363830000D01*
X669220000Y-658348600D02*
X669630000Y-682330000D01*
X584130000Y-633220800D02*
X587510000Y-665390000D01*
X210770000Y-190614200D02*
X224830000Y-170900000D01*
X321910000Y-1128720800D02*
X320950000Y-1122680000D01*
X587170000Y-944809800D02*
X585600000Y-953170000D01*
X515640000Y-866231000D02*
X512260000Y-871170000D01*
X268620000Y-954209500D02*
X271200000Y-941720000D01*
X146230000Y-539035600D02*
X158310000Y-551190000D01*
X175080000Y-702835400D02*
X178070000Y-719110000D01*
X547180000Y-1301083500D02*
X535580000Y-1305510000D01*
X618700000Y-288477600D02*
X620480000Y-295100000D01*
X667550000Y-340197700D02*
X669780000Y-363310000D01*
X429170000Y-783553700D02*
X428920000Y-756480000D01*
X78380000Y-552969100D02*
X88950000Y-535950000D01*
X53910000Y-1086031300D02*
X32470000Y-1064220000D01*
X332480000Y-929208900D02*
X332780000Y-927380000D01*
X308400000Y-1417196800D02*
X286640000Y-1411460000D01*
X264950000Y-461388700D02*
X261360000Y-450470000D01*
X586510000Y-190391500D02*
X590980000Y-196040000D01*
X661110000Y-757211200D02*
X660900000Y-782790000D01*
X605600000Y-565776800D02*
X607290000Y-574250000D01*
X670210000Y-777450400D02*
X670000000Y-802210000D01*
X331340000Y-80157100D02*
X345170000Y-77360000D01*
X664090000Y-222520000D02*
X667280000Y-242200000D01*
X254130000Y-418887000D02*
X252370000Y-414100000D01*
X240080000Y-745280300D02*
X240080000Y-754720000D01*
X470520000Y-573033600D02*
X471600000Y-568590000D01*
X265510000Y-1037329900D02*
X268130000Y-1023630000D01*
X188790000Y-449315600D02*
X174200000Y-423200000D01*
X704570000Y-901842900D02*
X704060000Y-917560000D01*
X321200000Y-1053709300D02*
X323160000Y-1037570000D01*
X252370000Y-414097200D02*
X247980000Y-396100000D01*
X430120000Y-664427800D02*
X431890000Y-635110000D01*
X223980000Y-754526600D02*
X222410000Y-784460000D01*
X411350000Y-773313200D02*
X411280000Y-766610000D01*
X475850000Y-96545400D02*
X481440000Y-96610000D01*
X405270000Y-159791400D02*
X429540000Y-154820000D01*
X20480000Y-1016582500D02*
X20250000Y-1016060000D01*
X317080000Y-701052400D02*
X315550000Y-678400000D01*
X586660000Y-1073450500D02*
X579100000Y-1092800000D01*
X404670000Y-325279300D02*
X421350000Y-310960000D01*
X571750000Y-1421956300D02*
X543030000Y-1425450000D01*
X302600000Y-670962100D02*
X302510000Y-669530000D01*
X587280000Y-1346442000D02*
X571710000Y-1356520000D01*
X232730000Y-298290400D02*
X233250000Y-275070000D01*
X198140000Y-1187929600D02*
X205030000Y-1155480000D01*
X713720000Y-827321200D02*
X713650000Y-832280000D01*
X50000000Y-635737900D02*
X51730000Y-623710000D01*
X471810000Y-488931200D02*
X474930000Y-485150000D01*
X306770000Y-905278900D02*
X310750000Y-877340000D01*
X298220000Y-870073500D02*
X300250000Y-851510000D01*
X571920000Y-395124000D02*
X579100000Y-407210000D01*
X395540000Y-604679100D02*
X396750000Y-575510000D01*
X263290000Y-1301357500D02*
X258220000Y-1296230000D01*
X221040000Y-703897200D02*
X222400000Y-715540000D01*
X8130000Y-750000000D02*
X24480000Y-740000000D01*
X215730000Y-378721100D02*
X210980000Y-359160000D01*
X631580000Y-560305200D02*
X633540000Y-581820000D01*
X590970000Y-743183000D02*
X590970000Y-756820000D01*
X357950000Y-1159522500D02*
X350390000Y-1138100000D01*
X224850000Y-401777500D02*
X215730000Y-378720000D01*
X361560000Y-1394098200D02*
X355470000Y-1392400000D01*
X492140000Y-1284128200D02*
X465890000Y-1285180000D01*
X411370000Y-806448800D02*
X411350000Y-773310000D01*
X286040000Y-639101800D02*
X282730000Y-619670000D01*
X267540000Y-1141527500D02*
X269780000Y-1122280000D01*
X194610000Y-1042882400D02*
X205890000Y-1018570000D01*
X61410000Y-731603600D02*
X61450000Y-728420000D01*
X254220000Y-762845200D02*
X253620000Y-777390000D01*
X342220000Y-451447400D02*
X343060000Y-415270000D01*
X639530000Y-665039000D02*
X640060000Y-675100000D01*
X238770000Y-714080900D02*
X240080000Y-745280000D01*
X628580000Y-960918000D02*
X626770000Y-976820000D01*
X164640000Y-509160000D02*
X171620000Y-520590000D01*
X185180000Y-538777400D02*
X200980000Y-564770000D01*
X579270000Y-1314583800D02*
X557160000Y-1329830000D01*
X331710000Y-1259653500D02*
X324220000Y-1250760000D01*
X567100000Y-1062219700D02*
X554100000Y-1083470000D01*
X8310000Y-673107900D02*
X9220000Y-655400000D01*
X461900000Y-897094100D02*
X459390000Y-880690000D01*
X590960000Y-1115808200D02*
X579100000Y-1142660000D01*
X712460000Y-434070800D02*
X712460000Y-467600000D01*
X643000000Y-553744300D02*
X646230000Y-589110000D01*
X480200000Y-1169687500D02*
X475840000Y-1170170000D01*
X625020000Y-883181400D02*
X624160000Y-895550000D01*
X193910000Y-1259653500D02*
X194210000Y-1250550000D01*
X598140000Y-880599600D02*
X595160000Y-900340000D01*
X486100000Y-44934600D02*
X511130000Y-44930000D01*
X706770000Y-1275007700D02*
X706770000Y-1301990000D01*
X240250000Y-1398551200D02*
X239490000Y-1398280000D01*
X704570000Y-598157100D02*
X704570000Y-622620000D01*
X193920000Y-240346500D02*
X195370000Y-233260000D01*
X197290000Y-1190204700D02*
X198140000Y-1187930000D01*
X104690000Y-413968700D02*
X130850000Y-429220000D01*
X479330000Y-330233700D02*
X510480000Y-333620000D01*
X685470000Y-930759300D02*
X683870000Y-969050000D01*
X330200000Y-750000000D02*
X318110000Y-740000000D01*
X602350000Y-1333492200D02*
X593840000Y-1342330000D01*
X425320000Y-1076392800D02*
X416870000Y-1054810000D01*
X330200000Y-766593300D02*
X330200000Y-750000000D01*
X8320000Y-730422134D02*
X8320000Y-723948400D01*
X225360000Y-1096422900D02*
X227700000Y-1086720000D01*
X443360000Y-548743000D02*
X454330000Y-518780000D01*
X345070000Y-1215360900D02*
X334320000Y-1190780000D01*
X137860000Y-912788000D02*
X124180000Y-920660000D01*
X648550000Y-1094873100D02*
X646250000Y-1107680000D01*
X367940000Y-751618100D02*
X367940000Y-750000000D01*
X567100000Y-437782800D02*
X579100000Y-460410000D01*
X670000000Y-802208600D02*
X669630000Y-817670000D01*
X265670000Y-809309000D02*
X266580000Y-796060000D01*
X638830000Y-1143303900D02*
X634750000Y-1156820000D01*
X368020000Y-170897700D02*
X393800000Y-162040000D01*
X644600000Y-1031491300D02*
X639500000Y-1063910000D01*
X355770000Y-176525500D02*
X360590000Y-173660000D01*
X8330000Y-708940700D02*
X8330000Y-690650000D01*
X265010000Y-532711500D02*
X262290000Y-523820000D01*
X677410000Y-613758600D02*
X678280000Y-647410000D01*
X308080000Y-120649200D02*
X326230000Y-113850000D01*
X630330000Y-760467100D02*
X630150000Y-779320000D01*
X624160000Y-895547600D02*
X620850000Y-925460000D01*
X207990000Y-116323500D02*
X239000000Y-102030000D01*
X663780000Y-541811300D02*
X664590000Y-559770000D01*
X382910000Y-1426370000D02*
X374260000Y-1425120000D01*
X634440000Y-1396735400D02*
X623800000Y-1402660000D01*
X623930000Y-1134748500D02*
X613830000Y-1168230000D01*
X625560000Y-97996900D02*
X649640000Y-118130000D01*
X660160000Y-676889800D02*
X660790000Y-703080000D01*
X640930000Y-705734700D02*
X641150000Y-714360000D01*
X630330000Y-739532900D02*
X630330000Y-760470000D01*
X242210000Y-863926500D02*
X239980000Y-875700000D01*
X367380000Y-256263700D02*
X387230000Y-240820000D01*
X675500000Y-1213189700D02*
X671710000Y-1241970000D01*
X175230000Y-796643400D02*
X166510000Y-825770000D01*
X674650000Y-405993000D02*
X676040000Y-415100000D01*
X653720000Y-547587000D02*
X654000000Y-553680000D01*
X348420000Y-373501900D02*
X355330000Y-347030000D01*
X305880000Y-915159500D02*
X306770000Y-905280000D01*
X626510000Y-443550600D02*
X629030000Y-459560000D01*
X266660000Y-344474300D02*
X267230000Y-330670000D01*
X667960000Y-880816100D02*
X666900000Y-899020000D01*
X293580000Y-750000000D02*
X280880000Y-740000000D01*
X197980000Y-677997400D02*
X200200000Y-688410000D01*
X224830000Y-170897700D02*
X233850000Y-161350000D01*
X471590000Y-1249722900D02*
X448610000Y-1246750000D01*
X653980000Y-1308710800D02*
X650700000Y-1316270000D01*
X405270000Y-1340210000D02*
X393800000Y-1337960000D01*
X305870000Y-740000000D02*
X305230000Y-712360000D01*
X613270000Y-1049484100D02*
X603050000Y-1082870000D01*
X477750000Y-768326100D02*
X477740000Y-750000000D01*
X60150000Y-205622200D02*
X60270000Y-204860000D01*
X323390000Y-463785000D02*
X321270000Y-444890000D01*
X612530000Y-609643400D02*
X612740000Y-611020000D01*
X698300000Y-1120315100D02*
X698300000Y-1137570000D01*
X579100000Y-598426500D02*
X583540000Y-627790000D01*
X704940000Y-662718800D02*
X705170000Y-677590000D01*
X685170000Y-369969900D02*
X685170000Y-372140000D01*
X711430000Y-354882900D02*
X711430000Y-387230000D01*
X548200000Y-1365335500D02*
X540910000Y-1368060000D01*
X491690000Y-840098000D02*
X484880000Y-815550000D01*
X198150000Y-312041700D02*
X197310000Y-309800000D01*
X441850000Y-397976700D02*
X445720000Y-394390000D01*
X168200000Y-559196700D02*
X179710000Y-579010000D01*
X233950000Y-671422900D02*
X238240000Y-706440000D01*
X355470000Y-107596200D02*
X361560000Y-105900000D01*
X380890000Y-676040700D02*
X380950000Y-664370000D01*
X191770000Y-392605500D02*
X183650000Y-379240000D01*
X243840000Y-377881700D02*
X243040000Y-370940000D01*
X380000000Y-635641800D02*
X380190000Y-624910000D01*
X641150000Y-714359200D02*
X641450000Y-745920000D01*
X688010000Y-408227000D02*
X688010000Y-413660000D01*
X659320000Y-1115183400D02*
X654020000Y-1145750000D01*
X658820000Y-636231000D02*
X659940000Y-663680000D01*
X542770000Y-74523600D02*
X571450000Y-78070000D01*
X688060000Y-687418900D02*
X688060000Y-692910000D01*
X152420000Y-391672000D02*
X140520000Y-379240000D01*
X342590000Y-766179800D02*
X342580000Y-750000000D01*
X648550000Y-495612300D02*
X650170000Y-509740000D01*
X73720000Y-1363826700D02*
X68230000Y-1349200000D01*
X371660000Y-1104912000D02*
X370470000Y-1096080000D01*
X173090000Y-147330300D02*
X173090000Y-147330000D01*
X465870000Y-1376275200D02*
X451710000Y-1376040000D01*
X205170000Y-765328700D02*
X204700000Y-774290000D01*
X294830000Y-517607400D02*
X291440000Y-502510000D01*
X60210000Y-1293723500D02*
X61330000Y-1259650000D01*
X239920000Y-241363800D02*
X240240000Y-240350000D01*
X572420000Y-713948600D02*
X573550000Y-746810000D01*
X292740000Y-1375017000D02*
X269550000Y-1363830000D01*
X173886239Y-739863271D02*
X169056284Y-744693226D01*
X396970000Y-1162842300D02*
X387240000Y-1148540000D01*
X446840000Y-1316359200D02*
X429570000Y-1313070000D01*
X650280000Y-511658600D02*
X653720000Y-547590000D01*
X704940000Y-637836800D02*
X704940000Y-662720000D01*
X233000000Y-1190204700D02*
X234660000Y-1182070000D01*
X442630000Y-343414200D02*
X442630000Y-343410000D01*
X403700000Y-231622600D02*
X403700000Y-231620000D01*
X231030000Y-909079600D02*
X230760000Y-910200000D01*
X704570000Y-877379300D02*
X704570000Y-901840000D01*
X370470000Y-1096079800D02*
X365610000Y-1071270000D01*
X529900000Y-841404000D02*
X515640000Y-866230000D01*
X607290000Y-574254200D02*
X612530000Y-609640000D01*
X620150000Y-566866100D02*
X620850000Y-574540000D01*
X200760000Y-982972400D02*
X200560000Y-983490000D01*
X272970000Y-1409436000D02*
X240250000Y-1398550000D01*
X240570000Y-510288400D02*
X238660000Y-505440000D01*
X698300000Y-379684700D02*
X700000000Y-401340000D01*
X405480000Y-481636700D02*
X412490000Y-454860000D01*
X291340000Y-170897700D02*
X311630000Y-157880000D01*
X395780000Y-844150800D02*
X395620000Y-815490000D01*
X361400000Y-994022400D02*
X362220000Y-982650000D01*
X3250000Y-730431000D02*
X8185054Y-730431000D01*
X630150000Y-720680200D02*
X630330000Y-739530000D01*
X532810000Y-101470700D02*
X555240000Y-105450000D01*
X246360000Y-1110235500D02*
X251570000Y-1088710000D01*
X154390000Y-309795300D02*
X149780000Y-292780000D01*
X379650000Y-914662700D02*
X379230000Y-904690000D01*
X561180000Y-107603400D02*
X585610000Y-115340000D01*
X395960000Y-740000000D02*
X395960000Y-735520000D01*
X138430000Y-485327200D02*
X140740000Y-486860000D01*
X428920000Y-750000000D02*
X411280000Y-740000000D01*
X321470000Y-428328900D02*
X320400000Y-412330000D01*
X638820000Y-356697900D02*
X645420000Y-389200000D01*
X216050000Y-449287500D02*
X208940000Y-429880000D01*
X713650000Y-667721000D02*
X713720000Y-672680000D01*
X116560000Y-857597600D02*
X112500000Y-848630000D01*
X654200000Y-1231908700D02*
X648550000Y-1252070000D01*
X393800000Y-162041600D02*
X405270000Y-159790000D01*
X672230000Y-1122597600D02*
X669780000Y-1136690000D01*
X205170000Y-734671400D02*
X205170000Y-765330000D01*
X210980000Y-359160700D02*
X205060000Y-344520000D01*
X604800000Y-804648900D02*
X604140000Y-815400000D01*
X364050000Y-906115400D02*
X365020000Y-872870000D01*
X689690000Y-255072800D02*
X693410000Y-285460000D01*
X515650000Y-633776900D02*
X529900000Y-658590000D01*
X633110000Y-1020355400D02*
X629030000Y-1040430000D01*
X668040000Y-1040413300D02*
X665500000Y-1059370000D01*
X579100000Y-1039602100D02*
X567100000Y-1062220000D01*
X169910000Y-982084100D02*
X164640000Y-990810000D01*
X596820000Y-401175900D02*
X603050000Y-417130000D01*
X329460000Y-963698300D02*
X332480000Y-929210000D01*
X440220000Y-1034428300D02*
X438290000Y-1030330000D01*
X469040000Y-1005895600D02*
X454340000Y-981220000D01*
X660420000Y-1102181900D02*
X659320000Y-1115180000D01*
X245200000Y-975383500D02*
X255510000Y-940310000D01*
X588230000Y-675464700D02*
X589980000Y-703860000D01*
X395870000Y-724534400D02*
X395880000Y-695680000D01*
X364040000Y-594300200D02*
X363310000Y-586170000D01*
X309060000Y-1450506400D02*
X289270000Y-1450510000D01*
X628570000Y-539081800D02*
X631580000Y-560310000D01*
X595160000Y-599664700D02*
X598140000Y-619400000D01*
X310150000Y-1224929000D02*
X305490000Y-1213910000D01*
X481440000Y-96614200D02*
X517170000Y-99030000D01*
X251570000Y-1088706900D02*
X254510000Y-1080360000D01*
X419890000Y-961113700D02*
X417440000Y-936370000D01*
X678510000Y-1051901000D02*
X676040000Y-1084900000D01*
X379030000Y-555309200D02*
X379820000Y-545350000D01*
X561280000Y-1018983600D02*
X545270000Y-1048660000D01*
X234600000Y-547387800D02*
X222460000Y-517230000D01*
X228870000Y-1020296100D02*
X242640000Y-984170000D01*
X443370000Y-951263000D02*
X442140000Y-948340000D01*
X411280000Y-740000000D02*
X411280000Y-733390000D01*
X684300000Y-210911900D02*
X684300000Y-212090000D01*
X637120000Y-876232700D02*
X635330000Y-901960000D01*
X345200000Y-962345300D02*
X347680000Y-935910000D01*
X441270000Y-97110200D02*
X475850000Y-96550000D01*
X449010000Y-1346917100D02*
X429540000Y-1345180000D01*
X640440000Y-226815000D02*
X644060000Y-234030000D01*
X562780000Y-639709100D02*
X566880000Y-663200000D01*
X89700000Y-898720200D02*
X83980000Y-881690000D01*
X696610000Y-802172300D02*
X696610000Y-817490000D01*
X446100000Y-44755300D02*
X471340000Y-44760000D01*
X415420000Y-576208000D02*
X417430000Y-563640000D01*
X415940000Y-1428231000D02*
X382910000Y-1426370000D01*
X712830000Y-992302800D02*
X712830000Y-1026250000D01*
X29990000Y-1051307000D02*
X21200000Y-1018760000D01*
X24940000Y-799656500D02*
X24920000Y-779700000D01*
X473190000Y-330637100D02*
X476120000Y-329830000D01*
X559470000Y-539276600D02*
X566570000Y-557750000D01*
X636490000Y-278258800D02*
X644770000Y-309050000D01*
X679530000Y-85274000D02*
X688220000Y-93880000D01*
X290270000Y-676560900D02*
X288640000Y-662950000D01*
X379820000Y-545350100D02*
X380030000Y-515990000D01*
X347950000Y-921190200D02*
X350090000Y-898960000D01*
X227880000Y-414215400D02*
X224850000Y-401780000D01*
X413730000Y-374262400D02*
X421570000Y-365790000D01*
X377910000Y-203828100D02*
X380530000Y-202850000D01*
X475970000Y-375766500D02*
X483260000Y-375700000D01*
X291130000Y-915151500D02*
X292570000Y-908710000D01*
X249180000Y-900601500D02*
X253330000Y-885130000D01*
X488180000Y-1317011700D02*
X472340000Y-1317640000D01*
X12930000Y-540656100D02*
X16410000Y-518140000D01*
X579160000Y-265322600D02*
X582160000Y-269580000D01*
X616090000Y-851019900D02*
X613830000Y-878960000D01*
X713520000Y-627762500D02*
X713650000Y-632830000D01*
X258220000Y-203777700D02*
X263280000Y-198660000D01*
X25710000Y-810213400D02*
X24940000Y-799660000D01*
X262960000Y-910643800D02*
X266630000Y-894260000D01*
X84850000Y-1199040200D02*
X88490000Y-1190200000D01*
X180310000Y-137587700D02*
X181830000Y-136170000D01*
X8248094Y-730494040D02*
X8320000Y-730422134D01*
X678510000Y-653014100D02*
X679100000Y-687770000D01*
X318120000Y-750000000D02*
X305870000Y-740000000D01*
X704120000Y-1315774900D02*
X704120000Y-1339210000D01*
X305230000Y-787636100D02*
X306030000Y-752720000D01*
X646250000Y-1107680200D02*
X645430000Y-1110800000D01*
X49770000Y-862108100D02*
X47530000Y-845700000D01*
X431900000Y-864894200D02*
X430130000Y-835570000D01*
X488550000Y-1210952300D02*
X470990000Y-1211260000D01*
X557140000Y-284059200D02*
X579100000Y-309970000D01*
X606040000Y-734528100D02*
X606040000Y-765470000D01*
X399530000Y-1399659200D02*
X398290000Y-1399590000D01*
X233850000Y-161352000D02*
X252390000Y-148160000D01*
X509650000Y-475712600D02*
X534730000Y-496260000D01*
X639530000Y-834961000D02*
X638130000Y-863680000D01*
X411370000Y-693547100D02*
X411580000Y-686660000D01*
X646030000Y-312670700D02*
X648550000Y-323580000D01*
X390860000Y-1454022400D02*
X367030000Y-1454020000D01*
X156910000Y-453282900D02*
X172630000Y-472640000D01*
X584710000Y-188707800D02*
X586510000Y-190390000D01*
X110390000Y-914552700D02*
X89700000Y-898720000D01*
X412250000Y-646390000D02*
X412960000Y-614680000D01*
X612530000Y-890356500D02*
X607290000Y-925750000D01*
X520870000Y-1115443400D02*
X509520000Y-1123010000D01*
X144520000Y-1224929000D02*
X149740000Y-1207290000D01*
X496270000Y-70795900D02*
X501140000Y-71130000D01*
X286810000Y-558757500D02*
X281940000Y-537430000D01*
X351950000Y-275175300D02*
X367380000Y-256260000D01*
X395880000Y-695678400D02*
X395620000Y-684500000D01*
X24920000Y-779698800D02*
X24390000Y-750000000D01*
X271580000Y-275071000D02*
X282030000Y-245230000D01*
X42970000Y-790535300D02*
X42450000Y-778800000D01*
X449700000Y-750000000D02*
X428950000Y-740000000D01*
X471480000Y-182324000D02*
X483840000Y-182610000D01*
X290280000Y-823442400D02*
X292230000Y-795100000D01*
X251950000Y-698569000D02*
X253610000Y-722610000D01*
X646250000Y-392320800D02*
X648550000Y-405140000D01*
X525020000Y-1157264500D02*
X509060000Y-1166830000D01*
X174200000Y-423196800D02*
X166110000Y-413970000D01*
X233250000Y-275071000D02*
X239920000Y-241360000D01*
X385530000Y-1034137300D02*
X382860000Y-1021260000D01*
X656470000Y-585895800D02*
X656800000Y-595180000D01*
X648550000Y-1004390700D02*
X645430000Y-1027430000D01*
X130910000Y-1016582500D02*
X105100000Y-1025940000D01*
X345170000Y-1422635600D02*
X331340000Y-1419840000D01*
X478020000Y-728278700D02*
X478190478Y-728121864D01*
X253330000Y-885128400D02*
X259050000Y-854980000D01*
X286500000Y-1025636200D02*
X289240000Y-1014350000D01*
X379820000Y-954650700D02*
X379030000Y-944690000D01*
X474930000Y-560685700D02*
X474930000Y-560690000D01*
X515050000Y-427789600D02*
X544380000Y-449800000D01*
X354080000Y-820199800D02*
X354520000Y-799210000D01*
X84850000Y-300967100D02*
X70480000Y-275070000D01*
X280880000Y-740000000D02*
X280880000Y-738270000D01*
X709800000Y-1193485400D02*
X709800000Y-1223960000D01*
X268350000Y-1209133000D02*
X266420000Y-1190200000D01*
X273920000Y-999784300D02*
X274750000Y-996720000D01*
X432100000Y-625676500D02*
X435410000Y-593200000D01*
X699290000Y-1375255600D02*
X687390000Y-1403620000D01*
X451710000Y-1376036600D02*
X424510000Y-1373700000D01*
X362790000Y-944769300D02*
X363350000Y-913330000D01*
X205810000Y-527803900D02*
X219100000Y-559170000D01*
X32660000Y-601035700D02*
X33790000Y-588810000D01*
X595990000Y-979634700D02*
X592070000Y-996780000D01*
X688060000Y-807085700D02*
X688060000Y-812580000D01*
X399060000Y-973040800D02*
X399010000Y-965670000D01*
X331220000Y-1350182800D02*
X311630000Y-1342120000D01*
X233970000Y-828567500D02*
X233660000Y-830850000D01*
X713760000Y-712546200D02*
X713760000Y-747560000D01*
X700000000Y-420552700D02*
X701380000Y-440430000D01*
X692150000Y-495819400D02*
X693620000Y-524670000D01*
X208940000Y-429878900D02*
X200200000Y-414130000D01*
X434030000Y-1199373600D02*
X423360000Y-1190830000D01*
X330250000Y-1309701300D02*
X311550000Y-1294380000D01*
X339180000Y-648469400D02*
X336150000Y-610450000D01*
X326800000Y-655582400D02*
X325590000Y-644280000D01*
X544380000Y-504658300D02*
X553890000Y-525150000D01*
X262050000Y-976175100D02*
X268620000Y-954210000D01*
X492940000Y-1019621600D02*
X474930000Y-1014860000D01*
X677000000Y-893214400D02*
X675870000Y-925240000D01*
X412490000Y-454857700D02*
X417610000Y-443870000D01*
X426170000Y-221923100D02*
X452700000Y-216350000D01*
X702490000Y-1020313900D02*
X701380000Y-1038770000D01*
X272970000Y-90564700D02*
X286640000Y-88540000D01*
X252930000Y-1011643100D02*
X258830000Y-989960000D01*
X395870000Y-775463900D02*
X395960000Y-764480000D01*
X314660000Y-662555600D02*
X311870000Y-636400000D01*
X221950000Y-982925600D02*
X230270000Y-965170000D01*
X266420000Y-1190204700D02*
X267220000Y-1169300000D01*
X421350000Y-310956600D02*
X433170000Y-301010000D01*
X678510000Y-846985900D02*
X678280000Y-852590000D01*
X261360000Y-450467900D02*
X254130000Y-418890000D01*
X279890000Y-525007400D02*
X274990000Y-503220000D01*
X268180000Y-730974200D02*
X268140000Y-729160000D01*
X579650000Y-310906900D02*
X580030000Y-311750000D01*
X675180000Y-565851000D02*
X675870000Y-574760000D01*
X8185054Y-730431000D02*
X8248094Y-730494040D01*
X620480000Y-1204900300D02*
X618700000Y-1211520000D01*
X660900000Y-782793600D02*
X660790000Y-796920000D01*
X460810000Y-1429640700D02*
X456590000Y-1429570000D01*
X614970000Y-529953200D02*
X615130000Y-531360000D01*
X169056284Y-749960852D02*
X97143577Y-749960852D01*
X310740000Y-983366000D02*
X315010000Y-955730000D01*
X326230000Y-1386153300D02*
X308080000Y-1379350000D01*
X57160000Y-409306300D02*
X62550000Y-409230000D01*
X367870000Y-740000000D02*
X367660000Y-711890000D01*
X345140000Y-525380500D02*
X342880000Y-493510000D01*
X295600000Y-1161694700D02*
X295340000Y-1155480000D01*
X576110000Y-352828300D02*
X579100000Y-357350000D01*
X547260000Y-728399200D02*
X547380000Y-731780000D01*
X654020000Y-354252500D02*
X659320000Y-384820000D01*
X461890000Y-602901400D02*
X470520000Y-573030000D01*
X42450000Y-778800800D02*
X42170000Y-750000000D01*
X510540000Y-1313875900D02*
X488180000Y-1317010000D01*
X141590000Y-645651800D02*
X164560000Y-666070000D01*
X667280000Y-242201400D02*
X671710000Y-258030000D01*
X130860000Y-1070788900D02*
X104720000Y-1086030000D01*
X380530000Y-1297141800D02*
X377920000Y-1296170000D01*
X377920000Y-1296168300D02*
X374900000Y-1294380000D01*
X589880000Y-437078100D02*
X597770000Y-460060000D01*
X603100000Y-86348600D02*
X622330000Y-96310000D01*
X71690000Y-650004300D02*
X80590000Y-625920000D01*
X559470000Y-960722400D02*
X553890000Y-974850000D01*
X579100000Y-357353000D02*
X590950000Y-384190000D01*
X21200000Y-1018764100D02*
X20480000Y-1016580000D01*
X164560000Y-666067500D02*
X165990000Y-669460000D01*
X8310000Y-776048700D02*
X8130000Y-750000000D01*
X364060000Y-323101100D02*
X371490000Y-311120000D01*
X555330000Y-1174927500D02*
X543080000Y-1188620000D01*
X315550000Y-678402200D02*
X314660000Y-662560000D01*
X638130000Y-636316500D02*
X639530000Y-665040000D01*
X509650000Y-874521300D02*
X506960000Y-871210000D01*
X686670000Y-887662800D02*
X686670000Y-891560000D01*
X702490000Y-998241700D02*
X702490000Y-1020310000D01*
X300250000Y-851506200D02*
X302520000Y-830470000D01*
X587410000Y-1308761500D02*
X586220000Y-1309900000D01*
X342580000Y-740000000D02*
X342580000Y-733820000D01*
X583160000Y-473106500D02*
X592070000Y-503220000D01*
X688320000Y-767045600D02*
X688320000Y-772840000D01*
X667210000Y-1354056100D02*
X655130000Y-1373720000D01*
X154600000Y-593652300D02*
X161780000Y-599600000D01*
X180310000Y-1362424500D02*
X173150000Y-1352770000D01*
X557770000Y-243764800D02*
X579160000Y-265320000D01*
X61240000Y-589401400D02*
X67150000Y-567240000D01*
X278970000Y-802720500D02*
X280500000Y-777940000D01*
X155430000Y-904286800D02*
X137860000Y-912790000D01*
X585400000Y-152289800D02*
X592340000Y-156460000D01*
X693620000Y-536552800D02*
X694760000Y-563900000D01*
X567580000Y-1452096800D02*
X550500000Y-1454170000D01*
X282840000Y-1322794700D02*
X263290000Y-1301360000D01*
X526840000Y-1198365600D02*
X506230000Y-1208770000D01*
X64790000Y-492042600D02*
X80180000Y-483420000D01*
X204350000Y-524177700D02*
X205810000Y-527800000D01*
X582080000Y-469069900D02*
X583160000Y-473110000D01*
X415430000Y-923787400D02*
X413900000Y-894450000D01*
X319330000Y-921268000D02*
X321530000Y-897100000D01*
X394810000Y-1079327200D02*
X388570000Y-1058560000D01*
X454340000Y-981216100D02*
X443370000Y-951260000D01*
X239490000Y-1398276400D02*
X239010000Y-1397980000D01*
X354520000Y-700783000D02*
X354070000Y-679810000D01*
X650650000Y-669017800D02*
X650690000Y-671450000D01*
X8320000Y-723948400D02*
X8330000Y-708940000D01*
X290810000Y-583704100D02*
X286810000Y-558760000D01*
X88490000Y-1190204700D02*
X106580000Y-1167420000D01*
X144070000Y-1425511700D02*
X130020000Y-1416580000D01*
X51730000Y-623706000D02*
X52820000Y-614090000D01*
X274580000Y-654869700D02*
X273630000Y-646230000D01*
X152410000Y-1108320400D02*
X166130000Y-1086030000D01*
X476120000Y-329830000D02*
X479330000Y-330230000D01*
X52820000Y-614093300D02*
X61240000Y-589400000D01*
X687520000Y-852158700D02*
X686670000Y-887660000D01*
X60210000Y-206269500D02*
X60150000Y-205620000D01*
X139600000Y-240346500D02*
X142540000Y-210730000D01*
X142530000Y-1289296500D02*
X139580000Y-1259650000D01*
X245320000Y-582706100D02*
X236180000Y-551370000D01*
X589980000Y-796138900D02*
X588230000Y-824540000D01*
X388570000Y-1058559600D02*
X385530000Y-1034140000D01*
X355470000Y-1392402200D02*
X326230000Y-1386150000D01*
X640930000Y-794265300D02*
X640060000Y-824900000D01*
X646500000Y-591620700D02*
X648550000Y-621120000D01*
X638570000Y-983599700D02*
X636370000Y-996330000D01*
X325140000Y-1156899100D02*
X321910000Y-1128720000D01*
X661110000Y-742788800D02*
X661110000Y-757210000D01*
X354520000Y-799213500D02*
X355100000Y-780890000D01*
X311630000Y-1342119600D02*
X291340000Y-1329100000D01*
X620850000Y-925464200D02*
X620150000Y-933130000D01*
X365500000Y-633353800D02*
X364990000Y-627020000D01*
X613830000Y-621044500D02*
X616090000Y-648980000D01*
X200980000Y-564768400D02*
X202810000Y-569080000D01*
X704940000Y-862163200D02*
X704570000Y-877380000D01*
X125720000Y-971822100D02*
X114360000Y-972300000D01*
X544380000Y-449797700D02*
X544850000Y-450560000D01*
X701380000Y-1038767600D02*
X701380000Y-1059570000D01*
X365450000Y-436748700D02*
X365640000Y-428640000D01*
X32760000Y-899989000D02*
X30430000Y-878290000D01*
X573580000Y-992506500D02*
X561280000Y-1018980000D01*
X699290000Y-1357613300D02*
X699290000Y-1375260000D01*
X154360000Y-1190204700D02*
X156940000Y-1185650000D01*
X654800000Y-195823800D02*
X664090000Y-222520000D01*
X524480000Y-158094300D02*
X546200000Y-165940000D01*
X352340000Y-640911600D02*
X350570000Y-618740000D01*
X52670000Y-879575700D02*
X49770000Y-862110000D01*
X269780000Y-1122282000D02*
X272190000Y-1111000000D01*
X377600000Y-1366170500D02*
X369180000Y-1363830000D01*
X233660000Y-830854600D02*
X231740000Y-840570000D01*
X392330000Y-345293100D02*
X404670000Y-325280000D01*
X197110000Y-892819200D02*
X182860000Y-916290000D01*
X380020000Y-864346400D02*
X380960000Y-835640000D01*
X426980000Y-1140275600D02*
X411950000Y-1122180000D01*
X327950000Y-47382700D02*
X350160000Y-47380000D01*
X713720000Y-672678800D02*
X713720000Y-707650000D01*
X26250000Y-822566200D02*
X25710000Y-810210000D01*
X582360000Y-1273489900D02*
X554560000Y-1295990000D01*
X649090000Y-869358800D02*
X649070000Y-869970000D01*
X240240000Y-625518400D02*
X242280000Y-636320000D01*
X512270000Y-628831100D02*
X515650000Y-633780000D01*
X534830000Y-1426892300D02*
X501140000Y-1428880000D01*
X403700000Y-231622600D02*
X426170000Y-221920000D01*
X271230000Y-489598300D02*
X264950000Y-461390000D01*
X411280000Y-750000000D02*
X395960000Y-740000000D01*
X239980000Y-875696800D02*
X231030000Y-909080000D01*
X267640000Y-610996800D02*
X267480000Y-609870000D01*
X267480000Y-609871800D02*
X266750000Y-606320000D01*
X667280000Y-1257799000D02*
X664090000Y-1277480000D01*
X310460000Y-987504900D02*
X310740000Y-983370000D01*
X640060000Y-675101000D02*
X640930000Y-705730000D01*
X696230000Y-857160900D02*
X695620000Y-882520000D01*
X196560000Y-1195232900D02*
X197290000Y-1190200000D01*
X613830000Y-452437800D02*
X620800000Y-486720000D01*
X423360000Y-1190825100D02*
X405960000Y-1176070000D01*
X550490000Y-45840800D02*
X567100000Y-47900000D01*
X579100000Y-1142664600D02*
X576120000Y-1147180000D01*
X404040000Y-275151900D02*
X412970000Y-268040000D01*
X385750000Y-355055200D02*
X392330000Y-345290000D01*
X348230000Y-1124473100D02*
X345390000Y-1099350000D01*
X412430000Y-1045346700D02*
X405740000Y-1019400000D01*
X429170000Y-716448100D02*
X429180000Y-703780000D01*
X256950000Y-1294377800D02*
X245620000Y-1270590000D01*
X205030000Y-1155480200D02*
X210950000Y-1140790000D01*
X446100000Y-1455244800D02*
X431240000Y-1454880000D01*
X311630000Y-157880000D02*
X331220000Y-149820000D01*
X612910000Y-132394600D02*
X614660000Y-133450000D01*
X576120000Y-1147176600D02*
X571640000Y-1152950000D01*
X343480000Y-143876900D02*
X369180000Y-136170000D01*
X646230000Y-910891400D02*
X643000000Y-946260000D01*
X213060000Y-839506300D02*
X209050000Y-855890000D01*
X62090000Y-711721300D02*
X64120000Y-692100000D01*
X688320000Y-732954400D02*
X688320000Y-767050000D01*
X144210000Y-267057200D02*
X139600000Y-240350000D01*
X339290000Y-652148200D02*
X339180000Y-648470000D01*
X334320000Y-1190784200D02*
X328450000Y-1174730000D01*
X671250000Y-1002368300D02*
X669550000Y-1017160000D01*
X544170000Y-929382000D02*
X543670000Y-929900000D01*
X61450000Y-728417400D02*
X62090000Y-711720000D01*
X600430000Y-538304700D02*
X605600000Y-565780000D01*
X113290000Y-1155480200D02*
X129620000Y-1138080000D01*
X651570000Y-708375700D02*
X651600000Y-711860000D01*
X376050000Y-380661600D02*
X385750000Y-355060000D01*
X280830000Y-440484300D02*
X275220000Y-414060000D01*
X648550000Y-1252065700D02*
X644050000Y-1265970000D01*
X204700000Y-725710800D02*
X205170000Y-734670000D01*
X236180000Y-551374500D02*
X235390000Y-549260000D01*
X488530000Y-152757000D02*
X509580000Y-155410000D01*
X509520000Y-1123005100D02*
X480860000Y-1124130000D01*
X411280000Y-733386500D02*
X411340000Y-726690000D01*
X431240000Y-45118700D02*
X446100000Y-44760000D01*
X562610000Y-1118470400D02*
X552580000Y-1133660000D01*
X474930000Y-485149100D02*
X492910000Y-480400000D01*
X703370000Y-519068200D02*
X703370000Y-542150000D01*
X592070000Y-996782400D02*
X583160000Y-1026890000D01*
X698300000Y-1137573900D02*
X696160000Y-1161430000D01*
X552580000Y-1133655600D02*
X544110000Y-1144570000D01*
X509650000Y-537433500D02*
X518510000Y-545470000D01*
X705280000Y-717416300D02*
X705280000Y-742690000D01*
X602170000Y-843028400D02*
X600670000Y-857280000D01*
X210760000Y-1309397100D02*
X203090000Y-1294380000D01*
X683280000Y-981368700D02*
X681780000Y-1008420000D01*
X639150000Y-161168900D02*
X650100000Y-182440000D01*
X613460000Y-1048953700D02*
X613270000Y-1049480000D01*
X380960000Y-835638900D02*
X380900000Y-823950000D01*
X489250000Y-1347260200D02*
X468920000Y-1347910000D01*
X33790000Y-588814700D02*
X34480000Y-579250000D01*
X9100000Y-845277600D02*
X8400000Y-832200000D01*
X24480000Y-740000000D02*
X24910000Y-720150000D01*
X685470000Y-571759300D02*
X686670000Y-608440000D01*
X687390000Y-1410431400D02*
X683190000Y-1415730000D01*
X709800000Y-276041000D02*
X709800000Y-306510000D01*
X607290000Y-925745900D02*
X605600000Y-934220000D01*
X203980000Y-572199000D02*
X214520000Y-599950000D01*
X637120000Y-623767300D02*
X638130000Y-636320000D01*
X321270000Y-444888100D02*
X321470000Y-428330000D01*
X381780000Y-756334600D02*
X381780000Y-750000000D01*
X482980000Y-288301200D02*
X512110000Y-293160000D01*
X259330000Y-574494700D02*
X255360000Y-560880000D01*
%TD*%
M02*
