%TF.GenerationSoftware,KiCad,Pcbnew,7.0.1-3b83917a11~172~ubuntu22.04.1*%
%TF.CreationDate,2023-12-10T14:44:59-05:00*%
%TF.ProjectId,coil_template_second,636f696c-5f74-4656-9d70-6c6174655f73,rev?*%
%TF.SameCoordinates,Original*%
%TF.FileFunction,Legend,Bot*%
%TF.FilePolarity,Positive*%
%FSLAX46Y46*%
G04 Gerber Fmt 4.6, Leading zero omitted, Abs format (unit mm)*
G04 Created by KiCad (PCBNEW 7.0.1-3b83917a11~172~ubuntu22.04.1) date 2023-12-10 14:44:59*
%MOMM*%
%LPD*%
G01*
G04 APERTURE LIST*
%ADD10C,2.000000*%
G04 APERTURE END LIST*
D10*
X76904761Y-1470747619D02*
X88333333Y-1470747619D01*
X82619047Y-1450747619D02*
X82619047Y-1470747619D01*
X98809523Y-1470747619D02*
X102619047Y-1470747619D01*
X102619047Y-1470747619D02*
X104523809Y-1469795238D01*
X104523809Y-1469795238D02*
X106428571Y-1467890476D01*
X106428571Y-1467890476D02*
X107380952Y-1464080952D01*
X107380952Y-1464080952D02*
X107380952Y-1457414285D01*
X107380952Y-1457414285D02*
X106428571Y-1453604761D01*
X106428571Y-1453604761D02*
X104523809Y-1451700000D01*
X104523809Y-1451700000D02*
X102619047Y-1450747619D01*
X102619047Y-1450747619D02*
X98809523Y-1450747619D01*
X98809523Y-1450747619D02*
X96904761Y-1451700000D01*
X96904761Y-1451700000D02*
X94999999Y-1453604761D01*
X94999999Y-1453604761D02*
X94047618Y-1457414285D01*
X94047618Y-1457414285D02*
X94047618Y-1464080952D01*
X94047618Y-1464080952D02*
X94999999Y-1467890476D01*
X94999999Y-1467890476D02*
X96904761Y-1469795238D01*
X96904761Y-1469795238D02*
X98809523Y-1470747619D01*
X115952380Y-1450747619D02*
X115952380Y-1470747619D01*
X115952380Y-1470747619D02*
X123571428Y-1470747619D01*
X123571428Y-1470747619D02*
X125476190Y-1469795238D01*
X125476190Y-1469795238D02*
X126428571Y-1468842857D01*
X126428571Y-1468842857D02*
X127380952Y-1466938095D01*
X127380952Y-1466938095D02*
X127380952Y-1464080952D01*
X127380952Y-1464080952D02*
X126428571Y-1462176190D01*
X126428571Y-1462176190D02*
X125476190Y-1461223809D01*
X125476190Y-1461223809D02*
X123571428Y-1460271428D01*
X123571428Y-1460271428D02*
X115952380Y-1460271428D01*
X732347619Y-1356190476D02*
X733300000Y-1355238095D01*
X733300000Y-1355238095D02*
X734252380Y-1352380952D01*
X734252380Y-1352380952D02*
X734252380Y-1350476190D01*
X734252380Y-1350476190D02*
X733300000Y-1347619047D01*
X733300000Y-1347619047D02*
X731395238Y-1345714285D01*
X731395238Y-1345714285D02*
X729490476Y-1344761904D01*
X729490476Y-1344761904D02*
X725680952Y-1343809523D01*
X725680952Y-1343809523D02*
X722823809Y-1343809523D01*
X722823809Y-1343809523D02*
X719014285Y-1344761904D01*
X719014285Y-1344761904D02*
X717109523Y-1345714285D01*
X717109523Y-1345714285D02*
X715204761Y-1347619047D01*
X715204761Y-1347619047D02*
X714252380Y-1350476190D01*
X714252380Y-1350476190D02*
X714252380Y-1352380952D01*
X714252380Y-1352380952D02*
X715204761Y-1355238095D01*
X715204761Y-1355238095D02*
X716157142Y-1356190476D01*
X714252380Y-1364761904D02*
X730442857Y-1364761904D01*
X730442857Y-1364761904D02*
X732347619Y-1365714285D01*
X732347619Y-1365714285D02*
X733300000Y-1366666666D01*
X733300000Y-1366666666D02*
X734252380Y-1368571428D01*
X734252380Y-1368571428D02*
X734252380Y-1372380952D01*
X734252380Y-1372380952D02*
X733300000Y-1374285714D01*
X733300000Y-1374285714D02*
X732347619Y-1375238095D01*
X732347619Y-1375238095D02*
X730442857Y-1376190476D01*
X730442857Y-1376190476D02*
X714252380Y-1376190476D01*
X714252380Y-1382857142D02*
X714252380Y-1394285714D01*
X734252380Y-1388571428D02*
X714252380Y-1388571428D01*
X732347619Y-116190476D02*
X733300000Y-115238095D01*
X733300000Y-115238095D02*
X734252380Y-112380952D01*
X734252380Y-112380952D02*
X734252380Y-110476190D01*
X734252380Y-110476190D02*
X733300000Y-107619047D01*
X733300000Y-107619047D02*
X731395238Y-105714285D01*
X731395238Y-105714285D02*
X729490476Y-104761904D01*
X729490476Y-104761904D02*
X725680952Y-103809523D01*
X725680952Y-103809523D02*
X722823809Y-103809523D01*
X722823809Y-103809523D02*
X719014285Y-104761904D01*
X719014285Y-104761904D02*
X717109523Y-105714285D01*
X717109523Y-105714285D02*
X715204761Y-107619047D01*
X715204761Y-107619047D02*
X714252380Y-110476190D01*
X714252380Y-110476190D02*
X714252380Y-112380952D01*
X714252380Y-112380952D02*
X715204761Y-115238095D01*
X715204761Y-115238095D02*
X716157142Y-116190476D01*
X714252380Y-124761904D02*
X730442857Y-124761904D01*
X730442857Y-124761904D02*
X732347619Y-125714285D01*
X732347619Y-125714285D02*
X733300000Y-126666666D01*
X733300000Y-126666666D02*
X734252380Y-128571428D01*
X734252380Y-128571428D02*
X734252380Y-132380952D01*
X734252380Y-132380952D02*
X733300000Y-134285714D01*
X733300000Y-134285714D02*
X732347619Y-135238095D01*
X732347619Y-135238095D02*
X730442857Y-136190476D01*
X730442857Y-136190476D02*
X714252380Y-136190476D01*
X714252380Y-142857142D02*
X714252380Y-154285714D01*
X734252380Y-148571428D02*
X714252380Y-148571428D01*
X86428571Y-31223809D02*
X89285714Y-30271428D01*
X89285714Y-30271428D02*
X90238095Y-29319047D01*
X90238095Y-29319047D02*
X91190476Y-27414285D01*
X91190476Y-27414285D02*
X91190476Y-24557142D01*
X91190476Y-24557142D02*
X90238095Y-22652380D01*
X90238095Y-22652380D02*
X89285714Y-21700000D01*
X89285714Y-21700000D02*
X87380952Y-20747619D01*
X87380952Y-20747619D02*
X79761904Y-20747619D01*
X79761904Y-20747619D02*
X79761904Y-40747619D01*
X79761904Y-40747619D02*
X86428571Y-40747619D01*
X86428571Y-40747619D02*
X88333333Y-39795238D01*
X88333333Y-39795238D02*
X89285714Y-38842857D01*
X89285714Y-38842857D02*
X90238095Y-36938095D01*
X90238095Y-36938095D02*
X90238095Y-35033333D01*
X90238095Y-35033333D02*
X89285714Y-33128571D01*
X89285714Y-33128571D02*
X88333333Y-32176190D01*
X88333333Y-32176190D02*
X86428571Y-31223809D01*
X86428571Y-31223809D02*
X79761904Y-31223809D01*
X103571428Y-40747619D02*
X107380952Y-40747619D01*
X107380952Y-40747619D02*
X109285714Y-39795238D01*
X109285714Y-39795238D02*
X111190476Y-37890476D01*
X111190476Y-37890476D02*
X112142857Y-34080952D01*
X112142857Y-34080952D02*
X112142857Y-27414285D01*
X112142857Y-27414285D02*
X111190476Y-23604761D01*
X111190476Y-23604761D02*
X109285714Y-21700000D01*
X109285714Y-21700000D02*
X107380952Y-20747619D01*
X107380952Y-20747619D02*
X103571428Y-20747619D01*
X103571428Y-20747619D02*
X101666666Y-21700000D01*
X101666666Y-21700000D02*
X99761904Y-23604761D01*
X99761904Y-23604761D02*
X98809523Y-27414285D01*
X98809523Y-27414285D02*
X98809523Y-34080952D01*
X98809523Y-34080952D02*
X99761904Y-37890476D01*
X99761904Y-37890476D02*
X101666666Y-39795238D01*
X101666666Y-39795238D02*
X103571428Y-40747619D01*
X117857142Y-40747619D02*
X129285714Y-40747619D01*
X123571428Y-20747619D02*
X123571428Y-40747619D01*
M02*
