%TF.GenerationSoftware,KiCad,Pcbnew,7.0.1-3b83917a11~172~ubuntu22.04.1*%
%TF.CreationDate,2023-12-10T14:44:59-05:00*%
%TF.ProjectId,coil_template_second,636f696c-5f74-4656-9d70-6c6174655f73,rev?*%
%TF.SameCoordinates,Original*%
%TF.FileFunction,Copper,L2,Bot*%
%TF.FilePolarity,Positive*%
%FSLAX46Y46*%
G04 Gerber Fmt 4.6, Leading zero omitted, Abs format (unit mm)*
G04 Created by KiCad (PCBNEW 7.0.1-3b83917a11~172~ubuntu22.04.1) date 2023-12-10 14:44:59*
%MOMM*%
%LPD*%
G01*
G04 APERTURE LIST*
%TA.AperFunction,ComponentPad*%
%ADD10C,10.160000*%
%TD*%
%TA.AperFunction,SMDPad,CuDef*%
%ADD11R,5.000000X5.000000*%
%TD*%
%TA.AperFunction,ViaPad*%
%ADD12C,4.000000*%
%TD*%
%TA.AperFunction,Conductor*%
%ADD13C,5.000000*%
%TD*%
G04 APERTURE END LIST*
D10*
%TO.P,J1,1,Pin_1*%
%TO.N,Net-(J1-Pin_1)*%
X45240000Y-75240000D03*
%TO.P,J1,2,Pin_2*%
X45240000Y-45270000D03*
%TD*%
D11*
%TO.P,J1,1,Pin_1*%
%TO.N,Net-(J1-Pin_1)*%
X746566000Y-745022555D03*
%TD*%
D12*
%TO.N,Net-(J1-Pin_1)*%
X202727373Y-750138047D03*
X495782950Y-750121027D03*
X746896993Y-736125547D03*
X571890190Y-736390523D03*
%TD*%
D13*
%TO.N,Net-(J1-Pin_1)*%
X22947542Y-45868224D02*
X22947542Y-735431743D01*
X45240000Y-45270000D02*
X23545766Y-45270000D01*
X23545766Y-45270000D02*
X22947542Y-45868224D01*
X746896993Y-736125547D02*
X746895546Y-736390523D01*
X70460000Y-750000000D02*
X79670000Y-740000000D01*
X22947542Y-735431743D02*
X22936854Y-735442431D01*
X61680000Y-740000000D02*
X61680000Y-750000000D01*
X143960000Y-740000000D02*
X143960000Y-750000000D01*
X79670000Y-740000000D02*
X79670000Y-750000000D01*
X88890000Y-750000000D02*
X98180000Y-740000000D01*
X143960000Y-750000000D02*
X159090000Y-740000000D01*
X176690000Y-740000000D02*
X176450000Y-750000000D01*
X544850000Y-740000000D02*
X544850000Y-750000000D01*
X495780000Y-740000000D02*
X202620000Y-740000000D01*
X746566000Y-745022555D02*
X570115537Y-745022555D01*
X44720000Y-740000000D02*
X44720000Y-750000000D01*
X510150000Y-740000000D02*
X509930000Y-750000000D01*
X544850000Y-750000000D02*
X526320000Y-740000000D01*
X36240000Y-750000000D02*
X44720000Y-740000000D01*
X569930000Y-750000000D02*
X544850000Y-740000000D01*
X79670000Y-750000000D02*
X88920000Y-740000000D01*
X108600000Y-740000000D02*
X108550000Y-750000000D01*
X119670000Y-750000000D02*
X130800000Y-740000000D01*
X88920000Y-740000000D02*
X88890000Y-750000000D01*
X570115537Y-745022555D02*
X570099221Y-745006239D01*
X526320000Y-740000000D02*
X526040000Y-750000000D01*
X130800000Y-740000000D02*
X130800000Y-750000000D01*
X44720000Y-750000000D02*
X53200000Y-740000000D01*
X571890190Y-736390523D02*
X746896993Y-736125547D01*
X746895546Y-736390523D02*
X746915011Y-736409988D01*
X98180000Y-740000000D02*
X98110000Y-750000000D01*
X32950030Y-735442431D02*
X36240000Y-738732401D01*
X61680000Y-750000000D02*
X70460000Y-740000000D01*
X22936854Y-735442431D02*
X32950030Y-735442431D01*
X53200000Y-740000000D02*
X53200000Y-750000000D01*
X569930000Y-745175460D02*
X569930000Y-750000000D01*
X36240000Y-738732401D02*
X36240000Y-750000000D01*
X130800000Y-750000000D02*
X143960000Y-740000000D01*
X53200000Y-750000000D02*
X61680000Y-740000000D01*
X570099221Y-745006239D02*
X569930000Y-745175460D01*
X176450000Y-750000000D02*
X202620000Y-740000000D01*
X159090000Y-740000000D02*
X159030000Y-750000000D01*
X509930000Y-750000000D02*
X495780000Y-740000000D01*
X159030000Y-750000000D02*
X176690000Y-740000000D01*
X202727373Y-750138047D02*
X495765930Y-750138047D01*
X526040000Y-750000000D02*
X510150000Y-740000000D01*
X119670000Y-740000000D02*
X119670000Y-750000000D01*
X98110000Y-750000000D02*
X108600000Y-740000000D01*
X70460000Y-740000000D02*
X70460000Y-750000000D01*
X108550000Y-750000000D02*
X119670000Y-740000000D01*
X495765930Y-750138047D02*
X495782950Y-750121027D01*
%TD*%
M02*
