%TF.GenerationSoftware,KiCad,Pcbnew,7.0.1-3b83917a11~172~ubuntu22.04.1*%
%TF.CreationDate,2023-12-10T16:36:40-05:00*%
%TF.ProjectId,coil_template_second,636f696c-5f74-4656-9d70-6c6174655f73,rev?*%
%TF.SameCoordinates,Original*%
%TF.FileFunction,Copper,L1,Top*%
%TF.FilePolarity,Positive*%
%FSLAX46Y46*%
G04 Gerber Fmt 4.6, Leading zero omitted, Abs format (unit mm)*
G04 Created by KiCad (PCBNEW 7.0.1-3b83917a11~172~ubuntu22.04.1) date 2023-12-10 16:36:40*
%MOMM*%
%LPD*%
G01*
G04 APERTURE LIST*
%TA.AperFunction,SMDPad,CuDef*%
%ADD10R,5.000000X5.000000*%
%TD*%
%TA.AperFunction,ComponentPad*%
%ADD11C,10.160000*%
%TD*%
%TA.AperFunction,ViaPad*%
%ADD12C,4.000000*%
%TD*%
%TA.AperFunction,Conductor*%
%ADD13C,5.000000*%
%TD*%
G04 APERTURE END LIST*
D10*
%TO.P,J22,1*%
%TO.N,Net-(J1-Pin_1)*%
X746500000Y-1114093185D03*
%TD*%
D11*
%TO.P,J1,1,Pin_1*%
%TO.N,Net-(J1-Pin_1)*%
X45240000Y-75240000D03*
%TO.P,J1,2,Pin_2*%
X45240000Y-45270000D03*
%TD*%
D10*
%TO.P,J34,1*%
%TO.N,Net-(J1-Pin_1)*%
X746500000Y-1467672196D03*
%TD*%
%TO.P,J11,1*%
%TO.N,Net-(J1-Pin_1)*%
X746500000Y-283188423D03*
%TD*%
%TO.P,J1,1,Pin_1*%
%TO.N,Net-(J1-Pin_1)*%
X746500000Y-32673033D03*
%TD*%
%TO.P,J31,1*%
%TO.N,Net-(J1-Pin_1)*%
X746500000Y-1401208574D03*
%TD*%
%TO.P,J7,1*%
%TO.N,Net-(J1-Pin_1)*%
X746500000Y-169183012D03*
%TD*%
%TO.P,J23,1*%
%TO.N,Net-(J1-Pin_1)*%
X746500000Y-1176878439D03*
%TD*%
%TO.P,J29,1*%
%TO.N,Net-(J1-Pin_1)*%
X746500000Y-1354926607D03*
%TD*%
%TO.P,J28,1*%
%TO.N,Net-(J1-Pin_1)*%
X746500000Y-1331640082D03*
%TD*%
%TO.P,J14,1*%
%TO.N,Net-(J1-Pin_1)*%
X746500000Y-482808655D03*
%TD*%
%TO.P,J17,1*%
%TO.N,Net-(J1-Pin_1)*%
X746500000Y-653800433D03*
%TD*%
%TO.P,J20,1*%
%TO.N,Net-(J1-Pin_1)*%
X746500000Y-948789956D03*
%TD*%
%TO.P,J9,1*%
%TO.N,Net-(J1-Pin_1)*%
X746500000Y-221188514D03*
%TD*%
%TO.P,J24,1*%
%TO.N,Net-(J1-Pin_1)*%
X746500000Y-1216651350D03*
%TD*%
%TO.P,J3,1*%
%TO.N,Net-(J1-Pin_1)*%
X746500000Y-76617652D03*
%TD*%
%TO.P,J8,1*%
%TO.N,Net-(J1-Pin_1)*%
X746500000Y-194375409D03*
%TD*%
%TO.P,J4,1*%
%TO.N,Net-(J1-Pin_1)*%
X746500000Y-98943973D03*
%TD*%
%TO.P,J15,1*%
%TO.N,Net-(J1-Pin_1)*%
X746500000Y-551174179D03*
%TD*%
%TO.P,J6,1*%
%TO.N,Net-(J1-Pin_1)*%
X746500000Y-145133252D03*
%TD*%
%TO.P,J27,1*%
%TO.N,Net-(J1-Pin_1)*%
X746500000Y-1305394228D03*
%TD*%
%TO.P,J32,1*%
%TO.N,Net-(J1-Pin_1)*%
X746500000Y-1423524827D03*
%TD*%
%TO.P,J26,1*%
%TO.N,Net-(J1-Pin_1)*%
X746500000Y-1278711752D03*
%TD*%
%TO.P,J25,1*%
%TO.N,Net-(J1-Pin_1)*%
X746500000Y-1249210547D03*
%TD*%
%TO.P,J10,1*%
%TO.N,Net-(J1-Pin_1)*%
X746500000Y-250399111D03*
%TD*%
%TO.P,J30,1*%
%TO.N,Net-(J1-Pin_1)*%
X746500000Y-1377922050D03*
%TD*%
%TO.P,J2,1*%
%TO.N,Net-(J1-Pin_1)*%
X746500000Y-54535764D03*
%TD*%
%TO.P,J12,1*%
%TO.N,Net-(J1-Pin_1)*%
X746500000Y-323096736D03*
%TD*%
%TO.P,J16,1*%
%TO.N,Net-(J1-Pin_1)*%
X746500000Y-601017812D03*
%TD*%
%TO.P,J13,1*%
%TO.N,Net-(J1-Pin_1)*%
X746500000Y-385849012D03*
%TD*%
%TO.P,J33,1*%
%TO.N,Net-(J1-Pin_1)*%
X746500000Y-1444870808D03*
%TD*%
%TO.P,J19,1*%
%TO.N,Net-(J1-Pin_1)*%
X746500000Y-899014939D03*
%TD*%
%TO.P,J5,1*%
%TO.N,Net-(J1-Pin_1)*%
X746500000Y-121794755D03*
%TD*%
%TO.P,J21,1*%
%TO.N,Net-(J1-Pin_1)*%
X746500000Y-1017240289D03*
%TD*%
%TO.P,J18,1*%
%TO.N,Net-(J1-Pin_1)*%
X746500000Y-847000000D03*
%TD*%
D12*
%TO.N,Net-(J1-Pin_1)*%
X652837268Y-750183508D03*
%TD*%
D13*
%TO.N,Net-(J1-Pin_1)*%
X86300000Y-116881900D02*
X86610000Y-116410000D01*
X610510000Y-698121400D02*
X614090000Y-688330000D01*
X494450000Y-140341300D02*
X522380000Y-136280000D01*
X34910000Y-1000309000D02*
X34200000Y-985600000D01*
X145140000Y-750000000D02*
X121750000Y-740000000D01*
X152940000Y-593735400D02*
X153890000Y-583150000D01*
X674360000Y-223875200D02*
X703300000Y-222210000D01*
X631240000Y-981833200D02*
X625640000Y-977670000D01*
X493680000Y-818768400D02*
X488510000Y-805580000D01*
X319290000Y-1064604300D02*
X303510000Y-1035680000D01*
X740985265Y-169225653D02*
X746260000Y-169150000D01*
X657110000Y-197850800D02*
X688120000Y-195770000D01*
X150180000Y-878526600D02*
X149190000Y-863660000D01*
X489350000Y-61022000D02*
X526180000Y-59230000D01*
X210590000Y-560620300D02*
X215070000Y-537370000D01*
X121750000Y-740000000D02*
X121750000Y-733020000D01*
X124160000Y-650721300D02*
X124290000Y-647060000D01*
X391890000Y-638927500D02*
X393540000Y-617370000D01*
X202290000Y-1253649600D02*
X196280000Y-1245330000D01*
X252210000Y-1301814000D02*
X247960000Y-1298690000D01*
X746500000Y-1017240289D02*
X728174989Y-1017240289D01*
X308290000Y-949548700D02*
X303510000Y-932180000D01*
X273060000Y-1221934400D02*
X267320000Y-1216450000D01*
X746500000Y-283188423D02*
X731676707Y-283188423D01*
X56970000Y-915557500D02*
X56260000Y-892010000D01*
X194380000Y-768233200D02*
X194380000Y-750000000D01*
X126800000Y-608045700D02*
X127410000Y-601110000D01*
X56970000Y-584422200D02*
X57460000Y-568220000D01*
X344240000Y-928896800D02*
X338730000Y-908510000D01*
X246140000Y-255420800D02*
X267150000Y-234590000D01*
X393490000Y-1102120700D02*
X372460000Y-1078780000D01*
X157960000Y-67137500D02*
X166810000Y-62610000D01*
X48190000Y-1260774800D02*
X48190000Y-1250680000D01*
X277970000Y-966962200D02*
X268550000Y-932210000D01*
X197850000Y-842856400D02*
X195770000Y-811880000D01*
X609460000Y-889132400D02*
X601540000Y-879570000D01*
X355510000Y-74611800D02*
X373770000Y-71110000D01*
X698720000Y-284676000D02*
X720980000Y-283600000D01*
X471300000Y-1266929200D02*
X467500000Y-1265700000D01*
X499050000Y-289237100D02*
X519450000Y-282260000D01*
X320590000Y-1125766100D02*
X309080000Y-1110880000D01*
X250160000Y-982935800D02*
X243800000Y-958450000D01*
X694420000Y-488500800D02*
X727670000Y-483280000D01*
X567810000Y-1196488900D02*
X550450000Y-1191720000D01*
X731150000Y-1445430200D02*
X728390000Y-1445430000D01*
X198420000Y-850817500D02*
X197850000Y-842860000D01*
X368270000Y-505834700D02*
X372870000Y-496700000D01*
X596970000Y-177964200D02*
X621260000Y-175450000D01*
X198490000Y-851513100D02*
X198420000Y-850820000D01*
X284740000Y-266205800D02*
X286710000Y-264500000D01*
X140340000Y-1005551200D02*
X136280000Y-977620000D01*
X113780000Y-494849000D02*
X115370000Y-480110000D01*
X681230000Y-563816200D02*
X694160000Y-558490000D01*
X215070000Y-962631400D02*
X210590000Y-939380000D01*
X705420000Y-99373500D02*
X713570000Y-99200000D01*
X730436444Y-948789956D02*
X730430000Y-948796400D01*
X320170000Y-118670700D02*
X331730000Y-116010000D01*
X174020000Y-635166300D02*
X175450000Y-621260000D01*
X480110000Y-1384628800D02*
X450490000Y-1379420000D01*
X318590000Y-281672000D02*
X329160000Y-272280000D01*
X614090000Y-688332900D02*
X623140000Y-673860000D01*
X522570000Y-162630500D02*
X545500000Y-158780000D01*
X251720000Y-698829600D02*
X252890000Y-680470000D01*
X597910000Y-625095800D02*
X611060000Y-609240000D01*
X292230000Y-1456086300D02*
X277230000Y-1456090000D01*
X143870000Y-477566800D02*
X147360000Y-458020000D01*
X145140000Y-739952700D02*
X145420000Y-719430000D01*
X602110000Y-964137800D02*
X590030000Y-951850000D01*
X466240000Y-302542600D02*
X467700000Y-301920000D01*
X746500000Y-54535764D02*
X728424036Y-54535764D01*
X361670000Y-1169349500D02*
X351920000Y-1160410000D01*
X720980000Y-1216399200D02*
X698720000Y-1215320000D01*
X411120000Y-1165322700D02*
X408900000Y-1163880000D01*
X397480000Y-601680800D02*
X403270000Y-571330000D01*
X730430000Y-948796400D02*
X729060000Y-948610000D01*
X82990000Y-957573400D02*
X82570000Y-946770000D01*
X302540000Y-466232300D02*
X303530000Y-464260000D01*
X195670000Y-690567400D02*
X195770000Y-688120000D01*
X250850000Y-780248200D02*
X250420000Y-759960000D01*
X130260000Y-930425400D02*
X127410000Y-898870000D01*
X621470000Y-150177100D02*
X636350000Y-149190000D01*
X697470000Y-324536700D02*
X721060000Y-323560000D01*
X93560000Y-265287800D02*
X94510000Y-263170000D01*
X422590000Y-1343894900D02*
X401630000Y-1337370000D01*
X519450000Y-282263600D02*
X533040000Y-277970000D01*
X406770000Y-337610700D02*
X406970000Y-337450000D01*
X552340000Y-1258869400D02*
X541550000Y-1256200000D01*
X194380000Y-731767100D02*
X194430000Y-727810000D01*
X17888676Y-750000000D02*
X17881832Y-750006844D01*
X220600000Y-1080831600D02*
X214120000Y-1062780000D01*
X727670000Y-483275000D02*
X731580000Y-482770000D01*
X32690000Y-715825200D02*
X32780000Y-703210000D01*
X302510000Y-166805200D02*
X306110000Y-164630000D01*
X608770000Y-1373237800D02*
X608050000Y-1373200000D01*
X95730000Y-424302900D02*
X101040000Y-390960000D01*
X405290000Y-565706000D02*
X408970000Y-554390000D01*
X169560000Y-1118103300D02*
X166850000Y-1111700000D01*
X237030000Y-211090300D02*
X237030000Y-211090000D01*
X76630000Y-1163522300D02*
X74610000Y-1144490000D01*
X610510000Y-698121400D02*
X610510000Y-698120000D01*
X252890000Y-819533800D02*
X251720000Y-801170000D01*
X261050000Y-1017140500D02*
X257750000Y-1006930000D01*
X331740000Y-1384003600D02*
X320160000Y-1381340000D01*
X450360000Y-63588000D02*
X484390000Y-61550000D01*
X567630000Y-57499600D02*
X568220000Y-57460000D01*
X32780000Y-824580800D02*
X32780000Y-796790000D01*
X182320000Y-437641100D02*
X192230000Y-409330000D01*
X465670000Y-1264982700D02*
X434500000Y-1252710000D01*
X484390000Y-1438448700D02*
X450360000Y-1436410000D01*
X224610000Y-835778900D02*
X223880000Y-825640000D01*
X56260000Y-891198500D02*
X55400000Y-852050000D01*
X208310000Y-452569200D02*
X214110000Y-437220000D01*
X35840000Y-434427900D02*
X37070000Y-417530000D01*
X116000000Y-331743400D02*
X118660000Y-320160000D01*
X203410000Y-605204500D02*
X208090000Y-573820000D01*
X227360000Y-1336549800D02*
X219750000Y-1329930000D01*
X603710000Y-779869300D02*
X601060000Y-750000000D01*
X567790000Y-1231451300D02*
X533040000Y-1222030000D01*
X59020000Y-971344900D02*
X57500000Y-932370000D01*
X76660000Y-740000000D02*
X76820000Y-718370000D01*
X731676707Y-283188423D02*
X731488983Y-283376147D01*
X198800000Y-318151200D02*
X213260000Y-294410000D01*
X116260000Y-1413353300D02*
X93240000Y-1393760000D01*
X78910000Y-620998000D02*
X80250000Y-595030000D01*
X573060000Y-561299400D02*
X588290000Y-549390000D01*
X310300000Y-956190600D02*
X308290000Y-949550000D01*
X514830000Y-861284100D02*
X500150000Y-839350000D01*
X716600042Y-840440700D02*
X719672940Y-843513598D01*
X583150000Y-153891100D02*
X593740000Y-152930000D01*
X94950000Y-427918400D02*
X95730000Y-424300000D01*
X258270000Y-1256795800D02*
X234920000Y-1233260000D01*
X162630000Y-310465400D02*
X164590000Y-306120000D01*
X239980000Y-1291293200D02*
X222620000Y-1276380000D01*
X600090000Y-537446000D02*
X623320000Y-523760000D01*
X99370000Y-794584900D02*
X99200000Y-786430000D01*
X715830000Y-1467310100D02*
X703210000Y-1467220000D01*
X427920000Y-1405050000D02*
X424300000Y-1404270000D01*
X338260000Y-150171000D02*
X355700000Y-144720000D01*
X403870000Y-1306041300D02*
X394680000Y-1302150000D01*
X728174989Y-1017240289D02*
X727680000Y-1016745300D01*
X349490000Y-454918100D02*
X362370000Y-434930000D01*
X287850000Y-660085400D02*
X290640000Y-636020000D01*
X636020000Y-1209365000D02*
X622410000Y-1207310000D01*
X340470000Y-224450200D02*
X354520000Y-217230000D01*
X252810000Y-1143379000D02*
X237760000Y-1116860000D01*
X407870000Y-443919300D02*
X425840000Y-425140000D01*
X680010000Y-816218800D02*
X666840000Y-797380000D01*
X537370000Y-215067400D02*
X560620000Y-210590000D01*
X40900000Y-334420100D02*
X40900000Y-315950000D01*
X329770000Y-643704500D02*
X334590000Y-610770000D01*
X115800000Y-211476800D02*
X119450000Y-202300000D01*
X372060000Y-138583200D02*
X404560000Y-130110000D01*
X231400000Y-1339112200D02*
X227360000Y-1336550000D01*
X179640000Y-355187500D02*
X192810000Y-329320000D01*
X223880000Y-825636300D02*
X222210000Y-796700000D01*
X298070000Y-591292700D02*
X299230000Y-585710000D01*
X202570000Y-888891200D02*
X198490000Y-851510000D01*
X376370000Y-318902100D02*
X389320000Y-308920000D01*
X660750000Y-1422310300D02*
X636450000Y-1421430000D01*
X59020000Y-528654700D02*
X59230000Y-526180000D01*
X580810000Y-1395002600D02*
X556040000Y-1393300000D01*
X299230000Y-585707300D02*
X303510000Y-567810000D01*
X195770000Y-811880600D02*
X195670000Y-809430000D01*
X32780000Y-703205800D02*
X32780000Y-675420000D01*
X355190000Y-1320356600D02*
X329330000Y-1307210000D01*
X632620000Y-658617300D02*
X639830000Y-650710000D01*
X355520000Y-1425394200D02*
X336470000Y-1423380000D01*
X268290000Y-930994000D02*
X261660000Y-895420000D01*
X217230000Y-1145487200D02*
X207890000Y-1128590000D01*
X543810000Y-1189705900D02*
X516680000Y-1180080000D01*
X746500000Y-601017812D02*
X740982188Y-601017812D01*
X169550000Y-381903600D02*
X179640000Y-355190000D01*
X158780000Y-954502000D02*
X158230000Y-949760000D01*
X100470000Y-835669500D02*
X100070000Y-826390000D01*
X674370000Y-1276125500D02*
X664220000Y-1275400000D01*
X601180000Y-740000000D02*
X603410000Y-721560000D01*
X146740000Y-678212300D02*
X147520000Y-660400000D01*
X258330000Y-1088177100D02*
X247290000Y-1065500000D01*
X566030000Y-1369274800D02*
X531680000Y-1365280000D01*
X674030000Y-171247400D02*
X705370000Y-169890000D01*
X746500000Y-1331640082D02*
X739709802Y-1331640082D01*
X335160000Y-1232063400D02*
X329830000Y-1228220000D01*
X652720000Y-751268100D02*
X652837268Y-750183508D01*
X165540000Y-1275668900D02*
X162850000Y-1271510000D01*
X284680000Y-698723800D02*
X285980000Y-679160000D01*
X17881832Y-750006844D02*
X17881832Y-74824417D01*
X513150000Y-1135133400D02*
X506190000Y-1131920000D01*
X508640000Y-165044200D02*
X522570000Y-162630000D01*
X126760000Y-891233200D02*
X124300000Y-852930000D01*
X659670000Y-715859400D02*
X665370000Y-705410000D01*
X721810000Y-896645200D02*
X697220000Y-889230000D01*
X746500000Y-98943973D02*
X741794648Y-98943973D01*
X312820000Y-1257123800D02*
X298860000Y-1245620000D01*
X335460000Y-606516500D02*
X338730000Y-591490000D01*
X336480000Y-76626000D02*
X355510000Y-74610000D01*
X415850000Y-127410500D02*
X443190000Y-121540000D01*
X584410000Y-56970200D02*
X607990000Y-56260000D01*
X554550000Y-1466342400D02*
X540560000Y-1465800000D01*
X312010000Y-243386200D02*
X328370000Y-232420000D01*
X550240000Y-1341771200D02*
X545500000Y-1341220000D01*
X475208110Y-735727790D02*
X483260000Y-727675900D01*
X122640000Y-813426400D02*
X122520000Y-807880000D01*
X738813227Y-1330743507D02*
X713560000Y-1330380000D01*
X569570000Y-1369741400D02*
X566030000Y-1369270000D01*
X162630000Y-1189442200D02*
X150170000Y-1161740000D01*
X728027038Y-1423250163D02*
X718370000Y-1423180000D01*
X323090000Y-740000000D02*
X323090000Y-738750000D01*
X734910923Y-250399111D02*
X734779774Y-250530260D01*
X622020000Y-33254400D02*
X635070000Y-32970000D01*
X515690000Y-637292300D02*
X518370000Y-631060000D01*
X256490000Y-642074700D02*
X260370000Y-612950000D01*
X33250000Y-594774400D02*
X33660000Y-581330000D01*
X301920000Y-1032296100D02*
X289240000Y-1000950000D01*
X458640000Y-1323169400D02*
X437640000Y-1317680000D01*
X346060000Y-300636000D02*
X347850000Y-299340000D01*
X700790000Y-76944900D02*
X718370000Y-76820000D01*
X649760000Y-1444600100D02*
X647950000Y-1444600000D01*
X448880000Y-92190300D02*
X465540000Y-90010000D01*
X588560000Y-233758800D02*
X593040000Y-233070000D01*
X37070000Y-417534000D02*
X37070000Y-394670000D01*
X57460000Y-931780800D02*
X56970000Y-915560000D01*
X189790000Y-522849700D02*
X197850000Y-488050000D01*
X228410000Y-625950500D02*
X233070000Y-593030000D01*
X514400000Y-34198400D02*
X540560000Y-34200000D01*
X145840000Y-699899300D02*
X146740000Y-678210000D01*
X537270000Y-1144220200D02*
X513150000Y-1135130000D01*
X503720000Y-86052100D02*
X510980000Y-85700000D01*
X675870000Y-878069600D02*
X658390000Y-867210000D01*
X219370000Y-170093600D02*
X225060000Y-165020000D01*
X54840000Y-809466200D02*
X54570000Y-771610000D01*
X138580000Y-1127936000D02*
X130110000Y-1095450000D01*
X303510000Y-932180700D02*
X299230000Y-914290000D01*
X581540000Y-1419347200D02*
X553230000Y-1417430000D01*
X117510000Y-1414167700D02*
X116260000Y-1413350000D01*
X252890000Y-680465000D02*
X254940000Y-656520000D01*
X528650000Y-1440983400D02*
X526180000Y-1440770000D01*
X318590000Y-281672000D02*
X318590000Y-281670000D01*
X354940000Y-1391236700D02*
X331740000Y-1384000000D01*
X55400000Y-649756000D02*
X55400000Y-647950000D01*
X743170000Y-1114151200D02*
X716760000Y-1113490000D01*
X315960000Y-40897800D02*
X334420000Y-40900000D01*
X32690000Y-756283600D02*
X32690000Y-750000000D01*
X40900000Y-315954800D02*
X43910000Y-292230000D01*
X62130000Y-168552400D02*
X66920000Y-158810000D01*
X343810000Y-1197236200D02*
X321400000Y-1176850000D01*
X419310000Y-966699700D02*
X409170000Y-945870000D01*
X193060000Y-1443358600D02*
X168860000Y-1438000000D01*
X323560000Y-721059000D02*
X324540000Y-697460000D01*
X329800000Y-1007848500D02*
X319930000Y-983320000D01*
X387190000Y-235368300D02*
X392030000Y-233070000D01*
X738870000Y-654550000D02*
X714050000Y-660239500D01*
X323090000Y-738754200D02*
X323560000Y-721060000D01*
X95730000Y-1075699900D02*
X94950000Y-1072080000D01*
X673610000Y-100070500D02*
X705420000Y-99370000D01*
X587680000Y-1266077700D02*
X552340000Y-1258870000D01*
X560620000Y-1289410500D02*
X537370000Y-1284930000D01*
X381400000Y-358679400D02*
X406770000Y-337610000D01*
X105020000Y-231409700D02*
X115800000Y-211480000D01*
X54840000Y-688090900D02*
X55400000Y-649760000D01*
X162850000Y-1271511400D02*
X145900000Y-1245110000D01*
X733961868Y-1354780486D02*
X719430000Y-1354580000D01*
X566030000Y-130725500D02*
X569570000Y-130260000D01*
X467710000Y-1198084300D02*
X466230000Y-1197460000D01*
X537270000Y-355782000D02*
X563610000Y-346260000D01*
X324540000Y-697464100D02*
X325810000Y-681890000D01*
X372870000Y-496701000D02*
X384520000Y-477360000D01*
X303070000Y-1101750000D02*
X290360000Y-1081220000D01*
X205230000Y-54506300D02*
X239230000Y-48190000D01*
X464550000Y-1231709000D02*
X450070000Y-1225600000D01*
X80250000Y-595027300D02*
X80650000Y-581540000D01*
X660770000Y-1111568100D02*
X638920000Y-1108120000D01*
X402830000Y-262598400D02*
X411830000Y-258330000D01*
X677550000Y-1422556700D02*
X660750000Y-1422310000D01*
X399270000Y-68865100D02*
X411790000Y-66870000D01*
X334030000Y-412240300D02*
X336570000Y-408340000D01*
X299840000Y-347047900D02*
X303700000Y-342700000D01*
X54570000Y-740000000D02*
X54570000Y-731150000D01*
X635070000Y-32966700D02*
X662640000Y-32970000D01*
X323560000Y-778940700D02*
X323090000Y-761250000D01*
X265810000Y-1214714500D02*
X243920000Y-1188710000D01*
X282260000Y-980546500D02*
X277970000Y-966960000D01*
X636450000Y-1421433100D02*
X621000000Y-1421090000D01*
X425720000Y-1074819100D02*
X406580000Y-1055130000D01*
X664330000Y-100463600D02*
X673610000Y-100070000D01*
X514360000Y-1279313900D02*
X501870000Y-1276300000D01*
X678210000Y-146736000D02*
X699900000Y-145840000D01*
X260370000Y-887055000D02*
X256490000Y-857920000D01*
X82570000Y-946768400D02*
X80650000Y-918460000D01*
X189790000Y-977149400D02*
X188010000Y-966870000D01*
X374610000Y-1220399200D02*
X354160000Y-1205350000D01*
X32690000Y-750000000D02*
X17888676Y-750000000D01*
X263170000Y-1405487300D02*
X231410000Y-1394980000D01*
X365440000Y-987864200D02*
X355780000Y-962730000D01*
X486840000Y-1301838200D02*
X452570000Y-1291690000D01*
X663740000Y-1328062800D02*
X635170000Y-1325980000D01*
X80650000Y-918459200D02*
X80250000Y-904970000D01*
X738750000Y-1176910200D02*
X731687481Y-1176722478D01*
X136280000Y-522383600D02*
X140340000Y-494450000D01*
X703300000Y-1277789600D02*
X674370000Y-1276130000D01*
X601680000Y-397472700D02*
X617380000Y-393530000D01*
X746500000Y-1423524827D02*
X728301702Y-1423524827D01*
X483260000Y-727675900D02*
X488460000Y-694400000D01*
X94950000Y-1072079500D02*
X92190000Y-1051110000D01*
X526180000Y-1440770600D02*
X489350000Y-1438980000D01*
X77440000Y-822447300D02*
X76950000Y-799210000D01*
X145900000Y-1245109700D02*
X134410000Y-1219290000D01*
X617370000Y-1106459700D02*
X601680000Y-1102520000D01*
X281300000Y-319065800D02*
X295670000Y-302400000D01*
X740410053Y-1249210547D02*
X740040000Y-1249580600D01*
X267320000Y-1216453100D02*
X265810000Y-1214710000D01*
X737393318Y-847000000D02*
X746500000Y-847000000D01*
X76820000Y-718371500D02*
X76950000Y-700790000D01*
X364980000Y-512941600D02*
X368270000Y-505830000D01*
X158730000Y-1433070100D02*
X137520000Y-1427080000D01*
X562970000Y-683008300D02*
X571200000Y-662430000D01*
X650720000Y-1375840900D02*
X647060000Y-1375710000D01*
X221240000Y-756793600D02*
X221240000Y-750000000D01*
X61550000Y-484389500D02*
X63590000Y-450360000D01*
X726554755Y-121794755D02*
X726550000Y-121790000D01*
X594820000Y-103766200D02*
X622820000Y-102300000D01*
X715830000Y-32689900D02*
X739386881Y-32689984D01*
X746500000Y-1176878439D02*
X731843442Y-1176878439D01*
X497490000Y-1127556500D02*
X478260000Y-1116050000D01*
X290390000Y-1238985500D02*
X273060000Y-1221930000D01*
X67560000Y-1342936800D02*
X62700000Y-1333320000D01*
X231410000Y-105011500D02*
X263160000Y-94520000D01*
X278900000Y-441112900D02*
X289890000Y-419620000D01*
X680460000Y-1247113500D02*
X656520000Y-1245060000D01*
X224450000Y-1159533000D02*
X217230000Y-1145490000D01*
X632620000Y-841378800D02*
X618910000Y-819890000D01*
X716750000Y-386502200D02*
X729909403Y-386172368D01*
X475300000Y-385818300D02*
X495170000Y-373750000D01*
X553230000Y-1417427600D02*
X542430000Y-1417010000D01*
X254950000Y-196033400D02*
X275270000Y-181420000D01*
X373230000Y-280534100D02*
X393210000Y-268260000D01*
X571320000Y-1096718800D02*
X565710000Y-1094710000D01*
X43910000Y-292228400D02*
X43910000Y-277230000D01*
X164640000Y-1193890100D02*
X162630000Y-1189440000D01*
X675420000Y-32781100D02*
X703210000Y-32780000D01*
X726546133Y-551174179D02*
X725606628Y-552113684D01*
X568220000Y-57459900D02*
X584410000Y-56970000D01*
X319930000Y-983321300D02*
X310300000Y-956190000D01*
X328200000Y-845097500D02*
X325810000Y-818110000D01*
X268290000Y-568993800D02*
X268490000Y-568050000D01*
X571100000Y-1155759800D02*
X563610000Y-1153740000D01*
X483980000Y-1166571400D02*
X473670000Y-1161290000D01*
X32970000Y-635067500D02*
X33250000Y-622020000D01*
X440180000Y-279403700D02*
X450070000Y-274400000D01*
X162630000Y-522572300D02*
X165040000Y-508640000D01*
X522850000Y-189790600D02*
X533130000Y-188010000D01*
X554990000Y-1091266300D02*
X536230000Y-1082070000D01*
X386280000Y-736995525D02*
X396042621Y-746758146D01*
X55400000Y-852047200D02*
X55400000Y-850240000D01*
X82620000Y-1189546700D02*
X76630000Y-1163520000D01*
X43910000Y-277230000D02*
X48190000Y-249320000D01*
X647060000Y-1375706300D02*
X608770000Y-1373240000D01*
X383210000Y-1186289200D02*
X361670000Y-1169350000D01*
X346260000Y-936389100D02*
X344240000Y-928900000D01*
X105000000Y-580810300D02*
X106700000Y-556040000D01*
X731843442Y-1176878439D02*
X731687481Y-1176722478D01*
X537370000Y-1284933400D02*
X514360000Y-1279310000D01*
X198490000Y-648488300D02*
X202570000Y-611110000D01*
X746500000Y-1444870808D02*
X723306978Y-1444870808D01*
X679160000Y-285975000D02*
X698720000Y-284680000D01*
X80250000Y-904973200D02*
X78910000Y-879000000D01*
X268550000Y-932212700D02*
X268490000Y-931950000D01*
X417530000Y-37071100D02*
X434430000Y-35840000D01*
X474350000Y-34910300D02*
X499690000Y-34910000D01*
X396056478Y-750031876D02*
X471679686Y-750031876D01*
X286710000Y-264502000D02*
X312010000Y-243390000D01*
X235020000Y-465674000D02*
X247290000Y-434500000D01*
X222620000Y-1276381600D02*
X212430000Y-1264500000D01*
X137040000Y-175083800D02*
X152200000Y-158520000D01*
X746500000Y-1401208574D02*
X726196082Y-1401208574D01*
X446280000Y-405515000D02*
X448340000Y-403780000D01*
X458020000Y-147358900D02*
X477570000Y-143870000D01*
X189780000Y-1305057400D02*
X171970000Y-1282890000D01*
X228420000Y-874048200D02*
X227790000Y-868340000D01*
X119450000Y-202298100D02*
X124860000Y-193850000D01*
X424300000Y-95728600D02*
X427920000Y-94950000D01*
X239230000Y-48185800D02*
X249320000Y-48190000D01*
X238430000Y-262843900D02*
X246140000Y-255420000D01*
X682850000Y-936979400D02*
X663050000Y-929140000D01*
X636350000Y-149189000D02*
X660400000Y-147520000D01*
X517470000Y-425893700D02*
X533290000Y-419290000D01*
X105000000Y-919190400D02*
X103770000Y-905180000D01*
X32780000Y-796794300D02*
X32690000Y-784170000D01*
X175450000Y-621264400D02*
X177960000Y-596970000D01*
X610770000Y-1165409200D02*
X606520000Y-1164540000D01*
X501870000Y-1276301600D02*
X471300000Y-1266930000D01*
X741841461Y-899014939D02*
X741800000Y-899056400D01*
X499690000Y-34910300D02*
X514400000Y-34200000D01*
X537780000Y-900306400D02*
X523920000Y-876870000D01*
X635170000Y-174019100D02*
X663740000Y-171940000D01*
X631660000Y-1272210000D02*
X625950000Y-1271590000D01*
X408970000Y-554386800D02*
X418300000Y-535200000D01*
X746110000Y-1401034700D02*
X725876269Y-1400888761D01*
X621000000Y-78910900D02*
X636450000Y-78570000D01*
X396200000Y-459065100D02*
X403070000Y-449750000D01*
X166810000Y-62610900D02*
X191670000Y-56970000D01*
X373770000Y-1428893400D02*
X355520000Y-1425390000D01*
X310460000Y-1417386200D02*
X300200000Y-1416090000D01*
X294100000Y-213478100D02*
X319790000Y-197810000D01*
X283230000Y-740000000D02*
X283230000Y-738350000D01*
X222210000Y-703304100D02*
X223880000Y-674360000D01*
X608050000Y-126800300D02*
X608770000Y-126760000D01*
X224010000Y-341204400D02*
X233990000Y-326100000D01*
X300210000Y-83921200D02*
X310450000Y-82620000D01*
X465540000Y-90009200D02*
X468130000Y-89850000D01*
X329120000Y-1136723100D02*
X320590000Y-1125770000D01*
X720110000Y-603668700D02*
X740930000Y-601070000D01*
X505440000Y-1334215600D02*
X472640000Y-1327190000D01*
X299890000Y-1152855500D02*
X280890000Y-1127310000D01*
X271940000Y-230780400D02*
X294100000Y-213480000D01*
X131100000Y-286847200D02*
X134180000Y-281100000D01*
X298860000Y-1245618500D02*
X290390000Y-1238990000D01*
X450070000Y-274403000D02*
X464570000Y-268290000D01*
X569570000Y-130258800D02*
X601110000Y-127410000D01*
X561930000Y-927492500D02*
X549960000Y-912280000D01*
X746500000Y-653800433D02*
X743465403Y-653800433D01*
X105010000Y-1268593200D02*
X94520000Y-1236840000D01*
X268290000Y-464552200D02*
X274400000Y-450070000D01*
X741080000Y-1423345000D02*
X728027038Y-1423250163D01*
X203410000Y-894796900D02*
X202570000Y-888890000D01*
X318630000Y-1301477100D02*
X294490000Y-1286800000D01*
X210080000Y-116592800D02*
X210080000Y-116590000D01*
X108730000Y-961792800D02*
X106710000Y-943950000D01*
X233070000Y-906949700D02*
X228420000Y-874050000D01*
X601110000Y-127410500D02*
X608050000Y-126800000D01*
X396042621Y-750018019D02*
X396056478Y-750031876D01*
X727810000Y-1305568700D02*
X690570000Y-1304330000D01*
X542430000Y-1417007000D02*
X510980000Y-1414300000D01*
X154260000Y-1068856900D02*
X147360000Y-1041980000D01*
X728136345Y-482808655D02*
X727670000Y-483275000D01*
X158780000Y-545497100D02*
X162630000Y-522570000D01*
X728301702Y-1423524827D02*
X728027038Y-1423250163D01*
X405390000Y-1053729500D02*
X403620000Y-1051360000D01*
X268540000Y-392705700D02*
X279870000Y-374200000D01*
X32690000Y-740000000D02*
X32690000Y-715830000D01*
X727682053Y-1467310042D02*
X715830000Y-1467310000D01*
X702470000Y-1113727900D02*
X677360000Y-1111650000D01*
X493570000Y-681296800D02*
X500060000Y-660600000D01*
X56260000Y-607989900D02*
X56970000Y-584420000D01*
X522380000Y-136281800D02*
X531680000Y-134720000D01*
X506190000Y-1131919200D02*
X497490000Y-1127560000D01*
X338730000Y-1026297400D02*
X333430000Y-1016020000D01*
X528650000Y-59016700D02*
X567630000Y-57500000D01*
X334420000Y-1459104300D02*
X315950000Y-1459100000D01*
X166880000Y-223585600D02*
X187650000Y-197030000D01*
X517060000Y-1249844500D02*
X493080000Y-1242250000D01*
X211050000Y-1384052500D02*
X202790000Y-1380780000D01*
X202570000Y-611107600D02*
X203410000Y-605200000D01*
X495170000Y-373754000D02*
X504420000Y-369020000D01*
X559500000Y-1316831100D02*
X533130000Y-1311990000D01*
X309080000Y-1110877900D02*
X303070000Y-1101750000D01*
X163310000Y-227665600D02*
X166880000Y-223590000D01*
X336470000Y-1423379600D02*
X310460000Y-1417390000D01*
X411830000Y-258330000D02*
X434500000Y-247290000D01*
X402830000Y-1237412600D02*
X393030000Y-1231660000D01*
X208000000Y-240752600D02*
X224000000Y-222210000D01*
X56970000Y-1308313500D02*
X54500000Y-1297610000D01*
X233070000Y-1107960700D02*
X220600000Y-1080830000D01*
X201510000Y-247720600D02*
X208000000Y-240750000D01*
X254890000Y-145902000D02*
X280710000Y-134410000D01*
X212430000Y-1264495900D02*
X202290000Y-1253650000D01*
X145140000Y-740000000D02*
X145140000Y-739950000D01*
X144700000Y-355713000D02*
X150150000Y-338250000D01*
X138580000Y-372058400D02*
X144700000Y-355710000D01*
X76950000Y-700785500D02*
X77440000Y-677550000D01*
X510980000Y-85699100D02*
X542430000Y-82990000D01*
X195770000Y-688118400D02*
X197850000Y-657110000D01*
X197850000Y-1105309000D02*
X193960000Y-1096130000D01*
X172820000Y-138741900D02*
X191960000Y-126110000D01*
X728424036Y-54535764D02*
X728390000Y-54569800D01*
X467500000Y-1265704100D02*
X465670000Y-1264980000D01*
X399270000Y-1431138000D02*
X373770000Y-1428890000D01*
X180670000Y-922193900D02*
X177970000Y-903030000D01*
X285980000Y-820845900D02*
X284680000Y-801280000D01*
X433480000Y-363430400D02*
X453700000Y-350270000D01*
X554110000Y-409171600D02*
X565710000Y-405300000D01*
X121550000Y-1056806200D02*
X120580000Y-1049520000D01*
X746500000Y-1467672196D02*
X728044207Y-1467672196D01*
X697460000Y-1175462200D02*
X681890000Y-1174190000D01*
X216380000Y-356069000D02*
X224010000Y-341200000D01*
X729909403Y-386172368D02*
X743170000Y-385840000D01*
X442140000Y-64663900D02*
X450360000Y-63590000D01*
X32780000Y-675419100D02*
X32970000Y-662640000D01*
X611060000Y-609244300D02*
X611060000Y-609240000D01*
X746500000Y-899014939D02*
X741841461Y-899014939D01*
X656520000Y-1245064300D02*
X642070000Y-1243510000D01*
X458020000Y-1352642600D02*
X431150000Y-1345750000D01*
X99200000Y-713569300D02*
X99370000Y-705420000D01*
X381900000Y-1330453800D02*
X355190000Y-1320360000D01*
X83910000Y-300205000D02*
X92190000Y-270280000D01*
X131110000Y-1213144700D02*
X127410000Y-1203210000D01*
X169150000Y-750000000D02*
X145140000Y-740000000D01*
X166840000Y-388292300D02*
X169550000Y-381900000D01*
X409170000Y-945867600D02*
X405290000Y-934290000D01*
X451840000Y-1098687000D02*
X446770000Y-1094530000D01*
X122520000Y-807878800D02*
X121800000Y-773450000D01*
X327580000Y-193686300D02*
X355190000Y-179650000D01*
X268150000Y-334846200D02*
X271900000Y-329660000D01*
X171940000Y-836263700D02*
X171250000Y-825970000D01*
X250420000Y-740000000D02*
X250850000Y-719750000D01*
X54570000Y-731149300D02*
X54570000Y-728390000D01*
X364930000Y-1068662000D02*
X350530000Y-1046730000D01*
X261040000Y-482857600D02*
X268290000Y-464550000D01*
X550450000Y-308286200D02*
X567820000Y-303510000D01*
X581540000Y-80652900D02*
X595030000Y-80250000D01*
X334590000Y-610773300D02*
X335460000Y-606520000D01*
X355700000Y-144723700D02*
X372060000Y-138580000D01*
X553230000Y-82572500D02*
X581540000Y-80650000D01*
X731580000Y-1017244300D02*
X727680000Y-1016750000D01*
X638690000Y-514832100D02*
X660640000Y-500140000D01*
X376370000Y-318902100D02*
X376370000Y-318900000D01*
X360100000Y-1120112800D02*
X338170000Y-1093960000D01*
X318290000Y-1218005100D02*
X302160000Y-1204100000D01*
X556040000Y-106703500D02*
X580810000Y-105000000D01*
X233070000Y-1028692700D02*
X223700000Y-998130000D01*
X464290000Y-1196486200D02*
X436810000Y-1181550000D01*
X328370000Y-232417700D02*
X340470000Y-224450000D01*
X516680000Y-319927100D02*
X543810000Y-310300000D01*
X591290000Y-1201932400D02*
X585710000Y-1200770000D01*
X649180000Y-1301580800D02*
X648490000Y-1301510000D01*
X703300000Y-222210500D02*
X716040000Y-221760000D01*
X694470000Y-941598800D02*
X682850000Y-936980000D01*
X572220000Y-839333600D02*
X564130000Y-819330000D01*
X108770000Y-1145059100D02*
X104150000Y-1121000000D01*
X130260000Y-569573800D02*
X130730000Y-566030000D01*
X221240000Y-750000000D02*
X194380000Y-740000000D01*
X32690000Y-784174800D02*
X32690000Y-756280000D01*
X333430000Y-483975500D02*
X338930000Y-473290000D01*
X18297415Y-75240000D02*
X17881832Y-74824417D01*
X422590000Y-156108100D02*
X431140000Y-154250000D01*
X437640000Y-1317681700D02*
X409330000Y-1307760000D01*
X501870000Y-223699600D02*
X514360000Y-220690000D01*
X699900000Y-1354158000D02*
X678210000Y-1353260000D01*
X221760000Y-783961200D02*
X221240000Y-756790000D01*
X182320000Y-1062356600D02*
X176830000Y-1041370000D01*
X687300000Y-823008500D02*
X680010000Y-816220000D01*
X213900000Y-1206538700D02*
X197740000Y-1180090000D01*
X227790000Y-631657700D02*
X228410000Y-625950000D01*
X417530000Y-1462929700D02*
X394670000Y-1462930000D01*
X488510000Y-805575700D02*
X483280000Y-772340000D01*
X741112348Y-76617652D02*
X741080000Y-76650000D01*
X354940000Y-108771000D02*
X379000000Y-104150000D01*
X728668305Y-221516651D02*
X743210000Y-221240000D01*
X468130000Y-89854000D02*
X503720000Y-86050000D01*
X280890000Y-1127312700D02*
X268280000Y-1106790000D01*
X474350000Y-1465089800D02*
X458700000Y-1464160000D01*
X292690000Y-622408300D02*
X298070000Y-591290000D01*
X139020000Y-1327525400D02*
X126400000Y-1308480000D01*
X279870000Y-374198800D02*
X294750000Y-354080000D01*
X129290000Y-1092816600D02*
X127410000Y-1084140000D01*
X233070000Y-392028500D02*
X235370000Y-387190000D01*
X739386881Y-32689984D02*
X743720000Y-32690000D01*
X465540000Y-1409991700D02*
X448860000Y-1407810000D01*
X54840000Y-811908900D02*
X54840000Y-809470000D01*
X197850000Y-394676900D02*
X207880000Y-371410000D01*
X388360000Y-677360000D02*
X386280000Y-702462400D01*
X648490000Y-198487800D02*
X649180000Y-198420000D01*
X654900000Y-328198900D02*
X681890000Y-325810000D01*
X612950000Y-260368900D02*
X642070000Y-256490000D01*
X568050000Y-1231513600D02*
X567790000Y-1231450000D01*
X488050000Y-197850800D02*
X522850000Y-189790000D01*
X149190000Y-863655800D02*
X147520000Y-839600000D01*
X86610000Y-116412500D02*
X106800000Y-92760000D01*
X418300000Y-535202500D02*
X423510000Y-522320000D01*
X130730000Y-933967800D02*
X130260000Y-930430000D01*
X563610000Y-1153740000D02*
X537270000Y-1144220000D01*
X728390000Y-1445430200D02*
X722787570Y-1445390216D01*
X267150000Y-234587700D02*
X271940000Y-230780000D01*
X284190000Y-1184308500D02*
X272910000Y-1171650000D01*
X471679686Y-750031876D02*
X475208110Y-746503452D01*
X394690000Y-197850800D02*
X403870000Y-193960000D01*
X643700000Y-329764600D02*
X654900000Y-328200000D01*
X286850000Y-131110500D02*
X296780000Y-127410000D01*
X241130000Y-552337900D02*
X243800000Y-541550000D01*
X642180000Y-915313700D02*
X635000000Y-910920000D01*
X743210000Y-1278758100D02*
X716040000Y-1278240000D01*
X290640000Y-636020100D02*
X292690000Y-622410000D01*
X732927514Y-845733576D02*
X733645742Y-846451804D01*
X124860000Y-193846900D02*
X137040000Y-175080000D01*
X621260000Y-175445800D02*
X635170000Y-174020000D01*
X406970000Y-337449400D02*
X407080000Y-337370000D01*
X33250000Y-622017300D02*
X33250000Y-594770000D01*
X195400000Y-1176222300D02*
X193680000Y-1172420000D01*
X338170000Y-1093959800D02*
X337840000Y-1093560000D01*
X581330000Y-33657700D02*
X594770000Y-33250000D01*
X197850000Y-657112300D02*
X198420000Y-649180000D01*
X301020000Y-1154402100D02*
X299890000Y-1152860000D01*
X488640000Y-1055184900D02*
X477830000Y-1045860000D01*
X331730000Y-116012500D02*
X354940000Y-108770000D01*
X426180000Y-982696100D02*
X419310000Y-966700000D01*
X193960000Y-403868300D02*
X197850000Y-394680000D01*
X326660000Y-1266400900D02*
X312820000Y-1257120000D01*
X716040000Y-221756900D02*
X728668305Y-221516651D01*
X347850000Y-299341900D02*
X347850000Y-299340000D01*
X90010000Y-465538600D02*
X92190000Y-448860000D01*
X540560000Y-1465801600D02*
X514400000Y-1465800000D01*
X276060000Y-1319124200D02*
X252210000Y-1301810000D01*
X467500000Y-234298300D02*
X471300000Y-233070000D01*
X251720000Y-801171400D02*
X250850000Y-780250000D01*
X194380000Y-740000000D02*
X194380000Y-731770000D01*
X162630000Y-1098343200D02*
X156110000Y-1077410000D01*
X192230000Y-409329800D02*
X193960000Y-403870000D01*
X323270000Y-321282800D02*
X344970000Y-301610000D01*
X635170000Y-1325981600D02*
X621260000Y-1324550000D01*
X739709802Y-1331640082D02*
X738813227Y-1330743507D01*
X281190000Y-1365865800D02*
X255660000Y-1354580000D01*
X104140000Y-379009100D02*
X108760000Y-354940000D01*
X746500000Y-1377922050D02*
X726837950Y-1377922050D01*
X169620000Y-713556000D02*
X169890000Y-705370000D01*
X716040000Y-1278243000D02*
X703300000Y-1277790000D01*
X237200000Y-264161700D02*
X237200000Y-264160000D01*
X268280000Y-1106790800D02*
X262600000Y-1097160000D01*
X33660000Y-918672800D02*
X33250000Y-905230000D01*
X231410000Y-1394981000D02*
X211050000Y-1384050000D01*
X115370000Y-480106100D02*
X120580000Y-450490000D01*
X699900000Y-145842100D02*
X719430000Y-145420000D01*
X296780000Y-127410500D02*
X320170000Y-118670000D01*
X522260000Y-625835200D02*
X536110000Y-602030000D01*
X34200000Y-959441800D02*
X33660000Y-945450000D01*
X149190000Y-636345200D02*
X150180000Y-621470000D01*
X76660000Y-750000000D02*
X54570000Y-740000000D01*
X158230000Y-949764900D02*
X153890000Y-916850000D01*
X100070000Y-826389800D02*
X99370000Y-794580000D01*
X242990000Y-312682300D02*
X254150000Y-299140000D01*
X674030000Y-1328753000D02*
X663740000Y-1328060000D01*
X660400000Y-1352484600D02*
X636350000Y-1350810000D01*
X221300000Y-740000000D02*
X221760000Y-716040000D01*
X202400000Y-54506300D02*
X205230000Y-54510000D01*
X660090000Y-1212155400D02*
X636020000Y-1209360000D01*
X477830000Y-1045855600D02*
X470930000Y-1040210000D01*
X589890000Y-633979600D02*
X597910000Y-625100000D01*
X746500000Y-221188514D02*
X728996442Y-221188514D01*
X487150000Y-1301931300D02*
X486840000Y-1301840000D01*
X74610000Y-1144487600D02*
X71110000Y-1126230000D01*
X681890000Y-325805900D02*
X697470000Y-324540000D01*
X459670000Y-1104408000D02*
X451840000Y-1098690000D01*
X388360000Y-677358400D02*
X388440000Y-660760000D01*
X726196082Y-1401208574D02*
X725876269Y-1400888761D01*
X116020000Y-1168267500D02*
X108770000Y-1145060000D01*
X198420000Y-649181200D02*
X198490000Y-648490000D01*
X301860000Y-1155338000D02*
X301020000Y-1154400000D01*
X425840000Y-425138200D02*
X446280000Y-405520000D01*
X567790000Y-268551100D02*
X568050000Y-268490000D01*
X568220000Y-1442540200D02*
X567630000Y-1442500000D01*
X623850000Y-900955300D02*
X609460000Y-889130000D01*
X92190000Y-1051113300D02*
X90010000Y-1034460000D01*
X660640000Y-500136300D02*
X681240000Y-493660000D01*
X559510000Y-183169400D02*
X577810000Y-180670000D01*
X278400000Y-272805100D02*
X284740000Y-266210000D01*
X443190000Y-1378458200D02*
X415830000Y-1372590000D01*
X329160000Y-272277000D02*
X334870000Y-268130000D01*
X338730000Y-908507200D02*
X335460000Y-893480000D01*
X192810000Y-329317200D02*
X195100000Y-324220000D01*
X419760000Y-1210193000D02*
X396440000Y-1195870000D01*
X482860000Y-1238957200D02*
X464550000Y-1231710000D01*
X554550000Y-33657700D02*
X581330000Y-33660000D01*
X698830000Y-251720700D02*
X719750000Y-250850000D01*
X388290000Y-1333159900D02*
X381900000Y-1330450000D01*
X563610000Y-346262400D02*
X571100000Y-344240000D01*
X702470000Y-386260100D02*
X716750000Y-386500000D01*
X591480000Y-1161268700D02*
X571100000Y-1155760000D01*
X373980000Y-1005179200D02*
X369020000Y-995580000D01*
X233070000Y-593034700D02*
X233760000Y-588560000D01*
X533130000Y-188009600D02*
X559510000Y-183170000D01*
X746500000Y-1354926607D02*
X734107989Y-1354926607D01*
X405290000Y-934289700D02*
X403280000Y-928680000D01*
X409330000Y-192239500D02*
X437640000Y-182320000D01*
X434500000Y-1252712400D02*
X411840000Y-1241690000D01*
X607990000Y-1443737000D02*
X584410000Y-1443030000D01*
X233760000Y-911437200D02*
X233070000Y-906950000D01*
X99370000Y-705415500D02*
X100070000Y-673610000D01*
X239230000Y-1451812600D02*
X205220000Y-1445480000D01*
X647950000Y-1444600100D02*
X608800000Y-1443740000D01*
X355150000Y-1461299800D02*
X334420000Y-1459100000D01*
X100460000Y-664331200D02*
X101580000Y-634020000D01*
X446300000Y-486573500D02*
X454130000Y-477690000D01*
X499050000Y-1210766100D02*
X467710000Y-1198080000D01*
X308280000Y-550449900D02*
X310300000Y-543810000D01*
X101580000Y-865981200D02*
X100470000Y-835670000D01*
X54570000Y-750000000D02*
X32690000Y-740000000D01*
X73090000Y-137254500D02*
X86300000Y-116880000D01*
X237030000Y-211090300D02*
X247220000Y-201620000D01*
X55400000Y-647952500D02*
X56260000Y-608800000D01*
X727984472Y-1305394228D02*
X727810000Y-1305568700D01*
X210590000Y-939380900D02*
X208090000Y-926180000D01*
X390960000Y-101048400D02*
X424300000Y-95730000D01*
X571200000Y-662434500D02*
X586240000Y-639920000D01*
X294490000Y-1286800900D02*
X265690000Y-1263840000D01*
X323780000Y-195399300D02*
X327580000Y-193690000D01*
X688090000Y-1445156900D02*
X649760000Y-1444600000D01*
X346260000Y-563611900D02*
X355780000Y-537270000D01*
X397680000Y-303424300D02*
X418780000Y-290360000D01*
X411840000Y-1241688300D02*
X402830000Y-1237410000D01*
X228740000Y-162659400D02*
X254890000Y-145900000D01*
X584410000Y-1443029800D02*
X568220000Y-1442540000D01*
X334870000Y-268132100D02*
X357040000Y-252530000D01*
X35840000Y-458697200D02*
X35840000Y-434430000D01*
X354520000Y-217227300D02*
X371410000Y-207880000D01*
X383750000Y-1262608000D02*
X357980000Y-1248060000D01*
X54500000Y-1297607400D02*
X54500000Y-1294770000D01*
X720980000Y-283600000D02*
X731488983Y-283376147D01*
X403070000Y-449745000D02*
X407870000Y-443920000D01*
X442140000Y-1435337500D02*
X411790000Y-1433130000D01*
X196910000Y-1312115900D02*
X189780000Y-1305060000D01*
X500150000Y-839349500D02*
X493680000Y-818770000D01*
X713560000Y-169619000D02*
X740985265Y-169225653D01*
X424300000Y-1404274500D02*
X390960000Y-1398960000D01*
X194430000Y-727807200D02*
X195670000Y-690570000D01*
X145490000Y-255543500D02*
X161790000Y-230070000D01*
X446770000Y-1094525300D02*
X425720000Y-1074820000D01*
X522400000Y-1076669200D02*
X507580000Y-1067330000D01*
X55400000Y-850244300D02*
X54840000Y-811910000D01*
X407180000Y-129287900D02*
X415850000Y-127410000D01*
X369390000Y-1075011600D02*
X364930000Y-1068660000D01*
X355780000Y-962726800D02*
X346260000Y-936390000D01*
X162630000Y-977417500D02*
X158780000Y-954500000D01*
X303700000Y-342697800D02*
X323270000Y-321280000D01*
X268490000Y-931948600D02*
X268290000Y-930990000D01*
X464570000Y-268291000D02*
X482860000Y-261050000D01*
X644030000Y-583533600D02*
X661370000Y-571820000D01*
X718370000Y-1423183400D02*
X700790000Y-1423060000D01*
X197850000Y-488051000D02*
X198070000Y-487150000D01*
X531680000Y-1365279400D02*
X522380000Y-1363720000D01*
X215070000Y-537367700D02*
X220690000Y-514360000D01*
X169890000Y-794629200D02*
X169620000Y-786440000D01*
X746500000Y-551174179D02*
X726546133Y-551174179D01*
X223880000Y-674364900D02*
X224600000Y-664220000D01*
X169890000Y-705371500D02*
X171250000Y-674030000D01*
X728980000Y-551431900D02*
X730450000Y-551230000D01*
X401650000Y-162630500D02*
X422590000Y-156110000D01*
X77690000Y-839244600D02*
X77440000Y-822450000D01*
X310450000Y-82621800D02*
X336480000Y-76630000D01*
X743720000Y-1467310100D02*
X727682053Y-1467310042D01*
X565710000Y-1094707200D02*
X554990000Y-1091270000D01*
X392030000Y-233070800D02*
X419170000Y-220590000D01*
X34910000Y-499691200D02*
X34910000Y-474350000D01*
X424280000Y-1129980900D02*
X403520000Y-1111840000D01*
X34200000Y-985600000D02*
X34200000Y-959440000D01*
X85700000Y-510978200D02*
X86050000Y-503720000D01*
X577810000Y-180666700D02*
X596970000Y-177960000D01*
X207890000Y-1128590100D02*
X197850000Y-1105310000D01*
X306110000Y-164630600D02*
X310540000Y-162630000D01*
X746260000Y-1330850700D02*
X738813227Y-1330743507D01*
X169150000Y-753744700D02*
X169150000Y-750000000D01*
X595030000Y-80245100D02*
X621000000Y-78910000D01*
X593040000Y-233070800D02*
X625950000Y-228410000D01*
X319920000Y-516676900D02*
X329790000Y-492150000D01*
X101580000Y-634018100D02*
X102300000Y-622820000D01*
X731775409Y-194375409D02*
X731770000Y-194370000D01*
X329790000Y-492154600D02*
X333430000Y-483980000D01*
X728996442Y-221188514D02*
X728668305Y-221516651D01*
X350530000Y-1046733900D02*
X338730000Y-1026300000D01*
X147360000Y-458019400D02*
X154250000Y-431150000D01*
X195460000Y-1376151300D02*
X175480000Y-1363270000D01*
X407080000Y-337371200D02*
X435400000Y-319290000D01*
X518350000Y-869457300D02*
X514830000Y-861280000D01*
X220690000Y-514363000D02*
X223700000Y-501870000D01*
X401630000Y-1337369500D02*
X388290000Y-1333160000D01*
X73090000Y-137254500D02*
X73090000Y-137250000D01*
X339630000Y-351885000D02*
X358930000Y-333120000D01*
X386790000Y-1026266900D02*
X373980000Y-1005180000D01*
X94520000Y-1236836500D02*
X93570000Y-1234710000D01*
X464320000Y-303511100D02*
X466240000Y-302540000D01*
X118660000Y-320160200D02*
X127410000Y-296750000D01*
X158790000Y-1348097200D02*
X153370000Y-1342730000D01*
X92190000Y-1229707300D02*
X83920000Y-1199790000D01*
X103770000Y-905183600D02*
X102300000Y-877180000D01*
X739956748Y-145133252D02*
X739950000Y-145140000D01*
X373770000Y-71110200D02*
X399270000Y-68870000D01*
X92190000Y-448864100D02*
X94950000Y-427920000D01*
X261060000Y-290329700D02*
X261060000Y-290330000D01*
X642070000Y-256487900D02*
X656520000Y-254940000D01*
X106800000Y-92757900D02*
X113970000Y-87850000D01*
X388040000Y-403675000D02*
X399010000Y-392480000D01*
X93240000Y-1393758700D02*
X88090000Y-1386120000D01*
X61020000Y-1010651500D02*
X59230000Y-973820000D01*
X551230000Y-750000000D02*
X601180000Y-740000000D01*
X403870000Y-193961600D02*
X409330000Y-192240000D01*
X37070000Y-1105324900D02*
X37070000Y-1082470000D01*
X666840000Y-797378400D02*
X660760000Y-786980000D01*
X82990000Y-542426000D02*
X85700000Y-510980000D01*
X404560000Y-130106200D02*
X407180000Y-129290000D01*
X450070000Y-1225602100D02*
X441130000Y-1221110000D01*
X488460000Y-694397000D02*
X493570000Y-681300000D01*
X660750000Y-77689900D02*
X677550000Y-77440000D01*
X198690000Y-251571200D02*
X201510000Y-247720000D01*
X261060000Y-290329700D02*
X278400000Y-272810000D01*
X536110000Y-602030900D02*
X548100000Y-590040000D01*
X195670000Y-809433600D02*
X194430000Y-772190000D01*
X71110000Y-373765200D02*
X74610000Y-355520000D01*
X541550000Y-1256203000D02*
X517060000Y-1249840000D01*
X150150000Y-338250900D02*
X162630000Y-310470000D01*
X608050000Y-1373200000D02*
X601100000Y-1372590000D01*
X427920000Y-94952200D02*
X448880000Y-92190000D01*
X713570000Y-99202000D02*
X741737446Y-99001175D01*
X383350000Y-237634700D02*
X387190000Y-235370000D01*
X237400000Y-383729600D02*
X252010000Y-357880000D01*
X680460000Y-252887100D02*
X698830000Y-251720000D01*
X686570000Y-1377359800D02*
X650720000Y-1375840000D01*
X86050000Y-503724400D02*
X89850000Y-468130000D01*
X453700000Y-350265400D02*
X473710000Y-338730000D01*
X127410000Y-1084142400D02*
X121550000Y-1056810000D01*
X694400000Y-1011538100D02*
X681300000Y-1006440000D01*
X390960000Y-1398955900D02*
X379010000Y-1395860000D01*
X390600000Y-1192080100D02*
X383210000Y-1186290000D01*
X698720000Y-1215324000D02*
X679160000Y-1214030000D01*
X243800000Y-958454300D02*
X241130000Y-947660000D01*
X54510000Y-205224300D02*
X54510000Y-202400000D01*
X180950000Y-275933400D02*
X198690000Y-251570000D01*
X579340000Y-943547100D02*
X561930000Y-927490000D01*
X166850000Y-1111703300D02*
X162630000Y-1098340000D01*
X223700000Y-501866900D02*
X233070000Y-471290000D01*
X403520000Y-1111842600D02*
X393490000Y-1102120000D01*
X33660000Y-945452200D02*
X33660000Y-918670000D01*
X34910000Y-1025649400D02*
X34910000Y-1000310000D01*
X56260000Y-608801900D02*
X56260000Y-607990000D01*
X99010000Y-740000000D02*
X99200000Y-713570000D01*
X450480000Y-120582800D02*
X480110000Y-115370000D01*
X168860000Y-1437999300D02*
X158730000Y-1433070000D01*
X152940000Y-906265600D02*
X150180000Y-878530000D01*
X370970000Y-423104400D02*
X388040000Y-403680000D01*
X93570000Y-1234710200D02*
X92190000Y-1229710000D01*
X165790000Y-994563200D02*
X165050000Y-991360000D01*
X153890000Y-916851800D02*
X152940000Y-906270000D01*
X586240000Y-639919500D02*
X589890000Y-633980000D01*
X223700000Y-998131900D02*
X220690000Y-985640000D01*
X394670000Y-37071100D02*
X417530000Y-37070000D01*
X388300000Y-166845300D02*
X401650000Y-162630000D01*
X193960000Y-1096128600D02*
X192240000Y-1090670000D01*
X198070000Y-1012852700D02*
X197850000Y-1011940000D01*
X605200000Y-203407200D02*
X611110000Y-202570000D01*
X660760000Y-786980700D02*
X652720000Y-751270000D01*
X731035130Y-323096736D02*
X730830825Y-323301041D01*
X703210000Y-1467219000D02*
X675420000Y-1467220000D01*
X127410000Y-296746700D02*
X131100000Y-286850000D01*
X625950000Y-228414700D02*
X631660000Y-227790000D01*
X437220000Y-214113300D02*
X452570000Y-208310000D01*
X152200000Y-158520600D02*
X157010000Y-153670000D01*
X468130000Y-1410147000D02*
X465540000Y-1409990000D01*
X171250000Y-825966300D02*
X169890000Y-794630000D01*
X722787570Y-1445390216D02*
X690530000Y-1445160000D01*
X573820000Y-1291914300D02*
X560620000Y-1289410000D01*
X214110000Y-437224800D02*
X220590000Y-419170000D01*
X104150000Y-1120996600D02*
X101050000Y-1109040000D01*
X122520000Y-692121800D02*
X122640000Y-686570000D01*
X210080000Y-116592800D02*
X231410000Y-105010000D01*
X676750000Y-687641000D02*
X683960000Y-679910000D01*
X85700000Y-989022500D02*
X82990000Y-957570000D01*
X433480000Y-363430400D02*
X433480000Y-363430000D01*
X122640000Y-686572900D02*
X124160000Y-650720000D01*
X611110000Y-202572100D02*
X648490000Y-198490000D01*
X434500000Y-247291900D02*
X465670000Y-235020000D01*
X369870000Y-1130196400D02*
X360100000Y-1120110000D01*
X617380000Y-393532400D02*
X638920000Y-391870000D01*
X76820000Y-781628800D02*
X76660000Y-758920000D01*
X403620000Y-1051359600D02*
X386790000Y-1026270000D01*
X371120000Y-368631900D02*
X381400000Y-358680000D01*
X258310000Y-411836100D02*
X262590000Y-402830000D01*
X522850000Y-1310210000D02*
X488050000Y-1302150000D01*
X683960000Y-679906000D02*
X705020000Y-665420000D01*
X165790000Y-505438100D02*
X172810000Y-472640000D01*
X191960000Y-126113800D02*
X200650000Y-120390000D01*
X341020000Y-1275869600D02*
X326660000Y-1266400000D01*
X153890000Y-583147300D02*
X158230000Y-550240000D01*
X403280000Y-928679900D02*
X397470000Y-898330000D01*
X295670000Y-302400800D02*
X300840000Y-297020000D01*
X680810000Y-618560100D02*
X687290000Y-614540000D01*
X746500000Y-482808655D02*
X728136345Y-482808655D01*
X571320000Y-403285200D02*
X601680000Y-397470000D01*
X220690000Y-985638400D02*
X215070000Y-962630000D01*
X207880000Y-371407500D02*
X216380000Y-356070000D01*
X622020000Y-1466745700D02*
X594770000Y-1466750000D01*
X434350000Y-1137277100D02*
X427990000Y-1132870000D01*
X270280000Y-1407809700D02*
X265290000Y-1406440000D01*
X143870000Y-1022434900D02*
X140340000Y-1005550000D01*
X371410000Y-1292117200D02*
X355580000Y-1283340000D01*
X583840000Y-856444900D02*
X572220000Y-839330000D01*
X268490000Y-568050100D02*
X268550000Y-567790000D01*
X34200000Y-514399900D02*
X34910000Y-499690000D01*
X746500000Y-121794755D02*
X726554755Y-121794755D01*
X681890000Y-1174193600D02*
X654900000Y-1171800000D01*
X310300000Y-543811700D02*
X319920000Y-516680000D01*
X533040000Y-1222033900D02*
X519460000Y-1217740000D01*
X494850000Y-113781200D02*
X517770000Y-110510000D01*
X265290000Y-93564200D02*
X270290000Y-92190000D01*
X183170000Y-940493900D02*
X180670000Y-922190000D01*
X503960000Y-434550100D02*
X517470000Y-425890000D01*
X551450000Y-771033900D02*
X551230000Y-750000000D01*
X458700000Y-35843400D02*
X474350000Y-34910000D01*
X484390000Y-61551700D02*
X489350000Y-61020000D01*
X726550000Y-121794700D02*
X733020000Y-121750000D01*
X594820000Y-1396234100D02*
X580810000Y-1395000000D01*
X388440000Y-660762300D02*
X391890000Y-638930000D01*
X108730000Y-538208000D02*
X110510000Y-517770000D01*
X664330000Y-1399536600D02*
X634020000Y-1398420000D01*
X740040000Y-1249580600D02*
X719750000Y-1249150000D01*
X250420000Y-759965000D02*
X250420000Y-750000000D01*
X329770000Y-856295000D02*
X328200000Y-845100000D01*
X388340000Y-822649900D02*
X386260000Y-797530000D01*
X113780000Y-1005152100D02*
X110510000Y-982230000D01*
X719750000Y-250845300D02*
X734779774Y-250530260D01*
X134680000Y-73909400D02*
X157960000Y-67140000D01*
X588560000Y-1266242400D02*
X587680000Y-1266080000D01*
X304750000Y-395480200D02*
X308110000Y-390320000D01*
X649760000Y-55400000D02*
X688090000Y-54840000D01*
X310540000Y-162630500D02*
X338260000Y-150170000D01*
X654800000Y-740000000D02*
X659670000Y-715860000D01*
X650460000Y-859972800D02*
X632620000Y-841380000D01*
X78570000Y-636449500D02*
X78910000Y-621000000D01*
X328200000Y-654902900D02*
X329770000Y-643700000D01*
X621470000Y-1349823400D02*
X593740000Y-1347070000D01*
X565710000Y-405295500D02*
X571320000Y-403290000D01*
X516680000Y-1180076800D02*
X492160000Y-1170210000D01*
X63590000Y-1049636000D02*
X61550000Y-1015610000D01*
X333430000Y-1016022400D02*
X329800000Y-1007850000D01*
X379000000Y-104152200D02*
X390960000Y-101050000D01*
X660090000Y-287845500D02*
X679160000Y-285970000D01*
X656520000Y-254936900D02*
X680460000Y-252890000D01*
X194380000Y-750000000D02*
X169240000Y-740000000D01*
X250160000Y-517062900D02*
X257750000Y-493080000D01*
X334590000Y-889227400D02*
X329770000Y-856300000D01*
X441320000Y-1005979900D02*
X435920000Y-997750000D01*
X746500000Y-76617652D02*
X741112348Y-76617652D01*
X354160000Y-1205352300D02*
X347750000Y-1200730000D01*
X221760000Y-716039500D02*
X222210000Y-703300000D01*
X391870000Y-861082300D02*
X388420000Y-839230000D01*
X271900000Y-329664200D02*
X281300000Y-319070000D01*
X455260000Y-1022132000D02*
X441320000Y-1005980000D01*
X661370000Y-571815100D02*
X681230000Y-563820000D01*
X62700000Y-1333322700D02*
X56970000Y-1308310000D01*
X127410000Y-601111500D02*
X130260000Y-569570000D01*
X247290000Y-1065497900D02*
X235020000Y-1034330000D01*
X746500000Y-250399111D02*
X734910923Y-250399111D01*
X452570000Y-1291691100D02*
X437220000Y-1285890000D01*
X746500000Y-32673033D02*
X739403832Y-32673033D01*
X654900000Y-1171801200D02*
X643700000Y-1170240000D01*
X480110000Y-115371900D02*
X494850000Y-113780000D01*
X746500000Y-194375409D02*
X731775409Y-194375409D01*
X725876269Y-1400888761D02*
X713570000Y-1400800000D01*
X220590000Y-419165200D02*
X233070000Y-392030000D01*
X725606628Y-552113684D02*
X728980000Y-551430000D01*
X458700000Y-1464157000D02*
X434430000Y-1464160000D01*
X92190000Y-270276100D02*
X93560000Y-265290000D01*
X213260000Y-294410900D02*
X235120000Y-267000000D01*
X357980000Y-1248060300D02*
X335160000Y-1232060000D01*
X690570000Y-1304334800D02*
X688120000Y-1304230000D01*
X601100000Y-1372589500D02*
X569570000Y-1369740000D01*
X283600000Y-720977100D02*
X284680000Y-698720000D01*
X35840000Y-1041303200D02*
X34910000Y-1025650000D01*
X494450000Y-1359659200D02*
X477570000Y-1356130000D01*
X68860000Y-399274000D02*
X71110000Y-373770000D01*
X234920000Y-1233255100D02*
X230430000Y-1227640000D01*
X741027906Y-169183012D02*
X740985265Y-169225653D01*
X399010000Y-392479300D02*
X421920000Y-371970000D01*
X450360000Y-1436412900D02*
X442140000Y-1435340000D01*
X339320000Y-404827400D02*
X356920000Y-383500000D01*
X581330000Y-1466342400D02*
X554550000Y-1466340000D01*
X48190000Y-249315600D02*
X48190000Y-239230000D01*
X510980000Y-1414301200D02*
X503720000Y-1413950000D01*
X607990000Y-56263100D02*
X608800000Y-56260000D01*
X739403832Y-32673033D02*
X739386881Y-32689984D01*
X344240000Y-571102300D02*
X346260000Y-563610000D01*
X427990000Y-1132873800D02*
X424280000Y-1129980000D01*
X533130000Y-1311991000D02*
X522850000Y-1310210000D01*
X290360000Y-1081218400D02*
X279400000Y-1059820000D01*
X434000000Y-505874500D02*
X446300000Y-486570000D01*
X593030000Y-1266929200D02*
X588560000Y-1266240000D01*
X202400000Y-1445483200D02*
X193060000Y-1443360000D01*
X89850000Y-468134100D02*
X90010000Y-465540000D01*
X195100000Y-324223200D02*
X198800000Y-318150000D01*
X321400000Y-1176849200D02*
X301860000Y-1155340000D01*
X434430000Y-1464157000D02*
X417530000Y-1462930000D01*
X165050000Y-991362700D02*
X162630000Y-977420000D01*
X263160000Y-94515500D02*
X265290000Y-93560000D01*
X289240000Y-1000948400D02*
X282260000Y-980550000D01*
X249320000Y-1451812600D02*
X239230000Y-1451810000D01*
X733020000Y-1378252300D02*
X726550000Y-1378210000D01*
X282260000Y-519455600D02*
X289230000Y-499050000D01*
X74610000Y-355516700D02*
X76620000Y-336470000D01*
X492150000Y-329800000D02*
X516680000Y-319930000D01*
X303530000Y-464258200D02*
X318620000Y-436520000D01*
X233990000Y-326101400D02*
X242990000Y-312680000D01*
X234300000Y-1032502700D02*
X233070000Y-1028690000D01*
X512140000Y-365443500D02*
X537270000Y-355780000D01*
X716760000Y-1113488300D02*
X702470000Y-1113730000D01*
X283230000Y-738349500D02*
X283600000Y-720980000D01*
X660400000Y-147515800D02*
X678210000Y-146740000D01*
X727680000Y-1016745300D02*
X694400000Y-1011540000D01*
X255660000Y-1354584200D02*
X231400000Y-1339110000D01*
X54570000Y-768850700D02*
X54570000Y-750000000D01*
X415830000Y-1372589500D02*
X407180000Y-1370720000D01*
X208090000Y-926182400D02*
X203410000Y-894800000D01*
X154250000Y-431146400D02*
X156100000Y-422590000D01*
X601680000Y-1102522200D02*
X571320000Y-1096720000D01*
X57460000Y-568218900D02*
X57500000Y-567630000D01*
X195830000Y-188775600D02*
X219370000Y-170090000D01*
X66870000Y-411791800D02*
X68860000Y-399270000D01*
X187650000Y-197032800D02*
X195830000Y-188780000D01*
X441130000Y-1221110300D02*
X419760000Y-1210190000D01*
X164590000Y-306117800D02*
X166490000Y-302990000D01*
X741737446Y-99001175D02*
X746110000Y-98970000D01*
X419170000Y-220594700D02*
X437220000Y-214110000D01*
X746500000Y-1305394228D02*
X727984472Y-1305394228D01*
X608800000Y-1443737000D02*
X607990000Y-1443740000D01*
X452570000Y-208310900D02*
X486840000Y-198160000D01*
X265290000Y-1406438100D02*
X263170000Y-1405490000D01*
X549960000Y-912281600D02*
X537780000Y-900310000D01*
X663740000Y-171937800D02*
X674030000Y-171250000D01*
X83920000Y-1199790500D02*
X82620000Y-1189550000D01*
X188010000Y-533131400D02*
X189790000Y-522850000D01*
X594770000Y-33254400D02*
X622020000Y-33250000D01*
X335460000Y-893482900D02*
X334590000Y-889230000D01*
X59230000Y-973819100D02*
X59020000Y-971340000D01*
X728390000Y-54569800D02*
X731150000Y-54570000D01*
X313160000Y-383869400D02*
X330720000Y-361560000D01*
X197740000Y-1180091900D02*
X195400000Y-1176220000D01*
X33250000Y-877982800D02*
X32970000Y-864930000D01*
X721060000Y-1176437400D02*
X697460000Y-1175460000D01*
X458630000Y-176832600D02*
X472640000Y-172820000D01*
X419170000Y-1279408700D02*
X392030000Y-1266930000D01*
X746500000Y-1249210547D02*
X740410053Y-1249210547D01*
X113970000Y-87854100D02*
X134680000Y-73910000D01*
X719672940Y-843513598D02*
X723917015Y-843513598D01*
X172820000Y-1027357600D02*
X165790000Y-994560000D01*
X235120000Y-266997300D02*
X237200000Y-264160000D01*
X261660000Y-895415300D02*
X260370000Y-887060000D01*
X705370000Y-169890300D02*
X713560000Y-169620000D01*
X158230000Y-550236000D02*
X158780000Y-545500000D01*
X472640000Y-172815400D02*
X505440000Y-165790000D01*
X174020000Y-864832600D02*
X171940000Y-836260000D01*
X746500000Y-145133252D02*
X739956748Y-145133252D01*
X700790000Y-1423055100D02*
X677550000Y-1422560000D01*
X630570000Y-518325100D02*
X638690000Y-514830000D01*
X289890000Y-419621000D02*
X304750000Y-395480000D01*
X48190000Y-239226100D02*
X54510000Y-205220000D01*
X134720000Y-531678200D02*
X136280000Y-522380000D01*
X227790000Y-868343700D02*
X224610000Y-835780000D01*
X705020000Y-665419700D02*
X714050000Y-660240000D01*
X315950000Y-1459104300D02*
X292230000Y-1456090000D01*
X222210000Y-796695000D02*
X221760000Y-783960000D01*
X94510000Y-263166300D02*
X105020000Y-231410000D01*
X625640000Y-977665600D02*
X602110000Y-964140000D01*
X730232759Y-385849012D02*
X729909403Y-386172368D01*
X690530000Y-1445156900D02*
X688090000Y-1445160000D01*
X262600000Y-1097163900D02*
X258330000Y-1088180000D01*
X243920000Y-1188713200D02*
X232500000Y-1171750000D01*
X500060000Y-660598600D02*
X515690000Y-637290000D01*
X683960000Y-679906000D02*
X683960000Y-679910000D01*
X622820000Y-1397698800D02*
X594820000Y-1396230000D01*
X545500000Y-1341220000D02*
X522570000Y-1337370000D01*
X730830825Y-323301041D02*
X738760000Y-323090000D01*
X435400000Y-319289900D02*
X464320000Y-303510000D01*
X531680000Y-134720900D02*
X566030000Y-130730000D01*
X140340000Y-494447700D02*
X143870000Y-477570000D01*
X71110000Y-1126232100D02*
X68870000Y-1100730000D01*
X652837268Y-750183508D02*
X652790000Y-750000000D01*
X681300000Y-1006438300D02*
X660600000Y-999950000D01*
X324450000Y-1305016800D02*
X318630000Y-1301480000D01*
X564130000Y-819333000D02*
X558510000Y-805830000D01*
X455400000Y-1150781400D02*
X434350000Y-1137280000D01*
X746500000Y-323096736D02*
X731035130Y-323096736D01*
X329330000Y-1307210000D02*
X324450000Y-1305020000D01*
X300840000Y-297015600D02*
X318590000Y-281670000D01*
X479030000Y-453851000D02*
X495310000Y-440140000D01*
X198170000Y-1013159900D02*
X198070000Y-1012850000D01*
X673610000Y-1399929700D02*
X664330000Y-1399540000D01*
X82610000Y-310458600D02*
X83910000Y-300210000D01*
X577810000Y-1319334000D02*
X559500000Y-1316830000D01*
X635000000Y-910920200D02*
X623850000Y-900960000D01*
X177960000Y-596973900D02*
X180670000Y-577810000D01*
X130100000Y-404559500D02*
X138580000Y-372060000D01*
X657100000Y-1302149200D02*
X649180000Y-1301580000D01*
X621260000Y-1324555000D02*
X596970000Y-1322040000D01*
X473670000Y-1161286300D02*
X455400000Y-1150780000D01*
X746500000Y-948789956D02*
X730436444Y-948789956D01*
X230430000Y-1227638400D02*
X213900000Y-1206540000D01*
X543810000Y-310298600D02*
X550450000Y-308290000D01*
X596970000Y-1322036400D02*
X577810000Y-1319330000D01*
X301910000Y-467708700D02*
X302540000Y-466230000D01*
X631660000Y-227791200D02*
X664220000Y-224600000D01*
X208090000Y-573816500D02*
X210590000Y-560620000D01*
X116920000Y-1290494200D02*
X105010000Y-1268590000D01*
X98970000Y-753891800D02*
X98970000Y-750000000D01*
X738350000Y-1216773600D02*
X720980000Y-1216400000D01*
X418780000Y-290362500D02*
X440180000Y-279400000D01*
X451490000Y-401457000D02*
X451490000Y-401460000D01*
X66880000Y-1088206600D02*
X64660000Y-1057860000D01*
X606520000Y-1164541700D02*
X591480000Y-1161270000D01*
X622820000Y-102301500D02*
X634020000Y-101580000D01*
X257750000Y-1006926300D02*
X250160000Y-982940000D01*
X448340000Y-403783500D02*
X451490000Y-401460000D01*
X517470000Y-425893700D02*
X517470000Y-425890000D01*
X260370000Y-612946600D02*
X261650000Y-604580000D01*
X608800000Y-56263100D02*
X647950000Y-55400000D01*
X603410000Y-721563900D02*
X610510000Y-698120000D01*
X38700000Y-355152200D02*
X40900000Y-334420000D01*
X392030000Y-1266929200D02*
X387190000Y-1264630000D01*
X298070000Y-908708800D02*
X292690000Y-877590000D01*
X124300000Y-852934700D02*
X124160000Y-849280000D01*
X208310000Y-1047428700D02*
X198170000Y-1013160000D01*
X538210000Y-108730500D02*
X556040000Y-106700000D01*
X647060000Y-124294100D02*
X650720000Y-124160000D01*
X743465403Y-653800433D02*
X742715836Y-654550000D01*
X493070000Y-257751700D02*
X517060000Y-250160000D01*
X567630000Y-1442500500D02*
X528650000Y-1440980000D01*
X80650000Y-581540300D02*
X82570000Y-553230000D01*
X198070000Y-487146100D02*
X198160000Y-486840000D01*
X280710000Y-134414800D02*
X286850000Y-131110000D01*
X621890000Y-600290100D02*
X633230000Y-590090000D01*
X68870000Y-1100728500D02*
X66880000Y-1088210000D01*
X601060000Y-750000000D02*
X654800000Y-740000000D01*
X98970000Y-750000000D02*
X76660000Y-740000000D01*
X247290000Y-434498500D02*
X258310000Y-411840000D01*
X477570000Y-143871300D02*
X494450000Y-140340000D01*
X635070000Y-1467033400D02*
X622020000Y-1466750000D01*
X526180000Y-59229500D02*
X528650000Y-59020000D01*
X77440000Y-677553200D02*
X77690000Y-660750000D01*
X144730000Y-1144299700D02*
X138580000Y-1127940000D01*
X61020000Y-489347900D02*
X61550000Y-484390000D01*
X126800000Y-891953500D02*
X126760000Y-891230000D01*
X323090000Y-750000000D02*
X283230000Y-740000000D01*
X33660000Y-581327300D02*
X33660000Y-554550000D01*
X277970000Y-533036400D02*
X282260000Y-519460000D01*
X351920000Y-1160406300D02*
X333050000Y-1141020000D01*
X279400000Y-1059820400D02*
X274400000Y-1049930000D01*
X76620000Y-336473700D02*
X82610000Y-310460000D01*
X705370000Y-1330109800D02*
X674030000Y-1328750000D01*
X38700000Y-1123861600D02*
X37070000Y-1105320000D01*
X176830000Y-458635800D02*
X182320000Y-437640000D01*
X634020000Y-1398420700D02*
X622820000Y-1397700000D01*
X310460000Y-1337369500D02*
X306130000Y-1335420000D01*
X56730000Y-192753700D02*
X62130000Y-168550000D01*
X263780000Y-1262436400D02*
X262920000Y-1261640000D01*
X568050000Y-268488300D02*
X569000000Y-268290000D01*
X219370000Y-170093600D02*
X219370000Y-170090000D01*
X648490000Y-1301513100D02*
X611110000Y-1297430000D01*
X320160000Y-1381342100D02*
X296740000Y-1372590000D01*
X690570000Y-195665500D02*
X727810000Y-194430000D01*
X523920000Y-876866300D02*
X518350000Y-869460000D01*
X308110000Y-390319800D02*
X313160000Y-383870000D01*
X636450000Y-78567100D02*
X660750000Y-77690000D01*
X454130000Y-477687500D02*
X460100000Y-470530000D01*
X692120000Y-122518700D02*
X726550000Y-121790000D01*
X448860000Y-1407809700D02*
X427920000Y-1405050000D01*
X551220000Y-730440800D02*
X551400000Y-729040000D01*
X323090000Y-761245700D02*
X323090000Y-750000000D01*
X179650000Y-1144805800D02*
X169560000Y-1118100000D01*
X736845122Y-846451804D02*
X737393318Y-847000000D01*
X175450000Y-878736900D02*
X174020000Y-864830000D01*
X355150000Y-38701700D02*
X376140000Y-38700000D01*
X678210000Y-1353264300D02*
X660400000Y-1352480000D01*
X522380000Y-1363718600D02*
X494450000Y-1359660000D01*
X66920000Y-158810600D02*
X73090000Y-137250000D01*
X746500000Y-169183012D02*
X741027906Y-169183012D01*
X198160000Y-486841900D02*
X208310000Y-452570000D01*
X237200000Y-264161700D02*
X238430000Y-262840000D01*
X697220000Y-889232700D02*
X688860000Y-886210000D01*
X372060000Y-1361424100D02*
X355710000Y-1355290000D01*
X89860000Y-1031867200D02*
X86050000Y-996270000D01*
X277230000Y-1456086300D02*
X249320000Y-1451810000D01*
X443190000Y-121543800D02*
X450480000Y-120580000D01*
X713570000Y-1400798000D02*
X705420000Y-1400630000D01*
X519460000Y-1217740300D02*
X499050000Y-1210770000D01*
X347750000Y-1200730300D02*
X343810000Y-1197240000D01*
X355580000Y-1283343900D02*
X341020000Y-1275870000D01*
X386280000Y-702462400D02*
X386280000Y-736995525D01*
X705420000Y-1400626600D02*
X673610000Y-1399930000D01*
X233930000Y-912324500D02*
X233760000Y-911440000D01*
X177970000Y-903025100D02*
X175450000Y-878740000D01*
X157010000Y-153671000D02*
X172820000Y-138740000D01*
X675420000Y-1467219000D02*
X662640000Y-1467030000D01*
X591290000Y-298069900D02*
X622410000Y-292690000D01*
X386260000Y-797530600D02*
X386510000Y-783250000D01*
X734779774Y-250530260D02*
X740040000Y-250420000D01*
X371410000Y-207884700D02*
X394690000Y-197850000D01*
X101040000Y-390960100D02*
X104140000Y-379010000D01*
X423510000Y-522323600D02*
X434000000Y-505870000D01*
X88090000Y-1386119700D02*
X74370000Y-1366140000D01*
X150170000Y-1161738600D02*
X144730000Y-1144300000D01*
X100070000Y-673609600D02*
X100460000Y-664330000D01*
X134720000Y-968321000D02*
X130730000Y-933970000D01*
X102300000Y-877183500D02*
X101580000Y-865980000D01*
X677360000Y-1111646300D02*
X660770000Y-1111570000D01*
X54570000Y-771607600D02*
X54570000Y-768850000D01*
X587680000Y-233923900D02*
X588560000Y-233760000D01*
X741794648Y-98943973D02*
X741737446Y-99001175D01*
X536230000Y-1082069400D02*
X522400000Y-1076670000D01*
X507580000Y-1067328400D02*
X488640000Y-1055180000D01*
X376140000Y-1461299800D02*
X355150000Y-1461300000D01*
X268550000Y-567789000D02*
X277970000Y-533040000D01*
X193680000Y-1172417600D02*
X179650000Y-1144810000D01*
X625950000Y-1271586400D02*
X593030000Y-1266930000D01*
X224000000Y-222208100D02*
X237030000Y-211090000D01*
X145840000Y-800100100D02*
X145420000Y-780570000D01*
X612950000Y-1239632800D02*
X604580000Y-1238350000D01*
X713560000Y-1330380900D02*
X705370000Y-1330110000D01*
X243800000Y-541547200D02*
X250160000Y-517060000D01*
X330720000Y-361558900D02*
X339630000Y-351880000D01*
X558510000Y-805827500D02*
X551450000Y-771030000D01*
X723306978Y-1444870808D02*
X722787570Y-1445390216D01*
X337840000Y-1093556600D02*
X337680000Y-1093330000D01*
X329830000Y-1228222000D02*
X318290000Y-1218010000D01*
X261650000Y-604583400D02*
X268290000Y-568990000D01*
X376140000Y-38701700D02*
X394670000Y-37070000D01*
X595030000Y-1419755000D02*
X581540000Y-1419350000D01*
X494850000Y-1386219400D02*
X480110000Y-1384630000D01*
X90010000Y-1034460200D02*
X89860000Y-1031870000D01*
X197850000Y-1011938500D02*
X189790000Y-977150000D01*
X287850000Y-839913300D02*
X285980000Y-820850000D01*
X43920000Y-1222768800D02*
X43920000Y-1207770000D01*
X426220000Y-368514300D02*
X433480000Y-363430000D01*
X275270000Y-181424900D02*
X302510000Y-166810000D01*
X369020000Y-995581300D02*
X365440000Y-987860000D01*
X147520000Y-839596900D02*
X146740000Y-821790000D01*
X118670000Y-1179831100D02*
X116020000Y-1168270000D01*
X487150000Y-198069700D02*
X488050000Y-197850000D01*
X367560000Y-427453400D02*
X370970000Y-423100000D01*
X590030000Y-951851700D02*
X579340000Y-943550000D01*
X594770000Y-1466745700D02*
X581330000Y-1466340000D01*
X167000000Y-1197806400D02*
X164640000Y-1193890000D01*
X471300000Y-233070800D02*
X501870000Y-223700000D01*
X176830000Y-1041366600D02*
X172820000Y-1027360000D01*
X569000000Y-268291000D02*
X604580000Y-261650000D01*
X687290000Y-614535600D02*
X694370000Y-611900000D01*
X286850000Y-1368903000D02*
X281190000Y-1365870000D01*
X677550000Y-77443400D02*
X700790000Y-76940000D01*
X336570000Y-408337700D02*
X339320000Y-404830000D01*
X120580000Y-1049517000D02*
X115370000Y-1019890000D01*
X290640000Y-863981400D02*
X287850000Y-839910000D01*
X292230000Y-43915400D02*
X315960000Y-40900000D01*
X54840000Y-690534000D02*
X54840000Y-688090000D01*
X78910000Y-879001400D02*
X78570000Y-863550000D01*
X698830000Y-1248279500D02*
X680460000Y-1247110000D01*
X571100000Y-344242300D02*
X591490000Y-338730000D01*
X475208110Y-746503452D02*
X475208110Y-735727790D01*
X299230000Y-914291500D02*
X298070000Y-908710000D01*
X493080000Y-1242251800D02*
X482860000Y-1238960000D01*
X54570000Y-728392300D02*
X54840000Y-690530000D01*
X552340000Y-241131800D02*
X587680000Y-233920000D01*
X538210000Y-1391269700D02*
X517770000Y-1389490000D01*
X106700000Y-556044400D02*
X108730000Y-538210000D01*
X121800000Y-726545800D02*
X122520000Y-692120000D01*
X483980000Y-333434100D02*
X492150000Y-329800000D01*
X292690000Y-877590500D02*
X290640000Y-863980000D01*
X338250000Y-1349843800D02*
X310460000Y-1337370000D01*
X623140000Y-673858700D02*
X632620000Y-658620000D01*
X703210000Y-32781100D02*
X715830000Y-32690000D01*
X482770000Y-750000000D02*
X551230000Y-740000000D01*
X200650000Y-120389200D02*
X210080000Y-116590000D01*
X38700000Y-376139500D02*
X38700000Y-355150000D01*
X40900000Y-1184043700D02*
X40900000Y-1165580000D01*
X169620000Y-786443400D02*
X169150000Y-753740000D01*
X37070000Y-394674400D02*
X38700000Y-376140000D01*
X611060000Y-609244300D02*
X621890000Y-600290000D01*
X250850000Y-719751200D02*
X251720000Y-698830000D01*
X101050000Y-1109036400D02*
X95730000Y-1075700000D01*
X306130000Y-1335423600D02*
X302960000Y-1333500000D01*
X235370000Y-1112804200D02*
X233070000Y-1107960000D01*
X233760000Y-588561600D02*
X233920000Y-587680000D01*
X156100000Y-422585200D02*
X162630000Y-401630000D01*
X406580000Y-1055130200D02*
X405390000Y-1053730000D01*
X32970000Y-864932400D02*
X32970000Y-837360000D01*
X196280000Y-1245327900D02*
X181690000Y-1225070000D01*
X103770000Y-594815700D02*
X105000000Y-580810000D01*
X127410000Y-1203211100D02*
X118670000Y-1179830000D01*
X647950000Y-55400000D02*
X649760000Y-55400000D01*
X540560000Y-34198400D02*
X554550000Y-33660000D01*
X504420000Y-369021400D02*
X512140000Y-365440000D01*
X642070000Y-1243513200D02*
X612950000Y-1239630000D01*
X57500000Y-567633300D02*
X59020000Y-528650000D01*
X127410000Y-898870600D02*
X126800000Y-891950000D01*
X219750000Y-1329925900D02*
X196910000Y-1312120000D01*
X665370000Y-705413100D02*
X676750000Y-687640000D01*
X499690000Y-1465089800D02*
X474350000Y-1465090000D01*
X134180000Y-281103500D02*
X145490000Y-255540000D01*
X194430000Y-772192400D02*
X194380000Y-768230000D01*
X126400000Y-1308475300D02*
X120780000Y-1300030000D01*
X478260000Y-1116046500D02*
X459670000Y-1104410000D01*
X358930000Y-333121900D02*
X363930000Y-328580000D01*
X274400000Y-1049926600D02*
X268290000Y-1035430000D01*
X254940000Y-656524600D02*
X256490000Y-642070000D01*
X466230000Y-1197462300D02*
X464290000Y-1196490000D01*
X63590000Y-450363100D02*
X64660000Y-442140000D01*
X421920000Y-371973200D02*
X426220000Y-368510000D01*
X57500000Y-932367100D02*
X57460000Y-931780000D01*
X61550000Y-1015611200D02*
X61020000Y-1010650000D01*
X102300000Y-622817300D02*
X103770000Y-594820000D01*
X247960000Y-1298690100D02*
X239980000Y-1291290000D01*
X34910000Y-474350400D02*
X35840000Y-458700000D01*
X130110000Y-1095445500D02*
X129290000Y-1092820000D01*
X738472250Y-1216651350D02*
X738350000Y-1216773600D01*
X232500000Y-1171746300D02*
X224450000Y-1159530000D01*
X636350000Y-1350811600D02*
X621470000Y-1349820000D01*
X120580000Y-450485200D02*
X121540000Y-443190000D01*
X202790000Y-1380784800D02*
X195460000Y-1376150000D01*
X394680000Y-1302149200D02*
X371410000Y-1292120000D01*
X165040000Y-508636300D02*
X165790000Y-505440000D01*
X734107989Y-1354926607D02*
X733961868Y-1354780486D01*
X147360000Y-1041978800D02*
X143870000Y-1022430000D01*
X726837950Y-1377922050D02*
X726550000Y-1378210000D01*
X386510000Y-783246400D02*
X385850000Y-756830000D01*
X324540000Y-802536200D02*
X323560000Y-778940000D01*
X153370000Y-1342731800D02*
X139020000Y-1327530000D01*
X76660000Y-758922600D02*
X76660000Y-750000000D01*
X325810000Y-681889400D02*
X328200000Y-654900000D01*
X40900000Y-1165581400D02*
X38700000Y-1144850000D01*
X267790000Y-1164617500D02*
X252810000Y-1143380000D01*
X505440000Y-165785100D02*
X508640000Y-165040000D01*
X126760000Y-608767800D02*
X126800000Y-608050000D01*
X99200000Y-786430400D02*
X98970000Y-753890000D01*
X294750000Y-354081300D02*
X299840000Y-347050000D01*
X283230000Y-761650200D02*
X283230000Y-750000000D01*
X590570000Y-867428000D02*
X583840000Y-856440000D01*
X533040000Y-277968300D02*
X567790000Y-268550000D01*
X637770000Y-984618800D02*
X631240000Y-981830000D01*
X580810000Y-104997600D02*
X594820000Y-103770000D01*
X611110000Y-1297428800D02*
X605210000Y-1296590000D01*
X638920000Y-391872500D02*
X660770000Y-388420000D01*
X129280000Y-407180100D02*
X130100000Y-404560000D01*
X234300000Y-467495200D02*
X235020000Y-465670000D01*
X522570000Y-1337369500D02*
X508640000Y-1334960000D01*
X688090000Y-54843200D02*
X690530000Y-54840000D01*
X344970000Y-301607900D02*
X346060000Y-300640000D01*
X604580000Y-1238347300D02*
X568990000Y-1231710000D01*
X623320000Y-523758300D02*
X630570000Y-518330000D01*
X719750000Y-1249154400D02*
X698830000Y-1248280000D01*
X121540000Y-443191800D02*
X127410000Y-415830000D01*
X746500000Y-1216651350D02*
X738472250Y-1216651350D01*
X169240000Y-740000000D02*
X169620000Y-713560000D01*
X489350000Y-1438978300D02*
X484390000Y-1438450000D01*
X558420000Y-694390200D02*
X562970000Y-683010000D01*
X492160000Y-1170208500D02*
X483980000Y-1166570000D01*
X728044207Y-1467672196D02*
X727682053Y-1467310042D01*
X283600000Y-779023500D02*
X283230000Y-761650000D01*
X731687481Y-1176722478D02*
X721060000Y-1176440000D01*
X274400000Y-450069500D02*
X278900000Y-441110000D01*
X191670000Y-56970200D02*
X202400000Y-54510000D01*
X237760000Y-1116855600D02*
X235370000Y-1112800000D01*
X356920000Y-383497300D02*
X371120000Y-368630000D01*
X45240000Y-75240000D02*
X18297415Y-75240000D01*
X618910000Y-819886300D02*
X615040000Y-813720000D01*
X483280000Y-772338100D02*
X482770000Y-750000000D01*
X556040000Y-1393296700D02*
X538210000Y-1391270000D01*
X639830000Y-650714900D02*
X659170000Y-632190000D01*
X388420000Y-839226900D02*
X388340000Y-822650000D01*
X74370000Y-1366142600D02*
X67560000Y-1342940000D01*
X568990000Y-1231709000D02*
X568050000Y-1231510000D01*
X437220000Y-1285891000D02*
X419170000Y-1279410000D01*
X660770000Y-388419200D02*
X677350000Y-388340000D01*
X54500000Y-1294767600D02*
X48190000Y-1260770000D01*
X284680000Y-801275300D02*
X283600000Y-779020000D01*
X161790000Y-230067700D02*
X163310000Y-227670000D01*
X121750000Y-733022900D02*
X121800000Y-726550000D01*
X660600000Y-999945100D02*
X637770000Y-984620000D01*
X560620000Y-210590500D02*
X573820000Y-208090000D01*
X262590000Y-402828100D02*
X268540000Y-392710000D01*
X171940000Y-663737400D02*
X174020000Y-635170000D01*
X124160000Y-849279600D02*
X122640000Y-813430000D01*
X533290000Y-419291600D02*
X554110000Y-409170000D01*
X721060000Y-323561100D02*
X730830825Y-323301041D01*
X224600000Y-664219900D02*
X227790000Y-631660000D01*
X397470000Y-898325800D02*
X393530000Y-882620000D01*
X393530000Y-882619000D02*
X391870000Y-861080000D01*
X372460000Y-1078781500D02*
X369390000Y-1075010000D01*
X334420000Y-40897800D02*
X355150000Y-38700000D01*
X694370000Y-611902400D02*
X720110000Y-603670000D01*
X150180000Y-621472400D02*
X152940000Y-593740000D01*
X677350000Y-388342100D02*
X702470000Y-386260000D01*
X605210000Y-1296593900D02*
X573820000Y-1291910000D01*
X265690000Y-1263842700D02*
X263780000Y-1262440000D01*
X638920000Y-1108117300D02*
X617370000Y-1106460000D01*
X124290000Y-647064500D02*
X126760000Y-608770000D01*
X145420000Y-780572400D02*
X145140000Y-760050000D01*
X508640000Y-1334956200D02*
X505440000Y-1334220000D01*
X482860000Y-261045500D02*
X493070000Y-257750000D01*
X127410000Y-415829800D02*
X129280000Y-407180000D01*
X77690000Y-660755000D02*
X78570000Y-636450000D01*
X727810000Y-194431000D02*
X731770000Y-194370000D01*
X396440000Y-1195870200D02*
X390600000Y-1192080000D01*
X181690000Y-1225073600D02*
X167000000Y-1197810000D01*
X254150000Y-299141800D02*
X261060000Y-290330000D01*
X662640000Y-32966700D02*
X675420000Y-32780000D01*
X86050000Y-996274900D02*
X85700000Y-989020000D01*
X409330000Y-1307764200D02*
X403870000Y-1306040000D01*
X362370000Y-434925600D02*
X367560000Y-427450000D01*
X550450000Y-1191716600D02*
X543810000Y-1189710000D01*
X622410000Y-292688100D02*
X636020000Y-290640000D01*
X82570000Y-553232200D02*
X82990000Y-542430000D01*
X486840000Y-198163300D02*
X487150000Y-198070000D01*
X411790000Y-1433127300D02*
X399270000Y-1431140000D01*
X567820000Y-303511100D02*
X585710000Y-299230000D01*
X247220000Y-201619400D02*
X254950000Y-196030000D01*
X514400000Y-1465801600D02*
X499690000Y-1465090000D01*
X387190000Y-1264632800D02*
X383750000Y-1262610000D01*
X337680000Y-1093325000D02*
X319290000Y-1064600000D01*
X120780000Y-1300027300D02*
X116920000Y-1290490000D01*
X467700000Y-301923500D02*
X499050000Y-289240000D01*
X437640000Y-182320500D02*
X458630000Y-176830000D01*
X716510000Y-840440700D02*
X716600042Y-840440700D01*
X731488983Y-283376147D02*
X738350000Y-283230000D01*
X643700000Y-1170235700D02*
X610770000Y-1165410000D01*
X726550000Y-1378205100D02*
X692120000Y-1377480000D01*
X746500000Y-385849012D02*
X730232759Y-385849012D01*
X283230000Y-750000000D02*
X250420000Y-740000000D01*
X183170000Y-559505200D02*
X188010000Y-533130000D01*
X289230000Y-499049700D02*
X301910000Y-467710000D01*
X147520000Y-660402100D02*
X149190000Y-636350000D01*
X32970000Y-837359300D02*
X32780000Y-824580000D01*
X411790000Y-66874600D02*
X442140000Y-64660000D01*
X64660000Y-442144300D02*
X66870000Y-411790000D01*
X336570000Y-408337700D02*
X336570000Y-408340000D01*
X681240000Y-493662200D02*
X694420000Y-488500000D01*
X385850000Y-756833000D02*
X385850000Y-750000000D01*
X588290000Y-549390000D02*
X600090000Y-537450000D01*
X686570000Y-122640300D02*
X692120000Y-122520000D01*
X338930000Y-473286200D02*
X349490000Y-454920000D01*
X473710000Y-338731300D02*
X483980000Y-333430000D01*
X733645742Y-846451804D02*
X736845122Y-846451804D01*
X407180000Y-1370716000D02*
X404560000Y-1369900000D01*
X663050000Y-929137100D02*
X642180000Y-915310000D01*
X688860000Y-886210200D02*
X675870000Y-878070000D01*
X319790000Y-197811600D02*
X323780000Y-195400000D01*
X171970000Y-1282886700D02*
X165540000Y-1275670000D01*
X436810000Y-1181551200D02*
X411120000Y-1165320000D01*
X296740000Y-1372589500D02*
X286850000Y-1368900000D01*
X166490000Y-302989600D02*
X180950000Y-275930000D01*
X634020000Y-101579500D02*
X664330000Y-100460000D01*
X254940000Y-843476900D02*
X252890000Y-819530000D01*
X435920000Y-997748100D02*
X426180000Y-982700000D01*
X658390000Y-867211300D02*
X650460000Y-859970000D01*
X690530000Y-54843200D02*
X728390000Y-54570000D01*
X241130000Y-947661000D02*
X233930000Y-912320000D01*
X389320000Y-308917100D02*
X397680000Y-303420000D01*
X541550000Y-243798900D02*
X552340000Y-241130000D01*
X59230000Y-526181300D02*
X61020000Y-489350000D01*
X78570000Y-863551000D02*
X77690000Y-839240000D01*
X741800000Y-899056400D02*
X721810000Y-896650000D01*
X719430000Y-1354582900D02*
X699900000Y-1354160000D01*
X272910000Y-1171651100D02*
X267790000Y-1164620000D01*
X633230000Y-590088800D02*
X644030000Y-583530000D01*
X338730000Y-591486600D02*
X344240000Y-571100000D01*
X694160000Y-558487000D02*
X725606628Y-552113684D01*
X542430000Y-82993100D02*
X553230000Y-82570000D01*
X593740000Y-152934600D02*
X621470000Y-150180000D01*
X33660000Y-554547700D02*
X34200000Y-540560000D01*
X250420000Y-750000000D02*
X221300000Y-740000000D01*
X188010000Y-966869600D02*
X183170000Y-940490000D01*
X145420000Y-719428000D02*
X145840000Y-699900000D01*
X285980000Y-679155300D02*
X287850000Y-660090000D01*
X393210000Y-268264200D02*
X402830000Y-262600000D01*
X34200000Y-540558400D02*
X34200000Y-514400000D01*
X357040000Y-252532700D02*
X383350000Y-237630000D01*
X35840000Y-1065571700D02*
X35840000Y-1041300000D01*
X43920000Y-1207772800D02*
X40900000Y-1184040000D01*
X585710000Y-299230300D02*
X591290000Y-298070000D01*
X551230000Y-740000000D02*
X551220000Y-730440000D01*
X477570000Y-1356129800D02*
X458020000Y-1352640000D01*
X621000000Y-1421089300D02*
X595030000Y-1419760000D01*
X205220000Y-1445483200D02*
X202400000Y-1445480000D01*
X622410000Y-1207313400D02*
X591290000Y-1201930000D01*
X175480000Y-1363267400D02*
X158790000Y-1348100000D01*
X300200000Y-1416085500D02*
X270280000Y-1407810000D01*
X606520000Y-335459500D02*
X610770000Y-334590000D01*
X610770000Y-334592200D02*
X643700000Y-329760000D01*
X192240000Y-1090674400D02*
X182320000Y-1062360000D01*
X233920000Y-587677100D02*
X241130000Y-552340000D01*
X517770000Y-1389488500D02*
X494850000Y-1386220000D01*
X431150000Y-1345748900D02*
X422590000Y-1343890000D01*
X555930000Y-579907100D02*
X573060000Y-561300000D01*
X64660000Y-1057857000D02*
X63590000Y-1049640000D01*
X121750000Y-766977300D02*
X121750000Y-750000000D01*
X136280000Y-977617500D02*
X134720000Y-968320000D01*
X54510000Y-202400700D02*
X56730000Y-192750000D01*
X636020000Y-290636600D02*
X660090000Y-287850000D01*
X679160000Y-1214025500D02*
X660090000Y-1212160000D01*
X106710000Y-943954900D02*
X105000000Y-919190000D01*
X545500000Y-158780300D02*
X550240000Y-158230000D01*
X355710000Y-1355293700D02*
X338250000Y-1349840000D01*
X172810000Y-472640900D02*
X176830000Y-458640000D01*
X214120000Y-1062779400D02*
X208310000Y-1047430000D01*
X704840000Y-834212100D02*
X687300000Y-823010000D01*
X180670000Y-577807200D02*
X183170000Y-559510000D01*
X268290000Y-1035431800D02*
X261050000Y-1017140000D01*
X303510000Y-567808900D02*
X308280000Y-550450000D01*
X431140000Y-154254300D02*
X458020000Y-147360000D01*
X548100000Y-590040100D02*
X555930000Y-579910000D01*
X688120000Y-195771600D02*
X690570000Y-195670000D01*
X403270000Y-571326100D02*
X405290000Y-565710000D01*
X472640000Y-1327185700D02*
X458640000Y-1323170000D01*
X612260000Y-806320700D02*
X603710000Y-779870000D01*
X729060000Y-948615000D02*
X694470000Y-941600000D01*
X591490000Y-338731300D02*
X606520000Y-335460000D01*
X664220000Y-1275397300D02*
X631660000Y-1272210000D01*
X465670000Y-235021200D02*
X467500000Y-234300000D01*
X379010000Y-1395855300D02*
X354940000Y-1391240000D01*
X396042621Y-746758146D02*
X396042621Y-750018019D01*
X739950000Y-1354863100D02*
X733961868Y-1354780486D01*
X156110000Y-1077412000D02*
X154260000Y-1068860000D01*
X355190000Y-179652300D02*
X381900000Y-169550000D01*
X551400000Y-729042200D02*
X558420000Y-694390000D01*
X517060000Y-250157100D02*
X541550000Y-243800000D01*
X121800000Y-773453900D02*
X121750000Y-766980000D01*
X573820000Y-208086500D02*
X605200000Y-203410000D01*
X650720000Y-124159400D02*
X686570000Y-122640000D01*
X115370000Y-1019892800D02*
X113780000Y-1005150000D01*
X110510000Y-517773300D02*
X113780000Y-494850000D01*
X740982188Y-601017812D02*
X740930000Y-601070000D01*
X585710000Y-1200771500D02*
X567810000Y-1196490000D01*
X303510000Y-1035681600D02*
X302540000Y-1033760000D01*
X434430000Y-35843400D02*
X458700000Y-35840000D01*
X302160000Y-1204095900D02*
X297360000Y-1199510000D01*
X608770000Y-126762500D02*
X647060000Y-124290000D01*
X659170000Y-632189200D02*
X680810000Y-618560000D01*
X235370000Y-387193200D02*
X237400000Y-383730000D01*
X262920000Y-1261639100D02*
X258270000Y-1256800000D01*
X718370000Y-76816600D02*
X741080000Y-76650000D01*
X664220000Y-224603400D02*
X674360000Y-223880000D01*
X593740000Y-1347065900D02*
X583150000Y-1346110000D01*
X460100000Y-470529000D02*
X479030000Y-453850000D01*
X233070000Y-471294400D02*
X234300000Y-467500000D01*
X514360000Y-220687500D02*
X537370000Y-215070000D01*
X719430000Y-145417000D02*
X739950000Y-145140000D01*
X450490000Y-1379419200D02*
X443190000Y-1378460000D01*
X470930000Y-1040206300D02*
X455260000Y-1022130000D01*
X318620000Y-436523100D02*
X334030000Y-412240000D01*
X121750000Y-750000000D02*
X99010000Y-740000000D01*
X406860000Y-1162278400D02*
X383520000Y-1143130000D01*
X517770000Y-110511800D02*
X538210000Y-108730000D01*
X355780000Y-537272400D02*
X364980000Y-512940000D01*
X393540000Y-617371600D02*
X397480000Y-601680000D01*
X583150000Y-1346109300D02*
X550240000Y-1341770000D01*
X171250000Y-674032700D02*
X171940000Y-663740000D01*
X76950000Y-799214200D02*
X76820000Y-781630000D01*
X731770000Y-1305625600D02*
X727810000Y-1305570000D01*
X601540000Y-879567400D02*
X590570000Y-867430000D01*
X256490000Y-857924000D02*
X254940000Y-843480000D01*
X662640000Y-1467033400D02*
X635070000Y-1467030000D01*
X649180000Y-198420000D02*
X657110000Y-197850000D01*
X38700000Y-1144846700D02*
X38700000Y-1123860000D01*
X692120000Y-1377481400D02*
X686570000Y-1377360000D01*
X451490000Y-401457000D02*
X475300000Y-385820000D01*
X235020000Y-1034329500D02*
X234300000Y-1032500000D01*
X394670000Y-1462929700D02*
X376140000Y-1461300000D01*
X347850000Y-299341900D02*
X373230000Y-280530000D01*
X162630000Y-401631500D02*
X166840000Y-388290000D01*
X137520000Y-1427082600D02*
X117510000Y-1414170000D01*
X488050000Y-1302149200D02*
X487150000Y-1301930000D01*
X723917015Y-843513598D02*
X726136993Y-845733576D01*
X33250000Y-905225500D02*
X33250000Y-877980000D01*
X302540000Y-1033764700D02*
X301920000Y-1032300000D01*
X726136993Y-845733576D02*
X732927514Y-845733576D01*
X493570000Y-681296800D02*
X493570000Y-681300000D01*
X32970000Y-662640800D02*
X32970000Y-635070000D01*
X604580000Y-261654100D02*
X612950000Y-260370000D01*
X518370000Y-631057200D02*
X522260000Y-625840000D01*
X404560000Y-1369899700D02*
X372060000Y-1361420000D01*
X130730000Y-566033100D02*
X134720000Y-531680000D01*
X408900000Y-1163880400D02*
X406860000Y-1162280000D01*
X384520000Y-477358200D02*
X396200000Y-459070000D01*
X145140000Y-760047100D02*
X145140000Y-750000000D01*
X385850000Y-750000000D02*
X323090000Y-740000000D01*
X249320000Y-48185800D02*
X277230000Y-43920000D01*
X37070000Y-1082466700D02*
X35840000Y-1065570000D01*
X503720000Y-1413948300D02*
X468130000Y-1410150000D01*
X550240000Y-158229100D02*
X583150000Y-153890000D01*
X48190000Y-1250683500D02*
X43920000Y-1222770000D01*
X302960000Y-1333495500D02*
X276060000Y-1319120000D01*
X56260000Y-892009800D02*
X56260000Y-891200000D01*
X108760000Y-354935300D02*
X116000000Y-331740000D01*
X252010000Y-357880400D02*
X268150000Y-334850000D01*
X297360000Y-1199512600D02*
X284190000Y-1184310000D01*
X257750000Y-493076200D02*
X261040000Y-482860000D01*
X688120000Y-1304228800D02*
X657100000Y-1302150000D01*
X146740000Y-821788600D02*
X145840000Y-800100000D01*
X325810000Y-818110200D02*
X324540000Y-802540000D01*
X383520000Y-1143127400D02*
X369870000Y-1130200000D01*
X393030000Y-1231656800D02*
X374610000Y-1220400000D01*
X333050000Y-1141024200D02*
X329120000Y-1136720000D01*
X270290000Y-92190300D02*
X300210000Y-83920000D01*
X134410000Y-1219293500D02*
X131110000Y-1213140000D01*
X363930000Y-328576300D02*
X376370000Y-318900000D01*
X742715836Y-654550000D02*
X738870000Y-654550000D01*
X495310000Y-440137200D02*
X503960000Y-434550000D01*
X110510000Y-982225900D02*
X108730000Y-961790000D01*
X615040000Y-813719600D02*
X612260000Y-806320000D01*
X381900000Y-169554400D02*
X388300000Y-166850000D01*
X704840000Y-834210000D02*
X716510000Y-840440700D01*
X277230000Y-43915400D02*
X292230000Y-43920000D01*
X225060000Y-165020600D02*
X228740000Y-162660000D01*
%TD*%
M02*
