%TF.GenerationSoftware,KiCad,Pcbnew,7.0.1-3b83917a11~172~ubuntu22.04.1*%
%TF.CreationDate,2023-12-10T16:36:40-05:00*%
%TF.ProjectId,coil_template_second,636f696c-5f74-4656-9d70-6c6174655f73,rev?*%
%TF.SameCoordinates,Original*%
%TF.FileFunction,Legend,Top*%
%TF.FilePolarity,Positive*%
%FSLAX46Y46*%
G04 Gerber Fmt 4.6, Leading zero omitted, Abs format (unit mm)*
G04 Created by KiCad (PCBNEW 7.0.1-3b83917a11~172~ubuntu22.04.1) date 2023-12-10 16:36:40*
%MOMM*%
%LPD*%
G01*
G04 APERTURE LIST*
%ADD10C,2.000000*%
%ADD11C,0.150000*%
%ADD12C,0.120000*%
G04 APERTURE END LIST*
D10*
X586004363Y-1138500048D02*
X601242459Y-1138500048D01*
X610766268Y-1138500048D02*
X626004364Y-1138500048D01*
X635528173Y-1132785762D02*
X650766269Y-1138500048D01*
X650766269Y-1138500048D02*
X635528173Y-1144214334D01*
X557619047Y-1470747619D02*
X553809523Y-1470747619D01*
X553809523Y-1470747619D02*
X551904761Y-1469795238D01*
X551904761Y-1469795238D02*
X549999999Y-1467890476D01*
X549999999Y-1467890476D02*
X549047618Y-1464080952D01*
X549047618Y-1464080952D02*
X549047618Y-1457414285D01*
X549047618Y-1457414285D02*
X549999999Y-1453604761D01*
X549999999Y-1453604761D02*
X551904761Y-1451700000D01*
X551904761Y-1451700000D02*
X553809523Y-1450747619D01*
X553809523Y-1450747619D02*
X557619047Y-1450747619D01*
X557619047Y-1450747619D02*
X559523809Y-1451700000D01*
X559523809Y-1451700000D02*
X561428571Y-1453604761D01*
X561428571Y-1453604761D02*
X562380952Y-1457414285D01*
X562380952Y-1457414285D02*
X562380952Y-1464080952D01*
X562380952Y-1464080952D02*
X561428571Y-1467890476D01*
X561428571Y-1467890476D02*
X559523809Y-1469795238D01*
X559523809Y-1469795238D02*
X557619047Y-1470747619D01*
X540476190Y-1450747619D02*
X540476190Y-1470747619D01*
X540476190Y-1470747619D02*
X532857142Y-1470747619D01*
X532857142Y-1470747619D02*
X530952380Y-1469795238D01*
X530952380Y-1469795238D02*
X529999999Y-1468842857D01*
X529999999Y-1468842857D02*
X529047618Y-1466938095D01*
X529047618Y-1466938095D02*
X529047618Y-1464080952D01*
X529047618Y-1464080952D02*
X529999999Y-1462176190D01*
X529999999Y-1462176190D02*
X530952380Y-1461223809D01*
X530952380Y-1461223809D02*
X532857142Y-1460271428D01*
X532857142Y-1460271428D02*
X540476190Y-1460271428D01*
X520476190Y-1450747619D02*
X520476190Y-1470747619D01*
X520476190Y-1470747619D02*
X513809523Y-1456461904D01*
X513809523Y-1456461904D02*
X507142856Y-1470747619D01*
X507142856Y-1470747619D02*
X507142856Y-1450747619D01*
X497619047Y-1458366666D02*
X482380952Y-1458366666D01*
X472857142Y-1450747619D02*
X472857142Y-1470747619D01*
X472857142Y-1470747619D02*
X466190475Y-1456461904D01*
X466190475Y-1456461904D02*
X459523808Y-1470747619D01*
X459523808Y-1470747619D02*
X459523808Y-1450747619D01*
X449999999Y-1461223809D02*
X443333332Y-1461223809D01*
X440476189Y-1450747619D02*
X449999999Y-1450747619D01*
X449999999Y-1450747619D02*
X449999999Y-1470747619D01*
X449999999Y-1470747619D02*
X440476189Y-1470747619D01*
X421428570Y-1469795238D02*
X423333332Y-1470747619D01*
X423333332Y-1470747619D02*
X426190475Y-1470747619D01*
X426190475Y-1470747619D02*
X429047618Y-1469795238D01*
X429047618Y-1469795238D02*
X430952380Y-1467890476D01*
X430952380Y-1467890476D02*
X431904761Y-1465985714D01*
X431904761Y-1465985714D02*
X432857142Y-1462176190D01*
X432857142Y-1462176190D02*
X432857142Y-1459319047D01*
X432857142Y-1459319047D02*
X431904761Y-1455509523D01*
X431904761Y-1455509523D02*
X430952380Y-1453604761D01*
X430952380Y-1453604761D02*
X429047618Y-1451700000D01*
X429047618Y-1451700000D02*
X426190475Y-1450747619D01*
X426190475Y-1450747619D02*
X424285713Y-1450747619D01*
X424285713Y-1450747619D02*
X421428570Y-1451700000D01*
X421428570Y-1451700000D02*
X420476189Y-1452652380D01*
X420476189Y-1452652380D02*
X420476189Y-1459319047D01*
X420476189Y-1459319047D02*
X424285713Y-1459319047D01*
X384285713Y-1460271428D02*
X385238094Y-1461223809D01*
X385238094Y-1461223809D02*
X387142856Y-1462176190D01*
X387142856Y-1462176190D02*
X389047618Y-1462176190D01*
X389047618Y-1462176190D02*
X390952380Y-1461223809D01*
X390952380Y-1461223809D02*
X391904761Y-1460271428D01*
X391904761Y-1460271428D02*
X392857142Y-1458366666D01*
X392857142Y-1458366666D02*
X392857142Y-1456461904D01*
X392857142Y-1456461904D02*
X391904761Y-1454557142D01*
X391904761Y-1454557142D02*
X390952380Y-1453604761D01*
X390952380Y-1453604761D02*
X389047618Y-1452652380D01*
X389047618Y-1452652380D02*
X387142856Y-1452652380D01*
X387142856Y-1452652380D02*
X385238094Y-1453604761D01*
X385238094Y-1453604761D02*
X384285713Y-1454557142D01*
X384285713Y-1462176190D02*
X384285713Y-1454557142D01*
X384285713Y-1454557142D02*
X383333332Y-1453604761D01*
X383333332Y-1453604761D02*
X382380951Y-1453604761D01*
X382380951Y-1453604761D02*
X380476190Y-1454557142D01*
X380476190Y-1454557142D02*
X379523809Y-1456461904D01*
X379523809Y-1456461904D02*
X379523809Y-1461223809D01*
X379523809Y-1461223809D02*
X381428571Y-1464080952D01*
X381428571Y-1464080952D02*
X384285713Y-1465985714D01*
X384285713Y-1465985714D02*
X388095237Y-1466938095D01*
X388095237Y-1466938095D02*
X391904761Y-1465985714D01*
X391904761Y-1465985714D02*
X394761904Y-1464080952D01*
X394761904Y-1464080952D02*
X396666666Y-1461223809D01*
X396666666Y-1461223809D02*
X397619047Y-1457414285D01*
X397619047Y-1457414285D02*
X396666666Y-1453604761D01*
X396666666Y-1453604761D02*
X394761904Y-1450747619D01*
X394761904Y-1450747619D02*
X391904761Y-1448842857D01*
X391904761Y-1448842857D02*
X388095237Y-1447890476D01*
X388095237Y-1447890476D02*
X384285713Y-1448842857D01*
X384285713Y-1448842857D02*
X381428571Y-1450747619D01*
X355714285Y-1450747619D02*
X355714285Y-1470747619D01*
X355714285Y-1470747619D02*
X349047618Y-1456461904D01*
X349047618Y-1456461904D02*
X342380951Y-1470747619D01*
X342380951Y-1470747619D02*
X342380951Y-1450747619D01*
X324285713Y-1450747619D02*
X324285713Y-1461223809D01*
X324285713Y-1461223809D02*
X325238094Y-1463128571D01*
X325238094Y-1463128571D02*
X327142856Y-1464080952D01*
X327142856Y-1464080952D02*
X330952380Y-1464080952D01*
X330952380Y-1464080952D02*
X332857142Y-1463128571D01*
X324285713Y-1451700000D02*
X326190475Y-1450747619D01*
X326190475Y-1450747619D02*
X330952380Y-1450747619D01*
X330952380Y-1450747619D02*
X332857142Y-1451700000D01*
X332857142Y-1451700000D02*
X333809523Y-1453604761D01*
X333809523Y-1453604761D02*
X333809523Y-1455509523D01*
X333809523Y-1455509523D02*
X332857142Y-1457414285D01*
X332857142Y-1457414285D02*
X330952380Y-1458366666D01*
X330952380Y-1458366666D02*
X326190475Y-1458366666D01*
X326190475Y-1458366666D02*
X324285713Y-1459319047D01*
X314761904Y-1450747619D02*
X314761904Y-1464080952D01*
X314761904Y-1460271428D02*
X313809523Y-1462176190D01*
X313809523Y-1462176190D02*
X312857142Y-1463128571D01*
X312857142Y-1463128571D02*
X310952380Y-1464080952D01*
X310952380Y-1464080952D02*
X309047618Y-1464080952D01*
X305238095Y-1464080952D02*
X297619047Y-1464080952D01*
X302380952Y-1470747619D02*
X302380952Y-1453604761D01*
X302380952Y-1453604761D02*
X301428571Y-1451700000D01*
X301428571Y-1451700000D02*
X299523809Y-1450747619D01*
X299523809Y-1450747619D02*
X297619047Y-1450747619D01*
X290952381Y-1450747619D02*
X290952381Y-1464080952D01*
X290952381Y-1470747619D02*
X291904762Y-1469795238D01*
X291904762Y-1469795238D02*
X290952381Y-1468842857D01*
X290952381Y-1468842857D02*
X290000000Y-1469795238D01*
X290000000Y-1469795238D02*
X290952381Y-1470747619D01*
X290952381Y-1470747619D02*
X290952381Y-1468842857D01*
X281428571Y-1464080952D02*
X281428571Y-1450747619D01*
X281428571Y-1462176190D02*
X280476190Y-1463128571D01*
X280476190Y-1463128571D02*
X278571428Y-1464080952D01*
X278571428Y-1464080952D02*
X275714285Y-1464080952D01*
X275714285Y-1464080952D02*
X273809523Y-1463128571D01*
X273809523Y-1463128571D02*
X272857142Y-1461223809D01*
X272857142Y-1461223809D02*
X272857142Y-1450747619D01*
X260476190Y-1450747619D02*
X262380952Y-1451700000D01*
X262380952Y-1451700000D02*
X263333333Y-1452652380D01*
X263333333Y-1452652380D02*
X264285714Y-1454557142D01*
X264285714Y-1454557142D02*
X264285714Y-1460271428D01*
X264285714Y-1460271428D02*
X263333333Y-1462176190D01*
X263333333Y-1462176190D02*
X262380952Y-1463128571D01*
X262380952Y-1463128571D02*
X260476190Y-1464080952D01*
X260476190Y-1464080952D02*
X257619047Y-1464080952D01*
X257619047Y-1464080952D02*
X255714285Y-1463128571D01*
X255714285Y-1463128571D02*
X254761904Y-1462176190D01*
X254761904Y-1462176190D02*
X253809523Y-1460271428D01*
X253809523Y-1460271428D02*
X253809523Y-1454557142D01*
X253809523Y-1454557142D02*
X254761904Y-1452652380D01*
X254761904Y-1452652380D02*
X255714285Y-1451700000D01*
X255714285Y-1451700000D02*
X257619047Y-1450747619D01*
X257619047Y-1450747619D02*
X260476190Y-1450747619D01*
X246190476Y-1451700000D02*
X244285714Y-1450747619D01*
X244285714Y-1450747619D02*
X240476190Y-1450747619D01*
X240476190Y-1450747619D02*
X238571428Y-1451700000D01*
X238571428Y-1451700000D02*
X237619047Y-1453604761D01*
X237619047Y-1453604761D02*
X237619047Y-1454557142D01*
X237619047Y-1454557142D02*
X238571428Y-1456461904D01*
X238571428Y-1456461904D02*
X240476190Y-1457414285D01*
X240476190Y-1457414285D02*
X243333333Y-1457414285D01*
X243333333Y-1457414285D02*
X245238095Y-1458366666D01*
X245238095Y-1458366666D02*
X246190476Y-1460271428D01*
X246190476Y-1460271428D02*
X246190476Y-1461223809D01*
X246190476Y-1461223809D02*
X245238095Y-1463128571D01*
X245238095Y-1463128571D02*
X243333333Y-1464080952D01*
X243333333Y-1464080952D02*
X240476190Y-1464080952D01*
X240476190Y-1464080952D02*
X238571428Y-1463128571D01*
X557619047Y-40747619D02*
X553809523Y-40747619D01*
X553809523Y-40747619D02*
X551904761Y-39795238D01*
X551904761Y-39795238D02*
X549999999Y-37890476D01*
X549999999Y-37890476D02*
X549047618Y-34080952D01*
X549047618Y-34080952D02*
X549047618Y-27414285D01*
X549047618Y-27414285D02*
X549999999Y-23604761D01*
X549999999Y-23604761D02*
X551904761Y-21700000D01*
X551904761Y-21700000D02*
X553809523Y-20747619D01*
X553809523Y-20747619D02*
X557619047Y-20747619D01*
X557619047Y-20747619D02*
X559523809Y-21700000D01*
X559523809Y-21700000D02*
X561428571Y-23604761D01*
X561428571Y-23604761D02*
X562380952Y-27414285D01*
X562380952Y-27414285D02*
X562380952Y-34080952D01*
X562380952Y-34080952D02*
X561428571Y-37890476D01*
X561428571Y-37890476D02*
X559523809Y-39795238D01*
X559523809Y-39795238D02*
X557619047Y-40747619D01*
X540476190Y-20747619D02*
X540476190Y-40747619D01*
X540476190Y-40747619D02*
X532857142Y-40747619D01*
X532857142Y-40747619D02*
X530952380Y-39795238D01*
X530952380Y-39795238D02*
X529999999Y-38842857D01*
X529999999Y-38842857D02*
X529047618Y-36938095D01*
X529047618Y-36938095D02*
X529047618Y-34080952D01*
X529047618Y-34080952D02*
X529999999Y-32176190D01*
X529999999Y-32176190D02*
X530952380Y-31223809D01*
X530952380Y-31223809D02*
X532857142Y-30271428D01*
X532857142Y-30271428D02*
X540476190Y-30271428D01*
X520476190Y-20747619D02*
X520476190Y-40747619D01*
X520476190Y-40747619D02*
X513809523Y-26461904D01*
X513809523Y-26461904D02*
X507142856Y-40747619D01*
X507142856Y-40747619D02*
X507142856Y-20747619D01*
X497619047Y-28366666D02*
X482380952Y-28366666D01*
X472857142Y-20747619D02*
X472857142Y-40747619D01*
X472857142Y-40747619D02*
X466190475Y-26461904D01*
X466190475Y-26461904D02*
X459523808Y-40747619D01*
X459523808Y-40747619D02*
X459523808Y-20747619D01*
X449999999Y-31223809D02*
X443333332Y-31223809D01*
X440476189Y-20747619D02*
X449999999Y-20747619D01*
X449999999Y-20747619D02*
X449999999Y-40747619D01*
X449999999Y-40747619D02*
X440476189Y-40747619D01*
X421428570Y-39795238D02*
X423333332Y-40747619D01*
X423333332Y-40747619D02*
X426190475Y-40747619D01*
X426190475Y-40747619D02*
X429047618Y-39795238D01*
X429047618Y-39795238D02*
X430952380Y-37890476D01*
X430952380Y-37890476D02*
X431904761Y-35985714D01*
X431904761Y-35985714D02*
X432857142Y-32176190D01*
X432857142Y-32176190D02*
X432857142Y-29319047D01*
X432857142Y-29319047D02*
X431904761Y-25509523D01*
X431904761Y-25509523D02*
X430952380Y-23604761D01*
X430952380Y-23604761D02*
X429047618Y-21700000D01*
X429047618Y-21700000D02*
X426190475Y-20747619D01*
X426190475Y-20747619D02*
X424285713Y-20747619D01*
X424285713Y-20747619D02*
X421428570Y-21700000D01*
X421428570Y-21700000D02*
X420476189Y-22652380D01*
X420476189Y-22652380D02*
X420476189Y-29319047D01*
X420476189Y-29319047D02*
X424285713Y-29319047D01*
X384285713Y-30271428D02*
X385238094Y-31223809D01*
X385238094Y-31223809D02*
X387142856Y-32176190D01*
X387142856Y-32176190D02*
X389047618Y-32176190D01*
X389047618Y-32176190D02*
X390952380Y-31223809D01*
X390952380Y-31223809D02*
X391904761Y-30271428D01*
X391904761Y-30271428D02*
X392857142Y-28366666D01*
X392857142Y-28366666D02*
X392857142Y-26461904D01*
X392857142Y-26461904D02*
X391904761Y-24557142D01*
X391904761Y-24557142D02*
X390952380Y-23604761D01*
X390952380Y-23604761D02*
X389047618Y-22652380D01*
X389047618Y-22652380D02*
X387142856Y-22652380D01*
X387142856Y-22652380D02*
X385238094Y-23604761D01*
X385238094Y-23604761D02*
X384285713Y-24557142D01*
X384285713Y-32176190D02*
X384285713Y-24557142D01*
X384285713Y-24557142D02*
X383333332Y-23604761D01*
X383333332Y-23604761D02*
X382380951Y-23604761D01*
X382380951Y-23604761D02*
X380476190Y-24557142D01*
X380476190Y-24557142D02*
X379523809Y-26461904D01*
X379523809Y-26461904D02*
X379523809Y-31223809D01*
X379523809Y-31223809D02*
X381428571Y-34080952D01*
X381428571Y-34080952D02*
X384285713Y-35985714D01*
X384285713Y-35985714D02*
X388095237Y-36938095D01*
X388095237Y-36938095D02*
X391904761Y-35985714D01*
X391904761Y-35985714D02*
X394761904Y-34080952D01*
X394761904Y-34080952D02*
X396666666Y-31223809D01*
X396666666Y-31223809D02*
X397619047Y-27414285D01*
X397619047Y-27414285D02*
X396666666Y-23604761D01*
X396666666Y-23604761D02*
X394761904Y-20747619D01*
X394761904Y-20747619D02*
X391904761Y-18842857D01*
X391904761Y-18842857D02*
X388095237Y-17890476D01*
X388095237Y-17890476D02*
X384285713Y-18842857D01*
X384285713Y-18842857D02*
X381428571Y-20747619D01*
X355714285Y-20747619D02*
X355714285Y-40747619D01*
X355714285Y-40747619D02*
X349047618Y-26461904D01*
X349047618Y-26461904D02*
X342380951Y-40747619D01*
X342380951Y-40747619D02*
X342380951Y-20747619D01*
X324285713Y-20747619D02*
X324285713Y-31223809D01*
X324285713Y-31223809D02*
X325238094Y-33128571D01*
X325238094Y-33128571D02*
X327142856Y-34080952D01*
X327142856Y-34080952D02*
X330952380Y-34080952D01*
X330952380Y-34080952D02*
X332857142Y-33128571D01*
X324285713Y-21700000D02*
X326190475Y-20747619D01*
X326190475Y-20747619D02*
X330952380Y-20747619D01*
X330952380Y-20747619D02*
X332857142Y-21700000D01*
X332857142Y-21700000D02*
X333809523Y-23604761D01*
X333809523Y-23604761D02*
X333809523Y-25509523D01*
X333809523Y-25509523D02*
X332857142Y-27414285D01*
X332857142Y-27414285D02*
X330952380Y-28366666D01*
X330952380Y-28366666D02*
X326190475Y-28366666D01*
X326190475Y-28366666D02*
X324285713Y-29319047D01*
X314761904Y-20747619D02*
X314761904Y-34080952D01*
X314761904Y-30271428D02*
X313809523Y-32176190D01*
X313809523Y-32176190D02*
X312857142Y-33128571D01*
X312857142Y-33128571D02*
X310952380Y-34080952D01*
X310952380Y-34080952D02*
X309047618Y-34080952D01*
X305238095Y-34080952D02*
X297619047Y-34080952D01*
X302380952Y-40747619D02*
X302380952Y-23604761D01*
X302380952Y-23604761D02*
X301428571Y-21700000D01*
X301428571Y-21700000D02*
X299523809Y-20747619D01*
X299523809Y-20747619D02*
X297619047Y-20747619D01*
X290952381Y-20747619D02*
X290952381Y-34080952D01*
X290952381Y-40747619D02*
X291904762Y-39795238D01*
X291904762Y-39795238D02*
X290952381Y-38842857D01*
X290952381Y-38842857D02*
X290000000Y-39795238D01*
X290000000Y-39795238D02*
X290952381Y-40747619D01*
X290952381Y-40747619D02*
X290952381Y-38842857D01*
X281428571Y-34080952D02*
X281428571Y-20747619D01*
X281428571Y-32176190D02*
X280476190Y-33128571D01*
X280476190Y-33128571D02*
X278571428Y-34080952D01*
X278571428Y-34080952D02*
X275714285Y-34080952D01*
X275714285Y-34080952D02*
X273809523Y-33128571D01*
X273809523Y-33128571D02*
X272857142Y-31223809D01*
X272857142Y-31223809D02*
X272857142Y-20747619D01*
X260476190Y-20747619D02*
X262380952Y-21700000D01*
X262380952Y-21700000D02*
X263333333Y-22652380D01*
X263333333Y-22652380D02*
X264285714Y-24557142D01*
X264285714Y-24557142D02*
X264285714Y-30271428D01*
X264285714Y-30271428D02*
X263333333Y-32176190D01*
X263333333Y-32176190D02*
X262380952Y-33128571D01*
X262380952Y-33128571D02*
X260476190Y-34080952D01*
X260476190Y-34080952D02*
X257619047Y-34080952D01*
X257619047Y-34080952D02*
X255714285Y-33128571D01*
X255714285Y-33128571D02*
X254761904Y-32176190D01*
X254761904Y-32176190D02*
X253809523Y-30271428D01*
X253809523Y-30271428D02*
X253809523Y-24557142D01*
X253809523Y-24557142D02*
X254761904Y-22652380D01*
X254761904Y-22652380D02*
X255714285Y-21700000D01*
X255714285Y-21700000D02*
X257619047Y-20747619D01*
X257619047Y-20747619D02*
X260476190Y-20747619D01*
X246190476Y-21700000D02*
X244285714Y-20747619D01*
X244285714Y-20747619D02*
X240476190Y-20747619D01*
X240476190Y-20747619D02*
X238571428Y-21700000D01*
X238571428Y-21700000D02*
X237619047Y-23604761D01*
X237619047Y-23604761D02*
X237619047Y-24557142D01*
X237619047Y-24557142D02*
X238571428Y-26461904D01*
X238571428Y-26461904D02*
X240476190Y-27414285D01*
X240476190Y-27414285D02*
X243333333Y-27414285D01*
X243333333Y-27414285D02*
X245238095Y-28366666D01*
X245238095Y-28366666D02*
X246190476Y-30271428D01*
X246190476Y-30271428D02*
X246190476Y-31223809D01*
X246190476Y-31223809D02*
X245238095Y-33128571D01*
X245238095Y-33128571D02*
X243333333Y-34080952D01*
X243333333Y-34080952D02*
X240476190Y-34080952D01*
X240476190Y-34080952D02*
X238571428Y-33128571D01*
X17284077Y-918644629D02*
X17284077Y-914835105D01*
X17284077Y-914835105D02*
X18236458Y-912930343D01*
X18236458Y-912930343D02*
X20141220Y-911025581D01*
X20141220Y-911025581D02*
X23950744Y-910073200D01*
X23950744Y-910073200D02*
X30617411Y-910073200D01*
X30617411Y-910073200D02*
X34426935Y-911025581D01*
X34426935Y-911025581D02*
X36331697Y-912930343D01*
X36331697Y-912930343D02*
X37284077Y-914835105D01*
X37284077Y-914835105D02*
X37284077Y-918644629D01*
X37284077Y-918644629D02*
X36331697Y-920549391D01*
X36331697Y-920549391D02*
X34426935Y-922454153D01*
X34426935Y-922454153D02*
X30617411Y-923406534D01*
X30617411Y-923406534D02*
X23950744Y-923406534D01*
X23950744Y-923406534D02*
X20141220Y-922454153D01*
X20141220Y-922454153D02*
X18236458Y-920549391D01*
X18236458Y-920549391D02*
X17284077Y-918644629D01*
X37284077Y-901501772D02*
X17284077Y-901501772D01*
X17284077Y-901501772D02*
X17284077Y-893882724D01*
X17284077Y-893882724D02*
X18236458Y-891977962D01*
X18236458Y-891977962D02*
X19188839Y-891025581D01*
X19188839Y-891025581D02*
X21093601Y-890073200D01*
X21093601Y-890073200D02*
X23950744Y-890073200D01*
X23950744Y-890073200D02*
X25855506Y-891025581D01*
X25855506Y-891025581D02*
X26807887Y-891977962D01*
X26807887Y-891977962D02*
X27760268Y-893882724D01*
X27760268Y-893882724D02*
X27760268Y-901501772D01*
X37284077Y-881501772D02*
X17284077Y-881501772D01*
X17284077Y-881501772D02*
X31569792Y-874835105D01*
X31569792Y-874835105D02*
X17284077Y-868168438D01*
X17284077Y-868168438D02*
X37284077Y-868168438D01*
X29665030Y-858644629D02*
X29665030Y-843406534D01*
X37284077Y-833882724D02*
X17284077Y-833882724D01*
X17284077Y-833882724D02*
X31569792Y-827216057D01*
X31569792Y-827216057D02*
X17284077Y-820549390D01*
X17284077Y-820549390D02*
X37284077Y-820549390D01*
X26807887Y-811025581D02*
X26807887Y-804358914D01*
X37284077Y-801501771D02*
X37284077Y-811025581D01*
X37284077Y-811025581D02*
X17284077Y-811025581D01*
X17284077Y-811025581D02*
X17284077Y-801501771D01*
X18236458Y-782454152D02*
X17284077Y-784358914D01*
X17284077Y-784358914D02*
X17284077Y-787216057D01*
X17284077Y-787216057D02*
X18236458Y-790073200D01*
X18236458Y-790073200D02*
X20141220Y-791977962D01*
X20141220Y-791977962D02*
X22045982Y-792930343D01*
X22045982Y-792930343D02*
X25855506Y-793882724D01*
X25855506Y-793882724D02*
X28712649Y-793882724D01*
X28712649Y-793882724D02*
X32522173Y-792930343D01*
X32522173Y-792930343D02*
X34426935Y-791977962D01*
X34426935Y-791977962D02*
X36331697Y-790073200D01*
X36331697Y-790073200D02*
X37284077Y-787216057D01*
X37284077Y-787216057D02*
X37284077Y-785311295D01*
X37284077Y-785311295D02*
X36331697Y-782454152D01*
X36331697Y-782454152D02*
X35379316Y-781501771D01*
X35379316Y-781501771D02*
X28712649Y-781501771D01*
X28712649Y-781501771D02*
X28712649Y-785311295D01*
X27760268Y-745311295D02*
X26807887Y-746263676D01*
X26807887Y-746263676D02*
X25855506Y-748168438D01*
X25855506Y-748168438D02*
X25855506Y-750073200D01*
X25855506Y-750073200D02*
X26807887Y-751977962D01*
X26807887Y-751977962D02*
X27760268Y-752930343D01*
X27760268Y-752930343D02*
X29665030Y-753882724D01*
X29665030Y-753882724D02*
X31569792Y-753882724D01*
X31569792Y-753882724D02*
X33474554Y-752930343D01*
X33474554Y-752930343D02*
X34426935Y-751977962D01*
X34426935Y-751977962D02*
X35379316Y-750073200D01*
X35379316Y-750073200D02*
X35379316Y-748168438D01*
X35379316Y-748168438D02*
X34426935Y-746263676D01*
X34426935Y-746263676D02*
X33474554Y-745311295D01*
X25855506Y-745311295D02*
X33474554Y-745311295D01*
X33474554Y-745311295D02*
X34426935Y-744358914D01*
X34426935Y-744358914D02*
X34426935Y-743406533D01*
X34426935Y-743406533D02*
X33474554Y-741501772D01*
X33474554Y-741501772D02*
X31569792Y-740549391D01*
X31569792Y-740549391D02*
X26807887Y-740549391D01*
X26807887Y-740549391D02*
X23950744Y-742454153D01*
X23950744Y-742454153D02*
X22045982Y-745311295D01*
X22045982Y-745311295D02*
X21093601Y-749120819D01*
X21093601Y-749120819D02*
X22045982Y-752930343D01*
X22045982Y-752930343D02*
X23950744Y-755787486D01*
X23950744Y-755787486D02*
X26807887Y-757692248D01*
X26807887Y-757692248D02*
X30617411Y-758644629D01*
X30617411Y-758644629D02*
X34426935Y-757692248D01*
X34426935Y-757692248D02*
X37284077Y-755787486D01*
X37284077Y-755787486D02*
X39188839Y-752930343D01*
X39188839Y-752930343D02*
X40141220Y-749120819D01*
X40141220Y-749120819D02*
X39188839Y-745311295D01*
X39188839Y-745311295D02*
X37284077Y-742454153D01*
X37284077Y-716739867D02*
X17284077Y-716739867D01*
X17284077Y-716739867D02*
X31569792Y-710073200D01*
X31569792Y-710073200D02*
X17284077Y-703406533D01*
X17284077Y-703406533D02*
X37284077Y-703406533D01*
X37284077Y-685311295D02*
X26807887Y-685311295D01*
X26807887Y-685311295D02*
X24903125Y-686263676D01*
X24903125Y-686263676D02*
X23950744Y-688168438D01*
X23950744Y-688168438D02*
X23950744Y-691977962D01*
X23950744Y-691977962D02*
X24903125Y-693882724D01*
X36331697Y-685311295D02*
X37284077Y-687216057D01*
X37284077Y-687216057D02*
X37284077Y-691977962D01*
X37284077Y-691977962D02*
X36331697Y-693882724D01*
X36331697Y-693882724D02*
X34426935Y-694835105D01*
X34426935Y-694835105D02*
X32522173Y-694835105D01*
X32522173Y-694835105D02*
X30617411Y-693882724D01*
X30617411Y-693882724D02*
X29665030Y-691977962D01*
X29665030Y-691977962D02*
X29665030Y-687216057D01*
X29665030Y-687216057D02*
X28712649Y-685311295D01*
X37284077Y-675787486D02*
X23950744Y-675787486D01*
X27760268Y-675787486D02*
X25855506Y-674835105D01*
X25855506Y-674835105D02*
X24903125Y-673882724D01*
X24903125Y-673882724D02*
X23950744Y-671977962D01*
X23950744Y-671977962D02*
X23950744Y-670073200D01*
X23950744Y-666263677D02*
X23950744Y-658644629D01*
X17284077Y-663406534D02*
X34426935Y-663406534D01*
X34426935Y-663406534D02*
X36331697Y-662454153D01*
X36331697Y-662454153D02*
X37284077Y-660549391D01*
X37284077Y-660549391D02*
X37284077Y-658644629D01*
X37284077Y-651977963D02*
X23950744Y-651977963D01*
X17284077Y-651977963D02*
X18236458Y-652930344D01*
X18236458Y-652930344D02*
X19188839Y-651977963D01*
X19188839Y-651977963D02*
X18236458Y-651025582D01*
X18236458Y-651025582D02*
X17284077Y-651977963D01*
X17284077Y-651977963D02*
X19188839Y-651977963D01*
X23950744Y-642454153D02*
X37284077Y-642454153D01*
X25855506Y-642454153D02*
X24903125Y-641501772D01*
X24903125Y-641501772D02*
X23950744Y-639597010D01*
X23950744Y-639597010D02*
X23950744Y-636739867D01*
X23950744Y-636739867D02*
X24903125Y-634835105D01*
X24903125Y-634835105D02*
X26807887Y-633882724D01*
X26807887Y-633882724D02*
X37284077Y-633882724D01*
X37284077Y-621501772D02*
X36331697Y-623406534D01*
X36331697Y-623406534D02*
X35379316Y-624358915D01*
X35379316Y-624358915D02*
X33474554Y-625311296D01*
X33474554Y-625311296D02*
X27760268Y-625311296D01*
X27760268Y-625311296D02*
X25855506Y-624358915D01*
X25855506Y-624358915D02*
X24903125Y-623406534D01*
X24903125Y-623406534D02*
X23950744Y-621501772D01*
X23950744Y-621501772D02*
X23950744Y-618644629D01*
X23950744Y-618644629D02*
X24903125Y-616739867D01*
X24903125Y-616739867D02*
X25855506Y-615787486D01*
X25855506Y-615787486D02*
X27760268Y-614835105D01*
X27760268Y-614835105D02*
X33474554Y-614835105D01*
X33474554Y-614835105D02*
X35379316Y-615787486D01*
X35379316Y-615787486D02*
X36331697Y-616739867D01*
X36331697Y-616739867D02*
X37284077Y-618644629D01*
X37284077Y-618644629D02*
X37284077Y-621501772D01*
X36331697Y-607216058D02*
X37284077Y-605311296D01*
X37284077Y-605311296D02*
X37284077Y-601501772D01*
X37284077Y-601501772D02*
X36331697Y-599597010D01*
X36331697Y-599597010D02*
X34426935Y-598644629D01*
X34426935Y-598644629D02*
X33474554Y-598644629D01*
X33474554Y-598644629D02*
X31569792Y-599597010D01*
X31569792Y-599597010D02*
X30617411Y-601501772D01*
X30617411Y-601501772D02*
X30617411Y-604358915D01*
X30617411Y-604358915D02*
X29665030Y-606263677D01*
X29665030Y-606263677D02*
X27760268Y-607216058D01*
X27760268Y-607216058D02*
X26807887Y-607216058D01*
X26807887Y-607216058D02*
X24903125Y-606263677D01*
X24903125Y-606263677D02*
X23950744Y-604358915D01*
X23950744Y-604358915D02*
X23950744Y-601501772D01*
X23950744Y-601501772D02*
X24903125Y-599597010D01*
X516768272Y-778135665D02*
X516768272Y-762897570D01*
X516768272Y-753373760D02*
X516768272Y-738135665D01*
X511053986Y-728611855D02*
X516768272Y-713373760D01*
X516768272Y-713373760D02*
X522482558Y-728611855D01*
X649867441Y-362765241D02*
X634629346Y-362765241D01*
X625105536Y-362765241D02*
X609867441Y-362765241D01*
X600343631Y-368479527D02*
X585105536Y-362765241D01*
X585105536Y-362765241D02*
X600343631Y-357050955D01*
D11*
%TO.C,J22*%
X745690476Y-1109745804D02*
X745690476Y-1110460089D01*
X745690476Y-1110460089D02*
X745642857Y-1110602946D01*
X745642857Y-1110602946D02*
X745547619Y-1110698185D01*
X745547619Y-1110698185D02*
X745404762Y-1110745804D01*
X745404762Y-1110745804D02*
X745309524Y-1110745804D01*
X746119048Y-1109841042D02*
X746166667Y-1109793423D01*
X746166667Y-1109793423D02*
X746261905Y-1109745804D01*
X746261905Y-1109745804D02*
X746500000Y-1109745804D01*
X746500000Y-1109745804D02*
X746595238Y-1109793423D01*
X746595238Y-1109793423D02*
X746642857Y-1109841042D01*
X746642857Y-1109841042D02*
X746690476Y-1109936280D01*
X746690476Y-1109936280D02*
X746690476Y-1110031518D01*
X746690476Y-1110031518D02*
X746642857Y-1110174375D01*
X746642857Y-1110174375D02*
X746071429Y-1110745804D01*
X746071429Y-1110745804D02*
X746690476Y-1110745804D01*
X747071429Y-1109841042D02*
X747119048Y-1109793423D01*
X747119048Y-1109793423D02*
X747214286Y-1109745804D01*
X747214286Y-1109745804D02*
X747452381Y-1109745804D01*
X747452381Y-1109745804D02*
X747547619Y-1109793423D01*
X747547619Y-1109793423D02*
X747595238Y-1109841042D01*
X747595238Y-1109841042D02*
X747642857Y-1109936280D01*
X747642857Y-1109936280D02*
X747642857Y-1110031518D01*
X747642857Y-1110031518D02*
X747595238Y-1110174375D01*
X747595238Y-1110174375D02*
X747023810Y-1110745804D01*
X747023810Y-1110745804D02*
X747642857Y-1110745804D01*
%TO.C,J1*%
X38462619Y-60588333D02*
X39176904Y-60588333D01*
X39176904Y-60588333D02*
X39319761Y-60635952D01*
X39319761Y-60635952D02*
X39415000Y-60731190D01*
X39415000Y-60731190D02*
X39462619Y-60874047D01*
X39462619Y-60874047D02*
X39462619Y-60969285D01*
X39462619Y-59588333D02*
X39462619Y-60159761D01*
X39462619Y-59874047D02*
X38462619Y-59874047D01*
X38462619Y-59874047D02*
X38605476Y-59969285D01*
X38605476Y-59969285D02*
X38700714Y-60064523D01*
X38700714Y-60064523D02*
X38748333Y-60159761D01*
%TO.C,J34*%
X745690476Y-1463324815D02*
X745690476Y-1464039100D01*
X745690476Y-1464039100D02*
X745642857Y-1464181957D01*
X745642857Y-1464181957D02*
X745547619Y-1464277196D01*
X745547619Y-1464277196D02*
X745404762Y-1464324815D01*
X745404762Y-1464324815D02*
X745309524Y-1464324815D01*
X746071429Y-1463324815D02*
X746690476Y-1463324815D01*
X746690476Y-1463324815D02*
X746357143Y-1463705767D01*
X746357143Y-1463705767D02*
X746500000Y-1463705767D01*
X746500000Y-1463705767D02*
X746595238Y-1463753386D01*
X746595238Y-1463753386D02*
X746642857Y-1463801005D01*
X746642857Y-1463801005D02*
X746690476Y-1463896243D01*
X746690476Y-1463896243D02*
X746690476Y-1464134338D01*
X746690476Y-1464134338D02*
X746642857Y-1464229576D01*
X746642857Y-1464229576D02*
X746595238Y-1464277196D01*
X746595238Y-1464277196D02*
X746500000Y-1464324815D01*
X746500000Y-1464324815D02*
X746214286Y-1464324815D01*
X746214286Y-1464324815D02*
X746119048Y-1464277196D01*
X746119048Y-1464277196D02*
X746071429Y-1464229576D01*
X747547619Y-1463658148D02*
X747547619Y-1464324815D01*
X747309524Y-1463277196D02*
X747071429Y-1463991481D01*
X747071429Y-1463991481D02*
X747690476Y-1463991481D01*
%TO.C,J11*%
X745690476Y-278841042D02*
X745690476Y-279555327D01*
X745690476Y-279555327D02*
X745642857Y-279698184D01*
X745642857Y-279698184D02*
X745547619Y-279793423D01*
X745547619Y-279793423D02*
X745404762Y-279841042D01*
X745404762Y-279841042D02*
X745309524Y-279841042D01*
X746690476Y-279841042D02*
X746119048Y-279841042D01*
X746404762Y-279841042D02*
X746404762Y-278841042D01*
X746404762Y-278841042D02*
X746309524Y-278983899D01*
X746309524Y-278983899D02*
X746214286Y-279079137D01*
X746214286Y-279079137D02*
X746119048Y-279126756D01*
X747642857Y-279841042D02*
X747071429Y-279841042D01*
X747357143Y-279841042D02*
X747357143Y-278841042D01*
X747357143Y-278841042D02*
X747261905Y-278983899D01*
X747261905Y-278983899D02*
X747166667Y-279079137D01*
X747166667Y-279079137D02*
X747071429Y-279126756D01*
%TO.C,J1*%
X746166666Y-28325652D02*
X746166666Y-29039937D01*
X746166666Y-29039937D02*
X746119047Y-29182794D01*
X746119047Y-29182794D02*
X746023809Y-29278033D01*
X746023809Y-29278033D02*
X745880952Y-29325652D01*
X745880952Y-29325652D02*
X745785714Y-29325652D01*
X747166666Y-29325652D02*
X746595238Y-29325652D01*
X746880952Y-29325652D02*
X746880952Y-28325652D01*
X746880952Y-28325652D02*
X746785714Y-28468509D01*
X746785714Y-28468509D02*
X746690476Y-28563747D01*
X746690476Y-28563747D02*
X746595238Y-28611366D01*
%TO.C,J31*%
X745690476Y-1396861193D02*
X745690476Y-1397575478D01*
X745690476Y-1397575478D02*
X745642857Y-1397718335D01*
X745642857Y-1397718335D02*
X745547619Y-1397813574D01*
X745547619Y-1397813574D02*
X745404762Y-1397861193D01*
X745404762Y-1397861193D02*
X745309524Y-1397861193D01*
X746071429Y-1396861193D02*
X746690476Y-1396861193D01*
X746690476Y-1396861193D02*
X746357143Y-1397242145D01*
X746357143Y-1397242145D02*
X746500000Y-1397242145D01*
X746500000Y-1397242145D02*
X746595238Y-1397289764D01*
X746595238Y-1397289764D02*
X746642857Y-1397337383D01*
X746642857Y-1397337383D02*
X746690476Y-1397432621D01*
X746690476Y-1397432621D02*
X746690476Y-1397670716D01*
X746690476Y-1397670716D02*
X746642857Y-1397765954D01*
X746642857Y-1397765954D02*
X746595238Y-1397813574D01*
X746595238Y-1397813574D02*
X746500000Y-1397861193D01*
X746500000Y-1397861193D02*
X746214286Y-1397861193D01*
X746214286Y-1397861193D02*
X746119048Y-1397813574D01*
X746119048Y-1397813574D02*
X746071429Y-1397765954D01*
X747642857Y-1397861193D02*
X747071429Y-1397861193D01*
X747357143Y-1397861193D02*
X747357143Y-1396861193D01*
X747357143Y-1396861193D02*
X747261905Y-1397004050D01*
X747261905Y-1397004050D02*
X747166667Y-1397099288D01*
X747166667Y-1397099288D02*
X747071429Y-1397146907D01*
%TO.C,J7*%
X745910737Y-164896666D02*
X745910737Y-165610951D01*
X745910737Y-165610951D02*
X745863118Y-165753808D01*
X745863118Y-165753808D02*
X745767880Y-165849047D01*
X745767880Y-165849047D02*
X745625023Y-165896666D01*
X745625023Y-165896666D02*
X745529785Y-165896666D01*
X746291690Y-164896666D02*
X746958356Y-164896666D01*
X746958356Y-164896666D02*
X746529785Y-165896666D01*
%TO.C,J23*%
X745690476Y-1172531058D02*
X745690476Y-1173245343D01*
X745690476Y-1173245343D02*
X745642857Y-1173388200D01*
X745642857Y-1173388200D02*
X745547619Y-1173483439D01*
X745547619Y-1173483439D02*
X745404762Y-1173531058D01*
X745404762Y-1173531058D02*
X745309524Y-1173531058D01*
X746119048Y-1172626296D02*
X746166667Y-1172578677D01*
X746166667Y-1172578677D02*
X746261905Y-1172531058D01*
X746261905Y-1172531058D02*
X746500000Y-1172531058D01*
X746500000Y-1172531058D02*
X746595238Y-1172578677D01*
X746595238Y-1172578677D02*
X746642857Y-1172626296D01*
X746642857Y-1172626296D02*
X746690476Y-1172721534D01*
X746690476Y-1172721534D02*
X746690476Y-1172816772D01*
X746690476Y-1172816772D02*
X746642857Y-1172959629D01*
X746642857Y-1172959629D02*
X746071429Y-1173531058D01*
X746071429Y-1173531058D02*
X746690476Y-1173531058D01*
X747023810Y-1172531058D02*
X747642857Y-1172531058D01*
X747642857Y-1172531058D02*
X747309524Y-1172912010D01*
X747309524Y-1172912010D02*
X747452381Y-1172912010D01*
X747452381Y-1172912010D02*
X747547619Y-1172959629D01*
X747547619Y-1172959629D02*
X747595238Y-1173007248D01*
X747595238Y-1173007248D02*
X747642857Y-1173102486D01*
X747642857Y-1173102486D02*
X747642857Y-1173340581D01*
X747642857Y-1173340581D02*
X747595238Y-1173435819D01*
X747595238Y-1173435819D02*
X747547619Y-1173483439D01*
X747547619Y-1173483439D02*
X747452381Y-1173531058D01*
X747452381Y-1173531058D02*
X747166667Y-1173531058D01*
X747166667Y-1173531058D02*
X747071429Y-1173483439D01*
X747071429Y-1173483439D02*
X747023810Y-1173435819D01*
%TO.C,J29*%
X745690476Y-1350579226D02*
X745690476Y-1351293511D01*
X745690476Y-1351293511D02*
X745642857Y-1351436368D01*
X745642857Y-1351436368D02*
X745547619Y-1351531607D01*
X745547619Y-1351531607D02*
X745404762Y-1351579226D01*
X745404762Y-1351579226D02*
X745309524Y-1351579226D01*
X746119048Y-1350674464D02*
X746166667Y-1350626845D01*
X746166667Y-1350626845D02*
X746261905Y-1350579226D01*
X746261905Y-1350579226D02*
X746500000Y-1350579226D01*
X746500000Y-1350579226D02*
X746595238Y-1350626845D01*
X746595238Y-1350626845D02*
X746642857Y-1350674464D01*
X746642857Y-1350674464D02*
X746690476Y-1350769702D01*
X746690476Y-1350769702D02*
X746690476Y-1350864940D01*
X746690476Y-1350864940D02*
X746642857Y-1351007797D01*
X746642857Y-1351007797D02*
X746071429Y-1351579226D01*
X746071429Y-1351579226D02*
X746690476Y-1351579226D01*
X747166667Y-1351579226D02*
X747357143Y-1351579226D01*
X747357143Y-1351579226D02*
X747452381Y-1351531607D01*
X747452381Y-1351531607D02*
X747500000Y-1351483987D01*
X747500000Y-1351483987D02*
X747595238Y-1351341130D01*
X747595238Y-1351341130D02*
X747642857Y-1351150654D01*
X747642857Y-1351150654D02*
X747642857Y-1350769702D01*
X747642857Y-1350769702D02*
X747595238Y-1350674464D01*
X747595238Y-1350674464D02*
X747547619Y-1350626845D01*
X747547619Y-1350626845D02*
X747452381Y-1350579226D01*
X747452381Y-1350579226D02*
X747261905Y-1350579226D01*
X747261905Y-1350579226D02*
X747166667Y-1350626845D01*
X747166667Y-1350626845D02*
X747119048Y-1350674464D01*
X747119048Y-1350674464D02*
X747071429Y-1350769702D01*
X747071429Y-1350769702D02*
X747071429Y-1351007797D01*
X747071429Y-1351007797D02*
X747119048Y-1351103035D01*
X747119048Y-1351103035D02*
X747166667Y-1351150654D01*
X747166667Y-1351150654D02*
X747261905Y-1351198273D01*
X747261905Y-1351198273D02*
X747452381Y-1351198273D01*
X747452381Y-1351198273D02*
X747547619Y-1351150654D01*
X747547619Y-1351150654D02*
X747595238Y-1351103035D01*
X747595238Y-1351103035D02*
X747642857Y-1351007797D01*
%TO.C,J28*%
X745690476Y-1327292701D02*
X745690476Y-1328006986D01*
X745690476Y-1328006986D02*
X745642857Y-1328149843D01*
X745642857Y-1328149843D02*
X745547619Y-1328245082D01*
X745547619Y-1328245082D02*
X745404762Y-1328292701D01*
X745404762Y-1328292701D02*
X745309524Y-1328292701D01*
X746119048Y-1327387939D02*
X746166667Y-1327340320D01*
X746166667Y-1327340320D02*
X746261905Y-1327292701D01*
X746261905Y-1327292701D02*
X746500000Y-1327292701D01*
X746500000Y-1327292701D02*
X746595238Y-1327340320D01*
X746595238Y-1327340320D02*
X746642857Y-1327387939D01*
X746642857Y-1327387939D02*
X746690476Y-1327483177D01*
X746690476Y-1327483177D02*
X746690476Y-1327578415D01*
X746690476Y-1327578415D02*
X746642857Y-1327721272D01*
X746642857Y-1327721272D02*
X746071429Y-1328292701D01*
X746071429Y-1328292701D02*
X746690476Y-1328292701D01*
X747261905Y-1327721272D02*
X747166667Y-1327673653D01*
X747166667Y-1327673653D02*
X747119048Y-1327626034D01*
X747119048Y-1327626034D02*
X747071429Y-1327530796D01*
X747071429Y-1327530796D02*
X747071429Y-1327483177D01*
X747071429Y-1327483177D02*
X747119048Y-1327387939D01*
X747119048Y-1327387939D02*
X747166667Y-1327340320D01*
X747166667Y-1327340320D02*
X747261905Y-1327292701D01*
X747261905Y-1327292701D02*
X747452381Y-1327292701D01*
X747452381Y-1327292701D02*
X747547619Y-1327340320D01*
X747547619Y-1327340320D02*
X747595238Y-1327387939D01*
X747595238Y-1327387939D02*
X747642857Y-1327483177D01*
X747642857Y-1327483177D02*
X747642857Y-1327530796D01*
X747642857Y-1327530796D02*
X747595238Y-1327626034D01*
X747595238Y-1327626034D02*
X747547619Y-1327673653D01*
X747547619Y-1327673653D02*
X747452381Y-1327721272D01*
X747452381Y-1327721272D02*
X747261905Y-1327721272D01*
X747261905Y-1327721272D02*
X747166667Y-1327768891D01*
X747166667Y-1327768891D02*
X747119048Y-1327816510D01*
X747119048Y-1327816510D02*
X747071429Y-1327911748D01*
X747071429Y-1327911748D02*
X747071429Y-1328102224D01*
X747071429Y-1328102224D02*
X747119048Y-1328197462D01*
X747119048Y-1328197462D02*
X747166667Y-1328245082D01*
X747166667Y-1328245082D02*
X747261905Y-1328292701D01*
X747261905Y-1328292701D02*
X747452381Y-1328292701D01*
X747452381Y-1328292701D02*
X747547619Y-1328245082D01*
X747547619Y-1328245082D02*
X747595238Y-1328197462D01*
X747595238Y-1328197462D02*
X747642857Y-1328102224D01*
X747642857Y-1328102224D02*
X747642857Y-1327911748D01*
X747642857Y-1327911748D02*
X747595238Y-1327816510D01*
X747595238Y-1327816510D02*
X747547619Y-1327768891D01*
X747547619Y-1327768891D02*
X747452381Y-1327721272D01*
%TO.C,J14*%
X745690476Y-478461274D02*
X745690476Y-479175559D01*
X745690476Y-479175559D02*
X745642857Y-479318416D01*
X745642857Y-479318416D02*
X745547619Y-479413655D01*
X745547619Y-479413655D02*
X745404762Y-479461274D01*
X745404762Y-479461274D02*
X745309524Y-479461274D01*
X746690476Y-479461274D02*
X746119048Y-479461274D01*
X746404762Y-479461274D02*
X746404762Y-478461274D01*
X746404762Y-478461274D02*
X746309524Y-478604131D01*
X746309524Y-478604131D02*
X746214286Y-478699369D01*
X746214286Y-478699369D02*
X746119048Y-478746988D01*
X747547619Y-478794607D02*
X747547619Y-479461274D01*
X747309524Y-478413655D02*
X747071429Y-479127940D01*
X747071429Y-479127940D02*
X747690476Y-479127940D01*
%TO.C,J17*%
X745690476Y-649453052D02*
X745690476Y-650167337D01*
X745690476Y-650167337D02*
X745642857Y-650310194D01*
X745642857Y-650310194D02*
X745547619Y-650405433D01*
X745547619Y-650405433D02*
X745404762Y-650453052D01*
X745404762Y-650453052D02*
X745309524Y-650453052D01*
X746690476Y-650453052D02*
X746119048Y-650453052D01*
X746404762Y-650453052D02*
X746404762Y-649453052D01*
X746404762Y-649453052D02*
X746309524Y-649595909D01*
X746309524Y-649595909D02*
X746214286Y-649691147D01*
X746214286Y-649691147D02*
X746119048Y-649738766D01*
X747023810Y-649453052D02*
X747690476Y-649453052D01*
X747690476Y-649453052D02*
X747261905Y-650453052D01*
%TO.C,J20*%
X745690476Y-944442575D02*
X745690476Y-945156860D01*
X745690476Y-945156860D02*
X745642857Y-945299717D01*
X745642857Y-945299717D02*
X745547619Y-945394956D01*
X745547619Y-945394956D02*
X745404762Y-945442575D01*
X745404762Y-945442575D02*
X745309524Y-945442575D01*
X746119048Y-944537813D02*
X746166667Y-944490194D01*
X746166667Y-944490194D02*
X746261905Y-944442575D01*
X746261905Y-944442575D02*
X746500000Y-944442575D01*
X746500000Y-944442575D02*
X746595238Y-944490194D01*
X746595238Y-944490194D02*
X746642857Y-944537813D01*
X746642857Y-944537813D02*
X746690476Y-944633051D01*
X746690476Y-944633051D02*
X746690476Y-944728289D01*
X746690476Y-944728289D02*
X746642857Y-944871146D01*
X746642857Y-944871146D02*
X746071429Y-945442575D01*
X746071429Y-945442575D02*
X746690476Y-945442575D01*
X747309524Y-944442575D02*
X747404762Y-944442575D01*
X747404762Y-944442575D02*
X747500000Y-944490194D01*
X747500000Y-944490194D02*
X747547619Y-944537813D01*
X747547619Y-944537813D02*
X747595238Y-944633051D01*
X747595238Y-944633051D02*
X747642857Y-944823527D01*
X747642857Y-944823527D02*
X747642857Y-945061622D01*
X747642857Y-945061622D02*
X747595238Y-945252098D01*
X747595238Y-945252098D02*
X747547619Y-945347336D01*
X747547619Y-945347336D02*
X747500000Y-945394956D01*
X747500000Y-945394956D02*
X747404762Y-945442575D01*
X747404762Y-945442575D02*
X747309524Y-945442575D01*
X747309524Y-945442575D02*
X747214286Y-945394956D01*
X747214286Y-945394956D02*
X747166667Y-945347336D01*
X747166667Y-945347336D02*
X747119048Y-945252098D01*
X747119048Y-945252098D02*
X747071429Y-945061622D01*
X747071429Y-945061622D02*
X747071429Y-944823527D01*
X747071429Y-944823527D02*
X747119048Y-944633051D01*
X747119048Y-944633051D02*
X747166667Y-944537813D01*
X747166667Y-944537813D02*
X747214286Y-944490194D01*
X747214286Y-944490194D02*
X747309524Y-944442575D01*
%TO.C,J9*%
X746166666Y-216841133D02*
X746166666Y-217555418D01*
X746166666Y-217555418D02*
X746119047Y-217698275D01*
X746119047Y-217698275D02*
X746023809Y-217793514D01*
X746023809Y-217793514D02*
X745880952Y-217841133D01*
X745880952Y-217841133D02*
X745785714Y-217841133D01*
X746690476Y-217841133D02*
X746880952Y-217841133D01*
X746880952Y-217841133D02*
X746976190Y-217793514D01*
X746976190Y-217793514D02*
X747023809Y-217745894D01*
X747023809Y-217745894D02*
X747119047Y-217603037D01*
X747119047Y-217603037D02*
X747166666Y-217412561D01*
X747166666Y-217412561D02*
X747166666Y-217031609D01*
X747166666Y-217031609D02*
X747119047Y-216936371D01*
X747119047Y-216936371D02*
X747071428Y-216888752D01*
X747071428Y-216888752D02*
X746976190Y-216841133D01*
X746976190Y-216841133D02*
X746785714Y-216841133D01*
X746785714Y-216841133D02*
X746690476Y-216888752D01*
X746690476Y-216888752D02*
X746642857Y-216936371D01*
X746642857Y-216936371D02*
X746595238Y-217031609D01*
X746595238Y-217031609D02*
X746595238Y-217269704D01*
X746595238Y-217269704D02*
X746642857Y-217364942D01*
X746642857Y-217364942D02*
X746690476Y-217412561D01*
X746690476Y-217412561D02*
X746785714Y-217460180D01*
X746785714Y-217460180D02*
X746976190Y-217460180D01*
X746976190Y-217460180D02*
X747071428Y-217412561D01*
X747071428Y-217412561D02*
X747119047Y-217364942D01*
X747119047Y-217364942D02*
X747166666Y-217269704D01*
%TO.C,J24*%
X745690476Y-1212303969D02*
X745690476Y-1213018254D01*
X745690476Y-1213018254D02*
X745642857Y-1213161111D01*
X745642857Y-1213161111D02*
X745547619Y-1213256350D01*
X745547619Y-1213256350D02*
X745404762Y-1213303969D01*
X745404762Y-1213303969D02*
X745309524Y-1213303969D01*
X746119048Y-1212399207D02*
X746166667Y-1212351588D01*
X746166667Y-1212351588D02*
X746261905Y-1212303969D01*
X746261905Y-1212303969D02*
X746500000Y-1212303969D01*
X746500000Y-1212303969D02*
X746595238Y-1212351588D01*
X746595238Y-1212351588D02*
X746642857Y-1212399207D01*
X746642857Y-1212399207D02*
X746690476Y-1212494445D01*
X746690476Y-1212494445D02*
X746690476Y-1212589683D01*
X746690476Y-1212589683D02*
X746642857Y-1212732540D01*
X746642857Y-1212732540D02*
X746071429Y-1213303969D01*
X746071429Y-1213303969D02*
X746690476Y-1213303969D01*
X747547619Y-1212637302D02*
X747547619Y-1213303969D01*
X747309524Y-1212256350D02*
X747071429Y-1212970635D01*
X747071429Y-1212970635D02*
X747690476Y-1212970635D01*
%TO.C,J3*%
X746103197Y-72460442D02*
X746103197Y-73174727D01*
X746103197Y-73174727D02*
X746055578Y-73317584D01*
X746055578Y-73317584D02*
X745960340Y-73412823D01*
X745960340Y-73412823D02*
X745817483Y-73460442D01*
X745817483Y-73460442D02*
X745722245Y-73460442D01*
X746484150Y-72460442D02*
X747103197Y-72460442D01*
X747103197Y-72460442D02*
X746769864Y-72841394D01*
X746769864Y-72841394D02*
X746912721Y-72841394D01*
X746912721Y-72841394D02*
X747007959Y-72889013D01*
X747007959Y-72889013D02*
X747055578Y-72936632D01*
X747055578Y-72936632D02*
X747103197Y-73031870D01*
X747103197Y-73031870D02*
X747103197Y-73269965D01*
X747103197Y-73269965D02*
X747055578Y-73365203D01*
X747055578Y-73365203D02*
X747007959Y-73412823D01*
X747007959Y-73412823D02*
X746912721Y-73460442D01*
X746912721Y-73460442D02*
X746627007Y-73460442D01*
X746627007Y-73460442D02*
X746531769Y-73412823D01*
X746531769Y-73412823D02*
X746484150Y-73365203D01*
%TO.C,J8*%
X746166666Y-190028028D02*
X746166666Y-190742313D01*
X746166666Y-190742313D02*
X746119047Y-190885170D01*
X746119047Y-190885170D02*
X746023809Y-190980409D01*
X746023809Y-190980409D02*
X745880952Y-191028028D01*
X745880952Y-191028028D02*
X745785714Y-191028028D01*
X746785714Y-190456599D02*
X746690476Y-190408980D01*
X746690476Y-190408980D02*
X746642857Y-190361361D01*
X746642857Y-190361361D02*
X746595238Y-190266123D01*
X746595238Y-190266123D02*
X746595238Y-190218504D01*
X746595238Y-190218504D02*
X746642857Y-190123266D01*
X746642857Y-190123266D02*
X746690476Y-190075647D01*
X746690476Y-190075647D02*
X746785714Y-190028028D01*
X746785714Y-190028028D02*
X746976190Y-190028028D01*
X746976190Y-190028028D02*
X747071428Y-190075647D01*
X747071428Y-190075647D02*
X747119047Y-190123266D01*
X747119047Y-190123266D02*
X747166666Y-190218504D01*
X747166666Y-190218504D02*
X747166666Y-190266123D01*
X747166666Y-190266123D02*
X747119047Y-190361361D01*
X747119047Y-190361361D02*
X747071428Y-190408980D01*
X747071428Y-190408980D02*
X746976190Y-190456599D01*
X746976190Y-190456599D02*
X746785714Y-190456599D01*
X746785714Y-190456599D02*
X746690476Y-190504218D01*
X746690476Y-190504218D02*
X746642857Y-190551837D01*
X746642857Y-190551837D02*
X746595238Y-190647075D01*
X746595238Y-190647075D02*
X746595238Y-190837551D01*
X746595238Y-190837551D02*
X746642857Y-190932789D01*
X746642857Y-190932789D02*
X746690476Y-190980409D01*
X746690476Y-190980409D02*
X746785714Y-191028028D01*
X746785714Y-191028028D02*
X746976190Y-191028028D01*
X746976190Y-191028028D02*
X747071428Y-190980409D01*
X747071428Y-190980409D02*
X747119047Y-190932789D01*
X747119047Y-190932789D02*
X747166666Y-190837551D01*
X747166666Y-190837551D02*
X747166666Y-190647075D01*
X747166666Y-190647075D02*
X747119047Y-190551837D01*
X747119047Y-190551837D02*
X747071428Y-190504218D01*
X747071428Y-190504218D02*
X746976190Y-190456599D01*
%TO.C,J4*%
X746166666Y-94596592D02*
X746166666Y-95310877D01*
X746166666Y-95310877D02*
X746119047Y-95453734D01*
X746119047Y-95453734D02*
X746023809Y-95548973D01*
X746023809Y-95548973D02*
X745880952Y-95596592D01*
X745880952Y-95596592D02*
X745785714Y-95596592D01*
X747071428Y-94929925D02*
X747071428Y-95596592D01*
X746833333Y-94548973D02*
X746595238Y-95263258D01*
X746595238Y-95263258D02*
X747214285Y-95263258D01*
%TO.C,J15*%
X745324909Y-546826798D02*
X745324909Y-547541083D01*
X745324909Y-547541083D02*
X745277290Y-547683940D01*
X745277290Y-547683940D02*
X745182052Y-547779179D01*
X745182052Y-547779179D02*
X745039195Y-547826798D01*
X745039195Y-547826798D02*
X744943957Y-547826798D01*
X746324909Y-547826798D02*
X745753481Y-547826798D01*
X746039195Y-547826798D02*
X746039195Y-546826798D01*
X746039195Y-546826798D02*
X745943957Y-546969655D01*
X745943957Y-546969655D02*
X745848719Y-547064893D01*
X745848719Y-547064893D02*
X745753481Y-547112512D01*
X747229671Y-546826798D02*
X746753481Y-546826798D01*
X746753481Y-546826798D02*
X746705862Y-547302988D01*
X746705862Y-547302988D02*
X746753481Y-547255369D01*
X746753481Y-547255369D02*
X746848719Y-547207750D01*
X746848719Y-547207750D02*
X747086814Y-547207750D01*
X747086814Y-547207750D02*
X747182052Y-547255369D01*
X747182052Y-547255369D02*
X747229671Y-547302988D01*
X747229671Y-547302988D02*
X747277290Y-547398226D01*
X747277290Y-547398226D02*
X747277290Y-547636321D01*
X747277290Y-547636321D02*
X747229671Y-547731559D01*
X747229671Y-547731559D02*
X747182052Y-547779179D01*
X747182052Y-547779179D02*
X747086814Y-547826798D01*
X747086814Y-547826798D02*
X746848719Y-547826798D01*
X746848719Y-547826798D02*
X746753481Y-547779179D01*
X746753481Y-547779179D02*
X746705862Y-547731559D01*
%TO.C,J6*%
X746166666Y-140785871D02*
X746166666Y-141500156D01*
X746166666Y-141500156D02*
X746119047Y-141643013D01*
X746119047Y-141643013D02*
X746023809Y-141738252D01*
X746023809Y-141738252D02*
X745880952Y-141785871D01*
X745880952Y-141785871D02*
X745785714Y-141785871D01*
X747071428Y-140785871D02*
X746880952Y-140785871D01*
X746880952Y-140785871D02*
X746785714Y-140833490D01*
X746785714Y-140833490D02*
X746738095Y-140881109D01*
X746738095Y-140881109D02*
X746642857Y-141023966D01*
X746642857Y-141023966D02*
X746595238Y-141214442D01*
X746595238Y-141214442D02*
X746595238Y-141595394D01*
X746595238Y-141595394D02*
X746642857Y-141690632D01*
X746642857Y-141690632D02*
X746690476Y-141738252D01*
X746690476Y-141738252D02*
X746785714Y-141785871D01*
X746785714Y-141785871D02*
X746976190Y-141785871D01*
X746976190Y-141785871D02*
X747071428Y-141738252D01*
X747071428Y-141738252D02*
X747119047Y-141690632D01*
X747119047Y-141690632D02*
X747166666Y-141595394D01*
X747166666Y-141595394D02*
X747166666Y-141357299D01*
X747166666Y-141357299D02*
X747119047Y-141262061D01*
X747119047Y-141262061D02*
X747071428Y-141214442D01*
X747071428Y-141214442D02*
X746976190Y-141166823D01*
X746976190Y-141166823D02*
X746785714Y-141166823D01*
X746785714Y-141166823D02*
X746690476Y-141214442D01*
X746690476Y-141214442D02*
X746642857Y-141262061D01*
X746642857Y-141262061D02*
X746595238Y-141357299D01*
%TO.C,J27*%
X745690476Y-1301046847D02*
X745690476Y-1301761132D01*
X745690476Y-1301761132D02*
X745642857Y-1301903989D01*
X745642857Y-1301903989D02*
X745547619Y-1301999228D01*
X745547619Y-1301999228D02*
X745404762Y-1302046847D01*
X745404762Y-1302046847D02*
X745309524Y-1302046847D01*
X746119048Y-1301142085D02*
X746166667Y-1301094466D01*
X746166667Y-1301094466D02*
X746261905Y-1301046847D01*
X746261905Y-1301046847D02*
X746500000Y-1301046847D01*
X746500000Y-1301046847D02*
X746595238Y-1301094466D01*
X746595238Y-1301094466D02*
X746642857Y-1301142085D01*
X746642857Y-1301142085D02*
X746690476Y-1301237323D01*
X746690476Y-1301237323D02*
X746690476Y-1301332561D01*
X746690476Y-1301332561D02*
X746642857Y-1301475418D01*
X746642857Y-1301475418D02*
X746071429Y-1302046847D01*
X746071429Y-1302046847D02*
X746690476Y-1302046847D01*
X747023810Y-1301046847D02*
X747690476Y-1301046847D01*
X747690476Y-1301046847D02*
X747261905Y-1302046847D01*
%TO.C,J32*%
X745690476Y-1419177446D02*
X745690476Y-1419891731D01*
X745690476Y-1419891731D02*
X745642857Y-1420034588D01*
X745642857Y-1420034588D02*
X745547619Y-1420129827D01*
X745547619Y-1420129827D02*
X745404762Y-1420177446D01*
X745404762Y-1420177446D02*
X745309524Y-1420177446D01*
X746071429Y-1419177446D02*
X746690476Y-1419177446D01*
X746690476Y-1419177446D02*
X746357143Y-1419558398D01*
X746357143Y-1419558398D02*
X746500000Y-1419558398D01*
X746500000Y-1419558398D02*
X746595238Y-1419606017D01*
X746595238Y-1419606017D02*
X746642857Y-1419653636D01*
X746642857Y-1419653636D02*
X746690476Y-1419748874D01*
X746690476Y-1419748874D02*
X746690476Y-1419986969D01*
X746690476Y-1419986969D02*
X746642857Y-1420082207D01*
X746642857Y-1420082207D02*
X746595238Y-1420129827D01*
X746595238Y-1420129827D02*
X746500000Y-1420177446D01*
X746500000Y-1420177446D02*
X746214286Y-1420177446D01*
X746214286Y-1420177446D02*
X746119048Y-1420129827D01*
X746119048Y-1420129827D02*
X746071429Y-1420082207D01*
X747071429Y-1419272684D02*
X747119048Y-1419225065D01*
X747119048Y-1419225065D02*
X747214286Y-1419177446D01*
X747214286Y-1419177446D02*
X747452381Y-1419177446D01*
X747452381Y-1419177446D02*
X747547619Y-1419225065D01*
X747547619Y-1419225065D02*
X747595238Y-1419272684D01*
X747595238Y-1419272684D02*
X747642857Y-1419367922D01*
X747642857Y-1419367922D02*
X747642857Y-1419463160D01*
X747642857Y-1419463160D02*
X747595238Y-1419606017D01*
X747595238Y-1419606017D02*
X747023810Y-1420177446D01*
X747023810Y-1420177446D02*
X747642857Y-1420177446D01*
%TO.C,J26*%
X745690476Y-1274364371D02*
X745690476Y-1275078656D01*
X745690476Y-1275078656D02*
X745642857Y-1275221513D01*
X745642857Y-1275221513D02*
X745547619Y-1275316752D01*
X745547619Y-1275316752D02*
X745404762Y-1275364371D01*
X745404762Y-1275364371D02*
X745309524Y-1275364371D01*
X746119048Y-1274459609D02*
X746166667Y-1274411990D01*
X746166667Y-1274411990D02*
X746261905Y-1274364371D01*
X746261905Y-1274364371D02*
X746500000Y-1274364371D01*
X746500000Y-1274364371D02*
X746595238Y-1274411990D01*
X746595238Y-1274411990D02*
X746642857Y-1274459609D01*
X746642857Y-1274459609D02*
X746690476Y-1274554847D01*
X746690476Y-1274554847D02*
X746690476Y-1274650085D01*
X746690476Y-1274650085D02*
X746642857Y-1274792942D01*
X746642857Y-1274792942D02*
X746071429Y-1275364371D01*
X746071429Y-1275364371D02*
X746690476Y-1275364371D01*
X747547619Y-1274364371D02*
X747357143Y-1274364371D01*
X747357143Y-1274364371D02*
X747261905Y-1274411990D01*
X747261905Y-1274411990D02*
X747214286Y-1274459609D01*
X747214286Y-1274459609D02*
X747119048Y-1274602466D01*
X747119048Y-1274602466D02*
X747071429Y-1274792942D01*
X747071429Y-1274792942D02*
X747071429Y-1275173894D01*
X747071429Y-1275173894D02*
X747119048Y-1275269132D01*
X747119048Y-1275269132D02*
X747166667Y-1275316752D01*
X747166667Y-1275316752D02*
X747261905Y-1275364371D01*
X747261905Y-1275364371D02*
X747452381Y-1275364371D01*
X747452381Y-1275364371D02*
X747547619Y-1275316752D01*
X747547619Y-1275316752D02*
X747595238Y-1275269132D01*
X747595238Y-1275269132D02*
X747642857Y-1275173894D01*
X747642857Y-1275173894D02*
X747642857Y-1274935799D01*
X747642857Y-1274935799D02*
X747595238Y-1274840561D01*
X747595238Y-1274840561D02*
X747547619Y-1274792942D01*
X747547619Y-1274792942D02*
X747452381Y-1274745323D01*
X747452381Y-1274745323D02*
X747261905Y-1274745323D01*
X747261905Y-1274745323D02*
X747166667Y-1274792942D01*
X747166667Y-1274792942D02*
X747119048Y-1274840561D01*
X747119048Y-1274840561D02*
X747071429Y-1274935799D01*
%TO.C,J25*%
X745690476Y-1244863166D02*
X745690476Y-1245577451D01*
X745690476Y-1245577451D02*
X745642857Y-1245720308D01*
X745642857Y-1245720308D02*
X745547619Y-1245815547D01*
X745547619Y-1245815547D02*
X745404762Y-1245863166D01*
X745404762Y-1245863166D02*
X745309524Y-1245863166D01*
X746119048Y-1244958404D02*
X746166667Y-1244910785D01*
X746166667Y-1244910785D02*
X746261905Y-1244863166D01*
X746261905Y-1244863166D02*
X746500000Y-1244863166D01*
X746500000Y-1244863166D02*
X746595238Y-1244910785D01*
X746595238Y-1244910785D02*
X746642857Y-1244958404D01*
X746642857Y-1244958404D02*
X746690476Y-1245053642D01*
X746690476Y-1245053642D02*
X746690476Y-1245148880D01*
X746690476Y-1245148880D02*
X746642857Y-1245291737D01*
X746642857Y-1245291737D02*
X746071429Y-1245863166D01*
X746071429Y-1245863166D02*
X746690476Y-1245863166D01*
X747595238Y-1244863166D02*
X747119048Y-1244863166D01*
X747119048Y-1244863166D02*
X747071429Y-1245339356D01*
X747071429Y-1245339356D02*
X747119048Y-1245291737D01*
X747119048Y-1245291737D02*
X747214286Y-1245244118D01*
X747214286Y-1245244118D02*
X747452381Y-1245244118D01*
X747452381Y-1245244118D02*
X747547619Y-1245291737D01*
X747547619Y-1245291737D02*
X747595238Y-1245339356D01*
X747595238Y-1245339356D02*
X747642857Y-1245434594D01*
X747642857Y-1245434594D02*
X747642857Y-1245672689D01*
X747642857Y-1245672689D02*
X747595238Y-1245767927D01*
X747595238Y-1245767927D02*
X747547619Y-1245815547D01*
X747547619Y-1245815547D02*
X747452381Y-1245863166D01*
X747452381Y-1245863166D02*
X747214286Y-1245863166D01*
X747214286Y-1245863166D02*
X747119048Y-1245815547D01*
X747119048Y-1245815547D02*
X747071429Y-1245767927D01*
%TO.C,J10*%
X745690476Y-246051730D02*
X745690476Y-246766015D01*
X745690476Y-246766015D02*
X745642857Y-246908872D01*
X745642857Y-246908872D02*
X745547619Y-247004111D01*
X745547619Y-247004111D02*
X745404762Y-247051730D01*
X745404762Y-247051730D02*
X745309524Y-247051730D01*
X746690476Y-247051730D02*
X746119048Y-247051730D01*
X746404762Y-247051730D02*
X746404762Y-246051730D01*
X746404762Y-246051730D02*
X746309524Y-246194587D01*
X746309524Y-246194587D02*
X746214286Y-246289825D01*
X746214286Y-246289825D02*
X746119048Y-246337444D01*
X747309524Y-246051730D02*
X747404762Y-246051730D01*
X747404762Y-246051730D02*
X747500000Y-246099349D01*
X747500000Y-246099349D02*
X747547619Y-246146968D01*
X747547619Y-246146968D02*
X747595238Y-246242206D01*
X747595238Y-246242206D02*
X747642857Y-246432682D01*
X747642857Y-246432682D02*
X747642857Y-246670777D01*
X747642857Y-246670777D02*
X747595238Y-246861253D01*
X747595238Y-246861253D02*
X747547619Y-246956491D01*
X747547619Y-246956491D02*
X747500000Y-247004111D01*
X747500000Y-247004111D02*
X747404762Y-247051730D01*
X747404762Y-247051730D02*
X747309524Y-247051730D01*
X747309524Y-247051730D02*
X747214286Y-247004111D01*
X747214286Y-247004111D02*
X747166667Y-246956491D01*
X747166667Y-246956491D02*
X747119048Y-246861253D01*
X747119048Y-246861253D02*
X747071429Y-246670777D01*
X747071429Y-246670777D02*
X747071429Y-246432682D01*
X747071429Y-246432682D02*
X747119048Y-246242206D01*
X747119048Y-246242206D02*
X747166667Y-246146968D01*
X747166667Y-246146968D02*
X747214286Y-246099349D01*
X747214286Y-246099349D02*
X747309524Y-246051730D01*
%TO.C,J30*%
X745690476Y-1373574669D02*
X745690476Y-1374288954D01*
X745690476Y-1374288954D02*
X745642857Y-1374431811D01*
X745642857Y-1374431811D02*
X745547619Y-1374527050D01*
X745547619Y-1374527050D02*
X745404762Y-1374574669D01*
X745404762Y-1374574669D02*
X745309524Y-1374574669D01*
X746071429Y-1373574669D02*
X746690476Y-1373574669D01*
X746690476Y-1373574669D02*
X746357143Y-1373955621D01*
X746357143Y-1373955621D02*
X746500000Y-1373955621D01*
X746500000Y-1373955621D02*
X746595238Y-1374003240D01*
X746595238Y-1374003240D02*
X746642857Y-1374050859D01*
X746642857Y-1374050859D02*
X746690476Y-1374146097D01*
X746690476Y-1374146097D02*
X746690476Y-1374384192D01*
X746690476Y-1374384192D02*
X746642857Y-1374479430D01*
X746642857Y-1374479430D02*
X746595238Y-1374527050D01*
X746595238Y-1374527050D02*
X746500000Y-1374574669D01*
X746500000Y-1374574669D02*
X746214286Y-1374574669D01*
X746214286Y-1374574669D02*
X746119048Y-1374527050D01*
X746119048Y-1374527050D02*
X746071429Y-1374479430D01*
X747309524Y-1373574669D02*
X747404762Y-1373574669D01*
X747404762Y-1373574669D02*
X747500000Y-1373622288D01*
X747500000Y-1373622288D02*
X747547619Y-1373669907D01*
X747547619Y-1373669907D02*
X747595238Y-1373765145D01*
X747595238Y-1373765145D02*
X747642857Y-1373955621D01*
X747642857Y-1373955621D02*
X747642857Y-1374193716D01*
X747642857Y-1374193716D02*
X747595238Y-1374384192D01*
X747595238Y-1374384192D02*
X747547619Y-1374479430D01*
X747547619Y-1374479430D02*
X747500000Y-1374527050D01*
X747500000Y-1374527050D02*
X747404762Y-1374574669D01*
X747404762Y-1374574669D02*
X747309524Y-1374574669D01*
X747309524Y-1374574669D02*
X747214286Y-1374527050D01*
X747214286Y-1374527050D02*
X747166667Y-1374479430D01*
X747166667Y-1374479430D02*
X747119048Y-1374384192D01*
X747119048Y-1374384192D02*
X747071429Y-1374193716D01*
X747071429Y-1374193716D02*
X747071429Y-1373955621D01*
X747071429Y-1373955621D02*
X747119048Y-1373765145D01*
X747119048Y-1373765145D02*
X747166667Y-1373669907D01*
X747166667Y-1373669907D02*
X747214286Y-1373622288D01*
X747214286Y-1373622288D02*
X747309524Y-1373574669D01*
%TO.C,J2*%
X746166666Y-50188383D02*
X746166666Y-50902668D01*
X746166666Y-50902668D02*
X746119047Y-51045525D01*
X746119047Y-51045525D02*
X746023809Y-51140764D01*
X746023809Y-51140764D02*
X745880952Y-51188383D01*
X745880952Y-51188383D02*
X745785714Y-51188383D01*
X746595238Y-50283621D02*
X746642857Y-50236002D01*
X746642857Y-50236002D02*
X746738095Y-50188383D01*
X746738095Y-50188383D02*
X746976190Y-50188383D01*
X746976190Y-50188383D02*
X747071428Y-50236002D01*
X747071428Y-50236002D02*
X747119047Y-50283621D01*
X747119047Y-50283621D02*
X747166666Y-50378859D01*
X747166666Y-50378859D02*
X747166666Y-50474097D01*
X747166666Y-50474097D02*
X747119047Y-50616954D01*
X747119047Y-50616954D02*
X746547619Y-51188383D01*
X746547619Y-51188383D02*
X747166666Y-51188383D01*
%TO.C,J12*%
X745690476Y-318749355D02*
X745690476Y-319463640D01*
X745690476Y-319463640D02*
X745642857Y-319606497D01*
X745642857Y-319606497D02*
X745547619Y-319701736D01*
X745547619Y-319701736D02*
X745404762Y-319749355D01*
X745404762Y-319749355D02*
X745309524Y-319749355D01*
X746690476Y-319749355D02*
X746119048Y-319749355D01*
X746404762Y-319749355D02*
X746404762Y-318749355D01*
X746404762Y-318749355D02*
X746309524Y-318892212D01*
X746309524Y-318892212D02*
X746214286Y-318987450D01*
X746214286Y-318987450D02*
X746119048Y-319035069D01*
X747071429Y-318844593D02*
X747119048Y-318796974D01*
X747119048Y-318796974D02*
X747214286Y-318749355D01*
X747214286Y-318749355D02*
X747452381Y-318749355D01*
X747452381Y-318749355D02*
X747547619Y-318796974D01*
X747547619Y-318796974D02*
X747595238Y-318844593D01*
X747595238Y-318844593D02*
X747642857Y-318939831D01*
X747642857Y-318939831D02*
X747642857Y-319035069D01*
X747642857Y-319035069D02*
X747595238Y-319177926D01*
X747595238Y-319177926D02*
X747023810Y-319749355D01*
X747023810Y-319749355D02*
X747642857Y-319749355D01*
%TO.C,J16*%
X745690476Y-596670431D02*
X745690476Y-597384716D01*
X745690476Y-597384716D02*
X745642857Y-597527573D01*
X745642857Y-597527573D02*
X745547619Y-597622812D01*
X745547619Y-597622812D02*
X745404762Y-597670431D01*
X745404762Y-597670431D02*
X745309524Y-597670431D01*
X746690476Y-597670431D02*
X746119048Y-597670431D01*
X746404762Y-597670431D02*
X746404762Y-596670431D01*
X746404762Y-596670431D02*
X746309524Y-596813288D01*
X746309524Y-596813288D02*
X746214286Y-596908526D01*
X746214286Y-596908526D02*
X746119048Y-596956145D01*
X747547619Y-596670431D02*
X747357143Y-596670431D01*
X747357143Y-596670431D02*
X747261905Y-596718050D01*
X747261905Y-596718050D02*
X747214286Y-596765669D01*
X747214286Y-596765669D02*
X747119048Y-596908526D01*
X747119048Y-596908526D02*
X747071429Y-597099002D01*
X747071429Y-597099002D02*
X747071429Y-597479954D01*
X747071429Y-597479954D02*
X747119048Y-597575192D01*
X747119048Y-597575192D02*
X747166667Y-597622812D01*
X747166667Y-597622812D02*
X747261905Y-597670431D01*
X747261905Y-597670431D02*
X747452381Y-597670431D01*
X747452381Y-597670431D02*
X747547619Y-597622812D01*
X747547619Y-597622812D02*
X747595238Y-597575192D01*
X747595238Y-597575192D02*
X747642857Y-597479954D01*
X747642857Y-597479954D02*
X747642857Y-597241859D01*
X747642857Y-597241859D02*
X747595238Y-597146621D01*
X747595238Y-597146621D02*
X747547619Y-597099002D01*
X747547619Y-597099002D02*
X747452381Y-597051383D01*
X747452381Y-597051383D02*
X747261905Y-597051383D01*
X747261905Y-597051383D02*
X747166667Y-597099002D01*
X747166667Y-597099002D02*
X747119048Y-597146621D01*
X747119048Y-597146621D02*
X747071429Y-597241859D01*
%TO.C,J13*%
X745690476Y-381501631D02*
X745690476Y-382215916D01*
X745690476Y-382215916D02*
X745642857Y-382358773D01*
X745642857Y-382358773D02*
X745547619Y-382454012D01*
X745547619Y-382454012D02*
X745404762Y-382501631D01*
X745404762Y-382501631D02*
X745309524Y-382501631D01*
X746690476Y-382501631D02*
X746119048Y-382501631D01*
X746404762Y-382501631D02*
X746404762Y-381501631D01*
X746404762Y-381501631D02*
X746309524Y-381644488D01*
X746309524Y-381644488D02*
X746214286Y-381739726D01*
X746214286Y-381739726D02*
X746119048Y-381787345D01*
X747023810Y-381501631D02*
X747642857Y-381501631D01*
X747642857Y-381501631D02*
X747309524Y-381882583D01*
X747309524Y-381882583D02*
X747452381Y-381882583D01*
X747452381Y-381882583D02*
X747547619Y-381930202D01*
X747547619Y-381930202D02*
X747595238Y-381977821D01*
X747595238Y-381977821D02*
X747642857Y-382073059D01*
X747642857Y-382073059D02*
X747642857Y-382311154D01*
X747642857Y-382311154D02*
X747595238Y-382406392D01*
X747595238Y-382406392D02*
X747547619Y-382454012D01*
X747547619Y-382454012D02*
X747452381Y-382501631D01*
X747452381Y-382501631D02*
X747166667Y-382501631D01*
X747166667Y-382501631D02*
X747071429Y-382454012D01*
X747071429Y-382454012D02*
X747023810Y-382406392D01*
%TO.C,J33*%
X745690476Y-1440523427D02*
X745690476Y-1441237712D01*
X745690476Y-1441237712D02*
X745642857Y-1441380569D01*
X745642857Y-1441380569D02*
X745547619Y-1441475808D01*
X745547619Y-1441475808D02*
X745404762Y-1441523427D01*
X745404762Y-1441523427D02*
X745309524Y-1441523427D01*
X746071429Y-1440523427D02*
X746690476Y-1440523427D01*
X746690476Y-1440523427D02*
X746357143Y-1440904379D01*
X746357143Y-1440904379D02*
X746500000Y-1440904379D01*
X746500000Y-1440904379D02*
X746595238Y-1440951998D01*
X746595238Y-1440951998D02*
X746642857Y-1440999617D01*
X746642857Y-1440999617D02*
X746690476Y-1441094855D01*
X746690476Y-1441094855D02*
X746690476Y-1441332950D01*
X746690476Y-1441332950D02*
X746642857Y-1441428188D01*
X746642857Y-1441428188D02*
X746595238Y-1441475808D01*
X746595238Y-1441475808D02*
X746500000Y-1441523427D01*
X746500000Y-1441523427D02*
X746214286Y-1441523427D01*
X746214286Y-1441523427D02*
X746119048Y-1441475808D01*
X746119048Y-1441475808D02*
X746071429Y-1441428188D01*
X747023810Y-1440523427D02*
X747642857Y-1440523427D01*
X747642857Y-1440523427D02*
X747309524Y-1440904379D01*
X747309524Y-1440904379D02*
X747452381Y-1440904379D01*
X747452381Y-1440904379D02*
X747547619Y-1440951998D01*
X747547619Y-1440951998D02*
X747595238Y-1440999617D01*
X747595238Y-1440999617D02*
X747642857Y-1441094855D01*
X747642857Y-1441094855D02*
X747642857Y-1441332950D01*
X747642857Y-1441332950D02*
X747595238Y-1441428188D01*
X747595238Y-1441428188D02*
X747547619Y-1441475808D01*
X747547619Y-1441475808D02*
X747452381Y-1441523427D01*
X747452381Y-1441523427D02*
X747166667Y-1441523427D01*
X747166667Y-1441523427D02*
X747071429Y-1441475808D01*
X747071429Y-1441475808D02*
X747023810Y-1441428188D01*
%TO.C,J19*%
X745690476Y-894667558D02*
X745690476Y-895381843D01*
X745690476Y-895381843D02*
X745642857Y-895524700D01*
X745642857Y-895524700D02*
X745547619Y-895619939D01*
X745547619Y-895619939D02*
X745404762Y-895667558D01*
X745404762Y-895667558D02*
X745309524Y-895667558D01*
X746690476Y-895667558D02*
X746119048Y-895667558D01*
X746404762Y-895667558D02*
X746404762Y-894667558D01*
X746404762Y-894667558D02*
X746309524Y-894810415D01*
X746309524Y-894810415D02*
X746214286Y-894905653D01*
X746214286Y-894905653D02*
X746119048Y-894953272D01*
X747166667Y-895667558D02*
X747357143Y-895667558D01*
X747357143Y-895667558D02*
X747452381Y-895619939D01*
X747452381Y-895619939D02*
X747500000Y-895572319D01*
X747500000Y-895572319D02*
X747595238Y-895429462D01*
X747595238Y-895429462D02*
X747642857Y-895238986D01*
X747642857Y-895238986D02*
X747642857Y-894858034D01*
X747642857Y-894858034D02*
X747595238Y-894762796D01*
X747595238Y-894762796D02*
X747547619Y-894715177D01*
X747547619Y-894715177D02*
X747452381Y-894667558D01*
X747452381Y-894667558D02*
X747261905Y-894667558D01*
X747261905Y-894667558D02*
X747166667Y-894715177D01*
X747166667Y-894715177D02*
X747119048Y-894762796D01*
X747119048Y-894762796D02*
X747071429Y-894858034D01*
X747071429Y-894858034D02*
X747071429Y-895096129D01*
X747071429Y-895096129D02*
X747119048Y-895191367D01*
X747119048Y-895191367D02*
X747166667Y-895238986D01*
X747166667Y-895238986D02*
X747261905Y-895286605D01*
X747261905Y-895286605D02*
X747452381Y-895286605D01*
X747452381Y-895286605D02*
X747547619Y-895238986D01*
X747547619Y-895238986D02*
X747595238Y-895191367D01*
X747595238Y-895191367D02*
X747642857Y-895096129D01*
%TO.C,J5*%
X746166666Y-117447374D02*
X746166666Y-118161659D01*
X746166666Y-118161659D02*
X746119047Y-118304516D01*
X746119047Y-118304516D02*
X746023809Y-118399755D01*
X746023809Y-118399755D02*
X745880952Y-118447374D01*
X745880952Y-118447374D02*
X745785714Y-118447374D01*
X747119047Y-117447374D02*
X746642857Y-117447374D01*
X746642857Y-117447374D02*
X746595238Y-117923564D01*
X746595238Y-117923564D02*
X746642857Y-117875945D01*
X746642857Y-117875945D02*
X746738095Y-117828326D01*
X746738095Y-117828326D02*
X746976190Y-117828326D01*
X746976190Y-117828326D02*
X747071428Y-117875945D01*
X747071428Y-117875945D02*
X747119047Y-117923564D01*
X747119047Y-117923564D02*
X747166666Y-118018802D01*
X747166666Y-118018802D02*
X747166666Y-118256897D01*
X747166666Y-118256897D02*
X747119047Y-118352135D01*
X747119047Y-118352135D02*
X747071428Y-118399755D01*
X747071428Y-118399755D02*
X746976190Y-118447374D01*
X746976190Y-118447374D02*
X746738095Y-118447374D01*
X746738095Y-118447374D02*
X746642857Y-118399755D01*
X746642857Y-118399755D02*
X746595238Y-118352135D01*
%TO.C,J21*%
X745690476Y-1012892908D02*
X745690476Y-1013607193D01*
X745690476Y-1013607193D02*
X745642857Y-1013750050D01*
X745642857Y-1013750050D02*
X745547619Y-1013845289D01*
X745547619Y-1013845289D02*
X745404762Y-1013892908D01*
X745404762Y-1013892908D02*
X745309524Y-1013892908D01*
X746119048Y-1012988146D02*
X746166667Y-1012940527D01*
X746166667Y-1012940527D02*
X746261905Y-1012892908D01*
X746261905Y-1012892908D02*
X746500000Y-1012892908D01*
X746500000Y-1012892908D02*
X746595238Y-1012940527D01*
X746595238Y-1012940527D02*
X746642857Y-1012988146D01*
X746642857Y-1012988146D02*
X746690476Y-1013083384D01*
X746690476Y-1013083384D02*
X746690476Y-1013178622D01*
X746690476Y-1013178622D02*
X746642857Y-1013321479D01*
X746642857Y-1013321479D02*
X746071429Y-1013892908D01*
X746071429Y-1013892908D02*
X746690476Y-1013892908D01*
X747642857Y-1013892908D02*
X747071429Y-1013892908D01*
X747357143Y-1013892908D02*
X747357143Y-1012892908D01*
X747357143Y-1012892908D02*
X747261905Y-1013035765D01*
X747261905Y-1013035765D02*
X747166667Y-1013131003D01*
X747166667Y-1013131003D02*
X747071429Y-1013178622D01*
%TO.C,J18*%
X745690476Y-842652619D02*
X745690476Y-843366904D01*
X745690476Y-843366904D02*
X745642857Y-843509761D01*
X745642857Y-843509761D02*
X745547619Y-843605000D01*
X745547619Y-843605000D02*
X745404762Y-843652619D01*
X745404762Y-843652619D02*
X745309524Y-843652619D01*
X746690476Y-843652619D02*
X746119048Y-843652619D01*
X746404762Y-843652619D02*
X746404762Y-842652619D01*
X746404762Y-842652619D02*
X746309524Y-842795476D01*
X746309524Y-842795476D02*
X746214286Y-842890714D01*
X746214286Y-842890714D02*
X746119048Y-842938333D01*
X747261905Y-843081190D02*
X747166667Y-843033571D01*
X747166667Y-843033571D02*
X747119048Y-842985952D01*
X747119048Y-842985952D02*
X747071429Y-842890714D01*
X747071429Y-842890714D02*
X747071429Y-842843095D01*
X747071429Y-842843095D02*
X747119048Y-842747857D01*
X747119048Y-842747857D02*
X747166667Y-842700238D01*
X747166667Y-842700238D02*
X747261905Y-842652619D01*
X747261905Y-842652619D02*
X747452381Y-842652619D01*
X747452381Y-842652619D02*
X747547619Y-842700238D01*
X747547619Y-842700238D02*
X747595238Y-842747857D01*
X747595238Y-842747857D02*
X747642857Y-842843095D01*
X747642857Y-842843095D02*
X747642857Y-842890714D01*
X747642857Y-842890714D02*
X747595238Y-842985952D01*
X747595238Y-842985952D02*
X747547619Y-843033571D01*
X747547619Y-843033571D02*
X747452381Y-843081190D01*
X747452381Y-843081190D02*
X747261905Y-843081190D01*
X747261905Y-843081190D02*
X747166667Y-843128809D01*
X747166667Y-843128809D02*
X747119048Y-843176428D01*
X747119048Y-843176428D02*
X747071429Y-843271666D01*
X747071429Y-843271666D02*
X747071429Y-843462142D01*
X747071429Y-843462142D02*
X747119048Y-843557380D01*
X747119048Y-843557380D02*
X747166667Y-843605000D01*
X747166667Y-843605000D02*
X747261905Y-843652619D01*
X747261905Y-843652619D02*
X747452381Y-843652619D01*
X747452381Y-843652619D02*
X747547619Y-843605000D01*
X747547619Y-843605000D02*
X747595238Y-843557380D01*
X747595238Y-843557380D02*
X747642857Y-843462142D01*
X747642857Y-843462142D02*
X747642857Y-843271666D01*
X747642857Y-843271666D02*
X747595238Y-843176428D01*
X747595238Y-843176428D02*
X747547619Y-843128809D01*
X747547619Y-843128809D02*
X747452381Y-843081190D01*
D12*
%TO.C,J1*%
X39990000Y-45240000D02*
X39990000Y-75240000D01*
X50490000Y-75240000D02*
X50490000Y-45240000D01*
X50490000Y-45240000D02*
G75*
G03*
X39990000Y-45240000I-5250000J0D01*
G01*
X39990000Y-75240000D02*
G75*
G03*
X50490000Y-75240000I5250000J0D01*
G01*
%TD*%
M02*
