%TF.GenerationSoftware,KiCad,Pcbnew,7.0.1-3b83917a11~172~ubuntu22.04.1*%
%TF.CreationDate,2023-12-10T13:38:52-05:00*%
%TF.ProjectId,coil_template_second,636f696c-5f74-4656-9d70-6c6174655f73,rev?*%
%TF.SameCoordinates,Original*%
%TF.FileFunction,Copper,L1,Top*%
%TF.FilePolarity,Positive*%
%FSLAX46Y46*%
G04 Gerber Fmt 4.6, Leading zero omitted, Abs format (unit mm)*
G04 Created by KiCad (PCBNEW 7.0.1-3b83917a11~172~ubuntu22.04.1) date 2023-12-10 13:38:52*
%MOMM*%
%LPD*%
G01*
G04 APERTURE LIST*
%TA.AperFunction,ComponentPad*%
%ADD10C,10.160000*%
%TD*%
%TA.AperFunction,SMDPad,CuDef*%
%ADD11R,5.000000X5.000000*%
%TD*%
%TA.AperFunction,ViaPad*%
%ADD12C,4.000000*%
%TD*%
%TA.AperFunction,Conductor*%
%ADD13C,5.000000*%
%TD*%
G04 APERTURE END LIST*
D10*
%TO.P,J1,1,Pin_1*%
%TO.N,Net-(J1-Pin_1)*%
X45240000Y-75240000D03*
%TO.P,J1,2,Pin_2*%
X45240000Y-45270000D03*
%TD*%
D11*
%TO.P,J2,1,Pin_1*%
%TO.N,Net-(J1-Pin_1)*%
X745833867Y-726625756D03*
%TD*%
D12*
%TO.N,Net-(J1-Pin_1)*%
X592466434Y-749937162D03*
X343442040Y-734741099D03*
X343442040Y-734741099D03*
X190095495Y-750849384D03*
X526914134Y-750008292D03*
X343442040Y-734741099D03*
X580578717Y-738644983D03*
X181359789Y-729947892D03*
X189991026Y-734539077D03*
X515012236Y-1009020493D03*
X168143768Y-714588348D03*
X227086274Y-1195270161D03*
X745986242Y-738453541D03*
X524253381Y-497990353D03*
X431959765Y-726676862D03*
X206672059Y-328408960D03*
X674615065Y-748797472D03*
X143092593Y-729947892D03*
%TD*%
D13*
%TO.N,Net-(J1-Pin_1)*%
X106590000Y-632862100D02*
X106540000Y-630440000D01*
X344250000Y-1082847000D02*
X345700000Y-1086430000D01*
X240570000Y-713686900D02*
X239360000Y-746170000D01*
X235740000Y-1110908100D02*
X246030000Y-1125070000D01*
X413790000Y-850864200D02*
X413790000Y-850860000D01*
X509770000Y-783153600D02*
X513110000Y-793820000D01*
X636610000Y-1125238300D02*
X621750000Y-1133890000D01*
X370990000Y-520898400D02*
X373700000Y-509320000D01*
X44250000Y-787001800D02*
X44250000Y-752440000D01*
X489010000Y-314700100D02*
X505290000Y-300700000D01*
X197520000Y-658836500D02*
X181299384Y-675057116D01*
X336150000Y-278272500D02*
X335720000Y-280050000D01*
X44250000Y-750000000D02*
X29651104Y-750000000D01*
X68190000Y-1405046300D02*
X66580000Y-1402670000D01*
X710530000Y-979320200D02*
X718320000Y-1013610000D01*
X420310000Y-84068600D02*
X445270000Y-89830000D01*
X268630000Y-684092700D02*
X267520000Y-698210000D01*
X505060000Y-1019627100D02*
X514960000Y-1009030000D01*
X196070000Y-1179325400D02*
X202110000Y-1112610000D01*
X552340000Y-771287600D02*
X551650000Y-767760000D01*
X361950000Y-604526400D02*
X364200000Y-581210000D01*
X303490000Y-795883300D02*
X304750000Y-823170000D01*
X50860000Y-428208700D02*
X50860000Y-401240000D01*
X75670000Y-571732000D02*
X74820000Y-533330000D01*
X382780000Y-534044000D02*
X385970000Y-516940000D01*
X739640000Y-997315600D02*
X739630000Y-1013610000D01*
X105380000Y-1359998200D02*
X97680000Y-1346740000D01*
X59300000Y-958305800D02*
X59720000Y-935900000D01*
X79100000Y-740000000D02*
X79100000Y-733020000D01*
X430390000Y-307648700D02*
X425380000Y-314670000D01*
X277260000Y-308607800D02*
X266210000Y-329760000D01*
X277160000Y-375310400D02*
X274920000Y-380690000D01*
X282340000Y-143012600D02*
X293970000Y-147220000D01*
X312980000Y-1027097300D02*
X314700000Y-1032280000D01*
X169570000Y-235892500D02*
X174660000Y-225910000D01*
X232420000Y-560592400D02*
X227580000Y-581630000D01*
X589060000Y-821077500D02*
X568920000Y-801210000D01*
X137430000Y-851819200D02*
X137850000Y-845650000D01*
X493610000Y-844463400D02*
X519610000Y-867690000D01*
X575150000Y-837978400D02*
X554930000Y-819350000D01*
X74030000Y-1006211600D02*
X74340000Y-988940000D01*
X381340000Y-246025100D02*
X369930000Y-270090000D01*
X720740000Y-469773600D02*
X718340000Y-486390000D01*
X671180000Y-839784900D02*
X653490000Y-841940000D01*
X730000000Y-945420300D02*
X736850000Y-979270000D01*
X252970000Y-477875100D02*
X246030000Y-508680000D01*
X381230000Y-445321200D02*
X383780000Y-439660000D01*
X349200000Y-359100100D02*
X342270000Y-371760000D01*
X117660000Y-1307458700D02*
X113960000Y-1299030000D01*
X177350000Y-950321500D02*
X182990000Y-960260000D01*
X111910000Y-1225190000D02*
X111670000Y-1221610000D01*
X559100000Y-394390100D02*
X587690000Y-391270000D01*
X43570000Y-1260724800D02*
X43570000Y-1225390000D01*
X342860000Y-536603200D02*
X338930000Y-566700000D01*
X377530000Y-313733800D02*
X367040000Y-328890000D01*
X48510000Y-84680000D02*
X48510000Y-114890100D01*
X481820000Y-767098100D02*
X482520000Y-771940000D01*
X201520000Y-387457800D02*
X189180000Y-388200000D01*
X233430000Y-861099300D02*
X235670000Y-874280000D01*
X76770000Y-613344400D02*
X76640000Y-610620000D01*
X96890000Y-1098230200D02*
X98210000Y-1071570000D01*
X592090000Y-787898300D02*
X589400000Y-783320000D01*
X274230000Y-173111200D02*
X278260000Y-174570000D01*
X143010000Y-938292200D02*
X145660000Y-929020000D01*
X738740000Y-349037700D02*
X738740000Y-363770000D01*
X102470000Y-312549700D02*
X102970000Y-279940000D01*
X719040000Y-368601500D02*
X719990000Y-383380000D01*
X50860000Y-1098763400D02*
X50860000Y-1071790000D01*
X479250000Y-1288312300D02*
X482310000Y-1307990000D01*
X456310000Y-713004900D02*
X452050000Y-742390000D01*
X102970000Y-279941400D02*
X103150000Y-273490000D01*
X623130000Y-808764800D02*
X592090000Y-787900000D01*
X280360000Y-520682600D02*
X277830000Y-531600000D01*
X304460000Y-429800100D02*
X299820000Y-444180000D01*
X102980000Y-1220062400D02*
X102480000Y-1187450000D01*
X220080000Y-962122300D02*
X223200000Y-973560000D01*
X139960000Y-968695900D02*
X140190000Y-965320000D01*
X57390000Y-1193875100D02*
X57410000Y-1173890000D01*
X95420000Y-599837700D02*
X95050000Y-584390000D01*
X110550000Y-740000000D02*
X110030000Y-711330000D01*
X223770000Y-1301012600D02*
X210130000Y-1299720000D01*
X92070000Y-1387619400D02*
X84690000Y-1368680000D01*
X246030000Y-1043127700D02*
X251490000Y-1062420000D01*
X582270000Y-866177000D02*
X587070000Y-869380000D01*
X92620000Y-522553300D02*
X92230000Y-503890000D01*
X312010000Y-1252801000D02*
X310770000Y-1265690000D01*
X351980000Y-1044164500D02*
X353670000Y-1048520000D01*
X235660000Y-625713500D02*
X233410000Y-638910000D01*
X317560000Y-554422600D02*
X314700000Y-574690000D01*
X423780000Y-1372754500D02*
X397250000Y-1387400000D01*
X408190000Y-421924100D02*
X411450000Y-416280000D01*
X618770000Y-1276429000D02*
X599590000Y-1266810000D01*
X343960000Y-687918200D02*
X344620000Y-653930000D01*
X111670000Y-278384100D02*
X111900000Y-274820000D01*
X311060000Y-1400122000D02*
X284790000Y-1405460000D01*
X366660000Y-1272215600D02*
X368440000Y-1288240000D01*
X302870000Y-717349100D02*
X302470000Y-742970000D01*
X269500000Y-1306876300D02*
X241000000Y-1320870000D01*
X213460000Y-134456200D02*
X222730000Y-134010000D01*
X194360000Y-249422800D02*
X194360000Y-249420000D01*
X544560000Y-369072100D02*
X566030000Y-360310000D01*
X57870000Y-266400900D02*
X57870000Y-247490000D01*
X60180000Y-896188100D02*
X60180000Y-879920000D01*
X291010000Y-344631500D02*
X280820000Y-368450000D01*
X490410000Y-1097807200D02*
X475820000Y-1085240000D01*
X280360000Y-979301000D02*
X285230000Y-1003590000D01*
X301530000Y-351175900D02*
X292980000Y-371170000D01*
X573410000Y-280362700D02*
X604470000Y-267350000D01*
X265910000Y-738577900D02*
X265910000Y-761420000D01*
X43700000Y-436570400D02*
X43620000Y-432370000D01*
X625220000Y-452050200D02*
X615030000Y-481010000D01*
X339340000Y-136915400D02*
X349770000Y-143010000D01*
X247210000Y-1408719100D02*
X227080000Y-1408980000D01*
X605280000Y-177350100D02*
X596660000Y-185070000D01*
X457700000Y-1322649900D02*
X448160000Y-1346530000D01*
X95360000Y-1230981300D02*
X94940000Y-1215440000D01*
X150450000Y-1442649500D02*
X131370000Y-1442650000D01*
X88920000Y-1251428600D02*
X87570000Y-1235460000D01*
X396810000Y-1149094500D02*
X409040000Y-1166470000D01*
X194360000Y-249422800D02*
X213920000Y-230300000D01*
X204357430Y-328382818D02*
X206645917Y-328382818D01*
X239960000Y-470405100D02*
X237360000Y-478860000D01*
X52390000Y-638780700D02*
X52110000Y-624710000D01*
X296120000Y-74811900D02*
X296730000Y-74940000D01*
X431880000Y-348269900D02*
X422230000Y-358540000D01*
X169230000Y-1139781100D02*
X177350000Y-1113650000D01*
X409040000Y-1166473600D02*
X425260000Y-1185060000D01*
X44250000Y-712998200D02*
X44210000Y-708140000D01*
X423840000Y-1272439000D02*
X430880000Y-1288310000D01*
X400610000Y-323622300D02*
X385790000Y-345000000D01*
X343650000Y-806073000D02*
X343400000Y-772960000D01*
X238610000Y-111083700D02*
X273090000Y-114900000D01*
X602370000Y-297034800D02*
X621500000Y-297000000D01*
X153890000Y-381526200D02*
X150600000Y-370920000D01*
X590640000Y-651811100D02*
X608740000Y-643690000D01*
X315780000Y-323501300D02*
X301530000Y-351180000D01*
X307540000Y-1445077700D02*
X285240000Y-1445080000D01*
X338850000Y-1121069300D02*
X341190000Y-1126070000D01*
X431836999Y-823642932D02*
X467390000Y-859195933D01*
X278160000Y-306386700D02*
X277260000Y-308610000D01*
X80880000Y-418481500D02*
X80520000Y-411170000D01*
X44250000Y-752442700D02*
X44250000Y-750000000D01*
X45690000Y-1345068500D02*
X44430000Y-1339120000D01*
X361380000Y-1401466300D02*
X348530000Y-1403550000D01*
X114770000Y-1451340700D02*
X84710000Y-1451340000D01*
X623170000Y-260818600D02*
X640420000Y-261270000D01*
X223030000Y-1353255600D02*
X215280000Y-1352870000D01*
X347280000Y-1391325000D02*
X320490000Y-1398950000D01*
X318110000Y-1103048800D02*
X321630000Y-1110230000D01*
X237350000Y-1021125700D02*
X239950000Y-1029600000D01*
X311050000Y-99871300D02*
X320500000Y-101040000D01*
X476780000Y-1396350700D02*
X469900000Y-1398260000D01*
X376470000Y-140935100D02*
X379390000Y-143010000D01*
X409700000Y-143012600D02*
X412660000Y-146610000D01*
X533730000Y-1220804500D02*
X532810000Y-1220060000D01*
X445210000Y-1235231100D02*
X460400000Y-1253970000D01*
X80530000Y-1088832600D02*
X80890000Y-1081520000D01*
X146040000Y-258832200D02*
X146780000Y-255030000D01*
X358990000Y-1134246200D02*
X367270000Y-1148640000D01*
X352080000Y-171297000D02*
X356680000Y-175390000D01*
X181359789Y-729947892D02*
X181299384Y-730008297D01*
X329280000Y-1074087000D02*
X336500000Y-1091970000D01*
X658550000Y-953520500D02*
X676620000Y-969690000D01*
X98110000Y-665043500D02*
X96940000Y-638410000D01*
X252960000Y-136070500D02*
X260450000Y-136900000D01*
X240580000Y-786319000D02*
X241010000Y-792320000D01*
X478470000Y-322684400D02*
X489010000Y-314700000D01*
X486260000Y-902988700D02*
X508470000Y-916120000D01*
X44040000Y-629349000D02*
X44040000Y-594540000D01*
X65540000Y-95158000D02*
X73420000Y-85450000D01*
X71850000Y-1126148500D02*
X71850000Y-1123300000D01*
X113830000Y-950183600D02*
X114490000Y-943880000D01*
X43570000Y-274613700D02*
X43570000Y-239280000D01*
X299610000Y-482553600D02*
X294820000Y-501920000D01*
X98200000Y-428427400D02*
X96880000Y-401770000D01*
X143010000Y-1189358800D02*
X144480000Y-1165010000D01*
X157190000Y-112798000D02*
X157190000Y-112800000D01*
X313840000Y-986170400D02*
X314010000Y-987060000D01*
X198750000Y-1056352100D02*
X211690000Y-1061250000D01*
X526910000Y-750004158D02*
X526910000Y-750000000D01*
X705970000Y-314700100D02*
X708290000Y-318650000D01*
X655680000Y-1082287200D02*
X654720000Y-1088080000D01*
X84540000Y-1288292000D02*
X82540000Y-1277790000D01*
X647990000Y-1019523900D02*
X655260000Y-1047950000D01*
X87290000Y-856048900D02*
X87960000Y-840790000D01*
X242660000Y-909711100D02*
X246030000Y-924350000D01*
X108680000Y-815792000D02*
X109950000Y-790180000D01*
X314450000Y-749857000D02*
X314450000Y-750140000D01*
X380950000Y-1105710500D02*
X397210000Y-1129670000D01*
X451500000Y-1283676100D02*
X453560000Y-1288310000D01*
X477010000Y-143012600D02*
X483250000Y-161050000D01*
X286810000Y-1338794000D02*
X262970000Y-1347460000D01*
X262730000Y-444036600D02*
X255870000Y-468230000D01*
X83710000Y-972329400D02*
X84200000Y-961280000D01*
X223600000Y-776566400D02*
X225370000Y-801310000D01*
X314010000Y-512935200D02*
X313830000Y-513830000D01*
X258430000Y-1151736300D02*
X266790000Y-1171780000D01*
X121960000Y-1215703000D02*
X121470000Y-1191240000D01*
X258210000Y-72133300D02*
X289810000Y-74340000D01*
X288440000Y-892696500D02*
X292250000Y-920670000D01*
X380350000Y-1104636600D02*
X380660000Y-1105230000D01*
X314700000Y-989830800D02*
X322530000Y-1021610000D01*
X256010000Y-980931200D02*
X259080000Y-994160000D01*
X438060000Y-469990700D02*
X447430000Y-450090000D01*
X362550000Y-740000000D02*
X362550000Y-738040000D01*
X43940000Y-910042700D02*
X44040000Y-905460000D01*
X179310000Y-1357710000D02*
X156700000Y-1345030000D01*
X201260000Y-112576700D02*
X235950000Y-110900000D01*
X378030000Y-595293900D02*
X378590000Y-589470000D01*
X379780000Y-420887100D02*
X373610000Y-433360000D01*
X419430000Y-967970300D02*
X419780000Y-965760000D01*
X415920000Y-1219637300D02*
X436020000Y-1251240000D01*
X739660000Y-470056600D02*
X739660000Y-486390000D01*
X135990000Y-1010420600D02*
X136500000Y-1002650000D01*
X503160000Y-818802200D02*
X512710000Y-833490000D01*
X618720000Y-616293700D02*
X590110000Y-629130000D01*
X532830000Y-279963900D02*
X533690000Y-279260000D01*
X116990000Y-1335108900D02*
X108090000Y-1313840000D01*
X402440000Y-975716900D02*
X398850000Y-956110000D01*
X319360000Y-45665000D02*
X352300000Y-45670000D01*
X96940000Y-638406400D02*
X96620000Y-624740000D01*
X313000000Y-1143823400D02*
X313010000Y-1143850000D01*
X366870000Y-485382500D02*
X371700000Y-470620000D01*
X233960000Y-349551100D02*
X221870000Y-370020000D01*
X477630000Y-445219600D02*
X499820000Y-424990000D01*
X481800000Y-732911500D02*
X481820000Y-767100000D01*
X57410000Y-1154441800D02*
X57700000Y-1134280000D01*
X399700000Y-1451815900D02*
X391150000Y-1453300000D01*
X435290000Y-108675000D02*
X462940000Y-127740000D01*
X280360000Y-1027423900D02*
X284460000Y-1043480000D01*
X68900000Y-654511500D02*
X68900000Y-648270000D01*
X326650000Y-1172152300D02*
X334130000Y-1185240000D01*
X575510000Y-1430907600D02*
X569490000Y-1430910000D01*
X393430000Y-311719800D02*
X391910000Y-314430000D01*
X517010000Y-490461900D02*
X511990000Y-479840000D01*
X445630000Y-396101100D02*
X458840000Y-382410000D01*
X399380000Y-938029000D02*
X398150000Y-916260000D01*
X702130000Y-417712800D02*
X702260000Y-437610000D01*
X315130000Y-710805000D02*
X314700000Y-734090000D01*
X278480000Y-729196200D02*
X278420000Y-731390000D01*
X140630000Y-1083909400D02*
X143010000Y-1062850000D01*
X305460000Y-1222778700D02*
X305620000Y-1223560000D01*
X545050000Y-934444200D02*
X553340000Y-938500000D01*
X44410000Y-161112100D02*
X45500000Y-155920000D01*
X52110000Y-875287000D02*
X52390000Y-861220000D01*
X244500000Y-1224595300D02*
X240930000Y-1253780000D01*
X344420000Y-196736600D02*
X349070000Y-211690000D01*
X66470000Y-1001868300D02*
X67020000Y-971150000D01*
X451430000Y-216448100D02*
X438220000Y-246030000D01*
X71330000Y-337561600D02*
X71330000Y-334100000D01*
X386850000Y-988799100D02*
X386220000Y-985030000D01*
X246030000Y-663951400D02*
X244980000Y-670510000D01*
X52110000Y-624713100D02*
X52110000Y-599180000D01*
X66460000Y-498133900D02*
X66460000Y-489090000D01*
X343442040Y-734741099D02*
X343400000Y-734776099D01*
X680290000Y-775327400D02*
X669070000Y-796270000D01*
X200030000Y-763027300D02*
X201000000Y-775860000D01*
X523430000Y-1167724300D02*
X497700000Y-1150960000D01*
X287900000Y-962613800D02*
X289650000Y-972280000D01*
X721920000Y-1067740500D02*
X721830000Y-1082290000D01*
X438220000Y-246025100D02*
X436010000Y-248750000D01*
X108270000Y-671342000D02*
X108260000Y-670870000D01*
X146650000Y-452076300D02*
X143010000Y-437300000D01*
X283780000Y-649423700D02*
X283510000Y-653200000D01*
X207390000Y-688366500D02*
X206180000Y-693990000D01*
X326620000Y-404040900D02*
X315080000Y-432870000D01*
X740530000Y-1047949800D02*
X740790000Y-1063980000D01*
X169170000Y-1337533700D02*
X165860000Y-1335680000D01*
X735610000Y-811503400D02*
X735690000Y-814720000D01*
X142970000Y-1282622500D02*
X142700000Y-1281830000D01*
X112670000Y-357851700D02*
X112270000Y-353490000D01*
X385790000Y-345004600D02*
X380930000Y-351390000D01*
X210780000Y-1437365900D02*
X184500000Y-1435750000D01*
X320370000Y-871588800D02*
X323760000Y-902570000D01*
X254660000Y-429482800D02*
X251490000Y-437590000D01*
X266210000Y-329759500D02*
X257180000Y-351100000D01*
X302380000Y-585146700D02*
X300290000Y-600500000D01*
X261640000Y-82508400D02*
X290450000Y-84670000D01*
X133220000Y-1356169500D02*
X116990000Y-1335110000D01*
X405890000Y-379628100D02*
X400460000Y-386720000D01*
X170610000Y-199022300D02*
X171070000Y-198510000D01*
X111030000Y-317464300D02*
X110940000Y-314810000D01*
X120800000Y-1033073400D02*
X122370000Y-1018250000D01*
X281610000Y-1382710100D02*
X273090000Y-1385100000D01*
X115520000Y-241153100D02*
X117320000Y-232620000D01*
X162170000Y-1232052700D02*
X160250000Y-1213510000D01*
X224220000Y-199308700D02*
X256080000Y-209350000D01*
X306840000Y-1189297300D02*
X311540000Y-1200420000D01*
X335000000Y-387135100D02*
X326620000Y-404040000D01*
X535130000Y-1050002700D02*
X525180000Y-1038570000D01*
X134120000Y-882946900D02*
X137430000Y-851820000D01*
X383450000Y-1439887400D02*
X367110000Y-1439890000D01*
X224230000Y-62626300D02*
X250410000Y-62950000D01*
X530260000Y-599031100D02*
X521550000Y-605470000D01*
X285230000Y-496407000D02*
X280360000Y-520680000D01*
X406640000Y-1122127700D02*
X406900000Y-1122470000D01*
X53300000Y-1334029300D02*
X53300000Y-1309860000D01*
X200990000Y-724131100D02*
X200020000Y-736980000D01*
X319390000Y-114388500D02*
X346750000Y-124000000D01*
X323280000Y-440975000D02*
X314750000Y-467520000D01*
X427100000Y-922108300D02*
X427100000Y-922110000D01*
X95360000Y-269016400D02*
X97500000Y-243640000D01*
X88420000Y-817256600D02*
X88940000Y-800780000D01*
X377090000Y-1142894500D02*
X378360000Y-1144760000D01*
X522590000Y-1000860900D02*
X538910000Y-1008930000D01*
X244250000Y-514353400D02*
X235420000Y-546690000D01*
X88180000Y-1116769600D02*
X88710000Y-1093530000D01*
X249540000Y-633688200D02*
X246030000Y-663950000D01*
X689770000Y-1150962300D02*
X670410000Y-1184070000D01*
X474930000Y-1111062200D02*
X457190000Y-1092950000D01*
X126510000Y-779203500D02*
X126850000Y-760440000D01*
X623710000Y-438202700D02*
X625220000Y-452050000D01*
X505080000Y-1019669300D02*
X505060000Y-1019630000D01*
X86680000Y-1196521200D02*
X86710000Y-1171270000D01*
X50720000Y-270507300D02*
X50720000Y-243380000D01*
X372050000Y-343823700D02*
X353200000Y-374630000D01*
X201000000Y-775862100D02*
X206210000Y-806020000D01*
X265730000Y-896458200D02*
X269440000Y-921230000D01*
X334710000Y-177350100D02*
X344420000Y-196740000D01*
X323750000Y-597417300D02*
X320350000Y-628420000D01*
X148360000Y-57701400D02*
X166720000Y-54610000D01*
X50620000Y-388902000D02*
X50620000Y-361650000D01*
X566030000Y-360307900D02*
X578330000Y-359200000D01*
X255310000Y-390402700D02*
X251590000Y-398200000D01*
X653330000Y-870403600D02*
X652490000Y-870510000D01*
X279520000Y-44973400D02*
X313250000Y-44970000D01*
X431836999Y-726826870D02*
X431836999Y-823642932D01*
X132010000Y-447849300D02*
X129170000Y-422670000D01*
X451730000Y-535417800D02*
X448760000Y-519560000D01*
X731090000Y-1221058700D02*
X720360000Y-1253970000D01*
X128010000Y-406104600D02*
X125660000Y-385250000D01*
X332650000Y-446156400D02*
X325570000Y-468160000D01*
X434630000Y-1114464900D02*
X415710000Y-1090420000D01*
X601420000Y-1100610200D02*
X587730000Y-1108800000D01*
X113700000Y-92078100D02*
X131060000Y-86300000D01*
X135090000Y-252394300D02*
X141790000Y-220580000D01*
X241680000Y-1399093900D02*
X232690000Y-1399210000D01*
X61040000Y-683193800D02*
X60640000Y-659250000D01*
X295830000Y-642507100D02*
X294580000Y-659560000D01*
X58510000Y-1036742700D02*
X58900000Y-1015250000D01*
X169230000Y-1139781100D02*
X169230000Y-1139780000D01*
X94940000Y-1215444700D02*
X94580000Y-1191980000D01*
X80890000Y-1081515000D02*
X81610000Y-1050010000D01*
X366390000Y-1219666900D02*
X370510000Y-1231310000D01*
X361860000Y-1093435500D02*
X370750000Y-1110380000D01*
X69080000Y-1439330500D02*
X58260000Y-1439330000D01*
X409700000Y-1356987400D02*
X385260000Y-1374370000D01*
X205580000Y-53575700D02*
X229420000Y-53580000D01*
X122580000Y-45900200D02*
X155010000Y-45900000D01*
X662840000Y-506319500D02*
X652200000Y-520730000D01*
X65340000Y-1080107700D02*
X65910000Y-1050670000D01*
X65540000Y-106892000D02*
X65540000Y-95160000D01*
X351110000Y-1219898700D02*
X360650000Y-1246870000D01*
X164760000Y-1390690900D02*
X156740000Y-1386490000D01*
X452050000Y-742394100D02*
X449360000Y-748450000D01*
X542940000Y-297565900D02*
X572270000Y-280770000D01*
X409990000Y-1011475500D02*
X406620000Y-1000950000D01*
X43940000Y-944957300D02*
X43940000Y-910040000D01*
X578300000Y-1140870100D02*
X566070000Y-1139760000D01*
X399360000Y-561959700D02*
X398720000Y-544810000D01*
X407060000Y-454306500D02*
X416170000Y-436440000D01*
X72970000Y-57492800D02*
X72970000Y-57490000D01*
X623990000Y-929976800D02*
X649160000Y-945020000D01*
X254920000Y-315282000D02*
X251750000Y-321350000D01*
X720440000Y-246025100D02*
X731150000Y-278840000D01*
X139400000Y-197042000D02*
X145930000Y-186110000D01*
X91350000Y-1016160900D02*
X92240000Y-996110000D01*
X349040000Y-918802600D02*
X346790000Y-889350000D01*
X171090000Y-1267514200D02*
X167940000Y-1258170000D01*
X430440000Y-177350100D02*
X430820000Y-183660000D01*
X332920000Y-1420581800D02*
X296740000Y-1425060000D01*
X458840000Y-382407900D02*
X468770000Y-372630000D01*
X333060000Y-1055008300D02*
X344250000Y-1082850000D01*
X45500000Y-122785000D02*
X48510000Y-114890000D01*
X533610000Y-348080600D02*
X564770000Y-335580000D01*
X328490000Y-351260500D02*
X322200000Y-362740000D01*
X489870000Y-556935000D02*
X517010000Y-490460000D01*
X398150000Y-916263300D02*
X402260000Y-896930000D01*
X382350000Y-1057091700D02*
X372750000Y-1032370000D01*
X212750000Y-571887200D02*
X212510000Y-572970000D01*
X57700000Y-365718900D02*
X57400000Y-345560000D01*
X516220000Y-1118082900D02*
X515360000Y-1117620000D01*
X564770000Y-335578300D02*
X584140000Y-328770000D01*
X83400000Y-102052200D02*
X106710000Y-79500000D01*
X252960000Y-1022127300D02*
X255870000Y-1031770000D01*
X459370000Y-706350400D02*
X456310000Y-713000000D01*
X351360000Y-378267900D02*
X335720000Y-409800000D01*
X486390000Y-666570500D02*
X470780000Y-681870000D01*
X470820000Y-818108500D02*
X486390000Y-833350000D01*
X655990000Y-1074275900D02*
X655680000Y-1082290000D01*
X161600000Y-110270700D02*
X170940000Y-107980000D01*
X696530000Y-1013612200D02*
X698430000Y-1026850000D01*
X86030000Y-605228900D02*
X85400000Y-578850000D01*
X122240000Y-103565000D02*
X149680000Y-90140000D01*
X85910000Y-48730400D02*
X113390000Y-48730000D01*
X674425214Y-738640280D02*
X674425214Y-748607621D01*
X169890000Y-200229400D02*
X170610000Y-199020000D01*
X60180000Y-879922900D02*
X60640000Y-856480000D01*
X104700000Y-910062900D02*
X104800000Y-905550000D01*
X235740000Y-389092900D02*
X227370000Y-405720000D01*
X347310000Y-108675000D02*
X354170000Y-111090000D01*
X457970000Y-550910300D02*
X451730000Y-535420000D01*
X264700000Y-367829500D02*
X255310000Y-390400000D01*
X87220000Y-150911100D02*
X95580000Y-135030000D01*
X284450000Y-1209763300D02*
X290060000Y-1236850000D01*
X82010000Y-1041423800D02*
X82670000Y-1011170000D01*
X43480000Y-1185886100D02*
X43480000Y-1181890000D01*
X650730000Y-210545100D02*
X652550000Y-209670000D01*
X177350000Y-459550500D02*
X169920000Y-438710000D01*
X72170000Y-255700900D02*
X74340000Y-221920000D01*
X450600000Y-414436000D02*
X454260000Y-409840000D01*
X44130000Y-865962100D02*
X44130000Y-831260000D01*
X52110000Y-599175900D02*
X51830000Y-585430000D01*
X300360000Y-1057319000D02*
X304850000Y-1071210000D01*
X542060000Y-801698000D02*
X532590000Y-782630000D01*
X107910000Y-1341850400D02*
X107160000Y-1340880000D01*
X295840000Y-857502000D02*
X298140000Y-877840000D01*
X721590000Y-1047949800D02*
X721920000Y-1067740000D01*
X385660000Y-1306386300D02*
X381450000Y-1322650000D01*
X518380000Y-1331431300D02*
X515550000Y-1356990000D01*
X249560000Y-866304800D02*
X250090000Y-870670000D01*
X229750000Y-1377655100D02*
X209930000Y-1376750000D01*
X346770000Y-610644700D02*
X349040000Y-581020000D01*
X466300000Y-1267183800D02*
X479250000Y-1288310000D01*
X345430000Y-1110203000D02*
X350940000Y-1120690000D01*
X381370000Y-669959900D02*
X378870000Y-634250000D01*
X140940000Y-810354500D02*
X141060000Y-808040000D01*
X673490000Y-379225400D02*
X674460000Y-383380000D01*
X101360000Y-509133000D02*
X100030000Y-478860000D01*
X431340000Y-1193454700D02*
X453490000Y-1218310000D01*
X97500000Y-243638700D02*
X98380000Y-231310000D01*
X197520000Y-603810000D02*
X197520000Y-658836500D01*
X43940000Y-555042600D02*
X43860000Y-550560000D01*
X375750000Y-1426478800D02*
X374810000Y-1426480000D01*
X44040000Y-870651100D02*
X44130000Y-865960000D01*
X124980000Y-173918100D02*
X138780000Y-154780000D01*
X123050000Y-1454216800D02*
X114770000Y-1451340000D01*
X540890000Y-567619800D02*
X524400000Y-577660000D01*
X96880000Y-401773500D02*
X96570000Y-388050000D01*
X290450000Y-84674300D02*
X303890000Y-87400000D01*
X288180000Y-276520400D02*
X280470000Y-300520000D01*
X365100000Y-1074991900D02*
X380350000Y-1104640000D01*
X285570000Y-417979900D02*
X280360000Y-434110000D01*
X290950000Y-1435129200D02*
X263480000Y-1437050000D01*
X59720000Y-564102600D02*
X59290000Y-541700000D01*
X115560000Y-1374501100D02*
X105380000Y-1360000000D01*
X280350000Y-1099259900D02*
X288560000Y-1120220000D01*
X499200000Y-1278578100D02*
X506890000Y-1288310000D01*
X560100000Y-143012600D02*
X556410000Y-171030000D01*
X74030000Y-1006566300D02*
X74030000Y-1006210000D01*
X171770000Y-1302352600D02*
X157030000Y-1275070000D01*
X554120000Y-607500200D02*
X549150000Y-610330000D01*
X731090000Y-1219637300D02*
X731090000Y-1221060000D01*
X258120000Y-835835500D02*
X260910000Y-859790000D01*
X360320000Y-185649200D02*
X368420000Y-211690000D01*
X324590000Y-913458300D02*
X328260000Y-939430000D01*
X383780000Y-439662300D02*
X386320000Y-434690000D01*
X737530000Y-723727600D02*
X738360000Y-734850000D01*
X621050000Y-127153800D02*
X621280000Y-143010000D01*
X414260000Y-347591700D02*
X393930000Y-374290000D01*
X580600819Y-738667085D02*
X580600819Y-738811084D01*
X79510000Y-372307200D02*
X78950000Y-338480000D01*
X61270000Y-722769600D02*
X61040000Y-698470000D01*
X551650000Y-767761600D02*
X551640000Y-750000000D01*
X102490000Y-1180335100D02*
X103330000Y-1147510000D01*
X229420000Y-53575700D02*
X245130000Y-53770000D01*
X83100000Y-1001356100D02*
X83710000Y-972330000D01*
X576180000Y-1288312300D02*
X596640000Y-1314960000D01*
X467960000Y-50316400D02*
X481680000Y-53560000D01*
X735800000Y-682165100D02*
X735910000Y-691540000D01*
X485040000Y-1204711900D02*
X496510000Y-1214590000D01*
X118990000Y-1059629700D02*
X120800000Y-1033070000D01*
X274030000Y-1455409300D02*
X239860000Y-1455410000D01*
X166720000Y-54606600D02*
X189390000Y-54610000D01*
X472350000Y-1150990400D02*
X461870000Y-1142050000D01*
X453980000Y-492266600D02*
X457210000Y-479890000D01*
X64370000Y-341560300D02*
X64370000Y-330110000D01*
X117800000Y-597461500D02*
X116720000Y-587600000D01*
X361380000Y-98528600D02*
X390390000Y-108680000D01*
X74020000Y-1337988500D02*
X71030000Y-1323850000D01*
X701640000Y-1047949800D02*
X702230000Y-1062440000D01*
X50440000Y-349557700D02*
X50440000Y-322110000D01*
X74790000Y-532794400D02*
X74340000Y-511300000D01*
X50720000Y-243381700D02*
X51540000Y-230590000D01*
X500090000Y-85613700D02*
X522130000Y-93360000D01*
X522120000Y-1001359000D02*
X522590000Y-1000860000D01*
X276590000Y-1325936900D02*
X245800000Y-1336910000D01*
X106540000Y-630438200D02*
X104800000Y-594450000D01*
X150600000Y-370917700D02*
X144870000Y-336900000D01*
X239860000Y-1455409300D02*
X234620000Y-1455470000D01*
X66920000Y-1278241400D02*
X65020000Y-1248410000D01*
X584970000Y-632029600D02*
X555820000Y-651590000D01*
X247210000Y-91278700D02*
X267810000Y-93260000D01*
X106750000Y-1339896600D02*
X96450000Y-1309110000D01*
X589590000Y-891507000D02*
X602640000Y-897470000D01*
X740790000Y-1082287200D02*
X740790000Y-1100580000D01*
X197850000Y-1397798600D02*
X179990000Y-1394130000D01*
X210770000Y-62626300D02*
X224230000Y-62630000D01*
X511630000Y-317671800D02*
X514110000Y-316060000D01*
X391500000Y-1184818300D02*
X394370000Y-1189870000D01*
X43480000Y-318110200D02*
X43480000Y-314110000D01*
X735620000Y-807752400D02*
X735610000Y-811500000D01*
X179080000Y-1425861200D02*
X146610000Y-1420490000D01*
X291920000Y-802530800D02*
X292540000Y-816160000D01*
X229780000Y-838219800D02*
X233430000Y-861100000D01*
X271080000Y-656722500D02*
X268630000Y-684090000D01*
X373700000Y-509317700D02*
X381410000Y-478670000D01*
X572300000Y-1219294700D02*
X542920000Y-1202460000D01*
X58100000Y-1075949900D02*
X58510000Y-1054920000D01*
X159300000Y-1094632900D02*
X167520000Y-1071200000D01*
X425260000Y-1185055800D02*
X431340000Y-1193450000D01*
X552320000Y-728702600D02*
X552320000Y-728700000D01*
X212690000Y-1268767500D02*
X195200000Y-1253640000D01*
X653650000Y-345094100D02*
X655960000Y-349040000D01*
X65020000Y-1237705200D02*
X64340000Y-1209350000D01*
X88420000Y-682742500D02*
X87960000Y-659210000D01*
X327570000Y-326267600D02*
X314910000Y-352170000D01*
X73420000Y-85447800D02*
X95760000Y-68290000D01*
X599760000Y-706580000D02*
X591080000Y-712674000D01*
X254720000Y-705562800D02*
X254250000Y-715280000D01*
X678340000Y-1035358700D02*
X680250000Y-1047950000D01*
X509850000Y-416807900D02*
X526720000Y-406680000D01*
X95050000Y-915604600D02*
X95420000Y-900160000D01*
X522780000Y-229579300D02*
X511840000Y-243430000D01*
X62030000Y-185732600D02*
X62030000Y-172230000D01*
X699070000Y-820729900D02*
X686510000Y-829680000D01*
X510250000Y-246025100D02*
X487210000Y-269210000D01*
X486610000Y-630621500D02*
X467310000Y-640430000D01*
X59720000Y-580897400D02*
X59720000Y-564100000D01*
X621820000Y-692644800D02*
X624620000Y-691450000D01*
X146120000Y-1241271100D02*
X143010000Y-1211310000D01*
X102980000Y-1398102700D02*
X92070000Y-1387620000D01*
X244690000Y-512568200D02*
X244250000Y-514350000D01*
X569160000Y-1282492300D02*
X573570000Y-1286450000D01*
X189991026Y-734539077D02*
X189991026Y-750744915D01*
X332570000Y-858068900D02*
X333430000Y-879090000D01*
X277230000Y-965146000D02*
X277840000Y-968400000D01*
X553940000Y-1320634300D02*
X555420000Y-1322650000D01*
X215970000Y-71677000D02*
X219030000Y-71680000D01*
X698050000Y-1116624800D02*
X690300000Y-1150040000D01*
X320500000Y-101039600D02*
X347310000Y-108680000D01*
X43850000Y-199987800D02*
X44410000Y-195370000D01*
X588290000Y-846779700D02*
X575150000Y-837980000D01*
X641590000Y-297418400D02*
X668280000Y-314700000D01*
X93950000Y-168139100D02*
X96530000Y-156490000D01*
X550620000Y-484503500D02*
X524253381Y-497990353D01*
X292010000Y-309852000D02*
X280910000Y-337270000D01*
X368080000Y-394263200D02*
X357290000Y-415250000D01*
X188810000Y-874917000D02*
X197530000Y-896190000D01*
X327300000Y-1097510800D02*
X338850000Y-1121070000D01*
X280330000Y-690853600D02*
X278480000Y-729200000D01*
X362620000Y-502263200D02*
X366870000Y-485380000D01*
X636600000Y-374792200D02*
X641580000Y-383380000D01*
X610320000Y-489123800D02*
X586290000Y-510980000D01*
X206645917Y-328382818D02*
X206672059Y-328408960D01*
X599170000Y-534294600D02*
X571510000Y-552570000D01*
X245780000Y-123577100D02*
X266770000Y-125900000D01*
X569850000Y-880411000D02*
X589590000Y-891510000D01*
X106590000Y-867137500D02*
X108260000Y-829130000D01*
X330570000Y-1366150900D02*
X307560000Y-1376440000D01*
X503660000Y-125519200D02*
X515550000Y-143010000D01*
X189810000Y-1445448600D02*
X167670000Y-1445450000D01*
X64340000Y-290646600D02*
X65020000Y-262290000D01*
X556360000Y-848825700D02*
X582270000Y-866180000D01*
X122990000Y-1231555900D02*
X121960000Y-1215700000D01*
X59240000Y-226171600D02*
X59240000Y-208830000D01*
X397250000Y-1387400400D02*
X394050000Y-1389680000D01*
X718320000Y-1013612200D02*
X720710000Y-1030270000D01*
X44210000Y-826472600D02*
X44210000Y-791860000D01*
X152590000Y-1410571100D02*
X133710000Y-1402300000D01*
X266920000Y-525336100D02*
X263710000Y-542620000D01*
X359890000Y-317736500D02*
X346260000Y-341840000D01*
X313830000Y-513835000D02*
X307520000Y-548650000D01*
X388150000Y-750000000D02*
X411735232Y-750000000D01*
X200540000Y-513380600D02*
X178230000Y-653750000D01*
X506890000Y-211687700D02*
X499200000Y-221420000D01*
X69770000Y-767099600D02*
X69770000Y-750000000D01*
X344060000Y-969801700D02*
X349040000Y-993970000D01*
X593860000Y-674748900D02*
X628020000Y-660210000D01*
X195320000Y-113756400D02*
X201260000Y-112580000D01*
X290670000Y-724358100D02*
X290480000Y-736090000D01*
X358190000Y-177350100D02*
X360320000Y-185650000D01*
X504060000Y-367230900D02*
X532050000Y-349040000D01*
X308670000Y-211490500D02*
X311400000Y-236670000D01*
X61040000Y-801527000D02*
X61270000Y-777230000D01*
X644650000Y-630788900D02*
X658810000Y-630470000D01*
X143010000Y-1062853500D02*
X146690000Y-1047940000D01*
X219440000Y-1080823700D02*
X227350000Y-1094270000D01*
X252530000Y-1140755100D02*
X258430000Y-1151740000D01*
X532560000Y-717354300D02*
X541990000Y-698340000D01*
X52620000Y-678360700D02*
X52390000Y-664000000D01*
X651270000Y-870308600D02*
X618240000Y-861220000D01*
X405460000Y-177350100D02*
X406690000Y-197700000D01*
X253410000Y-754239100D02*
X254260000Y-784720000D01*
X411200000Y-1106320400D02*
X402590000Y-1093200000D01*
X342010000Y-451337700D02*
X338860000Y-461170000D01*
X228920000Y-503508200D02*
X223220000Y-526430000D01*
X114490000Y-943882500D02*
X116720000Y-912400000D01*
X99230000Y-794869800D02*
X99350000Y-784090000D01*
X618020000Y-520694600D02*
X599170000Y-534290000D01*
X271290000Y-567287100D02*
X269430000Y-578780000D01*
X418450000Y-1253974900D02*
X423840000Y-1272440000D01*
X229420000Y-1446419600D02*
X205580000Y-1446420000D01*
X241810000Y-905357700D02*
X242660000Y-909710000D01*
X649030000Y-1288312300D02*
X618770000Y-1276430000D01*
X690270000Y-554075300D02*
X689210000Y-555030000D01*
X650730000Y-1289465300D02*
X649030000Y-1288310000D01*
X59230000Y-1273823200D02*
X57870000Y-1252510000D01*
X114760000Y-391505300D02*
X112670000Y-357850000D01*
X79100000Y-733015700D02*
X79040000Y-727580000D01*
X184500000Y-1435747500D02*
X173890000Y-1435750000D01*
X223200000Y-973559500D02*
X228910000Y-996500000D01*
X708290000Y-318652600D02*
X714820000Y-349040000D01*
X262730000Y-1055961000D02*
X272400000Y-1080700000D01*
X409100000Y-1435446600D02*
X383450000Y-1439890000D01*
X300290000Y-600497800D02*
X298130000Y-622150000D01*
X51110000Y-1032490000D02*
X51340000Y-1019600000D01*
X674425214Y-748607621D02*
X674615065Y-748797472D01*
X293970000Y-147217800D02*
X301910000Y-152620000D01*
X78820000Y-1166741200D02*
X78950000Y-1161520000D01*
X585350000Y-302739100D02*
X602370000Y-297030000D01*
X328260000Y-939434500D02*
X330460000Y-956270000D01*
X98210000Y-1071567700D02*
X98480000Y-1059700000D01*
X207420000Y-811619300D02*
X211690000Y-824880000D01*
X284830000Y-210815400D02*
X289930000Y-221960000D01*
X349740000Y-1356987400D02*
X339330000Y-1363070000D01*
X58900000Y-484745500D02*
X58510000Y-463260000D01*
X104150000Y-198588100D02*
X107100000Y-189270000D01*
X134540000Y-179833000D02*
X134540000Y-179830000D01*
X378600000Y-910519400D02*
X378040000Y-904710000D01*
X738360000Y-734849500D02*
X738350000Y-765430000D01*
X735690000Y-814716200D02*
X726700000Y-844360000D01*
X690800000Y-1288366600D02*
X652550000Y-1290340000D01*
X276810000Y-609905500D02*
X276180000Y-614340000D01*
X738700000Y-1150962300D02*
X738700000Y-1165630000D01*
X65020000Y-262294500D02*
X65020000Y-251590000D01*
X134050000Y-262094300D02*
X135090000Y-252390000D01*
X551640000Y-740000000D02*
X551630000Y-732250000D01*
X406130000Y-265395700D02*
X399000000Y-280330000D01*
X628020000Y-660205200D02*
X634730000Y-659920000D01*
X374810000Y-1426478800D02*
X339280000Y-1431670000D01*
X332920000Y-79414400D02*
X339890000Y-81400000D01*
X137200000Y-1376924600D02*
X126660000Y-1368580000D01*
X683160000Y-768271500D02*
X680290000Y-775330000D01*
X86700000Y-880957600D02*
X87290000Y-856050000D01*
X272400000Y-1080703100D02*
X275090000Y-1088310000D01*
X591080000Y-712674000D02*
X599760000Y-706580000D01*
X334030000Y-524433200D02*
X330440000Y-543730000D01*
X590680000Y-913082300D02*
X594500000Y-915110000D01*
X504660000Y-759229700D02*
X509770000Y-783150000D01*
X546210000Y-1103756200D02*
X529220000Y-1094590000D01*
X378590000Y-589473100D02*
X379940000Y-554750000D01*
X303470000Y-467437000D02*
X299610000Y-482550000D01*
X714170000Y-753137300D02*
X711950000Y-780740000D01*
X607310000Y-856173500D02*
X588290000Y-846780000D01*
X372710000Y-409617900D02*
X363920000Y-427400000D01*
X314910000Y-352165300D02*
X312050000Y-357720000D01*
X143092593Y-729947892D02*
X141070000Y-691950000D01*
X612320000Y-1012896900D02*
X612800000Y-1013390000D01*
X98480000Y-1059699700D02*
X99820000Y-1031200000D01*
X519610000Y-867694700D02*
X520450000Y-868490000D01*
X380480000Y-74337600D02*
X411260000Y-80360000D01*
X130420000Y-920268200D02*
X133330000Y-893620000D01*
X132950000Y-330054500D02*
X131980000Y-302720000D01*
X162110000Y-324863800D02*
X161020000Y-306730000D01*
X302360000Y-1150353600D02*
X314780000Y-1174620000D01*
X690860000Y-1288366400D02*
X690800000Y-1288370000D01*
X89550000Y-1076541400D02*
X90050000Y-1054860000D01*
X62160000Y-1314951300D02*
X59230000Y-1291180000D01*
X84710000Y-1451340700D02*
X69080000Y-1439330000D01*
X211690000Y-675025800D02*
X207390000Y-688370000D01*
X125500000Y-799110800D02*
X126510000Y-779200000D01*
X312390000Y-1024786200D02*
X312980000Y-1027100000D01*
X277830000Y-531602200D02*
X277230000Y-534860000D01*
X368440000Y-1288242300D02*
X360250000Y-1314470000D01*
X126850000Y-750000000D02*
X110550000Y-740000000D01*
X344680000Y-1302262600D02*
X334680000Y-1322650000D01*
X77800000Y-846619500D02*
X78500000Y-811560000D01*
X67010000Y-537262400D02*
X67010000Y-528850000D01*
X175810000Y-1276256000D02*
X171090000Y-1267510000D01*
X326510000Y-993447600D02*
X332100000Y-1016120000D01*
X331360000Y-290118000D02*
X319860000Y-315560000D01*
X121320000Y-638927300D02*
X119860000Y-625240000D01*
X177910000Y-74082400D02*
X178200000Y-74080000D01*
X143250000Y-1283144000D02*
X142970000Y-1282620000D01*
X98110000Y-834957500D02*
X98350000Y-822960000D01*
X60260000Y-57490000D02*
X60260000Y-79153250D01*
X331340000Y-1349159500D02*
X318740000Y-1356990000D01*
X457190000Y-1092945600D02*
X451350000Y-1085830000D01*
X127000000Y-542254300D02*
X125730000Y-523130000D01*
X579680000Y-570541900D02*
X557850000Y-583360000D01*
X554930000Y-819354800D02*
X548600000Y-812880000D01*
X273970000Y-1049506800D02*
X280360000Y-1065870000D01*
X106590000Y-161085600D02*
X122230000Y-137150000D01*
X528160000Y-740000000D02*
X532560000Y-717350000D01*
X386220000Y-985031600D02*
X383380000Y-969480000D01*
X260340000Y-561000900D02*
X256250000Y-586350000D01*
X93970000Y-938773300D02*
X95050000Y-915600000D01*
X124370000Y-364573000D02*
X122810000Y-347440000D01*
X58090000Y-424051400D02*
X58090000Y-405390000D01*
X255880000Y-1110739900D02*
X265310000Y-1133500000D01*
X532810000Y-1220058200D02*
X532380000Y-1219640000D01*
X126850000Y-760438700D02*
X126850000Y-750000000D01*
X306050000Y-942255400D02*
X307530000Y-951340000D01*
X301830000Y-1435129200D02*
X290950000Y-1435130000D01*
X351520000Y-456847600D02*
X349470000Y-463120000D01*
X143010000Y-288445300D02*
X146040000Y-258830000D01*
X106540000Y-869562200D02*
X106590000Y-867140000D01*
X143730000Y-80094000D02*
X176650000Y-74300000D01*
X452220000Y-70950700D02*
X456110000Y-70950000D01*
X678360000Y-464669700D02*
X672210000Y-486390000D01*
X731150000Y-278842400D02*
X731150000Y-280360000D01*
X52760000Y-782116200D02*
X52760000Y-757330000D01*
X680960000Y-1065099600D02*
X680290000Y-1082290000D01*
X344980000Y-1209146400D02*
X351110000Y-1219900000D01*
X612920000Y-1013560100D02*
X613540000Y-1015080000D01*
X526910000Y-753553500D02*
X526910000Y-750012426D01*
X391250000Y-378682500D02*
X375790000Y-403620000D01*
X421580000Y-570462800D02*
X419760000Y-536710000D01*
X137850000Y-845646300D02*
X140940000Y-810350000D01*
X124980000Y-173918100D02*
X124980000Y-173920000D01*
X505540000Y-1446436600D02*
X481680000Y-1446440000D01*
X357290000Y-415248400D02*
X354230000Y-421430000D01*
X237020000Y-429270400D02*
X231720000Y-442660000D01*
X381410000Y-478673400D02*
X381790000Y-477510000D01*
X430880000Y-1288312300D02*
X430830000Y-1316360000D01*
X482510000Y-728049300D02*
X481800000Y-732910000D01*
X98350000Y-677042200D02*
X98110000Y-665040000D01*
X58900000Y-1015252900D02*
X58900000Y-997520000D01*
X325870000Y-56995900D02*
X345790000Y-57000000D01*
X117720000Y-429249700D02*
X115600000Y-398980000D01*
X585310000Y-932523900D02*
X610520000Y-945870000D01*
X524400000Y-577659600D02*
X506220000Y-584780000D01*
X668280000Y-314700100D02*
X670410000Y-315930000D01*
X315150000Y-789701600D02*
X317170000Y-827470000D01*
X58260000Y-1428511300D02*
X48860000Y-1414590000D01*
X232420000Y-939407600D02*
X235420000Y-953320000D01*
X75750000Y-573310500D02*
X75670000Y-571730000D01*
X90470000Y-226764700D02*
X93940000Y-207770000D01*
X379940000Y-554748800D02*
X380510000Y-551130000D01*
X236890000Y-177286600D02*
X237170000Y-177380000D01*
X246030000Y-835938000D02*
X249560000Y-866300000D01*
X129170000Y-422674300D02*
X128010000Y-406100000D01*
X176190000Y-846380000D02*
X176190000Y-755952008D01*
X130250000Y-1275456100D02*
X125320000Y-1253220000D01*
X322840000Y-1334356700D02*
X301920000Y-1347360000D01*
X211690000Y-438815900D02*
X206910000Y-440630000D01*
X323760000Y-1060351600D02*
X329280000Y-1074090000D01*
X179820000Y-141264400D02*
X183240000Y-140450000D01*
X132030000Y-1052140000D02*
X132860000Y-1040000000D01*
X177350000Y-386382700D02*
X169240000Y-360210000D01*
X186980000Y-153541100D02*
X214900000Y-146930000D01*
X87490000Y-1132274400D02*
X88180000Y-1116770000D01*
X331340000Y-150828600D02*
X352080000Y-171300000D01*
X136090000Y-1128700900D02*
X136560000Y-1121020000D01*
X272450000Y-1249506500D02*
X259090000Y-1288200000D01*
X561380000Y-1037532700D02*
X566520000Y-1048710000D01*
X266370000Y-777758800D02*
X267530000Y-801800000D01*
X360850000Y-1115536300D02*
X377090000Y-1142890000D01*
X291710000Y-1156883800D02*
X301960000Y-1176890000D01*
X271090000Y-843286700D02*
X272250000Y-853270000D01*
X144460000Y-335001800D02*
X143010000Y-310960000D01*
X322530000Y-1021611400D02*
X325790000Y-1032480000D01*
X386320000Y-434690100D02*
X398920000Y-412850000D01*
X286850000Y-1010113600D02*
X293970000Y-1038020000D01*
X189390000Y-54606600D02*
X205580000Y-53580000D01*
X548250000Y-1261865100D02*
X569160000Y-1282490000D01*
X64770000Y-369784300D02*
X64370000Y-341560000D01*
X505540000Y-53563400D02*
X524230000Y-58970000D01*
X273990000Y-104013100D02*
X279120000Y-104400000D01*
X180730000Y-1221484300D02*
X184870000Y-1188640000D01*
X362130000Y-777242400D02*
X362550000Y-750000000D01*
X191930000Y-1407221900D02*
X165650000Y-1401820000D01*
X195200000Y-1253641500D02*
X180850000Y-1225670000D01*
X408970000Y-492647600D02*
X416880000Y-468420000D01*
X78500000Y-811556600D02*
X78650000Y-806690000D01*
X223100000Y-763168200D02*
X223600000Y-776570000D01*
X650090000Y-554302200D02*
X621330000Y-571450000D01*
X683970000Y-732793300D02*
X683160000Y-768270000D01*
X169920000Y-438710400D02*
X167480000Y-428770000D01*
X129340000Y-564648600D02*
X127000000Y-542250000D01*
X52390000Y-663997100D02*
X52390000Y-638780000D01*
X254260000Y-784716500D02*
X254730000Y-794440000D01*
X314450000Y-1065699300D02*
X314690000Y-1066270000D01*
X720710000Y-1030268100D02*
X721590000Y-1047950000D01*
X66460000Y-489088200D02*
X65910000Y-459010000D01*
X65340000Y-1090447800D02*
X65340000Y-1080110000D01*
X290950000Y-64868500D02*
X301830000Y-64870000D01*
X187740000Y-1426572600D02*
X180090000Y-1426070000D01*
X338930000Y-566695600D02*
X337150000Y-579330000D01*
X259080000Y-505834800D02*
X256010000Y-519070000D01*
X77900000Y-145330700D02*
X80190000Y-140990000D01*
X282340000Y-1356987400D02*
X260460000Y-1363110000D01*
X246940000Y-332742400D02*
X233960000Y-349550000D01*
X339210000Y-499258600D02*
X334030000Y-524430000D01*
X318030000Y-550866200D02*
X317560000Y-554420000D01*
X555560000Y-893364600D02*
X588450000Y-911810000D01*
X183240000Y-140454700D02*
X213460000Y-134460000D01*
X413960000Y-1151717000D02*
X416380000Y-1155160000D01*
X393930000Y-374291100D02*
X391250000Y-378680000D01*
X421820000Y-1040924200D02*
X416040000Y-1028360000D01*
X79770000Y-105716100D02*
X83400000Y-102050000D01*
X144870000Y-336899400D02*
X144460000Y-335000000D01*
X343400000Y-727038500D02*
X343442040Y-734741099D01*
X672210000Y-486387800D02*
X662840000Y-506320000D01*
X166230000Y-519723000D02*
X162330000Y-504700000D01*
X423810000Y-424437900D02*
X429540000Y-416280000D01*
X701090000Y-399857600D02*
X702130000Y-417710000D01*
X268760000Y-1446227300D02*
X245130000Y-1446230000D01*
X303480000Y-1032558300D02*
X314340000Y-1065350000D01*
X96530000Y-156491500D02*
X103780000Y-142730000D01*
X719990000Y-383375200D02*
X720910000Y-401400000D01*
X70840000Y-180914400D02*
X70840000Y-177790000D01*
X107530000Y-1382866400D02*
X104450000Y-1380430000D01*
X105480000Y-163080300D02*
X105860000Y-162090000D01*
X141050000Y-1347801600D02*
X126830000Y-1329340000D01*
X384550000Y-790119700D02*
X385120000Y-788440000D01*
X82540000Y-1277787500D02*
X80330000Y-1246490000D01*
X486870000Y-596740500D02*
X464080000Y-601210000D01*
X386090000Y-298471400D02*
X377530000Y-313730000D01*
X106030000Y-1419773500D02*
X101970000Y-1416340000D01*
X161060000Y-1193245400D02*
X162150000Y-1175160000D01*
X88030000Y-1313998300D02*
X84540000Y-1288290000D01*
X668750000Y-659036100D02*
X677510000Y-665130000D01*
X478480000Y-1177312600D02*
X462070000Y-1163070000D01*
X106540000Y-1434020900D02*
X95230000Y-1434020000D01*
X707890000Y-584764800D02*
X698440000Y-589180000D01*
X368420000Y-211687700D02*
X366910000Y-226260000D01*
X200380000Y-44525000D02*
X234620000Y-44530000D01*
X267810000Y-93260700D02*
X284790000Y-94540000D01*
X245090000Y-163264800D02*
X274230000Y-173110000D01*
X99810000Y-468796500D02*
X98470000Y-440310000D01*
X51580000Y-546128400D02*
X51580000Y-519980000D01*
X419880000Y-461787200D02*
X422080000Y-457110000D01*
X136660000Y-1323570000D02*
X134090000Y-1317440000D01*
X116720000Y-587601500D02*
X114480000Y-556110000D01*
X255680000Y-1427863300D02*
X219020000Y-1428310000D01*
X423280000Y-1206152000D02*
X435300000Y-1219640000D01*
X509740000Y-716866800D02*
X504650000Y-740770000D01*
X402260000Y-896933100D02*
X403200000Y-879720000D01*
X478040000Y-1219637300D02*
X487210000Y-1230790000D01*
X131060000Y-86297700D02*
X143730000Y-80090000D01*
X43850000Y-1264986700D02*
X43570000Y-1260720000D01*
X390390000Y-108675000D02*
X394050000Y-110320000D01*
X272900000Y-1245819000D02*
X272450000Y-1249510000D01*
X305120000Y-1100110800D02*
X308480000Y-1108710000D01*
X416040000Y-1028359900D02*
X409990000Y-1011480000D01*
X406460000Y-1121862400D02*
X406640000Y-1122130000D01*
X59240000Y-208828400D02*
X62030000Y-185730000D01*
X137770000Y-1362653000D02*
X133220000Y-1356170000D01*
X621250000Y-1356987400D02*
X621020000Y-1372790000D01*
X317570000Y-945571200D02*
X318040000Y-949140000D01*
X71030000Y-1323845900D02*
X71030000Y-1320040000D01*
X238940000Y-243297700D02*
X240210000Y-271800000D01*
X641580000Y-383375200D02*
X654710000Y-411920000D01*
X344390000Y-292112800D02*
X334300000Y-314450000D01*
X385120000Y-788439700D02*
X388150000Y-750000000D01*
X310330000Y-361734000D02*
X297800000Y-387080000D01*
X470420000Y-1425662400D02*
X456110000Y-1429050000D01*
X352300000Y-376271900D02*
X351360000Y-378270000D01*
X349850000Y-572032400D02*
X355360000Y-536690000D01*
X97680000Y-1346742300D02*
X94750000Y-1334070000D01*
X256130000Y-209377100D02*
X271340000Y-243150000D01*
X333430000Y-879089500D02*
X335270000Y-895960000D01*
X720880000Y-1098656200D02*
X719970000Y-1116620000D01*
X117800000Y-902536900D02*
X119860000Y-874760000D01*
X110030000Y-711332900D02*
X109950000Y-709820000D01*
X210130000Y-1299717100D02*
X197860000Y-1293270000D01*
X167520000Y-1071202600D02*
X169960000Y-1061310000D01*
X125320000Y-1253216600D02*
X122990000Y-1231560000D01*
X637280000Y-914061900D02*
X664550000Y-925910000D01*
X420690000Y-840658600D02*
X464700000Y-898800000D01*
X491760000Y-1146920100D02*
X470840000Y-1129090000D01*
X416040000Y-1063579100D02*
X408520000Y-1049370000D01*
X100030000Y-478856700D02*
X99810000Y-468800000D01*
X573580000Y-213576200D02*
X569110000Y-217600000D01*
X263960000Y-484188400D02*
X259080000Y-505830000D01*
X274030000Y-44590200D02*
X279520000Y-44970000D01*
X67530000Y-138370900D02*
X67530000Y-138370000D01*
X445130000Y-333300400D02*
X431880000Y-348270000D01*
X211690000Y-577165500D02*
X197520000Y-603810000D01*
X68250000Y-891552200D02*
X68250000Y-884560000D01*
X312170000Y-906324600D02*
X312540000Y-909020000D01*
X293040000Y-1250494200D02*
X290750000Y-1274330000D01*
X61040000Y-698472700D02*
X61040000Y-683190000D01*
X422800000Y-1121054800D02*
X411200000Y-1106320000D01*
X312390000Y-475218600D02*
X304410000Y-507430000D01*
X44210000Y-708139100D02*
X44210000Y-673530000D01*
X262260000Y-152272200D02*
X286120000Y-160890000D01*
X43860000Y-984450100D02*
X43860000Y-949440000D01*
X511840000Y-243429400D02*
X510250000Y-246030000D01*
X345030000Y-850911200D02*
X344630000Y-846080000D01*
X314450000Y-750143000D02*
X314700000Y-765700000D01*
X568300000Y-974916600D02*
X587030000Y-989640000D01*
X726700000Y-844362700D02*
X721760000Y-858700000D01*
X586590000Y-74337600D02*
X604830000Y-86730000D01*
X213860000Y-492363800D02*
X213150000Y-494450000D01*
X358350000Y-1386462500D02*
X354170000Y-1388910000D01*
X155810000Y-227840400D02*
X169890000Y-200230000D01*
X244990000Y-829480800D02*
X246030000Y-835940000D01*
X518410000Y-948976800D02*
X551030000Y-964930000D01*
X64780000Y-1119230200D02*
X65340000Y-1090450000D01*
X71890000Y-1375012700D02*
X68450000Y-1364670000D01*
X583120000Y-1253974900D02*
X560690000Y-1240200000D01*
X646860000Y-1158845000D02*
X623980000Y-1171910000D01*
X132230000Y-290198200D02*
X134050000Y-262090000D01*
X690900000Y-1288312300D02*
X690860000Y-1288370000D01*
X701660000Y-452050200D02*
X698470000Y-473090000D01*
X94580000Y-1191984200D02*
X94600000Y-1175800000D01*
X378880000Y-865751500D02*
X381380000Y-830040000D01*
X267520000Y-698208200D02*
X266360000Y-722240000D01*
X110710000Y-750000000D02*
X99630000Y-740000000D01*
X678140000Y-902007300D02*
X696940000Y-910200000D01*
X362400000Y-698506700D02*
X361400000Y-683730000D01*
X81600000Y-449992700D02*
X80880000Y-418480000D01*
X148580000Y-1042635200D02*
X155810000Y-1013740000D01*
X169230000Y-863668600D02*
X176190000Y-846380000D01*
X79290000Y-183074000D02*
X81910000Y-174810000D01*
X291910000Y-697463300D02*
X290670000Y-724360000D01*
X367040000Y-328893100D02*
X359160000Y-342830000D01*
X440370000Y-50316400D02*
X467960000Y-50320000D01*
X330560000Y-680219800D02*
X329390000Y-702120000D01*
X320090000Y-634764200D02*
X317210000Y-669670000D01*
X137330000Y-137723700D02*
X143820000Y-134190000D01*
X287900000Y-537383500D02*
X282380000Y-571340000D01*
X150610000Y-1129086200D02*
X153910000Y-1118460000D01*
X280470000Y-300522700D02*
X278160000Y-306390000D01*
X680250000Y-1047949800D02*
X680960000Y-1065100000D01*
X548560000Y-687098300D02*
X555300000Y-680070000D01*
X689790000Y-349037700D02*
X690310000Y-349940000D01*
X430770000Y-1016548800D02*
X427450000Y-1001320000D01*
X84320000Y-212543700D02*
X87580000Y-188250000D01*
X470780000Y-681867300D02*
X459370000Y-706350000D01*
X542430000Y-108675000D02*
X548230000Y-116600000D01*
X594500000Y-915108900D02*
X623990000Y-929980000D01*
X366660000Y-158021900D02*
X381470000Y-177350000D01*
X89200000Y-721742600D02*
X88940000Y-699220000D01*
X599920000Y-1171894000D02*
X584180000Y-1171290000D01*
X452050000Y-757577500D02*
X456330000Y-786980000D01*
X43620000Y-432366000D02*
X43620000Y-397080000D01*
X311450000Y-251703800D02*
X305220000Y-277290000D01*
X552610000Y-586304500D02*
X530260000Y-599030000D01*
X556370000Y-1328896900D02*
X560080000Y-1356990000D01*
X43480000Y-278663700D02*
X43570000Y-274610000D01*
X314700000Y-1032281000D02*
X323760000Y-1060350000D01*
X61040000Y-816806500D02*
X61040000Y-801530000D01*
X435700000Y-1064613400D02*
X426190000Y-1049810000D01*
X242650000Y-590283900D02*
X241800000Y-594650000D01*
X376470000Y-1359055800D02*
X373260000Y-1360500000D01*
X522820000Y-1270492100D02*
X534780000Y-1285320000D01*
X58100000Y-1094605600D02*
X58100000Y-1075950000D01*
X302470000Y-757025100D02*
X302880000Y-782650000D01*
X74340000Y-988942600D02*
X74800000Y-967210000D01*
X95760000Y-68289300D02*
X98850000Y-66190000D01*
X443970000Y-1185267100D02*
X462410000Y-1205290000D01*
X347490000Y-1090091800D02*
X360850000Y-1115540000D01*
X104690000Y-589935700D02*
X103100000Y-555980000D01*
X621820000Y-692644800D02*
X624620000Y-691450000D01*
X658810000Y-630471200D02*
X688480000Y-627610000D01*
X520730000Y-840655700D02*
X538390000Y-858690000D01*
X77640000Y-649494900D02*
X76770000Y-613340000D01*
X94750000Y-1334065900D02*
X88030000Y-1314000000D01*
X65330000Y-419894100D02*
X65330000Y-409550000D01*
X408850000Y-211687700D02*
X403440000Y-231330000D01*
X457720000Y-477662700D02*
X477010000Y-446090000D01*
X78780000Y-298940200D02*
X78860000Y-293790000D01*
X635190000Y-912807900D02*
X637280000Y-914060000D01*
X167480000Y-428772700D02*
X159280000Y-405380000D01*
X522460000Y-1238083700D02*
X541880000Y-1253970000D01*
X211690000Y-999771900D02*
X213130000Y-1005560000D01*
X444160000Y-314700100D02*
X437850000Y-320620000D01*
X339280000Y-1431670300D02*
X332380000Y-1431670000D01*
X487210000Y-1230790400D02*
X510240000Y-1253970000D01*
X718340000Y-486387800D02*
X710540000Y-520700000D01*
X334680000Y-1322649900D02*
X322840000Y-1334360000D01*
X86710000Y-1171272500D02*
X87080000Y-1156850000D01*
X44210000Y-791860800D02*
X44250000Y-787000000D01*
X324580000Y-586550500D02*
X323750000Y-597420000D01*
X608740000Y-643686400D02*
X624810000Y-636760000D01*
X387430000Y-362841000D02*
X378110000Y-378070000D01*
X403460000Y-1268704600D02*
X408860000Y-1288310000D01*
X108680000Y-473175900D02*
X106900000Y-435460000D01*
X115610000Y-1101014300D02*
X117730000Y-1070760000D01*
X464890000Y-1185290000D02*
X470440000Y-1191310000D01*
X462410000Y-294711400D02*
X444160000Y-314700000D01*
X53220000Y-190550700D02*
X53220000Y-166670000D01*
X739630000Y-1029889600D02*
X740530000Y-1047950000D01*
X329660000Y-1253511100D02*
X330310000Y-1275490000D01*
X114480000Y-556112000D02*
X113820000Y-549820000D01*
X263450000Y-290550500D02*
X254920000Y-315280000D01*
X714820000Y-349037700D02*
X719040000Y-368600000D01*
X449830000Y-348888300D02*
X452410000Y-345980000D01*
X51100000Y-467510900D02*
X51100000Y-440820000D01*
X362130000Y-722760400D02*
X362400000Y-698510000D01*
X459570000Y-1017050700D02*
X450380000Y-992170000D01*
X518030000Y-948769500D02*
X518410000Y-948980000D01*
X650600000Y-553842500D02*
X650260000Y-554180000D01*
X486390000Y-780330000D02*
X494040000Y-804770000D01*
X538910000Y-1008932200D02*
X551110000Y-1014500000D01*
X378360000Y-1144757700D02*
X379660000Y-1146470000D01*
X329490000Y-1287658600D02*
X313940000Y-1318450000D01*
X362470000Y-880342500D02*
X361100000Y-855540000D01*
X736870000Y-520725400D02*
X730010000Y-554590000D01*
X292940000Y-243994400D02*
X289820000Y-266440000D01*
X358340000Y-113523800D02*
X385260000Y-125630000D01*
X399160000Y-1253974900D02*
X403460000Y-1268700000D01*
X352680000Y-453769500D02*
X351520000Y-456850000D01*
X435060000Y-384783100D02*
X436990000Y-382360000D01*
X71850000Y-373849700D02*
X71330000Y-337560000D01*
X161940000Y-268743600D02*
X166540000Y-244990000D01*
X623950000Y-328128700D02*
X646890000Y-341200000D01*
X244090000Y-1223073800D02*
X244500000Y-1224600000D01*
X124380000Y-1135422200D02*
X125670000Y-1114760000D01*
X278480000Y-770801100D02*
X280340000Y-809150000D01*
X280360000Y-913703500D02*
X282100000Y-926500000D01*
X91340000Y-483843800D02*
X90910000Y-463680000D01*
X348530000Y-1065012000D02*
X355330000Y-1080740000D01*
X414400000Y-653293000D02*
X413810000Y-649150000D01*
X167490000Y-1150105900D02*
X169230000Y-1139780000D01*
X99820000Y-1031197900D02*
X100040000Y-1021150000D01*
X84200000Y-538718300D02*
X83710000Y-527670000D01*
X294220000Y-935460500D02*
X297720000Y-956980000D01*
X52620000Y-796693900D02*
X52760000Y-782120000D01*
X239950000Y-1029601200D02*
X246030000Y-1043130000D01*
X86900000Y-1210827000D02*
X86680000Y-1196520000D01*
X137430000Y-648183600D02*
X134120000Y-617050000D01*
X282350000Y-177350100D02*
X302830000Y-200040000D01*
X73310000Y-454754600D02*
X73310000Y-453580000D01*
X624810000Y-636762100D02*
X644650000Y-630790000D01*
X280360000Y-434106700D02*
X273960000Y-450490000D01*
X336500000Y-1091972800D02*
X345430000Y-1110200000D01*
X348340000Y-1185804900D02*
X353210000Y-1196530000D01*
X594290000Y-585046000D02*
X588240000Y-588220000D01*
X645620000Y-486387800D02*
X626620000Y-511930000D01*
X79630000Y-1394873800D02*
X71890000Y-1375010000D01*
X212510000Y-572969700D02*
X211690000Y-577170000D01*
X80520000Y-411170500D02*
X79780000Y-378410000D01*
X103430000Y-1141433000D02*
X104970000Y-1107130000D01*
X157190000Y-112798000D02*
X161600000Y-110270000D01*
X347120000Y-1270037200D02*
X349120000Y-1288040000D01*
X513110000Y-793818700D02*
X520730000Y-805520000D01*
X251490000Y-437585900D02*
X246030000Y-456900000D01*
X308700000Y-628221100D02*
X307870000Y-635590000D01*
X712170000Y-720249000D02*
X714190000Y-748440000D01*
X360250000Y-1314472600D02*
X358140000Y-1322650000D01*
X80330000Y-253505200D02*
X82550000Y-222220000D01*
X513690000Y-383375200D02*
X544560000Y-369070000D01*
X103110000Y-944025200D02*
X104700000Y-910060000D01*
X160250000Y-1213509500D02*
X161060000Y-1193250000D01*
X158910000Y-171477500D02*
X164160000Y-165720000D01*
X276180000Y-614344700D02*
X272240000Y-646720000D01*
X301740000Y-979225600D02*
X304420000Y-992570000D01*
X315140000Y-789189600D02*
X315150000Y-789700000D01*
X65020000Y-251594500D02*
X66940000Y-221750000D01*
X298130000Y-622147500D02*
X295830000Y-642510000D01*
X57410000Y-1173891600D02*
X57410000Y-1154440000D01*
X330310000Y-220880100D02*
X329860000Y-245040000D01*
X457210000Y-479886600D02*
X457720000Y-477660000D01*
X140170000Y-534686600D02*
X139950000Y-531300000D01*
X336410000Y-1222567500D02*
X346630000Y-1253400000D01*
X138060000Y-174960700D02*
X154790000Y-156610000D01*
X367940000Y-956085400D02*
X364910000Y-936620000D01*
X78780000Y-1201058200D02*
X78820000Y-1166740000D01*
X513170000Y-383670200D02*
X513420000Y-383520000D01*
X437200000Y-1030501700D02*
X430770000Y-1016550000D01*
X65910000Y-459006700D02*
X65910000Y-449330000D01*
X526410000Y-545916400D02*
X489870000Y-556930000D01*
X314340000Y-1065346200D02*
X314450000Y-1065700000D01*
X395420000Y-446984400D02*
X408190000Y-421920000D01*
X186910000Y-127575700D02*
X207360000Y-123520000D01*
X544540000Y-1130970000D02*
X516220000Y-1118080000D01*
X156580000Y-604150000D02*
X147210000Y-574910000D01*
X361090000Y-644468000D02*
X362450000Y-619650000D01*
X307540000Y-54921000D02*
X325870000Y-57000000D01*
X313820000Y-181270400D02*
X329310000Y-211640000D01*
X305660000Y-665916100D02*
X304730000Y-676840000D01*
X132960000Y-1169940000D02*
X133350000Y-1158620000D01*
X66940000Y-213248700D02*
X70840000Y-180910000D01*
X503060000Y-681259600D02*
X494000000Y-695210000D01*
X592466434Y-749937162D02*
X592466434Y-738661076D01*
X227140000Y-681960100D02*
X225360000Y-698690000D01*
X184870000Y-1188645000D02*
X184870000Y-1188640000D01*
X203810000Y-163527000D02*
X228470000Y-161930000D01*
X289810000Y-74337600D02*
X296120000Y-74810000D01*
X604820000Y-1413252800D02*
X586560000Y-1425660000D01*
X497700000Y-1150962300D02*
X494830000Y-1149090000D01*
X117320000Y-232623700D02*
X122770000Y-209130000D01*
X402590000Y-1093203700D02*
X387910000Y-1068380000D01*
X720910000Y-401399600D02*
X721860000Y-417710000D01*
X329860000Y-245040700D02*
X325100000Y-259640000D01*
X445270000Y-1410176100D02*
X420310000Y-1415930000D01*
X412390000Y-1214943600D02*
X415220000Y-1218850000D01*
X496520000Y-285419500D02*
X485040000Y-295290000D01*
X620420000Y-1391325000D02*
X604820000Y-1413250000D01*
X739630000Y-1013612200D02*
X739630000Y-1029890000D01*
X585330000Y-1197303800D02*
X554450000Y-1185300000D01*
X375790000Y-403620500D02*
X372710000Y-409620000D01*
X103430000Y-358570200D02*
X103330000Y-352480000D01*
X381310000Y-672299700D02*
X381370000Y-669960000D01*
X727740000Y-657211000D02*
X735800000Y-682170000D01*
X300980000Y-287105500D02*
X292010000Y-309850000D01*
X515360000Y-1117621100D02*
X514610000Y-1117200000D01*
X239360000Y-753828900D02*
X240580000Y-786320000D01*
X153910000Y-1118462600D02*
X159300000Y-1094630000D01*
X541990000Y-698342700D02*
X548560000Y-687100000D01*
X604830000Y-86726700D02*
X620450000Y-108680000D01*
X294210000Y-564545400D02*
X292240000Y-579320000D01*
X305860000Y-313317300D02*
X301160000Y-324920000D01*
X408520000Y-1049373800D02*
X403480000Y-1038450000D01*
X532760000Y-1151484800D02*
X531950000Y-1150960000D01*
X503240000Y-1219637300D02*
X522460000Y-1238080000D01*
X445270000Y-89825900D02*
X469910000Y-101740000D01*
X740820000Y-399364200D02*
X740820000Y-417710000D01*
X361400000Y-683730700D02*
X362100000Y-658890000D01*
X234620000Y-44525000D02*
X239860000Y-44590000D01*
X141720000Y-69502700D02*
X172320000Y-64340000D01*
X141060000Y-808044900D02*
X142980000Y-769740000D01*
X394050000Y-110320800D02*
X397250000Y-112600000D01*
X698080000Y-383375200D02*
X701090000Y-399860000D01*
X451660000Y-968136000D02*
X478400000Y-943730000D01*
X309330000Y-1286958800D02*
X303580000Y-1298340000D01*
X286840000Y-489888600D02*
X285230000Y-496410000D01*
X180850000Y-1225666900D02*
X180730000Y-1221480000D01*
X183800000Y-64344500D02*
X210770000Y-62630000D01*
X181299384Y-729887487D02*
X181359789Y-729947892D01*
X176650000Y-74295500D02*
X177910000Y-74080000D01*
X345020000Y-649081300D02*
X346470000Y-613420000D01*
X398850000Y-956109900D02*
X399380000Y-938030000D01*
X272240000Y-646723300D02*
X271080000Y-656720000D01*
X258100000Y-664173000D02*
X256920000Y-677370000D01*
X50430000Y-310119800D02*
X50430000Y-282660000D01*
X398920000Y-412850100D02*
X407000000Y-399810000D01*
X640400000Y-1238762000D02*
X623190000Y-1239230000D01*
X403200000Y-879719800D02*
X413790000Y-850860000D01*
X448760000Y-519555200D02*
X449420000Y-516490000D01*
X494040000Y-804773900D02*
X503160000Y-818800000D01*
X227180000Y-306128100D02*
X217040000Y-324710000D01*
X486520000Y-1163300500D02*
X472350000Y-1150990000D01*
X354170000Y-111086700D02*
X358340000Y-113520000D01*
X122960000Y-837093400D02*
X124470000Y-819810000D01*
X640420000Y-261265700D02*
X661970000Y-261940000D01*
X211690000Y-824875400D02*
X214560000Y-846960000D01*
X311400000Y-236669200D02*
X312460000Y-244430000D01*
X499820000Y-424988200D02*
X509850000Y-416810000D01*
X570700000Y-553033400D02*
X540890000Y-567620000D01*
X711950000Y-780739000D02*
X708600000Y-791210000D01*
X94380000Y-1293882000D02*
X90460000Y-1273240000D01*
X422230000Y-358537000D02*
X405890000Y-379630000D01*
X169960000Y-1061309200D02*
X169960000Y-1061310000D01*
X493560000Y-655509900D02*
X486390000Y-666570000D01*
X57390000Y-286652300D02*
X57870000Y-266400000D01*
X81610000Y-1050011100D02*
X82010000Y-1041420000D01*
X202110000Y-1112607300D02*
X211690000Y-1113180000D01*
X71030000Y-1320043000D02*
X66920000Y-1286760000D01*
X522130000Y-1406634800D02*
X500090000Y-1414380000D01*
X307870000Y-635590500D02*
X305660000Y-665920000D01*
X108730000Y-473919200D02*
X108720000Y-473860000D01*
X442080000Y-143012600D02*
X448150000Y-153490000D01*
X338860000Y-461167100D02*
X332090000Y-483870000D01*
X468770000Y-372631100D02*
X491060000Y-353660000D01*
X380510000Y-551130400D02*
X382780000Y-534040000D01*
X87290000Y-643950600D02*
X86700000Y-619040000D01*
X419290000Y-534185300D02*
X426100000Y-502510000D01*
X108720000Y-473862200D02*
X108680000Y-473180000D01*
X740820000Y-436076000D02*
X740560000Y-452050000D01*
X284460000Y-1043480400D02*
X286380000Y-1049290000D01*
X325570000Y-468162000D02*
X322530000Y-478380000D01*
X263480000Y-1437045300D02*
X250410000Y-1437050000D01*
X701070000Y-1100108300D02*
X698050000Y-1116620000D01*
X140190000Y-965321300D02*
X143010000Y-938290000D01*
X259080000Y-994163500D02*
X263960000Y-1015810000D01*
X131730000Y-126648300D02*
X157190000Y-112800000D01*
X343400000Y-734776099D02*
X343446964Y-734823063D01*
X155010000Y-45900200D02*
X161130000Y-44870000D01*
X293970000Y-1038019400D02*
X300360000Y-1057320000D01*
X362850000Y-998455100D02*
X356470000Y-971210000D01*
X555160000Y-870614300D02*
X569850000Y-880410000D01*
X405470000Y-1322649900D02*
X400210000Y-1331730000D01*
X420310000Y-1415932500D02*
X411260000Y-1419640000D01*
X131990000Y-1197282500D02*
X132960000Y-1169940000D01*
X72570000Y-415736900D02*
X72570000Y-413710000D01*
X263960000Y-1015812500D02*
X271480000Y-1040730000D01*
X306040000Y-557750900D02*
X302380000Y-585150000D01*
X401700000Y-1177786200D02*
X407770000Y-1184740000D01*
X266920000Y-974663600D02*
X273340000Y-1002360000D01*
X335200000Y-1162805300D02*
X348340000Y-1185800000D01*
X61270000Y-777230500D02*
X61270000Y-762210000D01*
X719970000Y-1116624800D02*
X719020000Y-1131360000D01*
X655990000Y-804653000D02*
X624080000Y-808720000D01*
X653660000Y-1154923700D02*
X646860000Y-1158850000D01*
X689240000Y-944936500D02*
X690290000Y-945880000D01*
X344630000Y-846081700D02*
X343970000Y-812080000D01*
X236770000Y-177277600D02*
X236890000Y-177290000D01*
X516200000Y-182348200D02*
X506890000Y-211690000D01*
X349870000Y-927977400D02*
X349830000Y-927040000D01*
X177350000Y-549752200D02*
X166230000Y-519720000D01*
X381450000Y-1322649900D02*
X366640000Y-1341950000D01*
X652490000Y-870505300D02*
X651270000Y-870310000D01*
X170610000Y-199022300D02*
X170610000Y-199020000D01*
X400020000Y-346298200D02*
X387430000Y-362840000D01*
X93940000Y-207769800D02*
X95870000Y-193420000D01*
X87560000Y-264540600D02*
X88910000Y-248570000D01*
X362110000Y-841101400D02*
X361420000Y-816280000D01*
X96620000Y-624740300D02*
X95420000Y-599840000D01*
X265310000Y-1133497400D02*
X279770000Y-1160400000D01*
X673490000Y-1120769400D02*
X655980000Y-1150960000D01*
X655980000Y-1150962300D02*
X653660000Y-1154920000D01*
X685680000Y-1219637300D02*
X661970000Y-1238060000D01*
X332090000Y-483874100D02*
X326490000Y-506560000D01*
X72170000Y-258188100D02*
X72170000Y-255700000D01*
X571510000Y-552568800D02*
X571090000Y-552800000D01*
X348530000Y-1403551300D02*
X326700000Y-1409770000D01*
X708930000Y-915620600D02*
X729700000Y-944940000D01*
X158270000Y-192564000D02*
X168390000Y-181160000D01*
X69450000Y-811973400D02*
X69450000Y-806360000D01*
X450050000Y-1151215100D02*
X431100000Y-1131350000D01*
X434200000Y-108258100D02*
X434630000Y-108360000D01*
X211690000Y-1061245900D02*
X219440000Y-1080820000D01*
X189991026Y-750744915D02*
X190095495Y-750849384D01*
X664550000Y-925912000D02*
X689240000Y-944940000D01*
X122000000Y-1176235500D02*
X122820000Y-1152570000D01*
X43940000Y-589957400D02*
X43940000Y-555040000D01*
X43540000Y-1142411700D02*
X43540000Y-1107030000D01*
X689490000Y-1217305300D02*
X685680000Y-1219640000D01*
X478680000Y-556281200D02*
X457970000Y-550910000D01*
X64370000Y-1169892600D02*
X64370000Y-1158440000D01*
X71290000Y-294640900D02*
X72170000Y-258190000D01*
X98850000Y-66192500D02*
X102390000Y-66190000D01*
X87960000Y-840788500D02*
X88420000Y-817260000D01*
X427060000Y-577867700D02*
X421580000Y-570460000D01*
X335720000Y-409800500D02*
X327810000Y-429560000D01*
X180620000Y-280062200D02*
X180620000Y-304645389D01*
X77630000Y-850504600D02*
X77800000Y-846620000D01*
X278420000Y-768608200D02*
X278480000Y-770800000D01*
X57700000Y-384836600D02*
X57700000Y-365720000D01*
X167694535Y-715218952D02*
X168189111Y-714724376D01*
X136480000Y-497362800D02*
X135970000Y-489570000D01*
X551640000Y-750000000D02*
X528160000Y-740000000D01*
X301960000Y-1176886900D02*
X306840000Y-1189300000D01*
X285230000Y-1003591300D02*
X286850000Y-1010110000D01*
X690310000Y-349942000D02*
X698080000Y-383380000D01*
X413540000Y-412909100D02*
X413540000Y-412910000D01*
X652200000Y-520725400D02*
X638960000Y-533860000D01*
X234500000Y-1151066800D02*
X245360000Y-1164580000D01*
X339290000Y-68326800D02*
X374810000Y-73520000D01*
X147840000Y-1316934800D02*
X141340000Y-1306530000D01*
X511650000Y-1182365700D02*
X486520000Y-1163300000D01*
X314700000Y-925219600D02*
X317570000Y-945570000D01*
X51540000Y-230591900D02*
X51540000Y-204410000D01*
X79510000Y-1127695100D02*
X79790000Y-1121590000D01*
X464700000Y-898800800D02*
X466330000Y-899580000D01*
X292250000Y-920673800D02*
X294220000Y-935460000D01*
X169960000Y-1061309200D02*
X177350000Y-1040570000D01*
X354170000Y-1388906300D02*
X347280000Y-1391320000D01*
X89390000Y-761074200D02*
X89390000Y-750000000D01*
X145420000Y-147504100D02*
X155960000Y-140980000D01*
X223600000Y-723437700D02*
X223100000Y-736830000D01*
X196150000Y-1334967400D02*
X187640000Y-1330930000D01*
X239860000Y-44590200D02*
X274030000Y-44590000D01*
X129670000Y-226048300D02*
X132370000Y-214430000D01*
X566070000Y-1139760300D02*
X544540000Y-1130970000D01*
X279520000Y-1455026100D02*
X274030000Y-1455410000D01*
X57700000Y-1115164400D02*
X58100000Y-1094610000D01*
X326710000Y-90227000D02*
X348530000Y-96440000D01*
X341660000Y-1010628800D02*
X349040000Y-1035260000D01*
X52110000Y-900824000D02*
X52110000Y-875290000D01*
X287880000Y-381491100D02*
X280640000Y-400070000D01*
X137860000Y-654350900D02*
X137430000Y-648180000D01*
X213150000Y-494448200D02*
X211690000Y-500310000D01*
X740790000Y-1063977200D02*
X740790000Y-1082290000D01*
X73310000Y-453578800D02*
X72570000Y-415740000D01*
X64370000Y-330106300D02*
X64340000Y-302130000D01*
X284450000Y-456513100D02*
X280360000Y-472540000D01*
X67020000Y-971149700D02*
X67020000Y-962740000D01*
X346750000Y-1375989900D02*
X319400000Y-1385600000D01*
X145070000Y-1366999500D02*
X140320000Y-1364680000D01*
X576050000Y-519529200D02*
X558530000Y-529150000D01*
X552180000Y-891452800D02*
X555560000Y-893360000D01*
X721830000Y-1082287200D02*
X720880000Y-1098660000D01*
X286270000Y-1287040500D02*
X269500000Y-1306880000D01*
X303480000Y-704111600D02*
X302870000Y-717350000D01*
X122970000Y-268455800D02*
X125300000Y-246770000D01*
X72570000Y-413707600D02*
X71850000Y-376710000D01*
X264120000Y-1212735600D02*
X272900000Y-1245820000D01*
X126660000Y-1368577100D02*
X107910000Y-1341850000D01*
X626620000Y-511931800D02*
X618020000Y-520690000D01*
X50860000Y-1071792100D02*
X51110000Y-1059180000D01*
X494830000Y-1149092300D02*
X491760000Y-1146920000D01*
X434630000Y-1391647200D02*
X434200000Y-1391750000D01*
X448150000Y-153485600D02*
X457690000Y-177350000D01*
X349040000Y-993973800D02*
X351600000Y-1004920000D01*
X98450000Y-127118300D02*
X98450000Y-127120000D01*
X483250000Y-161051100D02*
X486810000Y-177350000D01*
X403200000Y-620280900D02*
X402250000Y-603060000D01*
X332100000Y-1016120100D02*
X339330000Y-1040260000D01*
X94580000Y-308013200D02*
X94940000Y-284560000D01*
X343400000Y-772958800D02*
X343280000Y-750000000D01*
X134910000Y-140402800D02*
X137330000Y-137720000D01*
X60260000Y-57492800D02*
X72970000Y-57490000D01*
X553950000Y-179389200D02*
X537840000Y-211690000D01*
X416880000Y-468422300D02*
X419880000Y-461790000D01*
X449360000Y-748453300D02*
X449360000Y-751550000D01*
X635770000Y-587260900D02*
X632580000Y-588590000D01*
X94590000Y-324198900D02*
X94580000Y-308010000D01*
X641610000Y-1116624800D02*
X636610000Y-1125240000D01*
X51340000Y-993181600D02*
X51580000Y-980020000D01*
X274950000Y-1009497700D02*
X280360000Y-1027420000D01*
X345790000Y-56995900D02*
X367110000Y-60110000D01*
X287570000Y-883918700D02*
X288440000Y-892700000D01*
X435300000Y-1391325000D02*
X434630000Y-1391650000D01*
X68450000Y-1364666200D02*
X68450000Y-1358680000D01*
X273340000Y-1002355900D02*
X274950000Y-1009500000D01*
X43780000Y-476060100D02*
X43700000Y-471760000D01*
X143820000Y-134192000D02*
X167640000Y-120550000D01*
X512710000Y-833493600D02*
X520730000Y-840660000D01*
X703350000Y-809925600D02*
X699070000Y-820730000D01*
X295100000Y-1133491500D02*
X302360000Y-1150350000D01*
X454380000Y-280737000D02*
X453220000Y-282010000D01*
X572270000Y-280766500D02*
X572650000Y-280620000D01*
X305220000Y-277292600D02*
X300980000Y-287110000D01*
X405600000Y-503452000D02*
X408970000Y-492650000D01*
X227580000Y-918370900D02*
X232420000Y-939410000D01*
X72970000Y-57492800D02*
X85910000Y-48730000D01*
X482300000Y-191994700D02*
X479240000Y-211690000D01*
X415180000Y-281167800D02*
X410390000Y-287880000D01*
X384180000Y-1272805000D02*
X388460000Y-1288310000D01*
X162380000Y-995264100D02*
X166260000Y-980300000D01*
X518710000Y-177350100D02*
X516200000Y-182350000D01*
X314750000Y-467515800D02*
X312980000Y-472900000D01*
X735650000Y-314700100D02*
X738740000Y-334310000D01*
X721860000Y-417712800D02*
X721950000Y-432210000D01*
X44040000Y-905460000D02*
X44040000Y-870650000D01*
X472420000Y-349037700D02*
X486530000Y-336700000D01*
X297710000Y-543018400D02*
X294210000Y-564550000D01*
X382060000Y-1219507100D02*
X396980000Y-1250530000D01*
X119860000Y-625242600D02*
X117800000Y-597460000D01*
X90040000Y-445149000D02*
X89540000Y-423450000D01*
X260890000Y-640205700D02*
X258100000Y-664170000D01*
X720360000Y-1253974900D02*
X717590000Y-1266210000D01*
X708270000Y-1181312700D02*
X705930000Y-1185300000D01*
X71330000Y-334104900D02*
X71290000Y-298140000D01*
X313900000Y-435710200D02*
X313420000Y-437190000D01*
X360220000Y-253841400D02*
X351050000Y-280220000D01*
X518700000Y-1322649900D02*
X518380000Y-1331430000D01*
X396970000Y-249459700D02*
X382260000Y-280300000D01*
X74620000Y-1282335600D02*
X74340000Y-1278300000D01*
X110710000Y-751170700D02*
X110710000Y-750000000D01*
X235420000Y-546686400D02*
X232420000Y-560590000D01*
X654860000Y-694439600D02*
X669920000Y-705070000D01*
X467390000Y-859524400D02*
X486390000Y-869190000D01*
X66580000Y-1399857700D02*
X57070000Y-1371240000D01*
X652550000Y-1290340100D02*
X650730000Y-1289470000D01*
X670410000Y-1184074300D02*
X668280000Y-1185300000D01*
X714190000Y-748436200D02*
X714170000Y-753140000D01*
X125740000Y-976862700D02*
X127010000Y-957750000D01*
X282320000Y-1322938000D02*
X279480000Y-1324890000D01*
X456110000Y-70950700D02*
X470420000Y-74340000D01*
X288560000Y-1120221700D02*
X295100000Y-1133490000D01*
X172370000Y-1413840700D02*
X152590000Y-1410570000D01*
X72580000Y-1086290000D02*
X72580000Y-1084270000D01*
X484120000Y-246025100D02*
X477630000Y-252550000D01*
X98380000Y-1268691400D02*
X97510000Y-1256360000D01*
X576410000Y-951227600D02*
X584260000Y-955840000D01*
X367270000Y-1148641500D02*
X372120000Y-1157110000D01*
X688480000Y-627614400D02*
X698210000Y-633700000D01*
X650260000Y-554182200D02*
X650090000Y-554300000D01*
X434630000Y-108355600D02*
X435290000Y-108680000D01*
X259040000Y-1288228000D02*
X223770000Y-1301010000D01*
X288590000Y-410732500D02*
X285570000Y-417980000D01*
X356470000Y-971212400D02*
X355370000Y-963310000D01*
X292240000Y-579320700D02*
X288430000Y-607310000D01*
X454790000Y-280362700D02*
X454380000Y-280740000D01*
X298520000Y-1114465500D02*
X312990000Y-1143810000D01*
X195590000Y-208561800D02*
X209060000Y-201150000D01*
X515550000Y-1356987400D02*
X503660000Y-1374480000D01*
X186010000Y-1416645300D02*
X172370000Y-1413840000D01*
X174660000Y-225909200D02*
X195590000Y-208560000D01*
X169240000Y-360213700D02*
X167500000Y-349900000D01*
X171730000Y-86250000D02*
X183710000Y-83560000D01*
X584180000Y-1171294200D02*
X564740000Y-1164470000D01*
X449740000Y-605972100D02*
X438250000Y-600150000D01*
X652550000Y-209674600D02*
X690760000Y-211560000D01*
X399160000Y-246025100D02*
X396970000Y-249460000D01*
X142350000Y-219205500D02*
X158270000Y-192560000D01*
X56510000Y-130578000D02*
X65540000Y-106890000D01*
X304850000Y-1071212700D02*
X314260000Y-1093520000D01*
X505060000Y-1133438100D02*
X483250000Y-1118030000D01*
X745986242Y-738453541D02*
X745986242Y-726778131D01*
X586560000Y-1425662400D02*
X575510000Y-1430910000D01*
X420340000Y-1435446600D02*
X409100000Y-1435450000D01*
X620780000Y-615303400D02*
X618720000Y-616290000D01*
X556410000Y-171033400D02*
X555450000Y-177350000D01*
X602400000Y-1203022200D02*
X585330000Y-1197300000D01*
X166260000Y-980298000D02*
X166260000Y-980300000D01*
X172320000Y-64344500D02*
X183800000Y-64340000D01*
X61270000Y-737785900D02*
X61270000Y-722770000D01*
X133350000Y-1158617800D02*
X136090000Y-1128700000D01*
X80330000Y-1246494700D02*
X79770000Y-1239930000D01*
X612750000Y-947347900D02*
X616090000Y-949780000D01*
X429540000Y-416275600D02*
X445630000Y-396100000D01*
X246030000Y-1125067200D02*
X252530000Y-1140760000D01*
X350940000Y-1120691300D02*
X358990000Y-1134250000D01*
X173890000Y-1435747500D02*
X145200000Y-1431080000D01*
X295010000Y-423890000D02*
X286210000Y-451160000D01*
X415220000Y-1218849300D02*
X415920000Y-1219640000D01*
X584170000Y-590614200D02*
X554120000Y-607500000D01*
X335260000Y-604031000D02*
X333410000Y-620920000D01*
X521550000Y-605467000D02*
X498380000Y-619380000D01*
X615030000Y-481007300D02*
X612850000Y-486390000D01*
X262970000Y-1347461500D02*
X253520000Y-1350830000D01*
X58900000Y-997524900D02*
X59300000Y-975580000D01*
X406690000Y-197700000D02*
X408850000Y-211690000D01*
X44410000Y-195368900D02*
X44410000Y-161110000D01*
X115600000Y-398978800D02*
X114760000Y-391510000D01*
X612800000Y-1013389500D02*
X612920000Y-1013560000D01*
X57400000Y-345559000D02*
X57400000Y-326110000D01*
X729710000Y-555062800D02*
X707890000Y-584760000D01*
X280360000Y-472543200D02*
X274950000Y-490500000D01*
X362550000Y-738038400D02*
X362130000Y-722760000D01*
X680980000Y-434866100D02*
X680270000Y-452050000D01*
X43850000Y-1300013300D02*
X43850000Y-1264990000D01*
X567220000Y-621256500D02*
X555080000Y-629400000D01*
X96580000Y-1111947400D02*
X96890000Y-1098230000D01*
X477010000Y-446086900D02*
X477630000Y-445220000D01*
X360940000Y-1183774900D02*
X362600000Y-1186140000D01*
X568710000Y-699111900D02*
X591180000Y-676450000D01*
X551110000Y-1014503800D02*
X561380000Y-1037530000D01*
X579580000Y-750000000D02*
X551640000Y-740000000D01*
X360360000Y-384905900D02*
X350740000Y-403610000D01*
X668880000Y-901564500D02*
X678140000Y-902010000D01*
X669920000Y-705070000D02*
X682830000Y-729800000D01*
X618240000Y-861222700D02*
X607310000Y-856170000D01*
X512650000Y-666472100D02*
X503060000Y-681260000D01*
X78860000Y-293792500D02*
X79770000Y-260060000D01*
X104800000Y-905554600D02*
X106540000Y-869560000D01*
X281070000Y-1163414100D02*
X282230000Y-1165680000D01*
X462940000Y-1372264200D02*
X435300000Y-1391320000D01*
X69770000Y-732900200D02*
X69770000Y-727660000D01*
X621750000Y-1133890400D02*
X606790000Y-1141980000D01*
X59720000Y-935896700D02*
X59720000Y-919100000D01*
X215130000Y-649412500D02*
X214550000Y-653030000D01*
X269430000Y-578777300D02*
X265720000Y-603540000D01*
X220160000Y-146589800D02*
X253300000Y-149240000D01*
X192050000Y-1112002300D02*
X198750000Y-1056350000D01*
X533660000Y-1152008400D02*
X532760000Y-1151480000D01*
X171970000Y-1302639200D02*
X171900000Y-1302560000D01*
X620240000Y-1082287200D02*
X616610000Y-1090400000D01*
X363930000Y-246025100D02*
X360220000Y-253840000D01*
X267850000Y-276848100D02*
X263450000Y-290550000D01*
X454260000Y-409844600D02*
X454260000Y-409840000D01*
X74710000Y-217317500D02*
X79290000Y-183070000D01*
X82200000Y-1326613700D02*
X79610000Y-1318880000D01*
X216200000Y-1122130700D02*
X222660000Y-1131030000D01*
X280640000Y-400072600D02*
X275090000Y-411690000D01*
X453540000Y-210602600D02*
X453550000Y-211690000D01*
X106870000Y-1066594100D02*
X106910000Y-1064540000D01*
X689210000Y-555032000D02*
X662790000Y-574940000D01*
X51580000Y-519982600D02*
X51340000Y-506820000D01*
X241000000Y-1320871800D02*
X237400000Y-1322170000D01*
X529220000Y-1094589200D02*
X510050000Y-1083810000D01*
X143010000Y-561796100D02*
X140170000Y-534690000D01*
X43860000Y-949438800D02*
X43940000Y-944960000D01*
X363920000Y-427395200D02*
X352680000Y-453770000D01*
X317230000Y-830339900D02*
X320110000Y-865230000D01*
X85400000Y-921146300D02*
X86030000Y-894770000D01*
X60640000Y-840745500D02*
X61040000Y-816810000D01*
X466740000Y-396916700D02*
X477520000Y-387000000D01*
X414890000Y-346685900D02*
X414260000Y-347590000D01*
X227080000Y-91011900D02*
X247210000Y-91280000D01*
X136550000Y-378987300D02*
X136080000Y-371290000D01*
X252740000Y-81652500D02*
X261640000Y-82510000D01*
X521750000Y-630563300D02*
X520070000Y-631580000D01*
X422790000Y-294408200D02*
X408360000Y-314620000D01*
X413810000Y-649147200D02*
X403200000Y-620280000D01*
X590110000Y-629130500D02*
X584970000Y-632030000D01*
X83090000Y-498640000D02*
X82660000Y-488830000D01*
X294130000Y-1352700800D02*
X282340000Y-1356990000D01*
X374880000Y-1069244200D02*
X381610000Y-1082330000D01*
X457690000Y-177350100D02*
X453540000Y-210600000D01*
X478050000Y-280362700D02*
X462410000Y-294710000D01*
X294830000Y-998081100D02*
X299620000Y-1017450000D01*
X620210000Y-417712800D02*
X623710000Y-438200000D01*
X179990000Y-1394127400D02*
X164760000Y-1390690000D01*
X89200000Y-778256900D02*
X89390000Y-761070000D01*
X273090000Y-114904700D02*
X281610000Y-117290000D01*
X253400000Y-745761500D02*
X253410000Y-754240000D01*
X591080000Y-712674000D02*
X591080000Y-712734683D01*
X43780000Y-1023939500D02*
X43780000Y-988840000D01*
X430910000Y-1085451000D02*
X424630000Y-1076930000D01*
X352300000Y-1454334400D02*
X319370000Y-1454330000D01*
X313940000Y-1318445100D02*
X310270000Y-1322700000D01*
X489000000Y-1185299900D02*
X478480000Y-1177310000D01*
X268760000Y-53771200D02*
X285240000Y-54920000D01*
X282230000Y-1165679800D02*
X294310000Y-1196360000D01*
X74820000Y-966667100D02*
X75680000Y-928270000D01*
X321630000Y-1110232600D02*
X331790000Y-1131990000D01*
X309660000Y-303693500D02*
X305860000Y-313320000D01*
X462940000Y-127742200D02*
X477010000Y-143010000D01*
X294820000Y-501916400D02*
X289650000Y-527720000D01*
X662790000Y-574943500D02*
X635770000Y-587260000D01*
X330920000Y-661797800D02*
X330560000Y-680220000D01*
X596660000Y-185070500D02*
X576240000Y-211690000D01*
X630830000Y-589131600D02*
X602610000Y-602730000D01*
X580600819Y-738622881D02*
X580578717Y-738644983D01*
X135970000Y-489568200D02*
X132840000Y-460010000D01*
X467310000Y-640433500D02*
X431860000Y-656540000D01*
X334130000Y-1185241900D02*
X344980000Y-1209150000D01*
X254250000Y-715279300D02*
X253400000Y-745760000D01*
X184030000Y-1359949500D02*
X179310000Y-1357710000D01*
X329400000Y-797887300D02*
X330570000Y-819770000D01*
X156700000Y-1345034900D02*
X140650000Y-1328740000D01*
X64340000Y-1197869700D02*
X64370000Y-1169890000D01*
X589400000Y-783316100D02*
X579580000Y-755640000D01*
X560690000Y-1240197000D02*
X533730000Y-1220800000D01*
X67530000Y-146244300D02*
X67530000Y-138370000D01*
X101550000Y-982572000D02*
X102960000Y-950500000D01*
X398130000Y-583750100D02*
X399360000Y-561960000D01*
X99630000Y-740000000D02*
X99350000Y-715910000D01*
X195580000Y-444917100D02*
X177350000Y-459550000D01*
X65020000Y-1248405900D02*
X65020000Y-1237710000D01*
X320110000Y-865226600D02*
X320370000Y-871590000D01*
X105070000Y-1102929100D02*
X106870000Y-1066590000D01*
X500090000Y-1414384400D02*
X490420000Y-1420100000D01*
X615890000Y-1350116000D02*
X621250000Y-1356990000D01*
X235420000Y-953315300D02*
X244240000Y-985640000D01*
X212750000Y-928112200D02*
X220080000Y-962120000D01*
X239900000Y-283474700D02*
X227180000Y-306130000D01*
X64770000Y-380771200D02*
X64770000Y-369780000D01*
X64370000Y-1158440800D02*
X64780000Y-1130210000D01*
X260350000Y-938996800D02*
X263710000Y-957380000D01*
X510050000Y-1083806300D02*
X502400000Y-1077710000D01*
X195120000Y-1455149800D02*
X161440000Y-1455150000D01*
X166540000Y-244991000D02*
X169570000Y-235890000D01*
X161440000Y-1455149800D02*
X155710000Y-1454220000D01*
X361610000Y-463733700D02*
X352330000Y-492090000D01*
X43480000Y-1221336200D02*
X43480000Y-1185890000D01*
X355370000Y-963306300D02*
X349870000Y-927980000D01*
X237170000Y-177381900D02*
X267560000Y-191540000D01*
X112680000Y-1142143400D02*
X114770000Y-1108500000D01*
X319860000Y-315562100D02*
X318450000Y-318050000D01*
X379660000Y-1146472000D02*
X401700000Y-1177790000D01*
X103330000Y-1147513700D02*
X103430000Y-1141430000D01*
X559670000Y-1056380400D02*
X552800000Y-1054540000D01*
X133330000Y-893618500D02*
X134120000Y-882950000D01*
X189520000Y-93032300D02*
X207800000Y-91810000D01*
X250190000Y-949615200D02*
X256010000Y-980930000D01*
X134070000Y-1389171200D02*
X115560000Y-1374500000D01*
X272250000Y-853268700D02*
X276200000Y-885660000D01*
X623980000Y-1171914600D02*
X599920000Y-1171890000D01*
X301740000Y-520778700D02*
X297710000Y-543020000D01*
X180240000Y-276428700D02*
X194360000Y-249420000D01*
X267530000Y-801798200D02*
X268640000Y-815900000D01*
X342880000Y-963405700D02*
X344060000Y-969800000D01*
X59720000Y-919103300D02*
X60180000Y-896190000D01*
X45240000Y-75240000D02*
X25532871Y-75240000D01*
X554590000Y-314700100D02*
X585350000Y-302740000D01*
X111210000Y-988122500D02*
X111530000Y-985030000D01*
X71300000Y-1201864200D02*
X71330000Y-1165890000D01*
X111510000Y-514961800D02*
X111200000Y-511890000D01*
X147240000Y-925073500D02*
X156580000Y-895850000D01*
X413790000Y-850864200D02*
X414380000Y-846700000D01*
X486390000Y-833347800D02*
X493610000Y-844460000D01*
X117240000Y-1410186100D02*
X102980000Y-1398100000D01*
X378110000Y-378073000D02*
X368080000Y-394260000D01*
X339220000Y-1000750400D02*
X341660000Y-1010630000D01*
X93580000Y-544106300D02*
X92620000Y-522550000D01*
X74800000Y-967208200D02*
X74820000Y-966670000D01*
X43860000Y-550561400D02*
X43860000Y-515550000D01*
X381310000Y-827704300D02*
X383380000Y-797000000D01*
X514110000Y-316055300D02*
X516440000Y-314700000D01*
X44250000Y-740000000D02*
X44250000Y-713000000D01*
X548260000Y-238159200D02*
X541910000Y-246030000D01*
X587070000Y-869375400D02*
X587420000Y-869570000D01*
X467390000Y-859195933D02*
X467390000Y-859524400D01*
X106900000Y-435461500D02*
X106860000Y-433400000D01*
X330570000Y-819772900D02*
X330930000Y-838210000D01*
X580578717Y-738644983D02*
X580600819Y-738667085D01*
X106300000Y-235855700D02*
X108380000Y-224480000D01*
X43570000Y-1225386300D02*
X43480000Y-1221340000D01*
X189180000Y-388202600D02*
X177350000Y-386380000D01*
X373610000Y-433360900D02*
X368780000Y-444690000D01*
X207800000Y-91808800D02*
X227080000Y-91010000D01*
X443620000Y-1043582800D02*
X437200000Y-1030500000D01*
X96940000Y-861593200D02*
X98110000Y-834960000D01*
X237010000Y-1070735500D02*
X246030000Y-1086080000D01*
X314780000Y-1174623800D02*
X318100000Y-1181500000D01*
X485280000Y-1391325000D02*
X476780000Y-1396350000D01*
X634730000Y-659924400D02*
X668750000Y-659040000D01*
X171070000Y-198505500D02*
X173650000Y-196850000D01*
X183710000Y-83560900D02*
X213490000Y-81570000D01*
X43540000Y-357588100D02*
X43480000Y-353560000D01*
X623130000Y-808764800D02*
X592090000Y-787900000D01*
X271290000Y-932709100D02*
X277230000Y-965150000D01*
X460400000Y-1253974900D02*
X466300000Y-1267180000D01*
X128450000Y-1400598800D02*
X107530000Y-1382870000D01*
X290670000Y-775645100D02*
X291920000Y-802530000D01*
X310270000Y-1322699800D02*
X286810000Y-1338790000D01*
X437380000Y-381954800D02*
X460460000Y-359210000D01*
X549360000Y-446094800D02*
X549360000Y-446090000D01*
X130920000Y-146505000D02*
X134910000Y-140400000D01*
X453560000Y-1289369300D02*
X457700000Y-1322650000D01*
X125670000Y-1114758800D02*
X128020000Y-1093890000D01*
X604450000Y-1232688700D02*
X573270000Y-1219640000D01*
X94600000Y-1175803800D02*
X95210000Y-1152180000D01*
X98470000Y-440305200D02*
X98200000Y-428430000D01*
X583180000Y-246025100D02*
X589150000Y-240670000D01*
X589130000Y-1259364600D02*
X583120000Y-1253970000D01*
X530960000Y-823009500D02*
X554580000Y-847180000D01*
X104010000Y-1379796900D02*
X88230000Y-1352610000D01*
X54733250Y-84680000D02*
X48510000Y-84680000D01*
X280330000Y-690814800D02*
X280330000Y-690850000D01*
X282090000Y-573494800D02*
X280360000Y-586220000D01*
X256010000Y-519070100D02*
X250190000Y-550390000D01*
X283510000Y-653196100D02*
X280360000Y-690450000D01*
X285240000Y-1445077700D02*
X268760000Y-1446230000D01*
X279120000Y-1395599200D02*
X273990000Y-1395980000D01*
X87960000Y-659212300D02*
X87290000Y-643950000D01*
X409940000Y-1081030500D02*
X396840000Y-1056280000D01*
X600890000Y-966894000D02*
X617610000Y-979030000D01*
X621480000Y-1203040400D02*
X602400000Y-1203020000D01*
X51830000Y-914573000D02*
X52110000Y-900820000D01*
X608390000Y-555465700D02*
X579680000Y-570540000D01*
X521050000Y-658970400D02*
X512650000Y-666470000D01*
X307880000Y-864418700D02*
X308720000Y-871770000D01*
X542410000Y-1391325000D02*
X522130000Y-1406630000D01*
X351550000Y-495208800D02*
X349040000Y-505950000D01*
X573270000Y-1219637300D02*
X572620000Y-1219420000D01*
X587420000Y-869569900D02*
X615720000Y-882510000D01*
X329290000Y-1150533100D02*
X335200000Y-1162810000D01*
X84820000Y-566480600D02*
X84200000Y-538720000D01*
X382260000Y-280295000D02*
X378760000Y-285220000D01*
X325600000Y-1241259800D02*
X329660000Y-1253510000D01*
X249400000Y-945284600D02*
X250190000Y-949620000D01*
X302390000Y-914847100D02*
X306050000Y-942260000D01*
X74020000Y-493791200D02*
X74020000Y-493430000D01*
X88940000Y-800779400D02*
X89200000Y-778260000D01*
X612850000Y-486387800D02*
X612340000Y-487070000D01*
X294310000Y-1196363400D02*
X305460000Y-1222780000D01*
X370510000Y-1231308800D02*
X381290000Y-1253740000D01*
X286380000Y-1049291800D02*
X295250000Y-1076730000D01*
X89540000Y-423454400D02*
X88700000Y-406470000D01*
X219460000Y-419184600D02*
X211690000Y-438820000D01*
X177350000Y-656440800D02*
X169250000Y-636320000D01*
X717640000Y-233692900D02*
X720440000Y-246030000D01*
X161520000Y-1331270700D02*
X147840000Y-1316930000D01*
X86050000Y-1426965700D02*
X68190000Y-1405050000D01*
X201490000Y-181540100D02*
X236270000Y-177310000D01*
X60260000Y-79153250D02*
X54733250Y-84680000D01*
X480020000Y-1115445200D02*
X474930000Y-1111060000D01*
X367740000Y-1017201100D02*
X362850000Y-998460000D01*
X738740000Y-363774300D02*
X740000000Y-383380000D01*
X305620000Y-1223556400D02*
X312010000Y-1252800000D01*
X374190000Y-340049700D02*
X372050000Y-343820000D01*
X586290000Y-510982600D02*
X576050000Y-519530000D01*
X353210000Y-1196527100D02*
X366390000Y-1219670000D01*
X449360000Y-751546300D02*
X452050000Y-757580000D01*
X280340000Y-809153700D02*
X280340000Y-809180000D01*
X57390000Y-306125500D02*
X57390000Y-286650000D01*
X578330000Y-359195000D02*
X606750000Y-358080000D01*
X282100000Y-926500400D02*
X282390000Y-928670000D01*
X451430000Y-443702200D02*
X465060000Y-427010000D01*
X621020000Y-1372786000D02*
X620420000Y-1391320000D01*
X250090000Y-870667000D02*
X254640000Y-902830000D01*
X173680000Y-130820200D02*
X186910000Y-127580000D01*
X537810000Y-1288312300D02*
X553940000Y-1320630000D01*
X67010000Y-528848600D02*
X66460000Y-498130000D01*
X322530000Y-478383900D02*
X314700000Y-510130000D01*
X111200000Y-511885300D02*
X108730000Y-473920000D01*
X194140000Y-979179900D02*
X211690000Y-999770000D01*
X220090000Y-537882500D02*
X212750000Y-571890000D01*
X280490000Y-338087100D02*
X280070000Y-339080000D01*
X410390000Y-287880700D02*
X393430000Y-311720000D01*
X402150000Y-526433000D02*
X405600000Y-503450000D01*
X142700000Y-1281832700D02*
X135110000Y-1247590000D01*
X414380000Y-846696500D02*
X420690000Y-840660000D01*
X234620000Y-1455473400D02*
X200380000Y-1455470000D01*
X124480000Y-680188400D02*
X122960000Y-662900000D01*
X43480000Y-1181889600D02*
X43480000Y-1146440000D01*
X108090000Y-1313839600D02*
X104870000Y-1304230000D01*
X246030000Y-456895600D02*
X239960000Y-470410000D01*
X221870000Y-370015100D02*
X216210000Y-377870000D01*
X280360000Y-690454300D02*
X280330000Y-690810000D01*
X332560000Y-641922700D02*
X330920000Y-661800000D01*
X58510000Y-1054923800D02*
X58510000Y-1036740000D01*
X462070000Y-1163065700D02*
X453450000Y-1154990000D01*
X418440000Y-246025100D02*
X406130000Y-265400000D01*
X383380000Y-796995700D02*
X384550000Y-790120000D01*
X478400000Y-943727000D02*
X522120000Y-1001360000D01*
X380520000Y-948864600D02*
X379950000Y-945260000D01*
X308720000Y-871770900D02*
X312170000Y-906320000D01*
X84690000Y-1368675800D02*
X78770000Y-1358480000D01*
X721950000Y-432206700D02*
X721620000Y-452050000D01*
X59290000Y-541695400D02*
X59290000Y-524420000D01*
X307520000Y-548653300D02*
X306040000Y-557750000D01*
X579580000Y-755638300D02*
X579580000Y-750000000D01*
X498750000Y-880953800D02*
X520760000Y-894080000D01*
X330930000Y-838210800D02*
X332570000Y-858070000D01*
X200380000Y-1455473400D02*
X195120000Y-1455150000D01*
X461870000Y-1142054600D02*
X439340000Y-1120050000D01*
X548220000Y-1383387700D02*
X542410000Y-1391320000D01*
X430820000Y-183660400D02*
X430870000Y-211690000D01*
X710070000Y-713564600D02*
X712170000Y-720250000D01*
X223480000Y-1366195300D02*
X216010000Y-1365860000D01*
X520730000Y-805523300D02*
X530960000Y-823010000D01*
X511840000Y-1256579600D02*
X522820000Y-1270490000D01*
X612340000Y-487071000D02*
X610320000Y-489120000D01*
X385110000Y-711553600D02*
X384540000Y-709880000D01*
X363140000Y-313037400D02*
X359890000Y-317740000D01*
X126510000Y-720798100D02*
X125510000Y-700890000D01*
X44040000Y-594540000D02*
X43940000Y-589960000D01*
X58900000Y-502476600D02*
X58900000Y-484750000D01*
X532410000Y-280362700D02*
X532830000Y-279960000D01*
X342300000Y-421850300D02*
X332650000Y-446160000D01*
X676990000Y-598410100D02*
X664540000Y-599680000D01*
X460040000Y-338812000D02*
X478470000Y-322680000D01*
X382980000Y-1026006600D02*
X374100000Y-991990000D01*
X308480000Y-1108709300D02*
X313690000Y-1119270000D01*
X51540000Y-1295595000D02*
X51540000Y-1269400000D01*
X239360000Y-746170600D02*
X239360000Y-753830000D01*
X548560000Y-687098300D02*
X548560000Y-687100000D01*
X165240000Y-98482900D02*
X189520000Y-93030000D01*
X180240000Y-276430000D02*
X180620000Y-280062200D01*
X285240000Y-54921000D02*
X307540000Y-54920000D01*
X626900000Y-988547000D02*
X645600000Y-1013600000D01*
X64340000Y-302131200D02*
X64340000Y-290650000D01*
X496510000Y-1214588200D02*
X503240000Y-1219640000D01*
X646890000Y-341202600D02*
X653650000Y-345090000D01*
X276200000Y-885664100D02*
X276830000Y-890090000D01*
X69450000Y-693639500D02*
X69450000Y-688030000D01*
X519990000Y-920620300D02*
X545050000Y-934440000D01*
X348730000Y-313337200D02*
X336690000Y-334490000D01*
X511990000Y-479838100D02*
X523290000Y-465540000D01*
X381470000Y-177350100D02*
X385660000Y-193620000D01*
X555300000Y-680072100D02*
X573480000Y-663440000D01*
X43620000Y-1102921200D02*
X43620000Y-1067630000D01*
X43700000Y-471763000D02*
X43700000Y-436570000D01*
X453490000Y-1218314300D02*
X454370000Y-1219280000D01*
X105860000Y-162088300D02*
X106590000Y-161090000D01*
X50430000Y-282658000D02*
X50720000Y-270510000D01*
X366400000Y-280258800D02*
X352320000Y-305400000D01*
X134120000Y-617052800D02*
X133330000Y-606380000D01*
X83710000Y-527673800D02*
X83090000Y-498640000D01*
X72170000Y-1241811500D02*
X71300000Y-1205360000D01*
X534780000Y-214698100D02*
X522780000Y-229580000D01*
X205580000Y-1446419600D02*
X189810000Y-1445450000D01*
X413580000Y-1087176800D02*
X409940000Y-1081030000D01*
X738700000Y-1165629800D02*
X735600000Y-1185300000D01*
X290450000Y-1415323000D02*
X261640000Y-1417490000D01*
X101970000Y-1416337500D02*
X79630000Y-1394870000D01*
X137330000Y-69502700D02*
X141720000Y-69500000D01*
X721300000Y-640593100D02*
X727740000Y-657210000D01*
X67020000Y-962739300D02*
X67610000Y-931370000D01*
X294580000Y-659556100D02*
X292530000Y-683840000D01*
X406620000Y-1000946400D02*
X402440000Y-975720000D01*
X206180000Y-693994800D02*
X200990000Y-724130000D01*
X413540000Y-412909100D02*
X435060000Y-384780000D01*
X387790000Y-1137214400D02*
X396810000Y-1149090000D01*
X352320000Y-305404200D02*
X348730000Y-313340000D01*
X246030000Y-991345600D02*
X252960000Y-1022130000D01*
X95200000Y-347816400D02*
X94590000Y-324200000D01*
X388450000Y-211687700D02*
X384180000Y-227190000D01*
X467960000Y-1449684000D02*
X440370000Y-1449680000D01*
X275090000Y-411693300D02*
X272400000Y-419290000D01*
X334300000Y-314449600D02*
X327570000Y-326270000D01*
X486390000Y-719602700D02*
X482510000Y-728050000D01*
X542920000Y-1202463100D02*
X516400000Y-1185300000D01*
X387910000Y-1068380600D02*
X385160000Y-1063190000D01*
X52620000Y-821639500D02*
X52620000Y-796690000D01*
X79790000Y-1121591700D02*
X80530000Y-1088830000D01*
X108740000Y-1026071200D02*
X111210000Y-988120000D01*
X302880000Y-782654900D02*
X303490000Y-795880000D01*
X383450000Y-60111200D02*
X409100000Y-64550000D01*
X452410000Y-345975700D02*
X452410000Y-345980000D01*
X592466434Y-738661076D02*
X592445638Y-738640280D01*
X314700000Y-765703200D02*
X315140000Y-789190000D01*
X68900000Y-845488200D02*
X69450000Y-811970000D01*
X232690000Y-100785600D02*
X241690000Y-100900000D01*
X290060000Y-1236848400D02*
X293040000Y-1250490000D01*
X304730000Y-676835700D02*
X303480000Y-704110000D01*
X279120000Y-104399000D02*
X300180000Y-108680000D01*
X66940000Y-221751300D02*
X66940000Y-213250000D01*
X74640000Y-217673800D02*
X74710000Y-217320000D01*
X345700000Y-1086434900D02*
X347490000Y-1090090000D01*
X121470000Y-1191237700D02*
X122000000Y-1176240000D01*
X203850000Y-1387653500D02*
X196730000Y-1386440000D01*
X80190000Y-140986800D02*
X89110000Y-116420000D01*
X158270000Y-192564000D02*
X158270000Y-192560000D01*
X143010000Y-437299800D02*
X140620000Y-416100000D01*
X51110000Y-1059176600D02*
X51110000Y-1032490000D01*
X447890000Y-1106112100D02*
X430910000Y-1085450000D01*
X406900000Y-1122469200D02*
X423740000Y-1143340000D01*
X408360000Y-314621100D02*
X400610000Y-323620000D01*
X592445638Y-738640280D02*
X674425214Y-738640280D01*
X68900000Y-851733900D02*
X68900000Y-845490000D01*
X641610000Y-1202609500D02*
X621480000Y-1203040000D01*
X352300000Y-45665000D02*
X359410000Y-46700000D01*
X69450000Y-806360000D02*
X69770000Y-772340000D01*
X169250000Y-636321500D02*
X165360000Y-624780000D01*
X462410000Y-1205294000D02*
X478040000Y-1219640000D01*
X111530000Y-985029600D02*
X113830000Y-950180000D01*
X88710000Y-1093531400D02*
X89550000Y-1076540000D01*
X318100000Y-1181499400D02*
X319910000Y-1184680000D01*
X43480000Y-1146443800D02*
X43540000Y-1142410000D01*
X372120000Y-1157112800D02*
X391500000Y-1184820000D01*
X86680000Y-303476700D02*
X86900000Y-289180000D01*
X353200000Y-374627900D02*
X352300000Y-376270000D01*
X381610000Y-1082328400D02*
X391610000Y-1099230000D01*
X470420000Y-74337600D02*
X490420000Y-79900000D01*
X661970000Y-1238062900D02*
X640400000Y-1238760000D01*
X50620000Y-1138345900D02*
X50620000Y-1111100000D01*
X43620000Y-1067634300D02*
X43700000Y-1063430000D01*
X644010000Y-891872600D02*
X668880000Y-901560000D01*
X89390000Y-738926000D02*
X89200000Y-721740000D01*
X450400000Y-1053990500D02*
X443620000Y-1043580000D01*
X326490000Y-506559700D02*
X324000000Y-518680000D01*
X384540000Y-709884800D02*
X383380000Y-703070000D01*
X281780000Y-1203429400D02*
X284450000Y-1209760000D01*
X213850000Y-1418480000D02*
X186010000Y-1416650000D01*
X213830000Y-1007620700D02*
X223490000Y-1039060000D01*
X655990000Y-804653000D02*
X624080000Y-808720000D01*
X554450000Y-1185299900D02*
X553060000Y-1184810000D01*
X339330000Y-1040257500D02*
X342370000Y-1049670000D01*
X61270000Y-740000000D02*
X61270000Y-737790000D01*
X526720000Y-406682700D02*
X545050000Y-396840000D01*
X339890000Y-81400100D02*
X368550000Y-86050000D01*
X440370000Y-1449684000D02*
X429740000Y-1451820000D01*
X379370000Y-1356987400D02*
X376470000Y-1359060000D01*
X468770000Y-372631100D02*
X468770000Y-372630000D01*
X156580000Y-895850000D02*
X165340000Y-875230000D01*
X172380000Y-1302889900D02*
X171970000Y-1302640000D01*
X213920000Y-230296500D02*
X238940000Y-243300000D01*
X447430000Y-450091300D02*
X451430000Y-443700000D01*
X211690000Y-500309200D02*
X200540000Y-513380000D01*
X87580000Y-188245400D02*
X93950000Y-168140000D01*
X486390000Y-869194900D02*
X498750000Y-880950000D01*
X149680000Y-90135200D02*
X171730000Y-86250000D01*
X368550000Y-1413944200D02*
X339890000Y-1418590000D01*
X211690000Y-386843500D02*
X211610000Y-386850000D01*
X516170000Y-948040900D02*
X518030000Y-948770000D01*
X44210000Y-673527500D02*
X44130000Y-668740000D01*
X537300000Y-642250300D02*
X521050000Y-658970000D01*
X384180000Y-227188700D02*
X381340000Y-246030000D01*
X51100000Y-440822500D02*
X50860000Y-428210000D01*
X62160000Y-1328937600D02*
X62160000Y-1314950000D01*
X329390000Y-702118300D02*
X329270000Y-718920000D01*
X349040000Y-1035256600D02*
X351980000Y-1044160000D01*
X418530000Y-342453000D02*
X414890000Y-346690000D01*
X194130000Y-165817800D02*
X203810000Y-163530000D01*
X318040000Y-949141100D02*
X324010000Y-981320000D01*
X685720000Y-280362700D02*
X689510000Y-282670000D01*
X682830000Y-729795700D02*
X683970000Y-732790000D01*
X312980000Y-472898900D02*
X312390000Y-475220000D01*
X145640000Y-570990900D02*
X143010000Y-561800000D01*
X277840000Y-968396000D02*
X280360000Y-979300000D01*
X514610000Y-1117196500D02*
X490410000Y-1097810000D01*
X615910000Y-149918800D02*
X605280000Y-177350000D01*
X312460000Y-244432200D02*
X311450000Y-251700000D01*
X326700000Y-1409768100D02*
X303900000Y-1412590000D01*
X560120000Y-464721400D02*
X550620000Y-484500000D01*
X136560000Y-1121017400D02*
X140430000Y-1086760000D01*
X385260000Y-1374366200D02*
X358350000Y-1386460000D01*
X254640000Y-902829100D02*
X256260000Y-913660000D01*
X74020000Y-493430900D02*
X73310000Y-454750000D01*
X466350000Y-1074625400D02*
X450400000Y-1053990000D01*
X438250000Y-600148100D02*
X427060000Y-577870000D01*
X52760000Y-717883900D02*
X52620000Y-703310000D01*
X254660000Y-1070513200D02*
X263340000Y-1095060000D01*
X721760000Y-858702000D02*
X700910000Y-865510000D01*
X139690000Y-1431082300D02*
X122090000Y-1424970000D01*
X250190000Y-550385400D02*
X249400000Y-554710000D01*
X194980000Y-44868600D02*
X200380000Y-44530000D01*
X126130000Y-115572900D02*
X143670000Y-106030000D01*
X490420000Y-1420099500D02*
X470420000Y-1425660000D01*
X235670000Y-874278600D02*
X241810000Y-905360000D01*
X735600000Y-1185299900D02*
X731090000Y-1218220000D01*
X75630000Y-117101600D02*
X79770000Y-105720000D01*
X57700000Y-1134280100D02*
X57700000Y-1115160000D01*
X289650000Y-972280900D02*
X294830000Y-998080000D01*
X103100000Y-555978000D02*
X102960000Y-549490000D01*
X588240000Y-588224200D02*
X584170000Y-590610000D01*
X206672059Y-328408960D02*
X206698201Y-328382818D01*
X58510000Y-445074600D02*
X58090000Y-424050000D01*
X132840000Y-460009700D02*
X132010000Y-447850000D01*
X77810000Y-653381000D02*
X77640000Y-649490000D01*
X58510000Y-463258800D02*
X58510000Y-445070000D01*
X252950000Y-1363947100D02*
X223480000Y-1366200000D01*
X366530000Y-1170443900D02*
X377050000Y-1185480000D01*
X255870000Y-1031766400D02*
X262730000Y-1055960000D01*
X88940000Y-699221400D02*
X88420000Y-682740000D01*
X273090000Y-1385097300D02*
X238610000Y-1388920000D01*
X464080000Y-601212400D02*
X478680000Y-556280000D01*
X87480000Y-367728200D02*
X87080000Y-343150000D01*
X266360000Y-722237800D02*
X265910000Y-738580000D01*
X373260000Y-1360495500D02*
X346750000Y-1375990000D01*
X140320000Y-1364678000D02*
X137770000Y-1362650000D01*
X177690000Y-1370679400D02*
X161370000Y-1362140000D01*
X314260000Y-1093521100D02*
X318110000Y-1103050000D01*
X355360000Y-536685100D02*
X356380000Y-528990000D01*
X335270000Y-895961100D02*
X337160000Y-920680000D01*
X279480000Y-1324887100D02*
X276590000Y-1325940000D01*
X140430000Y-1086760800D02*
X140630000Y-1083910000D01*
X739660000Y-502718700D02*
X736870000Y-520730000D01*
X222930000Y-605489100D02*
X220640000Y-617080000D01*
X690760000Y-211558400D02*
X690910000Y-211560000D01*
X552330000Y-1184520600D02*
X523430000Y-1167720000D01*
X469910000Y-101741500D02*
X476770000Y-103650000D01*
X555420000Y-1322649900D02*
X556370000Y-1328900000D01*
X261640000Y-1417488000D02*
X252740000Y-1418340000D01*
X356680000Y-175388200D02*
X358190000Y-177350000D01*
X363810000Y-1253451800D02*
X366660000Y-1272220000D01*
X354230000Y-421429500D02*
X349270000Y-433070000D01*
X52620000Y-703305900D02*
X52620000Y-678360000D01*
X206210000Y-806022500D02*
X207420000Y-811620000D01*
X434200000Y-1391745600D02*
X402670000Y-1404680000D01*
X532050000Y-349037700D02*
X532780000Y-348560000D01*
X698470000Y-473086000D02*
X696560000Y-486390000D01*
X314700000Y-734092300D02*
X314450000Y-749860000D01*
X195330000Y-102503800D02*
X202120000Y-102050000D01*
X402250000Y-603063200D02*
X398130000Y-583750000D01*
X662820000Y-993716600D02*
X672180000Y-1013610000D01*
X526910000Y-750012426D02*
X526914134Y-750008292D01*
X161020000Y-306731400D02*
X160050000Y-287270000D01*
X266790000Y-1171784500D02*
X278330000Y-1194660000D01*
X648010000Y-480505800D02*
X645620000Y-486390000D01*
X295250000Y-1076726100D02*
X305120000Y-1100110000D01*
X395220000Y-485046100D02*
X400550000Y-468720000D01*
X78650000Y-806689000D02*
X79040000Y-772420000D01*
X439090000Y-1180700600D02*
X443970000Y-1185270000D01*
X477640000Y-1247451700D02*
X484120000Y-1253970000D01*
X391150000Y-1453296100D02*
X359410000Y-1453300000D01*
X209060000Y-201151200D02*
X224220000Y-199310000D01*
X525180000Y-1038574100D02*
X505080000Y-1019670000D01*
X452410000Y-345975700D02*
X460040000Y-338810000D01*
X317210000Y-669669100D02*
X317160000Y-672520000D01*
X351600000Y-1004916500D02*
X352510000Y-1008400000D01*
X379020000Y-1124302500D02*
X387790000Y-1137210000D01*
X484120000Y-1253974900D02*
X499200000Y-1278580000D01*
X398910000Y-1219574300D02*
X406130000Y-1234590000D01*
X57870000Y-1252512200D02*
X57870000Y-1233600000D01*
X453450000Y-1154985600D02*
X450050000Y-1151220000D01*
X371700000Y-470619900D02*
X381230000Y-445320000D01*
X303890000Y-87404300D02*
X326710000Y-90230000D01*
X555450000Y-177350100D02*
X553950000Y-179390000D01*
X71330000Y-1162439800D02*
X71850000Y-1126150000D01*
X367110000Y-1439887400D02*
X345790000Y-1443000000D01*
X632670000Y-911541700D02*
X635190000Y-912810000D01*
X29624263Y-750026841D02*
X25462675Y-745865253D01*
X123600000Y-1293575100D02*
X117560000Y-1268000000D01*
X244810000Y-671809300D02*
X241000000Y-707670000D01*
X189250000Y-1111833600D02*
X192050000Y-1112000000D01*
X680300000Y-417712800D02*
X680980000Y-434870000D01*
X100040000Y-1021148700D02*
X101370000Y-990860000D01*
X730010000Y-554592500D02*
X729710000Y-555060000D01*
X572620000Y-1219419700D02*
X572300000Y-1219290000D01*
X532420000Y-902523300D02*
X554700000Y-915140000D01*
X396510000Y-1018996900D02*
X386850000Y-988800000D01*
X180090000Y-1426068600D02*
X179080000Y-1425860000D01*
X356660000Y-1324574200D02*
X352140000Y-1328590000D01*
X211690000Y-1113183900D02*
X216200000Y-1122130000D01*
X104450000Y-1380425200D02*
X104010000Y-1379800000D01*
X655270000Y-452050200D02*
X648010000Y-480510000D01*
X189140000Y-528993400D02*
X177350000Y-549750000D01*
X310770000Y-1265693900D02*
X309330000Y-1286960000D01*
X355850000Y-1151783100D02*
X366530000Y-1170440000D01*
X244980000Y-670510000D02*
X244810000Y-671810000D01*
X140650000Y-1328743700D02*
X136660000Y-1323570000D01*
X223490000Y-1039055800D02*
X231690000Y-1057320000D01*
X95210000Y-1152180900D02*
X95460000Y-1136850000D01*
X490420000Y-79900900D02*
X500090000Y-85610000D01*
X640090000Y-966954600D02*
X651870000Y-978940000D01*
X119860000Y-874756900D02*
X121310000Y-861070000D01*
X184870000Y-1188645000D02*
X196070000Y-1179330000D01*
X44130000Y-831260100D02*
X44210000Y-826470000D01*
X486820000Y-1322649900D02*
X483260000Y-1338960000D01*
X407000000Y-399814300D02*
X421550000Y-380800000D01*
X165650000Y-1401820300D02*
X158570000Y-1400650000D01*
X260450000Y-136901300D02*
X282340000Y-143010000D01*
X128020000Y-1093887600D02*
X129180000Y-1077330000D01*
X437850000Y-320625000D02*
X418530000Y-342450000D01*
X508470000Y-916116600D02*
X519990000Y-920620000D01*
X317520000Y-398281400D02*
X315970000Y-402170000D01*
X143820000Y-134192000D02*
X143820000Y-134190000D01*
X274950000Y-490501700D02*
X273340000Y-497640000D01*
X537840000Y-211687700D02*
X534780000Y-214700000D01*
X251960000Y-1180424500D02*
X258520000Y-1193420000D01*
X682420000Y-979274600D02*
X694920000Y-1006500000D01*
X320350000Y-628421000D02*
X320090000Y-634760000D01*
X369930000Y-270091900D02*
X366400000Y-280260000D01*
X580600819Y-723213864D02*
X580600819Y-738622881D01*
X425730000Y-1165876800D02*
X439090000Y-1180700000D01*
X202860000Y-1318893900D02*
X172380000Y-1302890000D01*
X236010000Y-1389114900D02*
X203850000Y-1387650000D01*
X69770000Y-740000000D02*
X69770000Y-732900000D01*
X745986242Y-726778131D02*
X745833867Y-726625756D01*
X535280000Y-543407500D02*
X526410000Y-545920000D01*
X25462675Y-745865253D02*
X25462675Y-75169804D01*
X621280000Y-143012600D02*
X615910000Y-149920000D01*
X59290000Y-524415600D02*
X58900000Y-502480000D01*
X498380000Y-619378800D02*
X486610000Y-630620000D01*
X131060000Y-86297700D02*
X131060000Y-86300000D01*
X366910000Y-226255600D02*
X363930000Y-246030000D01*
X29651104Y-750000000D02*
X29624263Y-750026841D01*
X286120000Y-160893100D02*
X310280000Y-177350000D01*
X381380000Y-830036000D02*
X381310000Y-827700000D01*
X154790000Y-156610600D02*
X178390000Y-142000000D01*
X328250000Y-560559100D02*
X324580000Y-586550000D01*
X278100000Y-1126239700D02*
X280250000Y-1130230000D01*
X406700000Y-1302281600D02*
X405470000Y-1322650000D01*
X111900000Y-274817200D02*
X115520000Y-241150000D01*
X339330000Y-1363073400D02*
X330570000Y-1366150000D01*
X385660000Y-193615900D02*
X388450000Y-211690000D01*
X487210000Y-269213100D02*
X478050000Y-280360000D01*
X431860000Y-656538500D02*
X449740000Y-605970000D01*
X98380000Y-231310200D02*
X103560000Y-203000000D01*
X222730000Y-134009000D02*
X252960000Y-136070000D01*
X104970000Y-1107125300D02*
X105070000Y-1102930000D01*
X436010000Y-248752300D02*
X415900000Y-280360000D01*
X267810000Y-1406736400D02*
X247210000Y-1408720000D01*
X133330000Y-606381000D02*
X130420000Y-579740000D01*
X56510000Y-151080000D02*
X56510000Y-130580000D01*
X307560000Y-1376440500D02*
X281610000Y-1382710000D01*
X194440000Y-1362183400D02*
X184030000Y-1359950000D01*
X221460000Y-81238200D02*
X252740000Y-81650000D01*
X303900000Y-1412590400D02*
X290450000Y-1415320000D01*
X655680000Y-417712800D02*
X655990000Y-425730000D01*
X740560000Y-452050200D02*
X739660000Y-470060000D01*
X399700000Y-48184100D02*
X429740000Y-48180000D01*
X106100000Y-1261296400D02*
X103150000Y-1226500000D01*
X60640000Y-643523600D02*
X60180000Y-620080000D01*
X691710000Y-871688900D02*
X653330000Y-870400000D01*
X95580000Y-135030800D02*
X98450000Y-127120000D01*
X436090000Y-435128800D02*
X450600000Y-414440000D01*
X256920000Y-677370700D02*
X254720000Y-705560000D01*
X113960000Y-1299030900D02*
X108680000Y-1276700000D01*
X442090000Y-1356987400D02*
X423780000Y-1372750000D01*
X520070000Y-631575400D02*
X515660000Y-635790000D01*
X300310000Y-899510500D02*
X302390000Y-914850000D01*
X470430000Y-308685800D02*
X464940000Y-314700000D01*
X731150000Y-280362700D02*
X731150000Y-281880000D01*
X44130000Y-668739800D02*
X44130000Y-634040000D01*
X125660000Y-385246300D02*
X124370000Y-364570000D01*
X267560000Y-191542300D02*
X284830000Y-210820000D01*
X241010000Y-792323500D02*
X244830000Y-828200000D01*
X43700000Y-1063429300D02*
X43700000Y-1028240000D01*
X635620000Y-839057400D02*
X620240000Y-836780000D01*
X599760000Y-706575200D02*
X621820000Y-692640000D01*
X79770000Y-260064800D02*
X80330000Y-253510000D01*
X694920000Y-1006502000D02*
X696530000Y-1013610000D01*
X649160000Y-945019600D02*
X652670000Y-947530000D01*
X394050000Y-1389676700D02*
X390390000Y-1391320000D01*
X438230000Y-1253974900D02*
X451500000Y-1283680000D01*
X610190000Y-554279700D02*
X608390000Y-555470000D01*
X349820000Y-572947100D02*
X349850000Y-572030000D01*
X305670000Y-834076300D02*
X307880000Y-864420000D01*
X654720000Y-1088080100D02*
X641610000Y-1116620000D01*
X328840000Y-758121200D02*
X329270000Y-781070000D01*
X503260000Y-280362700D02*
X496520000Y-285420000D01*
X60180000Y-620077200D02*
X60180000Y-603810000D01*
X221470000Y-1418751500D02*
X213850000Y-1418480000D01*
X317160000Y-672521300D02*
X315140000Y-710300000D01*
X710530000Y-520725400D02*
X690270000Y-554080000D01*
X280070000Y-339079600D02*
X264700000Y-367830000D01*
X651870000Y-978937200D02*
X662820000Y-993720000D01*
X67610000Y-931366500D02*
X67610000Y-923630000D01*
X168600000Y-162969300D02*
X168600000Y-162970000D01*
X44430000Y-1339121000D02*
X44430000Y-1304770000D01*
X466300000Y-232807700D02*
X460390000Y-246030000D01*
X411260000Y-1419642500D02*
X380460000Y-1425660000D01*
X124470000Y-819814400D02*
X125500000Y-799110000D01*
X204140000Y-1336682100D02*
X196150000Y-1334970000D01*
X735940000Y-700830000D02*
X737530000Y-723730000D01*
X109950000Y-790176600D02*
X110030000Y-788670000D01*
X334040000Y-975560600D02*
X339220000Y-1000750000D01*
X736850000Y-979274600D02*
X739640000Y-997320000D01*
X213490000Y-81567900D02*
X221460000Y-81240000D01*
X71300000Y-1205357900D02*
X71300000Y-1201860000D01*
X136500000Y-1002647300D02*
X139960000Y-968700000D01*
X343550000Y-1130409400D02*
X355850000Y-1151780000D01*
X526720000Y-406682700D02*
X526720000Y-406680000D01*
X645060000Y-607818700D02*
X620780000Y-615300000D01*
X297720000Y-956977900D02*
X301740000Y-979230000D01*
X379950000Y-945257100D02*
X378600000Y-910520000D01*
X676620000Y-969686100D02*
X682420000Y-979270000D01*
X108380000Y-224479500D02*
X113170000Y-203830000D01*
X122820000Y-1152566900D02*
X124380000Y-1135420000D01*
X412660000Y-146606400D02*
X430440000Y-177350000D01*
X233410000Y-638911100D02*
X229760000Y-661770000D01*
X50620000Y-1111098600D02*
X50860000Y-1098760000D01*
X411735232Y-750000000D02*
X414400000Y-747335232D01*
X391150000Y-46703400D02*
X399700000Y-48180000D01*
X373250000Y-139488600D02*
X376470000Y-140940000D01*
X144890000Y-1163089600D02*
X150610000Y-1129090000D01*
X167500000Y-349898600D02*
X162110000Y-324860000D01*
X375750000Y-73519000D02*
X380480000Y-74340000D01*
X505060000Y-1019634300D02*
X505060000Y-1019630000D01*
X215980000Y-1428312100D02*
X187740000Y-1426570000D01*
X139580000Y-1417410300D02*
X117240000Y-1410190000D01*
X356380000Y-528989500D02*
X362620000Y-502260000D01*
X79040000Y-772424000D02*
X79100000Y-766980000D01*
X259090000Y-1288196700D02*
X259040000Y-1288230000D01*
X481680000Y-1446436600D02*
X467960000Y-1449680000D01*
X555060000Y-776774400D02*
X552340000Y-771290000D01*
X477520000Y-387003900D02*
X482630000Y-382870000D01*
X584140000Y-328771600D02*
X599950000Y-328160000D01*
X694930000Y-493528900D02*
X682460000Y-520730000D01*
X669920000Y-705070000D02*
X682830000Y-729800000D01*
X428060000Y-492128300D02*
X438060000Y-469990000D01*
X346260000Y-341843700D02*
X345210000Y-343570000D01*
X555590000Y-967445600D02*
X568300000Y-974920000D01*
X522130000Y-93361200D02*
X542430000Y-108680000D01*
X50620000Y-361653500D02*
X50440000Y-349560000D01*
X268640000Y-815900400D02*
X271090000Y-843290000D01*
X43480000Y-353556300D02*
X43480000Y-318110000D01*
X215280000Y-1352867400D02*
X190090000Y-1347460000D01*
X454770000Y-1219637300D02*
X477640000Y-1247450000D01*
X380660000Y-1105226100D02*
X380950000Y-1105710000D01*
X487670000Y-404307700D02*
X513170000Y-383670000D01*
X90910000Y-463684300D02*
X90040000Y-445150000D01*
X227580000Y-581626800D02*
X222930000Y-605490000D01*
X516400000Y-1185299900D02*
X514100000Y-1183960000D01*
X89390000Y-750000000D02*
X79100000Y-740000000D01*
X429590000Y-370419100D02*
X449830000Y-348890000D01*
X113170000Y-203830800D02*
X116620000Y-195300000D01*
X50440000Y-322108900D02*
X50430000Y-310120000D01*
X96530000Y-156491500D02*
X96530000Y-156490000D01*
X518380000Y-168558700D02*
X518710000Y-177350000D01*
X520730000Y-868654900D02*
X552180000Y-891450000D01*
X454370000Y-1219276100D02*
X454770000Y-1219640000D01*
X155770000Y-486284600D02*
X148530000Y-457330000D01*
X621330000Y-571449000D02*
X594290000Y-585050000D01*
X67600000Y-576367500D02*
X67600000Y-568630000D01*
X342270000Y-371761700D02*
X335000000Y-387140000D01*
X329270000Y-718921800D02*
X328840000Y-741880000D01*
X258520000Y-1193422300D02*
X264120000Y-1212740000D01*
X92630000Y-977450700D02*
X93580000Y-955890000D01*
X169570000Y-235892500D02*
X169570000Y-235890000D01*
X69770000Y-750000000D02*
X61270000Y-740000000D01*
X225370000Y-801307100D02*
X227150000Y-818050000D01*
X231690000Y-1057324500D02*
X237010000Y-1070740000D01*
X349270000Y-433072100D02*
X342010000Y-451340000D01*
X171230000Y-1380685100D02*
X145070000Y-1367000000D01*
X515550000Y-143012600D02*
X518380000Y-168560000D01*
X364970000Y-377463400D02*
X360360000Y-384910000D01*
X155710000Y-1454216800D02*
X123050000Y-1454220000D01*
X419760000Y-536706300D02*
X419290000Y-534190000D01*
X249400000Y-554714600D02*
X246030000Y-575620000D01*
X370750000Y-1110381200D02*
X379020000Y-1124300000D01*
X107160000Y-1340878300D02*
X106750000Y-1339900000D01*
X155960000Y-140975500D02*
X173680000Y-130820000D01*
X126850000Y-740000000D02*
X126850000Y-739560000D01*
X105060000Y-397075100D02*
X104970000Y-392870000D01*
X265720000Y-603535600D02*
X263130000Y-621840000D01*
X90050000Y-1054855400D02*
X90920000Y-1036310000D01*
X624080000Y-808719500D02*
X623130000Y-808760000D01*
X446270000Y-1167843100D02*
X464890000Y-1185290000D01*
X140950000Y-689649000D02*
X137860000Y-654350000D01*
X276830000Y-890087300D02*
X280360000Y-913700000D01*
X102390000Y-66192500D02*
X102390000Y-66190000D01*
X216210000Y-377873000D02*
X211690000Y-386840000D01*
X82550000Y-222219300D02*
X84320000Y-212540000D01*
X610520000Y-945867000D02*
X612750000Y-947350000D01*
X99680000Y-750000000D02*
X89390000Y-740000000D01*
X616610000Y-1090402100D02*
X601420000Y-1100610000D01*
X599760000Y-706575200D02*
X621820000Y-692640000D01*
X448890000Y-985593600D02*
X451660000Y-968140000D01*
X669070000Y-796272700D02*
X655990000Y-804650000D01*
X223100000Y-736830000D02*
X223100000Y-763170000D01*
X212500000Y-927030700D02*
X212750000Y-928110000D01*
X256080000Y-209348100D02*
X256130000Y-209380000D01*
X523290000Y-465543400D02*
X535520000Y-450820000D01*
X263710000Y-957380600D02*
X266920000Y-974660000D01*
X104970000Y-392870600D02*
X103430000Y-358570000D01*
X367930000Y-543907800D02*
X370990000Y-520900000D01*
X223220000Y-526432700D02*
X220090000Y-537880000D01*
X273340000Y-497644800D02*
X266920000Y-525340000D01*
X721620000Y-452050200D02*
X720740000Y-469770000D01*
X181299384Y-730074489D02*
X181263510Y-730110363D01*
X106860000Y-433400300D02*
X105060000Y-397080000D01*
X159870000Y-1309747600D02*
X143250000Y-1283140000D01*
X104230000Y-1299472000D02*
X98380000Y-1268690000D01*
X359160000Y-342833700D02*
X349200000Y-359100000D01*
X258210000Y-1427863300D02*
X255680000Y-1427860000D01*
X676020000Y-391923000D02*
X680300000Y-417710000D01*
X669070000Y-796272700D02*
X655990000Y-804650000D01*
X142980000Y-769738200D02*
X142990000Y-769710000D01*
X51340000Y-1019596200D02*
X51340000Y-993180000D01*
X78500000Y-688442700D02*
X77810000Y-653380000D01*
X421550000Y-380802400D02*
X429590000Y-370420000D01*
X272400000Y-419294700D02*
X262730000Y-444040000D01*
X244830000Y-828201400D02*
X244990000Y-829480000D01*
X552290000Y-315547200D02*
X553080000Y-315230000D01*
X341190000Y-1126073800D02*
X343550000Y-1130410000D01*
X504650000Y-740766700D02*
X504660000Y-759230000D01*
X530910000Y-676959400D02*
X520730000Y-694380000D01*
X739660000Y-486387800D02*
X739660000Y-502720000D01*
X520760000Y-894076500D02*
X532420000Y-902520000D01*
X244690000Y-987436200D02*
X246030000Y-991350000D01*
X325870000Y-1443002300D02*
X307540000Y-1445080000D01*
X324010000Y-981319400D02*
X326510000Y-993450000D01*
X313250000Y-1455026100D02*
X279520000Y-1455030000D01*
X677510000Y-665133900D02*
X699010000Y-679200000D01*
X237360000Y-478864800D02*
X228920000Y-503510000D01*
X129350000Y-935346500D02*
X130420000Y-920270000D01*
X691000000Y-211687700D02*
X717640000Y-233690000D01*
X289820000Y-266437100D02*
X288180000Y-276520000D01*
X145660000Y-929018900D02*
X147240000Y-925070000D01*
X335840000Y-1220292200D02*
X336410000Y-1222570000D01*
X116720000Y-912400900D02*
X117800000Y-902540000D01*
X420340000Y-64553400D02*
X452220000Y-70950000D01*
X620240000Y-836783100D02*
X596160000Y-825630000D01*
X245780000Y-1376432100D02*
X229750000Y-1377660000D01*
X391610000Y-1099230600D02*
X406460000Y-1121860000D01*
X50860000Y-401235800D02*
X50620000Y-388900000D01*
X223500000Y-460953800D02*
X213860000Y-492360000D01*
X514100000Y-1183963800D02*
X511650000Y-1182370000D01*
X57070000Y-1351872600D02*
X53300000Y-1334030000D01*
X120530000Y-104497500D02*
X122240000Y-103560000D01*
X147210000Y-574913000D02*
X145640000Y-570990000D01*
X655260000Y-1047949800D02*
X655990000Y-1074280000D01*
X303580000Y-1298340900D02*
X282320000Y-1322940000D01*
X164160000Y-165717200D02*
X168600000Y-162970000D01*
X69450000Y-688027000D02*
X68900000Y-654510000D01*
X68250000Y-615441400D02*
X68250000Y-608450000D01*
X71850000Y-1123296000D02*
X72580000Y-1086290000D01*
X548230000Y-116595800D02*
X560100000Y-143010000D01*
X156740000Y-1386494300D02*
X137200000Y-1376920000D01*
X134540000Y-179833000D02*
X138060000Y-174960000D01*
X116620000Y-195300100D02*
X124980000Y-173920000D01*
X78820000Y-333260800D02*
X78780000Y-298940000D01*
X320740000Y-1221749400D02*
X325600000Y-1241260000D01*
X698430000Y-1026846700D02*
X701640000Y-1047950000D01*
X477630000Y-252547000D02*
X454790000Y-280360000D01*
X399000000Y-280329900D02*
X386090000Y-298470000D01*
X564740000Y-1164466700D02*
X533660000Y-1152010000D01*
X362600000Y-1186139500D02*
X379760000Y-1216310000D01*
X398720000Y-544813400D02*
X402150000Y-526430000D01*
X676010000Y-1108096000D02*
X674450000Y-1116620000D01*
X65330000Y-409550300D02*
X64770000Y-380770000D01*
X182990000Y-960259200D02*
X187770000Y-872530000D01*
X109950000Y-709821700D02*
X108680000Y-684140000D01*
X702230000Y-1062436900D02*
X702110000Y-1082290000D01*
X280340000Y-809178600D02*
X280360000Y-809410000D01*
X263710000Y-542620900D02*
X260340000Y-561000000D01*
X289650000Y-527722400D02*
X287900000Y-537380000D01*
X219030000Y-71677000D02*
X255680000Y-72130000D01*
X352510000Y-1008395700D02*
X362360000Y-1038270000D01*
X560710000Y-259832300D02*
X583180000Y-246030000D01*
X337160000Y-920678600D02*
X338940000Y-933300000D01*
X160050000Y-287268300D02*
X161940000Y-268740000D01*
X155810000Y-1013738500D02*
X162380000Y-995260000D01*
X534780000Y-1285316600D02*
X537810000Y-1288310000D01*
X426190000Y-1049814400D02*
X421820000Y-1040920000D01*
X227370000Y-405716500D02*
X219460000Y-419180000D01*
X553060000Y-1184812200D02*
X552330000Y-1184520000D01*
X112270000Y-353488500D02*
X111030000Y-317460000D01*
X560080000Y-1356987400D02*
X548220000Y-1383390000D01*
X271340000Y-243147800D02*
X272230000Y-250060000D01*
X229340000Y-122455700D02*
X245780000Y-123580000D01*
X652670000Y-947533200D02*
X658550000Y-953520000D01*
X86030000Y-894771800D02*
X86700000Y-880960000D01*
X106910000Y-1064544000D02*
X108680000Y-1027050000D01*
X123850000Y-995384900D02*
X125740000Y-976860000D01*
X300960000Y-1364941800D02*
X290350000Y-1367510000D01*
X465060000Y-427013900D02*
X475960000Y-415070000D01*
X407750000Y-335154100D02*
X400020000Y-346300000D01*
X90920000Y-1036310900D02*
X91350000Y-1016160000D01*
X605230000Y-1322649900D02*
X615890000Y-1350120000D01*
X551030000Y-964926600D02*
X555590000Y-967450000D01*
X407770000Y-1184741100D02*
X423280000Y-1206150000D01*
X65910000Y-1050671100D02*
X65910000Y-1041000000D01*
X256250000Y-586347300D02*
X254630000Y-597170000D01*
X206910000Y-440627700D02*
X189140000Y-528990000D01*
X147060000Y-1245506100D02*
X146120000Y-1241270000D01*
X403440000Y-231326400D02*
X399160000Y-246030000D01*
X466330000Y-899577200D02*
X486260000Y-902990000D01*
X43570000Y-239275300D02*
X43850000Y-235010000D01*
X569480000Y-69081300D02*
X575520000Y-69080000D01*
X332380000Y-1431670300D02*
X301830000Y-1435130000D01*
X323760000Y-902574700D02*
X324590000Y-913460000D01*
X144480000Y-1165008600D02*
X144890000Y-1163090000D01*
X245130000Y-53771200D02*
X268760000Y-53770000D01*
X187770000Y-872526700D02*
X188810000Y-874920000D01*
X602610000Y-602731100D02*
X590160000Y-608320000D01*
X362410000Y-801487000D02*
X362130000Y-777240000D01*
X588450000Y-911808700D02*
X590680000Y-913080000D01*
X43860000Y-515549600D02*
X43780000Y-511160000D01*
X655960000Y-349037700D02*
X673490000Y-379230000D01*
X202120000Y-102049600D02*
X232690000Y-100790000D01*
X189991026Y-750953853D02*
X189991026Y-751188911D01*
X167940000Y-1258165700D02*
X162170000Y-1232050000D01*
X101540000Y-517432700D02*
X101360000Y-509130000D01*
X292980000Y-371171300D02*
X287880000Y-381490000D01*
X520450000Y-868491000D02*
X520730000Y-868650000D01*
X125510000Y-700886800D02*
X124480000Y-680190000D01*
X313010000Y-1143846600D02*
X326650000Y-1172150000D01*
X314170000Y-112053700D02*
X319390000Y-114390000D01*
X89390000Y-740000000D02*
X89390000Y-738930000D01*
X449420000Y-516494500D02*
X453980000Y-492270000D01*
X450380000Y-992175000D02*
X449500000Y-988120000D01*
X487670000Y-404307700D02*
X487670000Y-404310000D01*
X148520000Y-1396245100D02*
X134070000Y-1389170000D01*
X289760000Y-1425662400D02*
X258210000Y-1427860000D01*
X310280000Y-177350100D02*
X313820000Y-181270000D01*
X606750000Y-358075600D02*
X621800000Y-366200000D01*
X110950000Y-1185192900D02*
X111040000Y-1182530000D01*
X236270000Y-177309900D02*
X236770000Y-177280000D01*
X378760000Y-285222900D02*
X363140000Y-313040000D01*
X237400000Y-1322174800D02*
X202860000Y-1318890000D01*
X690300000Y-1150039600D02*
X689770000Y-1150960000D01*
X322200000Y-362741400D02*
X315360000Y-377240000D01*
X386390000Y-409421500D02*
X379780000Y-420890000D01*
X169490000Y-1319830000D02*
X159870000Y-1309750000D01*
X344620000Y-653926400D02*
X345020000Y-649080000D01*
X132240000Y-1209795600D02*
X131990000Y-1197280000D01*
X364200000Y-581210100D02*
X364900000Y-563390000D01*
X416170000Y-436437200D02*
X423810000Y-424440000D01*
X555820000Y-651588500D02*
X554150000Y-652800000D01*
X422080000Y-457108800D02*
X436090000Y-435130000D01*
X409100000Y-64553400D02*
X420340000Y-64550000D01*
X103780000Y-142728200D02*
X109550000Y-133910000D01*
X618860000Y-883979100D02*
X644010000Y-891870000D01*
X383380000Y-969484700D02*
X380520000Y-948860000D01*
X332380000Y-68326800D02*
X339290000Y-68330000D01*
X557490000Y-443840600D02*
X565070000Y-452050000D01*
X64340000Y-1209352500D02*
X64340000Y-1197870000D01*
X76640000Y-889380400D02*
X76780000Y-886660000D01*
X319910000Y-1184678900D02*
X331280000Y-1209720000D01*
X445210000Y-264772000D02*
X435290000Y-280360000D01*
X260460000Y-1363114500D02*
X252950000Y-1363950000D01*
X88230000Y-1352611200D02*
X82200000Y-1326610000D01*
X252240000Y-360348600D02*
X246470000Y-374210000D01*
X66920000Y-1286758600D02*
X66920000Y-1278240000D01*
X549360000Y-446094800D02*
X557490000Y-443840000D01*
X250070000Y-629341100D02*
X249540000Y-633690000D01*
X87080000Y-1156848000D02*
X87490000Y-1132270000D01*
X297800000Y-387078900D02*
X288590000Y-410730000D01*
X689510000Y-282673100D02*
X705970000Y-314700000D01*
X103560000Y-202996000D02*
X104150000Y-198590000D01*
X360650000Y-1246865400D02*
X363810000Y-1253450000D01*
X246470000Y-374205500D02*
X235740000Y-389090000D01*
X436990000Y-382357600D02*
X437380000Y-381950000D01*
X296730000Y-74937200D02*
X332920000Y-79410000D01*
X61270000Y-762214000D02*
X61270000Y-750000000D01*
X103150000Y-1226504400D02*
X102980000Y-1220060000D01*
X661970000Y-261941900D02*
X685720000Y-280360000D01*
X352140000Y-1328594300D02*
X331340000Y-1349160000D01*
X245800000Y-1336911500D02*
X231460000Y-1338050000D01*
X162150000Y-1175157800D02*
X167490000Y-1150110000D01*
X98350000Y-822956700D02*
X99230000Y-794870000D01*
X87570000Y-1235458100D02*
X86900000Y-1210830000D01*
X228470000Y-161933700D02*
X245090000Y-163260000D01*
X66470000Y-1010909600D02*
X66470000Y-1001870000D01*
X111040000Y-1182531000D02*
X112280000Y-1146520000D01*
X178200000Y-74082400D02*
X215970000Y-71680000D01*
X263340000Y-1095055900D02*
X276700000Y-1122860000D01*
X336690000Y-334485300D02*
X328490000Y-351260000D01*
X177350000Y-1040570900D02*
X188310000Y-1049360000D01*
X550530000Y-656513200D02*
X530910000Y-676960000D01*
X717590000Y-1266214900D02*
X690900000Y-1288310000D01*
X76780000Y-886655300D02*
X77630000Y-850500000D01*
X263340000Y-404944500D02*
X254660000Y-429480000D01*
X623190000Y-1239225100D02*
X604450000Y-1232690000D01*
X602640000Y-897472100D02*
X632670000Y-911540000D01*
X167694535Y-747456543D02*
X167694535Y-715218952D01*
X126850000Y-739560600D02*
X126510000Y-720800000D01*
X453220000Y-282006900D02*
X430390000Y-307650000D01*
X516200000Y-1317657900D02*
X518700000Y-1322650000D01*
X394370000Y-1189866700D02*
X412390000Y-1214940000D01*
X312520000Y-590972600D02*
X312160000Y-593680000D01*
X177350000Y-1113647400D02*
X189250000Y-1111830000D01*
X96450000Y-1309113000D02*
X94380000Y-1293880000D01*
X280360000Y-1065874200D02*
X285650000Y-1082240000D01*
X136080000Y-371294300D02*
X133340000Y-341390000D01*
X51830000Y-559572600D02*
X51580000Y-546130000D01*
X67530000Y-138370900D02*
X75630000Y-117100000D01*
X352330000Y-492091600D02*
X351550000Y-495210000D01*
X142510000Y-296679200D02*
X142520000Y-296110000D01*
X88180000Y-383227300D02*
X87480000Y-367730000D01*
X327810000Y-429560900D02*
X323280000Y-440980000D01*
X88700000Y-406472000D02*
X88180000Y-383230000D01*
X257180000Y-351095700D02*
X252240000Y-360350000D01*
X320490000Y-1398954500D02*
X311060000Y-1400120000D01*
X415710000Y-1090424500D02*
X413580000Y-1087180000D01*
X655990000Y-425727200D02*
X655270000Y-452050000D01*
X559070000Y-1105661400D02*
X546210000Y-1103760000D01*
X312540000Y-909020400D02*
X314700000Y-925220000D01*
X52760000Y-740000000D02*
X52760000Y-717880000D01*
X368780000Y-444685500D02*
X361610000Y-463730000D01*
X178230000Y-653752500D02*
X177350000Y-656440000D01*
X620450000Y-108675000D02*
X621050000Y-127150000D01*
X377050000Y-1185478900D02*
X387060000Y-1203090000D01*
X362450000Y-619648600D02*
X361950000Y-604530000D01*
X129210000Y-72004900D02*
X137330000Y-69500000D01*
X140420000Y-413230400D02*
X136550000Y-378990000D01*
X240220000Y-1257509600D02*
X212690000Y-1268770000D01*
X632310000Y-691131800D02*
X654860000Y-694440000D01*
X300150000Y-1391325000D02*
X279120000Y-1395600000D01*
X503660000Y-1374480800D02*
X485280000Y-1391320000D01*
X282380000Y-571339800D02*
X282090000Y-573490000D01*
X89110000Y-116417200D02*
X102710000Y-102710000D01*
X554700000Y-915138400D02*
X567760000Y-922470000D01*
X187640000Y-1330929000D02*
X169490000Y-1319830000D01*
X731150000Y-281882300D02*
X735650000Y-314700000D01*
X71850000Y-376705800D02*
X71850000Y-373850000D01*
X674450000Y-1116624800D02*
X673490000Y-1120770000D01*
X296110000Y-1425184900D02*
X289760000Y-1425660000D01*
X181299384Y-730008297D02*
X181299384Y-730074489D01*
X313420000Y-437188600D02*
X303470000Y-467440000D01*
X302830000Y-200044800D02*
X308670000Y-211490000D01*
X59230000Y-1291176800D02*
X59230000Y-1273820000D01*
X145200000Y-1431082300D02*
X139690000Y-1431080000D01*
X361970000Y-895483400D02*
X362470000Y-880340000D01*
X121950000Y-284291200D02*
X122970000Y-268460000D01*
X430830000Y-1316363100D02*
X430450000Y-1322650000D01*
X453550000Y-211687700D02*
X451430000Y-216450000D01*
X431100000Y-1131345200D02*
X422800000Y-1121050000D01*
X364220000Y-918781400D02*
X361970000Y-895480000D01*
X699010000Y-679203900D02*
X704010000Y-692170000D01*
X491060000Y-353661800D02*
X494730000Y-350990000D01*
X621800000Y-366197600D02*
X636600000Y-374790000D01*
X109550000Y-133906700D02*
X126130000Y-115570000D01*
X52390000Y-861219400D02*
X52390000Y-836000000D01*
X122960000Y-662904200D02*
X121320000Y-638930000D01*
X386630000Y-512566400D02*
X395220000Y-485050000D01*
X505060000Y-1019634300D02*
X505060000Y-1019630000D01*
X70840000Y-177786000D02*
X73900000Y-163350000D01*
X682830000Y-729795700D02*
X683970000Y-732790000D01*
X67610000Y-923633500D02*
X68250000Y-891550000D01*
X43480000Y-314114100D02*
X43480000Y-278660000D01*
X106710000Y-79495500D02*
X129210000Y-72000000D01*
X299620000Y-1017449900D02*
X303480000Y-1032560000D01*
X596160000Y-825632400D02*
X589060000Y-821080000D01*
X50720000Y-1256618500D02*
X50720000Y-1229490000D01*
X638960000Y-533859600D02*
X612900000Y-552320000D01*
X131370000Y-1442649500D02*
X106540000Y-1434020000D01*
X86700000Y-619042300D02*
X86030000Y-605230000D01*
X380460000Y-1425662400D02*
X375750000Y-1426480000D01*
X168600000Y-162969300D02*
X186980000Y-153540000D01*
X96620000Y-875259900D02*
X96940000Y-861590000D01*
X256260000Y-913658000D02*
X260350000Y-939000000D01*
X366640000Y-1341954800D02*
X349740000Y-1356990000D01*
X349120000Y-1288044400D02*
X344680000Y-1302260000D01*
X606790000Y-1141981700D02*
X578300000Y-1140870000D01*
X260910000Y-859786700D02*
X263140000Y-878170000D01*
X188310000Y-1049357800D02*
X194140000Y-979180000D01*
X95450000Y-363149200D02*
X95200000Y-347820000D01*
X425380000Y-314672700D02*
X407750000Y-335150000D01*
X165360000Y-624778400D02*
X156580000Y-604150000D01*
X576240000Y-211687700D02*
X573580000Y-213580000D01*
X52760000Y-757328300D02*
X52760000Y-750000000D01*
X95050000Y-584394000D02*
X93960000Y-561230000D01*
X604470000Y-267349300D02*
X623170000Y-260820000D01*
X331790000Y-1131990100D02*
X342080000Y-1150840000D01*
X78950000Y-1161515100D02*
X79510000Y-1127700000D01*
X325100000Y-259644500D02*
X320470000Y-278670000D01*
X454260000Y-409844600D02*
X466740000Y-396920000D01*
X668280000Y-1185299900D02*
X641610000Y-1202610000D01*
X129960000Y-57701400D02*
X148360000Y-57700000D01*
X75680000Y-928269500D02*
X75750000Y-926690000D01*
X301160000Y-324915800D02*
X291010000Y-344630000D01*
X483250000Y-1118032200D02*
X480020000Y-1115450000D01*
X246030000Y-413932800D02*
X237020000Y-429270000D01*
X103150000Y-273492200D02*
X106090000Y-238710000D01*
X522470000Y-261931100D02*
X503260000Y-280360000D01*
X568920000Y-801206200D02*
X555060000Y-776770000D01*
X71290000Y-298136900D02*
X71290000Y-294640000D01*
X710510000Y-979274600D02*
X710530000Y-979320000D01*
X314700000Y-510134600D02*
X314010000Y-512940000D01*
X312990000Y-1143807200D02*
X313000000Y-1143820000D01*
X121460000Y-308767600D02*
X121950000Y-284290000D01*
X397250000Y-112595600D02*
X423780000Y-127250000D01*
X263480000Y-62952200D02*
X290950000Y-64870000D01*
X246030000Y-575621600D02*
X242650000Y-590280000D01*
X108680000Y-684140500D02*
X108270000Y-671340000D01*
X250410000Y-1437045300D02*
X224220000Y-1437370000D01*
X382540000Y-475505400D02*
X395420000Y-446980000D01*
X116760000Y-108664600D02*
X120530000Y-104500000D01*
X416380000Y-1155161000D02*
X425730000Y-1165880000D01*
X423740000Y-1143337000D02*
X431880000Y-1151870000D01*
X211690000Y-922833700D02*
X212500000Y-927030000D01*
X68250000Y-608447600D02*
X67600000Y-576370000D01*
X122350000Y-481743700D02*
X120780000Y-466940000D01*
X400210000Y-1331726600D02*
X379370000Y-1356990000D01*
X117560000Y-1267997200D02*
X115530000Y-1258840000D01*
X178390000Y-142000200D02*
X179820000Y-141260000D01*
X374100000Y-991993800D02*
X371220000Y-979680000D01*
X220650000Y-882910300D02*
X222940000Y-894520000D01*
X569110000Y-217597600D02*
X548260000Y-238160000D01*
X117730000Y-1070758100D02*
X118990000Y-1059630000D01*
X408860000Y-1288312300D02*
X406700000Y-1302280000D01*
X315970000Y-402167700D02*
X304460000Y-429800000D01*
X284790000Y-1405461100D02*
X267810000Y-1406740000D01*
X125300000Y-246773700D02*
X129670000Y-226050000D01*
X379150000Y-629237300D02*
X378030000Y-595290000D01*
X411450000Y-416278700D02*
X413540000Y-412910000D01*
X121310000Y-861074300D02*
X122960000Y-837090000D01*
X122770000Y-209130200D02*
X132420000Y-185280000D01*
X714790000Y-1150962300D02*
X708270000Y-1181310000D01*
X95460000Y-1136853700D02*
X96580000Y-1111950000D01*
X469900000Y-1398262500D02*
X445270000Y-1410180000D01*
X599590000Y-1266806000D02*
X589130000Y-1259360000D01*
X545050000Y-396837100D02*
X559100000Y-394390000D01*
X513420000Y-383519700D02*
X513690000Y-383380000D01*
X460460000Y-359213800D02*
X472420000Y-349040000D01*
X700910000Y-865512300D02*
X691710000Y-871690000D01*
X567760000Y-922466000D02*
X585310000Y-932520000D01*
X292530000Y-683844100D02*
X291910000Y-697460000D01*
X68250000Y-884558900D02*
X68900000Y-851730000D01*
X282390000Y-928665700D02*
X287900000Y-962610000D01*
X131980000Y-302723400D02*
X132230000Y-290200000D01*
X73900000Y-163350800D02*
X77900000Y-145330000D01*
X71330000Y-1165893700D02*
X71330000Y-1162440000D01*
X206698201Y-328382818D02*
X206707995Y-328382818D01*
X329310000Y-211640300D02*
X330310000Y-220880000D01*
X364910000Y-936617300D02*
X364220000Y-918780000D01*
X313250000Y-44973400D02*
X319360000Y-45670000D01*
X253300000Y-149243000D02*
X262260000Y-152270000D01*
X690290000Y-945876300D02*
X710510000Y-979270000D01*
X702260000Y-437605400D02*
X701660000Y-452050000D01*
X59300000Y-975583200D02*
X59300000Y-958310000D01*
X371220000Y-979683000D02*
X367940000Y-956090000D01*
X346470000Y-613418700D02*
X346770000Y-610640000D01*
X165860000Y-1335675800D02*
X161520000Y-1331270000D01*
X411260000Y-80357100D02*
X420310000Y-84070000D01*
X307570000Y-123551900D02*
X330560000Y-133830000D01*
X139950000Y-531295400D02*
X136480000Y-497360000D01*
X72170000Y-1244299600D02*
X72170000Y-1241810000D01*
X541880000Y-1441024600D02*
X524230000Y-1441020000D01*
X698440000Y-589184900D02*
X676990000Y-598410000D01*
X45690000Y-1377822400D02*
X45690000Y-1345070000D01*
X573480000Y-663438900D02*
X590640000Y-651810000D01*
X102710000Y-102710700D02*
X113700000Y-92080000D01*
X142990000Y-769706600D02*
X142990000Y-750000000D01*
X541880000Y-58972400D02*
X569480000Y-69080000D01*
X453560000Y-1288312300D02*
X453560000Y-1289370000D01*
X143670000Y-106030300D02*
X155630000Y-100180000D01*
X130420000Y-579735000D02*
X129340000Y-564650000D01*
X190095495Y-750849384D02*
X189991026Y-750953853D01*
X506220000Y-584777600D02*
X486870000Y-596740000D01*
X300960000Y-135050100D02*
X318770000Y-143010000D01*
X343640000Y-693932800D02*
X343960000Y-687920000D01*
X290750000Y-1274330000D02*
X286270000Y-1287040000D01*
X190090000Y-1347458500D02*
X169170000Y-1337530000D01*
X596640000Y-1314962600D02*
X605230000Y-1322650000D01*
X166260000Y-980298000D02*
X177350000Y-950320000D01*
X95230000Y-1434020900D02*
X86050000Y-1426970000D01*
X43540000Y-1107032800D02*
X43620000Y-1102920000D01*
X385160000Y-1063188500D02*
X382350000Y-1057090000D01*
X176190000Y-755952008D02*
X167694535Y-747456543D01*
X122370000Y-1018245900D02*
X123850000Y-995380000D01*
X45500000Y-155915600D02*
X45500000Y-122790000D01*
X541910000Y-246025100D02*
X522470000Y-261930000D01*
X361100000Y-855540700D02*
X362110000Y-841100000D01*
X57400000Y-326107600D02*
X57390000Y-306130000D01*
X251590000Y-1101804300D02*
X255880000Y-1110740000D01*
X341640000Y-489364300D02*
X339210000Y-499260000D01*
X589400000Y-783316100D02*
X579580000Y-755640000D01*
X79100000Y-750000000D02*
X69770000Y-740000000D01*
X342370000Y-1049665000D02*
X348530000Y-1065010000D01*
X123840000Y-504624100D02*
X122350000Y-481740000D01*
X623730000Y-1061769700D02*
X620240000Y-1082290000D01*
X738740000Y-334308500D02*
X738740000Y-349040000D01*
X680290000Y-1082287200D02*
X676010000Y-1108100000D01*
X524253381Y-497990353D02*
X524160000Y-498060000D01*
X439340000Y-1120045600D02*
X438590000Y-1119280000D01*
X48860000Y-1414592400D02*
X48860000Y-1387360000D01*
X330310000Y-1275486600D02*
X329490000Y-1287660000D01*
X719020000Y-1131355500D02*
X714790000Y-1150960000D01*
X475960000Y-415069000D02*
X487670000Y-404310000D01*
X52390000Y-836002800D02*
X52620000Y-821640000D01*
X53220000Y-166670100D02*
X56510000Y-151080000D01*
X48860000Y-1387359700D02*
X45690000Y-1377820000D01*
X330460000Y-956273400D02*
X334040000Y-975560000D01*
X565070000Y-452050200D02*
X560120000Y-464720000D01*
X173650000Y-196851500D02*
X201490000Y-181540000D01*
X289930000Y-221956100D02*
X292940000Y-243990000D01*
X243260000Y-1220210300D02*
X244090000Y-1223070000D01*
X448160000Y-1346526600D02*
X442090000Y-1356990000D01*
X318740000Y-1356987400D02*
X300960000Y-1364940000D01*
X513080000Y-706163300D02*
X509740000Y-716870000D01*
X479240000Y-211687700D02*
X466300000Y-232810000D01*
X738350000Y-765425700D02*
X737460000Y-777230000D01*
X265910000Y-761423700D02*
X266370000Y-777760000D01*
X241690000Y-100904800D02*
X273990000Y-104010000D01*
X157030000Y-1275068300D02*
X147060000Y-1245510000D01*
X438590000Y-1119278700D02*
X434630000Y-1114460000D01*
X385970000Y-516944900D02*
X386630000Y-512570000D01*
X483260000Y-1338960100D02*
X477020000Y-1356990000D01*
X315360000Y-377236500D02*
X307730000Y-392670000D01*
X488360000Y-1065204500D02*
X475350000Y-1050610000D01*
X710540000Y-520697100D02*
X710530000Y-520730000D01*
X740000000Y-383375200D02*
X740820000Y-399360000D01*
X74690000Y-1282702000D02*
X74620000Y-1282340000D01*
X293960000Y-461975000D02*
X286840000Y-489890000D01*
X74340000Y-221921400D02*
X74640000Y-217670000D01*
X290350000Y-1367505400D02*
X266780000Y-1374110000D01*
X429740000Y-1451815900D02*
X399700000Y-1451820000D01*
X181299384Y-675057116D02*
X181299384Y-729887487D01*
X285650000Y-1082239600D02*
X289160000Y-1090550000D01*
X301830000Y-64868500D02*
X332380000Y-68330000D01*
X654860000Y-694439600D02*
X669920000Y-705070000D01*
X74820000Y-533330300D02*
X74790000Y-532790000D01*
X476770000Y-103652100D02*
X485280000Y-108680000D01*
X200020000Y-736977000D02*
X200030000Y-763030000D01*
X51580000Y-953872300D02*
X51830000Y-940430000D01*
X698210000Y-633695200D02*
X721300000Y-640590000D01*
X349770000Y-143012600D02*
X366660000Y-158020000D01*
X167640000Y-120545500D02*
X195320000Y-113760000D01*
X346630000Y-1253396800D02*
X347120000Y-1270040000D01*
X81910000Y-174805300D02*
X87220000Y-150910000D01*
X90460000Y-1273239500D02*
X88920000Y-1251430000D01*
X345790000Y-1443002300D02*
X325870000Y-1443000000D01*
X381290000Y-1253745000D02*
X384180000Y-1272800000D01*
X78950000Y-338482900D02*
X78820000Y-333260000D01*
X374810000Y-73519000D02*
X375750000Y-73520000D01*
X43780000Y-988838200D02*
X43860000Y-984450000D01*
X57870000Y-247488100D02*
X59240000Y-226170000D01*
X108740000Y-1026146400D02*
X108740000Y-1026070000D01*
X616090000Y-949775100D02*
X640090000Y-966950000D01*
X482520000Y-771941100D02*
X486390000Y-780330000D01*
X313690000Y-1119269700D02*
X322390000Y-1137910000D01*
X73320000Y-1046418400D02*
X73320000Y-1045250000D01*
X385390000Y-1408055200D02*
X368550000Y-1413940000D01*
X251490000Y-1062415300D02*
X254660000Y-1070510000D01*
X65910000Y-1040995500D02*
X66470000Y-1010910000D01*
X344820000Y-415560100D02*
X342300000Y-421850000D01*
X203510000Y-1398171900D02*
X197850000Y-1397800000D01*
X126830000Y-1329339500D02*
X117660000Y-1307460000D01*
X58090000Y-405393100D02*
X57700000Y-384840000D01*
X705930000Y-1185299900D02*
X689490000Y-1217310000D01*
X229760000Y-661771800D02*
X227140000Y-681960000D01*
X50440000Y-1177890600D02*
X50440000Y-1150440000D01*
X347050000Y-231212000D02*
X346780000Y-245690000D01*
X253520000Y-1350828400D02*
X223030000Y-1353260000D01*
X419780000Y-965757800D02*
X421570000Y-929720000D01*
X52760000Y-750000000D02*
X44250000Y-740000000D01*
X255870000Y-468233400D02*
X252970000Y-477880000D01*
X155630000Y-100176400D02*
X165240000Y-98480000D01*
X385260000Y-125627900D02*
X409700000Y-143010000D01*
X278330000Y-1194661000D02*
X281780000Y-1203430000D01*
X208680000Y-1408325900D02*
X191930000Y-1407220000D01*
X289160000Y-1090547600D02*
X298520000Y-1114470000D01*
X79040000Y-727575600D02*
X78650000Y-693310000D01*
X383130000Y-1026467500D02*
X382980000Y-1026010000D01*
X344430000Y-1154924600D02*
X360940000Y-1183770000D01*
X108270000Y-828656800D02*
X108680000Y-815790000D01*
X349040000Y-581015500D02*
X349820000Y-572950000D01*
X134090000Y-1317438400D02*
X123600000Y-1293580000D01*
X108260000Y-829126500D02*
X108270000Y-828660000D01*
X286210000Y-451164700D02*
X284450000Y-456510000D01*
X43780000Y-511162100D02*
X43780000Y-476060000D01*
X621500000Y-297004200D02*
X641590000Y-297420000D01*
X216010000Y-1365856100D02*
X194440000Y-1362180000D01*
X590160000Y-608318700D02*
X567220000Y-621260000D01*
X108680000Y-1027051100D02*
X108740000Y-1026150000D01*
X141790000Y-220583200D02*
X142050000Y-219790000D01*
X51540000Y-204408100D02*
X53220000Y-190550000D01*
X254730000Y-794442700D02*
X256940000Y-822620000D01*
X227150000Y-818048900D02*
X229780000Y-838220000D01*
X554580000Y-847180400D02*
X556360000Y-848830000D01*
X449500000Y-988122500D02*
X449500000Y-988120000D01*
X426100000Y-502507400D02*
X428060000Y-492130000D01*
X102960000Y-950502300D02*
X103110000Y-944030000D01*
X50440000Y-1150442800D02*
X50620000Y-1138350000D01*
X85400000Y-578852200D02*
X84820000Y-566480000D01*
X227350000Y-1094273600D02*
X235740000Y-1110910000D01*
X82660000Y-488830800D02*
X82010000Y-458570000D01*
X64780000Y-1130214300D02*
X64780000Y-1119230000D01*
X79610000Y-1318883600D02*
X74690000Y-1282700000D01*
X314010000Y-987060500D02*
X314700000Y-989830000D01*
X690910000Y-211558600D02*
X691000000Y-211690000D01*
X403480000Y-1038447700D02*
X396510000Y-1019000000D01*
X312050000Y-357720400D02*
X310330000Y-361730000D01*
X69770000Y-772344800D02*
X69770000Y-767100000D01*
X304420000Y-992570800D02*
X312390000Y-1024790000D01*
X344050000Y-530191100D02*
X342860000Y-536600000D01*
X222940000Y-894517300D02*
X227580000Y-918370000D01*
X159280000Y-405379300D02*
X153890000Y-381530000D01*
X196730000Y-1386441900D02*
X171230000Y-1380690000D01*
X615720000Y-882511600D02*
X618860000Y-883980000D01*
X102480000Y-319668000D02*
X102470000Y-312550000D01*
X162330000Y-504704200D02*
X155770000Y-486280000D01*
X102480000Y-1187447300D02*
X102490000Y-1180340000D01*
X97510000Y-1256362500D02*
X95360000Y-1230980000D01*
X541880000Y-1253974900D02*
X548250000Y-1261870000D01*
X146610000Y-1420492600D02*
X139580000Y-1417410000D01*
X96570000Y-388048900D02*
X95450000Y-363150000D01*
X214900000Y-146929600D02*
X220160000Y-146590000D01*
X280820000Y-368454200D02*
X277160000Y-375310000D01*
X185030000Y-170489400D02*
X194130000Y-165820000D01*
X348530000Y-96442100D02*
X361380000Y-98530000D01*
X251590000Y-398195700D02*
X246030000Y-413930000D01*
X68450000Y-1358676800D02*
X62160000Y-1328940000D01*
X94940000Y-284558400D02*
X95360000Y-269020000D01*
X460390000Y-246025100D02*
X445210000Y-264770000D01*
X452220000Y-1429050600D02*
X420340000Y-1435450000D01*
X114770000Y-1108500200D02*
X115610000Y-1101010000D01*
X368550000Y-86052200D02*
X385390000Y-91940000D01*
X140620000Y-416098800D02*
X140420000Y-413230000D01*
X84200000Y-961278800D02*
X84820000Y-933520000D01*
X451350000Y-1085834900D02*
X435700000Y-1064610000D01*
X133340000Y-341387500D02*
X132950000Y-330050000D01*
X245360000Y-1164581300D02*
X251960000Y-1180420000D01*
X532590000Y-782630600D02*
X526910000Y-753550000D01*
X383420000Y-1027219000D02*
X383130000Y-1026470000D01*
X557850000Y-583359700D02*
X552610000Y-586300000D01*
X333410000Y-620919800D02*
X332560000Y-641920000D01*
X350740000Y-403612500D02*
X344820000Y-415560000D01*
X315080000Y-432868500D02*
X313900000Y-435710000D01*
X99350000Y-715909500D02*
X99230000Y-705130000D01*
X680290000Y-775327400D02*
X669070000Y-796270000D01*
X351050000Y-280221700D02*
X344390000Y-292110000D01*
X317170000Y-827470100D02*
X317230000Y-830340000D01*
X57390000Y-1213347000D02*
X57390000Y-1193880000D01*
X664540000Y-599681600D02*
X645060000Y-607820000D01*
X197530000Y-896187100D02*
X211690000Y-922830000D01*
X361420000Y-816275900D02*
X362410000Y-801490000D01*
X355330000Y-1080739700D02*
X361860000Y-1093440000D01*
X456110000Y-1429050600D02*
X452220000Y-1429050000D01*
X494730000Y-350985300D02*
X497730000Y-349040000D01*
X572650000Y-280619100D02*
X573410000Y-280360000D01*
X133240000Y-1288119200D02*
X130250000Y-1275460000D01*
X378870000Y-634254500D02*
X379150000Y-629240000D01*
X209930000Y-1376754800D02*
X188270000Y-1373070000D01*
X472380000Y-1046773600D02*
X467500000Y-1039290000D01*
X329270000Y-781074200D02*
X329400000Y-797890000D01*
X343400000Y-727038500D02*
X343640000Y-693930000D01*
X406130000Y-1234591000D02*
X418450000Y-1253970000D01*
X591080000Y-712734683D02*
X580600819Y-723213864D01*
X424630000Y-1076930000D02*
X416040000Y-1063580000D01*
X143010000Y-310957000D02*
X142510000Y-296680000D01*
X312160000Y-593683800D02*
X308700000Y-628220000D01*
X318450000Y-318049800D02*
X315780000Y-323500000D01*
X332240000Y-367251600D02*
X318650000Y-396000000D01*
X345210000Y-343572300D02*
X332240000Y-367250000D01*
X68900000Y-648266400D02*
X68250000Y-615440000D01*
X142990000Y-750000000D02*
X126850000Y-740000000D01*
X241000000Y-707670400D02*
X240570000Y-713690000D01*
X215140000Y-850596600D02*
X220650000Y-882910000D01*
X108260000Y-670874800D02*
X106590000Y-632860000D01*
X367110000Y-60111200D02*
X383450000Y-60110000D01*
X140190000Y-965321300D02*
X140190000Y-965320000D01*
X349040000Y-505951000D02*
X344050000Y-530190000D01*
X548600000Y-812876700D02*
X542060000Y-801700000D01*
X84820000Y-933521400D02*
X85400000Y-921150000D01*
X118980000Y-440360700D02*
X117720000Y-429250000D01*
X254630000Y-597165800D02*
X250070000Y-629340000D01*
X106090000Y-238705400D02*
X106300000Y-235860000D01*
X319370000Y-1454334400D02*
X313250000Y-1455030000D01*
X378040000Y-904714600D02*
X379160000Y-870760000D01*
X95870000Y-193416700D02*
X105480000Y-163080000D01*
X227080000Y-1408981200D02*
X208680000Y-1408330000D01*
X346790000Y-889347500D02*
X346490000Y-886590000D01*
X400210000Y-168273000D02*
X405460000Y-177350000D01*
X343970000Y-812075800D02*
X343650000Y-806070000D01*
X552800000Y-1054544100D02*
X535130000Y-1050000000D01*
X423830000Y-227545500D02*
X418440000Y-246030000D01*
X325790000Y-1032482200D02*
X333060000Y-1055010000D01*
X214550000Y-653033500D02*
X211690000Y-675030000D01*
X72580000Y-1084265500D02*
X73320000Y-1046420000D01*
X499200000Y-221422200D02*
X484120000Y-246030000D01*
X78770000Y-1358480000D02*
X74020000Y-1337990000D01*
X683970000Y-732793300D02*
X683160000Y-768270000D01*
X112280000Y-1146516100D02*
X112680000Y-1142140000D01*
X435290000Y-280362700D02*
X422790000Y-294410000D01*
X587730000Y-1108801500D02*
X559070000Y-1105660000D01*
X276700000Y-1122861000D02*
X278100000Y-1126240000D01*
X625220000Y-1047949800D02*
X623730000Y-1061770000D01*
X240930000Y-1253777000D02*
X240220000Y-1257510000D01*
X120780000Y-466935900D02*
X118980000Y-440360000D01*
X62030000Y-172228100D02*
X67530000Y-146240000D01*
X92230000Y-503886500D02*
X91340000Y-483840000D01*
X266770000Y-125903000D02*
X290340000Y-132490000D01*
X224220000Y-1437365900D02*
X210780000Y-1437370000D01*
X624080000Y-808719500D02*
X623130000Y-808760000D01*
X435300000Y-1219637300D02*
X445210000Y-1235230000D01*
X599550000Y-233270400D02*
X618790000Y-223600000D01*
X400550000Y-468721900D02*
X407060000Y-454310000D01*
X682460000Y-520725400D02*
X676630000Y-530330000D01*
X696940000Y-910203300D02*
X708930000Y-915620000D01*
X301910000Y-152623100D02*
X322840000Y-165640000D01*
X82670000Y-1011173100D02*
X83100000Y-1001360000D01*
X107100000Y-189271700D02*
X115420000Y-168000000D01*
X145930000Y-186105700D02*
X158910000Y-171480000D01*
X555060000Y-723171300D02*
X568710000Y-699110000D01*
X523450000Y-332307500D02*
X552290000Y-315550000D01*
X346780000Y-245688800D02*
X336150000Y-278270000D01*
X520730000Y-694382100D02*
X513080000Y-706160000D01*
X551630000Y-732248700D02*
X552320000Y-728700000D01*
X397210000Y-1129671100D02*
X413960000Y-1151720000D01*
X53300000Y-1309859600D02*
X51540000Y-1295600000D01*
X280360000Y-809408900D02*
X283520000Y-846800000D01*
X278420000Y-731394300D02*
X278420000Y-768610000D01*
X148530000Y-457333200D02*
X146650000Y-452080000D01*
X337150000Y-579329900D02*
X335260000Y-604030000D01*
X349070000Y-211687700D02*
X347050000Y-231210000D01*
X632310000Y-691131800D02*
X654860000Y-694440000D01*
X396980000Y-1250534300D02*
X399160000Y-1253970000D01*
X388460000Y-1288312300D02*
X385660000Y-1306390000D01*
X330560000Y-133832500D02*
X339340000Y-136920000D01*
X558530000Y-529154800D02*
X535280000Y-543410000D01*
X486810000Y-177350100D02*
X482300000Y-191990000D01*
X214560000Y-846958900D02*
X215140000Y-850600000D01*
X311540000Y-1200417200D02*
X320740000Y-1221750000D01*
X464940000Y-314700100D02*
X445130000Y-333300000D01*
X531950000Y-1150962300D02*
X505060000Y-1133440000D01*
X110030000Y-788668800D02*
X110710000Y-751170000D01*
X246030000Y-924348700D02*
X249400000Y-945280000D01*
X280250000Y-1130233100D02*
X291710000Y-1156880000D01*
X50430000Y-1217341600D02*
X50430000Y-1189880000D01*
X255680000Y-72133300D02*
X258210000Y-72130000D01*
X315140000Y-710303900D02*
X315130000Y-710810000D01*
X450350000Y-893630000D02*
X489180000Y-942520000D01*
X43700000Y-1028237300D02*
X43780000Y-1023940000D01*
X231460000Y-1338052400D02*
X204140000Y-1336680000D01*
X235950000Y-110902400D02*
X238610000Y-111080000D01*
X57070000Y-1371244300D02*
X57070000Y-1351870000D01*
X60640000Y-659254300D02*
X60640000Y-643520000D01*
X141340000Y-1306527400D02*
X133240000Y-1288120000D01*
X122230000Y-137154800D02*
X131730000Y-126650000D01*
X358140000Y-1322649900D02*
X356660000Y-1324570000D01*
X526914134Y-750008292D02*
X526910000Y-750004158D01*
X65910000Y-449326700D02*
X65330000Y-419890000D01*
X142530000Y-1203888300D02*
X142520000Y-1203330000D01*
X505290000Y-300696800D02*
X532410000Y-280360000D01*
X74340000Y-1278296400D02*
X72170000Y-1244300000D01*
X287550000Y-616073900D02*
X283780000Y-649420000D01*
X57870000Y-1233598900D02*
X57390000Y-1213350000D01*
X485040000Y-295290600D02*
X470430000Y-308690000D01*
X314170000Y-1387939200D02*
X300150000Y-1391320000D01*
X304410000Y-507425800D02*
X301740000Y-520780000D01*
X436020000Y-1251238500D02*
X438230000Y-1253970000D01*
X129180000Y-1077333700D02*
X132030000Y-1052140000D01*
X502400000Y-1077706800D02*
X488360000Y-1065200000D01*
X51540000Y-1269405000D02*
X50720000Y-1256620000D01*
X141070000Y-691951800D02*
X140950000Y-689650000D01*
X43620000Y-397078500D02*
X43540000Y-392970000D01*
X402670000Y-95320500D02*
X434200000Y-108260000D01*
X510240000Y-1253974900D02*
X511840000Y-1256580000D01*
X271470000Y-459276000D02*
X263960000Y-484190000D01*
X460460000Y-1118951900D02*
X447890000Y-1106110000D01*
X506890000Y-1288312300D02*
X516200000Y-1317660000D01*
X99230000Y-705131100D02*
X98350000Y-677040000D01*
X400460000Y-386719600D02*
X386390000Y-409420000D01*
X592090000Y-787898300D02*
X589400000Y-783320000D01*
X95420000Y-900163200D02*
X96620000Y-875260000D01*
X370040000Y-1058035800D02*
X374880000Y-1069240000D01*
X74340000Y-511302400D02*
X74020000Y-493790000D01*
X524230000Y-1441024600D02*
X505540000Y-1446440000D01*
X616580000Y-409637900D02*
X620210000Y-417710000D01*
X73320000Y-1045248200D02*
X74030000Y-1006570000D01*
X362550000Y-750000000D02*
X387530000Y-740000000D01*
X299820000Y-444176600D02*
X293960000Y-461980000D01*
X134070000Y-1237921900D02*
X132240000Y-1209800000D01*
X459420000Y-793674800D02*
X470820000Y-818110000D01*
X731090000Y-1218216600D02*
X731090000Y-1219640000D01*
X735910000Y-691541000D02*
X735940000Y-700830000D01*
X654710000Y-411923400D02*
X655680000Y-417710000D01*
X102390000Y-66192500D02*
X129960000Y-57700000D01*
X342080000Y-1150839300D02*
X344430000Y-1154920000D01*
X322390000Y-1137906500D02*
X329290000Y-1150530000D01*
X167670000Y-1445448600D02*
X150450000Y-1442650000D01*
X102960000Y-549494200D02*
X101540000Y-517430000D01*
X314690000Y-1066266100D02*
X327300000Y-1097510000D01*
X680270000Y-452050200D02*
X678360000Y-464670000D01*
X132370000Y-214429600D02*
X139400000Y-197040000D01*
X330440000Y-543734700D02*
X328250000Y-560560000D01*
X391910000Y-314430300D02*
X374190000Y-340050000D01*
X601490000Y-399513100D02*
X616580000Y-409640000D01*
X142520000Y-1203327400D02*
X143010000Y-1189360000D01*
X51830000Y-940427000D02*
X51830000Y-914570000D01*
X280360000Y-586221500D02*
X276810000Y-609910000D01*
X78650000Y-693311700D02*
X78500000Y-688440000D01*
X188270000Y-1373066900D02*
X177690000Y-1370680000D01*
X328840000Y-741879700D02*
X328840000Y-758120000D01*
X288430000Y-607311700D02*
X287550000Y-616070000D01*
X50720000Y-1229492600D02*
X50430000Y-1217340000D01*
X339890000Y-1418594500D02*
X332920000Y-1420580000D01*
X589150000Y-240670800D02*
X599550000Y-233270000D01*
X219020000Y-1428312100D02*
X215980000Y-1428310000D01*
X147550000Y-1354394100D02*
X141050000Y-1347800000D01*
X319400000Y-1385598600D02*
X314170000Y-1387940000D01*
X161130000Y-44868600D02*
X194980000Y-44870000D01*
X277230000Y-534856500D02*
X271290000Y-567290000D01*
X207360000Y-123516500D02*
X229340000Y-122460000D01*
X624620000Y-691453100D02*
X632310000Y-691130000D01*
X591180000Y-676446000D02*
X593860000Y-674750000D01*
X304750000Y-823172100D02*
X305670000Y-834080000D01*
X51340000Y-506819400D02*
X51340000Y-480400000D01*
X708600000Y-791213500D02*
X703350000Y-809930000D01*
X470440000Y-1191311900D02*
X485040000Y-1204710000D01*
X122090000Y-1424969400D02*
X106030000Y-1419770000D01*
X535520000Y-450817900D02*
X549360000Y-446090000D01*
X78860000Y-1206209400D02*
X78780000Y-1201060000D01*
X138780000Y-154784800D02*
X145420000Y-147500000D01*
X296740000Y-1425058800D02*
X296110000Y-1425180000D01*
X79100000Y-766984500D02*
X79100000Y-750000000D01*
X273960000Y-450487200D02*
X271470000Y-459280000D01*
X86900000Y-289175400D02*
X87560000Y-264540000D01*
X307730000Y-392666800D02*
X303510000Y-403490000D01*
X318770000Y-143012600D02*
X331340000Y-150830000D01*
X93960000Y-561229300D02*
X93580000Y-544110000D01*
X111670000Y-1221610300D02*
X110950000Y-1185190000D01*
X372750000Y-1032366500D02*
X367740000Y-1017200000D01*
X704010000Y-692165100D02*
X710070000Y-713560000D01*
X649060000Y-211687700D02*
X650730000Y-210550000D01*
X269440000Y-921228400D02*
X271290000Y-932710000D01*
X379760000Y-1216313000D02*
X382060000Y-1219510000D01*
X470840000Y-1129090800D02*
X460460000Y-1118950000D01*
X738710000Y-1136288700D02*
X738700000Y-1150960000D01*
X108680000Y-1276696900D02*
X106300000Y-1264140000D01*
X82010000Y-458572100D02*
X81600000Y-449990000D01*
X414400000Y-747335232D02*
X414400000Y-653293000D01*
X467500000Y-1039292700D02*
X459570000Y-1017050000D01*
X555080000Y-629402700D02*
X537300000Y-642250000D01*
X281610000Y-117285200D02*
X307570000Y-123550000D01*
X113820000Y-549821900D02*
X111510000Y-514960000D01*
X110940000Y-314811700D02*
X111670000Y-278380000D01*
X390390000Y-1391325000D02*
X361380000Y-1401470000D01*
X256940000Y-822622300D02*
X258120000Y-835840000D01*
X456330000Y-786983900D02*
X459420000Y-793670000D01*
X482310000Y-1307993900D02*
X486820000Y-1322650000D01*
X569490000Y-1430907600D02*
X541880000Y-1441020000D01*
X505280000Y-1199315800D02*
X489000000Y-1185300000D01*
X584260000Y-955839500D02*
X600890000Y-966890000D01*
X280910000Y-337265600D02*
X280490000Y-338090000D01*
X549150000Y-610332200D02*
X521750000Y-630560000D01*
X92240000Y-996109100D02*
X92630000Y-977450000D01*
X283800000Y-850585300D02*
X287570000Y-883920000D01*
X66580000Y-1402665400D02*
X66580000Y-1399860000D01*
X379390000Y-143012600D02*
X400210000Y-168270000D01*
X196520000Y-444561000D02*
X195580000Y-444920000D01*
X686510000Y-829676300D02*
X671180000Y-839780000D01*
X99350000Y-784089700D02*
X99680000Y-755160000D01*
X263140000Y-878165600D02*
X265730000Y-896460000D01*
X324000000Y-518675200D02*
X318030000Y-550870000D01*
X729700000Y-944937200D02*
X730000000Y-945420000D01*
X298140000Y-877844800D02*
X300310000Y-899510000D01*
X674460000Y-383375200D02*
X676020000Y-391920000D01*
X430870000Y-211687700D02*
X423830000Y-227550000D01*
X613540000Y-1015080700D02*
X625220000Y-1047950000D01*
X423780000Y-127248300D02*
X442080000Y-143010000D01*
X359410000Y-46703400D02*
X391150000Y-46700000D01*
X127010000Y-957752500D02*
X129350000Y-935350000D01*
X553340000Y-938498600D02*
X576410000Y-951230000D01*
X387060000Y-1203089800D02*
X398910000Y-1219570000D01*
X739970000Y-1116624800D02*
X738710000Y-1136290000D01*
X142520000Y-296105200D02*
X143010000Y-288450000D01*
X146690000Y-1047944300D02*
X148580000Y-1042640000D01*
X272230000Y-250058400D02*
X267850000Y-276850000D01*
X197860000Y-1293273900D02*
X175810000Y-1276260000D01*
X346750000Y-124001000D02*
X373250000Y-139490000D01*
X273990000Y-1395984800D02*
X241680000Y-1399090000D01*
X101370000Y-990862000D02*
X101550000Y-982570000D01*
X60180000Y-603811700D02*
X59720000Y-580900000D01*
X532380000Y-1219637300D02*
X505280000Y-1199320000D01*
X362360000Y-1038265500D02*
X370040000Y-1058040000D01*
X482630000Y-382873600D02*
X504060000Y-367230000D01*
X338940000Y-933297700D02*
X342880000Y-963410000D01*
X553080000Y-315229900D02*
X554590000Y-314700000D01*
X292540000Y-816163200D02*
X294600000Y-840440000D01*
X475820000Y-1085243500D02*
X466350000Y-1074630000D01*
X307530000Y-951341900D02*
X313840000Y-986170000D01*
X69770000Y-727655400D02*
X69450000Y-693640000D01*
X475350000Y-1050614600D02*
X472380000Y-1046770000D01*
X142050000Y-219788300D02*
X142350000Y-219210000D01*
X168390000Y-181156700D02*
X185030000Y-170490000D01*
X573570000Y-1286452400D02*
X576180000Y-1288310000D01*
X50430000Y-1189880600D02*
X50440000Y-1177890000D01*
X566520000Y-1048712600D02*
X559670000Y-1056380000D01*
X331280000Y-1209721100D02*
X335840000Y-1220290000D01*
X346490000Y-886590200D02*
X345030000Y-850910000D01*
X238610000Y-1388917100D02*
X236010000Y-1389110000D01*
X122810000Y-347438000D02*
X121990000Y-323760000D01*
X494000000Y-695207100D02*
X486390000Y-719600000D01*
X171900000Y-1302560400D02*
X171770000Y-1302350000D01*
X220640000Y-617083800D02*
X215130000Y-649410000D01*
X132860000Y-1040000400D02*
X135990000Y-1010420000D01*
X379160000Y-870757000D02*
X378880000Y-865750000D01*
X133710000Y-1402299800D02*
X128450000Y-1400600000D01*
X380930000Y-351390800D02*
X364970000Y-377460000D01*
X516440000Y-314700100D02*
X542940000Y-297570000D01*
X515660000Y-635788400D02*
X493560000Y-655510000D01*
X477020000Y-1356987400D02*
X462940000Y-1372260000D01*
X632580000Y-588590400D02*
X630830000Y-589130000D01*
X364900000Y-563390600D02*
X367930000Y-543910000D01*
X387530000Y-740000000D02*
X385110000Y-711550000D01*
X61270000Y-750000000D02*
X52760000Y-740000000D01*
X314700000Y-574688800D02*
X312520000Y-590970000D01*
X612900000Y-552324000D02*
X610190000Y-554280000D01*
X485280000Y-108675000D02*
X503660000Y-125520000D01*
X79770000Y-1239935000D02*
X78860000Y-1206210000D01*
X301920000Y-1347357500D02*
X294130000Y-1352700000D01*
X740790000Y-1100582100D02*
X739970000Y-1116620000D01*
X617610000Y-979030200D02*
X626900000Y-988550000D01*
X98450000Y-127118300D02*
X116760000Y-108660000D01*
X645600000Y-1013604400D02*
X647990000Y-1019520000D01*
X278260000Y-174568400D02*
X282350000Y-177350000D01*
X99680000Y-755163800D02*
X99680000Y-750000000D01*
X146780000Y-255032100D02*
X155810000Y-227840000D01*
X58260000Y-1439330500D02*
X58260000Y-1428510000D01*
X737460000Y-777229200D02*
X735620000Y-807750000D01*
X275090000Y-1088307400D02*
X280350000Y-1099260000D01*
X250410000Y-62952200D02*
X263480000Y-62950000D01*
X359410000Y-1453296100D02*
X352300000Y-1454330000D01*
X43540000Y-392967400D02*
X43540000Y-357590000D01*
X113390000Y-48730400D02*
X122580000Y-45900000D01*
X165340000Y-875232000D02*
X169230000Y-863670000D01*
X104800000Y-594446600D02*
X104690000Y-589940000D01*
X497730000Y-349037700D02*
X523450000Y-332310000D01*
X554150000Y-652795600D02*
X550530000Y-656510000D01*
X284790000Y-94536600D02*
X311050000Y-99870000D01*
X232690000Y-1399211000D02*
X203510000Y-1398170000D01*
X429740000Y-48184100D02*
X440370000Y-50320000D01*
X217040000Y-324713400D02*
X201520000Y-387460000D01*
X245130000Y-1446227300D02*
X229420000Y-1446420000D01*
X575520000Y-69081300D02*
X586590000Y-74340000D01*
X132420000Y-185278000D02*
X134540000Y-179830000D01*
X246030000Y-1086075400D02*
X251590000Y-1101800000D01*
X587690000Y-391268000D02*
X601490000Y-399510000D01*
X135110000Y-1247591700D02*
X134070000Y-1237920000D01*
X244240000Y-985641000D02*
X244690000Y-987440000D01*
X44430000Y-1304767900D02*
X43850000Y-1300010000D01*
X115530000Y-1258841600D02*
X111910000Y-1225190000D01*
X161370000Y-1362143000D02*
X147550000Y-1354390000D01*
X524230000Y-58972400D02*
X541880000Y-58970000D01*
X294600000Y-840436100D02*
X295840000Y-857500000D01*
X93580000Y-955890500D02*
X93970000Y-938770000D01*
X43850000Y-235012200D02*
X43850000Y-199990000D01*
X683160000Y-768271500D02*
X680290000Y-775330000D01*
X125730000Y-523128600D02*
X123840000Y-504620000D01*
X51830000Y-585427400D02*
X51830000Y-559570000D01*
X222660000Y-1131025000D02*
X234500000Y-1151070000D01*
X303510000Y-403494300D02*
X295010000Y-423890000D01*
X51340000Y-480402800D02*
X51100000Y-467510000D01*
X75750000Y-926688000D02*
X76640000Y-889380000D01*
X427450000Y-1001317700D02*
X419430000Y-967970000D01*
X225360000Y-698686500D02*
X223600000Y-723440000D01*
X67600000Y-568632500D02*
X67010000Y-537260000D01*
X271480000Y-1040731000D02*
X273970000Y-1049510000D01*
X653490000Y-841935300D02*
X635620000Y-839060000D01*
X349830000Y-927043400D02*
X349040000Y-918800000D01*
X421570000Y-929717700D02*
X427100000Y-922110000D01*
X51580000Y-980016700D02*
X51580000Y-953870000D01*
X431880000Y-1151871200D02*
X446270000Y-1167840000D01*
X599950000Y-328163200D02*
X623950000Y-328130000D01*
X88910000Y-248572000D02*
X90470000Y-226760000D01*
X676630000Y-530330900D02*
X650600000Y-553840000D01*
X266780000Y-1374105900D02*
X245780000Y-1376430000D01*
X283520000Y-846795800D02*
X283800000Y-850590000D01*
X670410000Y-315926200D02*
X689790000Y-349040000D01*
X587030000Y-989636400D02*
X612320000Y-1012900000D01*
X241800000Y-594649300D02*
X235660000Y-625710000D01*
X142990000Y-730263300D02*
X143092593Y-729947892D01*
X158570000Y-1400649600D02*
X148520000Y-1396250000D01*
X279770000Y-1160395400D02*
X281070000Y-1163410000D01*
X290340000Y-132486100D02*
X300960000Y-135050000D01*
X538390000Y-858693800D02*
X555160000Y-870610000D01*
X481680000Y-53563400D02*
X505540000Y-53560000D01*
X385390000Y-91941900D02*
X402670000Y-95320000D01*
X427100000Y-922108300D02*
X450350000Y-893630000D01*
X44130000Y-634037900D02*
X44040000Y-629350000D01*
X251750000Y-321350900D02*
X246940000Y-332740000D01*
X86710000Y-328729800D02*
X86680000Y-303480000D01*
X449500000Y-988122500D02*
X448890000Y-985590000D01*
X532780000Y-348559600D02*
X533610000Y-348080000D01*
X396840000Y-1056281200D02*
X383420000Y-1027220000D01*
X79780000Y-378405700D02*
X79510000Y-372310000D01*
X322840000Y-165635300D02*
X334710000Y-177350000D01*
X335720000Y-280046800D02*
X331360000Y-290120000D01*
X104870000Y-1304227700D02*
X104230000Y-1299470000D01*
X430450000Y-1322649900D02*
X412660000Y-1353400000D01*
X76640000Y-610620000D02*
X75750000Y-573310000D01*
X263130000Y-621842900D02*
X260890000Y-640210000D01*
X143010000Y-1211308100D02*
X142530000Y-1203890000D01*
X486530000Y-336701300D02*
X511630000Y-317670000D01*
X231720000Y-442662700D02*
X223500000Y-460950000D01*
X170940000Y-107979800D02*
X195330000Y-102500000D01*
X318650000Y-396002200D02*
X317520000Y-398280000D01*
X383380000Y-703068400D02*
X381310000Y-672300000D01*
X25532871Y-75240000D02*
X25462675Y-75169804D01*
X412660000Y-1353396200D02*
X409700000Y-1356990000D01*
X353670000Y-1048524000D02*
X365100000Y-1074990000D01*
X552320000Y-728702600D02*
X555060000Y-723170000D01*
X121990000Y-323759400D02*
X121460000Y-308770000D01*
X87080000Y-343149600D02*
X86710000Y-328730000D01*
X228910000Y-996499300D02*
X237350000Y-1021130000D01*
X240210000Y-271801600D02*
X239900000Y-283470000D01*
X60640000Y-856476700D02*
X60640000Y-840750000D01*
X180620000Y-304645389D02*
X204357430Y-328382818D01*
X300180000Y-108675000D02*
X314170000Y-112050000D01*
X702110000Y-1082287200D02*
X701070000Y-1100110000D01*
X246030000Y-508679900D02*
X244690000Y-512570000D01*
X115420000Y-168003200D02*
X130920000Y-146510000D01*
X381790000Y-477506000D02*
X382540000Y-475510000D01*
X252740000Y-1418344400D02*
X221470000Y-1418750000D01*
X362100000Y-658890200D02*
X361090000Y-644470000D01*
X489180000Y-942523500D02*
X516170000Y-948040000D01*
X213130000Y-1005562400D02*
X213830000Y-1007620000D01*
X672180000Y-1013612200D02*
X678340000Y-1035360000D01*
X227270000Y-1195138000D02*
X243260000Y-1220210000D01*
X415900000Y-280362700D02*
X415180000Y-281170000D01*
X740820000Y-417712800D02*
X740820000Y-436080000D01*
X533690000Y-279257100D02*
X560710000Y-259830000D01*
X302470000Y-742974000D02*
X302470000Y-757030000D01*
X402670000Y-1404678200D02*
X385390000Y-1408060000D01*
X103330000Y-352483100D02*
X102480000Y-319670000D01*
X624620000Y-691453100D02*
X632310000Y-691130000D01*
X571090000Y-552799900D02*
X570700000Y-553030000D01*
X290480000Y-736091000D02*
X290490000Y-763910000D01*
X320470000Y-278669700D02*
X309660000Y-303690000D01*
X106300000Y-1264143300D02*
X106100000Y-1261300000D01*
X349470000Y-463118400D02*
X341640000Y-489360000D01*
X696560000Y-486387800D02*
X694930000Y-493530000D01*
X618790000Y-223601800D02*
X649060000Y-211690000D01*
X274920000Y-380693600D02*
X263340000Y-404940000D01*
X290490000Y-763907200D02*
X290670000Y-775650000D01*
X343280000Y-750000000D02*
X362550000Y-740000000D01*
X211610000Y-386848300D02*
X196520000Y-444560000D01*
%TD*%
M02*
