M48
; DRILL file {KiCad 7.0.1-3b83917a11~172~ubuntu22.04.1} date Sun Dec 10 13:38:55 2023
; FORMAT={-:-/ absolute / metric / decimal}
; #@! TF.CreationDate,2023-12-10T13:38:55-05:00
; #@! TF.GenerationSoftware,Kicad,Pcbnew,7.0.1-3b83917a11~172~ubuntu22.04.1
; #@! TF.FileFunction,Plated,1,2,PTH
FMAT,2
METRIC
; #@! TA.AperFunction,Plated,PTH,ViaDrill
T1C2.000
; #@! TA.AperFunction,Plated,PTH,ComponentDrill
T2C6.100
%
G90
G05
T1
X143.093Y-729.948
X168.144Y-714.588
X181.36Y-729.948
X189.991Y-734.539
X190.095Y-750.849
X206.672Y-328.409
X227.086Y-1195.27
X343.442Y-734.741
X343.442Y-734.741
X343.442Y-734.741
X431.96Y-726.677
X515.012Y-1009.02
X524.253Y-497.99
X526.914Y-750.008
X580.579Y-738.645
X592.466Y-749.937
X674.615Y-748.797
X745.986Y-738.454
T2
X45.24Y-45.27
X45.24Y-75.24
T0
M30
