%TF.GenerationSoftware,KiCad,Pcbnew,7.0.1-3b83917a11~172~ubuntu22.04.1*%
%TF.CreationDate,2023-12-10T13:46:59-05:00*%
%TF.ProjectId,coil_template_first,636f696c-5f74-4656-9d70-6c6174655f66,rev?*%
%TF.SameCoordinates,Original*%
%TF.FileFunction,Legend,Top*%
%TF.FilePolarity,Positive*%
%FSLAX46Y46*%
G04 Gerber Fmt 4.6, Leading zero omitted, Abs format (unit mm)*
G04 Created by KiCad (PCBNEW 7.0.1-3b83917a11~172~ubuntu22.04.1) date 2023-12-10 13:46:59*
%MOMM*%
%LPD*%
G01*
G04 APERTURE LIST*
%ADD10C,2.000000*%
%ADD11C,0.150000*%
G04 APERTURE END LIST*
D10*
X157835162Y-1391684634D02*
X160481230Y-1376678040D01*
X162135022Y-1367298918D02*
X164781089Y-1352292324D01*
X160807409Y-1341920927D02*
X169080949Y-1327906608D01*
X169080949Y-1327906608D02*
X172062354Y-1343905478D01*
X541428571Y-52447619D02*
X537619047Y-52447619D01*
X537619047Y-52447619D02*
X535714285Y-51495238D01*
X535714285Y-51495238D02*
X533809523Y-49590476D01*
X533809523Y-49590476D02*
X532857142Y-45780952D01*
X532857142Y-45780952D02*
X532857142Y-39114285D01*
X532857142Y-39114285D02*
X533809523Y-35304761D01*
X533809523Y-35304761D02*
X535714285Y-33400000D01*
X535714285Y-33400000D02*
X537619047Y-32447619D01*
X537619047Y-32447619D02*
X541428571Y-32447619D01*
X541428571Y-32447619D02*
X543333333Y-33400000D01*
X543333333Y-33400000D02*
X545238095Y-35304761D01*
X545238095Y-35304761D02*
X546190476Y-39114285D01*
X546190476Y-39114285D02*
X546190476Y-45780952D01*
X546190476Y-45780952D02*
X545238095Y-49590476D01*
X545238095Y-49590476D02*
X543333333Y-51495238D01*
X543333333Y-51495238D02*
X541428571Y-52447619D01*
X524285714Y-32447619D02*
X524285714Y-52447619D01*
X524285714Y-52447619D02*
X516666666Y-52447619D01*
X516666666Y-52447619D02*
X514761904Y-51495238D01*
X514761904Y-51495238D02*
X513809523Y-50542857D01*
X513809523Y-50542857D02*
X512857142Y-48638095D01*
X512857142Y-48638095D02*
X512857142Y-45780952D01*
X512857142Y-45780952D02*
X513809523Y-43876190D01*
X513809523Y-43876190D02*
X514761904Y-42923809D01*
X514761904Y-42923809D02*
X516666666Y-41971428D01*
X516666666Y-41971428D02*
X524285714Y-41971428D01*
X504285714Y-32447619D02*
X504285714Y-52447619D01*
X504285714Y-52447619D02*
X497619047Y-38161904D01*
X497619047Y-38161904D02*
X490952380Y-52447619D01*
X490952380Y-52447619D02*
X490952380Y-32447619D01*
X481428571Y-40066666D02*
X466190476Y-40066666D01*
X456666666Y-32447619D02*
X456666666Y-52447619D01*
X456666666Y-52447619D02*
X449999999Y-38161904D01*
X449999999Y-38161904D02*
X443333332Y-52447619D01*
X443333332Y-52447619D02*
X443333332Y-32447619D01*
X433809523Y-42923809D02*
X427142856Y-42923809D01*
X424285713Y-32447619D02*
X433809523Y-32447619D01*
X433809523Y-32447619D02*
X433809523Y-52447619D01*
X433809523Y-52447619D02*
X424285713Y-52447619D01*
X405238094Y-51495238D02*
X407142856Y-52447619D01*
X407142856Y-52447619D02*
X409999999Y-52447619D01*
X409999999Y-52447619D02*
X412857142Y-51495238D01*
X412857142Y-51495238D02*
X414761904Y-49590476D01*
X414761904Y-49590476D02*
X415714285Y-47685714D01*
X415714285Y-47685714D02*
X416666666Y-43876190D01*
X416666666Y-43876190D02*
X416666666Y-41019047D01*
X416666666Y-41019047D02*
X415714285Y-37209523D01*
X415714285Y-37209523D02*
X414761904Y-35304761D01*
X414761904Y-35304761D02*
X412857142Y-33400000D01*
X412857142Y-33400000D02*
X409999999Y-32447619D01*
X409999999Y-32447619D02*
X408095237Y-32447619D01*
X408095237Y-32447619D02*
X405238094Y-33400000D01*
X405238094Y-33400000D02*
X404285713Y-34352380D01*
X404285713Y-34352380D02*
X404285713Y-41019047D01*
X404285713Y-41019047D02*
X408095237Y-41019047D01*
X368095237Y-41971428D02*
X369047618Y-42923809D01*
X369047618Y-42923809D02*
X370952380Y-43876190D01*
X370952380Y-43876190D02*
X372857142Y-43876190D01*
X372857142Y-43876190D02*
X374761904Y-42923809D01*
X374761904Y-42923809D02*
X375714285Y-41971428D01*
X375714285Y-41971428D02*
X376666666Y-40066666D01*
X376666666Y-40066666D02*
X376666666Y-38161904D01*
X376666666Y-38161904D02*
X375714285Y-36257142D01*
X375714285Y-36257142D02*
X374761904Y-35304761D01*
X374761904Y-35304761D02*
X372857142Y-34352380D01*
X372857142Y-34352380D02*
X370952380Y-34352380D01*
X370952380Y-34352380D02*
X369047618Y-35304761D01*
X369047618Y-35304761D02*
X368095237Y-36257142D01*
X368095237Y-43876190D02*
X368095237Y-36257142D01*
X368095237Y-36257142D02*
X367142856Y-35304761D01*
X367142856Y-35304761D02*
X366190475Y-35304761D01*
X366190475Y-35304761D02*
X364285714Y-36257142D01*
X364285714Y-36257142D02*
X363333333Y-38161904D01*
X363333333Y-38161904D02*
X363333333Y-42923809D01*
X363333333Y-42923809D02*
X365238095Y-45780952D01*
X365238095Y-45780952D02*
X368095237Y-47685714D01*
X368095237Y-47685714D02*
X371904761Y-48638095D01*
X371904761Y-48638095D02*
X375714285Y-47685714D01*
X375714285Y-47685714D02*
X378571428Y-45780952D01*
X378571428Y-45780952D02*
X380476190Y-42923809D01*
X380476190Y-42923809D02*
X381428571Y-39114285D01*
X381428571Y-39114285D02*
X380476190Y-35304761D01*
X380476190Y-35304761D02*
X378571428Y-32447619D01*
X378571428Y-32447619D02*
X375714285Y-30542857D01*
X375714285Y-30542857D02*
X371904761Y-29590476D01*
X371904761Y-29590476D02*
X368095237Y-30542857D01*
X368095237Y-30542857D02*
X365238095Y-32447619D01*
X339523809Y-32447619D02*
X339523809Y-52447619D01*
X339523809Y-52447619D02*
X332857142Y-38161904D01*
X332857142Y-38161904D02*
X326190475Y-52447619D01*
X326190475Y-52447619D02*
X326190475Y-32447619D01*
X308095237Y-32447619D02*
X308095237Y-42923809D01*
X308095237Y-42923809D02*
X309047618Y-44828571D01*
X309047618Y-44828571D02*
X310952380Y-45780952D01*
X310952380Y-45780952D02*
X314761904Y-45780952D01*
X314761904Y-45780952D02*
X316666666Y-44828571D01*
X308095237Y-33400000D02*
X309999999Y-32447619D01*
X309999999Y-32447619D02*
X314761904Y-32447619D01*
X314761904Y-32447619D02*
X316666666Y-33400000D01*
X316666666Y-33400000D02*
X317619047Y-35304761D01*
X317619047Y-35304761D02*
X317619047Y-37209523D01*
X317619047Y-37209523D02*
X316666666Y-39114285D01*
X316666666Y-39114285D02*
X314761904Y-40066666D01*
X314761904Y-40066666D02*
X309999999Y-40066666D01*
X309999999Y-40066666D02*
X308095237Y-41019047D01*
X298571428Y-32447619D02*
X298571428Y-45780952D01*
X298571428Y-41971428D02*
X297619047Y-43876190D01*
X297619047Y-43876190D02*
X296666666Y-44828571D01*
X296666666Y-44828571D02*
X294761904Y-45780952D01*
X294761904Y-45780952D02*
X292857142Y-45780952D01*
X289047619Y-45780952D02*
X281428571Y-45780952D01*
X286190476Y-52447619D02*
X286190476Y-35304761D01*
X286190476Y-35304761D02*
X285238095Y-33400000D01*
X285238095Y-33400000D02*
X283333333Y-32447619D01*
X283333333Y-32447619D02*
X281428571Y-32447619D01*
X274761905Y-32447619D02*
X274761905Y-45780952D01*
X274761905Y-52447619D02*
X275714286Y-51495238D01*
X275714286Y-51495238D02*
X274761905Y-50542857D01*
X274761905Y-50542857D02*
X273809524Y-51495238D01*
X273809524Y-51495238D02*
X274761905Y-52447619D01*
X274761905Y-52447619D02*
X274761905Y-50542857D01*
X265238095Y-45780952D02*
X265238095Y-32447619D01*
X265238095Y-43876190D02*
X264285714Y-44828571D01*
X264285714Y-44828571D02*
X262380952Y-45780952D01*
X262380952Y-45780952D02*
X259523809Y-45780952D01*
X259523809Y-45780952D02*
X257619047Y-44828571D01*
X257619047Y-44828571D02*
X256666666Y-42923809D01*
X256666666Y-42923809D02*
X256666666Y-32447619D01*
X244285714Y-32447619D02*
X246190476Y-33400000D01*
X246190476Y-33400000D02*
X247142857Y-34352380D01*
X247142857Y-34352380D02*
X248095238Y-36257142D01*
X248095238Y-36257142D02*
X248095238Y-41971428D01*
X248095238Y-41971428D02*
X247142857Y-43876190D01*
X247142857Y-43876190D02*
X246190476Y-44828571D01*
X246190476Y-44828571D02*
X244285714Y-45780952D01*
X244285714Y-45780952D02*
X241428571Y-45780952D01*
X241428571Y-45780952D02*
X239523809Y-44828571D01*
X239523809Y-44828571D02*
X238571428Y-43876190D01*
X238571428Y-43876190D02*
X237619047Y-41971428D01*
X237619047Y-41971428D02*
X237619047Y-36257142D01*
X237619047Y-36257142D02*
X238571428Y-34352380D01*
X238571428Y-34352380D02*
X239523809Y-33400000D01*
X239523809Y-33400000D02*
X241428571Y-32447619D01*
X241428571Y-32447619D02*
X244285714Y-32447619D01*
X230000000Y-33400000D02*
X228095238Y-32447619D01*
X228095238Y-32447619D02*
X224285714Y-32447619D01*
X224285714Y-32447619D02*
X222380952Y-33400000D01*
X222380952Y-33400000D02*
X221428571Y-35304761D01*
X221428571Y-35304761D02*
X221428571Y-36257142D01*
X221428571Y-36257142D02*
X222380952Y-38161904D01*
X222380952Y-38161904D02*
X224285714Y-39114285D01*
X224285714Y-39114285D02*
X227142857Y-39114285D01*
X227142857Y-39114285D02*
X229047619Y-40066666D01*
X229047619Y-40066666D02*
X230000000Y-41971428D01*
X230000000Y-41971428D02*
X230000000Y-42923809D01*
X230000000Y-42923809D02*
X229047619Y-44828571D01*
X229047619Y-44828571D02*
X227142857Y-45780952D01*
X227142857Y-45780952D02*
X224285714Y-45780952D01*
X224285714Y-45780952D02*
X222380952Y-44828571D01*
X146573589Y-982351017D02*
X137833376Y-994833334D01*
X132370743Y-1002634782D02*
X123630531Y-1015117099D01*
X122848767Y-1026196127D02*
X109427686Y-1035400864D01*
X109427686Y-1035400864D02*
X113487029Y-1019640968D01*
X489807857Y-279240782D02*
X492453925Y-264234188D01*
X494107717Y-254855066D02*
X496753784Y-239848472D01*
X492780104Y-229477075D02*
X501053644Y-215462756D01*
X501053644Y-215462756D02*
X504035049Y-231461626D01*
X491484486Y-1260907512D02*
X494130554Y-1245900918D01*
X495784346Y-1236521796D02*
X498430413Y-1221515202D01*
X494456733Y-1211143805D02*
X502730273Y-1197129486D01*
X502730273Y-1197129486D02*
X505711678Y-1213128356D01*
X160350107Y-155170179D02*
X162996175Y-140163585D01*
X164649967Y-130784463D02*
X167296034Y-115777869D01*
X163322354Y-105406472D02*
X171595894Y-91392153D01*
X171595894Y-91392153D02*
X174577299Y-107391023D01*
X26721703Y-723813200D02*
X29367771Y-708806606D01*
X31021563Y-699427484D02*
X33667630Y-684420890D01*
X29693950Y-674049493D02*
X37967490Y-660035174D01*
X37967490Y-660035174D02*
X40948895Y-676034044D01*
X121015557Y-486357405D02*
X131790517Y-497132366D01*
X138524868Y-503866716D02*
X149299828Y-514641677D01*
X160074789Y-517335417D02*
X166809139Y-532150988D01*
X166809139Y-532150988D02*
X151993569Y-525416637D01*
X712552380Y-911428571D02*
X712552380Y-907619047D01*
X712552380Y-907619047D02*
X713504761Y-905714285D01*
X713504761Y-905714285D02*
X715409523Y-903809523D01*
X715409523Y-903809523D02*
X719219047Y-902857142D01*
X719219047Y-902857142D02*
X725885714Y-902857142D01*
X725885714Y-902857142D02*
X729695238Y-903809523D01*
X729695238Y-903809523D02*
X731600000Y-905714285D01*
X731600000Y-905714285D02*
X732552380Y-907619047D01*
X732552380Y-907619047D02*
X732552380Y-911428571D01*
X732552380Y-911428571D02*
X731600000Y-913333333D01*
X731600000Y-913333333D02*
X729695238Y-915238095D01*
X729695238Y-915238095D02*
X725885714Y-916190476D01*
X725885714Y-916190476D02*
X719219047Y-916190476D01*
X719219047Y-916190476D02*
X715409523Y-915238095D01*
X715409523Y-915238095D02*
X713504761Y-913333333D01*
X713504761Y-913333333D02*
X712552380Y-911428571D01*
X732552380Y-894285714D02*
X712552380Y-894285714D01*
X712552380Y-894285714D02*
X712552380Y-886666666D01*
X712552380Y-886666666D02*
X713504761Y-884761904D01*
X713504761Y-884761904D02*
X714457142Y-883809523D01*
X714457142Y-883809523D02*
X716361904Y-882857142D01*
X716361904Y-882857142D02*
X719219047Y-882857142D01*
X719219047Y-882857142D02*
X721123809Y-883809523D01*
X721123809Y-883809523D02*
X722076190Y-884761904D01*
X722076190Y-884761904D02*
X723028571Y-886666666D01*
X723028571Y-886666666D02*
X723028571Y-894285714D01*
X732552380Y-874285714D02*
X712552380Y-874285714D01*
X712552380Y-874285714D02*
X726838095Y-867619047D01*
X726838095Y-867619047D02*
X712552380Y-860952380D01*
X712552380Y-860952380D02*
X732552380Y-860952380D01*
X724933333Y-851428571D02*
X724933333Y-836190476D01*
X732552380Y-826666666D02*
X712552380Y-826666666D01*
X712552380Y-826666666D02*
X726838095Y-819999999D01*
X726838095Y-819999999D02*
X712552380Y-813333332D01*
X712552380Y-813333332D02*
X732552380Y-813333332D01*
X722076190Y-803809523D02*
X722076190Y-797142856D01*
X732552380Y-794285713D02*
X732552380Y-803809523D01*
X732552380Y-803809523D02*
X712552380Y-803809523D01*
X712552380Y-803809523D02*
X712552380Y-794285713D01*
X713504761Y-775238094D02*
X712552380Y-777142856D01*
X712552380Y-777142856D02*
X712552380Y-779999999D01*
X712552380Y-779999999D02*
X713504761Y-782857142D01*
X713504761Y-782857142D02*
X715409523Y-784761904D01*
X715409523Y-784761904D02*
X717314285Y-785714285D01*
X717314285Y-785714285D02*
X721123809Y-786666666D01*
X721123809Y-786666666D02*
X723980952Y-786666666D01*
X723980952Y-786666666D02*
X727790476Y-785714285D01*
X727790476Y-785714285D02*
X729695238Y-784761904D01*
X729695238Y-784761904D02*
X731600000Y-782857142D01*
X731600000Y-782857142D02*
X732552380Y-779999999D01*
X732552380Y-779999999D02*
X732552380Y-778095237D01*
X732552380Y-778095237D02*
X731600000Y-775238094D01*
X731600000Y-775238094D02*
X730647619Y-774285713D01*
X730647619Y-774285713D02*
X723980952Y-774285713D01*
X723980952Y-774285713D02*
X723980952Y-778095237D01*
X723028571Y-738095237D02*
X722076190Y-739047618D01*
X722076190Y-739047618D02*
X721123809Y-740952380D01*
X721123809Y-740952380D02*
X721123809Y-742857142D01*
X721123809Y-742857142D02*
X722076190Y-744761904D01*
X722076190Y-744761904D02*
X723028571Y-745714285D01*
X723028571Y-745714285D02*
X724933333Y-746666666D01*
X724933333Y-746666666D02*
X726838095Y-746666666D01*
X726838095Y-746666666D02*
X728742857Y-745714285D01*
X728742857Y-745714285D02*
X729695238Y-744761904D01*
X729695238Y-744761904D02*
X730647619Y-742857142D01*
X730647619Y-742857142D02*
X730647619Y-740952380D01*
X730647619Y-740952380D02*
X729695238Y-739047618D01*
X729695238Y-739047618D02*
X728742857Y-738095237D01*
X721123809Y-738095237D02*
X728742857Y-738095237D01*
X728742857Y-738095237D02*
X729695238Y-737142856D01*
X729695238Y-737142856D02*
X729695238Y-736190475D01*
X729695238Y-736190475D02*
X728742857Y-734285714D01*
X728742857Y-734285714D02*
X726838095Y-733333333D01*
X726838095Y-733333333D02*
X722076190Y-733333333D01*
X722076190Y-733333333D02*
X719219047Y-735238095D01*
X719219047Y-735238095D02*
X717314285Y-738095237D01*
X717314285Y-738095237D02*
X716361904Y-741904761D01*
X716361904Y-741904761D02*
X717314285Y-745714285D01*
X717314285Y-745714285D02*
X719219047Y-748571428D01*
X719219047Y-748571428D02*
X722076190Y-750476190D01*
X722076190Y-750476190D02*
X725885714Y-751428571D01*
X725885714Y-751428571D02*
X729695238Y-750476190D01*
X729695238Y-750476190D02*
X732552380Y-748571428D01*
X732552380Y-748571428D02*
X734457142Y-745714285D01*
X734457142Y-745714285D02*
X735409523Y-741904761D01*
X735409523Y-741904761D02*
X734457142Y-738095237D01*
X734457142Y-738095237D02*
X732552380Y-735238095D01*
X732552380Y-709523809D02*
X712552380Y-709523809D01*
X712552380Y-709523809D02*
X726838095Y-702857142D01*
X726838095Y-702857142D02*
X712552380Y-696190475D01*
X712552380Y-696190475D02*
X732552380Y-696190475D01*
X732552380Y-678095237D02*
X722076190Y-678095237D01*
X722076190Y-678095237D02*
X720171428Y-679047618D01*
X720171428Y-679047618D02*
X719219047Y-680952380D01*
X719219047Y-680952380D02*
X719219047Y-684761904D01*
X719219047Y-684761904D02*
X720171428Y-686666666D01*
X731600000Y-678095237D02*
X732552380Y-679999999D01*
X732552380Y-679999999D02*
X732552380Y-684761904D01*
X732552380Y-684761904D02*
X731600000Y-686666666D01*
X731600000Y-686666666D02*
X729695238Y-687619047D01*
X729695238Y-687619047D02*
X727790476Y-687619047D01*
X727790476Y-687619047D02*
X725885714Y-686666666D01*
X725885714Y-686666666D02*
X724933333Y-684761904D01*
X724933333Y-684761904D02*
X724933333Y-679999999D01*
X724933333Y-679999999D02*
X723980952Y-678095237D01*
X732552380Y-668571428D02*
X719219047Y-668571428D01*
X723028571Y-668571428D02*
X721123809Y-667619047D01*
X721123809Y-667619047D02*
X720171428Y-666666666D01*
X720171428Y-666666666D02*
X719219047Y-664761904D01*
X719219047Y-664761904D02*
X719219047Y-662857142D01*
X719219047Y-659047619D02*
X719219047Y-651428571D01*
X712552380Y-656190476D02*
X729695238Y-656190476D01*
X729695238Y-656190476D02*
X731600000Y-655238095D01*
X731600000Y-655238095D02*
X732552380Y-653333333D01*
X732552380Y-653333333D02*
X732552380Y-651428571D01*
X732552380Y-644761905D02*
X719219047Y-644761905D01*
X712552380Y-644761905D02*
X713504761Y-645714286D01*
X713504761Y-645714286D02*
X714457142Y-644761905D01*
X714457142Y-644761905D02*
X713504761Y-643809524D01*
X713504761Y-643809524D02*
X712552380Y-644761905D01*
X712552380Y-644761905D02*
X714457142Y-644761905D01*
X719219047Y-635238095D02*
X732552380Y-635238095D01*
X721123809Y-635238095D02*
X720171428Y-634285714D01*
X720171428Y-634285714D02*
X719219047Y-632380952D01*
X719219047Y-632380952D02*
X719219047Y-629523809D01*
X719219047Y-629523809D02*
X720171428Y-627619047D01*
X720171428Y-627619047D02*
X722076190Y-626666666D01*
X722076190Y-626666666D02*
X732552380Y-626666666D01*
X732552380Y-614285714D02*
X731600000Y-616190476D01*
X731600000Y-616190476D02*
X730647619Y-617142857D01*
X730647619Y-617142857D02*
X728742857Y-618095238D01*
X728742857Y-618095238D02*
X723028571Y-618095238D01*
X723028571Y-618095238D02*
X721123809Y-617142857D01*
X721123809Y-617142857D02*
X720171428Y-616190476D01*
X720171428Y-616190476D02*
X719219047Y-614285714D01*
X719219047Y-614285714D02*
X719219047Y-611428571D01*
X719219047Y-611428571D02*
X720171428Y-609523809D01*
X720171428Y-609523809D02*
X721123809Y-608571428D01*
X721123809Y-608571428D02*
X723028571Y-607619047D01*
X723028571Y-607619047D02*
X728742857Y-607619047D01*
X728742857Y-607619047D02*
X730647619Y-608571428D01*
X730647619Y-608571428D02*
X731600000Y-609523809D01*
X731600000Y-609523809D02*
X732552380Y-611428571D01*
X732552380Y-611428571D02*
X732552380Y-614285714D01*
X731600000Y-600000000D02*
X732552380Y-598095238D01*
X732552380Y-598095238D02*
X732552380Y-594285714D01*
X732552380Y-594285714D02*
X731600000Y-592380952D01*
X731600000Y-592380952D02*
X729695238Y-591428571D01*
X729695238Y-591428571D02*
X728742857Y-591428571D01*
X728742857Y-591428571D02*
X726838095Y-592380952D01*
X726838095Y-592380952D02*
X725885714Y-594285714D01*
X725885714Y-594285714D02*
X725885714Y-597142857D01*
X725885714Y-597142857D02*
X724933333Y-599047619D01*
X724933333Y-599047619D02*
X723028571Y-600000000D01*
X723028571Y-600000000D02*
X722076190Y-600000000D01*
X722076190Y-600000000D02*
X720171428Y-599047619D01*
X720171428Y-599047619D02*
X719219047Y-597142857D01*
X719219047Y-597142857D02*
X719219047Y-594285714D01*
X719219047Y-594285714D02*
X720171428Y-592380952D01*
X541428571Y-1482447619D02*
X537619047Y-1482447619D01*
X537619047Y-1482447619D02*
X535714285Y-1481495238D01*
X535714285Y-1481495238D02*
X533809523Y-1479590476D01*
X533809523Y-1479590476D02*
X532857142Y-1475780952D01*
X532857142Y-1475780952D02*
X532857142Y-1469114285D01*
X532857142Y-1469114285D02*
X533809523Y-1465304761D01*
X533809523Y-1465304761D02*
X535714285Y-1463400000D01*
X535714285Y-1463400000D02*
X537619047Y-1462447619D01*
X537619047Y-1462447619D02*
X541428571Y-1462447619D01*
X541428571Y-1462447619D02*
X543333333Y-1463400000D01*
X543333333Y-1463400000D02*
X545238095Y-1465304761D01*
X545238095Y-1465304761D02*
X546190476Y-1469114285D01*
X546190476Y-1469114285D02*
X546190476Y-1475780952D01*
X546190476Y-1475780952D02*
X545238095Y-1479590476D01*
X545238095Y-1479590476D02*
X543333333Y-1481495238D01*
X543333333Y-1481495238D02*
X541428571Y-1482447619D01*
X524285714Y-1462447619D02*
X524285714Y-1482447619D01*
X524285714Y-1482447619D02*
X516666666Y-1482447619D01*
X516666666Y-1482447619D02*
X514761904Y-1481495238D01*
X514761904Y-1481495238D02*
X513809523Y-1480542857D01*
X513809523Y-1480542857D02*
X512857142Y-1478638095D01*
X512857142Y-1478638095D02*
X512857142Y-1475780952D01*
X512857142Y-1475780952D02*
X513809523Y-1473876190D01*
X513809523Y-1473876190D02*
X514761904Y-1472923809D01*
X514761904Y-1472923809D02*
X516666666Y-1471971428D01*
X516666666Y-1471971428D02*
X524285714Y-1471971428D01*
X504285714Y-1462447619D02*
X504285714Y-1482447619D01*
X504285714Y-1482447619D02*
X497619047Y-1468161904D01*
X497619047Y-1468161904D02*
X490952380Y-1482447619D01*
X490952380Y-1482447619D02*
X490952380Y-1462447619D01*
X481428571Y-1470066666D02*
X466190476Y-1470066666D01*
X456666666Y-1462447619D02*
X456666666Y-1482447619D01*
X456666666Y-1482447619D02*
X449999999Y-1468161904D01*
X449999999Y-1468161904D02*
X443333332Y-1482447619D01*
X443333332Y-1482447619D02*
X443333332Y-1462447619D01*
X433809523Y-1472923809D02*
X427142856Y-1472923809D01*
X424285713Y-1462447619D02*
X433809523Y-1462447619D01*
X433809523Y-1462447619D02*
X433809523Y-1482447619D01*
X433809523Y-1482447619D02*
X424285713Y-1482447619D01*
X405238094Y-1481495238D02*
X407142856Y-1482447619D01*
X407142856Y-1482447619D02*
X409999999Y-1482447619D01*
X409999999Y-1482447619D02*
X412857142Y-1481495238D01*
X412857142Y-1481495238D02*
X414761904Y-1479590476D01*
X414761904Y-1479590476D02*
X415714285Y-1477685714D01*
X415714285Y-1477685714D02*
X416666666Y-1473876190D01*
X416666666Y-1473876190D02*
X416666666Y-1471019047D01*
X416666666Y-1471019047D02*
X415714285Y-1467209523D01*
X415714285Y-1467209523D02*
X414761904Y-1465304761D01*
X414761904Y-1465304761D02*
X412857142Y-1463400000D01*
X412857142Y-1463400000D02*
X409999999Y-1462447619D01*
X409999999Y-1462447619D02*
X408095237Y-1462447619D01*
X408095237Y-1462447619D02*
X405238094Y-1463400000D01*
X405238094Y-1463400000D02*
X404285713Y-1464352380D01*
X404285713Y-1464352380D02*
X404285713Y-1471019047D01*
X404285713Y-1471019047D02*
X408095237Y-1471019047D01*
X368095237Y-1471971428D02*
X369047618Y-1472923809D01*
X369047618Y-1472923809D02*
X370952380Y-1473876190D01*
X370952380Y-1473876190D02*
X372857142Y-1473876190D01*
X372857142Y-1473876190D02*
X374761904Y-1472923809D01*
X374761904Y-1472923809D02*
X375714285Y-1471971428D01*
X375714285Y-1471971428D02*
X376666666Y-1470066666D01*
X376666666Y-1470066666D02*
X376666666Y-1468161904D01*
X376666666Y-1468161904D02*
X375714285Y-1466257142D01*
X375714285Y-1466257142D02*
X374761904Y-1465304761D01*
X374761904Y-1465304761D02*
X372857142Y-1464352380D01*
X372857142Y-1464352380D02*
X370952380Y-1464352380D01*
X370952380Y-1464352380D02*
X369047618Y-1465304761D01*
X369047618Y-1465304761D02*
X368095237Y-1466257142D01*
X368095237Y-1473876190D02*
X368095237Y-1466257142D01*
X368095237Y-1466257142D02*
X367142856Y-1465304761D01*
X367142856Y-1465304761D02*
X366190475Y-1465304761D01*
X366190475Y-1465304761D02*
X364285714Y-1466257142D01*
X364285714Y-1466257142D02*
X363333333Y-1468161904D01*
X363333333Y-1468161904D02*
X363333333Y-1472923809D01*
X363333333Y-1472923809D02*
X365238095Y-1475780952D01*
X365238095Y-1475780952D02*
X368095237Y-1477685714D01*
X368095237Y-1477685714D02*
X371904761Y-1478638095D01*
X371904761Y-1478638095D02*
X375714285Y-1477685714D01*
X375714285Y-1477685714D02*
X378571428Y-1475780952D01*
X378571428Y-1475780952D02*
X380476190Y-1472923809D01*
X380476190Y-1472923809D02*
X381428571Y-1469114285D01*
X381428571Y-1469114285D02*
X380476190Y-1465304761D01*
X380476190Y-1465304761D02*
X378571428Y-1462447619D01*
X378571428Y-1462447619D02*
X375714285Y-1460542857D01*
X375714285Y-1460542857D02*
X371904761Y-1459590476D01*
X371904761Y-1459590476D02*
X368095237Y-1460542857D01*
X368095237Y-1460542857D02*
X365238095Y-1462447619D01*
X339523809Y-1462447619D02*
X339523809Y-1482447619D01*
X339523809Y-1482447619D02*
X332857142Y-1468161904D01*
X332857142Y-1468161904D02*
X326190475Y-1482447619D01*
X326190475Y-1482447619D02*
X326190475Y-1462447619D01*
X308095237Y-1462447619D02*
X308095237Y-1472923809D01*
X308095237Y-1472923809D02*
X309047618Y-1474828571D01*
X309047618Y-1474828571D02*
X310952380Y-1475780952D01*
X310952380Y-1475780952D02*
X314761904Y-1475780952D01*
X314761904Y-1475780952D02*
X316666666Y-1474828571D01*
X308095237Y-1463400000D02*
X309999999Y-1462447619D01*
X309999999Y-1462447619D02*
X314761904Y-1462447619D01*
X314761904Y-1462447619D02*
X316666666Y-1463400000D01*
X316666666Y-1463400000D02*
X317619047Y-1465304761D01*
X317619047Y-1465304761D02*
X317619047Y-1467209523D01*
X317619047Y-1467209523D02*
X316666666Y-1469114285D01*
X316666666Y-1469114285D02*
X314761904Y-1470066666D01*
X314761904Y-1470066666D02*
X309999999Y-1470066666D01*
X309999999Y-1470066666D02*
X308095237Y-1471019047D01*
X298571428Y-1462447619D02*
X298571428Y-1475780952D01*
X298571428Y-1471971428D02*
X297619047Y-1473876190D01*
X297619047Y-1473876190D02*
X296666666Y-1474828571D01*
X296666666Y-1474828571D02*
X294761904Y-1475780952D01*
X294761904Y-1475780952D02*
X292857142Y-1475780952D01*
X289047619Y-1475780952D02*
X281428571Y-1475780952D01*
X286190476Y-1482447619D02*
X286190476Y-1465304761D01*
X286190476Y-1465304761D02*
X285238095Y-1463400000D01*
X285238095Y-1463400000D02*
X283333333Y-1462447619D01*
X283333333Y-1462447619D02*
X281428571Y-1462447619D01*
X274761905Y-1462447619D02*
X274761905Y-1475780952D01*
X274761905Y-1482447619D02*
X275714286Y-1481495238D01*
X275714286Y-1481495238D02*
X274761905Y-1480542857D01*
X274761905Y-1480542857D02*
X273809524Y-1481495238D01*
X273809524Y-1481495238D02*
X274761905Y-1482447619D01*
X274761905Y-1482447619D02*
X274761905Y-1480542857D01*
X265238095Y-1475780952D02*
X265238095Y-1462447619D01*
X265238095Y-1473876190D02*
X264285714Y-1474828571D01*
X264285714Y-1474828571D02*
X262380952Y-1475780952D01*
X262380952Y-1475780952D02*
X259523809Y-1475780952D01*
X259523809Y-1475780952D02*
X257619047Y-1474828571D01*
X257619047Y-1474828571D02*
X256666666Y-1472923809D01*
X256666666Y-1472923809D02*
X256666666Y-1462447619D01*
X244285714Y-1462447619D02*
X246190476Y-1463400000D01*
X246190476Y-1463400000D02*
X247142857Y-1464352380D01*
X247142857Y-1464352380D02*
X248095238Y-1466257142D01*
X248095238Y-1466257142D02*
X248095238Y-1471971428D01*
X248095238Y-1471971428D02*
X247142857Y-1473876190D01*
X247142857Y-1473876190D02*
X246190476Y-1474828571D01*
X246190476Y-1474828571D02*
X244285714Y-1475780952D01*
X244285714Y-1475780952D02*
X241428571Y-1475780952D01*
X241428571Y-1475780952D02*
X239523809Y-1474828571D01*
X239523809Y-1474828571D02*
X238571428Y-1473876190D01*
X238571428Y-1473876190D02*
X237619047Y-1471971428D01*
X237619047Y-1471971428D02*
X237619047Y-1466257142D01*
X237619047Y-1466257142D02*
X238571428Y-1464352380D01*
X238571428Y-1464352380D02*
X239523809Y-1463400000D01*
X239523809Y-1463400000D02*
X241428571Y-1462447619D01*
X241428571Y-1462447619D02*
X244285714Y-1462447619D01*
X230000000Y-1463400000D02*
X228095238Y-1462447619D01*
X228095238Y-1462447619D02*
X224285714Y-1462447619D01*
X224285714Y-1462447619D02*
X222380952Y-1463400000D01*
X222380952Y-1463400000D02*
X221428571Y-1465304761D01*
X221428571Y-1465304761D02*
X221428571Y-1466257142D01*
X221428571Y-1466257142D02*
X222380952Y-1468161904D01*
X222380952Y-1468161904D02*
X224285714Y-1469114285D01*
X224285714Y-1469114285D02*
X227142857Y-1469114285D01*
X227142857Y-1469114285D02*
X229047619Y-1470066666D01*
X229047619Y-1470066666D02*
X230000000Y-1471971428D01*
X230000000Y-1471971428D02*
X230000000Y-1472923809D01*
X230000000Y-1472923809D02*
X229047619Y-1474828571D01*
X229047619Y-1474828571D02*
X227142857Y-1475780952D01*
X227142857Y-1475780952D02*
X224285714Y-1475780952D01*
X224285714Y-1475780952D02*
X222380952Y-1474828571D01*
D11*
%TO.C,J2*%
X2916666Y-722278375D02*
X2916666Y-722992660D01*
X2916666Y-722992660D02*
X2869047Y-723135517D01*
X2869047Y-723135517D02*
X2773809Y-723230756D01*
X2773809Y-723230756D02*
X2630952Y-723278375D01*
X2630952Y-723278375D02*
X2535714Y-723278375D01*
X3345238Y-722373613D02*
X3392857Y-722325994D01*
X3392857Y-722325994D02*
X3488095Y-722278375D01*
X3488095Y-722278375D02*
X3726190Y-722278375D01*
X3726190Y-722278375D02*
X3821428Y-722325994D01*
X3821428Y-722325994D02*
X3869047Y-722373613D01*
X3869047Y-722373613D02*
X3916666Y-722468851D01*
X3916666Y-722468851D02*
X3916666Y-722564089D01*
X3916666Y-722564089D02*
X3869047Y-722706946D01*
X3869047Y-722706946D02*
X3297619Y-723278375D01*
X3297619Y-723278375D02*
X3916666Y-723278375D01*
%TO.C,J1*%
X2916666Y-744442102D02*
X2916666Y-745156387D01*
X2916666Y-745156387D02*
X2869047Y-745299244D01*
X2869047Y-745299244D02*
X2773809Y-745394483D01*
X2773809Y-745394483D02*
X2630952Y-745442102D01*
X2630952Y-745442102D02*
X2535714Y-745442102D01*
X3916666Y-745442102D02*
X3345238Y-745442102D01*
X3630952Y-745442102D02*
X3630952Y-744442102D01*
X3630952Y-744442102D02*
X3535714Y-744584959D01*
X3535714Y-744584959D02*
X3440476Y-744680197D01*
X3440476Y-744680197D02*
X3345238Y-744727816D01*
%TD*%
M02*
