%TF.GenerationSoftware,KiCad,Pcbnew,7.0.1-3b83917a11~172~ubuntu22.04.1*%
%TF.CreationDate,2023-12-10T14:17:30-05:00*%
%TF.ProjectId,coil_template_second,636f696c-5f74-4656-9d70-6c6174655f73,rev?*%
%TF.SameCoordinates,Original*%
%TF.FileFunction,Soldermask,Top*%
%TF.FilePolarity,Negative*%
%FSLAX46Y46*%
G04 Gerber Fmt 4.6, Leading zero omitted, Abs format (unit mm)*
G04 Created by KiCad (PCBNEW 7.0.1-3b83917a11~172~ubuntu22.04.1) date 2023-12-10 14:17:30*
%MOMM*%
%LPD*%
G01*
G04 APERTURE LIST*
%ADD10R,5.000000X5.000000*%
%ADD11C,10.160000*%
G04 APERTURE END LIST*
D10*
%TO.C,J56*%
X746500000Y-1464373272D03*
%TD*%
%TO.C,J7*%
X746500000Y-115649133D03*
%TD*%
%TO.C,J20*%
X746500000Y-497339098D03*
%TD*%
%TO.C,J54*%
X746500000Y-1438758095D03*
%TD*%
%TO.C,J34*%
X746500000Y-935666707D03*
%TD*%
D11*
%TO.C,J1*%
X45240000Y-75240000D03*
X45240000Y-45270000D03*
%TD*%
D10*
%TO.C,J33*%
X746500000Y-912969124D03*
%TD*%
%TO.C,J45*%
X746500000Y-1296376540D03*
%TD*%
%TO.C,J10*%
X746500000Y-163296738D03*
%TD*%
%TO.C,J49*%
X746500000Y-1369480685D03*
%TD*%
%TO.C,J35*%
X746500000Y-958233090D03*
%TD*%
%TO.C,J50*%
X746500000Y-1384034762D03*
%TD*%
%TO.C,J44*%
X746500000Y-1269000000D03*
%TD*%
%TO.C,J31*%
X746500000Y-862787199D03*
%TD*%
%TO.C,J13*%
X746500000Y-231461253D03*
%TD*%
%TO.C,J6*%
X746500000Y-101072427D03*
%TD*%
%TO.C,J40*%
X746500000Y-1085440235D03*
%TD*%
%TO.C,J55*%
X746500000Y-1451565684D03*
%TD*%
%TO.C,J48*%
X746500000Y-1353762280D03*
%TD*%
%TO.C,J51*%
X746500000Y-1398006677D03*
%TD*%
%TO.C,J39*%
X746500000Y-1053411796D03*
%TD*%
%TO.C,J5*%
X746500000Y-87515000D03*
%TD*%
%TO.C,J25*%
X746500000Y-611106415D03*
%TD*%
%TO.C,J27*%
X746500000Y-670366786D03*
%TD*%
%TO.C,J2*%
X746500000Y-48565597D03*
%TD*%
%TO.C,J17*%
X746500000Y-415087466D03*
%TD*%
%TO.C,J16*%
X746500000Y-368850000D03*
%TD*%
%TO.C,J30*%
X746500000Y-830223384D03*
%TD*%
%TO.C,J24*%
X746500000Y-587175553D03*
%TD*%
%TO.C,J8*%
X746500000Y-130230000D03*
%TD*%
%TO.C,J3*%
X746500000Y-61260000D03*
%TD*%
%TO.C,J47*%
X746500000Y-1336523784D03*
%TD*%
%TO.C,J23*%
X746500000Y-564446273D03*
%TD*%
%TO.C,J28*%
X746500000Y-721288889D03*
%TD*%
%TO.C,J22*%
X746500000Y-542409727D03*
%TD*%
%TO.C,J32*%
X746500000Y-889195702D03*
%TD*%
%TO.C,J38*%
X746500000Y-1027460455D03*
%TD*%
%TO.C,J36*%
X746500000Y-979854834D03*
%TD*%
%TO.C,J29*%
X746500000Y-778968895D03*
%TD*%
%TO.C,J12*%
X746500000Y-203541365D03*
%TD*%
%TO.C,J46*%
X746500000Y-1317152037D03*
%TD*%
%TO.C,J43*%
X746500000Y-1228544230D03*
%TD*%
%TO.C,J37*%
X746500000Y-1003109754D03*
%TD*%
%TO.C,J9*%
X746500000Y-146519945D03*
%TD*%
%TO.C,J52*%
X746500000Y-1412560755D03*
%TD*%
%TO.C,J4*%
X746500000Y-74320000D03*
%TD*%
%TO.C,J26*%
X746500000Y-638060123D03*
%TD*%
%TO.C,J14*%
X746500000Y-270992320D03*
%TD*%
%TO.C,J19*%
X746500000Y-473171446D03*
%TD*%
%TO.C,J11*%
X746500000Y-182782671D03*
%TD*%
%TO.C,J41*%
X746500000Y-1131252308D03*
%TD*%
%TO.C,J21*%
X746500000Y-520282497D03*
%TD*%
%TO.C,J1*%
X746500000Y-35800000D03*
%TD*%
%TO.C,J18*%
X746500000Y-447280773D03*
%TD*%
%TO.C,J53*%
X746500000Y-1424786180D03*
%TD*%
M02*
