%TF.GenerationSoftware,KiCad,Pcbnew,7.0.1-3b83917a11~172~ubuntu22.04.1*%
%TF.CreationDate,2023-12-10T14:17:30-05:00*%
%TF.ProjectId,coil_template_second,636f696c-5f74-4656-9d70-6c6174655f73,rev?*%
%TF.SameCoordinates,Original*%
%TF.FileFunction,Legend,Top*%
%TF.FilePolarity,Positive*%
%FSLAX46Y46*%
G04 Gerber Fmt 4.6, Leading zero omitted, Abs format (unit mm)*
G04 Created by KiCad (PCBNEW 7.0.1-3b83917a11~172~ubuntu22.04.1) date 2023-12-10 14:17:30*
%MOMM*%
%LPD*%
G01*
G04 APERTURE LIST*
%ADD10C,2.000000*%
%ADD11C,0.150000*%
%ADD12C,0.120000*%
G04 APERTURE END LIST*
D10*
X564111714Y-464256336D02*
X552787603Y-474452612D01*
X545710033Y-480825284D02*
X534385921Y-491021560D01*
X531131955Y-501640775D02*
X515984240Y-507590509D01*
X515984240Y-507590509D02*
X523484748Y-493147691D01*
X427149275Y-1019268339D02*
X437924235Y-1030043300D01*
X444658586Y-1036777650D02*
X455433546Y-1047552611D01*
X466208507Y-1050246351D02*
X472942857Y-1065061922D01*
X472942857Y-1065061922D02*
X458127287Y-1058327571D01*
X576432772Y-246441884D02*
X591670868Y-246441884D01*
X601194677Y-246441884D02*
X616432773Y-246441884D01*
X625956582Y-240727598D02*
X641194678Y-246441884D01*
X641194678Y-246441884D02*
X625956582Y-252156170D01*
X471470855Y-439686800D02*
X460695894Y-450461760D01*
X453961544Y-457196111D02*
X443186583Y-467971071D01*
X440492843Y-478746032D02*
X425677272Y-485480382D01*
X425677272Y-485480382D02*
X432411623Y-470664812D01*
X557619047Y-1470747619D02*
X553809523Y-1470747619D01*
X553809523Y-1470747619D02*
X551904761Y-1469795238D01*
X551904761Y-1469795238D02*
X549999999Y-1467890476D01*
X549999999Y-1467890476D02*
X549047618Y-1464080952D01*
X549047618Y-1464080952D02*
X549047618Y-1457414285D01*
X549047618Y-1457414285D02*
X549999999Y-1453604761D01*
X549999999Y-1453604761D02*
X551904761Y-1451700000D01*
X551904761Y-1451700000D02*
X553809523Y-1450747619D01*
X553809523Y-1450747619D02*
X557619047Y-1450747619D01*
X557619047Y-1450747619D02*
X559523809Y-1451700000D01*
X559523809Y-1451700000D02*
X561428571Y-1453604761D01*
X561428571Y-1453604761D02*
X562380952Y-1457414285D01*
X562380952Y-1457414285D02*
X562380952Y-1464080952D01*
X562380952Y-1464080952D02*
X561428571Y-1467890476D01*
X561428571Y-1467890476D02*
X559523809Y-1469795238D01*
X559523809Y-1469795238D02*
X557619047Y-1470747619D01*
X540476190Y-1450747619D02*
X540476190Y-1470747619D01*
X540476190Y-1470747619D02*
X532857142Y-1470747619D01*
X532857142Y-1470747619D02*
X530952380Y-1469795238D01*
X530952380Y-1469795238D02*
X529999999Y-1468842857D01*
X529999999Y-1468842857D02*
X529047618Y-1466938095D01*
X529047618Y-1466938095D02*
X529047618Y-1464080952D01*
X529047618Y-1464080952D02*
X529999999Y-1462176190D01*
X529999999Y-1462176190D02*
X530952380Y-1461223809D01*
X530952380Y-1461223809D02*
X532857142Y-1460271428D01*
X532857142Y-1460271428D02*
X540476190Y-1460271428D01*
X520476190Y-1450747619D02*
X520476190Y-1470747619D01*
X520476190Y-1470747619D02*
X513809523Y-1456461904D01*
X513809523Y-1456461904D02*
X507142856Y-1470747619D01*
X507142856Y-1470747619D02*
X507142856Y-1450747619D01*
X497619047Y-1458366666D02*
X482380952Y-1458366666D01*
X472857142Y-1450747619D02*
X472857142Y-1470747619D01*
X472857142Y-1470747619D02*
X466190475Y-1456461904D01*
X466190475Y-1456461904D02*
X459523808Y-1470747619D01*
X459523808Y-1470747619D02*
X459523808Y-1450747619D01*
X449999999Y-1461223809D02*
X443333332Y-1461223809D01*
X440476189Y-1450747619D02*
X449999999Y-1450747619D01*
X449999999Y-1450747619D02*
X449999999Y-1470747619D01*
X449999999Y-1470747619D02*
X440476189Y-1470747619D01*
X421428570Y-1469795238D02*
X423333332Y-1470747619D01*
X423333332Y-1470747619D02*
X426190475Y-1470747619D01*
X426190475Y-1470747619D02*
X429047618Y-1469795238D01*
X429047618Y-1469795238D02*
X430952380Y-1467890476D01*
X430952380Y-1467890476D02*
X431904761Y-1465985714D01*
X431904761Y-1465985714D02*
X432857142Y-1462176190D01*
X432857142Y-1462176190D02*
X432857142Y-1459319047D01*
X432857142Y-1459319047D02*
X431904761Y-1455509523D01*
X431904761Y-1455509523D02*
X430952380Y-1453604761D01*
X430952380Y-1453604761D02*
X429047618Y-1451700000D01*
X429047618Y-1451700000D02*
X426190475Y-1450747619D01*
X426190475Y-1450747619D02*
X424285713Y-1450747619D01*
X424285713Y-1450747619D02*
X421428570Y-1451700000D01*
X421428570Y-1451700000D02*
X420476189Y-1452652380D01*
X420476189Y-1452652380D02*
X420476189Y-1459319047D01*
X420476189Y-1459319047D02*
X424285713Y-1459319047D01*
X384285713Y-1460271428D02*
X385238094Y-1461223809D01*
X385238094Y-1461223809D02*
X387142856Y-1462176190D01*
X387142856Y-1462176190D02*
X389047618Y-1462176190D01*
X389047618Y-1462176190D02*
X390952380Y-1461223809D01*
X390952380Y-1461223809D02*
X391904761Y-1460271428D01*
X391904761Y-1460271428D02*
X392857142Y-1458366666D01*
X392857142Y-1458366666D02*
X392857142Y-1456461904D01*
X392857142Y-1456461904D02*
X391904761Y-1454557142D01*
X391904761Y-1454557142D02*
X390952380Y-1453604761D01*
X390952380Y-1453604761D02*
X389047618Y-1452652380D01*
X389047618Y-1452652380D02*
X387142856Y-1452652380D01*
X387142856Y-1452652380D02*
X385238094Y-1453604761D01*
X385238094Y-1453604761D02*
X384285713Y-1454557142D01*
X384285713Y-1462176190D02*
X384285713Y-1454557142D01*
X384285713Y-1454557142D02*
X383333332Y-1453604761D01*
X383333332Y-1453604761D02*
X382380951Y-1453604761D01*
X382380951Y-1453604761D02*
X380476190Y-1454557142D01*
X380476190Y-1454557142D02*
X379523809Y-1456461904D01*
X379523809Y-1456461904D02*
X379523809Y-1461223809D01*
X379523809Y-1461223809D02*
X381428571Y-1464080952D01*
X381428571Y-1464080952D02*
X384285713Y-1465985714D01*
X384285713Y-1465985714D02*
X388095237Y-1466938095D01*
X388095237Y-1466938095D02*
X391904761Y-1465985714D01*
X391904761Y-1465985714D02*
X394761904Y-1464080952D01*
X394761904Y-1464080952D02*
X396666666Y-1461223809D01*
X396666666Y-1461223809D02*
X397619047Y-1457414285D01*
X397619047Y-1457414285D02*
X396666666Y-1453604761D01*
X396666666Y-1453604761D02*
X394761904Y-1450747619D01*
X394761904Y-1450747619D02*
X391904761Y-1448842857D01*
X391904761Y-1448842857D02*
X388095237Y-1447890476D01*
X388095237Y-1447890476D02*
X384285713Y-1448842857D01*
X384285713Y-1448842857D02*
X381428571Y-1450747619D01*
X355714285Y-1450747619D02*
X355714285Y-1470747619D01*
X355714285Y-1470747619D02*
X349047618Y-1456461904D01*
X349047618Y-1456461904D02*
X342380951Y-1470747619D01*
X342380951Y-1470747619D02*
X342380951Y-1450747619D01*
X324285713Y-1450747619D02*
X324285713Y-1461223809D01*
X324285713Y-1461223809D02*
X325238094Y-1463128571D01*
X325238094Y-1463128571D02*
X327142856Y-1464080952D01*
X327142856Y-1464080952D02*
X330952380Y-1464080952D01*
X330952380Y-1464080952D02*
X332857142Y-1463128571D01*
X324285713Y-1451700000D02*
X326190475Y-1450747619D01*
X326190475Y-1450747619D02*
X330952380Y-1450747619D01*
X330952380Y-1450747619D02*
X332857142Y-1451700000D01*
X332857142Y-1451700000D02*
X333809523Y-1453604761D01*
X333809523Y-1453604761D02*
X333809523Y-1455509523D01*
X333809523Y-1455509523D02*
X332857142Y-1457414285D01*
X332857142Y-1457414285D02*
X330952380Y-1458366666D01*
X330952380Y-1458366666D02*
X326190475Y-1458366666D01*
X326190475Y-1458366666D02*
X324285713Y-1459319047D01*
X314761904Y-1450747619D02*
X314761904Y-1464080952D01*
X314761904Y-1460271428D02*
X313809523Y-1462176190D01*
X313809523Y-1462176190D02*
X312857142Y-1463128571D01*
X312857142Y-1463128571D02*
X310952380Y-1464080952D01*
X310952380Y-1464080952D02*
X309047618Y-1464080952D01*
X305238095Y-1464080952D02*
X297619047Y-1464080952D01*
X302380952Y-1470747619D02*
X302380952Y-1453604761D01*
X302380952Y-1453604761D02*
X301428571Y-1451700000D01*
X301428571Y-1451700000D02*
X299523809Y-1450747619D01*
X299523809Y-1450747619D02*
X297619047Y-1450747619D01*
X290952381Y-1450747619D02*
X290952381Y-1464080952D01*
X290952381Y-1470747619D02*
X291904762Y-1469795238D01*
X291904762Y-1469795238D02*
X290952381Y-1468842857D01*
X290952381Y-1468842857D02*
X290000000Y-1469795238D01*
X290000000Y-1469795238D02*
X290952381Y-1470747619D01*
X290952381Y-1470747619D02*
X290952381Y-1468842857D01*
X281428571Y-1464080952D02*
X281428571Y-1450747619D01*
X281428571Y-1462176190D02*
X280476190Y-1463128571D01*
X280476190Y-1463128571D02*
X278571428Y-1464080952D01*
X278571428Y-1464080952D02*
X275714285Y-1464080952D01*
X275714285Y-1464080952D02*
X273809523Y-1463128571D01*
X273809523Y-1463128571D02*
X272857142Y-1461223809D01*
X272857142Y-1461223809D02*
X272857142Y-1450747619D01*
X260476190Y-1450747619D02*
X262380952Y-1451700000D01*
X262380952Y-1451700000D02*
X263333333Y-1452652380D01*
X263333333Y-1452652380D02*
X264285714Y-1454557142D01*
X264285714Y-1454557142D02*
X264285714Y-1460271428D01*
X264285714Y-1460271428D02*
X263333333Y-1462176190D01*
X263333333Y-1462176190D02*
X262380952Y-1463128571D01*
X262380952Y-1463128571D02*
X260476190Y-1464080952D01*
X260476190Y-1464080952D02*
X257619047Y-1464080952D01*
X257619047Y-1464080952D02*
X255714285Y-1463128571D01*
X255714285Y-1463128571D02*
X254761904Y-1462176190D01*
X254761904Y-1462176190D02*
X253809523Y-1460271428D01*
X253809523Y-1460271428D02*
X253809523Y-1454557142D01*
X253809523Y-1454557142D02*
X254761904Y-1452652380D01*
X254761904Y-1452652380D02*
X255714285Y-1451700000D01*
X255714285Y-1451700000D02*
X257619047Y-1450747619D01*
X257619047Y-1450747619D02*
X260476190Y-1450747619D01*
X246190476Y-1451700000D02*
X244285714Y-1450747619D01*
X244285714Y-1450747619D02*
X240476190Y-1450747619D01*
X240476190Y-1450747619D02*
X238571428Y-1451700000D01*
X238571428Y-1451700000D02*
X237619047Y-1453604761D01*
X237619047Y-1453604761D02*
X237619047Y-1454557142D01*
X237619047Y-1454557142D02*
X238571428Y-1456461904D01*
X238571428Y-1456461904D02*
X240476190Y-1457414285D01*
X240476190Y-1457414285D02*
X243333333Y-1457414285D01*
X243333333Y-1457414285D02*
X245238095Y-1458366666D01*
X245238095Y-1458366666D02*
X246190476Y-1460271428D01*
X246190476Y-1460271428D02*
X246190476Y-1461223809D01*
X246190476Y-1461223809D02*
X245238095Y-1463128571D01*
X245238095Y-1463128571D02*
X243333333Y-1464080952D01*
X243333333Y-1464080952D02*
X240476190Y-1464080952D01*
X240476190Y-1464080952D02*
X238571428Y-1463128571D01*
X557619047Y-40747619D02*
X553809523Y-40747619D01*
X553809523Y-40747619D02*
X551904761Y-39795238D01*
X551904761Y-39795238D02*
X549999999Y-37890476D01*
X549999999Y-37890476D02*
X549047618Y-34080952D01*
X549047618Y-34080952D02*
X549047618Y-27414285D01*
X549047618Y-27414285D02*
X549999999Y-23604761D01*
X549999999Y-23604761D02*
X551904761Y-21700000D01*
X551904761Y-21700000D02*
X553809523Y-20747619D01*
X553809523Y-20747619D02*
X557619047Y-20747619D01*
X557619047Y-20747619D02*
X559523809Y-21700000D01*
X559523809Y-21700000D02*
X561428571Y-23604761D01*
X561428571Y-23604761D02*
X562380952Y-27414285D01*
X562380952Y-27414285D02*
X562380952Y-34080952D01*
X562380952Y-34080952D02*
X561428571Y-37890476D01*
X561428571Y-37890476D02*
X559523809Y-39795238D01*
X559523809Y-39795238D02*
X557619047Y-40747619D01*
X540476190Y-20747619D02*
X540476190Y-40747619D01*
X540476190Y-40747619D02*
X532857142Y-40747619D01*
X532857142Y-40747619D02*
X530952380Y-39795238D01*
X530952380Y-39795238D02*
X529999999Y-38842857D01*
X529999999Y-38842857D02*
X529047618Y-36938095D01*
X529047618Y-36938095D02*
X529047618Y-34080952D01*
X529047618Y-34080952D02*
X529999999Y-32176190D01*
X529999999Y-32176190D02*
X530952380Y-31223809D01*
X530952380Y-31223809D02*
X532857142Y-30271428D01*
X532857142Y-30271428D02*
X540476190Y-30271428D01*
X520476190Y-20747619D02*
X520476190Y-40747619D01*
X520476190Y-40747619D02*
X513809523Y-26461904D01*
X513809523Y-26461904D02*
X507142856Y-40747619D01*
X507142856Y-40747619D02*
X507142856Y-20747619D01*
X497619047Y-28366666D02*
X482380952Y-28366666D01*
X472857142Y-20747619D02*
X472857142Y-40747619D01*
X472857142Y-40747619D02*
X466190475Y-26461904D01*
X466190475Y-26461904D02*
X459523808Y-40747619D01*
X459523808Y-40747619D02*
X459523808Y-20747619D01*
X449999999Y-31223809D02*
X443333332Y-31223809D01*
X440476189Y-20747619D02*
X449999999Y-20747619D01*
X449999999Y-20747619D02*
X449999999Y-40747619D01*
X449999999Y-40747619D02*
X440476189Y-40747619D01*
X421428570Y-39795238D02*
X423333332Y-40747619D01*
X423333332Y-40747619D02*
X426190475Y-40747619D01*
X426190475Y-40747619D02*
X429047618Y-39795238D01*
X429047618Y-39795238D02*
X430952380Y-37890476D01*
X430952380Y-37890476D02*
X431904761Y-35985714D01*
X431904761Y-35985714D02*
X432857142Y-32176190D01*
X432857142Y-32176190D02*
X432857142Y-29319047D01*
X432857142Y-29319047D02*
X431904761Y-25509523D01*
X431904761Y-25509523D02*
X430952380Y-23604761D01*
X430952380Y-23604761D02*
X429047618Y-21700000D01*
X429047618Y-21700000D02*
X426190475Y-20747619D01*
X426190475Y-20747619D02*
X424285713Y-20747619D01*
X424285713Y-20747619D02*
X421428570Y-21700000D01*
X421428570Y-21700000D02*
X420476189Y-22652380D01*
X420476189Y-22652380D02*
X420476189Y-29319047D01*
X420476189Y-29319047D02*
X424285713Y-29319047D01*
X384285713Y-30271428D02*
X385238094Y-31223809D01*
X385238094Y-31223809D02*
X387142856Y-32176190D01*
X387142856Y-32176190D02*
X389047618Y-32176190D01*
X389047618Y-32176190D02*
X390952380Y-31223809D01*
X390952380Y-31223809D02*
X391904761Y-30271428D01*
X391904761Y-30271428D02*
X392857142Y-28366666D01*
X392857142Y-28366666D02*
X392857142Y-26461904D01*
X392857142Y-26461904D02*
X391904761Y-24557142D01*
X391904761Y-24557142D02*
X390952380Y-23604761D01*
X390952380Y-23604761D02*
X389047618Y-22652380D01*
X389047618Y-22652380D02*
X387142856Y-22652380D01*
X387142856Y-22652380D02*
X385238094Y-23604761D01*
X385238094Y-23604761D02*
X384285713Y-24557142D01*
X384285713Y-32176190D02*
X384285713Y-24557142D01*
X384285713Y-24557142D02*
X383333332Y-23604761D01*
X383333332Y-23604761D02*
X382380951Y-23604761D01*
X382380951Y-23604761D02*
X380476190Y-24557142D01*
X380476190Y-24557142D02*
X379523809Y-26461904D01*
X379523809Y-26461904D02*
X379523809Y-31223809D01*
X379523809Y-31223809D02*
X381428571Y-34080952D01*
X381428571Y-34080952D02*
X384285713Y-35985714D01*
X384285713Y-35985714D02*
X388095237Y-36938095D01*
X388095237Y-36938095D02*
X391904761Y-35985714D01*
X391904761Y-35985714D02*
X394761904Y-34080952D01*
X394761904Y-34080952D02*
X396666666Y-31223809D01*
X396666666Y-31223809D02*
X397619047Y-27414285D01*
X397619047Y-27414285D02*
X396666666Y-23604761D01*
X396666666Y-23604761D02*
X394761904Y-20747619D01*
X394761904Y-20747619D02*
X391904761Y-18842857D01*
X391904761Y-18842857D02*
X388095237Y-17890476D01*
X388095237Y-17890476D02*
X384285713Y-18842857D01*
X384285713Y-18842857D02*
X381428571Y-20747619D01*
X355714285Y-20747619D02*
X355714285Y-40747619D01*
X355714285Y-40747619D02*
X349047618Y-26461904D01*
X349047618Y-26461904D02*
X342380951Y-40747619D01*
X342380951Y-40747619D02*
X342380951Y-20747619D01*
X324285713Y-20747619D02*
X324285713Y-31223809D01*
X324285713Y-31223809D02*
X325238094Y-33128571D01*
X325238094Y-33128571D02*
X327142856Y-34080952D01*
X327142856Y-34080952D02*
X330952380Y-34080952D01*
X330952380Y-34080952D02*
X332857142Y-33128571D01*
X324285713Y-21700000D02*
X326190475Y-20747619D01*
X326190475Y-20747619D02*
X330952380Y-20747619D01*
X330952380Y-20747619D02*
X332857142Y-21700000D01*
X332857142Y-21700000D02*
X333809523Y-23604761D01*
X333809523Y-23604761D02*
X333809523Y-25509523D01*
X333809523Y-25509523D02*
X332857142Y-27414285D01*
X332857142Y-27414285D02*
X330952380Y-28366666D01*
X330952380Y-28366666D02*
X326190475Y-28366666D01*
X326190475Y-28366666D02*
X324285713Y-29319047D01*
X314761904Y-20747619D02*
X314761904Y-34080952D01*
X314761904Y-30271428D02*
X313809523Y-32176190D01*
X313809523Y-32176190D02*
X312857142Y-33128571D01*
X312857142Y-33128571D02*
X310952380Y-34080952D01*
X310952380Y-34080952D02*
X309047618Y-34080952D01*
X305238095Y-34080952D02*
X297619047Y-34080952D01*
X302380952Y-40747619D02*
X302380952Y-23604761D01*
X302380952Y-23604761D02*
X301428571Y-21700000D01*
X301428571Y-21700000D02*
X299523809Y-20747619D01*
X299523809Y-20747619D02*
X297619047Y-20747619D01*
X290952381Y-20747619D02*
X290952381Y-34080952D01*
X290952381Y-40747619D02*
X291904762Y-39795238D01*
X291904762Y-39795238D02*
X290952381Y-38842857D01*
X290952381Y-38842857D02*
X290000000Y-39795238D01*
X290000000Y-39795238D02*
X290952381Y-40747619D01*
X290952381Y-40747619D02*
X290952381Y-38842857D01*
X281428571Y-34080952D02*
X281428571Y-20747619D01*
X281428571Y-32176190D02*
X280476190Y-33128571D01*
X280476190Y-33128571D02*
X278571428Y-34080952D01*
X278571428Y-34080952D02*
X275714285Y-34080952D01*
X275714285Y-34080952D02*
X273809523Y-33128571D01*
X273809523Y-33128571D02*
X272857142Y-31223809D01*
X272857142Y-31223809D02*
X272857142Y-20747619D01*
X260476190Y-20747619D02*
X262380952Y-21700000D01*
X262380952Y-21700000D02*
X263333333Y-22652380D01*
X263333333Y-22652380D02*
X264285714Y-24557142D01*
X264285714Y-24557142D02*
X264285714Y-30271428D01*
X264285714Y-30271428D02*
X263333333Y-32176190D01*
X263333333Y-32176190D02*
X262380952Y-33128571D01*
X262380952Y-33128571D02*
X260476190Y-34080952D01*
X260476190Y-34080952D02*
X257619047Y-34080952D01*
X257619047Y-34080952D02*
X255714285Y-33128571D01*
X255714285Y-33128571D02*
X254761904Y-32176190D01*
X254761904Y-32176190D02*
X253809523Y-30271428D01*
X253809523Y-30271428D02*
X253809523Y-24557142D01*
X253809523Y-24557142D02*
X254761904Y-22652380D01*
X254761904Y-22652380D02*
X255714285Y-21700000D01*
X255714285Y-21700000D02*
X257619047Y-20747619D01*
X257619047Y-20747619D02*
X260476190Y-20747619D01*
X246190476Y-21700000D02*
X244285714Y-20747619D01*
X244285714Y-20747619D02*
X240476190Y-20747619D01*
X240476190Y-20747619D02*
X238571428Y-21700000D01*
X238571428Y-21700000D02*
X237619047Y-23604761D01*
X237619047Y-23604761D02*
X237619047Y-24557142D01*
X237619047Y-24557142D02*
X238571428Y-26461904D01*
X238571428Y-26461904D02*
X240476190Y-27414285D01*
X240476190Y-27414285D02*
X243333333Y-27414285D01*
X243333333Y-27414285D02*
X245238095Y-28366666D01*
X245238095Y-28366666D02*
X246190476Y-30271428D01*
X246190476Y-30271428D02*
X246190476Y-31223809D01*
X246190476Y-31223809D02*
X245238095Y-33128571D01*
X245238095Y-33128571D02*
X243333333Y-34080952D01*
X243333333Y-34080952D02*
X240476190Y-34080952D01*
X240476190Y-34080952D02*
X238571428Y-33128571D01*
X17284077Y-918644629D02*
X17284077Y-914835105D01*
X17284077Y-914835105D02*
X18236458Y-912930343D01*
X18236458Y-912930343D02*
X20141220Y-911025581D01*
X20141220Y-911025581D02*
X23950744Y-910073200D01*
X23950744Y-910073200D02*
X30617411Y-910073200D01*
X30617411Y-910073200D02*
X34426935Y-911025581D01*
X34426935Y-911025581D02*
X36331697Y-912930343D01*
X36331697Y-912930343D02*
X37284077Y-914835105D01*
X37284077Y-914835105D02*
X37284077Y-918644629D01*
X37284077Y-918644629D02*
X36331697Y-920549391D01*
X36331697Y-920549391D02*
X34426935Y-922454153D01*
X34426935Y-922454153D02*
X30617411Y-923406534D01*
X30617411Y-923406534D02*
X23950744Y-923406534D01*
X23950744Y-923406534D02*
X20141220Y-922454153D01*
X20141220Y-922454153D02*
X18236458Y-920549391D01*
X18236458Y-920549391D02*
X17284077Y-918644629D01*
X37284077Y-901501772D02*
X17284077Y-901501772D01*
X17284077Y-901501772D02*
X17284077Y-893882724D01*
X17284077Y-893882724D02*
X18236458Y-891977962D01*
X18236458Y-891977962D02*
X19188839Y-891025581D01*
X19188839Y-891025581D02*
X21093601Y-890073200D01*
X21093601Y-890073200D02*
X23950744Y-890073200D01*
X23950744Y-890073200D02*
X25855506Y-891025581D01*
X25855506Y-891025581D02*
X26807887Y-891977962D01*
X26807887Y-891977962D02*
X27760268Y-893882724D01*
X27760268Y-893882724D02*
X27760268Y-901501772D01*
X37284077Y-881501772D02*
X17284077Y-881501772D01*
X17284077Y-881501772D02*
X31569792Y-874835105D01*
X31569792Y-874835105D02*
X17284077Y-868168438D01*
X17284077Y-868168438D02*
X37284077Y-868168438D01*
X29665030Y-858644629D02*
X29665030Y-843406534D01*
X37284077Y-833882724D02*
X17284077Y-833882724D01*
X17284077Y-833882724D02*
X31569792Y-827216057D01*
X31569792Y-827216057D02*
X17284077Y-820549390D01*
X17284077Y-820549390D02*
X37284077Y-820549390D01*
X26807887Y-811025581D02*
X26807887Y-804358914D01*
X37284077Y-801501771D02*
X37284077Y-811025581D01*
X37284077Y-811025581D02*
X17284077Y-811025581D01*
X17284077Y-811025581D02*
X17284077Y-801501771D01*
X18236458Y-782454152D02*
X17284077Y-784358914D01*
X17284077Y-784358914D02*
X17284077Y-787216057D01*
X17284077Y-787216057D02*
X18236458Y-790073200D01*
X18236458Y-790073200D02*
X20141220Y-791977962D01*
X20141220Y-791977962D02*
X22045982Y-792930343D01*
X22045982Y-792930343D02*
X25855506Y-793882724D01*
X25855506Y-793882724D02*
X28712649Y-793882724D01*
X28712649Y-793882724D02*
X32522173Y-792930343D01*
X32522173Y-792930343D02*
X34426935Y-791977962D01*
X34426935Y-791977962D02*
X36331697Y-790073200D01*
X36331697Y-790073200D02*
X37284077Y-787216057D01*
X37284077Y-787216057D02*
X37284077Y-785311295D01*
X37284077Y-785311295D02*
X36331697Y-782454152D01*
X36331697Y-782454152D02*
X35379316Y-781501771D01*
X35379316Y-781501771D02*
X28712649Y-781501771D01*
X28712649Y-781501771D02*
X28712649Y-785311295D01*
X27760268Y-745311295D02*
X26807887Y-746263676D01*
X26807887Y-746263676D02*
X25855506Y-748168438D01*
X25855506Y-748168438D02*
X25855506Y-750073200D01*
X25855506Y-750073200D02*
X26807887Y-751977962D01*
X26807887Y-751977962D02*
X27760268Y-752930343D01*
X27760268Y-752930343D02*
X29665030Y-753882724D01*
X29665030Y-753882724D02*
X31569792Y-753882724D01*
X31569792Y-753882724D02*
X33474554Y-752930343D01*
X33474554Y-752930343D02*
X34426935Y-751977962D01*
X34426935Y-751977962D02*
X35379316Y-750073200D01*
X35379316Y-750073200D02*
X35379316Y-748168438D01*
X35379316Y-748168438D02*
X34426935Y-746263676D01*
X34426935Y-746263676D02*
X33474554Y-745311295D01*
X25855506Y-745311295D02*
X33474554Y-745311295D01*
X33474554Y-745311295D02*
X34426935Y-744358914D01*
X34426935Y-744358914D02*
X34426935Y-743406533D01*
X34426935Y-743406533D02*
X33474554Y-741501772D01*
X33474554Y-741501772D02*
X31569792Y-740549391D01*
X31569792Y-740549391D02*
X26807887Y-740549391D01*
X26807887Y-740549391D02*
X23950744Y-742454153D01*
X23950744Y-742454153D02*
X22045982Y-745311295D01*
X22045982Y-745311295D02*
X21093601Y-749120819D01*
X21093601Y-749120819D02*
X22045982Y-752930343D01*
X22045982Y-752930343D02*
X23950744Y-755787486D01*
X23950744Y-755787486D02*
X26807887Y-757692248D01*
X26807887Y-757692248D02*
X30617411Y-758644629D01*
X30617411Y-758644629D02*
X34426935Y-757692248D01*
X34426935Y-757692248D02*
X37284077Y-755787486D01*
X37284077Y-755787486D02*
X39188839Y-752930343D01*
X39188839Y-752930343D02*
X40141220Y-749120819D01*
X40141220Y-749120819D02*
X39188839Y-745311295D01*
X39188839Y-745311295D02*
X37284077Y-742454153D01*
X37284077Y-716739867D02*
X17284077Y-716739867D01*
X17284077Y-716739867D02*
X31569792Y-710073200D01*
X31569792Y-710073200D02*
X17284077Y-703406533D01*
X17284077Y-703406533D02*
X37284077Y-703406533D01*
X37284077Y-685311295D02*
X26807887Y-685311295D01*
X26807887Y-685311295D02*
X24903125Y-686263676D01*
X24903125Y-686263676D02*
X23950744Y-688168438D01*
X23950744Y-688168438D02*
X23950744Y-691977962D01*
X23950744Y-691977962D02*
X24903125Y-693882724D01*
X36331697Y-685311295D02*
X37284077Y-687216057D01*
X37284077Y-687216057D02*
X37284077Y-691977962D01*
X37284077Y-691977962D02*
X36331697Y-693882724D01*
X36331697Y-693882724D02*
X34426935Y-694835105D01*
X34426935Y-694835105D02*
X32522173Y-694835105D01*
X32522173Y-694835105D02*
X30617411Y-693882724D01*
X30617411Y-693882724D02*
X29665030Y-691977962D01*
X29665030Y-691977962D02*
X29665030Y-687216057D01*
X29665030Y-687216057D02*
X28712649Y-685311295D01*
X37284077Y-675787486D02*
X23950744Y-675787486D01*
X27760268Y-675787486D02*
X25855506Y-674835105D01*
X25855506Y-674835105D02*
X24903125Y-673882724D01*
X24903125Y-673882724D02*
X23950744Y-671977962D01*
X23950744Y-671977962D02*
X23950744Y-670073200D01*
X23950744Y-666263677D02*
X23950744Y-658644629D01*
X17284077Y-663406534D02*
X34426935Y-663406534D01*
X34426935Y-663406534D02*
X36331697Y-662454153D01*
X36331697Y-662454153D02*
X37284077Y-660549391D01*
X37284077Y-660549391D02*
X37284077Y-658644629D01*
X37284077Y-651977963D02*
X23950744Y-651977963D01*
X17284077Y-651977963D02*
X18236458Y-652930344D01*
X18236458Y-652930344D02*
X19188839Y-651977963D01*
X19188839Y-651977963D02*
X18236458Y-651025582D01*
X18236458Y-651025582D02*
X17284077Y-651977963D01*
X17284077Y-651977963D02*
X19188839Y-651977963D01*
X23950744Y-642454153D02*
X37284077Y-642454153D01*
X25855506Y-642454153D02*
X24903125Y-641501772D01*
X24903125Y-641501772D02*
X23950744Y-639597010D01*
X23950744Y-639597010D02*
X23950744Y-636739867D01*
X23950744Y-636739867D02*
X24903125Y-634835105D01*
X24903125Y-634835105D02*
X26807887Y-633882724D01*
X26807887Y-633882724D02*
X37284077Y-633882724D01*
X37284077Y-621501772D02*
X36331697Y-623406534D01*
X36331697Y-623406534D02*
X35379316Y-624358915D01*
X35379316Y-624358915D02*
X33474554Y-625311296D01*
X33474554Y-625311296D02*
X27760268Y-625311296D01*
X27760268Y-625311296D02*
X25855506Y-624358915D01*
X25855506Y-624358915D02*
X24903125Y-623406534D01*
X24903125Y-623406534D02*
X23950744Y-621501772D01*
X23950744Y-621501772D02*
X23950744Y-618644629D01*
X23950744Y-618644629D02*
X24903125Y-616739867D01*
X24903125Y-616739867D02*
X25855506Y-615787486D01*
X25855506Y-615787486D02*
X27760268Y-614835105D01*
X27760268Y-614835105D02*
X33474554Y-614835105D01*
X33474554Y-614835105D02*
X35379316Y-615787486D01*
X35379316Y-615787486D02*
X36331697Y-616739867D01*
X36331697Y-616739867D02*
X37284077Y-618644629D01*
X37284077Y-618644629D02*
X37284077Y-621501772D01*
X36331697Y-607216058D02*
X37284077Y-605311296D01*
X37284077Y-605311296D02*
X37284077Y-601501772D01*
X37284077Y-601501772D02*
X36331697Y-599597010D01*
X36331697Y-599597010D02*
X34426935Y-598644629D01*
X34426935Y-598644629D02*
X33474554Y-598644629D01*
X33474554Y-598644629D02*
X31569792Y-599597010D01*
X31569792Y-599597010D02*
X30617411Y-601501772D01*
X30617411Y-601501772D02*
X30617411Y-604358915D01*
X30617411Y-604358915D02*
X29665030Y-606263677D01*
X29665030Y-606263677D02*
X27760268Y-607216058D01*
X27760268Y-607216058D02*
X26807887Y-607216058D01*
X26807887Y-607216058D02*
X24903125Y-606263677D01*
X24903125Y-606263677D02*
X23950744Y-604358915D01*
X23950744Y-604358915D02*
X23950744Y-601501772D01*
X23950744Y-601501772D02*
X24903125Y-599597010D01*
X505082767Y-980871308D02*
X515857727Y-991646269D01*
X522592078Y-998380619D02*
X533367038Y-1009155580D01*
X544141999Y-1011849320D02*
X550876349Y-1026664891D01*
X550876349Y-1026664891D02*
X536060779Y-1019930540D01*
X374269095Y-419554348D02*
X385044056Y-408779388D01*
X391778406Y-402045037D02*
X402553367Y-391270077D01*
X405247107Y-380495116D02*
X420062678Y-373760766D01*
X420062678Y-373760766D02*
X413328327Y-388576336D01*
X637912254Y-1254805050D02*
X622674159Y-1254805050D01*
X613150349Y-1254805050D02*
X597912254Y-1254805050D01*
X588388444Y-1260519336D02*
X573150349Y-1254805050D01*
X573150349Y-1254805050D02*
X588388444Y-1249090764D01*
X406877104Y-1116889257D02*
X396102144Y-1106114296D01*
X389367793Y-1099379946D02*
X378592833Y-1088604985D01*
X367817872Y-1085911245D02*
X361083522Y-1071095674D01*
X361083522Y-1071095674D02*
X375899092Y-1077830025D01*
D11*
%TO.C,J56*%
X745690476Y-1460025891D02*
X745690476Y-1460740176D01*
X745690476Y-1460740176D02*
X745642857Y-1460883033D01*
X745642857Y-1460883033D02*
X745547619Y-1460978272D01*
X745547619Y-1460978272D02*
X745404762Y-1461025891D01*
X745404762Y-1461025891D02*
X745309524Y-1461025891D01*
X746642857Y-1460025891D02*
X746166667Y-1460025891D01*
X746166667Y-1460025891D02*
X746119048Y-1460502081D01*
X746119048Y-1460502081D02*
X746166667Y-1460454462D01*
X746166667Y-1460454462D02*
X746261905Y-1460406843D01*
X746261905Y-1460406843D02*
X746500000Y-1460406843D01*
X746500000Y-1460406843D02*
X746595238Y-1460454462D01*
X746595238Y-1460454462D02*
X746642857Y-1460502081D01*
X746642857Y-1460502081D02*
X746690476Y-1460597319D01*
X746690476Y-1460597319D02*
X746690476Y-1460835414D01*
X746690476Y-1460835414D02*
X746642857Y-1460930652D01*
X746642857Y-1460930652D02*
X746595238Y-1460978272D01*
X746595238Y-1460978272D02*
X746500000Y-1461025891D01*
X746500000Y-1461025891D02*
X746261905Y-1461025891D01*
X746261905Y-1461025891D02*
X746166667Y-1460978272D01*
X746166667Y-1460978272D02*
X746119048Y-1460930652D01*
X747547619Y-1460025891D02*
X747357143Y-1460025891D01*
X747357143Y-1460025891D02*
X747261905Y-1460073510D01*
X747261905Y-1460073510D02*
X747214286Y-1460121129D01*
X747214286Y-1460121129D02*
X747119048Y-1460263986D01*
X747119048Y-1460263986D02*
X747071429Y-1460454462D01*
X747071429Y-1460454462D02*
X747071429Y-1460835414D01*
X747071429Y-1460835414D02*
X747119048Y-1460930652D01*
X747119048Y-1460930652D02*
X747166667Y-1460978272D01*
X747166667Y-1460978272D02*
X747261905Y-1461025891D01*
X747261905Y-1461025891D02*
X747452381Y-1461025891D01*
X747452381Y-1461025891D02*
X747547619Y-1460978272D01*
X747547619Y-1460978272D02*
X747595238Y-1460930652D01*
X747595238Y-1460930652D02*
X747642857Y-1460835414D01*
X747642857Y-1460835414D02*
X747642857Y-1460597319D01*
X747642857Y-1460597319D02*
X747595238Y-1460502081D01*
X747595238Y-1460502081D02*
X747547619Y-1460454462D01*
X747547619Y-1460454462D02*
X747452381Y-1460406843D01*
X747452381Y-1460406843D02*
X747261905Y-1460406843D01*
X747261905Y-1460406843D02*
X747166667Y-1460454462D01*
X747166667Y-1460454462D02*
X747119048Y-1460502081D01*
X747119048Y-1460502081D02*
X747071429Y-1460597319D01*
%TO.C,J7*%
X746166666Y-111301752D02*
X746166666Y-112016037D01*
X746166666Y-112016037D02*
X746119047Y-112158894D01*
X746119047Y-112158894D02*
X746023809Y-112254133D01*
X746023809Y-112254133D02*
X745880952Y-112301752D01*
X745880952Y-112301752D02*
X745785714Y-112301752D01*
X746547619Y-111301752D02*
X747214285Y-111301752D01*
X747214285Y-111301752D02*
X746785714Y-112301752D01*
%TO.C,J20*%
X745690476Y-492991717D02*
X745690476Y-493706002D01*
X745690476Y-493706002D02*
X745642857Y-493848859D01*
X745642857Y-493848859D02*
X745547619Y-493944098D01*
X745547619Y-493944098D02*
X745404762Y-493991717D01*
X745404762Y-493991717D02*
X745309524Y-493991717D01*
X746119048Y-493086955D02*
X746166667Y-493039336D01*
X746166667Y-493039336D02*
X746261905Y-492991717D01*
X746261905Y-492991717D02*
X746500000Y-492991717D01*
X746500000Y-492991717D02*
X746595238Y-493039336D01*
X746595238Y-493039336D02*
X746642857Y-493086955D01*
X746642857Y-493086955D02*
X746690476Y-493182193D01*
X746690476Y-493182193D02*
X746690476Y-493277431D01*
X746690476Y-493277431D02*
X746642857Y-493420288D01*
X746642857Y-493420288D02*
X746071429Y-493991717D01*
X746071429Y-493991717D02*
X746690476Y-493991717D01*
X747309524Y-492991717D02*
X747404762Y-492991717D01*
X747404762Y-492991717D02*
X747500000Y-493039336D01*
X747500000Y-493039336D02*
X747547619Y-493086955D01*
X747547619Y-493086955D02*
X747595238Y-493182193D01*
X747595238Y-493182193D02*
X747642857Y-493372669D01*
X747642857Y-493372669D02*
X747642857Y-493610764D01*
X747642857Y-493610764D02*
X747595238Y-493801240D01*
X747595238Y-493801240D02*
X747547619Y-493896478D01*
X747547619Y-493896478D02*
X747500000Y-493944098D01*
X747500000Y-493944098D02*
X747404762Y-493991717D01*
X747404762Y-493991717D02*
X747309524Y-493991717D01*
X747309524Y-493991717D02*
X747214286Y-493944098D01*
X747214286Y-493944098D02*
X747166667Y-493896478D01*
X747166667Y-493896478D02*
X747119048Y-493801240D01*
X747119048Y-493801240D02*
X747071429Y-493610764D01*
X747071429Y-493610764D02*
X747071429Y-493372669D01*
X747071429Y-493372669D02*
X747119048Y-493182193D01*
X747119048Y-493182193D02*
X747166667Y-493086955D01*
X747166667Y-493086955D02*
X747214286Y-493039336D01*
X747214286Y-493039336D02*
X747309524Y-492991717D01*
%TO.C,J54*%
X745690476Y-1434410714D02*
X745690476Y-1435124999D01*
X745690476Y-1435124999D02*
X745642857Y-1435267856D01*
X745642857Y-1435267856D02*
X745547619Y-1435363095D01*
X745547619Y-1435363095D02*
X745404762Y-1435410714D01*
X745404762Y-1435410714D02*
X745309524Y-1435410714D01*
X746642857Y-1434410714D02*
X746166667Y-1434410714D01*
X746166667Y-1434410714D02*
X746119048Y-1434886904D01*
X746119048Y-1434886904D02*
X746166667Y-1434839285D01*
X746166667Y-1434839285D02*
X746261905Y-1434791666D01*
X746261905Y-1434791666D02*
X746500000Y-1434791666D01*
X746500000Y-1434791666D02*
X746595238Y-1434839285D01*
X746595238Y-1434839285D02*
X746642857Y-1434886904D01*
X746642857Y-1434886904D02*
X746690476Y-1434982142D01*
X746690476Y-1434982142D02*
X746690476Y-1435220237D01*
X746690476Y-1435220237D02*
X746642857Y-1435315475D01*
X746642857Y-1435315475D02*
X746595238Y-1435363095D01*
X746595238Y-1435363095D02*
X746500000Y-1435410714D01*
X746500000Y-1435410714D02*
X746261905Y-1435410714D01*
X746261905Y-1435410714D02*
X746166667Y-1435363095D01*
X746166667Y-1435363095D02*
X746119048Y-1435315475D01*
X747547619Y-1434744047D02*
X747547619Y-1435410714D01*
X747309524Y-1434363095D02*
X747071429Y-1435077380D01*
X747071429Y-1435077380D02*
X747690476Y-1435077380D01*
%TO.C,J34*%
X745690476Y-931319326D02*
X745690476Y-932033611D01*
X745690476Y-932033611D02*
X745642857Y-932176468D01*
X745642857Y-932176468D02*
X745547619Y-932271707D01*
X745547619Y-932271707D02*
X745404762Y-932319326D01*
X745404762Y-932319326D02*
X745309524Y-932319326D01*
X746071429Y-931319326D02*
X746690476Y-931319326D01*
X746690476Y-931319326D02*
X746357143Y-931700278D01*
X746357143Y-931700278D02*
X746500000Y-931700278D01*
X746500000Y-931700278D02*
X746595238Y-931747897D01*
X746595238Y-931747897D02*
X746642857Y-931795516D01*
X746642857Y-931795516D02*
X746690476Y-931890754D01*
X746690476Y-931890754D02*
X746690476Y-932128849D01*
X746690476Y-932128849D02*
X746642857Y-932224087D01*
X746642857Y-932224087D02*
X746595238Y-932271707D01*
X746595238Y-932271707D02*
X746500000Y-932319326D01*
X746500000Y-932319326D02*
X746214286Y-932319326D01*
X746214286Y-932319326D02*
X746119048Y-932271707D01*
X746119048Y-932271707D02*
X746071429Y-932224087D01*
X747547619Y-931652659D02*
X747547619Y-932319326D01*
X747309524Y-931271707D02*
X747071429Y-931985992D01*
X747071429Y-931985992D02*
X747690476Y-931985992D01*
%TO.C,J1*%
X38462619Y-60588333D02*
X39176904Y-60588333D01*
X39176904Y-60588333D02*
X39319761Y-60635952D01*
X39319761Y-60635952D02*
X39415000Y-60731190D01*
X39415000Y-60731190D02*
X39462619Y-60874047D01*
X39462619Y-60874047D02*
X39462619Y-60969285D01*
X39462619Y-59588333D02*
X39462619Y-60159761D01*
X39462619Y-59874047D02*
X38462619Y-59874047D01*
X38462619Y-59874047D02*
X38605476Y-59969285D01*
X38605476Y-59969285D02*
X38700714Y-60064523D01*
X38700714Y-60064523D02*
X38748333Y-60159761D01*
%TO.C,J33*%
X745690476Y-908621743D02*
X745690476Y-909336028D01*
X745690476Y-909336028D02*
X745642857Y-909478885D01*
X745642857Y-909478885D02*
X745547619Y-909574124D01*
X745547619Y-909574124D02*
X745404762Y-909621743D01*
X745404762Y-909621743D02*
X745309524Y-909621743D01*
X746071429Y-908621743D02*
X746690476Y-908621743D01*
X746690476Y-908621743D02*
X746357143Y-909002695D01*
X746357143Y-909002695D02*
X746500000Y-909002695D01*
X746500000Y-909002695D02*
X746595238Y-909050314D01*
X746595238Y-909050314D02*
X746642857Y-909097933D01*
X746642857Y-909097933D02*
X746690476Y-909193171D01*
X746690476Y-909193171D02*
X746690476Y-909431266D01*
X746690476Y-909431266D02*
X746642857Y-909526504D01*
X746642857Y-909526504D02*
X746595238Y-909574124D01*
X746595238Y-909574124D02*
X746500000Y-909621743D01*
X746500000Y-909621743D02*
X746214286Y-909621743D01*
X746214286Y-909621743D02*
X746119048Y-909574124D01*
X746119048Y-909574124D02*
X746071429Y-909526504D01*
X747023810Y-908621743D02*
X747642857Y-908621743D01*
X747642857Y-908621743D02*
X747309524Y-909002695D01*
X747309524Y-909002695D02*
X747452381Y-909002695D01*
X747452381Y-909002695D02*
X747547619Y-909050314D01*
X747547619Y-909050314D02*
X747595238Y-909097933D01*
X747595238Y-909097933D02*
X747642857Y-909193171D01*
X747642857Y-909193171D02*
X747642857Y-909431266D01*
X747642857Y-909431266D02*
X747595238Y-909526504D01*
X747595238Y-909526504D02*
X747547619Y-909574124D01*
X747547619Y-909574124D02*
X747452381Y-909621743D01*
X747452381Y-909621743D02*
X747166667Y-909621743D01*
X747166667Y-909621743D02*
X747071429Y-909574124D01*
X747071429Y-909574124D02*
X747023810Y-909526504D01*
%TO.C,J45*%
X745690476Y-1292029159D02*
X745690476Y-1292743444D01*
X745690476Y-1292743444D02*
X745642857Y-1292886301D01*
X745642857Y-1292886301D02*
X745547619Y-1292981540D01*
X745547619Y-1292981540D02*
X745404762Y-1293029159D01*
X745404762Y-1293029159D02*
X745309524Y-1293029159D01*
X746595238Y-1292362492D02*
X746595238Y-1293029159D01*
X746357143Y-1291981540D02*
X746119048Y-1292695825D01*
X746119048Y-1292695825D02*
X746738095Y-1292695825D01*
X747595238Y-1292029159D02*
X747119048Y-1292029159D01*
X747119048Y-1292029159D02*
X747071429Y-1292505349D01*
X747071429Y-1292505349D02*
X747119048Y-1292457730D01*
X747119048Y-1292457730D02*
X747214286Y-1292410111D01*
X747214286Y-1292410111D02*
X747452381Y-1292410111D01*
X747452381Y-1292410111D02*
X747547619Y-1292457730D01*
X747547619Y-1292457730D02*
X747595238Y-1292505349D01*
X747595238Y-1292505349D02*
X747642857Y-1292600587D01*
X747642857Y-1292600587D02*
X747642857Y-1292838682D01*
X747642857Y-1292838682D02*
X747595238Y-1292933920D01*
X747595238Y-1292933920D02*
X747547619Y-1292981540D01*
X747547619Y-1292981540D02*
X747452381Y-1293029159D01*
X747452381Y-1293029159D02*
X747214286Y-1293029159D01*
X747214286Y-1293029159D02*
X747119048Y-1292981540D01*
X747119048Y-1292981540D02*
X747071429Y-1292933920D01*
%TO.C,J10*%
X745690476Y-158949357D02*
X745690476Y-159663642D01*
X745690476Y-159663642D02*
X745642857Y-159806499D01*
X745642857Y-159806499D02*
X745547619Y-159901738D01*
X745547619Y-159901738D02*
X745404762Y-159949357D01*
X745404762Y-159949357D02*
X745309524Y-159949357D01*
X746690476Y-159949357D02*
X746119048Y-159949357D01*
X746404762Y-159949357D02*
X746404762Y-158949357D01*
X746404762Y-158949357D02*
X746309524Y-159092214D01*
X746309524Y-159092214D02*
X746214286Y-159187452D01*
X746214286Y-159187452D02*
X746119048Y-159235071D01*
X747309524Y-158949357D02*
X747404762Y-158949357D01*
X747404762Y-158949357D02*
X747500000Y-158996976D01*
X747500000Y-158996976D02*
X747547619Y-159044595D01*
X747547619Y-159044595D02*
X747595238Y-159139833D01*
X747595238Y-159139833D02*
X747642857Y-159330309D01*
X747642857Y-159330309D02*
X747642857Y-159568404D01*
X747642857Y-159568404D02*
X747595238Y-159758880D01*
X747595238Y-159758880D02*
X747547619Y-159854118D01*
X747547619Y-159854118D02*
X747500000Y-159901738D01*
X747500000Y-159901738D02*
X747404762Y-159949357D01*
X747404762Y-159949357D02*
X747309524Y-159949357D01*
X747309524Y-159949357D02*
X747214286Y-159901738D01*
X747214286Y-159901738D02*
X747166667Y-159854118D01*
X747166667Y-159854118D02*
X747119048Y-159758880D01*
X747119048Y-159758880D02*
X747071429Y-159568404D01*
X747071429Y-159568404D02*
X747071429Y-159330309D01*
X747071429Y-159330309D02*
X747119048Y-159139833D01*
X747119048Y-159139833D02*
X747166667Y-159044595D01*
X747166667Y-159044595D02*
X747214286Y-158996976D01*
X747214286Y-158996976D02*
X747309524Y-158949357D01*
%TO.C,J49*%
X745690476Y-1365133304D02*
X745690476Y-1365847589D01*
X745690476Y-1365847589D02*
X745642857Y-1365990446D01*
X745642857Y-1365990446D02*
X745547619Y-1366085685D01*
X745547619Y-1366085685D02*
X745404762Y-1366133304D01*
X745404762Y-1366133304D02*
X745309524Y-1366133304D01*
X746595238Y-1365466637D02*
X746595238Y-1366133304D01*
X746357143Y-1365085685D02*
X746119048Y-1365799970D01*
X746119048Y-1365799970D02*
X746738095Y-1365799970D01*
X747166667Y-1366133304D02*
X747357143Y-1366133304D01*
X747357143Y-1366133304D02*
X747452381Y-1366085685D01*
X747452381Y-1366085685D02*
X747500000Y-1366038065D01*
X747500000Y-1366038065D02*
X747595238Y-1365895208D01*
X747595238Y-1365895208D02*
X747642857Y-1365704732D01*
X747642857Y-1365704732D02*
X747642857Y-1365323780D01*
X747642857Y-1365323780D02*
X747595238Y-1365228542D01*
X747595238Y-1365228542D02*
X747547619Y-1365180923D01*
X747547619Y-1365180923D02*
X747452381Y-1365133304D01*
X747452381Y-1365133304D02*
X747261905Y-1365133304D01*
X747261905Y-1365133304D02*
X747166667Y-1365180923D01*
X747166667Y-1365180923D02*
X747119048Y-1365228542D01*
X747119048Y-1365228542D02*
X747071429Y-1365323780D01*
X747071429Y-1365323780D02*
X747071429Y-1365561875D01*
X747071429Y-1365561875D02*
X747119048Y-1365657113D01*
X747119048Y-1365657113D02*
X747166667Y-1365704732D01*
X747166667Y-1365704732D02*
X747261905Y-1365752351D01*
X747261905Y-1365752351D02*
X747452381Y-1365752351D01*
X747452381Y-1365752351D02*
X747547619Y-1365704732D01*
X747547619Y-1365704732D02*
X747595238Y-1365657113D01*
X747595238Y-1365657113D02*
X747642857Y-1365561875D01*
%TO.C,J35*%
X745690476Y-953885709D02*
X745690476Y-954599994D01*
X745690476Y-954599994D02*
X745642857Y-954742851D01*
X745642857Y-954742851D02*
X745547619Y-954838090D01*
X745547619Y-954838090D02*
X745404762Y-954885709D01*
X745404762Y-954885709D02*
X745309524Y-954885709D01*
X746071429Y-953885709D02*
X746690476Y-953885709D01*
X746690476Y-953885709D02*
X746357143Y-954266661D01*
X746357143Y-954266661D02*
X746500000Y-954266661D01*
X746500000Y-954266661D02*
X746595238Y-954314280D01*
X746595238Y-954314280D02*
X746642857Y-954361899D01*
X746642857Y-954361899D02*
X746690476Y-954457137D01*
X746690476Y-954457137D02*
X746690476Y-954695232D01*
X746690476Y-954695232D02*
X746642857Y-954790470D01*
X746642857Y-954790470D02*
X746595238Y-954838090D01*
X746595238Y-954838090D02*
X746500000Y-954885709D01*
X746500000Y-954885709D02*
X746214286Y-954885709D01*
X746214286Y-954885709D02*
X746119048Y-954838090D01*
X746119048Y-954838090D02*
X746071429Y-954790470D01*
X747595238Y-953885709D02*
X747119048Y-953885709D01*
X747119048Y-953885709D02*
X747071429Y-954361899D01*
X747071429Y-954361899D02*
X747119048Y-954314280D01*
X747119048Y-954314280D02*
X747214286Y-954266661D01*
X747214286Y-954266661D02*
X747452381Y-954266661D01*
X747452381Y-954266661D02*
X747547619Y-954314280D01*
X747547619Y-954314280D02*
X747595238Y-954361899D01*
X747595238Y-954361899D02*
X747642857Y-954457137D01*
X747642857Y-954457137D02*
X747642857Y-954695232D01*
X747642857Y-954695232D02*
X747595238Y-954790470D01*
X747595238Y-954790470D02*
X747547619Y-954838090D01*
X747547619Y-954838090D02*
X747452381Y-954885709D01*
X747452381Y-954885709D02*
X747214286Y-954885709D01*
X747214286Y-954885709D02*
X747119048Y-954838090D01*
X747119048Y-954838090D02*
X747071429Y-954790470D01*
%TO.C,J50*%
X745690476Y-1379687381D02*
X745690476Y-1380401666D01*
X745690476Y-1380401666D02*
X745642857Y-1380544523D01*
X745642857Y-1380544523D02*
X745547619Y-1380639762D01*
X745547619Y-1380639762D02*
X745404762Y-1380687381D01*
X745404762Y-1380687381D02*
X745309524Y-1380687381D01*
X746642857Y-1379687381D02*
X746166667Y-1379687381D01*
X746166667Y-1379687381D02*
X746119048Y-1380163571D01*
X746119048Y-1380163571D02*
X746166667Y-1380115952D01*
X746166667Y-1380115952D02*
X746261905Y-1380068333D01*
X746261905Y-1380068333D02*
X746500000Y-1380068333D01*
X746500000Y-1380068333D02*
X746595238Y-1380115952D01*
X746595238Y-1380115952D02*
X746642857Y-1380163571D01*
X746642857Y-1380163571D02*
X746690476Y-1380258809D01*
X746690476Y-1380258809D02*
X746690476Y-1380496904D01*
X746690476Y-1380496904D02*
X746642857Y-1380592142D01*
X746642857Y-1380592142D02*
X746595238Y-1380639762D01*
X746595238Y-1380639762D02*
X746500000Y-1380687381D01*
X746500000Y-1380687381D02*
X746261905Y-1380687381D01*
X746261905Y-1380687381D02*
X746166667Y-1380639762D01*
X746166667Y-1380639762D02*
X746119048Y-1380592142D01*
X747309524Y-1379687381D02*
X747404762Y-1379687381D01*
X747404762Y-1379687381D02*
X747500000Y-1379735000D01*
X747500000Y-1379735000D02*
X747547619Y-1379782619D01*
X747547619Y-1379782619D02*
X747595238Y-1379877857D01*
X747595238Y-1379877857D02*
X747642857Y-1380068333D01*
X747642857Y-1380068333D02*
X747642857Y-1380306428D01*
X747642857Y-1380306428D02*
X747595238Y-1380496904D01*
X747595238Y-1380496904D02*
X747547619Y-1380592142D01*
X747547619Y-1380592142D02*
X747500000Y-1380639762D01*
X747500000Y-1380639762D02*
X747404762Y-1380687381D01*
X747404762Y-1380687381D02*
X747309524Y-1380687381D01*
X747309524Y-1380687381D02*
X747214286Y-1380639762D01*
X747214286Y-1380639762D02*
X747166667Y-1380592142D01*
X747166667Y-1380592142D02*
X747119048Y-1380496904D01*
X747119048Y-1380496904D02*
X747071429Y-1380306428D01*
X747071429Y-1380306428D02*
X747071429Y-1380068333D01*
X747071429Y-1380068333D02*
X747119048Y-1379877857D01*
X747119048Y-1379877857D02*
X747166667Y-1379782619D01*
X747166667Y-1379782619D02*
X747214286Y-1379735000D01*
X747214286Y-1379735000D02*
X747309524Y-1379687381D01*
%TO.C,J44*%
X745690476Y-1264652619D02*
X745690476Y-1265366904D01*
X745690476Y-1265366904D02*
X745642857Y-1265509761D01*
X745642857Y-1265509761D02*
X745547619Y-1265605000D01*
X745547619Y-1265605000D02*
X745404762Y-1265652619D01*
X745404762Y-1265652619D02*
X745309524Y-1265652619D01*
X746595238Y-1264985952D02*
X746595238Y-1265652619D01*
X746357143Y-1264605000D02*
X746119048Y-1265319285D01*
X746119048Y-1265319285D02*
X746738095Y-1265319285D01*
X747547619Y-1264985952D02*
X747547619Y-1265652619D01*
X747309524Y-1264605000D02*
X747071429Y-1265319285D01*
X747071429Y-1265319285D02*
X747690476Y-1265319285D01*
%TO.C,J31*%
X745690476Y-858439818D02*
X745690476Y-859154103D01*
X745690476Y-859154103D02*
X745642857Y-859296960D01*
X745642857Y-859296960D02*
X745547619Y-859392199D01*
X745547619Y-859392199D02*
X745404762Y-859439818D01*
X745404762Y-859439818D02*
X745309524Y-859439818D01*
X746071429Y-858439818D02*
X746690476Y-858439818D01*
X746690476Y-858439818D02*
X746357143Y-858820770D01*
X746357143Y-858820770D02*
X746500000Y-858820770D01*
X746500000Y-858820770D02*
X746595238Y-858868389D01*
X746595238Y-858868389D02*
X746642857Y-858916008D01*
X746642857Y-858916008D02*
X746690476Y-859011246D01*
X746690476Y-859011246D02*
X746690476Y-859249341D01*
X746690476Y-859249341D02*
X746642857Y-859344579D01*
X746642857Y-859344579D02*
X746595238Y-859392199D01*
X746595238Y-859392199D02*
X746500000Y-859439818D01*
X746500000Y-859439818D02*
X746214286Y-859439818D01*
X746214286Y-859439818D02*
X746119048Y-859392199D01*
X746119048Y-859392199D02*
X746071429Y-859344579D01*
X747642857Y-859439818D02*
X747071429Y-859439818D01*
X747357143Y-859439818D02*
X747357143Y-858439818D01*
X747357143Y-858439818D02*
X747261905Y-858582675D01*
X747261905Y-858582675D02*
X747166667Y-858677913D01*
X747166667Y-858677913D02*
X747071429Y-858725532D01*
%TO.C,J13*%
X745690476Y-227113872D02*
X745690476Y-227828157D01*
X745690476Y-227828157D02*
X745642857Y-227971014D01*
X745642857Y-227971014D02*
X745547619Y-228066253D01*
X745547619Y-228066253D02*
X745404762Y-228113872D01*
X745404762Y-228113872D02*
X745309524Y-228113872D01*
X746690476Y-228113872D02*
X746119048Y-228113872D01*
X746404762Y-228113872D02*
X746404762Y-227113872D01*
X746404762Y-227113872D02*
X746309524Y-227256729D01*
X746309524Y-227256729D02*
X746214286Y-227351967D01*
X746214286Y-227351967D02*
X746119048Y-227399586D01*
X747023810Y-227113872D02*
X747642857Y-227113872D01*
X747642857Y-227113872D02*
X747309524Y-227494824D01*
X747309524Y-227494824D02*
X747452381Y-227494824D01*
X747452381Y-227494824D02*
X747547619Y-227542443D01*
X747547619Y-227542443D02*
X747595238Y-227590062D01*
X747595238Y-227590062D02*
X747642857Y-227685300D01*
X747642857Y-227685300D02*
X747642857Y-227923395D01*
X747642857Y-227923395D02*
X747595238Y-228018633D01*
X747595238Y-228018633D02*
X747547619Y-228066253D01*
X747547619Y-228066253D02*
X747452381Y-228113872D01*
X747452381Y-228113872D02*
X747166667Y-228113872D01*
X747166667Y-228113872D02*
X747071429Y-228066253D01*
X747071429Y-228066253D02*
X747023810Y-228018633D01*
%TO.C,J6*%
X746166666Y-96725046D02*
X746166666Y-97439331D01*
X746166666Y-97439331D02*
X746119047Y-97582188D01*
X746119047Y-97582188D02*
X746023809Y-97677427D01*
X746023809Y-97677427D02*
X745880952Y-97725046D01*
X745880952Y-97725046D02*
X745785714Y-97725046D01*
X747071428Y-96725046D02*
X746880952Y-96725046D01*
X746880952Y-96725046D02*
X746785714Y-96772665D01*
X746785714Y-96772665D02*
X746738095Y-96820284D01*
X746738095Y-96820284D02*
X746642857Y-96963141D01*
X746642857Y-96963141D02*
X746595238Y-97153617D01*
X746595238Y-97153617D02*
X746595238Y-97534569D01*
X746595238Y-97534569D02*
X746642857Y-97629807D01*
X746642857Y-97629807D02*
X746690476Y-97677427D01*
X746690476Y-97677427D02*
X746785714Y-97725046D01*
X746785714Y-97725046D02*
X746976190Y-97725046D01*
X746976190Y-97725046D02*
X747071428Y-97677427D01*
X747071428Y-97677427D02*
X747119047Y-97629807D01*
X747119047Y-97629807D02*
X747166666Y-97534569D01*
X747166666Y-97534569D02*
X747166666Y-97296474D01*
X747166666Y-97296474D02*
X747119047Y-97201236D01*
X747119047Y-97201236D02*
X747071428Y-97153617D01*
X747071428Y-97153617D02*
X746976190Y-97105998D01*
X746976190Y-97105998D02*
X746785714Y-97105998D01*
X746785714Y-97105998D02*
X746690476Y-97153617D01*
X746690476Y-97153617D02*
X746642857Y-97201236D01*
X746642857Y-97201236D02*
X746595238Y-97296474D01*
%TO.C,J40*%
X745690476Y-1081092854D02*
X745690476Y-1081807139D01*
X745690476Y-1081807139D02*
X745642857Y-1081949996D01*
X745642857Y-1081949996D02*
X745547619Y-1082045235D01*
X745547619Y-1082045235D02*
X745404762Y-1082092854D01*
X745404762Y-1082092854D02*
X745309524Y-1082092854D01*
X746595238Y-1081426187D02*
X746595238Y-1082092854D01*
X746357143Y-1081045235D02*
X746119048Y-1081759520D01*
X746119048Y-1081759520D02*
X746738095Y-1081759520D01*
X747309524Y-1081092854D02*
X747404762Y-1081092854D01*
X747404762Y-1081092854D02*
X747500000Y-1081140473D01*
X747500000Y-1081140473D02*
X747547619Y-1081188092D01*
X747547619Y-1081188092D02*
X747595238Y-1081283330D01*
X747595238Y-1081283330D02*
X747642857Y-1081473806D01*
X747642857Y-1081473806D02*
X747642857Y-1081711901D01*
X747642857Y-1081711901D02*
X747595238Y-1081902377D01*
X747595238Y-1081902377D02*
X747547619Y-1081997615D01*
X747547619Y-1081997615D02*
X747500000Y-1082045235D01*
X747500000Y-1082045235D02*
X747404762Y-1082092854D01*
X747404762Y-1082092854D02*
X747309524Y-1082092854D01*
X747309524Y-1082092854D02*
X747214286Y-1082045235D01*
X747214286Y-1082045235D02*
X747166667Y-1081997615D01*
X747166667Y-1081997615D02*
X747119048Y-1081902377D01*
X747119048Y-1081902377D02*
X747071429Y-1081711901D01*
X747071429Y-1081711901D02*
X747071429Y-1081473806D01*
X747071429Y-1081473806D02*
X747119048Y-1081283330D01*
X747119048Y-1081283330D02*
X747166667Y-1081188092D01*
X747166667Y-1081188092D02*
X747214286Y-1081140473D01*
X747214286Y-1081140473D02*
X747309524Y-1081092854D01*
%TO.C,J55*%
X745690476Y-1447218303D02*
X745690476Y-1447932588D01*
X745690476Y-1447932588D02*
X745642857Y-1448075445D01*
X745642857Y-1448075445D02*
X745547619Y-1448170684D01*
X745547619Y-1448170684D02*
X745404762Y-1448218303D01*
X745404762Y-1448218303D02*
X745309524Y-1448218303D01*
X746642857Y-1447218303D02*
X746166667Y-1447218303D01*
X746166667Y-1447218303D02*
X746119048Y-1447694493D01*
X746119048Y-1447694493D02*
X746166667Y-1447646874D01*
X746166667Y-1447646874D02*
X746261905Y-1447599255D01*
X746261905Y-1447599255D02*
X746500000Y-1447599255D01*
X746500000Y-1447599255D02*
X746595238Y-1447646874D01*
X746595238Y-1447646874D02*
X746642857Y-1447694493D01*
X746642857Y-1447694493D02*
X746690476Y-1447789731D01*
X746690476Y-1447789731D02*
X746690476Y-1448027826D01*
X746690476Y-1448027826D02*
X746642857Y-1448123064D01*
X746642857Y-1448123064D02*
X746595238Y-1448170684D01*
X746595238Y-1448170684D02*
X746500000Y-1448218303D01*
X746500000Y-1448218303D02*
X746261905Y-1448218303D01*
X746261905Y-1448218303D02*
X746166667Y-1448170684D01*
X746166667Y-1448170684D02*
X746119048Y-1448123064D01*
X747595238Y-1447218303D02*
X747119048Y-1447218303D01*
X747119048Y-1447218303D02*
X747071429Y-1447694493D01*
X747071429Y-1447694493D02*
X747119048Y-1447646874D01*
X747119048Y-1447646874D02*
X747214286Y-1447599255D01*
X747214286Y-1447599255D02*
X747452381Y-1447599255D01*
X747452381Y-1447599255D02*
X747547619Y-1447646874D01*
X747547619Y-1447646874D02*
X747595238Y-1447694493D01*
X747595238Y-1447694493D02*
X747642857Y-1447789731D01*
X747642857Y-1447789731D02*
X747642857Y-1448027826D01*
X747642857Y-1448027826D02*
X747595238Y-1448123064D01*
X747595238Y-1448123064D02*
X747547619Y-1448170684D01*
X747547619Y-1448170684D02*
X747452381Y-1448218303D01*
X747452381Y-1448218303D02*
X747214286Y-1448218303D01*
X747214286Y-1448218303D02*
X747119048Y-1448170684D01*
X747119048Y-1448170684D02*
X747071429Y-1448123064D01*
%TO.C,J48*%
X745690476Y-1349414899D02*
X745690476Y-1350129184D01*
X745690476Y-1350129184D02*
X745642857Y-1350272041D01*
X745642857Y-1350272041D02*
X745547619Y-1350367280D01*
X745547619Y-1350367280D02*
X745404762Y-1350414899D01*
X745404762Y-1350414899D02*
X745309524Y-1350414899D01*
X746595238Y-1349748232D02*
X746595238Y-1350414899D01*
X746357143Y-1349367280D02*
X746119048Y-1350081565D01*
X746119048Y-1350081565D02*
X746738095Y-1350081565D01*
X747261905Y-1349843470D02*
X747166667Y-1349795851D01*
X747166667Y-1349795851D02*
X747119048Y-1349748232D01*
X747119048Y-1349748232D02*
X747071429Y-1349652994D01*
X747071429Y-1349652994D02*
X747071429Y-1349605375D01*
X747071429Y-1349605375D02*
X747119048Y-1349510137D01*
X747119048Y-1349510137D02*
X747166667Y-1349462518D01*
X747166667Y-1349462518D02*
X747261905Y-1349414899D01*
X747261905Y-1349414899D02*
X747452381Y-1349414899D01*
X747452381Y-1349414899D02*
X747547619Y-1349462518D01*
X747547619Y-1349462518D02*
X747595238Y-1349510137D01*
X747595238Y-1349510137D02*
X747642857Y-1349605375D01*
X747642857Y-1349605375D02*
X747642857Y-1349652994D01*
X747642857Y-1349652994D02*
X747595238Y-1349748232D01*
X747595238Y-1349748232D02*
X747547619Y-1349795851D01*
X747547619Y-1349795851D02*
X747452381Y-1349843470D01*
X747452381Y-1349843470D02*
X747261905Y-1349843470D01*
X747261905Y-1349843470D02*
X747166667Y-1349891089D01*
X747166667Y-1349891089D02*
X747119048Y-1349938708D01*
X747119048Y-1349938708D02*
X747071429Y-1350033946D01*
X747071429Y-1350033946D02*
X747071429Y-1350224422D01*
X747071429Y-1350224422D02*
X747119048Y-1350319660D01*
X747119048Y-1350319660D02*
X747166667Y-1350367280D01*
X747166667Y-1350367280D02*
X747261905Y-1350414899D01*
X747261905Y-1350414899D02*
X747452381Y-1350414899D01*
X747452381Y-1350414899D02*
X747547619Y-1350367280D01*
X747547619Y-1350367280D02*
X747595238Y-1350319660D01*
X747595238Y-1350319660D02*
X747642857Y-1350224422D01*
X747642857Y-1350224422D02*
X747642857Y-1350033946D01*
X747642857Y-1350033946D02*
X747595238Y-1349938708D01*
X747595238Y-1349938708D02*
X747547619Y-1349891089D01*
X747547619Y-1349891089D02*
X747452381Y-1349843470D01*
%TO.C,J51*%
X745690476Y-1393659296D02*
X745690476Y-1394373581D01*
X745690476Y-1394373581D02*
X745642857Y-1394516438D01*
X745642857Y-1394516438D02*
X745547619Y-1394611677D01*
X745547619Y-1394611677D02*
X745404762Y-1394659296D01*
X745404762Y-1394659296D02*
X745309524Y-1394659296D01*
X746642857Y-1393659296D02*
X746166667Y-1393659296D01*
X746166667Y-1393659296D02*
X746119048Y-1394135486D01*
X746119048Y-1394135486D02*
X746166667Y-1394087867D01*
X746166667Y-1394087867D02*
X746261905Y-1394040248D01*
X746261905Y-1394040248D02*
X746500000Y-1394040248D01*
X746500000Y-1394040248D02*
X746595238Y-1394087867D01*
X746595238Y-1394087867D02*
X746642857Y-1394135486D01*
X746642857Y-1394135486D02*
X746690476Y-1394230724D01*
X746690476Y-1394230724D02*
X746690476Y-1394468819D01*
X746690476Y-1394468819D02*
X746642857Y-1394564057D01*
X746642857Y-1394564057D02*
X746595238Y-1394611677D01*
X746595238Y-1394611677D02*
X746500000Y-1394659296D01*
X746500000Y-1394659296D02*
X746261905Y-1394659296D01*
X746261905Y-1394659296D02*
X746166667Y-1394611677D01*
X746166667Y-1394611677D02*
X746119048Y-1394564057D01*
X747642857Y-1394659296D02*
X747071429Y-1394659296D01*
X747357143Y-1394659296D02*
X747357143Y-1393659296D01*
X747357143Y-1393659296D02*
X747261905Y-1393802153D01*
X747261905Y-1393802153D02*
X747166667Y-1393897391D01*
X747166667Y-1393897391D02*
X747071429Y-1393945010D01*
%TO.C,J39*%
X745690476Y-1049064415D02*
X745690476Y-1049778700D01*
X745690476Y-1049778700D02*
X745642857Y-1049921557D01*
X745642857Y-1049921557D02*
X745547619Y-1050016796D01*
X745547619Y-1050016796D02*
X745404762Y-1050064415D01*
X745404762Y-1050064415D02*
X745309524Y-1050064415D01*
X746071429Y-1049064415D02*
X746690476Y-1049064415D01*
X746690476Y-1049064415D02*
X746357143Y-1049445367D01*
X746357143Y-1049445367D02*
X746500000Y-1049445367D01*
X746500000Y-1049445367D02*
X746595238Y-1049492986D01*
X746595238Y-1049492986D02*
X746642857Y-1049540605D01*
X746642857Y-1049540605D02*
X746690476Y-1049635843D01*
X746690476Y-1049635843D02*
X746690476Y-1049873938D01*
X746690476Y-1049873938D02*
X746642857Y-1049969176D01*
X746642857Y-1049969176D02*
X746595238Y-1050016796D01*
X746595238Y-1050016796D02*
X746500000Y-1050064415D01*
X746500000Y-1050064415D02*
X746214286Y-1050064415D01*
X746214286Y-1050064415D02*
X746119048Y-1050016796D01*
X746119048Y-1050016796D02*
X746071429Y-1049969176D01*
X747166667Y-1050064415D02*
X747357143Y-1050064415D01*
X747357143Y-1050064415D02*
X747452381Y-1050016796D01*
X747452381Y-1050016796D02*
X747500000Y-1049969176D01*
X747500000Y-1049969176D02*
X747595238Y-1049826319D01*
X747595238Y-1049826319D02*
X747642857Y-1049635843D01*
X747642857Y-1049635843D02*
X747642857Y-1049254891D01*
X747642857Y-1049254891D02*
X747595238Y-1049159653D01*
X747595238Y-1049159653D02*
X747547619Y-1049112034D01*
X747547619Y-1049112034D02*
X747452381Y-1049064415D01*
X747452381Y-1049064415D02*
X747261905Y-1049064415D01*
X747261905Y-1049064415D02*
X747166667Y-1049112034D01*
X747166667Y-1049112034D02*
X747119048Y-1049159653D01*
X747119048Y-1049159653D02*
X747071429Y-1049254891D01*
X747071429Y-1049254891D02*
X747071429Y-1049492986D01*
X747071429Y-1049492986D02*
X747119048Y-1049588224D01*
X747119048Y-1049588224D02*
X747166667Y-1049635843D01*
X747166667Y-1049635843D02*
X747261905Y-1049683462D01*
X747261905Y-1049683462D02*
X747452381Y-1049683462D01*
X747452381Y-1049683462D02*
X747547619Y-1049635843D01*
X747547619Y-1049635843D02*
X747595238Y-1049588224D01*
X747595238Y-1049588224D02*
X747642857Y-1049492986D01*
%TO.C,J5*%
X746166666Y-83167619D02*
X746166666Y-83881904D01*
X746166666Y-83881904D02*
X746119047Y-84024761D01*
X746119047Y-84024761D02*
X746023809Y-84120000D01*
X746023809Y-84120000D02*
X745880952Y-84167619D01*
X745880952Y-84167619D02*
X745785714Y-84167619D01*
X747119047Y-83167619D02*
X746642857Y-83167619D01*
X746642857Y-83167619D02*
X746595238Y-83643809D01*
X746595238Y-83643809D02*
X746642857Y-83596190D01*
X746642857Y-83596190D02*
X746738095Y-83548571D01*
X746738095Y-83548571D02*
X746976190Y-83548571D01*
X746976190Y-83548571D02*
X747071428Y-83596190D01*
X747071428Y-83596190D02*
X747119047Y-83643809D01*
X747119047Y-83643809D02*
X747166666Y-83739047D01*
X747166666Y-83739047D02*
X747166666Y-83977142D01*
X747166666Y-83977142D02*
X747119047Y-84072380D01*
X747119047Y-84072380D02*
X747071428Y-84120000D01*
X747071428Y-84120000D02*
X746976190Y-84167619D01*
X746976190Y-84167619D02*
X746738095Y-84167619D01*
X746738095Y-84167619D02*
X746642857Y-84120000D01*
X746642857Y-84120000D02*
X746595238Y-84072380D01*
%TO.C,J25*%
X745690476Y-606759034D02*
X745690476Y-607473319D01*
X745690476Y-607473319D02*
X745642857Y-607616176D01*
X745642857Y-607616176D02*
X745547619Y-607711415D01*
X745547619Y-607711415D02*
X745404762Y-607759034D01*
X745404762Y-607759034D02*
X745309524Y-607759034D01*
X746119048Y-606854272D02*
X746166667Y-606806653D01*
X746166667Y-606806653D02*
X746261905Y-606759034D01*
X746261905Y-606759034D02*
X746500000Y-606759034D01*
X746500000Y-606759034D02*
X746595238Y-606806653D01*
X746595238Y-606806653D02*
X746642857Y-606854272D01*
X746642857Y-606854272D02*
X746690476Y-606949510D01*
X746690476Y-606949510D02*
X746690476Y-607044748D01*
X746690476Y-607044748D02*
X746642857Y-607187605D01*
X746642857Y-607187605D02*
X746071429Y-607759034D01*
X746071429Y-607759034D02*
X746690476Y-607759034D01*
X747595238Y-606759034D02*
X747119048Y-606759034D01*
X747119048Y-606759034D02*
X747071429Y-607235224D01*
X747071429Y-607235224D02*
X747119048Y-607187605D01*
X747119048Y-607187605D02*
X747214286Y-607139986D01*
X747214286Y-607139986D02*
X747452381Y-607139986D01*
X747452381Y-607139986D02*
X747547619Y-607187605D01*
X747547619Y-607187605D02*
X747595238Y-607235224D01*
X747595238Y-607235224D02*
X747642857Y-607330462D01*
X747642857Y-607330462D02*
X747642857Y-607568557D01*
X747642857Y-607568557D02*
X747595238Y-607663795D01*
X747595238Y-607663795D02*
X747547619Y-607711415D01*
X747547619Y-607711415D02*
X747452381Y-607759034D01*
X747452381Y-607759034D02*
X747214286Y-607759034D01*
X747214286Y-607759034D02*
X747119048Y-607711415D01*
X747119048Y-607711415D02*
X747071429Y-607663795D01*
%TO.C,J27*%
X745690476Y-666019405D02*
X745690476Y-666733690D01*
X745690476Y-666733690D02*
X745642857Y-666876547D01*
X745642857Y-666876547D02*
X745547619Y-666971786D01*
X745547619Y-666971786D02*
X745404762Y-667019405D01*
X745404762Y-667019405D02*
X745309524Y-667019405D01*
X746119048Y-666114643D02*
X746166667Y-666067024D01*
X746166667Y-666067024D02*
X746261905Y-666019405D01*
X746261905Y-666019405D02*
X746500000Y-666019405D01*
X746500000Y-666019405D02*
X746595238Y-666067024D01*
X746595238Y-666067024D02*
X746642857Y-666114643D01*
X746642857Y-666114643D02*
X746690476Y-666209881D01*
X746690476Y-666209881D02*
X746690476Y-666305119D01*
X746690476Y-666305119D02*
X746642857Y-666447976D01*
X746642857Y-666447976D02*
X746071429Y-667019405D01*
X746071429Y-667019405D02*
X746690476Y-667019405D01*
X747023810Y-666019405D02*
X747690476Y-666019405D01*
X747690476Y-666019405D02*
X747261905Y-667019405D01*
%TO.C,J2*%
X746166666Y-44218216D02*
X746166666Y-44932501D01*
X746166666Y-44932501D02*
X746119047Y-45075358D01*
X746119047Y-45075358D02*
X746023809Y-45170597D01*
X746023809Y-45170597D02*
X745880952Y-45218216D01*
X745880952Y-45218216D02*
X745785714Y-45218216D01*
X746595238Y-44313454D02*
X746642857Y-44265835D01*
X746642857Y-44265835D02*
X746738095Y-44218216D01*
X746738095Y-44218216D02*
X746976190Y-44218216D01*
X746976190Y-44218216D02*
X747071428Y-44265835D01*
X747071428Y-44265835D02*
X747119047Y-44313454D01*
X747119047Y-44313454D02*
X747166666Y-44408692D01*
X747166666Y-44408692D02*
X747166666Y-44503930D01*
X747166666Y-44503930D02*
X747119047Y-44646787D01*
X747119047Y-44646787D02*
X746547619Y-45218216D01*
X746547619Y-45218216D02*
X747166666Y-45218216D01*
%TO.C,J17*%
X745690476Y-410740085D02*
X745690476Y-411454370D01*
X745690476Y-411454370D02*
X745642857Y-411597227D01*
X745642857Y-411597227D02*
X745547619Y-411692466D01*
X745547619Y-411692466D02*
X745404762Y-411740085D01*
X745404762Y-411740085D02*
X745309524Y-411740085D01*
X746690476Y-411740085D02*
X746119048Y-411740085D01*
X746404762Y-411740085D02*
X746404762Y-410740085D01*
X746404762Y-410740085D02*
X746309524Y-410882942D01*
X746309524Y-410882942D02*
X746214286Y-410978180D01*
X746214286Y-410978180D02*
X746119048Y-411025799D01*
X747023810Y-410740085D02*
X747690476Y-410740085D01*
X747690476Y-410740085D02*
X747261905Y-411740085D01*
%TO.C,J16*%
X745690476Y-364502619D02*
X745690476Y-365216904D01*
X745690476Y-365216904D02*
X745642857Y-365359761D01*
X745642857Y-365359761D02*
X745547619Y-365455000D01*
X745547619Y-365455000D02*
X745404762Y-365502619D01*
X745404762Y-365502619D02*
X745309524Y-365502619D01*
X746690476Y-365502619D02*
X746119048Y-365502619D01*
X746404762Y-365502619D02*
X746404762Y-364502619D01*
X746404762Y-364502619D02*
X746309524Y-364645476D01*
X746309524Y-364645476D02*
X746214286Y-364740714D01*
X746214286Y-364740714D02*
X746119048Y-364788333D01*
X747547619Y-364502619D02*
X747357143Y-364502619D01*
X747357143Y-364502619D02*
X747261905Y-364550238D01*
X747261905Y-364550238D02*
X747214286Y-364597857D01*
X747214286Y-364597857D02*
X747119048Y-364740714D01*
X747119048Y-364740714D02*
X747071429Y-364931190D01*
X747071429Y-364931190D02*
X747071429Y-365312142D01*
X747071429Y-365312142D02*
X747119048Y-365407380D01*
X747119048Y-365407380D02*
X747166667Y-365455000D01*
X747166667Y-365455000D02*
X747261905Y-365502619D01*
X747261905Y-365502619D02*
X747452381Y-365502619D01*
X747452381Y-365502619D02*
X747547619Y-365455000D01*
X747547619Y-365455000D02*
X747595238Y-365407380D01*
X747595238Y-365407380D02*
X747642857Y-365312142D01*
X747642857Y-365312142D02*
X747642857Y-365074047D01*
X747642857Y-365074047D02*
X747595238Y-364978809D01*
X747595238Y-364978809D02*
X747547619Y-364931190D01*
X747547619Y-364931190D02*
X747452381Y-364883571D01*
X747452381Y-364883571D02*
X747261905Y-364883571D01*
X747261905Y-364883571D02*
X747166667Y-364931190D01*
X747166667Y-364931190D02*
X747119048Y-364978809D01*
X747119048Y-364978809D02*
X747071429Y-365074047D01*
%TO.C,J30*%
X745690476Y-825876003D02*
X745690476Y-826590288D01*
X745690476Y-826590288D02*
X745642857Y-826733145D01*
X745642857Y-826733145D02*
X745547619Y-826828384D01*
X745547619Y-826828384D02*
X745404762Y-826876003D01*
X745404762Y-826876003D02*
X745309524Y-826876003D01*
X746071429Y-825876003D02*
X746690476Y-825876003D01*
X746690476Y-825876003D02*
X746357143Y-826256955D01*
X746357143Y-826256955D02*
X746500000Y-826256955D01*
X746500000Y-826256955D02*
X746595238Y-826304574D01*
X746595238Y-826304574D02*
X746642857Y-826352193D01*
X746642857Y-826352193D02*
X746690476Y-826447431D01*
X746690476Y-826447431D02*
X746690476Y-826685526D01*
X746690476Y-826685526D02*
X746642857Y-826780764D01*
X746642857Y-826780764D02*
X746595238Y-826828384D01*
X746595238Y-826828384D02*
X746500000Y-826876003D01*
X746500000Y-826876003D02*
X746214286Y-826876003D01*
X746214286Y-826876003D02*
X746119048Y-826828384D01*
X746119048Y-826828384D02*
X746071429Y-826780764D01*
X747309524Y-825876003D02*
X747404762Y-825876003D01*
X747404762Y-825876003D02*
X747500000Y-825923622D01*
X747500000Y-825923622D02*
X747547619Y-825971241D01*
X747547619Y-825971241D02*
X747595238Y-826066479D01*
X747595238Y-826066479D02*
X747642857Y-826256955D01*
X747642857Y-826256955D02*
X747642857Y-826495050D01*
X747642857Y-826495050D02*
X747595238Y-826685526D01*
X747595238Y-826685526D02*
X747547619Y-826780764D01*
X747547619Y-826780764D02*
X747500000Y-826828384D01*
X747500000Y-826828384D02*
X747404762Y-826876003D01*
X747404762Y-826876003D02*
X747309524Y-826876003D01*
X747309524Y-826876003D02*
X747214286Y-826828384D01*
X747214286Y-826828384D02*
X747166667Y-826780764D01*
X747166667Y-826780764D02*
X747119048Y-826685526D01*
X747119048Y-826685526D02*
X747071429Y-826495050D01*
X747071429Y-826495050D02*
X747071429Y-826256955D01*
X747071429Y-826256955D02*
X747119048Y-826066479D01*
X747119048Y-826066479D02*
X747166667Y-825971241D01*
X747166667Y-825971241D02*
X747214286Y-825923622D01*
X747214286Y-825923622D02*
X747309524Y-825876003D01*
%TO.C,J24*%
X745690476Y-582828172D02*
X745690476Y-583542457D01*
X745690476Y-583542457D02*
X745642857Y-583685314D01*
X745642857Y-583685314D02*
X745547619Y-583780553D01*
X745547619Y-583780553D02*
X745404762Y-583828172D01*
X745404762Y-583828172D02*
X745309524Y-583828172D01*
X746119048Y-582923410D02*
X746166667Y-582875791D01*
X746166667Y-582875791D02*
X746261905Y-582828172D01*
X746261905Y-582828172D02*
X746500000Y-582828172D01*
X746500000Y-582828172D02*
X746595238Y-582875791D01*
X746595238Y-582875791D02*
X746642857Y-582923410D01*
X746642857Y-582923410D02*
X746690476Y-583018648D01*
X746690476Y-583018648D02*
X746690476Y-583113886D01*
X746690476Y-583113886D02*
X746642857Y-583256743D01*
X746642857Y-583256743D02*
X746071429Y-583828172D01*
X746071429Y-583828172D02*
X746690476Y-583828172D01*
X747547619Y-583161505D02*
X747547619Y-583828172D01*
X747309524Y-582780553D02*
X747071429Y-583494838D01*
X747071429Y-583494838D02*
X747690476Y-583494838D01*
%TO.C,J8*%
X746166666Y-125882619D02*
X746166666Y-126596904D01*
X746166666Y-126596904D02*
X746119047Y-126739761D01*
X746119047Y-126739761D02*
X746023809Y-126835000D01*
X746023809Y-126835000D02*
X745880952Y-126882619D01*
X745880952Y-126882619D02*
X745785714Y-126882619D01*
X746785714Y-126311190D02*
X746690476Y-126263571D01*
X746690476Y-126263571D02*
X746642857Y-126215952D01*
X746642857Y-126215952D02*
X746595238Y-126120714D01*
X746595238Y-126120714D02*
X746595238Y-126073095D01*
X746595238Y-126073095D02*
X746642857Y-125977857D01*
X746642857Y-125977857D02*
X746690476Y-125930238D01*
X746690476Y-125930238D02*
X746785714Y-125882619D01*
X746785714Y-125882619D02*
X746976190Y-125882619D01*
X746976190Y-125882619D02*
X747071428Y-125930238D01*
X747071428Y-125930238D02*
X747119047Y-125977857D01*
X747119047Y-125977857D02*
X747166666Y-126073095D01*
X747166666Y-126073095D02*
X747166666Y-126120714D01*
X747166666Y-126120714D02*
X747119047Y-126215952D01*
X747119047Y-126215952D02*
X747071428Y-126263571D01*
X747071428Y-126263571D02*
X746976190Y-126311190D01*
X746976190Y-126311190D02*
X746785714Y-126311190D01*
X746785714Y-126311190D02*
X746690476Y-126358809D01*
X746690476Y-126358809D02*
X746642857Y-126406428D01*
X746642857Y-126406428D02*
X746595238Y-126501666D01*
X746595238Y-126501666D02*
X746595238Y-126692142D01*
X746595238Y-126692142D02*
X746642857Y-126787380D01*
X746642857Y-126787380D02*
X746690476Y-126835000D01*
X746690476Y-126835000D02*
X746785714Y-126882619D01*
X746785714Y-126882619D02*
X746976190Y-126882619D01*
X746976190Y-126882619D02*
X747071428Y-126835000D01*
X747071428Y-126835000D02*
X747119047Y-126787380D01*
X747119047Y-126787380D02*
X747166666Y-126692142D01*
X747166666Y-126692142D02*
X747166666Y-126501666D01*
X747166666Y-126501666D02*
X747119047Y-126406428D01*
X747119047Y-126406428D02*
X747071428Y-126358809D01*
X747071428Y-126358809D02*
X746976190Y-126311190D01*
%TO.C,J3*%
X746166666Y-56912619D02*
X746166666Y-57626904D01*
X746166666Y-57626904D02*
X746119047Y-57769761D01*
X746119047Y-57769761D02*
X746023809Y-57865000D01*
X746023809Y-57865000D02*
X745880952Y-57912619D01*
X745880952Y-57912619D02*
X745785714Y-57912619D01*
X746547619Y-56912619D02*
X747166666Y-56912619D01*
X747166666Y-56912619D02*
X746833333Y-57293571D01*
X746833333Y-57293571D02*
X746976190Y-57293571D01*
X746976190Y-57293571D02*
X747071428Y-57341190D01*
X747071428Y-57341190D02*
X747119047Y-57388809D01*
X747119047Y-57388809D02*
X747166666Y-57484047D01*
X747166666Y-57484047D02*
X747166666Y-57722142D01*
X747166666Y-57722142D02*
X747119047Y-57817380D01*
X747119047Y-57817380D02*
X747071428Y-57865000D01*
X747071428Y-57865000D02*
X746976190Y-57912619D01*
X746976190Y-57912619D02*
X746690476Y-57912619D01*
X746690476Y-57912619D02*
X746595238Y-57865000D01*
X746595238Y-57865000D02*
X746547619Y-57817380D01*
%TO.C,J47*%
X745690476Y-1332176403D02*
X745690476Y-1332890688D01*
X745690476Y-1332890688D02*
X745642857Y-1333033545D01*
X745642857Y-1333033545D02*
X745547619Y-1333128784D01*
X745547619Y-1333128784D02*
X745404762Y-1333176403D01*
X745404762Y-1333176403D02*
X745309524Y-1333176403D01*
X746595238Y-1332509736D02*
X746595238Y-1333176403D01*
X746357143Y-1332128784D02*
X746119048Y-1332843069D01*
X746119048Y-1332843069D02*
X746738095Y-1332843069D01*
X747023810Y-1332176403D02*
X747690476Y-1332176403D01*
X747690476Y-1332176403D02*
X747261905Y-1333176403D01*
%TO.C,J23*%
X745690476Y-560098892D02*
X745690476Y-560813177D01*
X745690476Y-560813177D02*
X745642857Y-560956034D01*
X745642857Y-560956034D02*
X745547619Y-561051273D01*
X745547619Y-561051273D02*
X745404762Y-561098892D01*
X745404762Y-561098892D02*
X745309524Y-561098892D01*
X746119048Y-560194130D02*
X746166667Y-560146511D01*
X746166667Y-560146511D02*
X746261905Y-560098892D01*
X746261905Y-560098892D02*
X746500000Y-560098892D01*
X746500000Y-560098892D02*
X746595238Y-560146511D01*
X746595238Y-560146511D02*
X746642857Y-560194130D01*
X746642857Y-560194130D02*
X746690476Y-560289368D01*
X746690476Y-560289368D02*
X746690476Y-560384606D01*
X746690476Y-560384606D02*
X746642857Y-560527463D01*
X746642857Y-560527463D02*
X746071429Y-561098892D01*
X746071429Y-561098892D02*
X746690476Y-561098892D01*
X747023810Y-560098892D02*
X747642857Y-560098892D01*
X747642857Y-560098892D02*
X747309524Y-560479844D01*
X747309524Y-560479844D02*
X747452381Y-560479844D01*
X747452381Y-560479844D02*
X747547619Y-560527463D01*
X747547619Y-560527463D02*
X747595238Y-560575082D01*
X747595238Y-560575082D02*
X747642857Y-560670320D01*
X747642857Y-560670320D02*
X747642857Y-560908415D01*
X747642857Y-560908415D02*
X747595238Y-561003653D01*
X747595238Y-561003653D02*
X747547619Y-561051273D01*
X747547619Y-561051273D02*
X747452381Y-561098892D01*
X747452381Y-561098892D02*
X747166667Y-561098892D01*
X747166667Y-561098892D02*
X747071429Y-561051273D01*
X747071429Y-561051273D02*
X747023810Y-561003653D01*
%TO.C,J28*%
X745690476Y-716941508D02*
X745690476Y-717655793D01*
X745690476Y-717655793D02*
X745642857Y-717798650D01*
X745642857Y-717798650D02*
X745547619Y-717893889D01*
X745547619Y-717893889D02*
X745404762Y-717941508D01*
X745404762Y-717941508D02*
X745309524Y-717941508D01*
X746119048Y-717036746D02*
X746166667Y-716989127D01*
X746166667Y-716989127D02*
X746261905Y-716941508D01*
X746261905Y-716941508D02*
X746500000Y-716941508D01*
X746500000Y-716941508D02*
X746595238Y-716989127D01*
X746595238Y-716989127D02*
X746642857Y-717036746D01*
X746642857Y-717036746D02*
X746690476Y-717131984D01*
X746690476Y-717131984D02*
X746690476Y-717227222D01*
X746690476Y-717227222D02*
X746642857Y-717370079D01*
X746642857Y-717370079D02*
X746071429Y-717941508D01*
X746071429Y-717941508D02*
X746690476Y-717941508D01*
X747261905Y-717370079D02*
X747166667Y-717322460D01*
X747166667Y-717322460D02*
X747119048Y-717274841D01*
X747119048Y-717274841D02*
X747071429Y-717179603D01*
X747071429Y-717179603D02*
X747071429Y-717131984D01*
X747071429Y-717131984D02*
X747119048Y-717036746D01*
X747119048Y-717036746D02*
X747166667Y-716989127D01*
X747166667Y-716989127D02*
X747261905Y-716941508D01*
X747261905Y-716941508D02*
X747452381Y-716941508D01*
X747452381Y-716941508D02*
X747547619Y-716989127D01*
X747547619Y-716989127D02*
X747595238Y-717036746D01*
X747595238Y-717036746D02*
X747642857Y-717131984D01*
X747642857Y-717131984D02*
X747642857Y-717179603D01*
X747642857Y-717179603D02*
X747595238Y-717274841D01*
X747595238Y-717274841D02*
X747547619Y-717322460D01*
X747547619Y-717322460D02*
X747452381Y-717370079D01*
X747452381Y-717370079D02*
X747261905Y-717370079D01*
X747261905Y-717370079D02*
X747166667Y-717417698D01*
X747166667Y-717417698D02*
X747119048Y-717465317D01*
X747119048Y-717465317D02*
X747071429Y-717560555D01*
X747071429Y-717560555D02*
X747071429Y-717751031D01*
X747071429Y-717751031D02*
X747119048Y-717846269D01*
X747119048Y-717846269D02*
X747166667Y-717893889D01*
X747166667Y-717893889D02*
X747261905Y-717941508D01*
X747261905Y-717941508D02*
X747452381Y-717941508D01*
X747452381Y-717941508D02*
X747547619Y-717893889D01*
X747547619Y-717893889D02*
X747595238Y-717846269D01*
X747595238Y-717846269D02*
X747642857Y-717751031D01*
X747642857Y-717751031D02*
X747642857Y-717560555D01*
X747642857Y-717560555D02*
X747595238Y-717465317D01*
X747595238Y-717465317D02*
X747547619Y-717417698D01*
X747547619Y-717417698D02*
X747452381Y-717370079D01*
%TO.C,J22*%
X745690476Y-538062346D02*
X745690476Y-538776631D01*
X745690476Y-538776631D02*
X745642857Y-538919488D01*
X745642857Y-538919488D02*
X745547619Y-539014727D01*
X745547619Y-539014727D02*
X745404762Y-539062346D01*
X745404762Y-539062346D02*
X745309524Y-539062346D01*
X746119048Y-538157584D02*
X746166667Y-538109965D01*
X746166667Y-538109965D02*
X746261905Y-538062346D01*
X746261905Y-538062346D02*
X746500000Y-538062346D01*
X746500000Y-538062346D02*
X746595238Y-538109965D01*
X746595238Y-538109965D02*
X746642857Y-538157584D01*
X746642857Y-538157584D02*
X746690476Y-538252822D01*
X746690476Y-538252822D02*
X746690476Y-538348060D01*
X746690476Y-538348060D02*
X746642857Y-538490917D01*
X746642857Y-538490917D02*
X746071429Y-539062346D01*
X746071429Y-539062346D02*
X746690476Y-539062346D01*
X747071429Y-538157584D02*
X747119048Y-538109965D01*
X747119048Y-538109965D02*
X747214286Y-538062346D01*
X747214286Y-538062346D02*
X747452381Y-538062346D01*
X747452381Y-538062346D02*
X747547619Y-538109965D01*
X747547619Y-538109965D02*
X747595238Y-538157584D01*
X747595238Y-538157584D02*
X747642857Y-538252822D01*
X747642857Y-538252822D02*
X747642857Y-538348060D01*
X747642857Y-538348060D02*
X747595238Y-538490917D01*
X747595238Y-538490917D02*
X747023810Y-539062346D01*
X747023810Y-539062346D02*
X747642857Y-539062346D01*
%TO.C,J32*%
X745690476Y-884848321D02*
X745690476Y-885562606D01*
X745690476Y-885562606D02*
X745642857Y-885705463D01*
X745642857Y-885705463D02*
X745547619Y-885800702D01*
X745547619Y-885800702D02*
X745404762Y-885848321D01*
X745404762Y-885848321D02*
X745309524Y-885848321D01*
X746071429Y-884848321D02*
X746690476Y-884848321D01*
X746690476Y-884848321D02*
X746357143Y-885229273D01*
X746357143Y-885229273D02*
X746500000Y-885229273D01*
X746500000Y-885229273D02*
X746595238Y-885276892D01*
X746595238Y-885276892D02*
X746642857Y-885324511D01*
X746642857Y-885324511D02*
X746690476Y-885419749D01*
X746690476Y-885419749D02*
X746690476Y-885657844D01*
X746690476Y-885657844D02*
X746642857Y-885753082D01*
X746642857Y-885753082D02*
X746595238Y-885800702D01*
X746595238Y-885800702D02*
X746500000Y-885848321D01*
X746500000Y-885848321D02*
X746214286Y-885848321D01*
X746214286Y-885848321D02*
X746119048Y-885800702D01*
X746119048Y-885800702D02*
X746071429Y-885753082D01*
X747071429Y-884943559D02*
X747119048Y-884895940D01*
X747119048Y-884895940D02*
X747214286Y-884848321D01*
X747214286Y-884848321D02*
X747452381Y-884848321D01*
X747452381Y-884848321D02*
X747547619Y-884895940D01*
X747547619Y-884895940D02*
X747595238Y-884943559D01*
X747595238Y-884943559D02*
X747642857Y-885038797D01*
X747642857Y-885038797D02*
X747642857Y-885134035D01*
X747642857Y-885134035D02*
X747595238Y-885276892D01*
X747595238Y-885276892D02*
X747023810Y-885848321D01*
X747023810Y-885848321D02*
X747642857Y-885848321D01*
%TO.C,J38*%
X745690476Y-1023113074D02*
X745690476Y-1023827359D01*
X745690476Y-1023827359D02*
X745642857Y-1023970216D01*
X745642857Y-1023970216D02*
X745547619Y-1024065455D01*
X745547619Y-1024065455D02*
X745404762Y-1024113074D01*
X745404762Y-1024113074D02*
X745309524Y-1024113074D01*
X746071429Y-1023113074D02*
X746690476Y-1023113074D01*
X746690476Y-1023113074D02*
X746357143Y-1023494026D01*
X746357143Y-1023494026D02*
X746500000Y-1023494026D01*
X746500000Y-1023494026D02*
X746595238Y-1023541645D01*
X746595238Y-1023541645D02*
X746642857Y-1023589264D01*
X746642857Y-1023589264D02*
X746690476Y-1023684502D01*
X746690476Y-1023684502D02*
X746690476Y-1023922597D01*
X746690476Y-1023922597D02*
X746642857Y-1024017835D01*
X746642857Y-1024017835D02*
X746595238Y-1024065455D01*
X746595238Y-1024065455D02*
X746500000Y-1024113074D01*
X746500000Y-1024113074D02*
X746214286Y-1024113074D01*
X746214286Y-1024113074D02*
X746119048Y-1024065455D01*
X746119048Y-1024065455D02*
X746071429Y-1024017835D01*
X747261905Y-1023541645D02*
X747166667Y-1023494026D01*
X747166667Y-1023494026D02*
X747119048Y-1023446407D01*
X747119048Y-1023446407D02*
X747071429Y-1023351169D01*
X747071429Y-1023351169D02*
X747071429Y-1023303550D01*
X747071429Y-1023303550D02*
X747119048Y-1023208312D01*
X747119048Y-1023208312D02*
X747166667Y-1023160693D01*
X747166667Y-1023160693D02*
X747261905Y-1023113074D01*
X747261905Y-1023113074D02*
X747452381Y-1023113074D01*
X747452381Y-1023113074D02*
X747547619Y-1023160693D01*
X747547619Y-1023160693D02*
X747595238Y-1023208312D01*
X747595238Y-1023208312D02*
X747642857Y-1023303550D01*
X747642857Y-1023303550D02*
X747642857Y-1023351169D01*
X747642857Y-1023351169D02*
X747595238Y-1023446407D01*
X747595238Y-1023446407D02*
X747547619Y-1023494026D01*
X747547619Y-1023494026D02*
X747452381Y-1023541645D01*
X747452381Y-1023541645D02*
X747261905Y-1023541645D01*
X747261905Y-1023541645D02*
X747166667Y-1023589264D01*
X747166667Y-1023589264D02*
X747119048Y-1023636883D01*
X747119048Y-1023636883D02*
X747071429Y-1023732121D01*
X747071429Y-1023732121D02*
X747071429Y-1023922597D01*
X747071429Y-1023922597D02*
X747119048Y-1024017835D01*
X747119048Y-1024017835D02*
X747166667Y-1024065455D01*
X747166667Y-1024065455D02*
X747261905Y-1024113074D01*
X747261905Y-1024113074D02*
X747452381Y-1024113074D01*
X747452381Y-1024113074D02*
X747547619Y-1024065455D01*
X747547619Y-1024065455D02*
X747595238Y-1024017835D01*
X747595238Y-1024017835D02*
X747642857Y-1023922597D01*
X747642857Y-1023922597D02*
X747642857Y-1023732121D01*
X747642857Y-1023732121D02*
X747595238Y-1023636883D01*
X747595238Y-1023636883D02*
X747547619Y-1023589264D01*
X747547619Y-1023589264D02*
X747452381Y-1023541645D01*
%TO.C,J36*%
X745690476Y-975507453D02*
X745690476Y-976221738D01*
X745690476Y-976221738D02*
X745642857Y-976364595D01*
X745642857Y-976364595D02*
X745547619Y-976459834D01*
X745547619Y-976459834D02*
X745404762Y-976507453D01*
X745404762Y-976507453D02*
X745309524Y-976507453D01*
X746071429Y-975507453D02*
X746690476Y-975507453D01*
X746690476Y-975507453D02*
X746357143Y-975888405D01*
X746357143Y-975888405D02*
X746500000Y-975888405D01*
X746500000Y-975888405D02*
X746595238Y-975936024D01*
X746595238Y-975936024D02*
X746642857Y-975983643D01*
X746642857Y-975983643D02*
X746690476Y-976078881D01*
X746690476Y-976078881D02*
X746690476Y-976316976D01*
X746690476Y-976316976D02*
X746642857Y-976412214D01*
X746642857Y-976412214D02*
X746595238Y-976459834D01*
X746595238Y-976459834D02*
X746500000Y-976507453D01*
X746500000Y-976507453D02*
X746214286Y-976507453D01*
X746214286Y-976507453D02*
X746119048Y-976459834D01*
X746119048Y-976459834D02*
X746071429Y-976412214D01*
X747547619Y-975507453D02*
X747357143Y-975507453D01*
X747357143Y-975507453D02*
X747261905Y-975555072D01*
X747261905Y-975555072D02*
X747214286Y-975602691D01*
X747214286Y-975602691D02*
X747119048Y-975745548D01*
X747119048Y-975745548D02*
X747071429Y-975936024D01*
X747071429Y-975936024D02*
X747071429Y-976316976D01*
X747071429Y-976316976D02*
X747119048Y-976412214D01*
X747119048Y-976412214D02*
X747166667Y-976459834D01*
X747166667Y-976459834D02*
X747261905Y-976507453D01*
X747261905Y-976507453D02*
X747452381Y-976507453D01*
X747452381Y-976507453D02*
X747547619Y-976459834D01*
X747547619Y-976459834D02*
X747595238Y-976412214D01*
X747595238Y-976412214D02*
X747642857Y-976316976D01*
X747642857Y-976316976D02*
X747642857Y-976078881D01*
X747642857Y-976078881D02*
X747595238Y-975983643D01*
X747595238Y-975983643D02*
X747547619Y-975936024D01*
X747547619Y-975936024D02*
X747452381Y-975888405D01*
X747452381Y-975888405D02*
X747261905Y-975888405D01*
X747261905Y-975888405D02*
X747166667Y-975936024D01*
X747166667Y-975936024D02*
X747119048Y-975983643D01*
X747119048Y-975983643D02*
X747071429Y-976078881D01*
%TO.C,J29*%
X745690476Y-774621514D02*
X745690476Y-775335799D01*
X745690476Y-775335799D02*
X745642857Y-775478656D01*
X745642857Y-775478656D02*
X745547619Y-775573895D01*
X745547619Y-775573895D02*
X745404762Y-775621514D01*
X745404762Y-775621514D02*
X745309524Y-775621514D01*
X746119048Y-774716752D02*
X746166667Y-774669133D01*
X746166667Y-774669133D02*
X746261905Y-774621514D01*
X746261905Y-774621514D02*
X746500000Y-774621514D01*
X746500000Y-774621514D02*
X746595238Y-774669133D01*
X746595238Y-774669133D02*
X746642857Y-774716752D01*
X746642857Y-774716752D02*
X746690476Y-774811990D01*
X746690476Y-774811990D02*
X746690476Y-774907228D01*
X746690476Y-774907228D02*
X746642857Y-775050085D01*
X746642857Y-775050085D02*
X746071429Y-775621514D01*
X746071429Y-775621514D02*
X746690476Y-775621514D01*
X747166667Y-775621514D02*
X747357143Y-775621514D01*
X747357143Y-775621514D02*
X747452381Y-775573895D01*
X747452381Y-775573895D02*
X747500000Y-775526275D01*
X747500000Y-775526275D02*
X747595238Y-775383418D01*
X747595238Y-775383418D02*
X747642857Y-775192942D01*
X747642857Y-775192942D02*
X747642857Y-774811990D01*
X747642857Y-774811990D02*
X747595238Y-774716752D01*
X747595238Y-774716752D02*
X747547619Y-774669133D01*
X747547619Y-774669133D02*
X747452381Y-774621514D01*
X747452381Y-774621514D02*
X747261905Y-774621514D01*
X747261905Y-774621514D02*
X747166667Y-774669133D01*
X747166667Y-774669133D02*
X747119048Y-774716752D01*
X747119048Y-774716752D02*
X747071429Y-774811990D01*
X747071429Y-774811990D02*
X747071429Y-775050085D01*
X747071429Y-775050085D02*
X747119048Y-775145323D01*
X747119048Y-775145323D02*
X747166667Y-775192942D01*
X747166667Y-775192942D02*
X747261905Y-775240561D01*
X747261905Y-775240561D02*
X747452381Y-775240561D01*
X747452381Y-775240561D02*
X747547619Y-775192942D01*
X747547619Y-775192942D02*
X747595238Y-775145323D01*
X747595238Y-775145323D02*
X747642857Y-775050085D01*
%TO.C,J12*%
X745690476Y-199193984D02*
X745690476Y-199908269D01*
X745690476Y-199908269D02*
X745642857Y-200051126D01*
X745642857Y-200051126D02*
X745547619Y-200146365D01*
X745547619Y-200146365D02*
X745404762Y-200193984D01*
X745404762Y-200193984D02*
X745309524Y-200193984D01*
X746690476Y-200193984D02*
X746119048Y-200193984D01*
X746404762Y-200193984D02*
X746404762Y-199193984D01*
X746404762Y-199193984D02*
X746309524Y-199336841D01*
X746309524Y-199336841D02*
X746214286Y-199432079D01*
X746214286Y-199432079D02*
X746119048Y-199479698D01*
X747071429Y-199289222D02*
X747119048Y-199241603D01*
X747119048Y-199241603D02*
X747214286Y-199193984D01*
X747214286Y-199193984D02*
X747452381Y-199193984D01*
X747452381Y-199193984D02*
X747547619Y-199241603D01*
X747547619Y-199241603D02*
X747595238Y-199289222D01*
X747595238Y-199289222D02*
X747642857Y-199384460D01*
X747642857Y-199384460D02*
X747642857Y-199479698D01*
X747642857Y-199479698D02*
X747595238Y-199622555D01*
X747595238Y-199622555D02*
X747023810Y-200193984D01*
X747023810Y-200193984D02*
X747642857Y-200193984D01*
%TO.C,J46*%
X745690476Y-1312804656D02*
X745690476Y-1313518941D01*
X745690476Y-1313518941D02*
X745642857Y-1313661798D01*
X745642857Y-1313661798D02*
X745547619Y-1313757037D01*
X745547619Y-1313757037D02*
X745404762Y-1313804656D01*
X745404762Y-1313804656D02*
X745309524Y-1313804656D01*
X746595238Y-1313137989D02*
X746595238Y-1313804656D01*
X746357143Y-1312757037D02*
X746119048Y-1313471322D01*
X746119048Y-1313471322D02*
X746738095Y-1313471322D01*
X747547619Y-1312804656D02*
X747357143Y-1312804656D01*
X747357143Y-1312804656D02*
X747261905Y-1312852275D01*
X747261905Y-1312852275D02*
X747214286Y-1312899894D01*
X747214286Y-1312899894D02*
X747119048Y-1313042751D01*
X747119048Y-1313042751D02*
X747071429Y-1313233227D01*
X747071429Y-1313233227D02*
X747071429Y-1313614179D01*
X747071429Y-1313614179D02*
X747119048Y-1313709417D01*
X747119048Y-1313709417D02*
X747166667Y-1313757037D01*
X747166667Y-1313757037D02*
X747261905Y-1313804656D01*
X747261905Y-1313804656D02*
X747452381Y-1313804656D01*
X747452381Y-1313804656D02*
X747547619Y-1313757037D01*
X747547619Y-1313757037D02*
X747595238Y-1313709417D01*
X747595238Y-1313709417D02*
X747642857Y-1313614179D01*
X747642857Y-1313614179D02*
X747642857Y-1313376084D01*
X747642857Y-1313376084D02*
X747595238Y-1313280846D01*
X747595238Y-1313280846D02*
X747547619Y-1313233227D01*
X747547619Y-1313233227D02*
X747452381Y-1313185608D01*
X747452381Y-1313185608D02*
X747261905Y-1313185608D01*
X747261905Y-1313185608D02*
X747166667Y-1313233227D01*
X747166667Y-1313233227D02*
X747119048Y-1313280846D01*
X747119048Y-1313280846D02*
X747071429Y-1313376084D01*
%TO.C,J43*%
X745690476Y-1224196849D02*
X745690476Y-1224911134D01*
X745690476Y-1224911134D02*
X745642857Y-1225053991D01*
X745642857Y-1225053991D02*
X745547619Y-1225149230D01*
X745547619Y-1225149230D02*
X745404762Y-1225196849D01*
X745404762Y-1225196849D02*
X745309524Y-1225196849D01*
X746595238Y-1224530182D02*
X746595238Y-1225196849D01*
X746357143Y-1224149230D02*
X746119048Y-1224863515D01*
X746119048Y-1224863515D02*
X746738095Y-1224863515D01*
X747023810Y-1224196849D02*
X747642857Y-1224196849D01*
X747642857Y-1224196849D02*
X747309524Y-1224577801D01*
X747309524Y-1224577801D02*
X747452381Y-1224577801D01*
X747452381Y-1224577801D02*
X747547619Y-1224625420D01*
X747547619Y-1224625420D02*
X747595238Y-1224673039D01*
X747595238Y-1224673039D02*
X747642857Y-1224768277D01*
X747642857Y-1224768277D02*
X747642857Y-1225006372D01*
X747642857Y-1225006372D02*
X747595238Y-1225101610D01*
X747595238Y-1225101610D02*
X747547619Y-1225149230D01*
X747547619Y-1225149230D02*
X747452381Y-1225196849D01*
X747452381Y-1225196849D02*
X747166667Y-1225196849D01*
X747166667Y-1225196849D02*
X747071429Y-1225149230D01*
X747071429Y-1225149230D02*
X747023810Y-1225101610D01*
%TO.C,J37*%
X745690476Y-998762373D02*
X745690476Y-999476658D01*
X745690476Y-999476658D02*
X745642857Y-999619515D01*
X745642857Y-999619515D02*
X745547619Y-999714754D01*
X745547619Y-999714754D02*
X745404762Y-999762373D01*
X745404762Y-999762373D02*
X745309524Y-999762373D01*
X746071429Y-998762373D02*
X746690476Y-998762373D01*
X746690476Y-998762373D02*
X746357143Y-999143325D01*
X746357143Y-999143325D02*
X746500000Y-999143325D01*
X746500000Y-999143325D02*
X746595238Y-999190944D01*
X746595238Y-999190944D02*
X746642857Y-999238563D01*
X746642857Y-999238563D02*
X746690476Y-999333801D01*
X746690476Y-999333801D02*
X746690476Y-999571896D01*
X746690476Y-999571896D02*
X746642857Y-999667134D01*
X746642857Y-999667134D02*
X746595238Y-999714754D01*
X746595238Y-999714754D02*
X746500000Y-999762373D01*
X746500000Y-999762373D02*
X746214286Y-999762373D01*
X746214286Y-999762373D02*
X746119048Y-999714754D01*
X746119048Y-999714754D02*
X746071429Y-999667134D01*
X747023810Y-998762373D02*
X747690476Y-998762373D01*
X747690476Y-998762373D02*
X747261905Y-999762373D01*
%TO.C,J9*%
X746166666Y-142172564D02*
X746166666Y-142886849D01*
X746166666Y-142886849D02*
X746119047Y-143029706D01*
X746119047Y-143029706D02*
X746023809Y-143124945D01*
X746023809Y-143124945D02*
X745880952Y-143172564D01*
X745880952Y-143172564D02*
X745785714Y-143172564D01*
X746690476Y-143172564D02*
X746880952Y-143172564D01*
X746880952Y-143172564D02*
X746976190Y-143124945D01*
X746976190Y-143124945D02*
X747023809Y-143077325D01*
X747023809Y-143077325D02*
X747119047Y-142934468D01*
X747119047Y-142934468D02*
X747166666Y-142743992D01*
X747166666Y-142743992D02*
X747166666Y-142363040D01*
X747166666Y-142363040D02*
X747119047Y-142267802D01*
X747119047Y-142267802D02*
X747071428Y-142220183D01*
X747071428Y-142220183D02*
X746976190Y-142172564D01*
X746976190Y-142172564D02*
X746785714Y-142172564D01*
X746785714Y-142172564D02*
X746690476Y-142220183D01*
X746690476Y-142220183D02*
X746642857Y-142267802D01*
X746642857Y-142267802D02*
X746595238Y-142363040D01*
X746595238Y-142363040D02*
X746595238Y-142601135D01*
X746595238Y-142601135D02*
X746642857Y-142696373D01*
X746642857Y-142696373D02*
X746690476Y-142743992D01*
X746690476Y-142743992D02*
X746785714Y-142791611D01*
X746785714Y-142791611D02*
X746976190Y-142791611D01*
X746976190Y-142791611D02*
X747071428Y-142743992D01*
X747071428Y-142743992D02*
X747119047Y-142696373D01*
X747119047Y-142696373D02*
X747166666Y-142601135D01*
%TO.C,J52*%
X745690476Y-1408213374D02*
X745690476Y-1408927659D01*
X745690476Y-1408927659D02*
X745642857Y-1409070516D01*
X745642857Y-1409070516D02*
X745547619Y-1409165755D01*
X745547619Y-1409165755D02*
X745404762Y-1409213374D01*
X745404762Y-1409213374D02*
X745309524Y-1409213374D01*
X746642857Y-1408213374D02*
X746166667Y-1408213374D01*
X746166667Y-1408213374D02*
X746119048Y-1408689564D01*
X746119048Y-1408689564D02*
X746166667Y-1408641945D01*
X746166667Y-1408641945D02*
X746261905Y-1408594326D01*
X746261905Y-1408594326D02*
X746500000Y-1408594326D01*
X746500000Y-1408594326D02*
X746595238Y-1408641945D01*
X746595238Y-1408641945D02*
X746642857Y-1408689564D01*
X746642857Y-1408689564D02*
X746690476Y-1408784802D01*
X746690476Y-1408784802D02*
X746690476Y-1409022897D01*
X746690476Y-1409022897D02*
X746642857Y-1409118135D01*
X746642857Y-1409118135D02*
X746595238Y-1409165755D01*
X746595238Y-1409165755D02*
X746500000Y-1409213374D01*
X746500000Y-1409213374D02*
X746261905Y-1409213374D01*
X746261905Y-1409213374D02*
X746166667Y-1409165755D01*
X746166667Y-1409165755D02*
X746119048Y-1409118135D01*
X747071429Y-1408308612D02*
X747119048Y-1408260993D01*
X747119048Y-1408260993D02*
X747214286Y-1408213374D01*
X747214286Y-1408213374D02*
X747452381Y-1408213374D01*
X747452381Y-1408213374D02*
X747547619Y-1408260993D01*
X747547619Y-1408260993D02*
X747595238Y-1408308612D01*
X747595238Y-1408308612D02*
X747642857Y-1408403850D01*
X747642857Y-1408403850D02*
X747642857Y-1408499088D01*
X747642857Y-1408499088D02*
X747595238Y-1408641945D01*
X747595238Y-1408641945D02*
X747023810Y-1409213374D01*
X747023810Y-1409213374D02*
X747642857Y-1409213374D01*
%TO.C,J4*%
X746166666Y-69972619D02*
X746166666Y-70686904D01*
X746166666Y-70686904D02*
X746119047Y-70829761D01*
X746119047Y-70829761D02*
X746023809Y-70925000D01*
X746023809Y-70925000D02*
X745880952Y-70972619D01*
X745880952Y-70972619D02*
X745785714Y-70972619D01*
X747071428Y-70305952D02*
X747071428Y-70972619D01*
X746833333Y-69925000D02*
X746595238Y-70639285D01*
X746595238Y-70639285D02*
X747214285Y-70639285D01*
%TO.C,J26*%
X745690476Y-633712742D02*
X745690476Y-634427027D01*
X745690476Y-634427027D02*
X745642857Y-634569884D01*
X745642857Y-634569884D02*
X745547619Y-634665123D01*
X745547619Y-634665123D02*
X745404762Y-634712742D01*
X745404762Y-634712742D02*
X745309524Y-634712742D01*
X746119048Y-633807980D02*
X746166667Y-633760361D01*
X746166667Y-633760361D02*
X746261905Y-633712742D01*
X746261905Y-633712742D02*
X746500000Y-633712742D01*
X746500000Y-633712742D02*
X746595238Y-633760361D01*
X746595238Y-633760361D02*
X746642857Y-633807980D01*
X746642857Y-633807980D02*
X746690476Y-633903218D01*
X746690476Y-633903218D02*
X746690476Y-633998456D01*
X746690476Y-633998456D02*
X746642857Y-634141313D01*
X746642857Y-634141313D02*
X746071429Y-634712742D01*
X746071429Y-634712742D02*
X746690476Y-634712742D01*
X747547619Y-633712742D02*
X747357143Y-633712742D01*
X747357143Y-633712742D02*
X747261905Y-633760361D01*
X747261905Y-633760361D02*
X747214286Y-633807980D01*
X747214286Y-633807980D02*
X747119048Y-633950837D01*
X747119048Y-633950837D02*
X747071429Y-634141313D01*
X747071429Y-634141313D02*
X747071429Y-634522265D01*
X747071429Y-634522265D02*
X747119048Y-634617503D01*
X747119048Y-634617503D02*
X747166667Y-634665123D01*
X747166667Y-634665123D02*
X747261905Y-634712742D01*
X747261905Y-634712742D02*
X747452381Y-634712742D01*
X747452381Y-634712742D02*
X747547619Y-634665123D01*
X747547619Y-634665123D02*
X747595238Y-634617503D01*
X747595238Y-634617503D02*
X747642857Y-634522265D01*
X747642857Y-634522265D02*
X747642857Y-634284170D01*
X747642857Y-634284170D02*
X747595238Y-634188932D01*
X747595238Y-634188932D02*
X747547619Y-634141313D01*
X747547619Y-634141313D02*
X747452381Y-634093694D01*
X747452381Y-634093694D02*
X747261905Y-634093694D01*
X747261905Y-634093694D02*
X747166667Y-634141313D01*
X747166667Y-634141313D02*
X747119048Y-634188932D01*
X747119048Y-634188932D02*
X747071429Y-634284170D01*
%TO.C,J14*%
X745690476Y-266644939D02*
X745690476Y-267359224D01*
X745690476Y-267359224D02*
X745642857Y-267502081D01*
X745642857Y-267502081D02*
X745547619Y-267597320D01*
X745547619Y-267597320D02*
X745404762Y-267644939D01*
X745404762Y-267644939D02*
X745309524Y-267644939D01*
X746690476Y-267644939D02*
X746119048Y-267644939D01*
X746404762Y-267644939D02*
X746404762Y-266644939D01*
X746404762Y-266644939D02*
X746309524Y-266787796D01*
X746309524Y-266787796D02*
X746214286Y-266883034D01*
X746214286Y-266883034D02*
X746119048Y-266930653D01*
X747547619Y-266978272D02*
X747547619Y-267644939D01*
X747309524Y-266597320D02*
X747071429Y-267311605D01*
X747071429Y-267311605D02*
X747690476Y-267311605D01*
%TO.C,J19*%
X745690476Y-468824065D02*
X745690476Y-469538350D01*
X745690476Y-469538350D02*
X745642857Y-469681207D01*
X745642857Y-469681207D02*
X745547619Y-469776446D01*
X745547619Y-469776446D02*
X745404762Y-469824065D01*
X745404762Y-469824065D02*
X745309524Y-469824065D01*
X746690476Y-469824065D02*
X746119048Y-469824065D01*
X746404762Y-469824065D02*
X746404762Y-468824065D01*
X746404762Y-468824065D02*
X746309524Y-468966922D01*
X746309524Y-468966922D02*
X746214286Y-469062160D01*
X746214286Y-469062160D02*
X746119048Y-469109779D01*
X747166667Y-469824065D02*
X747357143Y-469824065D01*
X747357143Y-469824065D02*
X747452381Y-469776446D01*
X747452381Y-469776446D02*
X747500000Y-469728826D01*
X747500000Y-469728826D02*
X747595238Y-469585969D01*
X747595238Y-469585969D02*
X747642857Y-469395493D01*
X747642857Y-469395493D02*
X747642857Y-469014541D01*
X747642857Y-469014541D02*
X747595238Y-468919303D01*
X747595238Y-468919303D02*
X747547619Y-468871684D01*
X747547619Y-468871684D02*
X747452381Y-468824065D01*
X747452381Y-468824065D02*
X747261905Y-468824065D01*
X747261905Y-468824065D02*
X747166667Y-468871684D01*
X747166667Y-468871684D02*
X747119048Y-468919303D01*
X747119048Y-468919303D02*
X747071429Y-469014541D01*
X747071429Y-469014541D02*
X747071429Y-469252636D01*
X747071429Y-469252636D02*
X747119048Y-469347874D01*
X747119048Y-469347874D02*
X747166667Y-469395493D01*
X747166667Y-469395493D02*
X747261905Y-469443112D01*
X747261905Y-469443112D02*
X747452381Y-469443112D01*
X747452381Y-469443112D02*
X747547619Y-469395493D01*
X747547619Y-469395493D02*
X747595238Y-469347874D01*
X747595238Y-469347874D02*
X747642857Y-469252636D01*
%TO.C,J11*%
X745690476Y-178435290D02*
X745690476Y-179149575D01*
X745690476Y-179149575D02*
X745642857Y-179292432D01*
X745642857Y-179292432D02*
X745547619Y-179387671D01*
X745547619Y-179387671D02*
X745404762Y-179435290D01*
X745404762Y-179435290D02*
X745309524Y-179435290D01*
X746690476Y-179435290D02*
X746119048Y-179435290D01*
X746404762Y-179435290D02*
X746404762Y-178435290D01*
X746404762Y-178435290D02*
X746309524Y-178578147D01*
X746309524Y-178578147D02*
X746214286Y-178673385D01*
X746214286Y-178673385D02*
X746119048Y-178721004D01*
X747642857Y-179435290D02*
X747071429Y-179435290D01*
X747357143Y-179435290D02*
X747357143Y-178435290D01*
X747357143Y-178435290D02*
X747261905Y-178578147D01*
X747261905Y-178578147D02*
X747166667Y-178673385D01*
X747166667Y-178673385D02*
X747071429Y-178721004D01*
%TO.C,J41*%
X745690476Y-1126904927D02*
X745690476Y-1127619212D01*
X745690476Y-1127619212D02*
X745642857Y-1127762069D01*
X745642857Y-1127762069D02*
X745547619Y-1127857308D01*
X745547619Y-1127857308D02*
X745404762Y-1127904927D01*
X745404762Y-1127904927D02*
X745309524Y-1127904927D01*
X746595238Y-1127238260D02*
X746595238Y-1127904927D01*
X746357143Y-1126857308D02*
X746119048Y-1127571593D01*
X746119048Y-1127571593D02*
X746738095Y-1127571593D01*
X747642857Y-1127904927D02*
X747071429Y-1127904927D01*
X747357143Y-1127904927D02*
X747357143Y-1126904927D01*
X747357143Y-1126904927D02*
X747261905Y-1127047784D01*
X747261905Y-1127047784D02*
X747166667Y-1127143022D01*
X747166667Y-1127143022D02*
X747071429Y-1127190641D01*
%TO.C,J21*%
X745690476Y-515935116D02*
X745690476Y-516649401D01*
X745690476Y-516649401D02*
X745642857Y-516792258D01*
X745642857Y-516792258D02*
X745547619Y-516887497D01*
X745547619Y-516887497D02*
X745404762Y-516935116D01*
X745404762Y-516935116D02*
X745309524Y-516935116D01*
X746119048Y-516030354D02*
X746166667Y-515982735D01*
X746166667Y-515982735D02*
X746261905Y-515935116D01*
X746261905Y-515935116D02*
X746500000Y-515935116D01*
X746500000Y-515935116D02*
X746595238Y-515982735D01*
X746595238Y-515982735D02*
X746642857Y-516030354D01*
X746642857Y-516030354D02*
X746690476Y-516125592D01*
X746690476Y-516125592D02*
X746690476Y-516220830D01*
X746690476Y-516220830D02*
X746642857Y-516363687D01*
X746642857Y-516363687D02*
X746071429Y-516935116D01*
X746071429Y-516935116D02*
X746690476Y-516935116D01*
X747642857Y-516935116D02*
X747071429Y-516935116D01*
X747357143Y-516935116D02*
X747357143Y-515935116D01*
X747357143Y-515935116D02*
X747261905Y-516077973D01*
X747261905Y-516077973D02*
X747166667Y-516173211D01*
X747166667Y-516173211D02*
X747071429Y-516220830D01*
%TO.C,J1*%
X746166666Y-31452619D02*
X746166666Y-32166904D01*
X746166666Y-32166904D02*
X746119047Y-32309761D01*
X746119047Y-32309761D02*
X746023809Y-32405000D01*
X746023809Y-32405000D02*
X745880952Y-32452619D01*
X745880952Y-32452619D02*
X745785714Y-32452619D01*
X747166666Y-32452619D02*
X746595238Y-32452619D01*
X746880952Y-32452619D02*
X746880952Y-31452619D01*
X746880952Y-31452619D02*
X746785714Y-31595476D01*
X746785714Y-31595476D02*
X746690476Y-31690714D01*
X746690476Y-31690714D02*
X746595238Y-31738333D01*
%TO.C,J18*%
X745690476Y-442933392D02*
X745690476Y-443647677D01*
X745690476Y-443647677D02*
X745642857Y-443790534D01*
X745642857Y-443790534D02*
X745547619Y-443885773D01*
X745547619Y-443885773D02*
X745404762Y-443933392D01*
X745404762Y-443933392D02*
X745309524Y-443933392D01*
X746690476Y-443933392D02*
X746119048Y-443933392D01*
X746404762Y-443933392D02*
X746404762Y-442933392D01*
X746404762Y-442933392D02*
X746309524Y-443076249D01*
X746309524Y-443076249D02*
X746214286Y-443171487D01*
X746214286Y-443171487D02*
X746119048Y-443219106D01*
X747261905Y-443361963D02*
X747166667Y-443314344D01*
X747166667Y-443314344D02*
X747119048Y-443266725D01*
X747119048Y-443266725D02*
X747071429Y-443171487D01*
X747071429Y-443171487D02*
X747071429Y-443123868D01*
X747071429Y-443123868D02*
X747119048Y-443028630D01*
X747119048Y-443028630D02*
X747166667Y-442981011D01*
X747166667Y-442981011D02*
X747261905Y-442933392D01*
X747261905Y-442933392D02*
X747452381Y-442933392D01*
X747452381Y-442933392D02*
X747547619Y-442981011D01*
X747547619Y-442981011D02*
X747595238Y-443028630D01*
X747595238Y-443028630D02*
X747642857Y-443123868D01*
X747642857Y-443123868D02*
X747642857Y-443171487D01*
X747642857Y-443171487D02*
X747595238Y-443266725D01*
X747595238Y-443266725D02*
X747547619Y-443314344D01*
X747547619Y-443314344D02*
X747452381Y-443361963D01*
X747452381Y-443361963D02*
X747261905Y-443361963D01*
X747261905Y-443361963D02*
X747166667Y-443409582D01*
X747166667Y-443409582D02*
X747119048Y-443457201D01*
X747119048Y-443457201D02*
X747071429Y-443552439D01*
X747071429Y-443552439D02*
X747071429Y-443742915D01*
X747071429Y-443742915D02*
X747119048Y-443838153D01*
X747119048Y-443838153D02*
X747166667Y-443885773D01*
X747166667Y-443885773D02*
X747261905Y-443933392D01*
X747261905Y-443933392D02*
X747452381Y-443933392D01*
X747452381Y-443933392D02*
X747547619Y-443885773D01*
X747547619Y-443885773D02*
X747595238Y-443838153D01*
X747595238Y-443838153D02*
X747642857Y-443742915D01*
X747642857Y-443742915D02*
X747642857Y-443552439D01*
X747642857Y-443552439D02*
X747595238Y-443457201D01*
X747595238Y-443457201D02*
X747547619Y-443409582D01*
X747547619Y-443409582D02*
X747452381Y-443361963D01*
%TO.C,J53*%
X745690476Y-1420438799D02*
X745690476Y-1421153084D01*
X745690476Y-1421153084D02*
X745642857Y-1421295941D01*
X745642857Y-1421295941D02*
X745547619Y-1421391180D01*
X745547619Y-1421391180D02*
X745404762Y-1421438799D01*
X745404762Y-1421438799D02*
X745309524Y-1421438799D01*
X746642857Y-1420438799D02*
X746166667Y-1420438799D01*
X746166667Y-1420438799D02*
X746119048Y-1420914989D01*
X746119048Y-1420914989D02*
X746166667Y-1420867370D01*
X746166667Y-1420867370D02*
X746261905Y-1420819751D01*
X746261905Y-1420819751D02*
X746500000Y-1420819751D01*
X746500000Y-1420819751D02*
X746595238Y-1420867370D01*
X746595238Y-1420867370D02*
X746642857Y-1420914989D01*
X746642857Y-1420914989D02*
X746690476Y-1421010227D01*
X746690476Y-1421010227D02*
X746690476Y-1421248322D01*
X746690476Y-1421248322D02*
X746642857Y-1421343560D01*
X746642857Y-1421343560D02*
X746595238Y-1421391180D01*
X746595238Y-1421391180D02*
X746500000Y-1421438799D01*
X746500000Y-1421438799D02*
X746261905Y-1421438799D01*
X746261905Y-1421438799D02*
X746166667Y-1421391180D01*
X746166667Y-1421391180D02*
X746119048Y-1421343560D01*
X747023810Y-1420438799D02*
X747642857Y-1420438799D01*
X747642857Y-1420438799D02*
X747309524Y-1420819751D01*
X747309524Y-1420819751D02*
X747452381Y-1420819751D01*
X747452381Y-1420819751D02*
X747547619Y-1420867370D01*
X747547619Y-1420867370D02*
X747595238Y-1420914989D01*
X747595238Y-1420914989D02*
X747642857Y-1421010227D01*
X747642857Y-1421010227D02*
X747642857Y-1421248322D01*
X747642857Y-1421248322D02*
X747595238Y-1421343560D01*
X747595238Y-1421343560D02*
X747547619Y-1421391180D01*
X747547619Y-1421391180D02*
X747452381Y-1421438799D01*
X747452381Y-1421438799D02*
X747166667Y-1421438799D01*
X747166667Y-1421438799D02*
X747071429Y-1421391180D01*
X747071429Y-1421391180D02*
X747023810Y-1421343560D01*
D12*
%TO.C,J1*%
X39990000Y-45240000D02*
X39990000Y-75240000D01*
X50490000Y-75240000D02*
X50490000Y-45240000D01*
X50490000Y-45240000D02*
G75*
G03*
X39990000Y-45240000I-5250000J0D01*
G01*
X39990000Y-75240000D02*
G75*
G03*
X50490000Y-75240000I5250000J0D01*
G01*
%TD*%
M02*
