%TF.GenerationSoftware,KiCad,Pcbnew,7.0.1-3b83917a11~172~ubuntu22.04.1*%
%TF.CreationDate,2023-12-10T15:59:10-05:00*%
%TF.ProjectId,coil_template_second,636f696c-5f74-4656-9d70-6c6174655f73,rev?*%
%TF.SameCoordinates,Original*%
%TF.FileFunction,Legend,Top*%
%TF.FilePolarity,Positive*%
%FSLAX46Y46*%
G04 Gerber Fmt 4.6, Leading zero omitted, Abs format (unit mm)*
G04 Created by KiCad (PCBNEW 7.0.1-3b83917a11~172~ubuntu22.04.1) date 2023-12-10 15:59:10*
%MOMM*%
%LPD*%
G01*
G04 APERTURE LIST*
%ADD10C,2.000000*%
%ADD11C,0.150000*%
%ADD12C,0.120000*%
G04 APERTURE END LIST*
D10*
X907619047Y-45747619D02*
X903809523Y-45747619D01*
X903809523Y-45747619D02*
X901904761Y-44795238D01*
X901904761Y-44795238D02*
X899999999Y-42890476D01*
X899999999Y-42890476D02*
X899047618Y-39080952D01*
X899047618Y-39080952D02*
X899047618Y-32414285D01*
X899047618Y-32414285D02*
X899999999Y-28604761D01*
X899999999Y-28604761D02*
X901904761Y-26700000D01*
X901904761Y-26700000D02*
X903809523Y-25747619D01*
X903809523Y-25747619D02*
X907619047Y-25747619D01*
X907619047Y-25747619D02*
X909523809Y-26700000D01*
X909523809Y-26700000D02*
X911428571Y-28604761D01*
X911428571Y-28604761D02*
X912380952Y-32414285D01*
X912380952Y-32414285D02*
X912380952Y-39080952D01*
X912380952Y-39080952D02*
X911428571Y-42890476D01*
X911428571Y-42890476D02*
X909523809Y-44795238D01*
X909523809Y-44795238D02*
X907619047Y-45747619D01*
X890476190Y-25747619D02*
X890476190Y-45747619D01*
X890476190Y-45747619D02*
X882857142Y-45747619D01*
X882857142Y-45747619D02*
X880952380Y-44795238D01*
X880952380Y-44795238D02*
X879999999Y-43842857D01*
X879999999Y-43842857D02*
X879047618Y-41938095D01*
X879047618Y-41938095D02*
X879047618Y-39080952D01*
X879047618Y-39080952D02*
X879999999Y-37176190D01*
X879999999Y-37176190D02*
X880952380Y-36223809D01*
X880952380Y-36223809D02*
X882857142Y-35271428D01*
X882857142Y-35271428D02*
X890476190Y-35271428D01*
X870476190Y-25747619D02*
X870476190Y-45747619D01*
X870476190Y-45747619D02*
X863809523Y-31461904D01*
X863809523Y-31461904D02*
X857142856Y-45747619D01*
X857142856Y-45747619D02*
X857142856Y-25747619D01*
X847619047Y-33366666D02*
X832380952Y-33366666D01*
X822857142Y-25747619D02*
X822857142Y-45747619D01*
X822857142Y-45747619D02*
X816190475Y-31461904D01*
X816190475Y-31461904D02*
X809523808Y-45747619D01*
X809523808Y-45747619D02*
X809523808Y-25747619D01*
X799999999Y-36223809D02*
X793333332Y-36223809D01*
X790476189Y-25747619D02*
X799999999Y-25747619D01*
X799999999Y-25747619D02*
X799999999Y-45747619D01*
X799999999Y-45747619D02*
X790476189Y-45747619D01*
X771428570Y-44795238D02*
X773333332Y-45747619D01*
X773333332Y-45747619D02*
X776190475Y-45747619D01*
X776190475Y-45747619D02*
X779047618Y-44795238D01*
X779047618Y-44795238D02*
X780952380Y-42890476D01*
X780952380Y-42890476D02*
X781904761Y-40985714D01*
X781904761Y-40985714D02*
X782857142Y-37176190D01*
X782857142Y-37176190D02*
X782857142Y-34319047D01*
X782857142Y-34319047D02*
X781904761Y-30509523D01*
X781904761Y-30509523D02*
X780952380Y-28604761D01*
X780952380Y-28604761D02*
X779047618Y-26700000D01*
X779047618Y-26700000D02*
X776190475Y-25747619D01*
X776190475Y-25747619D02*
X774285713Y-25747619D01*
X774285713Y-25747619D02*
X771428570Y-26700000D01*
X771428570Y-26700000D02*
X770476189Y-27652380D01*
X770476189Y-27652380D02*
X770476189Y-34319047D01*
X770476189Y-34319047D02*
X774285713Y-34319047D01*
X734285713Y-35271428D02*
X735238094Y-36223809D01*
X735238094Y-36223809D02*
X737142856Y-37176190D01*
X737142856Y-37176190D02*
X739047618Y-37176190D01*
X739047618Y-37176190D02*
X740952380Y-36223809D01*
X740952380Y-36223809D02*
X741904761Y-35271428D01*
X741904761Y-35271428D02*
X742857142Y-33366666D01*
X742857142Y-33366666D02*
X742857142Y-31461904D01*
X742857142Y-31461904D02*
X741904761Y-29557142D01*
X741904761Y-29557142D02*
X740952380Y-28604761D01*
X740952380Y-28604761D02*
X739047618Y-27652380D01*
X739047618Y-27652380D02*
X737142856Y-27652380D01*
X737142856Y-27652380D02*
X735238094Y-28604761D01*
X735238094Y-28604761D02*
X734285713Y-29557142D01*
X734285713Y-37176190D02*
X734285713Y-29557142D01*
X734285713Y-29557142D02*
X733333332Y-28604761D01*
X733333332Y-28604761D02*
X732380951Y-28604761D01*
X732380951Y-28604761D02*
X730476190Y-29557142D01*
X730476190Y-29557142D02*
X729523809Y-31461904D01*
X729523809Y-31461904D02*
X729523809Y-36223809D01*
X729523809Y-36223809D02*
X731428571Y-39080952D01*
X731428571Y-39080952D02*
X734285713Y-40985714D01*
X734285713Y-40985714D02*
X738095237Y-41938095D01*
X738095237Y-41938095D02*
X741904761Y-40985714D01*
X741904761Y-40985714D02*
X744761904Y-39080952D01*
X744761904Y-39080952D02*
X746666666Y-36223809D01*
X746666666Y-36223809D02*
X747619047Y-32414285D01*
X747619047Y-32414285D02*
X746666666Y-28604761D01*
X746666666Y-28604761D02*
X744761904Y-25747619D01*
X744761904Y-25747619D02*
X741904761Y-23842857D01*
X741904761Y-23842857D02*
X738095237Y-22890476D01*
X738095237Y-22890476D02*
X734285713Y-23842857D01*
X734285713Y-23842857D02*
X731428571Y-25747619D01*
X705714285Y-25747619D02*
X705714285Y-45747619D01*
X705714285Y-45747619D02*
X699047618Y-31461904D01*
X699047618Y-31461904D02*
X692380951Y-45747619D01*
X692380951Y-45747619D02*
X692380951Y-25747619D01*
X674285713Y-25747619D02*
X674285713Y-36223809D01*
X674285713Y-36223809D02*
X675238094Y-38128571D01*
X675238094Y-38128571D02*
X677142856Y-39080952D01*
X677142856Y-39080952D02*
X680952380Y-39080952D01*
X680952380Y-39080952D02*
X682857142Y-38128571D01*
X674285713Y-26700000D02*
X676190475Y-25747619D01*
X676190475Y-25747619D02*
X680952380Y-25747619D01*
X680952380Y-25747619D02*
X682857142Y-26700000D01*
X682857142Y-26700000D02*
X683809523Y-28604761D01*
X683809523Y-28604761D02*
X683809523Y-30509523D01*
X683809523Y-30509523D02*
X682857142Y-32414285D01*
X682857142Y-32414285D02*
X680952380Y-33366666D01*
X680952380Y-33366666D02*
X676190475Y-33366666D01*
X676190475Y-33366666D02*
X674285713Y-34319047D01*
X664761904Y-25747619D02*
X664761904Y-39080952D01*
X664761904Y-35271428D02*
X663809523Y-37176190D01*
X663809523Y-37176190D02*
X662857142Y-38128571D01*
X662857142Y-38128571D02*
X660952380Y-39080952D01*
X660952380Y-39080952D02*
X659047618Y-39080952D01*
X655238095Y-39080952D02*
X647619047Y-39080952D01*
X652380952Y-45747619D02*
X652380952Y-28604761D01*
X652380952Y-28604761D02*
X651428571Y-26700000D01*
X651428571Y-26700000D02*
X649523809Y-25747619D01*
X649523809Y-25747619D02*
X647619047Y-25747619D01*
X640952381Y-25747619D02*
X640952381Y-39080952D01*
X640952381Y-45747619D02*
X641904762Y-44795238D01*
X641904762Y-44795238D02*
X640952381Y-43842857D01*
X640952381Y-43842857D02*
X640000000Y-44795238D01*
X640000000Y-44795238D02*
X640952381Y-45747619D01*
X640952381Y-45747619D02*
X640952381Y-43842857D01*
X631428571Y-39080952D02*
X631428571Y-25747619D01*
X631428571Y-37176190D02*
X630476190Y-38128571D01*
X630476190Y-38128571D02*
X628571428Y-39080952D01*
X628571428Y-39080952D02*
X625714285Y-39080952D01*
X625714285Y-39080952D02*
X623809523Y-38128571D01*
X623809523Y-38128571D02*
X622857142Y-36223809D01*
X622857142Y-36223809D02*
X622857142Y-25747619D01*
X610476190Y-25747619D02*
X612380952Y-26700000D01*
X612380952Y-26700000D02*
X613333333Y-27652380D01*
X613333333Y-27652380D02*
X614285714Y-29557142D01*
X614285714Y-29557142D02*
X614285714Y-35271428D01*
X614285714Y-35271428D02*
X613333333Y-37176190D01*
X613333333Y-37176190D02*
X612380952Y-38128571D01*
X612380952Y-38128571D02*
X610476190Y-39080952D01*
X610476190Y-39080952D02*
X607619047Y-39080952D01*
X607619047Y-39080952D02*
X605714285Y-38128571D01*
X605714285Y-38128571D02*
X604761904Y-37176190D01*
X604761904Y-37176190D02*
X603809523Y-35271428D01*
X603809523Y-35271428D02*
X603809523Y-29557142D01*
X603809523Y-29557142D02*
X604761904Y-27652380D01*
X604761904Y-27652380D02*
X605714285Y-26700000D01*
X605714285Y-26700000D02*
X607619047Y-25747619D01*
X607619047Y-25747619D02*
X610476190Y-25747619D01*
X596190476Y-26700000D02*
X594285714Y-25747619D01*
X594285714Y-25747619D02*
X590476190Y-25747619D01*
X590476190Y-25747619D02*
X588571428Y-26700000D01*
X588571428Y-26700000D02*
X587619047Y-28604761D01*
X587619047Y-28604761D02*
X587619047Y-29557142D01*
X587619047Y-29557142D02*
X588571428Y-31461904D01*
X588571428Y-31461904D02*
X590476190Y-32414285D01*
X590476190Y-32414285D02*
X593333333Y-32414285D01*
X593333333Y-32414285D02*
X595238095Y-33366666D01*
X595238095Y-33366666D02*
X596190476Y-35271428D01*
X596190476Y-35271428D02*
X596190476Y-36223809D01*
X596190476Y-36223809D02*
X595238095Y-38128571D01*
X595238095Y-38128571D02*
X593333333Y-39080952D01*
X593333333Y-39080952D02*
X590476190Y-39080952D01*
X590476190Y-39080952D02*
X588571428Y-38128571D01*
X1470747619Y-217380952D02*
X1470747619Y-221190476D01*
X1470747619Y-221190476D02*
X1469795238Y-223095238D01*
X1469795238Y-223095238D02*
X1467890476Y-225000000D01*
X1467890476Y-225000000D02*
X1464080952Y-225952381D01*
X1464080952Y-225952381D02*
X1457414285Y-225952381D01*
X1457414285Y-225952381D02*
X1453604761Y-225000000D01*
X1453604761Y-225000000D02*
X1451700000Y-223095238D01*
X1451700000Y-223095238D02*
X1450747619Y-221190476D01*
X1450747619Y-221190476D02*
X1450747619Y-217380952D01*
X1450747619Y-217380952D02*
X1451700000Y-215476190D01*
X1451700000Y-215476190D02*
X1453604761Y-213571428D01*
X1453604761Y-213571428D02*
X1457414285Y-212619047D01*
X1457414285Y-212619047D02*
X1464080952Y-212619047D01*
X1464080952Y-212619047D02*
X1467890476Y-213571428D01*
X1467890476Y-213571428D02*
X1469795238Y-215476190D01*
X1469795238Y-215476190D02*
X1470747619Y-217380952D01*
X1450747619Y-234523809D02*
X1470747619Y-234523809D01*
X1470747619Y-234523809D02*
X1470747619Y-242142857D01*
X1470747619Y-242142857D02*
X1469795238Y-244047619D01*
X1469795238Y-244047619D02*
X1468842857Y-245000000D01*
X1468842857Y-245000000D02*
X1466938095Y-245952381D01*
X1466938095Y-245952381D02*
X1464080952Y-245952381D01*
X1464080952Y-245952381D02*
X1462176190Y-245000000D01*
X1462176190Y-245000000D02*
X1461223809Y-244047619D01*
X1461223809Y-244047619D02*
X1460271428Y-242142857D01*
X1460271428Y-242142857D02*
X1460271428Y-234523809D01*
X1450747619Y-254523809D02*
X1470747619Y-254523809D01*
X1470747619Y-254523809D02*
X1456461904Y-261190476D01*
X1456461904Y-261190476D02*
X1470747619Y-267857143D01*
X1470747619Y-267857143D02*
X1450747619Y-267857143D01*
X1458366666Y-277380952D02*
X1458366666Y-292619048D01*
X1450747619Y-302142857D02*
X1470747619Y-302142857D01*
X1470747619Y-302142857D02*
X1456461904Y-308809524D01*
X1456461904Y-308809524D02*
X1470747619Y-315476191D01*
X1470747619Y-315476191D02*
X1450747619Y-315476191D01*
X1461223809Y-325000000D02*
X1461223809Y-331666667D01*
X1450747619Y-334523810D02*
X1450747619Y-325000000D01*
X1450747619Y-325000000D02*
X1470747619Y-325000000D01*
X1470747619Y-325000000D02*
X1470747619Y-334523810D01*
X1469795238Y-353571429D02*
X1470747619Y-351666667D01*
X1470747619Y-351666667D02*
X1470747619Y-348809524D01*
X1470747619Y-348809524D02*
X1469795238Y-345952381D01*
X1469795238Y-345952381D02*
X1467890476Y-344047619D01*
X1467890476Y-344047619D02*
X1465985714Y-343095238D01*
X1465985714Y-343095238D02*
X1462176190Y-342142857D01*
X1462176190Y-342142857D02*
X1459319047Y-342142857D01*
X1459319047Y-342142857D02*
X1455509523Y-343095238D01*
X1455509523Y-343095238D02*
X1453604761Y-344047619D01*
X1453604761Y-344047619D02*
X1451700000Y-345952381D01*
X1451700000Y-345952381D02*
X1450747619Y-348809524D01*
X1450747619Y-348809524D02*
X1450747619Y-350714286D01*
X1450747619Y-350714286D02*
X1451700000Y-353571429D01*
X1451700000Y-353571429D02*
X1452652380Y-354523810D01*
X1452652380Y-354523810D02*
X1459319047Y-354523810D01*
X1459319047Y-354523810D02*
X1459319047Y-350714286D01*
X1460271428Y-390714286D02*
X1461223809Y-389761905D01*
X1461223809Y-389761905D02*
X1462176190Y-387857143D01*
X1462176190Y-387857143D02*
X1462176190Y-385952381D01*
X1462176190Y-385952381D02*
X1461223809Y-384047619D01*
X1461223809Y-384047619D02*
X1460271428Y-383095238D01*
X1460271428Y-383095238D02*
X1458366666Y-382142857D01*
X1458366666Y-382142857D02*
X1456461904Y-382142857D01*
X1456461904Y-382142857D02*
X1454557142Y-383095238D01*
X1454557142Y-383095238D02*
X1453604761Y-384047619D01*
X1453604761Y-384047619D02*
X1452652380Y-385952381D01*
X1452652380Y-385952381D02*
X1452652380Y-387857143D01*
X1452652380Y-387857143D02*
X1453604761Y-389761905D01*
X1453604761Y-389761905D02*
X1454557142Y-390714286D01*
X1462176190Y-390714286D02*
X1454557142Y-390714286D01*
X1454557142Y-390714286D02*
X1453604761Y-391666667D01*
X1453604761Y-391666667D02*
X1453604761Y-392619048D01*
X1453604761Y-392619048D02*
X1454557142Y-394523809D01*
X1454557142Y-394523809D02*
X1456461904Y-395476190D01*
X1456461904Y-395476190D02*
X1461223809Y-395476190D01*
X1461223809Y-395476190D02*
X1464080952Y-393571429D01*
X1464080952Y-393571429D02*
X1465985714Y-390714286D01*
X1465985714Y-390714286D02*
X1466938095Y-386904762D01*
X1466938095Y-386904762D02*
X1465985714Y-383095238D01*
X1465985714Y-383095238D02*
X1464080952Y-380238095D01*
X1464080952Y-380238095D02*
X1461223809Y-378333333D01*
X1461223809Y-378333333D02*
X1457414285Y-377380952D01*
X1457414285Y-377380952D02*
X1453604761Y-378333333D01*
X1453604761Y-378333333D02*
X1450747619Y-380238095D01*
X1450747619Y-380238095D02*
X1448842857Y-383095238D01*
X1448842857Y-383095238D02*
X1447890476Y-386904762D01*
X1447890476Y-386904762D02*
X1448842857Y-390714286D01*
X1448842857Y-390714286D02*
X1450747619Y-393571429D01*
X1450747619Y-419285714D02*
X1470747619Y-419285714D01*
X1470747619Y-419285714D02*
X1456461904Y-425952381D01*
X1456461904Y-425952381D02*
X1470747619Y-432619048D01*
X1470747619Y-432619048D02*
X1450747619Y-432619048D01*
X1450747619Y-450714286D02*
X1461223809Y-450714286D01*
X1461223809Y-450714286D02*
X1463128571Y-449761905D01*
X1463128571Y-449761905D02*
X1464080952Y-447857143D01*
X1464080952Y-447857143D02*
X1464080952Y-444047619D01*
X1464080952Y-444047619D02*
X1463128571Y-442142857D01*
X1451700000Y-450714286D02*
X1450747619Y-448809524D01*
X1450747619Y-448809524D02*
X1450747619Y-444047619D01*
X1450747619Y-444047619D02*
X1451700000Y-442142857D01*
X1451700000Y-442142857D02*
X1453604761Y-441190476D01*
X1453604761Y-441190476D02*
X1455509523Y-441190476D01*
X1455509523Y-441190476D02*
X1457414285Y-442142857D01*
X1457414285Y-442142857D02*
X1458366666Y-444047619D01*
X1458366666Y-444047619D02*
X1458366666Y-448809524D01*
X1458366666Y-448809524D02*
X1459319047Y-450714286D01*
X1450747619Y-460238095D02*
X1464080952Y-460238095D01*
X1460271428Y-460238095D02*
X1462176190Y-461190476D01*
X1462176190Y-461190476D02*
X1463128571Y-462142857D01*
X1463128571Y-462142857D02*
X1464080952Y-464047619D01*
X1464080952Y-464047619D02*
X1464080952Y-465952381D01*
X1464080952Y-469761904D02*
X1464080952Y-477380952D01*
X1470747619Y-472619047D02*
X1453604761Y-472619047D01*
X1453604761Y-472619047D02*
X1451700000Y-473571428D01*
X1451700000Y-473571428D02*
X1450747619Y-475476190D01*
X1450747619Y-475476190D02*
X1450747619Y-477380952D01*
X1450747619Y-484047618D02*
X1464080952Y-484047618D01*
X1470747619Y-484047618D02*
X1469795238Y-483095237D01*
X1469795238Y-483095237D02*
X1468842857Y-484047618D01*
X1468842857Y-484047618D02*
X1469795238Y-484999999D01*
X1469795238Y-484999999D02*
X1470747619Y-484047618D01*
X1470747619Y-484047618D02*
X1468842857Y-484047618D01*
X1464080952Y-493571428D02*
X1450747619Y-493571428D01*
X1462176190Y-493571428D02*
X1463128571Y-494523809D01*
X1463128571Y-494523809D02*
X1464080952Y-496428571D01*
X1464080952Y-496428571D02*
X1464080952Y-499285714D01*
X1464080952Y-499285714D02*
X1463128571Y-501190476D01*
X1463128571Y-501190476D02*
X1461223809Y-502142857D01*
X1461223809Y-502142857D02*
X1450747619Y-502142857D01*
X1450747619Y-514523809D02*
X1451700000Y-512619047D01*
X1451700000Y-512619047D02*
X1452652380Y-511666666D01*
X1452652380Y-511666666D02*
X1454557142Y-510714285D01*
X1454557142Y-510714285D02*
X1460271428Y-510714285D01*
X1460271428Y-510714285D02*
X1462176190Y-511666666D01*
X1462176190Y-511666666D02*
X1463128571Y-512619047D01*
X1463128571Y-512619047D02*
X1464080952Y-514523809D01*
X1464080952Y-514523809D02*
X1464080952Y-517380952D01*
X1464080952Y-517380952D02*
X1463128571Y-519285714D01*
X1463128571Y-519285714D02*
X1462176190Y-520238095D01*
X1462176190Y-520238095D02*
X1460271428Y-521190476D01*
X1460271428Y-521190476D02*
X1454557142Y-521190476D01*
X1454557142Y-521190476D02*
X1452652380Y-520238095D01*
X1452652380Y-520238095D02*
X1451700000Y-519285714D01*
X1451700000Y-519285714D02*
X1450747619Y-517380952D01*
X1450747619Y-517380952D02*
X1450747619Y-514523809D01*
X1451700000Y-528809523D02*
X1450747619Y-530714285D01*
X1450747619Y-530714285D02*
X1450747619Y-534523809D01*
X1450747619Y-534523809D02*
X1451700000Y-536428571D01*
X1451700000Y-536428571D02*
X1453604761Y-537380952D01*
X1453604761Y-537380952D02*
X1454557142Y-537380952D01*
X1454557142Y-537380952D02*
X1456461904Y-536428571D01*
X1456461904Y-536428571D02*
X1457414285Y-534523809D01*
X1457414285Y-534523809D02*
X1457414285Y-531666666D01*
X1457414285Y-531666666D02*
X1458366666Y-529761904D01*
X1458366666Y-529761904D02*
X1460271428Y-528809523D01*
X1460271428Y-528809523D02*
X1461223809Y-528809523D01*
X1461223809Y-528809523D02*
X1463128571Y-529761904D01*
X1463128571Y-529761904D02*
X1464080952Y-531666666D01*
X1464080952Y-531666666D02*
X1464080952Y-534523809D01*
X1464080952Y-534523809D02*
X1463128571Y-536428571D01*
X29252380Y-532619047D02*
X29252380Y-528809523D01*
X29252380Y-528809523D02*
X30204761Y-526904761D01*
X30204761Y-526904761D02*
X32109523Y-524999999D01*
X32109523Y-524999999D02*
X35919047Y-524047618D01*
X35919047Y-524047618D02*
X42585714Y-524047618D01*
X42585714Y-524047618D02*
X46395238Y-524999999D01*
X46395238Y-524999999D02*
X48300000Y-526904761D01*
X48300000Y-526904761D02*
X49252380Y-528809523D01*
X49252380Y-528809523D02*
X49252380Y-532619047D01*
X49252380Y-532619047D02*
X48300000Y-534523809D01*
X48300000Y-534523809D02*
X46395238Y-536428571D01*
X46395238Y-536428571D02*
X42585714Y-537380952D01*
X42585714Y-537380952D02*
X35919047Y-537380952D01*
X35919047Y-537380952D02*
X32109523Y-536428571D01*
X32109523Y-536428571D02*
X30204761Y-534523809D01*
X30204761Y-534523809D02*
X29252380Y-532619047D01*
X49252380Y-515476190D02*
X29252380Y-515476190D01*
X29252380Y-515476190D02*
X29252380Y-507857142D01*
X29252380Y-507857142D02*
X30204761Y-505952380D01*
X30204761Y-505952380D02*
X31157142Y-504999999D01*
X31157142Y-504999999D02*
X33061904Y-504047618D01*
X33061904Y-504047618D02*
X35919047Y-504047618D01*
X35919047Y-504047618D02*
X37823809Y-504999999D01*
X37823809Y-504999999D02*
X38776190Y-505952380D01*
X38776190Y-505952380D02*
X39728571Y-507857142D01*
X39728571Y-507857142D02*
X39728571Y-515476190D01*
X49252380Y-495476190D02*
X29252380Y-495476190D01*
X29252380Y-495476190D02*
X43538095Y-488809523D01*
X43538095Y-488809523D02*
X29252380Y-482142856D01*
X29252380Y-482142856D02*
X49252380Y-482142856D01*
X41633333Y-472619047D02*
X41633333Y-457380952D01*
X49252380Y-447857142D02*
X29252380Y-447857142D01*
X29252380Y-447857142D02*
X43538095Y-441190475D01*
X43538095Y-441190475D02*
X29252380Y-434523808D01*
X29252380Y-434523808D02*
X49252380Y-434523808D01*
X38776190Y-424999999D02*
X38776190Y-418333332D01*
X49252380Y-415476189D02*
X49252380Y-424999999D01*
X49252380Y-424999999D02*
X29252380Y-424999999D01*
X29252380Y-424999999D02*
X29252380Y-415476189D01*
X30204761Y-396428570D02*
X29252380Y-398333332D01*
X29252380Y-398333332D02*
X29252380Y-401190475D01*
X29252380Y-401190475D02*
X30204761Y-404047618D01*
X30204761Y-404047618D02*
X32109523Y-405952380D01*
X32109523Y-405952380D02*
X34014285Y-406904761D01*
X34014285Y-406904761D02*
X37823809Y-407857142D01*
X37823809Y-407857142D02*
X40680952Y-407857142D01*
X40680952Y-407857142D02*
X44490476Y-406904761D01*
X44490476Y-406904761D02*
X46395238Y-405952380D01*
X46395238Y-405952380D02*
X48300000Y-404047618D01*
X48300000Y-404047618D02*
X49252380Y-401190475D01*
X49252380Y-401190475D02*
X49252380Y-399285713D01*
X49252380Y-399285713D02*
X48300000Y-396428570D01*
X48300000Y-396428570D02*
X47347619Y-395476189D01*
X47347619Y-395476189D02*
X40680952Y-395476189D01*
X40680952Y-395476189D02*
X40680952Y-399285713D01*
X39728571Y-359285713D02*
X38776190Y-360238094D01*
X38776190Y-360238094D02*
X37823809Y-362142856D01*
X37823809Y-362142856D02*
X37823809Y-364047618D01*
X37823809Y-364047618D02*
X38776190Y-365952380D01*
X38776190Y-365952380D02*
X39728571Y-366904761D01*
X39728571Y-366904761D02*
X41633333Y-367857142D01*
X41633333Y-367857142D02*
X43538095Y-367857142D01*
X43538095Y-367857142D02*
X45442857Y-366904761D01*
X45442857Y-366904761D02*
X46395238Y-365952380D01*
X46395238Y-365952380D02*
X47347619Y-364047618D01*
X47347619Y-364047618D02*
X47347619Y-362142856D01*
X47347619Y-362142856D02*
X46395238Y-360238094D01*
X46395238Y-360238094D02*
X45442857Y-359285713D01*
X37823809Y-359285713D02*
X45442857Y-359285713D01*
X45442857Y-359285713D02*
X46395238Y-358333332D01*
X46395238Y-358333332D02*
X46395238Y-357380951D01*
X46395238Y-357380951D02*
X45442857Y-355476190D01*
X45442857Y-355476190D02*
X43538095Y-354523809D01*
X43538095Y-354523809D02*
X38776190Y-354523809D01*
X38776190Y-354523809D02*
X35919047Y-356428571D01*
X35919047Y-356428571D02*
X34014285Y-359285713D01*
X34014285Y-359285713D02*
X33061904Y-363095237D01*
X33061904Y-363095237D02*
X34014285Y-366904761D01*
X34014285Y-366904761D02*
X35919047Y-369761904D01*
X35919047Y-369761904D02*
X38776190Y-371666666D01*
X38776190Y-371666666D02*
X42585714Y-372619047D01*
X42585714Y-372619047D02*
X46395238Y-371666666D01*
X46395238Y-371666666D02*
X49252380Y-369761904D01*
X49252380Y-369761904D02*
X51157142Y-366904761D01*
X51157142Y-366904761D02*
X52109523Y-363095237D01*
X52109523Y-363095237D02*
X51157142Y-359285713D01*
X51157142Y-359285713D02*
X49252380Y-356428571D01*
X49252380Y-330714285D02*
X29252380Y-330714285D01*
X29252380Y-330714285D02*
X43538095Y-324047618D01*
X43538095Y-324047618D02*
X29252380Y-317380951D01*
X29252380Y-317380951D02*
X49252380Y-317380951D01*
X49252380Y-299285713D02*
X38776190Y-299285713D01*
X38776190Y-299285713D02*
X36871428Y-300238094D01*
X36871428Y-300238094D02*
X35919047Y-302142856D01*
X35919047Y-302142856D02*
X35919047Y-305952380D01*
X35919047Y-305952380D02*
X36871428Y-307857142D01*
X48300000Y-299285713D02*
X49252380Y-301190475D01*
X49252380Y-301190475D02*
X49252380Y-305952380D01*
X49252380Y-305952380D02*
X48300000Y-307857142D01*
X48300000Y-307857142D02*
X46395238Y-308809523D01*
X46395238Y-308809523D02*
X44490476Y-308809523D01*
X44490476Y-308809523D02*
X42585714Y-307857142D01*
X42585714Y-307857142D02*
X41633333Y-305952380D01*
X41633333Y-305952380D02*
X41633333Y-301190475D01*
X41633333Y-301190475D02*
X40680952Y-299285713D01*
X49252380Y-289761904D02*
X35919047Y-289761904D01*
X39728571Y-289761904D02*
X37823809Y-288809523D01*
X37823809Y-288809523D02*
X36871428Y-287857142D01*
X36871428Y-287857142D02*
X35919047Y-285952380D01*
X35919047Y-285952380D02*
X35919047Y-284047618D01*
X35919047Y-280238095D02*
X35919047Y-272619047D01*
X29252380Y-277380952D02*
X46395238Y-277380952D01*
X46395238Y-277380952D02*
X48300000Y-276428571D01*
X48300000Y-276428571D02*
X49252380Y-274523809D01*
X49252380Y-274523809D02*
X49252380Y-272619047D01*
X49252380Y-265952381D02*
X35919047Y-265952381D01*
X29252380Y-265952381D02*
X30204761Y-266904762D01*
X30204761Y-266904762D02*
X31157142Y-265952381D01*
X31157142Y-265952381D02*
X30204761Y-265000000D01*
X30204761Y-265000000D02*
X29252380Y-265952381D01*
X29252380Y-265952381D02*
X31157142Y-265952381D01*
X35919047Y-256428571D02*
X49252380Y-256428571D01*
X37823809Y-256428571D02*
X36871428Y-255476190D01*
X36871428Y-255476190D02*
X35919047Y-253571428D01*
X35919047Y-253571428D02*
X35919047Y-250714285D01*
X35919047Y-250714285D02*
X36871428Y-248809523D01*
X36871428Y-248809523D02*
X38776190Y-247857142D01*
X38776190Y-247857142D02*
X49252380Y-247857142D01*
X49252380Y-235476190D02*
X48300000Y-237380952D01*
X48300000Y-237380952D02*
X47347619Y-238333333D01*
X47347619Y-238333333D02*
X45442857Y-239285714D01*
X45442857Y-239285714D02*
X39728571Y-239285714D01*
X39728571Y-239285714D02*
X37823809Y-238333333D01*
X37823809Y-238333333D02*
X36871428Y-237380952D01*
X36871428Y-237380952D02*
X35919047Y-235476190D01*
X35919047Y-235476190D02*
X35919047Y-232619047D01*
X35919047Y-232619047D02*
X36871428Y-230714285D01*
X36871428Y-230714285D02*
X37823809Y-229761904D01*
X37823809Y-229761904D02*
X39728571Y-228809523D01*
X39728571Y-228809523D02*
X45442857Y-228809523D01*
X45442857Y-228809523D02*
X47347619Y-229761904D01*
X47347619Y-229761904D02*
X48300000Y-230714285D01*
X48300000Y-230714285D02*
X49252380Y-232619047D01*
X49252380Y-232619047D02*
X49252380Y-235476190D01*
X48300000Y-221190476D02*
X49252380Y-219285714D01*
X49252380Y-219285714D02*
X49252380Y-215476190D01*
X49252380Y-215476190D02*
X48300000Y-213571428D01*
X48300000Y-213571428D02*
X46395238Y-212619047D01*
X46395238Y-212619047D02*
X45442857Y-212619047D01*
X45442857Y-212619047D02*
X43538095Y-213571428D01*
X43538095Y-213571428D02*
X42585714Y-215476190D01*
X42585714Y-215476190D02*
X42585714Y-218333333D01*
X42585714Y-218333333D02*
X41633333Y-220238095D01*
X41633333Y-220238095D02*
X39728571Y-221190476D01*
X39728571Y-221190476D02*
X38776190Y-221190476D01*
X38776190Y-221190476D02*
X36871428Y-220238095D01*
X36871428Y-220238095D02*
X35919047Y-218333333D01*
X35919047Y-218333333D02*
X35919047Y-215476190D01*
X35919047Y-215476190D02*
X36871428Y-213571428D01*
X988891148Y-243215566D02*
X980319720Y-220358423D01*
X980319720Y-220358423D02*
X971748291Y-243215566D01*
X980319720Y-257501280D02*
X980319720Y-280358423D01*
X460813649Y-646320977D02*
X452242221Y-623463834D01*
X452242221Y-623463834D02*
X443670792Y-646320977D01*
X452242221Y-660606691D02*
X452242221Y-683463834D01*
X309159618Y-283818572D02*
X317731047Y-306675714D01*
X317731047Y-306675714D02*
X326302475Y-283818572D01*
X317731047Y-269532857D02*
X317731047Y-246675715D01*
X1044553396Y-667814082D02*
X1053124825Y-690671224D01*
X1053124825Y-690671224D02*
X1061696253Y-667814082D01*
X1053124825Y-653528367D02*
X1053124825Y-630671225D01*
D11*
%TO.C,J1*%
X38462619Y-60588333D02*
X39176904Y-60588333D01*
X39176904Y-60588333D02*
X39319761Y-60635952D01*
X39319761Y-60635952D02*
X39415000Y-60731190D01*
X39415000Y-60731190D02*
X39462619Y-60874047D01*
X39462619Y-60874047D02*
X39462619Y-60969285D01*
X39462619Y-59588333D02*
X39462619Y-60159761D01*
X39462619Y-59874047D02*
X38462619Y-59874047D01*
X38462619Y-59874047D02*
X38605476Y-59969285D01*
X38605476Y-59969285D02*
X38700714Y-60064523D01*
X38700714Y-60064523D02*
X38748333Y-60159761D01*
%TO.C,N1*%
X746084507Y-747663942D02*
X745084507Y-747663942D01*
X745084507Y-747663942D02*
X746084507Y-747092514D01*
X746084507Y-747092514D02*
X745084507Y-747092514D01*
X746084507Y-746092514D02*
X746084507Y-746663942D01*
X746084507Y-746378228D02*
X745084507Y-746378228D01*
X745084507Y-746378228D02*
X745227364Y-746473466D01*
X745227364Y-746473466D02*
X745322602Y-746568704D01*
X745322602Y-746568704D02*
X745370221Y-746663942D01*
%TO.C,P1*%
X728996166Y-748113689D02*
X727996166Y-748113689D01*
X727996166Y-748113689D02*
X727996166Y-747732737D01*
X727996166Y-747732737D02*
X728043785Y-747637499D01*
X728043785Y-747637499D02*
X728091404Y-747589880D01*
X728091404Y-747589880D02*
X728186642Y-747542261D01*
X728186642Y-747542261D02*
X728329499Y-747542261D01*
X728329499Y-747542261D02*
X728424737Y-747589880D01*
X728424737Y-747589880D02*
X728472356Y-747637499D01*
X728472356Y-747637499D02*
X728519975Y-747732737D01*
X728519975Y-747732737D02*
X728519975Y-748113689D01*
X728996166Y-746589880D02*
X728996166Y-747161308D01*
X728996166Y-746875594D02*
X727996166Y-746875594D01*
X727996166Y-746875594D02*
X728139023Y-746970832D01*
X728139023Y-746970832D02*
X728234261Y-747066070D01*
X728234261Y-747066070D02*
X728281880Y-747161308D01*
D12*
%TO.C,J1*%
X39990000Y-45240000D02*
X39990000Y-75240000D01*
X50490000Y-75240000D02*
X50490000Y-45240000D01*
X50490000Y-45240000D02*
G75*
G03*
X39990000Y-45240000I-5250000J0D01*
G01*
X39990000Y-75240000D02*
G75*
G03*
X50490000Y-75240000I5250000J0D01*
G01*
%TD*%
M02*
