%TF.GenerationSoftware,KiCad,Pcbnew,7.0.1-3b83917a11~172~ubuntu22.04.1*%
%TF.CreationDate,2023-07-04T11:09:48-04:00*%
%TF.ProjectId,coil_template_bott,636f696c-5f74-4656-9d70-6c6174655f62,rev?*%
%TF.SameCoordinates,Original*%
%TF.FileFunction,Copper,L2,Bot*%
%TF.FilePolarity,Positive*%
%FSLAX46Y46*%
G04 Gerber Fmt 4.6, Leading zero omitted, Abs format (unit mm)*
G04 Created by KiCad (PCBNEW 7.0.1-3b83917a11~172~ubuntu22.04.1) date 2023-07-04 11:09:48*
%MOMM*%
%LPD*%
G01*
G04 APERTURE LIST*
%TA.AperFunction,ComponentPad*%
%ADD10C,10.160000*%
%TD*%
%TA.AperFunction,SMDPad,CuDef*%
%ADD11R,5.000000X5.000000*%
%TD*%
%TA.AperFunction,ViaPad*%
%ADD12C,4.000000*%
%TD*%
%TA.AperFunction,Conductor*%
%ADD13C,5.000000*%
%TD*%
G04 APERTURE END LIST*
D10*
%TO.P,J1,1,Pin_1*%
%TO.N,Net-(J1-Pin_1)*%
X45240000Y-75240000D03*
%TO.P,J1,2,Pin_2*%
X45240000Y-45270000D03*
%TD*%
D11*
%TO.P,N1,1,Pin_1*%
%TO.N,Net-(J1-Pin_1)*%
X750000000Y-746500000D03*
%TD*%
D12*
%TO.N,Net-(J1-Pin_1)*%
X942342953Y-491861567D03*
X759886259Y-341491385D03*
X554111524Y-454682384D03*
X760199239Y-599495081D03*
X327468770Y-207010986D03*
X1170163405Y-214540534D03*
X736065311Y-434121752D03*
X762632545Y-421183262D03*
X760047535Y-433831937D03*
X759761162Y-513176112D03*
X760134320Y-745806243D03*
X739366785Y-185819130D03*
%TD*%
D13*
%TO.N,Net-(J1-Pin_1)*%
X750000000Y-137090000D02*
X760000000Y-120530000D01*
X750000000Y-735065934D02*
X750000000Y-746500000D01*
X1170163405Y-214540534D02*
X1173610000Y-224700000D01*
X892280000Y-464635800D02*
X941610000Y-479940000D01*
X887270000Y-450562800D02*
X892280000Y-464640000D01*
X760000000Y-62620000D02*
X750000000Y-62620000D01*
X750000000Y-71050000D02*
X760000000Y-62620000D01*
X531280000Y-182221100D02*
X633210000Y-184590000D01*
X558390000Y-482520000D02*
X558390000Y-459098120D01*
X760047535Y-433831937D02*
X760000000Y-434049298D01*
X882490000Y-176890000D02*
X875440000Y-176890000D01*
X1060660000Y-210059500D02*
X965390000Y-187630000D01*
X750000000Y-567330000D02*
X760000000Y-543960000D01*
X759886259Y-341491385D02*
X760000000Y-341500000D01*
X444810000Y-198746000D02*
X454180000Y-188010000D01*
X760000000Y-120530600D02*
X750000000Y-120690000D01*
X750000000Y-341185000D02*
X760000000Y-356100000D01*
X635182357Y-184524619D02*
X635182357Y-175890000D01*
X750000000Y-79480000D02*
X760000000Y-71050000D01*
X811980000Y-421234500D02*
X887270000Y-450560000D01*
X760134320Y-745806243D02*
X760000000Y-745876261D01*
X760000000Y-543960600D02*
X750000000Y-543960000D01*
X750000000Y-99055000D02*
X760000000Y-88790000D01*
X750000000Y-62620000D02*
X760000000Y-54190000D01*
X677430000Y-415501600D02*
X614100000Y-456330000D01*
X760000000Y-186060000D02*
X759886259Y-341491385D01*
X635182357Y-175890000D02*
X739599367Y-175890000D01*
X53020590Y-45270000D02*
X63295168Y-55544578D01*
X760124035Y-734600732D02*
X760134320Y-745806243D01*
X811980000Y-421234500D02*
X763304123Y-421234500D01*
X760000000Y-79480000D02*
X750000000Y-79480000D01*
X750000000Y-88790000D02*
X760000000Y-79480000D01*
X691586570Y-421234500D02*
X736370199Y-421234500D01*
X321380000Y-197991300D02*
X389010000Y-202940000D01*
X965390000Y-187629600D02*
X986130000Y-200400000D01*
X558390000Y-459098120D02*
X553763745Y-454471865D01*
X760117846Y-727858037D02*
X760124035Y-734600732D01*
X760000000Y-524094000D02*
X750000000Y-522400000D01*
X75762558Y-42016488D02*
X750000000Y-42016488D01*
X45240000Y-45270000D02*
X53020590Y-45270000D01*
X760000000Y-99059700D02*
X750000000Y-99060000D01*
X760000000Y-109257600D02*
X750000000Y-109320000D01*
X750000000Y-728290729D02*
X750000000Y-735065934D01*
X611700000Y-446403500D02*
X558390000Y-482520000D01*
X866270000Y-186060000D02*
X760000000Y-186060000D01*
X750000000Y-597014900D02*
X750000000Y-728290729D01*
X635116976Y-184590000D02*
X635182357Y-184524619D01*
X327590000Y-207552700D02*
X321380000Y-197990000D01*
X750000000Y-356100000D02*
X760000000Y-379510000D01*
X524750000Y-192739700D02*
X531280000Y-182220000D01*
X750000000Y-543965000D02*
X760000000Y-524090000D01*
X633210000Y-184590000D02*
X635116976Y-184590000D01*
X1170030000Y-214147900D02*
X1170163405Y-214540534D01*
X750000000Y-120690000D02*
X760000000Y-109260000D01*
X388980000Y-192912400D02*
X444810000Y-198750000D01*
X75762558Y-43077188D02*
X75762558Y-42016488D01*
X875440000Y-176890000D02*
X866270000Y-186060000D01*
X614100000Y-456326100D02*
X611700000Y-446400000D01*
X760000000Y-71050000D02*
X750000000Y-71050000D01*
X63295168Y-55544578D02*
X75762558Y-43077188D01*
X750000000Y-159720000D02*
X750000000Y-341185000D01*
X739599367Y-175890000D02*
X739366785Y-185819130D01*
X986130000Y-200401500D02*
X882490000Y-176890000D01*
X1113040000Y-216845900D02*
X1055450000Y-199300000D01*
X760000000Y-513111309D02*
X760047535Y-433831937D01*
X454180000Y-188013500D02*
X524750000Y-192740000D01*
X760000000Y-54190000D02*
X750000000Y-54190000D01*
X750000000Y-109320000D02*
X760000000Y-99060000D01*
X750000000Y-379640000D02*
X750000000Y-522400000D01*
X750000000Y-597014900D02*
X760000000Y-567320000D01*
X760000000Y-88790000D02*
X750000000Y-88790000D01*
X750000000Y-159720000D02*
X760000000Y-137090000D01*
X750000000Y-54190000D02*
X750000000Y-42016488D01*
X1173610000Y-224695900D02*
X1111360000Y-206540000D01*
X686055357Y-415501600D02*
X691586570Y-421032813D01*
X760000000Y-379506600D02*
X750000000Y-379640000D01*
X760000000Y-599466248D02*
X760117846Y-727858037D01*
X1055450000Y-199299800D02*
X1060660000Y-210060000D01*
X389010000Y-202937800D02*
X388980000Y-192910000D01*
X760000000Y-137090000D02*
X750000000Y-137090000D01*
X760000000Y-567322800D02*
X750000000Y-567330000D01*
X1111360000Y-206544900D02*
X1113040000Y-216850000D01*
X736370199Y-421234500D02*
X736370199Y-434049298D01*
X941610000Y-479936400D02*
X942480000Y-491770000D01*
X760000000Y-356100000D02*
X750000000Y-356100000D01*
X677430000Y-415501600D02*
X686055357Y-415501600D01*
%TD*%
M02*
