%TF.GenerationSoftware,KiCad,Pcbnew,7.0.1-3b83917a11~172~ubuntu22.04.1*%
%TF.CreationDate,2023-07-04T11:09:48-04:00*%
%TF.ProjectId,coil_template_bott,636f696c-5f74-4656-9d70-6c6174655f62,rev?*%
%TF.SameCoordinates,Original*%
%TF.FileFunction,Copper,L1,Top*%
%TF.FilePolarity,Positive*%
%FSLAX46Y46*%
G04 Gerber Fmt 4.6, Leading zero omitted, Abs format (unit mm)*
G04 Created by KiCad (PCBNEW 7.0.1-3b83917a11~172~ubuntu22.04.1) date 2023-07-04 11:09:48*
%MOMM*%
%LPD*%
G01*
G04 APERTURE LIST*
%TA.AperFunction,ComponentPad*%
%ADD10C,10.160000*%
%TD*%
%TA.AperFunction,SMDPad,CuDef*%
%ADD11R,5.000000X5.000000*%
%TD*%
%TA.AperFunction,ViaPad*%
%ADD12C,4.000000*%
%TD*%
%TA.AperFunction,Conductor*%
%ADD13C,5.000000*%
%TD*%
G04 APERTURE END LIST*
D10*
%TO.P,J1,1,Pin_1*%
%TO.N,Net-(J1-Pin_1)*%
X45240000Y-75240000D03*
%TO.P,J1,2,Pin_2*%
X45240000Y-45270000D03*
%TD*%
D11*
%TO.P,P1,1,Pin_1*%
%TO.N,Net-(J1-Pin_1)*%
X766909793Y-746500000D03*
%TD*%
D12*
%TO.N,Net-(J1-Pin_1)*%
X942342953Y-491861567D03*
X759886259Y-341491385D03*
X554111524Y-454682384D03*
X760199239Y-599495081D03*
X327468770Y-207010986D03*
X1170163405Y-214540534D03*
X736065311Y-434121752D03*
X762632545Y-421183262D03*
X760047535Y-433831937D03*
X759761162Y-513176112D03*
X760134320Y-745806243D03*
X739366785Y-185819130D03*
%TD*%
D13*
%TO.N,Net-(J1-Pin_1)*%
X1175830000Y-53390000D02*
X1140830000Y-53390000D01*
X752320000Y-664480000D02*
X775230000Y-657360000D01*
X1111460000Y-673770000D02*
X1107780000Y-674330000D01*
X564790000Y-538990000D02*
X555290000Y-555690000D01*
X874870000Y-524620000D02*
X869990000Y-517850000D01*
X596450000Y-114210000D02*
X632360000Y-116020000D01*
X387390000Y-514770000D02*
X405250000Y-491560000D01*
X414290000Y-74870000D02*
X386050000Y-74290000D01*
X921210000Y-77260000D02*
X889520000Y-77920000D01*
X144240000Y-306980000D02*
X141740000Y-297140000D01*
X363090000Y-53450000D02*
X359170000Y-53390000D01*
X402030000Y-53530000D02*
X398020000Y-53450000D01*
X956370000Y-320830000D02*
X980640000Y-325520000D01*
X956520000Y-299820000D02*
X973020000Y-302880000D01*
X548950000Y-309330000D02*
X563570000Y-306870000D01*
X578790000Y-77260000D02*
X571210000Y-77260000D01*
X91900000Y-268510000D02*
X94150000Y-296870000D01*
X1274980000Y-83810000D02*
X1237500000Y-81440000D01*
X382040000Y-637070000D02*
X374140000Y-625070000D01*
X907580000Y-324360000D02*
X939670000Y-329150000D01*
X351350000Y-654690000D02*
X347520000Y-648660000D01*
X105620000Y-406940000D02*
X117710000Y-435310000D01*
X320830000Y-670400000D02*
X302230000Y-644020000D01*
X151560000Y-441650000D02*
X166670000Y-449660000D01*
X1421840000Y-344940000D02*
X1421840000Y-338390000D01*
X563570000Y-306870000D02*
X584740000Y-303940000D01*
X976050000Y-705890000D02*
X949820000Y-687280000D01*
X1267140000Y-349470000D02*
X1247470000Y-348720000D01*
X110590000Y-326310000D02*
X109450000Y-317480000D01*
X918640000Y-94920000D02*
X931010000Y-94310000D01*
X781640000Y-62620000D02*
X760000000Y-62620000D01*
X265280000Y-81430000D02*
X262500000Y-81430000D01*
X1312180000Y-176430000D02*
X1321710000Y-191640000D01*
X1314580000Y-382770000D02*
X1292910000Y-387550000D01*
X185420000Y-337690000D02*
X175330000Y-328020000D01*
X500740000Y-425140000D02*
X514610000Y-421550000D01*
X335530000Y-525110000D02*
X351720000Y-498920000D01*
X998300000Y-76060000D02*
X968030000Y-76640000D01*
X160380000Y-197160000D02*
X168950000Y-178780000D01*
X410200000Y-67760000D02*
X390040000Y-67340000D01*
X890940000Y-278580000D02*
X880410000Y-277060000D01*
X1439570000Y-444880000D02*
X1441790000Y-434180000D01*
X618240000Y-143990000D02*
X650530000Y-147650000D01*
X276620000Y-542060000D02*
X283120000Y-533890000D01*
X832780000Y-329550000D02*
X860250000Y-332000000D01*
X171560000Y-253730000D02*
X170070000Y-238640000D01*
X1228850000Y-604800000D02*
X1236120000Y-627160000D01*
X1215500000Y-185480000D02*
X1215500000Y-185480000D01*
X1020100000Y-324520000D02*
X1025200000Y-326060000D01*
X1015890000Y-380990000D02*
X1021350000Y-382830000D01*
X1433120000Y-351420000D02*
X1433120000Y-331920000D01*
X78230000Y-154270000D02*
X73750000Y-181650000D01*
X1179820000Y-336370000D02*
X1170290000Y-330900000D01*
X961910000Y-584750000D02*
X953510000Y-570100000D01*
X410860000Y-402810000D02*
X437220000Y-386830000D01*
X586860000Y-677490000D02*
X579740000Y-704970000D01*
X1218460000Y-578120000D02*
X1228850000Y-604800000D01*
X777130000Y-571760000D02*
X795240000Y-581520000D01*
X1068140000Y-420420000D02*
X1073950000Y-424320000D01*
X354690000Y-656520000D02*
X351350000Y-654690000D01*
X262120000Y-329340000D02*
X254050000Y-332150000D01*
X879000000Y-299360000D02*
X894140000Y-300950000D01*
X760000000Y-88790000D02*
X750000000Y-99055000D01*
X869990000Y-517850000D02*
X855130000Y-504610000D01*
X1241010000Y-143030000D02*
X1273860000Y-150050000D01*
X959040000Y-278540000D02*
X932670000Y-273630000D01*
X232920000Y-137850000D02*
X253460000Y-133410000D01*
X176000000Y-102900000D02*
X194050000Y-96800000D01*
X600540000Y-242520000D02*
X589580000Y-244650000D01*
X320280000Y-53380000D02*
X285270000Y-53380000D01*
X1154380000Y-348530000D02*
X1150970000Y-346840000D01*
X726080000Y-279180000D02*
X735180000Y-278930000D01*
X1085470000Y-278420000D02*
X1073120000Y-274030000D01*
X553650000Y-728170000D02*
X523950000Y-735320000D01*
X672320000Y-117880000D02*
X709880000Y-119860000D01*
X1057930000Y-326020000D02*
X1064390000Y-328640000D01*
X703940000Y-62480000D02*
X679390000Y-62480000D01*
X1079240000Y-149270000D02*
X1081990000Y-149060000D01*
X589510000Y-126300000D02*
X600090000Y-127540000D01*
X1280780000Y-332040000D02*
X1266720000Y-333170000D01*
X746560000Y-326820000D02*
X753440000Y-326820000D01*
X521000000Y-177870000D02*
X531280000Y-182220000D01*
X684720000Y-342590000D02*
X699090000Y-341750000D01*
X1354430000Y-267330000D02*
X1348440000Y-287570000D01*
X461470000Y-286980000D02*
X458740000Y-287690000D01*
X1113040000Y-216845900D02*
X1055450000Y-199300000D01*
X1036860000Y-75480000D02*
X1007250000Y-76060000D01*
X554410000Y-318840000D02*
X556950000Y-318410000D01*
X376370000Y-158850000D02*
X386760000Y-162370000D01*
X533850000Y-418460000D02*
X538950000Y-417450000D01*
X158340000Y-415550000D02*
X151560000Y-410340000D01*
X359170000Y-53390000D02*
X324170000Y-53390000D01*
X80810000Y-573250000D02*
X80810000Y-576750000D01*
X1023490000Y-117710000D02*
X1060060000Y-115870000D01*
X347380000Y-141610000D02*
X376480000Y-144470000D01*
X753440000Y-326820000D02*
X785080000Y-327470000D01*
X1344870000Y-138610000D02*
X1351620000Y-143050000D01*
X603050000Y-630390000D02*
X600390000Y-640440000D01*
X1215420000Y-185480000D02*
X1185646667Y-185480000D01*
X1008170000Y-692660000D02*
X976050000Y-675320000D01*
X474580000Y-315260000D02*
X482100000Y-313300000D01*
X285170000Y-731600000D02*
X253120000Y-721910000D01*
X207820000Y-177290000D02*
X207820000Y-177290000D01*
X1213020000Y-453350000D02*
X1217070000Y-456010000D01*
X1065640000Y-177540000D02*
X1065640000Y-177540000D01*
X1416150000Y-295370000D02*
X1418380000Y-265170000D01*
X1168890000Y-169940000D02*
X1187420000Y-168630000D01*
X1377390000Y-136480000D02*
X1387070000Y-155030000D01*
X1235070000Y-470990000D02*
X1244590000Y-479090000D01*
X898690000Y-61950000D02*
X873530000Y-61950000D01*
X1174810000Y-480280000D02*
X1179170000Y-486200000D01*
X976050000Y-675320000D02*
X973630000Y-673610000D01*
X750000000Y-567330000D02*
X760000000Y-543960000D01*
X865800000Y-251610000D02*
X831750000Y-246200000D01*
X848370000Y-524330000D02*
X834980000Y-511420000D01*
X878250000Y-557240000D02*
X859950000Y-534480000D01*
X723200000Y-71050000D02*
X699160000Y-70820000D01*
X1174040000Y-111200000D02*
X1181520000Y-111180000D01*
X1376060000Y-279750000D02*
X1373500000Y-288380000D01*
X332310000Y-471730000D02*
X347330000Y-455310000D01*
X736355126Y-434049298D02*
X736282672Y-434049298D01*
X1280730000Y-639440000D02*
X1286740000Y-649320000D01*
X416630000Y-347560000D02*
X425690000Y-343850000D01*
X493560000Y-145190000D02*
X500600000Y-145680000D01*
X58380000Y-123840000D02*
X55620000Y-131750000D01*
X297000000Y-73800000D02*
X269290000Y-74440000D01*
X1198900000Y-622000000D02*
X1197760000Y-644010000D01*
X113200000Y-280750000D02*
X109900000Y-248930000D01*
X370720000Y-269210000D02*
X345210000Y-282860000D01*
X809390000Y-356520000D02*
X845400000Y-357850000D01*
X1123520000Y-144470000D02*
X1152620000Y-141610000D01*
X1243190000Y-363350000D02*
X1214040000Y-352930000D01*
X356410000Y-690680000D02*
X354690000Y-689770000D01*
X1258830000Y-177230000D02*
X1268710000Y-182400000D01*
X1351410000Y-164550000D02*
X1361700000Y-183020000D01*
X1102620000Y-258110000D02*
X1098320000Y-256050000D01*
X1081630000Y-81990000D02*
X1079480000Y-81990000D01*
X1435740000Y-174860000D02*
X1432770000Y-156650000D01*
X1339080000Y-195550000D02*
X1344980000Y-222590000D01*
X238350000Y-332960000D02*
X220270000Y-332350000D01*
X1397580000Y-391220000D02*
X1403990000Y-373580000D01*
X74580000Y-308100000D02*
X78160000Y-338400000D01*
X1141680000Y-260190000D02*
X1136080000Y-257210000D01*
X377880000Y-281200000D02*
X367290000Y-286860000D01*
X1280730000Y-409010000D02*
X1248150000Y-399270000D01*
X1094990000Y-740540000D02*
X1077610000Y-740540000D01*
X792750000Y-327550000D02*
X822910000Y-329300000D01*
X682550000Y-474220000D02*
X663200000Y-490100000D01*
X225840000Y-150220000D02*
X225840000Y-150220000D01*
X189540000Y-514300000D02*
X219270000Y-503980000D01*
X518450000Y-120810000D02*
X552380000Y-123230000D01*
X56670000Y-364940000D02*
X56670000Y-396170000D01*
X1248240000Y-332460000D02*
X1237520000Y-328850000D01*
X1113320000Y-482000000D02*
X1129970000Y-506030000D01*
X1020150000Y-256740000D02*
X1004330000Y-253120000D01*
X1112980000Y-403120000D02*
X1115850000Y-405370000D01*
X200440000Y-185780000D02*
X203770000Y-180190000D01*
X430220000Y-421310000D02*
X454450000Y-408310000D01*
X228490000Y-117470000D02*
X242780000Y-114820000D01*
X913130000Y-104520000D02*
X936210000Y-103370000D01*
X760000000Y-137090000D02*
X761130000Y-137090000D01*
X170070000Y-238640000D02*
X170680000Y-213060000D01*
X107500000Y-75110000D02*
X103660000Y-77770000D01*
X800900000Y-341740000D02*
X815280000Y-342580000D01*
X482340000Y-381680000D02*
X508750000Y-374750000D01*
X825030000Y-648190000D02*
X824400000Y-659720000D01*
X1051070000Y-449030000D02*
X1052760000Y-450150000D01*
X479850000Y-256740000D02*
X474830000Y-258260000D01*
X1101980000Y-53450000D02*
X1097970000Y-53530000D01*
X642190000Y-403950000D02*
X677430000Y-415500000D01*
X824470000Y-258880000D02*
X790660000Y-256200000D01*
X1239550000Y-276240000D02*
X1216790000Y-272230000D01*
X1125750000Y-625130000D02*
X1117930000Y-637050000D01*
X679390000Y-62480000D02*
X665190000Y-62240000D01*
X309560000Y-95670000D02*
X334850000Y-95730000D01*
X689965500Y-421234500D02*
X665920000Y-445280000D01*
X652080000Y-523950000D02*
X639500000Y-535050000D01*
X1148630000Y-654680000D02*
X1145310000Y-656500000D01*
X1163800000Y-410870000D02*
X1179860000Y-425020000D01*
X1028490000Y-60910000D02*
X1015820000Y-61150000D01*
X750000000Y-379640000D02*
X750000000Y-406960000D01*
X286980000Y-434000000D02*
X296450000Y-425370000D01*
X332580000Y-601190000D02*
X332590000Y-587690000D01*
X99870000Y-332460000D02*
X106460000Y-354650000D01*
X1115850000Y-405370000D02*
X1139850000Y-424410000D01*
X777020000Y-341500000D02*
X760051533Y-341500000D01*
X320830000Y-735760000D02*
X288790000Y-731600000D01*
X1227720000Y-372780000D02*
X1214110000Y-367910000D01*
X98290000Y-505510000D02*
X105090000Y-523920000D01*
X508530000Y-306670000D02*
X526980000Y-302880000D01*
X291360000Y-103720000D02*
X314020000Y-103430000D01*
X1364600000Y-195430000D02*
X1368240000Y-215750000D01*
X963600000Y-355190000D02*
X964230000Y-355280000D01*
X910740000Y-672660000D02*
X910480000Y-672250000D01*
X463140000Y-75480000D02*
X453520000Y-75480000D01*
X69660000Y-527960000D02*
X69660000Y-544260000D01*
X1047350000Y-277080000D02*
X1033750000Y-273190000D01*
X575400000Y-522560000D02*
X564790000Y-538990000D01*
X673280000Y-655250000D02*
X673220000Y-655000000D01*
X1314580000Y-313920000D02*
X1308710000Y-318830000D01*
X1436460000Y-252220000D02*
X1436710000Y-236810000D01*
X1160660000Y-488410000D02*
X1179170000Y-513560000D01*
X771960000Y-79480000D02*
X760000000Y-79480000D01*
X1145310000Y-530640000D02*
X1147810000Y-534680000D01*
X1355950000Y-337350000D02*
X1353330000Y-344480000D01*
X441910000Y-326090000D02*
X457880000Y-320830000D01*
X880910000Y-345630000D02*
X890660000Y-346770000D01*
X750000000Y-62620000D02*
X718360000Y-62620000D01*
X1421260000Y-149950000D02*
X1421260000Y-146320000D01*
X1418940000Y-226600000D02*
X1418940000Y-223400000D01*
X117710000Y-305000000D02*
X113600000Y-285690000D01*
X1180910000Y-515670000D02*
X1183430000Y-519110000D01*
X916730000Y-69460000D02*
X894100000Y-69940000D01*
X176350000Y-482980000D02*
X185420000Y-484650000D01*
X1008530000Y-366230000D02*
X1028330000Y-372930000D01*
X1170730000Y-434100000D02*
X1177220000Y-440010000D01*
X66880000Y-331920000D02*
X66880000Y-351420000D01*
X134760000Y-273540000D02*
X132280000Y-252810000D01*
X63860000Y-485740000D02*
X63860000Y-508710000D01*
X1093810000Y-490070000D02*
X1111640000Y-513350000D01*
X1196280000Y-506840000D02*
X1213020000Y-529780000D01*
X1273860000Y-150050000D02*
X1274550000Y-150210000D01*
X524790000Y-641530000D02*
X502810000Y-660080000D01*
X1063400000Y-257110000D02*
X1059660000Y-255650000D01*
X571210000Y-77260000D02*
X540250000Y-76640000D01*
X572870000Y-418690000D02*
X577300000Y-418390000D01*
X1125620000Y-357220000D02*
X1151080000Y-373020000D01*
X650810000Y-87270000D02*
X615350000Y-86390000D01*
X1097870000Y-319950000D02*
X1068600000Y-307620000D01*
X214420000Y-102920000D02*
X233880000Y-99310000D01*
X561140000Y-378820000D02*
X588180000Y-377640000D01*
X1171910000Y-60210000D02*
X1144750000Y-60210000D01*
X284640000Y-119990000D02*
X321270000Y-119360000D01*
X547440000Y-609590000D02*
X534240000Y-628830000D01*
X264700000Y-639980000D02*
X263860000Y-627170000D01*
X494780000Y-426410000D02*
X500740000Y-425140000D01*
X354690000Y-689770000D02*
X321680000Y-671740000D01*
X645060000Y-70410000D02*
X621880000Y-69940000D01*
X388980000Y-192912400D02*
X444810000Y-198750000D01*
X140320000Y-154600000D02*
X143130000Y-148870000D01*
X269290000Y-74440000D02*
X258480000Y-74440000D01*
X83850000Y-469540000D02*
X90740000Y-493270000D01*
X372000000Y-334150000D02*
X351230000Y-345540000D01*
X1314580000Y-456490000D02*
X1333320000Y-449650000D01*
X760000000Y-356100000D02*
X768630000Y-356100000D01*
X324750000Y-403950000D02*
X341710000Y-391780000D01*
X185140000Y-287480000D02*
X183740000Y-285550000D01*
X341240000Y-152310000D02*
X342230000Y-152540000D01*
X390520000Y-134220000D02*
X410890000Y-136680000D01*
X865730000Y-116080000D02*
X867630000Y-116030000D01*
X167590000Y-115400000D02*
X169620000Y-114930000D01*
X513870000Y-315960000D02*
X520210000Y-314650000D01*
X740850000Y-523950000D02*
X749110000Y-522400000D01*
X1391470000Y-164610000D02*
X1392890000Y-172900000D01*
X806670000Y-560830000D02*
X812770000Y-566520000D01*
X1002970000Y-83510000D02*
X1002580000Y-83510000D01*
X651870000Y-684990000D02*
X651180000Y-678810000D01*
X120990000Y-359220000D02*
X117710000Y-350300000D01*
X880410000Y-277060000D02*
X854760000Y-273860000D01*
X981560000Y-120800000D02*
X984900000Y-120440000D01*
X425690000Y-343850000D02*
X447130000Y-335190000D01*
X1296780000Y-54300000D02*
X1292300000Y-53730000D01*
X1216850000Y-417250000D02*
X1246880000Y-436920000D01*
X933400000Y-233900000D02*
X918560000Y-230490000D01*
X1427420000Y-257410000D02*
X1427820000Y-231710000D01*
X1265130000Y-467300000D02*
X1280730000Y-477280000D01*
X943050000Y-318410000D02*
X945590000Y-318830000D01*
X651490000Y-617470000D02*
X664780000Y-590670000D01*
X1280730000Y-430080000D02*
X1270540000Y-425300000D01*
X1111460000Y-719670000D02*
X1095380000Y-720350000D01*
X1213020000Y-499900000D02*
X1234900000Y-523550000D01*
X1444400000Y-357890000D02*
X1444400000Y-325440000D01*
X727090000Y-484070000D02*
X711320000Y-490100000D01*
X163590000Y-55460000D02*
X131190000Y-55460000D01*
X1111730000Y-97280000D02*
X1126740000Y-96560000D01*
X1430340000Y-544260000D02*
X1430340000Y-527960000D01*
X1179170000Y-442140000D02*
X1202700000Y-464260000D01*
X584260000Y-270850000D02*
X567330000Y-273630000D01*
X1205490000Y-348070000D02*
X1179820000Y-336370000D01*
X1301500000Y-62950000D02*
X1287980000Y-61250000D01*
X624530000Y-237790000D02*
X600540000Y-242520000D01*
X617300000Y-77920000D02*
X610480000Y-77920000D01*
X856690000Y-557750000D02*
X850370000Y-549890000D01*
X1345300000Y-228600000D02*
X1342350000Y-260070000D01*
X120920000Y-210850000D02*
X121810000Y-205480000D01*
X1382290000Y-305020000D02*
X1378480000Y-320030000D01*
X910290000Y-671770000D02*
X899450000Y-641030000D01*
X976050000Y-735340000D02*
X946310000Y-728190000D01*
X151560000Y-556840000D02*
X179100000Y-551930000D01*
X602820000Y-335410000D02*
X626550000Y-332630000D01*
X498790000Y-351950000D02*
X530680000Y-345230000D01*
X1088450000Y-455890000D02*
X1107180000Y-474650000D01*
X1388720000Y-131710000D02*
X1383160000Y-126400000D01*
X333330000Y-626150000D02*
X332580000Y-601190000D01*
X254050000Y-332150000D02*
X238350000Y-332960000D01*
X568430000Y-660560000D02*
X558150000Y-676600000D01*
X467700000Y-100160000D02*
X487590000Y-100620000D01*
X384150000Y-519790000D02*
X385850000Y-517080000D01*
X513230000Y-247140000D02*
X495650000Y-253120000D01*
X873530000Y-61950000D02*
X859640000Y-62240000D01*
X721510000Y-302720000D02*
X739420000Y-302410000D01*
X873110000Y-309620000D02*
X900790000Y-312530000D01*
X135030000Y-197090000D02*
X137860000Y-184550000D01*
X970790000Y-636560000D02*
X963520000Y-625500000D01*
X331620000Y-369720000D02*
X321280000Y-377070000D01*
X1041320000Y-422160000D02*
X1063070000Y-436780000D01*
X187870000Y-595850000D02*
X199200000Y-586530000D01*
X1122240000Y-88730000D02*
X1155880000Y-88130000D01*
X1213020000Y-569590000D02*
X1215690000Y-573470000D01*
X757950000Y-266970000D02*
X742050000Y-266970000D01*
X581600000Y-140060000D02*
X609130000Y-143270000D01*
X565160000Y-620260000D02*
X557910000Y-633720000D01*
X1249510000Y-296800000D02*
X1231710000Y-294020000D01*
X1274550000Y-150210000D02*
X1275520000Y-150620000D01*
X504730000Y-232350000D02*
X486060000Y-238700000D01*
X1050500000Y-99240000D02*
X1072020000Y-98710000D01*
X592220000Y-53870000D02*
X557780000Y-53870000D01*
X876330000Y-320830000D02*
X903710000Y-324040000D01*
X1336880000Y-309420000D02*
X1324660000Y-328010000D01*
X185420000Y-382760000D02*
X168740000Y-370690000D01*
X1144470000Y-175690000D02*
X1168890000Y-169940000D01*
X224540000Y-83850000D02*
X189040000Y-88630000D01*
X1390080000Y-134320000D02*
X1388720000Y-131710000D01*
X286980000Y-499850000D02*
X288330000Y-498000000D01*
X996800000Y-297380000D02*
X966260000Y-291100000D01*
X707250000Y-327560000D02*
X714930000Y-327470000D01*
X593220000Y-663460000D02*
X590150000Y-672360000D01*
X271380000Y-373120000D02*
X253510000Y-382010000D01*
X939790000Y-396640000D02*
X948460000Y-396290000D01*
X1353330000Y-344480000D02*
X1348440000Y-352490000D01*
X502810000Y-660080000D02*
X490100000Y-666990000D01*
X1213160000Y-111600000D02*
X1220070000Y-111780000D01*
X518840000Y-53780000D02*
X514540000Y-53700000D01*
X401690000Y-256060000D02*
X397170000Y-258230000D01*
X471510000Y-60910000D02*
X445150000Y-60910000D01*
X487590000Y-100620000D02*
X507390000Y-101560000D01*
X699020000Y-557810000D02*
X724090000Y-546540000D01*
X794340000Y-379050000D02*
X821300000Y-377270000D01*
X553040000Y-253120000D02*
X520230000Y-259330000D01*
X433810000Y-126560000D02*
X444730000Y-127880000D01*
X815280000Y-342580000D02*
X840630000Y-343200000D01*
X880430000Y-653100000D02*
X881100000Y-655010000D01*
X284260000Y-573440000D02*
X286980000Y-569500000D01*
X612500000Y-289390000D02*
X615120000Y-289120000D01*
X908900000Y-611880000D02*
X901650000Y-596460000D01*
X997440000Y-363370000D02*
X1008530000Y-366230000D01*
X1320790000Y-71610000D02*
X1306210000Y-71610000D01*
X191860000Y-141250000D02*
X214520000Y-131470000D01*
X1033750000Y-273190000D02*
X1014110000Y-267240000D01*
X955200000Y-136430000D02*
X973330000Y-135130000D01*
X1084780000Y-372680000D02*
X1095300000Y-378210000D01*
X163100000Y-309410000D02*
X156420000Y-300180000D01*
X918400000Y-207770000D02*
X898370000Y-197920000D01*
X632360000Y-116020000D02*
X634270000Y-116070000D01*
X232290000Y-606410000D02*
X244000000Y-589200000D01*
X83850000Y-295290000D02*
X84420000Y-302450000D01*
X510260000Y-61160000D02*
X484190000Y-61160000D01*
X1064840000Y-375180000D02*
X1082290000Y-383970000D01*
X262470000Y-153990000D02*
X264980000Y-153460000D01*
X267200000Y-446980000D02*
X286980000Y-434000000D01*
X811980000Y-421234500D02*
X887270000Y-450560000D01*
X151380000Y-380660000D02*
X151250000Y-380380000D01*
X1409290000Y-221220000D02*
X1407390000Y-191670000D01*
X236960000Y-295490000D02*
X220740000Y-290580000D01*
X704810000Y-242160000D02*
X676820000Y-245120000D01*
X1275870000Y-500010000D02*
X1280730000Y-504000000D01*
X1063250000Y-316860000D02*
X1056990000Y-314810000D01*
X1444280000Y-131470000D02*
X1441480000Y-122090000D01*
X911800000Y-543070000D02*
X902470000Y-528450000D01*
X1214040000Y-352930000D02*
X1205490000Y-348070000D01*
X439240000Y-720880000D02*
X422390000Y-721110000D01*
X967420000Y-225420000D02*
X961310000Y-223760000D01*
X783170000Y-651170000D02*
X787580000Y-626460000D01*
X503200000Y-297380000D02*
X489230000Y-300890000D01*
X83090000Y-190250000D02*
X81090000Y-223410000D01*
X64240000Y-175650000D02*
X64240000Y-197770000D01*
X1416150000Y-382480000D02*
X1416460000Y-380740000D01*
X321100000Y-441630000D02*
X321610000Y-441080000D01*
X902470000Y-528450000D02*
X899200000Y-524510000D01*
X738870000Y-137090000D02*
X750000000Y-137090000D01*
X1422760000Y-105550000D02*
X1405310000Y-82220000D01*
X887490000Y-86250000D02*
X884650000Y-86400000D01*
X527590000Y-69020000D02*
X505980000Y-68610000D01*
X601810000Y-104890000D02*
X626690000Y-106140000D01*
X191680000Y-319030000D02*
X185350000Y-313950000D01*
X1298620000Y-148650000D02*
X1307640000Y-154170000D01*
X854760000Y-273860000D02*
X838590000Y-271950000D01*
X1121780000Y-280960000D02*
X1112640000Y-277140000D01*
X1126900000Y-546690000D02*
X1135550000Y-569390000D01*
X413800000Y-229100000D02*
X392320000Y-239750000D01*
X271110000Y-604780000D02*
X281450000Y-578170000D01*
X251260000Y-245820000D02*
X236730000Y-221070000D01*
X962780000Y-149620000D02*
X965100000Y-149460000D01*
X1052760000Y-450150000D02*
X1071830000Y-466660000D01*
X1125430000Y-470870000D02*
X1145310000Y-495140000D01*
X1147190000Y-414190000D02*
X1151860000Y-417480000D01*
X1418560000Y-459720000D02*
X1418560000Y-456950000D01*
X1415420000Y-303190000D02*
X1415580000Y-302450000D01*
X1009610000Y-219270000D02*
X1005490000Y-214550000D01*
X1425420000Y-308100000D02*
X1425420000Y-297450000D01*
X585240000Y-336860000D02*
X602820000Y-335410000D01*
X751090000Y-255020000D02*
X748910000Y-255020000D01*
X1435740000Y-197360000D02*
X1435740000Y-174860000D01*
X100450000Y-254360000D02*
X100120000Y-234340000D01*
X986130000Y-315960000D02*
X1005560000Y-320830000D01*
X236730000Y-221070000D02*
X253590000Y-201230000D01*
X122530000Y-58330000D02*
X95060000Y-58330000D01*
X400960000Y-549110000D02*
X409900000Y-531260000D01*
X462120000Y-420520000D02*
X465490000Y-418910000D01*
X749180000Y-457680000D02*
X714390000Y-461960000D01*
X466250000Y-387650000D02*
X476310000Y-383730000D01*
X650850000Y-215920000D02*
X642570000Y-219270000D01*
X429090000Y-353680000D02*
X452360000Y-344280000D01*
X384090000Y-291950000D02*
X375850000Y-296020000D01*
X175330000Y-328020000D02*
X163100000Y-309410000D01*
X1017330000Y-109190000D02*
X1027240000Y-108960000D01*
X1148230000Y-498900000D02*
X1164430000Y-525130000D01*
X1193990000Y-313860000D02*
X1181660000Y-308940000D01*
X510560000Y-174780000D02*
X521000000Y-177870000D01*
X288790000Y-731600000D02*
X286980000Y-731600000D01*
X78160000Y-344940000D02*
X83540000Y-380370000D01*
X1209520000Y-130150000D02*
X1224320000Y-131040000D01*
X1088590000Y-97840000D02*
X1111730000Y-97280000D01*
X136050000Y-389470000D02*
X124540000Y-365040000D01*
X410430000Y-457550000D02*
X421010000Y-448550000D01*
X1073950000Y-298380000D02*
X1042230000Y-288000000D01*
X966260000Y-291100000D02*
X961980000Y-290310000D01*
X63310000Y-236800000D02*
X63540000Y-252220000D01*
X657660000Y-295480000D02*
X688330000Y-292780000D01*
X100470000Y-448790000D02*
X113960000Y-475630000D01*
X1184980000Y-295730000D02*
X1162380000Y-286410000D01*
X1116490000Y-89010000D02*
X1122240000Y-88730000D01*
X117710000Y-539820000D02*
X130390000Y-548270000D01*
X596890000Y-257380000D02*
X591530000Y-258200000D01*
X151560000Y-475540000D02*
X176350000Y-482980000D01*
X1348750000Y-380380000D02*
X1348620000Y-380660000D01*
X1177220000Y-440010000D02*
X1179170000Y-442140000D01*
X1270570000Y-91560000D02*
X1280220000Y-93380000D01*
X873700000Y-253120000D02*
X867380000Y-251880000D01*
X538690000Y-223750000D02*
X532580000Y-225420000D01*
X928790000Y-77260000D02*
X921210000Y-77260000D01*
X571590000Y-606950000D02*
X565160000Y-620260000D01*
X722530000Y-571790000D02*
X736030000Y-567340000D01*
X1377930000Y-203620000D02*
X1378980000Y-209470000D01*
X1313850000Y-143280000D02*
X1319850000Y-147640000D01*
X532220000Y-280200000D02*
X503290000Y-286980000D01*
X1144750000Y-60210000D02*
X1132920000Y-60400000D01*
X850370000Y-549890000D02*
X833540000Y-535140000D01*
X1043750000Y-699530000D02*
X1013530000Y-693750000D01*
X844200000Y-78590000D02*
X811030000Y-79160000D01*
X1105970000Y-60400000D02*
X1093890000Y-60650000D01*
X488470000Y-68610000D02*
X467330000Y-68190000D01*
X1215690000Y-573470000D02*
X1218460000Y-578120000D01*
X288330000Y-498000000D02*
X290800000Y-495030000D01*
X422390000Y-678330000D02*
X392220000Y-674340000D01*
X981160000Y-53780000D02*
X946620000Y-53780000D01*
X432770000Y-60650000D02*
X406110000Y-60650000D01*
X1441790000Y-434180000D02*
X1441790000Y-404710000D01*
X1266760000Y-163600000D02*
X1292260000Y-176960000D01*
X915950000Y-506100000D02*
X904310000Y-491060000D01*
X750000000Y-159720000D02*
X760000000Y-137090000D01*
X1266340000Y-68770000D02*
X1245530000Y-67450000D01*
X497420000Y-83520000D02*
X497030000Y-83520000D01*
X281340000Y-53470000D02*
X246440000Y-53470000D01*
X349730000Y-538960000D02*
X352140000Y-534650000D01*
X1330170000Y-292290000D02*
X1314580000Y-313920000D01*
X549010000Y-61400000D02*
X523220000Y-61400000D01*
X470020000Y-373560000D02*
X490690000Y-366540000D01*
X600040000Y-557530000D02*
X585980000Y-581120000D01*
X513230000Y-326810000D02*
X519360000Y-325520000D01*
X255900000Y-97760000D02*
X271150000Y-96490000D01*
X81440000Y-459720000D02*
X83850000Y-469540000D01*
X1203690000Y-140310000D02*
X1230580000Y-141930000D01*
X957100000Y-342870000D02*
X969320000Y-345230000D01*
X817360000Y-609010000D02*
X825610000Y-628770000D01*
X934790000Y-579330000D02*
X922300000Y-559450000D01*
X416480000Y-414060000D02*
X430180000Y-405750000D01*
X1246880000Y-481420000D02*
X1275870000Y-500010000D01*
X1246880000Y-365150000D02*
X1243190000Y-363350000D01*
X1180280000Y-323030000D02*
X1178420000Y-322170000D01*
X265070000Y-523530000D02*
X286980000Y-499850000D01*
X928270000Y-157250000D02*
X945570000Y-151560000D01*
X1214280000Y-185540000D02*
X1215420000Y-185480000D01*
X1162380000Y-286410000D02*
X1158030000Y-284150000D01*
X1146650000Y-131220000D02*
X1170550000Y-130300000D01*
X55620000Y-164200000D02*
X54720000Y-169650000D01*
X477720000Y-117800000D02*
X477840000Y-117820000D01*
X1168000000Y-67030000D02*
X1148670000Y-67030000D01*
X286980000Y-453320000D02*
X309020000Y-433240000D01*
X1348350000Y-613940000D02*
X1348440000Y-614020000D01*
X211730000Y-308810000D02*
X185140000Y-287480000D01*
X574200000Y-85240000D02*
X536400000Y-84350000D01*
X1444280000Y-163340000D02*
X1444280000Y-131470000D01*
X925800000Y-85250000D02*
X924150000Y-85330000D01*
X69660000Y-544260000D02*
X80810000Y-573250000D01*
X204080000Y-113160000D02*
X209110000Y-112480000D01*
X931390000Y-660250000D02*
X923400000Y-639900000D01*
X527180000Y-370240000D02*
X543680000Y-367860000D01*
X1222680000Y-60460000D02*
X1210820000Y-60190000D01*
X234870000Y-467300000D02*
X253120000Y-458710000D01*
X605890000Y-69940000D02*
X583270000Y-69460000D01*
X860990000Y-263010000D02*
X831450000Y-259520000D01*
X839340000Y-97580000D02*
X854700000Y-96880000D01*
X1255970000Y-589220000D02*
X1267670000Y-606390000D01*
X1179170000Y-706710000D02*
X1175230000Y-708850000D01*
X946960000Y-253120000D02*
X944790000Y-252530000D01*
X179100000Y-551930000D02*
X185420000Y-551940000D01*
X825610000Y-628770000D02*
X825030000Y-648190000D01*
X386790000Y-458180000D02*
X396290000Y-448660000D01*
X984820000Y-83850000D02*
X964160000Y-84320000D01*
X1052650000Y-335080000D02*
X1071820000Y-342860000D01*
X1257700000Y-53730000D02*
X1253560000Y-53470000D01*
X66920000Y-139750000D02*
X66920000Y-159230000D01*
X209240000Y-122000000D02*
X228490000Y-117470000D01*
X1112640000Y-277140000D02*
X1091890000Y-267230000D01*
X1098640000Y-548190000D02*
X1099910000Y-562190000D01*
X979760000Y-259340000D02*
X946960000Y-253120000D01*
X1248940000Y-315350000D02*
X1234440000Y-313080000D01*
X1236120000Y-627160000D02*
X1235300000Y-639980000D01*
X1158030000Y-284150000D02*
X1153840000Y-282360000D01*
X219270000Y-697660000D02*
X214360000Y-694480000D01*
X1445510000Y-280750000D02*
X1445510000Y-247020000D01*
X793980000Y-108850000D02*
X822160000Y-107930000D01*
X266450000Y-664570000D02*
X264700000Y-639980000D01*
X416390000Y-359700000D02*
X422280000Y-356690000D01*
X1058490000Y-384530000D02*
X1059670000Y-385120000D01*
X879890000Y-592360000D02*
X871930000Y-579170000D01*
X434880000Y-219270000D02*
X422280000Y-224210000D01*
X521250000Y-447220000D02*
X554111524Y-454682384D01*
X264850000Y-471040000D02*
X282900000Y-455990000D01*
X1181660000Y-308940000D02*
X1166200000Y-302570000D01*
X1009900000Y-738910000D02*
X995350000Y-738910000D01*
X750000000Y-356100000D02*
X760000000Y-379510000D01*
X303090000Y-285560000D02*
X299230000Y-287220000D01*
X533740000Y-291100000D02*
X503200000Y-297380000D01*
X324810000Y-708830000D02*
X320830000Y-706660000D01*
X287260000Y-367260000D02*
X271380000Y-373120000D01*
X1173610000Y-224695900D02*
X1111360000Y-206540000D01*
X344120000Y-88130000D02*
X377760000Y-88730000D01*
X109900000Y-248930000D02*
X109750000Y-239880000D01*
X156420000Y-300180000D02*
X151560000Y-287590000D01*
X1223380000Y-244560000D02*
X1208450000Y-243570000D01*
X355080000Y-469550000D02*
X360350000Y-463170000D01*
X625330000Y-633360000D02*
X628510000Y-619680000D01*
X697110000Y-684480000D02*
X673280000Y-655250000D01*
X705990000Y-465170000D02*
X682550000Y-474220000D01*
X1348620000Y-380660000D02*
X1348440000Y-380900000D01*
X716330000Y-718040000D02*
X713530000Y-717260000D01*
X545460000Y-572210000D02*
X532790000Y-592820000D01*
X1113450000Y-362920000D02*
X1117570000Y-365530000D01*
X753900000Y-314050000D02*
X785300000Y-314580000D01*
X157720000Y-260760000D02*
X154660000Y-229620000D01*
X805630000Y-79160000D02*
X771960000Y-79480000D01*
X1170550000Y-130300000D02*
X1184680000Y-129720000D01*
X1330840000Y-54300000D02*
X1296780000Y-54300000D01*
X431330000Y-307670000D02*
X400480000Y-320710000D01*
X1228850000Y-96490000D02*
X1244100000Y-97760000D01*
X75250000Y-115920000D02*
X66920000Y-139750000D01*
X450270000Y-233320000D02*
X431700000Y-240600000D01*
X1425270000Y-424680000D02*
X1425270000Y-414200000D01*
X991350000Y-404170000D02*
X1007230000Y-409500000D01*
X224970000Y-83800000D02*
X224540000Y-83850000D01*
X733390000Y-88790000D02*
X727760000Y-88730000D01*
X1097970000Y-53530000D02*
X1063140000Y-53530000D01*
X880970000Y-689310000D02*
X882620000Y-695580000D01*
X541750000Y-93660000D02*
X568990000Y-94310000D01*
X918560000Y-230490000D02*
X889290000Y-224800000D01*
X1214350000Y-338040000D02*
X1180280000Y-323030000D01*
X948460000Y-396290000D02*
X974420000Y-401580000D01*
X199890000Y-430570000D02*
X185420000Y-430200000D01*
X507390000Y-101560000D02*
X525710000Y-101970000D01*
X647660000Y-630330000D02*
X649800000Y-621120000D01*
X320830000Y-486170000D02*
X325180000Y-480270000D01*
X1140830000Y-53390000D02*
X1136910000Y-53450000D01*
X750000000Y-42016488D02*
X750000000Y-54190000D01*
X1115720000Y-438750000D02*
X1123690000Y-446440000D01*
X309420000Y-297670000D02*
X286710000Y-307460000D01*
X111960000Y-75110000D02*
X107500000Y-75110000D01*
X555990000Y-252360000D02*
X555220000Y-252530000D01*
X120710000Y-398280000D02*
X125180000Y-404290000D01*
X1038560000Y-286980000D02*
X1008080000Y-277740000D01*
X1304080000Y-406030000D02*
X1280730000Y-409010000D01*
X831750000Y-246200000D02*
X823170000Y-245100000D01*
X979460000Y-565470000D02*
X974710000Y-557200000D01*
X1342060000Y-96450000D02*
X1316850000Y-90630000D01*
X858860000Y-131290000D02*
X873520000Y-129630000D01*
X550950000Y-380520000D02*
X561140000Y-378820000D01*
X699090000Y-341750000D02*
X722980000Y-341500000D01*
X274200000Y-169520000D02*
X293560000Y-167610000D01*
X900790000Y-312530000D02*
X909610000Y-313770000D01*
X1178420000Y-322170000D02*
X1178250000Y-322080000D01*
X548160000Y-648690000D02*
X529370000Y-669570000D01*
X447130000Y-335190000D02*
X474760000Y-326080000D01*
X393020000Y-105560000D02*
X406790000Y-105890000D01*
X1282020000Y-288630000D02*
X1267540000Y-294780000D01*
X1178250000Y-322080000D02*
X1177940000Y-321920000D01*
X1164080000Y-73850000D02*
X1152590000Y-73850000D01*
X942440000Y-455750000D02*
X942440000Y-455750000D01*
X1398110000Y-197550000D02*
X1399280000Y-215720000D01*
X168740000Y-370690000D02*
X151560000Y-352490000D01*
X1280780000Y-332040000D02*
X1266720000Y-333170000D01*
X603400000Y-169830000D02*
X615600000Y-175890000D01*
X506220000Y-388370000D02*
X515210000Y-386010000D01*
X1430340000Y-527960000D02*
X1436140000Y-508710000D01*
X616870000Y-359880000D02*
X651090000Y-357630000D01*
X459770000Y-421660000D02*
X462120000Y-420520000D01*
X1131240000Y-104390000D02*
X1146700000Y-104110000D01*
X727760000Y-88730000D02*
X694240000Y-88330000D01*
X1384970000Y-479310000D02*
X1386040000Y-475630000D01*
X861740000Y-597690000D02*
X872540000Y-623200000D01*
X1234900000Y-523550000D02*
X1246880000Y-538590000D01*
X1193200000Y-586380000D02*
X1199410000Y-606070000D01*
X1086370000Y-415760000D02*
X1113160000Y-436710000D01*
X961310000Y-223760000D02*
X940530000Y-219270000D01*
X776800000Y-71050000D02*
X760000000Y-71050000D01*
X988010000Y-261270000D02*
X979760000Y-259340000D01*
X337780000Y-286330000D02*
X309420000Y-297670000D01*
X750820000Y-457680000D02*
X749180000Y-457680000D01*
X392220000Y-674340000D02*
X388540000Y-673770000D01*
X231790000Y-349660000D02*
X219780000Y-351320000D01*
X655800000Y-78590000D02*
X649750000Y-78590000D01*
X367290000Y-286860000D02*
X348110000Y-295210000D01*
X790130000Y-119870000D02*
X827670000Y-117890000D01*
X1314580000Y-313920000D02*
X1308710000Y-318830000D01*
X141740000Y-297140000D02*
X134760000Y-273540000D01*
X532790000Y-592820000D02*
X529020000Y-598560000D01*
X1059030000Y-53620000D02*
X1024300000Y-53620000D01*
X678690000Y-377280000D02*
X705670000Y-379060000D01*
X632630000Y-251890000D02*
X626390000Y-253120000D01*
X165420000Y-116620000D02*
X167590000Y-115400000D01*
X512590000Y-110610000D02*
X520640000Y-110790000D01*
X760033690Y-746007504D02*
X765000000Y-746007504D01*
X867220000Y-319870000D02*
X876330000Y-320830000D01*
X562260000Y-61670000D02*
X549010000Y-61400000D01*
X213300000Y-649350000D02*
X219270000Y-639500000D01*
X548410000Y-265570000D02*
X526230000Y-269770000D01*
X1441480000Y-95210000D02*
X1431950000Y-80620000D01*
X836180000Y-306200000D02*
X859290000Y-307990000D01*
X1146500000Y-496540000D02*
X1148230000Y-498900000D01*
X422390000Y-740530000D02*
X405040000Y-740520000D01*
X655710000Y-689160000D02*
X651870000Y-684990000D01*
X154660000Y-229620000D02*
X154790000Y-224010000D01*
X1249410000Y-244530000D02*
X1223380000Y-244560000D01*
X1189320000Y-232950000D02*
X1173610000Y-224700000D01*
X82610000Y-66950000D02*
X82610000Y-66950000D01*
X303690000Y-506820000D02*
X320830000Y-486170000D01*
X1079300000Y-289140000D02*
X1072690000Y-286980000D01*
X1331380000Y-115190000D02*
X1355140000Y-130810000D01*
X871240000Y-490510000D02*
X857960000Y-471400000D01*
X1075400000Y-74870000D02*
X1046480000Y-75480000D01*
X523220000Y-61400000D02*
X510260000Y-61160000D01*
X310700000Y-232490000D02*
X285430000Y-247950000D01*
X1348440000Y-475540000D02*
X1360310000Y-465150000D01*
X305110000Y-87910000D02*
X339290000Y-87990000D01*
X1050820000Y-253120000D02*
X1028020000Y-243020000D01*
X1246880000Y-399050000D02*
X1236690000Y-394090000D01*
X726550000Y-158530000D02*
X735240000Y-159710000D01*
X875690000Y-707590000D02*
X865890000Y-725340000D01*
X670070000Y-117710000D02*
X672140000Y-117860000D01*
X997180000Y-660080000D02*
X976050000Y-642440000D01*
X523950000Y-735320000D02*
X504620000Y-738890000D01*
X749710000Y-740320000D02*
X731690000Y-740340000D01*
X492520000Y-92040000D02*
X502190000Y-92500000D01*
X927130000Y-418680000D02*
X959370000Y-417380000D01*
X1377370000Y-441710000D02*
X1380730000Y-437990000D01*
X439670000Y-151560000D02*
X455790000Y-155980000D01*
X543490000Y-299820000D02*
X570200000Y-295340000D01*
X115030000Y-479310000D02*
X117710000Y-483650000D01*
X145570000Y-267330000D02*
X144680000Y-259940000D01*
X1152090000Y-360430000D02*
X1140650000Y-353330000D01*
X1003640000Y-288470000D02*
X1002140000Y-288090000D01*
X426870000Y-274040000D02*
X414540000Y-278430000D01*
X375040000Y-718860000D02*
X354690000Y-714850000D01*
X663830000Y-306220000D02*
X681510000Y-304660000D01*
X1239270000Y-89350000D02*
X1270570000Y-91560000D01*
X1436460000Y-275560000D02*
X1436460000Y-252220000D01*
X290800000Y-495030000D02*
X311190000Y-472240000D01*
X1060660000Y-210059500D02*
X965390000Y-187630000D01*
X1244590000Y-479090000D02*
X1246880000Y-481420000D01*
X839500000Y-70420000D02*
X815820000Y-70820000D01*
X1043750000Y-650860000D02*
X1024240000Y-644540000D01*
X1115530000Y-291790000D02*
X1103790000Y-287170000D01*
X558390000Y-482522600D02*
X558680000Y-488640000D01*
X596720000Y-53970000D02*
X592220000Y-53870000D01*
X928270000Y-157250000D02*
X945570000Y-151560000D01*
X1216570000Y-308600000D02*
X1209880000Y-305650000D01*
X842350000Y-295460000D02*
X852550000Y-296250000D01*
X549970000Y-330560000D02*
X560330000Y-329150000D01*
X772482304Y-599466248D02*
X760228072Y-599466248D01*
X1146700000Y-104110000D02*
X1169600000Y-103460000D01*
X354720000Y-495060000D02*
X373600000Y-472220000D01*
X823170000Y-245100000D02*
X795190000Y-242150000D01*
X799190000Y-135640000D02*
X818050000Y-134640000D01*
X421410000Y-653340000D02*
X388540000Y-640500000D01*
X910480000Y-672250000D02*
X910290000Y-671770000D01*
X1355140000Y-130810000D02*
X1366050000Y-141240000D01*
X986770000Y-326810000D02*
X1014720000Y-333890000D01*
X1292300000Y-53730000D02*
X1257700000Y-53730000D01*
X151560000Y-352490000D02*
X146670000Y-344480000D01*
X742640000Y-240310000D02*
X717940000Y-241230000D01*
X394030000Y-60400000D02*
X367080000Y-60400000D01*
X799870000Y-98590000D02*
X816490000Y-98050000D01*
X811630000Y-281240000D02*
X845730000Y-284370000D01*
X857550000Y-219270000D02*
X849170000Y-215880000D01*
X1391550000Y-366430000D02*
X1393540000Y-354650000D01*
X974710000Y-557200000D02*
X965160000Y-543250000D01*
X478120000Y-607440000D02*
X456250000Y-617550000D01*
X617380000Y-661350000D02*
X620960000Y-649870000D01*
X54420000Y-208090000D02*
X54420000Y-241910000D01*
X241110000Y-548660000D02*
X253120000Y-538540000D01*
X576440000Y-561410000D02*
X561570000Y-585990000D01*
X578060000Y-349360000D02*
X609350000Y-346780000D01*
X1152590000Y-73850000D02*
X1124940000Y-74290000D01*
X151100000Y-87560000D02*
X141530000Y-92960000D01*
X1323650000Y-482980000D02*
X1348440000Y-475540000D01*
X1343650000Y-300030000D02*
X1336880000Y-309420000D01*
X635670000Y-54060000D02*
X631060000Y-53970000D01*
X1077560000Y-356490000D02*
X1079030000Y-357230000D01*
X260730000Y-89350000D02*
X266760000Y-88850000D01*
X267970000Y-294340000D02*
X257240000Y-296900000D01*
X1324660000Y-328010000D02*
X1314580000Y-337690000D01*
X919360000Y-161390000D02*
X928270000Y-157250000D01*
X502190000Y-92500000D02*
X530770000Y-93150000D01*
X495650000Y-253120000D02*
X479850000Y-256740000D01*
X1089800000Y-67760000D02*
X1071310000Y-67760000D01*
X414180000Y-609170000D02*
X398680000Y-588620000D01*
X1193990000Y-313860000D02*
X1181660000Y-308940000D01*
X439940000Y-115870000D02*
X476440000Y-117710000D01*
X663680000Y-537750000D02*
X648460000Y-551170000D01*
X932210000Y-139020000D02*
X955200000Y-136430000D01*
X406790000Y-105890000D02*
X432890000Y-107270000D01*
X1136080000Y-257210000D02*
X1127400000Y-253580000D01*
X973330000Y-135130000D02*
X992150000Y-133060000D01*
X1266720000Y-333170000D02*
X1248240000Y-332460000D01*
X1208450000Y-243570000D02*
X1189320000Y-232950000D01*
X449340000Y-68190000D02*
X428690000Y-67760000D01*
X760580000Y-302410000D02*
X778480000Y-302710000D01*
X122110000Y-100350000D02*
X110790000Y-111790000D01*
X179000000Y-166500000D02*
X179000000Y-166500000D01*
X918400000Y-140070000D02*
X932210000Y-139020000D01*
X501700000Y-76060000D02*
X492750000Y-76060000D01*
X639500000Y-535050000D02*
X621220000Y-558090000D01*
X1063070000Y-436780000D02*
X1081070000Y-449840000D01*
X134450000Y-123580000D02*
X147200000Y-114520000D01*
X125180000Y-404290000D02*
X138370000Y-427020000D01*
X1104380000Y-370560000D02*
X1117070000Y-378600000D01*
X899900000Y-127550000D02*
X910500000Y-126310000D01*
X1324000000Y-102700000D02*
X1336370000Y-105550000D01*
X1134380000Y-177560000D02*
X1144470000Y-175690000D01*
X1061720000Y-700790000D02*
X1043750000Y-699530000D01*
X713520000Y-54190000D02*
X708730000Y-54140000D01*
X1248860000Y-173920000D02*
X1258830000Y-177230000D01*
X1025430000Y-315250000D02*
X1043110000Y-321140000D01*
X321680000Y-671740000D02*
X320830000Y-670400000D01*
X531970000Y-76640000D02*
X501700000Y-76060000D01*
X319060000Y-515650000D02*
X320830000Y-513510000D01*
X271150000Y-96490000D02*
X295890000Y-95850000D01*
X688380000Y-281260000D02*
X695270000Y-280710000D01*
X420520000Y-81990000D02*
X418370000Y-81990000D01*
X133960000Y-81100000D02*
X115350000Y-88180000D01*
X1400340000Y-124310000D02*
X1390610000Y-113990000D01*
X1246550000Y-133390000D02*
X1266900000Y-137740000D01*
X785300000Y-314580000D02*
X792290000Y-314910000D01*
X979780000Y-314650000D02*
X986130000Y-315960000D01*
X66880000Y-351420000D02*
X70110000Y-372660000D01*
X892280000Y-464635800D02*
X941610000Y-479940000D01*
X1121780000Y-280960000D02*
X1112640000Y-277140000D01*
X1043340000Y-185420000D02*
X1057820000Y-179680000D01*
X1348440000Y-322610000D02*
X1339350000Y-336440000D01*
X259000000Y-143060000D02*
X269410000Y-141950000D01*
X1386040000Y-475630000D02*
X1399530000Y-448790000D01*
X240040000Y-178020000D02*
X250450000Y-174520000D01*
X1266120000Y-99320000D02*
X1285460000Y-102950000D01*
X777940000Y-136770000D02*
X799190000Y-135640000D01*
X1206910000Y-66990000D02*
X1187540000Y-66990000D01*
X907780000Y-53870000D02*
X903280000Y-53970000D01*
X786140000Y-528740000D02*
X793550000Y-532070000D01*
X83850000Y-382490000D02*
X90590000Y-415580000D01*
X1126740000Y-96560000D02*
X1151290000Y-96120000D01*
X1093890000Y-60650000D02*
X1067230000Y-60650000D01*
X942342953Y-491861567D02*
X942480000Y-491770000D01*
X454450000Y-408310000D02*
X471730000Y-400180000D01*
X933270000Y-69460000D02*
X916730000Y-69460000D01*
X1185980000Y-103430000D02*
X1208630000Y-103720000D01*
X1055280000Y-107560000D02*
X1067110000Y-107270000D01*
X286980000Y-529720000D02*
X303690000Y-506820000D01*
X97020000Y-310340000D02*
X99870000Y-332460000D01*
X854370000Y-636490000D02*
X852710000Y-668460000D01*
X857960000Y-471400000D02*
X836940000Y-456250000D01*
X995090000Y-583430000D02*
X979460000Y-565470000D01*
X330650000Y-151560000D02*
X341240000Y-152310000D01*
X397170000Y-258230000D02*
X370720000Y-269210000D01*
X354800000Y-429320000D02*
X358790000Y-425430000D01*
X405040000Y-740520000D02*
X388540000Y-739820000D01*
X1314580000Y-515720000D02*
X1317010000Y-515280000D01*
X505980000Y-68610000D02*
X488470000Y-68610000D01*
X1218070000Y-120150000D02*
X1252080000Y-123750000D01*
X285430000Y-247950000D02*
X281990000Y-247880000D01*
X1404850000Y-179690000D02*
X1401250000Y-158630000D01*
X469300000Y-306070000D02*
X442170000Y-315120000D01*
X970500000Y-597560000D02*
X961910000Y-584750000D01*
X1368240000Y-215750000D02*
X1369100000Y-236910000D01*
X1300640000Y-586440000D02*
X1312110000Y-595860000D01*
X1084030000Y-399570000D02*
X1099670000Y-409440000D01*
X1113700000Y-351120000D02*
X1120280000Y-354280000D01*
X452230000Y-140940000D02*
X463940000Y-141800000D01*
X1009900000Y-667010000D02*
X997180000Y-660080000D01*
X1029170000Y-129800000D02*
X1055270000Y-127880000D01*
X897180000Y-335410000D02*
X914760000Y-336860000D01*
X765492496Y-746500000D02*
X765000000Y-746007504D01*
X1205800000Y-167550000D02*
X1225240000Y-169450000D01*
X447130000Y-396650000D02*
X466250000Y-387650000D01*
X321990000Y-321940000D02*
X286100000Y-337850000D01*
X1107780000Y-674330000D02*
X1077610000Y-678340000D01*
X736030000Y-567340000D02*
X750000000Y-567330000D01*
X771670000Y-290850000D02*
X805190000Y-292450000D01*
X812770000Y-566520000D02*
X831030000Y-585290000D01*
X1214730000Y-53380000D02*
X1179720000Y-53380000D01*
X1060210000Y-740550000D02*
X1043750000Y-740120000D01*
X1183430000Y-519110000D02*
X1198930000Y-544200000D01*
X388540000Y-719650000D02*
X375040000Y-718860000D01*
X1292260000Y-176960000D02*
X1294250000Y-178180000D01*
X1021350000Y-382830000D02*
X1030130000Y-386200000D01*
X282900000Y-455990000D02*
X286980000Y-453320000D01*
X83320000Y-187340000D02*
X83260000Y-187640000D01*
X1218660000Y-53470000D02*
X1214730000Y-53380000D01*
X668720000Y-585200000D02*
X685710000Y-567960000D01*
X463130000Y-227610000D02*
X450270000Y-233320000D01*
X1169600000Y-103460000D02*
X1185980000Y-103430000D01*
X882620000Y-695580000D02*
X875690000Y-707590000D01*
X1162340000Y-339710000D02*
X1140310000Y-328780000D01*
X1427420000Y-270360000D02*
X1427420000Y-257410000D01*
X282910000Y-186080000D02*
X282910000Y-186080000D01*
X717340000Y-739430000D02*
X696580000Y-737750000D01*
X626690000Y-106140000D02*
X639790000Y-106470000D01*
X1167340000Y-587650000D02*
X1167350000Y-601230000D01*
X1390120000Y-248940000D02*
X1386800000Y-280740000D01*
X1301090000Y-105080000D02*
X1330020000Y-114410000D01*
X1319850000Y-147640000D02*
X1335850000Y-162710000D01*
X1106980000Y-105560000D02*
X1131240000Y-104390000D01*
X844680000Y-494540000D02*
X836860000Y-490100000D01*
X813620000Y-499310000D02*
X805650000Y-494780000D01*
X117710000Y-350300000D02*
X110590000Y-326310000D01*
X1007250000Y-76060000D02*
X998300000Y-76060000D01*
X1386470000Y-89310000D02*
X1374840000Y-84980000D01*
X627920000Y-397970000D02*
X642190000Y-403950000D01*
X1184680000Y-129720000D02*
X1209520000Y-130150000D01*
X1236690000Y-394090000D02*
X1214100000Y-383030000D01*
X557890000Y-286980000D02*
X538020000Y-290310000D01*
X665040000Y-511460000D02*
X652080000Y-523950000D01*
X654610000Y-357870000D02*
X690600000Y-356540000D01*
X449950000Y-301570000D02*
X431330000Y-307670000D01*
X1421580000Y-70240000D02*
X1406260000Y-58440000D01*
X489350000Y-354690000D02*
X496050000Y-352650000D01*
X263290000Y-561400000D02*
X276620000Y-542060000D01*
X1148570000Y-400120000D02*
X1163800000Y-410870000D01*
X1010420000Y-601200000D02*
X995090000Y-583430000D01*
X1392890000Y-172900000D02*
X1398110000Y-197550000D01*
X1369630000Y-548280000D02*
X1382290000Y-539840000D01*
X812890000Y-737810000D02*
X800720000Y-737830000D01*
X963520000Y-625500000D02*
X951470000Y-607870000D01*
X339840000Y-80680000D02*
X304640000Y-80610000D01*
X1378980000Y-209470000D02*
X1380360000Y-243340000D01*
X1280730000Y-351220000D02*
X1267140000Y-349470000D01*
X552450000Y-112290000D02*
X558580000Y-112440000D01*
X965160000Y-543250000D02*
X958330000Y-526350000D01*
X428690000Y-67760000D02*
X410200000Y-67760000D01*
X281930000Y-120160000D02*
X284640000Y-119990000D01*
X303420000Y-150450000D02*
X330650000Y-151560000D01*
X154520000Y-139410000D02*
X154520000Y-139410000D01*
X1179170000Y-551410000D02*
X1181060000Y-554470000D01*
X942190000Y-724940000D02*
X920190000Y-704310000D01*
X596350000Y-490000000D02*
X584050000Y-506140000D01*
X1295050000Y-178910000D02*
X1297730000Y-183190000D01*
X1360310000Y-465150000D02*
X1377370000Y-441710000D01*
X1280060000Y-140810000D02*
X1298620000Y-148650000D01*
X456250000Y-617550000D02*
X428120000Y-617180000D01*
X1179860000Y-425020000D02*
X1190190000Y-432560000D01*
X315760000Y-309790000D02*
X300200000Y-316490000D01*
X124330000Y-326030000D02*
X121520000Y-320030000D01*
X110640000Y-211710000D02*
X111070000Y-204990000D01*
X911820000Y-377640000D02*
X938870000Y-378830000D01*
X485880000Y-267240000D02*
X466250000Y-273200000D01*
X100120000Y-234340000D02*
X100680000Y-216650000D01*
X1102220000Y-113830000D02*
X1135740000Y-112220000D01*
X422390000Y-700990000D02*
X407300000Y-700330000D01*
X976050000Y-642440000D02*
X970790000Y-636560000D01*
X366190000Y-325090000D02*
X357750000Y-329720000D01*
X94150000Y-296870000D02*
X97020000Y-310340000D01*
X1248930000Y-106170000D02*
X1261670000Y-107070000D01*
X665190000Y-62240000D02*
X640360000Y-62240000D01*
X883140000Y-359860000D02*
X888990000Y-359700000D01*
X219460000Y-369940000D02*
X186350000Y-360620000D01*
X496360000Y-288470000D02*
X464020000Y-296880000D01*
X868940000Y-53970000D02*
X864330000Y-54060000D01*
X546950000Y-238140000D02*
X521250000Y-245140000D01*
X984900000Y-120440000D02*
X1022160000Y-117810000D01*
X1130200000Y-132830000D02*
X1146650000Y-131220000D01*
X1260760000Y-719090000D02*
X1246880000Y-722030000D01*
X985460000Y-53700000D02*
X981160000Y-53780000D01*
X526680000Y-135130000D02*
X544800000Y-136430000D01*
X193150000Y-71600000D02*
X179070000Y-71600000D01*
X352980000Y-357370000D02*
X331620000Y-369720000D01*
X941610000Y-479936400D02*
X941710000Y-459680000D01*
X515100000Y-120440000D02*
X518450000Y-120810000D01*
X805650000Y-494780000D02*
X788740000Y-490100000D01*
X429350000Y-497490000D02*
X450780000Y-477690000D01*
X695270000Y-280710000D02*
X726080000Y-279180000D01*
X363910000Y-608590000D02*
X363930000Y-580310000D01*
X1401720000Y-505510000D02*
X1409260000Y-493270000D01*
X1147810000Y-534680000D02*
X1150180000Y-538900000D01*
X619090000Y-345640000D02*
X646830000Y-344340000D01*
X1181060000Y-554470000D02*
X1182830000Y-557660000D01*
X810400000Y-711710000D02*
X784770000Y-717760000D01*
X632930000Y-186110000D02*
X601640000Y-197950000D01*
X457730000Y-288020000D02*
X426010000Y-298420000D01*
X611780000Y-610780000D02*
X603050000Y-630390000D01*
X368820000Y-738670000D02*
X354690000Y-738670000D01*
X161230000Y-269910000D02*
X157720000Y-260760000D01*
X147060000Y-195800000D02*
X148110000Y-190730000D01*
X209540000Y-658370000D02*
X209540000Y-658370000D01*
X1021250000Y-607370000D02*
X1010420000Y-601200000D01*
X341640000Y-284350000D02*
X337780000Y-286330000D01*
X422440000Y-506470000D02*
X425250000Y-502740000D01*
X1117570000Y-365530000D02*
X1146970000Y-383750000D01*
X1178730000Y-119360000D02*
X1215360000Y-119980000D01*
X1215460000Y-323320000D02*
X1193990000Y-313860000D01*
X339630000Y-566350000D02*
X349730000Y-538960000D01*
X619040000Y-499070000D02*
X601250000Y-523880000D01*
X663110000Y-456250000D02*
X642060000Y-471440000D01*
X945590000Y-318830000D02*
X956370000Y-320830000D01*
X717390000Y-650220000D02*
X726640000Y-658550000D01*
X490100000Y-716190000D02*
X470890000Y-719520000D01*
X490690000Y-366540000D02*
X502280000Y-363500000D01*
X457580000Y-353380000D02*
X459440000Y-352760000D01*
X1090070000Y-253120000D02*
X1068300000Y-240600000D01*
X639760000Y-332020000D02*
X667210000Y-329560000D01*
X402160000Y-113940000D02*
X437810000Y-115820000D01*
X1191450000Y-73800000D02*
X1164080000Y-73850000D01*
X1024440000Y-738910000D02*
X1009900000Y-738910000D01*
X1270660000Y-76290000D02*
X1241520000Y-74440000D01*
X56596267Y-62117394D02*
X76697173Y-42016488D01*
X151560000Y-287590000D02*
X145570000Y-267330000D01*
X1412030000Y-116390000D02*
X1390650000Y-93740000D01*
X90990000Y-259790000D02*
X91900000Y-268510000D01*
X976650000Y-606570000D02*
X970500000Y-597560000D01*
X482670000Y-109200000D02*
X512590000Y-110610000D01*
X999400000Y-145680000D02*
X1006440000Y-145180000D01*
X719320000Y-199710000D02*
X701240000Y-202600000D01*
X364370000Y-569440000D02*
X373050000Y-546660000D01*
X119870000Y-245690000D02*
X119670000Y-243400000D01*
X297280000Y-464250000D02*
X321100000Y-441630000D01*
X491650000Y-409660000D02*
X507730000Y-404250000D01*
X1348700000Y-614040000D02*
X1382290000Y-615770000D01*
X388540000Y-697450000D02*
X356410000Y-690680000D01*
X239400000Y-718990000D02*
X219270000Y-697660000D01*
X106460000Y-354650000D02*
X108450000Y-366430000D01*
X1298620000Y-148650000D02*
X1307640000Y-154170000D01*
X423070000Y-90160000D02*
X454270000Y-90930000D01*
X639020000Y-263020000D02*
X626770000Y-264550000D01*
X1159500000Y-738700000D02*
X1145310000Y-738700000D01*
X75250000Y-104420000D02*
X75250000Y-115920000D01*
X530680000Y-345230000D02*
X542890000Y-342870000D01*
X1012410000Y-100620000D02*
X1032300000Y-100160000D01*
X250450000Y-60460000D02*
X237980000Y-61250000D01*
X987410000Y-110610000D02*
X1017330000Y-109190000D01*
X1041260000Y-287680000D02*
X1038560000Y-286980000D01*
X92530000Y-193420000D02*
X90710000Y-221600000D01*
X1280730000Y-389100000D02*
X1270940000Y-386180000D01*
X63310000Y-213200000D02*
X63310000Y-236800000D01*
X434370000Y-177540000D02*
X442180000Y-179690000D01*
X1262020000Y-61250000D02*
X1249550000Y-60460000D01*
X392950000Y-414610000D02*
X410860000Y-402810000D01*
X449190000Y-253120000D02*
X440340000Y-255660000D01*
X1314580000Y-405760000D02*
X1304080000Y-406030000D01*
X328090000Y-60210000D02*
X316370000Y-60190000D01*
X1408660000Y-345960000D02*
X1410840000Y-338620000D01*
X543650000Y-320830000D02*
X554410000Y-318840000D01*
X898470000Y-376200000D02*
X911820000Y-377640000D01*
X964160000Y-84320000D02*
X963600000Y-84350000D01*
X654270000Y-284390000D02*
X688380000Y-281260000D01*
X760000000Y-71050000D02*
X750000000Y-79480000D01*
X801070000Y-557810000D02*
X806670000Y-560830000D01*
X1009900000Y-693120000D02*
X1008170000Y-692660000D01*
X887270000Y-450562800D02*
X891800000Y-432290000D01*
X246440000Y-53470000D02*
X242300000Y-53730000D01*
X1099670000Y-409440000D02*
X1114500000Y-421040000D01*
X394300000Y-371410000D02*
X416390000Y-359700000D01*
X171940000Y-173480000D02*
X179000000Y-166500000D01*
X1397460000Y-274620000D02*
X1396130000Y-291280000D01*
X1152330000Y-321980000D02*
X1139990000Y-315610000D01*
X1133400000Y-287150000D02*
X1121780000Y-280960000D01*
X1354720000Y-146010000D02*
X1358140000Y-152570000D01*
X939670000Y-329150000D02*
X950030000Y-330560000D01*
X1246880000Y-578600000D02*
X1255970000Y-589220000D01*
X816200000Y-544120000D02*
X832140000Y-557940000D01*
X1284720000Y-202050000D02*
X1291900000Y-215320000D01*
X1065640000Y-177540000D02*
X1090080000Y-168140000D01*
X989880000Y-387170000D02*
X1014300000Y-395360000D01*
X316500000Y-519160000D02*
X319060000Y-515650000D01*
X1071830000Y-466660000D02*
X1081560000Y-475990000D01*
X1314580000Y-484660000D02*
X1323650000Y-482980000D01*
X494460000Y-320830000D02*
X513870000Y-315960000D01*
X1096220000Y-124290000D02*
X1103290000Y-123440000D01*
X388540000Y-640500000D02*
X382040000Y-637070000D01*
X373440000Y-253120000D02*
X363560000Y-257230000D01*
X836520000Y-132920000D02*
X858860000Y-131290000D01*
X1248240000Y-332460000D02*
X1237520000Y-328850000D01*
X852650000Y-677320000D02*
X843910000Y-688290000D01*
X750000000Y-109320000D02*
X760000000Y-99060000D01*
X456250000Y-720440000D02*
X439240000Y-720880000D01*
X108200000Y-166320000D02*
X113190000Y-154930000D01*
X810810000Y-88170000D02*
X805760000Y-88330000D01*
X355890000Y-368630000D02*
X378060000Y-355650000D01*
X225030000Y-83800000D02*
X224970000Y-83800000D01*
X638680000Y-597710000D02*
X642620000Y-589770000D01*
X89350000Y-114960000D02*
X85020000Y-128310000D01*
X58210000Y-404710000D02*
X58210000Y-434180000D01*
X1416460000Y-380740000D02*
X1416460000Y-380380000D01*
X290480000Y-130150000D02*
X315320000Y-129720000D01*
X349330000Y-346480000D02*
X320880000Y-362910000D01*
X628510000Y-619680000D02*
X638680000Y-597710000D01*
X1405310000Y-82220000D02*
X1396500000Y-75430000D01*
X919360000Y-161390000D02*
X928270000Y-157250000D01*
X1076430000Y-653460000D02*
X1043750000Y-650860000D01*
X561320000Y-263160000D02*
X548410000Y-265570000D01*
X154790000Y-224010000D02*
X160380000Y-197160000D01*
X714700000Y-314580000D02*
X746100000Y-314050000D01*
X1089110000Y-136680000D02*
X1109480000Y-134220000D01*
X811030000Y-79160000D02*
X805630000Y-79160000D01*
X1167880000Y-254430000D02*
X1146940000Y-238970000D01*
X674600000Y-54140000D02*
X669890000Y-54060000D01*
X1124650000Y-396690000D02*
X1147190000Y-414190000D01*
X490100000Y-666990000D02*
X463090000Y-676160000D01*
X55600000Y-357890000D02*
X56670000Y-364940000D01*
X792290000Y-314910000D02*
X825310000Y-316530000D01*
X1339350000Y-336440000D02*
X1314580000Y-360230000D01*
X219980000Y-264410000D02*
X206710000Y-233150000D01*
X1321710000Y-191640000D02*
X1326760000Y-201880000D01*
X1290700000Y-112530000D02*
X1296230000Y-113280000D01*
X552380000Y-123230000D02*
X559170000Y-123990000D01*
X750000000Y-79480000D02*
X728040000Y-79480000D01*
X507850000Y-133060000D02*
X526680000Y-135130000D01*
X322970000Y-439810000D02*
X347280000Y-418220000D01*
X936210000Y-103370000D02*
X952900000Y-102980000D01*
X474760000Y-326080000D02*
X479900000Y-324520000D01*
X277320000Y-60460000D02*
X250450000Y-60460000D01*
X384330000Y-144990000D02*
X418010000Y-149060000D01*
X1283530000Y-259740000D02*
X1282140000Y-261940000D01*
X746920000Y-597020000D02*
X722440000Y-611390000D01*
X54890000Y-319410000D02*
X55600000Y-325440000D01*
X80810000Y-576750000D02*
X83850000Y-582770000D01*
X785620000Y-461950000D02*
X750820000Y-457680000D01*
X377360000Y-224830000D02*
X352960000Y-238930000D01*
X385370000Y-483060000D02*
X385370000Y-483060000D01*
X1003950000Y-352640000D02*
X1010540000Y-354640000D01*
X365480000Y-313410000D02*
X360300000Y-315660000D01*
X1407390000Y-191670000D02*
X1404850000Y-179690000D01*
X1117930000Y-637050000D02*
X1111460000Y-640460000D01*
X903280000Y-53970000D02*
X868940000Y-53970000D01*
X60430000Y-471790000D02*
X63860000Y-485740000D01*
X353490000Y-496530000D02*
X354720000Y-495060000D01*
X1223290000Y-542010000D02*
X1236670000Y-561420000D01*
X1078570000Y-653330000D02*
X1077610000Y-653460000D01*
X197920000Y-167110000D02*
X223920000Y-150900000D01*
X1006440000Y-145180000D02*
X1036060000Y-141800000D01*
X1267670000Y-606390000D02*
X1273140000Y-618250000D01*
X1180720000Y-363620000D02*
X1169120000Y-356990000D01*
X1190190000Y-432560000D02*
X1213020000Y-453350000D01*
X990610000Y-374490000D02*
X1015890000Y-380990000D01*
X138070000Y-66460000D02*
X111960000Y-75110000D01*
X399850000Y-320990000D02*
X372000000Y-334150000D01*
X1094330000Y-329740000D02*
X1074710000Y-321690000D01*
X760000000Y-120530600D02*
X787570000Y-120000000D01*
X1312110000Y-595860000D02*
X1314580000Y-598810000D01*
X185420000Y-515700000D02*
X189540000Y-514300000D01*
X807970000Y-593400000D02*
X817360000Y-609010000D01*
X761640000Y-503690000D02*
X738370000Y-503700000D01*
X969320000Y-345230000D02*
X1001200000Y-351940000D01*
X669890000Y-54060000D02*
X635670000Y-54060000D01*
X331160000Y-330110000D02*
X321710000Y-335560000D01*
X300910000Y-80610000D02*
X265280000Y-81430000D01*
X419400000Y-615610000D02*
X414180000Y-609170000D01*
X356810000Y-381040000D02*
X358790000Y-379900000D01*
X1111050000Y-204660000D02*
X1111120000Y-185420000D01*
X976780000Y-61400000D02*
X950990000Y-61400000D01*
X762683783Y-421234500D02*
X762632545Y-421183262D01*
X185420000Y-360200000D02*
X160650000Y-336450000D01*
X1358660000Y-118570000D02*
X1377390000Y-136480000D01*
X739704240Y-186060000D02*
X739653350Y-186009110D01*
X1071200000Y-365830000D02*
X1084780000Y-372680000D01*
X475590000Y-738890000D02*
X456250000Y-740100000D01*
X1224320000Y-131040000D02*
X1246550000Y-133390000D01*
X1373500000Y-288380000D02*
X1367120000Y-313510000D01*
X300200000Y-316490000D02*
X284730000Y-323350000D01*
X1306210000Y-71610000D02*
X1283660000Y-68770000D01*
X242300000Y-53730000D02*
X207700000Y-53730000D01*
X1310920000Y-80260000D02*
X1279340000Y-76290000D01*
X599210000Y-312540000D02*
X626900000Y-309630000D01*
X169290000Y-83350000D02*
X151100000Y-87560000D01*
X95060000Y-58330000D02*
X82610000Y-66950000D01*
X742050000Y-266970000D02*
X719430000Y-267610000D01*
X373150000Y-449550000D02*
X382750000Y-440180000D01*
X1109960000Y-67340000D02*
X1089800000Y-67760000D01*
X668260000Y-246220000D02*
X634190000Y-251630000D01*
X360350000Y-463170000D02*
X373150000Y-449550000D01*
X682870000Y-608520000D02*
X694020000Y-591360000D01*
X456250000Y-699520000D02*
X438260000Y-700780000D01*
X617850000Y-699160000D02*
X619910000Y-691070000D01*
X946170000Y-559380000D02*
X935640000Y-539900000D01*
X684180000Y-70820000D02*
X660500000Y-70410000D01*
X735180000Y-278930000D02*
X764820000Y-278920000D01*
X765450000Y-483140000D02*
X734550000Y-483150000D01*
X597150000Y-598460000D02*
X592410000Y-609100000D01*
X791270000Y-54140000D02*
X786480000Y-54190000D01*
X333670000Y-302620000D02*
X315760000Y-309790000D01*
X233880000Y-99310000D02*
X255900000Y-97760000D01*
X736282672Y-434049298D02*
X736065311Y-434121752D01*
X45240000Y-75240000D02*
X56474107Y-75240000D01*
X141530000Y-92960000D02*
X141530000Y-92960000D01*
X389020000Y-204530000D02*
X386630000Y-219270000D01*
X965390000Y-187629600D02*
X961140000Y-185420000D01*
X320830000Y-706660000D02*
X288310000Y-690900000D01*
X524740000Y-604790000D02*
X506620000Y-623860000D01*
X943100000Y-678690000D02*
X931390000Y-660250000D01*
X941710000Y-459680000D02*
X941160000Y-457000000D01*
X917540000Y-629370000D02*
X908900000Y-611880000D01*
X545940000Y-519420000D02*
X530270000Y-550700000D01*
X340560000Y-738670000D02*
X320830000Y-735760000D01*
X1043750000Y-617580000D02*
X1021250000Y-607370000D01*
X1011530000Y-68610000D02*
X994020000Y-68610000D01*
X309370000Y-140080000D02*
X335690000Y-141160000D01*
X833540000Y-535140000D02*
X825410000Y-528090000D01*
X1419200000Y-576750000D02*
X1419200000Y-573250000D01*
X1406260000Y-58440000D02*
X1376600000Y-58440000D01*
X64740000Y-313760000D02*
X66880000Y-331920000D01*
X702300000Y-268460000D02*
X681960000Y-270080000D01*
X1195360000Y-80610000D02*
X1160160000Y-80680000D01*
X986130000Y-200401500D02*
X882490000Y-176890000D01*
X981410000Y-385020000D02*
X983780000Y-385600000D01*
X1151710000Y-295080000D02*
X1133400000Y-287150000D01*
X848910000Y-357620000D02*
X883140000Y-359860000D01*
X1317010000Y-515280000D02*
X1348440000Y-513180000D01*
X407300000Y-700330000D02*
X388540000Y-697450000D01*
X1019460000Y-457010000D02*
X1021300000Y-457920000D01*
X143130000Y-148870000D02*
X145640000Y-145720000D01*
X256020000Y-363900000D02*
X253880000Y-364960000D01*
X217180000Y-534910000D02*
X219270000Y-534190000D01*
X660500000Y-70410000D02*
X645060000Y-70410000D01*
X386560000Y-673360000D02*
X354690000Y-656520000D01*
X282910000Y-186080000D02*
X283750000Y-186150000D01*
X1376060000Y-98570000D02*
X1351900000Y-89580000D01*
X449960000Y-448120000D02*
X450530000Y-447730000D01*
X1198930000Y-544200000D02*
X1213020000Y-569590000D01*
X1056990000Y-314810000D02*
X1030700000Y-306060000D01*
X358790000Y-379900000D02*
X362540000Y-377700000D01*
X1432770000Y-156650000D02*
X1432770000Y-138890000D01*
X1017900000Y-313300000D02*
X1025430000Y-315250000D01*
X1382290000Y-391890000D02*
X1391550000Y-366430000D01*
X1187900000Y-397120000D02*
X1213140000Y-415430000D01*
X476440000Y-117710000D02*
X477720000Y-117800000D01*
X1249550000Y-60460000D02*
X1222680000Y-60460000D01*
X1418380000Y-262610000D02*
X1418940000Y-226600000D01*
X330400000Y-103460000D02*
X353300000Y-104110000D01*
X382060000Y-81230000D02*
X379050000Y-81230000D01*
X1027240000Y-108960000D02*
X1055280000Y-107560000D01*
X558580000Y-112440000D02*
X592380000Y-114110000D01*
X1109480000Y-134220000D02*
X1130200000Y-132830000D01*
X926660000Y-284090000D02*
X923000000Y-283490000D01*
X421010000Y-448550000D02*
X437110000Y-436600000D01*
X1355760000Y-306980000D02*
X1348440000Y-322610000D01*
X880850000Y-499070000D02*
X871240000Y-490510000D01*
X1072990000Y-502660000D02*
X1079650000Y-511520000D01*
X504130000Y-274940000D02*
X491920000Y-277740000D01*
X1421840000Y-338390000D02*
X1425420000Y-308100000D01*
X1386800000Y-280740000D02*
X1386410000Y-285700000D01*
X410890000Y-136680000D02*
X427280000Y-137910000D01*
X1232790000Y-446980000D02*
X1246880000Y-458720000D01*
X838590000Y-271950000D02*
X818050000Y-270060000D01*
X367620000Y-348800000D02*
X352980000Y-357370000D01*
X1293470000Y-229980000D02*
X1283530000Y-259740000D01*
X427280000Y-137910000D02*
X452230000Y-140940000D01*
X373260000Y-96560000D02*
X388270000Y-97280000D01*
X1245530000Y-67450000D02*
X1226690000Y-67450000D01*
X898200000Y-104890000D02*
X913130000Y-104520000D01*
X219270000Y-503980000D02*
X224120000Y-500010000D01*
X1203000000Y-73800000D02*
X1191450000Y-73800000D01*
X778060000Y-98850000D02*
X799870000Y-98590000D01*
X351230000Y-345540000D02*
X349330000Y-346480000D01*
X892840000Y-95570000D02*
X918640000Y-94920000D01*
X185420000Y-405770000D02*
X180240000Y-402970000D01*
X978750000Y-245150000D02*
X953050000Y-238140000D01*
X1021300000Y-457920000D02*
X1051470000Y-477880000D01*
X96000000Y-373580000D02*
X102420000Y-391220000D01*
X1071820000Y-342860000D02*
X1083210000Y-347530000D01*
X244000000Y-589200000D02*
X253120000Y-578530000D01*
X326939035Y-216947352D02*
X327371727Y-216514660D01*
X914760000Y-336860000D02*
X933620000Y-339670000D01*
X1008080000Y-277740000D02*
X995870000Y-274950000D01*
X1202700000Y-464260000D02*
X1213020000Y-475800000D01*
X124540000Y-365040000D02*
X120990000Y-359220000D01*
X798740000Y-202560000D02*
X780690000Y-199690000D01*
X1135740000Y-112220000D02*
X1142100000Y-112110000D01*
X1246880000Y-722030000D02*
X1214970000Y-731670000D01*
X1330190000Y-177490000D02*
X1339080000Y-195550000D01*
X1037760000Y-420330000D02*
X1041320000Y-422160000D01*
X207700000Y-53730000D02*
X203090000Y-54300000D01*
X463720000Y-363390000D02*
X489350000Y-354690000D01*
X151270000Y-614050000D02*
X151560000Y-614040000D01*
X1361520000Y-66260000D02*
X1341220000Y-66260000D01*
X485700000Y-131500000D02*
X507850000Y-133060000D01*
X273310000Y-67450000D02*
X254470000Y-67450000D01*
X1375670000Y-326030000D02*
X1366170000Y-351850000D01*
X497860000Y-288090000D02*
X496360000Y-288470000D01*
X681960000Y-270080000D02*
X661400000Y-271960000D01*
X894140000Y-300950000D02*
X915260000Y-303940000D01*
X965100000Y-149460000D02*
X999400000Y-145680000D01*
X1374800000Y-404300000D02*
X1379290000Y-398270000D01*
X220650000Y-76280000D02*
X188180000Y-80250000D01*
X1090120000Y-305190000D02*
X1073950000Y-298380000D01*
X373600000Y-472220000D02*
X386790000Y-458180000D01*
X887490000Y-289380000D02*
X920910000Y-294100000D01*
X1286740000Y-649320000D02*
X1290560000Y-658420000D01*
X474830000Y-258260000D02*
X446500000Y-266370000D01*
X253120000Y-417940000D02*
X229480000Y-425310000D01*
X1236670000Y-561420000D02*
X1246880000Y-578600000D01*
X843650000Y-732460000D02*
X825550000Y-737710000D01*
X1082290000Y-383970000D02*
X1087770000Y-387220000D01*
X1113950000Y-74290000D02*
X1085710000Y-74870000D01*
X1315070000Y-242890000D02*
X1315060000Y-242960000D01*
X424150000Y-425310000D02*
X430220000Y-421310000D01*
X1028830000Y-438050000D02*
X1051070000Y-449030000D01*
X483620000Y-395970000D02*
X506220000Y-388370000D01*
X663200000Y-490100000D02*
X655340000Y-494560000D01*
X58210000Y-434180000D02*
X60430000Y-444880000D01*
X424600000Y-74870000D02*
X414290000Y-74870000D01*
X375090000Y-382930000D02*
X394300000Y-371410000D01*
X1074740000Y-355260000D02*
X1077560000Y-356490000D01*
X760000000Y-79480000D02*
X750000000Y-88790000D01*
X354690000Y-530540000D02*
X369580000Y-506710000D01*
X396710000Y-123440000D02*
X403780000Y-124290000D01*
X180240000Y-402970000D02*
X151560000Y-380900000D01*
X1282780000Y-534930000D02*
X1314580000Y-551970000D01*
X427360000Y-286980000D02*
X420700000Y-289160000D01*
X430180000Y-405750000D02*
X447130000Y-396650000D01*
X538950000Y-417450000D02*
X572870000Y-418690000D01*
X1116560000Y-391670000D02*
X1124650000Y-396690000D01*
X74730000Y-414200000D02*
X74730000Y-424680000D01*
X553380000Y-53780000D02*
X518840000Y-53780000D01*
X1007230000Y-409500000D02*
X1034750000Y-418910000D01*
X690600000Y-356540000D02*
X692810000Y-356680000D01*
X912260000Y-61670000D02*
X898690000Y-61950000D01*
X1170196096Y-200930571D02*
X1170196096Y-214752679D01*
X73750000Y-181650000D02*
X73750000Y-192570000D01*
X1174180000Y-257120000D02*
X1167880000Y-254430000D01*
X760000000Y-567322800D02*
X763980000Y-567320000D01*
X1017230000Y-455920000D02*
X1019460000Y-457010000D01*
X253140000Y-399060000D02*
X251870000Y-399280000D01*
X660660000Y-97570000D02*
X683520000Y-98050000D01*
X407210000Y-352190000D02*
X416630000Y-347560000D01*
X251070000Y-106170000D02*
X275540000Y-104140000D01*
X1328710000Y-251520000D02*
X1317900000Y-281430000D01*
X736065311Y-434121752D02*
X736427580Y-434049298D01*
X742720000Y-198080000D02*
X719320000Y-199710000D01*
X286840000Y-111600000D02*
X318480000Y-111180000D01*
X373070000Y-398800000D02*
X394830000Y-383840000D01*
X275540000Y-104140000D02*
X291360000Y-103720000D01*
X997810000Y-92500000D02*
X1007480000Y-92040000D01*
X670000000Y-316960000D02*
X674690000Y-316540000D01*
X1166640000Y-470580000D02*
X1174810000Y-480280000D01*
X951590000Y-265570000D02*
X938680000Y-263160000D01*
X442170000Y-315120000D02*
X436650000Y-316930000D01*
X1054850000Y-60910000D02*
X1028490000Y-60910000D01*
X1146940000Y-238970000D02*
X1122300000Y-224530000D01*
X1082370000Y-290430000D02*
X1079300000Y-289140000D01*
X182930000Y-283440000D02*
X171560000Y-253730000D01*
X1338790000Y-147800000D02*
X1344820000Y-153470000D01*
X1394920000Y-523920000D02*
X1401720000Y-505510000D01*
X688330000Y-292780000D02*
X694820000Y-292460000D01*
X285270000Y-53380000D02*
X281340000Y-53470000D01*
X440970000Y-53620000D02*
X436860000Y-53530000D01*
X1175730000Y-404260000D02*
X1180680000Y-408620000D01*
X95100000Y-180810000D02*
X92530000Y-193420000D01*
X961310000Y-223760000D02*
X940530000Y-219270000D01*
X1307070000Y-482100000D02*
X1314580000Y-484660000D01*
X683820000Y-544150000D02*
X706430000Y-532110000D01*
X1081560000Y-475990000D02*
X1093810000Y-490070000D01*
X1325070000Y-124210000D02*
X1344870000Y-138610000D01*
X901650000Y-596460000D02*
X899440000Y-591510000D01*
X404590000Y-720330000D02*
X388540000Y-719650000D01*
X373150000Y-449550000D02*
X373150000Y-449550000D01*
X696580000Y-737750000D02*
X686960000Y-737760000D01*
X775329229Y-158149696D02*
X805350000Y-151560000D01*
X896620000Y-169860000D02*
X919360000Y-161390000D01*
X1216850000Y-533910000D02*
X1223290000Y-542010000D01*
X1431950000Y-70240000D02*
X1421580000Y-70240000D01*
X334850000Y-95730000D02*
X348710000Y-96120000D01*
X962780000Y-149620000D02*
X965100000Y-149460000D01*
X1105070000Y-311080000D02*
X1090120000Y-305190000D01*
X825400000Y-54140000D02*
X791270000Y-54140000D01*
X1290550000Y-452690000D02*
X1314580000Y-456490000D01*
X706020000Y-108850000D02*
X716130000Y-108970000D01*
X621880000Y-69940000D02*
X605890000Y-69940000D01*
X370770000Y-432810000D02*
X384710000Y-421250000D01*
X587740000Y-61670000D02*
X562260000Y-61670000D01*
X1294250000Y-178180000D02*
X1295050000Y-178910000D01*
X530770000Y-93150000D02*
X541750000Y-93660000D01*
X420630000Y-427930000D02*
X424150000Y-425310000D01*
X182390000Y-90870000D02*
X156600000Y-96840000D01*
X983480000Y-449790000D02*
X1017230000Y-455920000D01*
X965100000Y-149460000D02*
X999400000Y-145680000D01*
X903710000Y-324040000D02*
X907580000Y-324360000D01*
X780690000Y-199690000D02*
X757270000Y-198080000D01*
X561570000Y-585990000D02*
X555960000Y-596630000D01*
X544630000Y-69020000D02*
X527590000Y-69020000D01*
X1216970000Y-291430000D02*
X1189830000Y-282430000D01*
X312460000Y-66990000D02*
X293090000Y-66990000D01*
X456250000Y-677460000D02*
X445850000Y-678190000D01*
X536410000Y-355200000D02*
X539510000Y-354690000D01*
X151560000Y-513160000D02*
X182940000Y-515250000D01*
X942220000Y-53870000D02*
X907780000Y-53870000D01*
X319040000Y-363760000D02*
X287640000Y-382010000D01*
X308550000Y-73800000D02*
X297000000Y-73800000D01*
X852550000Y-296250000D02*
X879000000Y-299360000D01*
X463090000Y-676160000D02*
X456250000Y-677460000D01*
X1187540000Y-66990000D02*
X1168000000Y-67030000D01*
X144680000Y-259940000D02*
X142220000Y-231400000D01*
X1376600000Y-58440000D02*
X1368670000Y-55390000D01*
X494500000Y-214520000D02*
X490360000Y-219270000D01*
X321600000Y-423900000D02*
X336020000Y-411090000D01*
X873340000Y-376930000D02*
X898470000Y-376200000D01*
X434140000Y-375820000D02*
X451120000Y-368310000D01*
X1410840000Y-338620000D02*
X1415420000Y-303190000D01*
X219730000Y-93350000D02*
X229420000Y-91550000D01*
X219270000Y-452460000D02*
X250910000Y-437620000D01*
X942130000Y-286980000D02*
X926660000Y-284090000D01*
X117710000Y-435310000D02*
X119270000Y-437990000D01*
X1403990000Y-373580000D02*
X1408660000Y-345960000D01*
X367400000Y-418290000D02*
X380690000Y-408050000D01*
X778480000Y-302710000D02*
X798740000Y-303680000D01*
X633350000Y-286980000D02*
X651480000Y-284720000D01*
X1205550000Y-268500000D02*
X1177420000Y-258810000D01*
X1036060000Y-141800000D02*
X1047770000Y-140940000D01*
X557910000Y-633720000D02*
X548160000Y-648690000D01*
X568990000Y-94310000D02*
X581360000Y-94920000D01*
X867030000Y-186060000D02*
X739704240Y-186060000D01*
X236500000Y-313610000D02*
X220890000Y-313080000D01*
X253120000Y-458710000D02*
X267200000Y-446980000D01*
X321300000Y-349240000D02*
X306600000Y-356020000D01*
X190930000Y-155120000D02*
X199890000Y-149530000D01*
X760000000Y-379506600D02*
X783330000Y-378870000D01*
X1115210000Y-518820000D02*
X1126900000Y-546690000D01*
X872540000Y-623200000D02*
X879470000Y-649580000D01*
X721940000Y-98850000D02*
X739290000Y-99050000D01*
X375850000Y-296020000D02*
X354200000Y-305440000D01*
X359320000Y-120820000D02*
X363110000Y-121190000D01*
X1127170000Y-322060000D02*
X1105070000Y-311080000D01*
X58380000Y-94040000D02*
X58380000Y-123840000D01*
X1344980000Y-222590000D02*
X1345300000Y-228600000D01*
X665920000Y-445280000D02*
X663110000Y-456250000D01*
X1246880000Y-538590000D02*
X1258850000Y-548680000D01*
X867630000Y-116030000D02*
X903550000Y-114210000D01*
X1079030000Y-357230000D02*
X1104380000Y-370560000D01*
X294150000Y-348280000D02*
X286880000Y-352500000D01*
X81640000Y-262610000D02*
X81640000Y-265160000D01*
X1390550000Y-317480000D02*
X1389410000Y-326310000D01*
X714930000Y-327470000D02*
X746560000Y-326820000D01*
X933620000Y-339670000D02*
X957100000Y-342870000D01*
X436860000Y-53530000D02*
X402030000Y-53530000D01*
X69640000Y-79930000D02*
X58380000Y-94040000D01*
X385850000Y-517080000D02*
X387390000Y-514770000D01*
X431700000Y-240600000D02*
X409960000Y-253120000D01*
X81090000Y-226590000D02*
X81640000Y-262610000D01*
X762632545Y-421183262D02*
X762581307Y-421234500D01*
X237980000Y-61250000D02*
X212020000Y-61250000D01*
X490570000Y-600350000D02*
X478120000Y-607440000D01*
X1270540000Y-425300000D02*
X1246880000Y-417930000D01*
X347410000Y-73850000D02*
X335920000Y-73850000D01*
X1335950000Y-55390000D02*
X1330840000Y-54300000D01*
X503290000Y-286980000D02*
X497860000Y-288090000D01*
X229420000Y-91550000D02*
X260730000Y-89350000D01*
X1280220000Y-93380000D02*
X1305950000Y-96880000D01*
X750000000Y-120690000D02*
X760000000Y-109260000D01*
X1047360000Y-344150000D02*
X1074740000Y-355260000D01*
X590150000Y-672360000D02*
X586860000Y-677490000D01*
X991470000Y-306670000D02*
X1017900000Y-313300000D01*
X440060000Y-385380000D02*
X442680000Y-384220000D01*
X409960000Y-253120000D02*
X401690000Y-256060000D01*
X1156510000Y-80680000D02*
X1120950000Y-81230000D01*
X849190000Y-87280000D02*
X845150000Y-87460000D01*
X1415580000Y-302450000D02*
X1416150000Y-295370000D01*
X74730000Y-424680000D02*
X81440000Y-456950000D01*
X1300950000Y-166180000D02*
X1312180000Y-176430000D01*
X151560000Y-614040000D02*
X151660000Y-613950000D01*
X1166100000Y-270640000D02*
X1141680000Y-260190000D01*
X1020100000Y-53700000D02*
X985460000Y-53700000D01*
X1093210000Y-105890000D02*
X1106980000Y-105560000D01*
X1105780000Y-335470000D02*
X1094330000Y-329740000D01*
X972410000Y-69020000D02*
X955370000Y-69020000D01*
X938870000Y-378830000D02*
X949050000Y-380530000D01*
X1416150000Y-582790000D02*
X1419200000Y-576750000D01*
X1145310000Y-714880000D02*
X1124990000Y-718880000D01*
X1113160000Y-436710000D02*
X1115720000Y-438750000D01*
X580630000Y-161360000D02*
X603400000Y-169830000D01*
X728040000Y-79480000D02*
X694370000Y-79150000D01*
X1071940000Y-617140000D02*
X1043750000Y-617580000D01*
X1320850000Y-551950000D02*
X1348440000Y-556860000D01*
X1246880000Y-507790000D02*
X1254180000Y-512470000D01*
X1181520000Y-111180000D02*
X1213160000Y-111600000D01*
X1193020000Y-355930000D02*
X1181230000Y-350560000D01*
X958330000Y-526350000D02*
X942342953Y-491861567D01*
X709340000Y-256210000D02*
X675540000Y-258900000D01*
X283120000Y-533890000D02*
X286980000Y-529720000D01*
X655340000Y-494560000D02*
X643870000Y-505620000D01*
X149140000Y-188520000D02*
X162690000Y-164500000D01*
X1145310000Y-738700000D02*
X1131130000Y-738700000D01*
X1052890000Y-479110000D02*
X1058260000Y-484260000D01*
X964580000Y-418440000D02*
X991340000Y-422540000D01*
X336140000Y-252170000D02*
X325240000Y-256700000D01*
X626490000Y-129620000D02*
X641130000Y-131280000D01*
X625490000Y-711490000D02*
X617850000Y-699160000D01*
X133830000Y-351850000D02*
X124330000Y-326030000D01*
X729220000Y-695930000D02*
X717630000Y-692700000D01*
X929800000Y-295330000D02*
X956520000Y-299820000D01*
X761490000Y-543960000D02*
X775920000Y-546530000D01*
X694240000Y-88330000D02*
X689190000Y-88160000D01*
X1215460000Y-323320000D02*
X1193990000Y-313860000D01*
X1441790000Y-404710000D02*
X1443330000Y-396170000D01*
X699160000Y-70820000D02*
X684180000Y-70820000D01*
X332000000Y-67030000D02*
X312460000Y-66990000D01*
X1014720000Y-333890000D02*
X1032770000Y-339360000D01*
X666470000Y-107690000D02*
X677840000Y-107930000D01*
X1433120000Y-331920000D02*
X1435270000Y-313760000D01*
X800850000Y-70820000D02*
X776800000Y-71050000D01*
X1380160000Y-245670000D02*
X1376060000Y-279750000D01*
X1425420000Y-297450000D02*
X1427420000Y-270360000D01*
X845730000Y-284370000D02*
X848530000Y-284700000D01*
X1209520000Y-130150000D02*
X1224320000Y-131040000D01*
X620960000Y-649870000D02*
X625330000Y-633360000D01*
X162100000Y-106120000D02*
X176000000Y-102900000D01*
X118000000Y-172260000D02*
X121240000Y-166030000D01*
X475740000Y-644530000D02*
X456250000Y-650850000D01*
X1405050000Y-425820000D02*
X1409410000Y-415580000D01*
X860250000Y-332000000D02*
X873440000Y-332620000D01*
X556950000Y-318410000D02*
X590390000Y-313780000D01*
X1285570000Y-131420000D02*
X1307130000Y-140520000D01*
X1305950000Y-96880000D02*
X1324000000Y-102700000D01*
X1445590000Y-208090000D02*
X1445270000Y-202840000D01*
X645250000Y-273870000D02*
X619580000Y-277070000D01*
X1155880000Y-88130000D02*
X1160710000Y-87990000D01*
X708730000Y-54140000D02*
X674600000Y-54140000D01*
X78230000Y-147760000D02*
X78230000Y-147760000D01*
X1348440000Y-556860000D02*
X1369630000Y-548280000D01*
X103660000Y-77770000D02*
X82940000Y-94770000D01*
X1151710000Y-295080000D02*
X1133400000Y-287150000D01*
X233670000Y-68770000D02*
X216330000Y-68770000D01*
X108210000Y-136560000D02*
X106050000Y-143200000D01*
X1024840000Y-398960000D02*
X1044680000Y-408330000D01*
X472540000Y-437070000D02*
X494780000Y-426410000D01*
X1432770000Y-138890000D02*
X1424320000Y-110630000D01*
X992150000Y-133060000D02*
X1014300000Y-131490000D01*
X72200000Y-218300000D02*
X72200000Y-231700000D01*
X293600000Y-268410000D02*
X264270000Y-276480000D01*
X188180000Y-80250000D02*
X184040000Y-80250000D01*
X113600000Y-285690000D02*
X113200000Y-280750000D01*
X253460000Y-133410000D02*
X275670000Y-131050000D01*
X449490000Y-99240000D02*
X467700000Y-100160000D01*
X1122070000Y-295040000D02*
X1115530000Y-291790000D01*
X594280000Y-422390000D02*
X611700000Y-446400000D01*
X1115670000Y-145000000D02*
X1123520000Y-144470000D01*
X910500000Y-126310000D02*
X940830000Y-124000000D01*
X750000000Y-137090000D02*
X760000000Y-120530000D01*
X1275400000Y-83860000D02*
X1275020000Y-83810000D01*
X76697173Y-42016488D02*
X750000000Y-42016488D01*
X432890000Y-107270000D02*
X444720000Y-107560000D01*
X471730000Y-400180000D02*
X483620000Y-395970000D01*
X1429890000Y-372660000D02*
X1433120000Y-351420000D01*
X640360000Y-62240000D02*
X626470000Y-61950000D01*
X1188790000Y-472250000D02*
X1209140000Y-494990000D01*
X318890000Y-554440000D02*
X320830000Y-551310000D01*
X1396130000Y-291280000D02*
X1390550000Y-317480000D01*
X56670000Y-396170000D02*
X58210000Y-404710000D01*
X772930000Y-225330000D02*
X766110000Y-225080000D01*
X1113230000Y-162380000D02*
X1123640000Y-158870000D01*
X671440000Y-705460000D02*
X655710000Y-689160000D01*
X534240000Y-628830000D02*
X529080000Y-636750000D01*
X1073120000Y-274030000D02*
X1053500000Y-266370000D01*
X420760000Y-149270000D02*
X439670000Y-151560000D01*
X728330000Y-290850000D02*
X732740000Y-290780000D01*
X1390610000Y-113990000D02*
X1376060000Y-98570000D01*
X1166620000Y-626130000D02*
X1152430000Y-648690000D01*
X1127400000Y-253580000D02*
X1107690000Y-239730000D01*
X582050000Y-630510000D02*
X572970000Y-647380000D01*
X1211740000Y-690930000D02*
X1179170000Y-706710000D01*
X884650000Y-86400000D02*
X849190000Y-87280000D01*
X1177940000Y-321920000D02*
X1145850000Y-305340000D01*
X69640000Y-66950000D02*
X69640000Y-79930000D01*
X100680000Y-216650000D02*
X101800000Y-199210000D01*
X347280000Y-418220000D02*
X355970000Y-411980000D01*
X749223468Y-522400000D02*
X759761162Y-513176112D01*
X1280060000Y-140810000D02*
X1298620000Y-148650000D01*
X178270000Y-149100000D02*
X184570000Y-144240000D01*
X815820000Y-70820000D02*
X800850000Y-70820000D01*
X173230000Y-124970000D02*
X192480000Y-117080000D01*
X933900000Y-618490000D02*
X926210000Y-602910000D01*
X999430000Y-424530000D02*
X1001950000Y-424990000D01*
X279930000Y-111780000D02*
X286840000Y-111600000D01*
X610700000Y-224810000D02*
X581450000Y-230490000D01*
X779140000Y-506980000D02*
X761640000Y-503690000D01*
X1256840000Y-366830000D02*
X1246880000Y-365150000D01*
X1357850000Y-230480000D02*
X1355320000Y-259940000D01*
X542890000Y-342870000D02*
X566380000Y-339670000D01*
X209460000Y-452700000D02*
X219270000Y-452460000D01*
X1307130000Y-140520000D02*
X1313850000Y-143280000D01*
X1351620000Y-143050000D02*
X1354720000Y-146010000D01*
X1064390000Y-328640000D02*
X1088770000Y-338640000D01*
X201550000Y-125320000D02*
X209240000Y-122000000D01*
X983780000Y-385600000D02*
X989880000Y-387170000D01*
X621020000Y-96270000D02*
X645300000Y-96870000D01*
X470830000Y-129800000D02*
X485700000Y-131500000D01*
X1297800000Y-124860000D02*
X1319460000Y-133750000D01*
X691560000Y-151380000D02*
X691760000Y-151390000D01*
X194050000Y-96800000D02*
X219730000Y-93350000D01*
X1314580000Y-598810000D02*
X1348350000Y-613940000D01*
X1314580000Y-360230000D02*
X1313730000Y-360620000D01*
X1220070000Y-111780000D02*
X1253760000Y-114570000D01*
X311190000Y-472240000D02*
X320940000Y-462980000D01*
X388540000Y-739820000D02*
X368820000Y-738670000D01*
X705040000Y-581090000D02*
X722530000Y-571790000D01*
X1164580000Y-447270000D02*
X1179170000Y-463200000D01*
X348110000Y-295210000D02*
X333670000Y-302620000D01*
X1280730000Y-697890000D02*
X1260760000Y-719090000D01*
X992610000Y-101550000D02*
X1012410000Y-100620000D01*
X1234990000Y-153410000D02*
X1237430000Y-153870000D01*
X343490000Y-80680000D02*
X339840000Y-80680000D01*
X767270000Y-290770000D02*
X771670000Y-290850000D01*
X192930000Y-482090000D02*
X219270000Y-477270000D01*
X1209880000Y-305650000D02*
X1184980000Y-295730000D01*
X918400000Y-207770000D02*
X898370000Y-197920000D01*
X1400130000Y-332470000D02*
X1402990000Y-310340000D01*
X442680000Y-384220000D02*
X470020000Y-373560000D01*
X1182350000Y-364770000D02*
X1180720000Y-363620000D01*
X304640000Y-80610000D02*
X300910000Y-80610000D01*
X225840000Y-150220000D02*
X259000000Y-143060000D01*
X1445270000Y-169390000D02*
X1444280000Y-163340000D01*
X735240000Y-159710000D02*
X750000000Y-159720000D01*
X386050000Y-74290000D02*
X375060000Y-74290000D01*
X750000000Y-597010000D02*
X746920000Y-597020000D01*
X396810000Y-286930000D02*
X384090000Y-291950000D01*
X898370000Y-197920000D02*
X867030000Y-186060000D01*
X312590000Y-168650000D02*
X331100000Y-169960000D01*
X286100000Y-337850000D02*
X279680000Y-339550000D01*
X612510000Y-86250000D02*
X575850000Y-85330000D01*
X944070000Y-596840000D02*
X934790000Y-579330000D01*
X825410000Y-528090000D02*
X817640000Y-523950000D01*
X1054390000Y-197120000D02*
X1043340000Y-185420000D01*
X602980000Y-267980000D02*
X584260000Y-270850000D01*
X1081990000Y-149060000D02*
X1115670000Y-145000000D01*
X1009900000Y-716200000D02*
X980730000Y-708420000D01*
X1314580000Y-337690000D02*
X1291890000Y-348080000D01*
X571740000Y-157240000D02*
X580630000Y-161360000D01*
X867380000Y-251880000D02*
X865800000Y-251610000D01*
X119160000Y-142740000D02*
X134450000Y-123580000D01*
X694370000Y-79150000D02*
X688970000Y-79150000D01*
X589580000Y-244650000D02*
X555990000Y-252360000D01*
X691760000Y-151390000D02*
X694890000Y-151560000D01*
X84580000Y-303200000D02*
X89160000Y-338620000D01*
X453520000Y-75480000D02*
X424600000Y-74870000D01*
X926210000Y-602910000D02*
X917500000Y-586490000D01*
X54420000Y-241910000D02*
X54490000Y-247030000D01*
X882700000Y-77920000D02*
X850240000Y-78590000D01*
X1375460000Y-365040000D02*
X1363950000Y-389470000D01*
X949050000Y-380530000D02*
X981410000Y-385020000D01*
X250450000Y-174520000D02*
X250450000Y-174520000D01*
X81440000Y-456950000D02*
X81440000Y-459720000D01*
X1280730000Y-571640000D02*
X1283770000Y-573260000D01*
X592410000Y-324370000D02*
X596290000Y-324050000D01*
X795190000Y-242150000D02*
X782050000Y-241220000D01*
X188210000Y-210440000D02*
X200440000Y-185780000D01*
X1014300000Y-395360000D02*
X1024840000Y-398960000D01*
X1266720000Y-333170000D02*
X1248240000Y-332460000D01*
X1379010000Y-359220000D02*
X1375460000Y-365040000D01*
X1416150000Y-469540000D02*
X1418560000Y-459720000D01*
X718360000Y-62620000D02*
X703940000Y-62480000D01*
X203090000Y-54300000D02*
X169130000Y-54300000D01*
X898370000Y-197920000D02*
X867030000Y-186060000D01*
X1139850000Y-424410000D02*
X1146240000Y-430570000D01*
X736427580Y-434049298D02*
X759975081Y-434049298D01*
X519270000Y-708420000D02*
X490100000Y-716190000D01*
X396290000Y-448660000D02*
X420630000Y-427930000D01*
X1111360000Y-206544900D02*
X1111050000Y-204660000D01*
X805190000Y-292450000D02*
X811660000Y-292770000D01*
X1365240000Y-273540000D02*
X1358260000Y-297140000D01*
X836860000Y-490100000D02*
X817470000Y-474200000D01*
X151660000Y-613950000D02*
X185420000Y-598790000D01*
X899450000Y-641030000D02*
X895500000Y-626540000D01*
X321380000Y-197991300D02*
X389010000Y-202940000D01*
X1133400000Y-287150000D02*
X1121780000Y-280960000D01*
X722980000Y-341500000D02*
X750000000Y-341190000D01*
X269410000Y-141950000D02*
X296310000Y-140310000D01*
X145640000Y-145720000D02*
X154520000Y-139410000D01*
X434050000Y-329270000D02*
X441910000Y-326090000D01*
X738500000Y-543970000D02*
X750000000Y-543960000D01*
X838360000Y-406960000D02*
X857820000Y-403940000D01*
X1085710000Y-74870000D02*
X1075400000Y-74870000D01*
X119670000Y-243400000D02*
X120920000Y-210850000D01*
X640700000Y-308010000D02*
X663830000Y-306220000D01*
X130390000Y-548270000D02*
X151560000Y-556840000D01*
X575850000Y-85330000D02*
X574200000Y-85240000D01*
X1224460000Y-104140000D02*
X1248930000Y-106170000D01*
X762794378Y-421234500D02*
X762683783Y-421234500D01*
X947620000Y-123230000D02*
X981560000Y-120800000D01*
X607160000Y-95570000D02*
X621020000Y-96270000D01*
X849170000Y-215880000D02*
X844450000Y-214450000D01*
X619580000Y-277070000D02*
X609070000Y-278590000D01*
X531280000Y-182221100D02*
X633210000Y-184590000D01*
X1113430000Y-219270000D02*
X1113040000Y-216850000D01*
X991340000Y-422540000D02*
X999430000Y-424530000D01*
X571060000Y-212420000D02*
X559480000Y-219270000D01*
X224120000Y-500010000D02*
X253120000Y-481400000D01*
X98470000Y-160500000D02*
X95100000Y-180810000D01*
X520210000Y-314650000D02*
X548950000Y-309330000D01*
X391160000Y-400850000D02*
X405250000Y-391570000D01*
X110790000Y-111790000D02*
X98780000Y-125760000D01*
X1214970000Y-731670000D02*
X1213020000Y-731670000D01*
X601310000Y-61950000D02*
X587740000Y-61670000D01*
X127930000Y-178410000D02*
X140320000Y-154600000D01*
X661400000Y-271960000D02*
X645250000Y-273870000D01*
X1282140000Y-261940000D02*
X1250570000Y-275070000D01*
X1068600000Y-307620000D02*
X1049610000Y-301410000D01*
X1401250000Y-158630000D02*
X1390080000Y-134320000D01*
X299230000Y-287220000D02*
X267970000Y-294340000D01*
X1182830000Y-557660000D02*
X1193200000Y-586380000D01*
X475700000Y-53620000D02*
X440970000Y-53620000D01*
X554440000Y-151560000D02*
X571740000Y-157240000D01*
X526380000Y-673610000D02*
X523950000Y-675330000D01*
X1435270000Y-313760000D02*
X1435270000Y-291800000D01*
X631060000Y-53970000D02*
X596720000Y-53970000D01*
X1262750000Y-313790000D02*
X1248940000Y-315350000D01*
X775230000Y-657360000D02*
X783170000Y-651170000D01*
X749110000Y-522400000D02*
X750000000Y-522400000D01*
X1145310000Y-656500000D02*
X1113430000Y-673350000D01*
X1001200000Y-351940000D02*
X1003950000Y-352640000D01*
X1317900000Y-281430000D02*
X1316700000Y-284550000D01*
X884890000Y-289110000D02*
X887490000Y-289380000D01*
X1336370000Y-105550000D02*
X1350350000Y-113100000D01*
X253120000Y-481400000D02*
X255400000Y-479080000D01*
X903550000Y-114210000D02*
X907620000Y-114110000D01*
X713530000Y-717260000D02*
X689340000Y-711740000D01*
X454180000Y-188013500D02*
X524750000Y-192740000D01*
X782050000Y-241220000D02*
X757360000Y-240310000D01*
X1275020000Y-83810000D02*
X1274980000Y-83810000D01*
X488890000Y-166080000D02*
X510560000Y-174780000D01*
X408110000Y-267250000D02*
X386410000Y-277660000D01*
X783330000Y-378870000D02*
X794340000Y-379050000D01*
X491920000Y-277740000D02*
X461470000Y-286980000D01*
X54720000Y-202970000D02*
X54420000Y-208090000D01*
X658330000Y-567990000D02*
X668780000Y-557370000D01*
X598990000Y-396450000D02*
X627920000Y-397970000D01*
X586870000Y-104510000D02*
X601810000Y-104890000D01*
X1347760000Y-87340000D02*
X1334370000Y-84250000D01*
X532580000Y-225420000D02*
X504730000Y-232350000D01*
X947550000Y-112290000D02*
X979360000Y-110790000D01*
X1426200000Y-180330000D02*
X1421260000Y-149950000D01*
X250450000Y-174520000D02*
X274200000Y-169520000D01*
X1339020000Y-269300000D02*
X1330170000Y-292290000D01*
X258480000Y-74440000D02*
X229350000Y-76280000D01*
X1253560000Y-53470000D02*
X1218660000Y-53470000D01*
X246240000Y-114570000D02*
X279930000Y-111780000D01*
X817470000Y-474200000D02*
X794000000Y-465150000D01*
X1120280000Y-354280000D02*
X1125620000Y-357220000D01*
X940530000Y-219270000D02*
X928940000Y-212410000D01*
X219780000Y-351320000D02*
X209310000Y-348370000D01*
X824400000Y-659720000D02*
X811710000Y-674760000D01*
X1237520000Y-328850000D02*
X1215460000Y-323320000D01*
X109450000Y-317480000D02*
X103870000Y-291280000D01*
X1365640000Y-107830000D02*
X1357570000Y-104820000D01*
X1212630000Y-381970000D02*
X1182350000Y-364770000D01*
X1435270000Y-291800000D02*
X1436460000Y-275560000D01*
X55620000Y-131750000D02*
X55620000Y-164200000D01*
X1060790000Y-720900000D02*
X1043750000Y-720450000D01*
X757360000Y-240310000D02*
X742640000Y-240310000D01*
X1219670000Y-339370000D02*
X1214350000Y-338040000D01*
X760710000Y-99060000D02*
X778060000Y-98850000D01*
X1300150000Y-273600000D02*
X1282020000Y-288630000D01*
X384150000Y-519790000D02*
X384150000Y-519790000D01*
X255400000Y-479080000D02*
X264850000Y-471040000D01*
X1032670000Y-68190000D02*
X1011530000Y-68610000D01*
X866040000Y-319740000D02*
X867220000Y-319870000D01*
X845160000Y-147980000D02*
X849460000Y-147670000D01*
X287640000Y-382010000D02*
X286750000Y-382340000D01*
X320940000Y-462980000D02*
X334470000Y-448190000D01*
X1111460000Y-640460000D02*
X1078570000Y-653330000D01*
X1077610000Y-653460000D02*
X1076430000Y-653460000D01*
X1445510000Y-247020000D02*
X1445590000Y-241910000D01*
X528090000Y-553960000D02*
X525520000Y-558760000D01*
X1306460000Y-116580000D02*
X1325070000Y-124210000D01*
X1368670000Y-55390000D02*
X1335950000Y-55390000D01*
X354690000Y-738670000D02*
X340560000Y-738670000D01*
X782320000Y-739450000D02*
X768330000Y-740330000D01*
X596840000Y-529260000D02*
X579550000Y-556190000D01*
X1436710000Y-213190000D02*
X1435740000Y-197360000D01*
X347520000Y-648660000D02*
X333330000Y-626150000D01*
X1350350000Y-113100000D02*
X1358660000Y-118570000D01*
X609130000Y-143270000D02*
X618240000Y-143990000D01*
X242780000Y-114820000D02*
X246240000Y-114570000D01*
X849740000Y-622630000D02*
X852350000Y-628790000D01*
X1204110000Y-95850000D02*
X1228850000Y-96490000D01*
X1268710000Y-182400000D02*
X1284720000Y-202050000D01*
X363930000Y-580310000D02*
X364370000Y-569440000D01*
X959750000Y-76640000D02*
X928790000Y-77260000D01*
X989450000Y-174760000D02*
X1011110000Y-166060000D01*
X1190440000Y-95670000D02*
X1204110000Y-95850000D01*
X411410000Y-97840000D02*
X427980000Y-98720000D01*
X629100000Y-490100000D02*
X619040000Y-499070000D01*
X1436140000Y-508710000D02*
X1436140000Y-485740000D01*
X253510000Y-382010000D02*
X229070000Y-386180000D01*
X1374840000Y-84980000D02*
X1354380000Y-77120000D01*
X760000000Y-99059700D02*
X760710000Y-99060000D01*
X1213020000Y-434000000D02*
X1232790000Y-446980000D01*
X420700000Y-289160000D02*
X417380000Y-290560000D01*
X482100000Y-313300000D02*
X508530000Y-306670000D01*
X1215500000Y-185480000D02*
X1215780000Y-185540000D01*
X1128930000Y-67340000D02*
X1109960000Y-67340000D01*
X1030130000Y-386200000D02*
X1051610000Y-396330000D01*
X128390000Y-113090000D02*
X108210000Y-136560000D01*
X709880000Y-119860000D02*
X712420000Y-119990000D01*
X311396387Y-232490000D02*
X326939035Y-216947352D01*
X1002580000Y-83510000D02*
X984820000Y-83850000D01*
X558680000Y-488640000D02*
X549060000Y-509920000D01*
X1151080000Y-373020000D02*
X1158200000Y-377090000D01*
X238330000Y-107060000D02*
X251070000Y-106170000D01*
X803610000Y-227490000D02*
X772930000Y-225330000D01*
X1257220000Y-114820000D02*
X1272710000Y-117730000D01*
X1286390000Y-688420000D02*
X1285820000Y-694590000D01*
X733900000Y-225080000D02*
X727070000Y-225340000D01*
X558150000Y-676600000D02*
X550220000Y-687310000D01*
X881710000Y-562110000D02*
X878250000Y-557240000D01*
X451120000Y-368310000D02*
X463720000Y-363390000D01*
X651480000Y-284720000D02*
X654270000Y-284390000D01*
X915730000Y-270840000D02*
X897030000Y-267970000D01*
X822160000Y-107930000D02*
X833530000Y-107700000D01*
X102420000Y-391220000D02*
X105620000Y-406940000D01*
X394830000Y-383840000D02*
X399710000Y-380920000D01*
X711320000Y-490100000D02*
X694360000Y-494800000D01*
X442180000Y-179690000D02*
X456630000Y-185420000D01*
X1067230000Y-60650000D02*
X1054850000Y-60910000D01*
X1036900000Y-676160000D02*
X1009900000Y-667010000D01*
X111070000Y-204990000D02*
X115340000Y-184020000D01*
X251870000Y-399280000D02*
X219270000Y-409020000D01*
X185420000Y-484650000D02*
X192930000Y-482090000D01*
X1111460000Y-697470000D02*
X1092710000Y-700340000D01*
X264980000Y-153460000D02*
X284260000Y-151560000D01*
X1051470000Y-477880000D02*
X1052890000Y-479110000D01*
X583270000Y-69460000D02*
X566730000Y-69460000D01*
X865890000Y-725340000D02*
X843650000Y-732460000D01*
X727070000Y-225340000D02*
X696400000Y-227500000D01*
X1200270000Y-389540000D02*
X1181840000Y-379070000D01*
X162690000Y-164500000D02*
X178270000Y-149100000D01*
X1280730000Y-504000000D02*
X1310540000Y-514350000D01*
X439760000Y-740530000D02*
X422390000Y-740530000D01*
X1213620000Y-399230000D02*
X1200270000Y-389540000D01*
X1032300000Y-100160000D02*
X1050500000Y-99240000D01*
X1028020000Y-243020000D02*
X1013950000Y-238710000D01*
X1405260000Y-140090000D02*
X1400340000Y-124310000D01*
X1073950000Y-424320000D02*
X1078750000Y-427800000D01*
X1123640000Y-158870000D02*
X1157770000Y-152550000D01*
X418370000Y-81990000D02*
X382060000Y-81230000D01*
X1074710000Y-321690000D02*
X1063250000Y-316860000D01*
X1357570000Y-104820000D02*
X1342060000Y-96450000D01*
X385800000Y-437660000D02*
X408980000Y-419000000D01*
X682450000Y-523950000D02*
X674620000Y-528130000D01*
X1384450000Y-182730000D02*
X1388840000Y-203430000D01*
X428210000Y-366250000D02*
X454650000Y-354560000D01*
X1279340000Y-76290000D02*
X1270660000Y-76290000D01*
X148110000Y-190730000D02*
X149140000Y-188520000D01*
X462370000Y-158590000D02*
X488890000Y-166080000D01*
X1314990000Y-243160000D02*
X1300150000Y-273600000D01*
X579550000Y-556190000D02*
X576440000Y-561410000D01*
X834100000Y-445250000D02*
X811980000Y-421230000D01*
X813660000Y-228550000D02*
X803610000Y-227490000D01*
X615350000Y-86390000D02*
X612510000Y-86250000D01*
X1046480000Y-75480000D02*
X1036860000Y-75480000D01*
X452650000Y-277090000D02*
X427360000Y-286980000D01*
X463940000Y-141800000D02*
X493560000Y-145190000D01*
X486060000Y-238700000D02*
X471970000Y-243020000D01*
X321270000Y-119360000D02*
X323220000Y-119440000D01*
X1386410000Y-285700000D02*
X1382290000Y-305020000D01*
X302150000Y-150470000D02*
X303420000Y-150450000D01*
X1152430000Y-648690000D02*
X1148630000Y-654680000D01*
X1237500000Y-81440000D02*
X1234720000Y-81440000D01*
X445150000Y-60910000D02*
X432770000Y-60650000D01*
X1210820000Y-60190000D02*
X1183630000Y-60190000D01*
X119270000Y-437990000D02*
X122610000Y-441710000D01*
X700130000Y-98590000D02*
X721940000Y-98850000D01*
X1393540000Y-354650000D02*
X1400130000Y-332470000D01*
X457880000Y-320830000D02*
X474580000Y-315260000D01*
X73750000Y-192570000D02*
X72200000Y-218300000D01*
X757270000Y-198080000D02*
X742720000Y-198080000D01*
X979360000Y-110790000D02*
X987410000Y-110610000D01*
X761130000Y-137090000D02*
X777940000Y-136770000D01*
X660060000Y-231950000D02*
X644030000Y-234490000D01*
X363560000Y-257230000D02*
X357060000Y-260710000D01*
X592410000Y-609100000D02*
X582050000Y-630510000D01*
X525520000Y-558760000D02*
X504540000Y-584090000D01*
X490670000Y-343270000D02*
X506010000Y-339380000D01*
X504540000Y-584090000D02*
X490570000Y-600350000D01*
X1140310000Y-328780000D02*
X1134540000Y-325600000D01*
X106870000Y-174290000D02*
X108200000Y-166320000D01*
X1113230000Y-515650000D02*
X1115210000Y-518820000D01*
X64740000Y-291800000D02*
X64740000Y-313760000D01*
X293090000Y-66990000D02*
X273310000Y-67450000D01*
X1230710000Y-74440000D02*
X1203000000Y-73800000D01*
X815970000Y-205980000D02*
X798740000Y-202560000D01*
X712420000Y-119990000D02*
X748280000Y-120690000D01*
X1130840000Y-311640000D02*
X1110300000Y-301430000D01*
X458740000Y-287690000D02*
X457730000Y-288020000D01*
X897030000Y-267970000D02*
X873220000Y-264540000D01*
X1348440000Y-441640000D02*
X1361630000Y-427020000D01*
X108200000Y-166320000D02*
X108200000Y-166320000D01*
X253590000Y-201230000D02*
X282910000Y-186080000D01*
X440340000Y-255660000D02*
X436590000Y-257120000D01*
X422280000Y-224210000D02*
X413800000Y-229100000D01*
X753110000Y-719630000D02*
X745790000Y-719610000D01*
X398680000Y-588620000D02*
X400020000Y-562150000D01*
X659370000Y-343220000D02*
X684720000Y-342590000D01*
X621010000Y-299370000D02*
X647440000Y-296270000D01*
X1107180000Y-474650000D02*
X1111470000Y-479590000D01*
X348710000Y-96120000D02*
X373260000Y-96560000D01*
X1145310000Y-495140000D02*
X1146500000Y-496540000D01*
X535840000Y-84320000D02*
X515130000Y-83850000D01*
X166670000Y-449660000D02*
X185420000Y-456500000D01*
X253120000Y-578530000D02*
X263290000Y-561400000D01*
X63540000Y-252220000D02*
X63540000Y-275560000D01*
X1226690000Y-67450000D02*
X1206910000Y-66990000D01*
X762581307Y-421234500D02*
X689965500Y-421234500D01*
X996710000Y-286980000D02*
X967780000Y-280200000D01*
X1217070000Y-456010000D02*
X1235070000Y-470990000D01*
X1139990000Y-315610000D02*
X1130840000Y-311640000D01*
X131730000Y-216820000D02*
X135030000Y-197090000D01*
X500600000Y-145680000D02*
X534900000Y-149460000D01*
X1367740000Y-252800000D02*
X1365240000Y-273540000D01*
X184040000Y-80250000D02*
X169290000Y-83350000D01*
X1241520000Y-74440000D02*
X1230710000Y-74440000D01*
X83540000Y-380740000D02*
X83850000Y-382490000D01*
X550220000Y-687310000D02*
X523950000Y-705890000D01*
X1148670000Y-67030000D02*
X1128930000Y-67340000D01*
X1382290000Y-539840000D02*
X1394920000Y-523920000D01*
X284260000Y-151560000D02*
X302150000Y-150470000D01*
X214710000Y-203760000D02*
X229660000Y-183580000D01*
X1179170000Y-463200000D02*
X1188790000Y-472250000D01*
X63540000Y-275560000D02*
X64740000Y-291800000D01*
X281990000Y-247880000D02*
X251260000Y-245820000D01*
X225080000Y-150400000D02*
X225840000Y-150220000D01*
X1089110000Y-136680000D02*
X1109480000Y-134220000D01*
X1117070000Y-378600000D02*
X1135810000Y-390220000D01*
X525710000Y-101970000D02*
X547100000Y-102980000D01*
X357870000Y-395400000D02*
X365450000Y-389560000D01*
X1030700000Y-306060000D02*
X1010770000Y-300880000D01*
X390040000Y-67340000D02*
X371070000Y-67340000D01*
X192480000Y-117080000D02*
X204080000Y-113160000D01*
X909610000Y-313770000D02*
X943050000Y-318410000D01*
X1411030000Y-152660000D02*
X1405260000Y-140090000D01*
X255190000Y-314900000D02*
X236500000Y-313610000D01*
X306750000Y-586360000D02*
X317080000Y-557710000D01*
X811660000Y-292770000D02*
X842350000Y-295460000D01*
X1237520000Y-328850000D02*
X1215460000Y-323320000D01*
X881100000Y-655010000D02*
X880970000Y-689310000D01*
X590980000Y-394560000D02*
X598990000Y-396450000D01*
X1135810000Y-390220000D02*
X1148570000Y-400120000D01*
X1292910000Y-387550000D02*
X1280730000Y-389100000D01*
X1068300000Y-240600000D02*
X1049740000Y-233320000D01*
X286980000Y-569500000D02*
X301020000Y-544180000D01*
X696400000Y-227500000D02*
X686330000Y-228570000D01*
X1419220000Y-139490000D02*
X1412030000Y-116390000D01*
X1326890000Y-171950000D02*
X1330190000Y-177490000D01*
X374140000Y-625070000D02*
X363910000Y-608590000D01*
X839950000Y-231930000D02*
X813660000Y-228550000D01*
X633700000Y-184790000D02*
X635020000Y-185420000D01*
X353300000Y-104110000D02*
X368760000Y-104390000D01*
X891990000Y-545240000D02*
X874870000Y-524620000D01*
X465490000Y-418910000D02*
X491650000Y-409660000D01*
X507730000Y-404250000D02*
X524170000Y-401600000D01*
X616790000Y-564290000D02*
X599360000Y-593630000D01*
X805350000Y-151560000D02*
X808250000Y-151410000D01*
X529370000Y-669570000D02*
X526380000Y-673610000D01*
X1007480000Y-92040000D02*
X1037360000Y-91350000D01*
X444810000Y-198746000D02*
X434880000Y-219270000D01*
X1146240000Y-430570000D02*
X1164580000Y-447270000D01*
X585980000Y-581120000D02*
X579970000Y-591060000D01*
X1363950000Y-389470000D02*
X1348440000Y-410330000D01*
X881770000Y-144000000D02*
X890860000Y-143290000D01*
X126500000Y-288390000D02*
X123950000Y-279750000D01*
X974290000Y-101970000D02*
X992610000Y-101550000D01*
X1181660000Y-308940000D02*
X1166200000Y-302570000D01*
X572970000Y-647380000D02*
X568430000Y-660560000D01*
X78160000Y-338400000D02*
X78160000Y-344940000D01*
X643570000Y-557330000D02*
X627230000Y-580190000D01*
X825550000Y-737710000D02*
X812890000Y-737810000D01*
X1215420000Y-185480000D02*
X1215500000Y-185480000D01*
X1232300000Y-408370000D02*
X1213620000Y-399230000D01*
X83540000Y-380370000D02*
X83540000Y-380740000D01*
X830010000Y-316940000D02*
X866040000Y-319740000D01*
X168950000Y-178780000D02*
X171940000Y-173480000D01*
X1135990000Y-580360000D02*
X1136020000Y-608550000D01*
X726640000Y-658550000D02*
X745530000Y-664420000D01*
X928940000Y-212410000D02*
X918400000Y-207770000D01*
X1280730000Y-477280000D02*
X1307070000Y-482100000D01*
X1181840000Y-379070000D02*
X1169460000Y-370360000D01*
X1253760000Y-114570000D02*
X1257220000Y-114820000D01*
X1010540000Y-354640000D02*
X1035320000Y-363020000D01*
X798740000Y-303680000D02*
X818480000Y-304650000D01*
X316370000Y-60190000D02*
X289180000Y-60190000D01*
X267720000Y-408380000D02*
X253120000Y-417940000D01*
X514540000Y-53700000D02*
X479900000Y-53700000D01*
X1443330000Y-396170000D02*
X1443330000Y-364940000D01*
X1122300000Y-224530000D02*
X1118110000Y-221590000D01*
X1444400000Y-325440000D02*
X1445110000Y-319410000D01*
X1354380000Y-77120000D02*
X1346480000Y-77120000D01*
X766909793Y-746500000D02*
X765492496Y-746500000D01*
X760199239Y-599495081D02*
X760170406Y-599466248D01*
X1051610000Y-396330000D02*
X1069820000Y-405710000D01*
X253880000Y-364960000D02*
X247260000Y-366090000D01*
X1077610000Y-721120000D02*
X1060790000Y-720900000D01*
X322100000Y-406310000D02*
X324750000Y-403950000D01*
X355500000Y-175650000D02*
X365640000Y-177530000D01*
X775920000Y-546530000D02*
X801070000Y-557810000D01*
X1389280000Y-210210000D02*
X1390270000Y-239860000D01*
X365450000Y-389560000D02*
X375090000Y-382930000D01*
X701240000Y-202600000D02*
X684050000Y-206010000D01*
X1316700000Y-284550000D02*
X1314580000Y-287480000D01*
X317080000Y-557710000D02*
X318890000Y-554440000D01*
X1111120000Y-185420000D02*
X1134380000Y-177560000D01*
X1316850000Y-90630000D02*
X1310820000Y-88690000D01*
X949820000Y-687280000D02*
X943100000Y-678690000D01*
X1129790000Y-335160000D02*
X1102740000Y-322170000D01*
X111960000Y-75110000D02*
X111960000Y-75110000D01*
X523950000Y-675330000D02*
X491820000Y-692650000D01*
X677100000Y-329320000D02*
X707250000Y-327560000D01*
X787580000Y-626460000D02*
X787580000Y-614563944D01*
X54490000Y-280750000D02*
X54890000Y-286140000D01*
X1273140000Y-618250000D02*
X1280730000Y-639440000D01*
X635260000Y-726200000D02*
X625490000Y-711490000D01*
X1310540000Y-514350000D02*
X1314580000Y-515720000D01*
X113190000Y-154930000D02*
X119160000Y-142740000D01*
X973770000Y-269770000D02*
X951590000Y-265570000D01*
X524750000Y-192739700D02*
X521770000Y-194290000D01*
X287060000Y-415330000D02*
X312350000Y-396800000D01*
X666020000Y-377750000D02*
X678690000Y-377280000D01*
X1214100000Y-383030000D02*
X1212630000Y-381970000D01*
X920910000Y-294100000D02*
X929800000Y-295330000D01*
X915260000Y-303940000D02*
X936430000Y-306870000D01*
X1351410000Y-189230000D02*
X1352630000Y-194820000D01*
X1014300000Y-131490000D02*
X1029170000Y-129800000D01*
X1319460000Y-133750000D02*
X1338790000Y-147800000D01*
X1330170000Y-292290000D02*
X1314580000Y-313920000D01*
X996550000Y-208430000D02*
X986130000Y-200400000D01*
X375060000Y-74290000D02*
X347410000Y-73850000D01*
X1380730000Y-437990000D02*
X1382290000Y-435300000D01*
X515130000Y-83850000D02*
X497420000Y-83520000D01*
X139680000Y-465160000D02*
X151560000Y-475540000D01*
X536400000Y-84350000D02*
X535840000Y-84320000D01*
X946310000Y-728190000D02*
X942190000Y-724940000D01*
X1158770000Y-152310000D02*
X1169380000Y-151560000D01*
X207730000Y-217830000D02*
X214710000Y-203760000D01*
X1259930000Y-125430000D02*
X1285570000Y-131420000D01*
X590390000Y-313780000D02*
X599210000Y-312540000D01*
X1034750000Y-418910000D02*
X1037760000Y-420330000D01*
X1315060000Y-242960000D02*
X1314990000Y-243160000D01*
X1379290000Y-398270000D02*
X1382290000Y-391890000D01*
X967420000Y-225420000D02*
X961310000Y-223760000D01*
X386410000Y-277660000D02*
X377880000Y-281200000D01*
X1424320000Y-107930000D02*
X1422760000Y-105550000D01*
X147200000Y-114520000D02*
X162100000Y-106120000D01*
X1009340000Y-343270000D02*
X1040340000Y-352650000D01*
X1280730000Y-452450000D02*
X1290550000Y-452690000D01*
X540250000Y-76640000D02*
X531970000Y-76640000D01*
X1117940000Y-81230000D02*
X1081630000Y-81990000D01*
X1010770000Y-300880000D02*
X996800000Y-297380000D01*
X845400000Y-357850000D02*
X848910000Y-357620000D01*
X1037640000Y-158570000D02*
X1044200000Y-155970000D01*
X415720000Y-385220000D02*
X434140000Y-375820000D01*
X408630000Y-305770000D02*
X394770000Y-311240000D01*
X889290000Y-224800000D02*
X883580000Y-223670000D01*
X1083970000Y-89790000D02*
X1116490000Y-89010000D01*
X85020000Y-128310000D02*
X78230000Y-147760000D01*
X967780000Y-280200000D02*
X959040000Y-278540000D01*
X1049610000Y-301410000D02*
X1035980000Y-296870000D01*
X611010000Y-359710000D02*
X616870000Y-359880000D01*
X286980000Y-475760000D02*
X297280000Y-464250000D01*
X257240000Y-296900000D02*
X236960000Y-295490000D01*
X1378120000Y-164350000D02*
X1381630000Y-170650000D01*
X103870000Y-291280000D02*
X102550000Y-274630000D01*
X790660000Y-256200000D02*
X787220000Y-256030000D01*
X1131130000Y-738700000D02*
X1111460000Y-739850000D01*
X816490000Y-98050000D02*
X839340000Y-97580000D01*
X1418560000Y-456950000D02*
X1425270000Y-424680000D01*
X1151290000Y-96120000D02*
X1165150000Y-95730000D01*
X322200000Y-321860000D02*
X322090000Y-321900000D01*
X1208630000Y-103720000D02*
X1224460000Y-104140000D01*
X400020000Y-562150000D02*
X400960000Y-549110000D01*
X1249100000Y-437610000D02*
X1280730000Y-452450000D01*
X795970000Y-511630000D02*
X779140000Y-506980000D01*
X720850000Y-507000000D02*
X704050000Y-511660000D01*
X1189830000Y-282430000D02*
X1186750000Y-281370000D01*
X357060000Y-260710000D02*
X333440000Y-270520000D01*
X320830000Y-513510000D02*
X339330000Y-488400000D01*
X559170000Y-123990000D02*
X589510000Y-126300000D01*
X325240000Y-256700000D02*
X315790000Y-261550000D01*
X961140000Y-185420000D02*
X978990000Y-177860000D01*
X503480000Y-208380000D02*
X494500000Y-214520000D01*
X642060000Y-471440000D02*
X629100000Y-490100000D01*
X489230000Y-300890000D02*
X469300000Y-306070000D01*
X588180000Y-377640000D02*
X601530000Y-376210000D01*
X995350000Y-738910000D02*
X976050000Y-735340000D01*
X1146970000Y-383750000D02*
X1149950000Y-386060000D01*
X1138900000Y-462380000D02*
X1145310000Y-470210000D01*
X220740000Y-290580000D02*
X201820000Y-275720000D01*
X927580000Y-350200000D02*
X960540000Y-354690000D01*
X1077610000Y-616680000D02*
X1071940000Y-617140000D01*
X144950000Y-77460000D02*
X133960000Y-81100000D01*
X186750000Y-177760000D02*
X197920000Y-167110000D01*
X920190000Y-363050000D02*
X930060000Y-363490000D01*
X403780000Y-124290000D02*
X433810000Y-126560000D01*
X830670000Y-704210000D02*
X810400000Y-711710000D01*
X1083210000Y-347530000D02*
X1103840000Y-357860000D01*
X1387070000Y-155030000D02*
X1391470000Y-164610000D01*
X1184680000Y-129720000D02*
X1209520000Y-130150000D01*
X1136890000Y-121200000D02*
X1140680000Y-120820000D01*
X995260000Y-232350000D02*
X967420000Y-225420000D01*
X456630000Y-185420000D02*
X454180000Y-188010000D01*
X138390000Y-504790000D02*
X151560000Y-513160000D01*
X1099840000Y-320720000D02*
X1097870000Y-319950000D01*
X937740000Y-61670000D02*
X912260000Y-61670000D01*
X760170406Y-599466248D02*
X760000000Y-599466248D01*
X632790000Y-319880000D02*
X633960000Y-319750000D01*
X783640000Y-718090000D02*
X753110000Y-719630000D01*
X426850000Y-466890000D02*
X449960000Y-448120000D01*
X894100000Y-69940000D02*
X878120000Y-69940000D01*
X137860000Y-184550000D02*
X137860000Y-184550000D01*
X1348440000Y-352490000D02*
X1331270000Y-370700000D01*
X1080550000Y-615580000D02*
X1077610000Y-616680000D01*
X417380000Y-290560000D02*
X389430000Y-301590000D01*
X144050000Y-337350000D02*
X132880000Y-313510000D01*
X1149950000Y-386060000D02*
X1175730000Y-404260000D01*
X128850000Y-112520000D02*
X128390000Y-113090000D01*
X579810000Y-363050000D02*
X611010000Y-359710000D01*
X1144470000Y-175690000D02*
X1144470000Y-175690000D01*
X1128930000Y-269080000D02*
X1102620000Y-258110000D01*
X1072020000Y-98710000D02*
X1088590000Y-97840000D01*
X849460000Y-147670000D02*
X881770000Y-144000000D01*
X1145850000Y-305340000D02*
X1122070000Y-295040000D01*
X831030000Y-585290000D02*
X836970000Y-593530000D01*
X777020000Y-341500000D02*
X800900000Y-341740000D01*
X980730000Y-708420000D02*
X976050000Y-705890000D01*
X452360000Y-344280000D02*
X467100000Y-339420000D01*
X1416670000Y-186410000D02*
X1416670000Y-185810000D01*
X385370000Y-483060000D02*
X386860000Y-481260000D01*
X968030000Y-76640000D02*
X959750000Y-76640000D01*
X1308710000Y-318830000D02*
X1280780000Y-332040000D01*
X191860000Y-141250000D02*
X191860000Y-141250000D01*
X186610000Y-248210000D02*
X185810000Y-246340000D01*
X1209140000Y-494990000D02*
X1211650000Y-498010000D01*
X315790000Y-261550000D02*
X293600000Y-268410000D01*
X90740000Y-493270000D02*
X98290000Y-505510000D01*
X917500000Y-586490000D02*
X910620000Y-575530000D01*
X941420000Y-112440000D02*
X947550000Y-112290000D01*
X529020000Y-598560000D02*
X524740000Y-604790000D01*
X1213020000Y-475800000D02*
X1228070000Y-488580000D01*
X760000000Y-543960600D02*
X761490000Y-543960000D01*
X457710000Y-82770000D02*
X420520000Y-81990000D01*
X760000000Y-62620000D02*
X750000000Y-71050000D01*
X515210000Y-386010000D02*
X518600000Y-385180000D01*
X91270000Y-148930000D02*
X88750000Y-154680000D01*
X131190000Y-55460000D02*
X122530000Y-58330000D01*
X66920000Y-159230000D02*
X64240000Y-175650000D01*
X833530000Y-107700000D02*
X860220000Y-106480000D01*
X156600000Y-96840000D02*
X128980000Y-112430000D01*
X1107690000Y-239730000D02*
X1086190000Y-229080000D01*
X409930000Y-168130000D02*
X434370000Y-177540000D01*
X1330680000Y-114680000D02*
X1331380000Y-115190000D01*
X1146650000Y-131220000D02*
X1170550000Y-130300000D01*
X1054160000Y-678200000D02*
X1043750000Y-677470000D01*
X354200000Y-305440000D02*
X322200000Y-321860000D01*
X676020000Y-623090000D02*
X682870000Y-608520000D01*
X1319740000Y-165210000D02*
X1326890000Y-171950000D01*
X1077610000Y-740540000D02*
X1060210000Y-740550000D01*
X686330000Y-228570000D02*
X660060000Y-231950000D01*
X1283660000Y-68770000D02*
X1266340000Y-68770000D01*
X1057400000Y-384050000D02*
X1058490000Y-384530000D01*
X203770000Y-180190000D02*
X204910000Y-179100000D01*
X818050000Y-270060000D02*
X797690000Y-268450000D01*
X1369100000Y-236910000D02*
X1367740000Y-252800000D01*
X769890000Y-696010000D02*
X765250000Y-696240000D01*
X1285820000Y-694590000D02*
X1280730000Y-697890000D01*
X969090000Y-667810000D02*
X951660000Y-648330000D01*
X1113150000Y-457990000D02*
X1125430000Y-470870000D01*
X1280890000Y-312340000D02*
X1262750000Y-313790000D01*
X1348440000Y-287570000D02*
X1343650000Y-300030000D01*
X642620000Y-589770000D02*
X658330000Y-567990000D01*
X974980000Y-335370000D02*
X993980000Y-339380000D01*
X426010000Y-298420000D02*
X408630000Y-305770000D01*
X1382290000Y-615770000D02*
X1399860000Y-604530000D01*
X899120000Y-556420000D02*
X891990000Y-545240000D01*
X961980000Y-290310000D02*
X942130000Y-286980000D01*
X1005560000Y-320830000D02*
X1020100000Y-324520000D01*
X1246880000Y-382100000D02*
X1227720000Y-372780000D01*
X1399910000Y-234330000D02*
X1399570000Y-254370000D01*
X684050000Y-206010000D02*
X655510000Y-214510000D01*
X264270000Y-276480000D02*
X256920000Y-275910000D01*
X508750000Y-374750000D02*
X527180000Y-370240000D01*
X1043750000Y-720450000D02*
X1029090000Y-719530000D01*
X216330000Y-68770000D02*
X193150000Y-71600000D01*
X1187420000Y-168630000D02*
X1205800000Y-167550000D01*
X450530000Y-447730000D02*
X472540000Y-437070000D01*
X352960000Y-238930000D02*
X336140000Y-252170000D01*
X714390000Y-461960000D02*
X705990000Y-465170000D01*
X746100000Y-314050000D02*
X753900000Y-314050000D01*
X924150000Y-85330000D02*
X887490000Y-86250000D01*
X519360000Y-325520000D02*
X543650000Y-320830000D01*
X306600000Y-356020000D02*
X287260000Y-367260000D01*
X464020000Y-296880000D02*
X449950000Y-301570000D01*
X834810000Y-62240000D02*
X820610000Y-62480000D01*
X523950000Y-705890000D02*
X519270000Y-708420000D01*
X1215360000Y-119980000D02*
X1218070000Y-120150000D01*
X377800000Y-343210000D02*
X367620000Y-348800000D01*
X117710000Y-483650000D02*
X138390000Y-504790000D01*
X137860000Y-184550000D02*
X147270000Y-166480000D01*
X852710000Y-668460000D02*
X852650000Y-677320000D01*
X859480000Y-376020000D02*
X873340000Y-376930000D01*
X212020000Y-61250000D02*
X198120000Y-62950000D01*
X579740000Y-704970000D02*
X557810000Y-724890000D01*
X423590000Y-653460000D02*
X422390000Y-653470000D01*
X1044680000Y-408330000D02*
X1068140000Y-420420000D01*
X317080000Y-557710000D02*
X317080000Y-557710000D01*
X74580000Y-297450000D02*
X74580000Y-308100000D01*
X1160710000Y-87990000D02*
X1194890000Y-87910000D01*
X1325810000Y-62950000D02*
X1301500000Y-62950000D01*
X83850000Y-582770000D02*
X100140000Y-604540000D01*
X641130000Y-131280000D02*
X663490000Y-132910000D01*
X476310000Y-383730000D02*
X482340000Y-381680000D01*
X820610000Y-62480000D02*
X796060000Y-62480000D01*
X904310000Y-491060000D02*
X892280000Y-464640000D01*
X355060000Y-448140000D02*
X370770000Y-432810000D01*
X923400000Y-639900000D02*
X917540000Y-629370000D01*
X547100000Y-102980000D02*
X563790000Y-103370000D01*
X378060000Y-355650000D02*
X383500000Y-352380000D01*
X1060060000Y-115870000D02*
X1062200000Y-115820000D01*
X1216010000Y-151560000D02*
X1234990000Y-153410000D01*
X121240000Y-166030000D02*
X131140000Y-145810000D01*
X974420000Y-401580000D02*
X991350000Y-404170000D01*
X859950000Y-534480000D02*
X848370000Y-524330000D01*
X141530000Y-92960000D02*
X122110000Y-100350000D01*
X1431950000Y-80620000D02*
X1431950000Y-70240000D01*
X855950000Y-234470000D02*
X839950000Y-231930000D01*
X1022160000Y-117810000D02*
X1022270000Y-117800000D01*
X599360000Y-593630000D02*
X597150000Y-598460000D01*
X78230000Y-147760000D02*
X78230000Y-154270000D01*
X557780000Y-53870000D02*
X553380000Y-53780000D01*
X1445110000Y-286140000D02*
X1445510000Y-280750000D01*
X226850000Y-618240000D02*
X232290000Y-606410000D01*
X566730000Y-69460000D02*
X544630000Y-69020000D01*
X1314580000Y-287480000D02*
X1289990000Y-308040000D01*
X1045730000Y-90930000D02*
X1076930000Y-90160000D01*
X818480000Y-304650000D02*
X836180000Y-306200000D01*
X506010000Y-339380000D02*
X525020000Y-335370000D01*
X380690000Y-408050000D02*
X391160000Y-400850000D01*
X1385400000Y-75430000D02*
X1361520000Y-66260000D01*
X1310820000Y-88690000D02*
X1275400000Y-83860000D01*
X577300000Y-418390000D02*
X594280000Y-422390000D01*
X896620000Y-169860000D02*
X919360000Y-161390000D01*
X1183630000Y-60190000D02*
X1171910000Y-60210000D01*
X1348440000Y-380900000D02*
X1319750000Y-402970000D01*
X827670000Y-117890000D02*
X827870000Y-117870000D01*
X555960000Y-596630000D02*
X547440000Y-609590000D01*
X317950000Y-192720000D02*
X321380000Y-197990000D01*
X986770000Y-247140000D02*
X978750000Y-245150000D01*
X89160000Y-338620000D02*
X91340000Y-345960000D01*
X113960000Y-475630000D02*
X115030000Y-479310000D01*
X1345300000Y-228600000D02*
X1342350000Y-260070000D01*
X223920000Y-150900000D02*
X225080000Y-150400000D01*
X1022270000Y-117800000D02*
X1023490000Y-117710000D01*
X921940000Y-349360000D02*
X927580000Y-350200000D01*
X357750000Y-329720000D02*
X340240000Y-338290000D01*
X172650000Y-203580000D02*
X177280000Y-193660000D01*
X1266900000Y-137740000D02*
X1280060000Y-140810000D01*
X928940000Y-212410000D02*
X918400000Y-207770000D01*
X535760000Y-355290000D02*
X536410000Y-355200000D01*
X286980000Y-688920000D02*
X266450000Y-664570000D01*
X363110000Y-121190000D02*
X396710000Y-123440000D01*
X524170000Y-401600000D02*
X551110000Y-396290000D01*
X960540000Y-354690000D02*
X963600000Y-355190000D01*
X321810000Y-391310000D02*
X344210000Y-375380000D01*
X775329229Y-158149696D02*
X768030326Y-158149696D01*
X890860000Y-143290000D02*
X918400000Y-140070000D01*
X749110000Y-522400000D02*
X749223468Y-522400000D01*
X748280000Y-120690000D02*
X750000000Y-120690000D01*
X82940000Y-94770000D02*
X75250000Y-104420000D01*
X1267540000Y-294780000D02*
X1249510000Y-296800000D01*
X750000000Y-543965000D02*
X760000000Y-524090000D01*
X944010000Y-252360000D02*
X910430000Y-244640000D01*
X633580000Y-185850000D02*
X632930000Y-186110000D01*
X1025170000Y-258260000D02*
X1020150000Y-256740000D01*
X567330000Y-273630000D02*
X540960000Y-278540000D01*
X355250000Y-60210000D02*
X328090000Y-60210000D01*
X371070000Y-67340000D02*
X351330000Y-67030000D01*
X386860000Y-481260000D02*
X387760000Y-480300000D01*
X560200000Y-396620000D02*
X590980000Y-394560000D01*
X199070000Y-104980000D02*
X214420000Y-102920000D01*
X1445590000Y-241910000D02*
X1445590000Y-208090000D01*
X1120950000Y-81230000D02*
X1117940000Y-81230000D01*
X427980000Y-98720000D02*
X449490000Y-99240000D01*
X1063140000Y-53530000D02*
X1059030000Y-53620000D01*
X1300080000Y-430560000D02*
X1280730000Y-430080000D01*
X601640000Y-197950000D02*
X581590000Y-207800000D01*
X1416460000Y-380380000D02*
X1421840000Y-344940000D01*
X951050000Y-309320000D02*
X979780000Y-314650000D01*
X888990000Y-359700000D02*
X920190000Y-363050000D01*
X198120000Y-62950000D02*
X174100000Y-62950000D01*
X738370000Y-503700000D02*
X720850000Y-507000000D01*
X504620000Y-738890000D02*
X490100000Y-738890000D01*
X794000000Y-465150000D02*
X785620000Y-461950000D01*
X1055270000Y-127880000D02*
X1066190000Y-126550000D01*
X677840000Y-107930000D02*
X706020000Y-108850000D01*
X83260000Y-187640000D02*
X83090000Y-190250000D01*
X422390000Y-653470000D02*
X421410000Y-653340000D01*
X1136020000Y-608550000D02*
X1125750000Y-625130000D01*
X1103840000Y-357860000D02*
X1113450000Y-362920000D01*
X209310000Y-348370000D02*
X185420000Y-337690000D01*
X151560000Y-380900000D02*
X151380000Y-380660000D01*
X253120000Y-507760000D02*
X271910000Y-488570000D01*
X539510000Y-354690000D02*
X572420000Y-350200000D01*
X611700000Y-446403500D02*
X558390000Y-482520000D01*
X189040000Y-88630000D02*
X182390000Y-90870000D01*
X1101230000Y-588570000D02*
X1085680000Y-609250000D01*
X787570000Y-120000000D02*
X790130000Y-119870000D01*
X1165150000Y-95730000D02*
X1190440000Y-95670000D01*
X1179170000Y-735810000D02*
X1159500000Y-738700000D01*
X206710000Y-233150000D02*
X207730000Y-217830000D01*
X322090000Y-321900000D02*
X321990000Y-321940000D01*
X64240000Y-197770000D02*
X63310000Y-213200000D01*
X1344820000Y-153470000D02*
X1351410000Y-164550000D01*
X1114500000Y-421040000D02*
X1127790000Y-431580000D01*
X993010000Y-623590000D02*
X976650000Y-606570000D01*
X923000000Y-283490000D02*
X890940000Y-278580000D01*
X850240000Y-78590000D02*
X844200000Y-78590000D01*
X247260000Y-366090000D02*
X219460000Y-369940000D01*
X1311400000Y-208440000D02*
X1315050000Y-242480000D01*
X81090000Y-223410000D02*
X81090000Y-226590000D01*
X793550000Y-532070000D02*
X816200000Y-544120000D01*
X151200000Y-77460000D02*
X144950000Y-77460000D01*
X142550000Y-222790000D02*
X147060000Y-195800000D01*
X72590000Y-257420000D02*
X72590000Y-270360000D01*
X1427820000Y-231710000D02*
X1427820000Y-218290000D01*
X1314580000Y-551970000D02*
X1320850000Y-551950000D01*
X1382290000Y-350300000D02*
X1379010000Y-359220000D01*
X502280000Y-363500000D02*
X535760000Y-355290000D01*
X1427820000Y-218290000D02*
X1426200000Y-191890000D01*
X538020000Y-290310000D02*
X533740000Y-291100000D01*
X1315760000Y-80260000D02*
X1310920000Y-80260000D01*
X1063400000Y-257110000D02*
X1059660000Y-255650000D01*
X320830000Y-551310000D02*
X335530000Y-525110000D01*
X739420000Y-302410000D02*
X760580000Y-302410000D01*
X899200000Y-524510000D02*
X880850000Y-499070000D01*
X950030000Y-330560000D02*
X974980000Y-335370000D01*
X1213020000Y-529780000D02*
X1216850000Y-533910000D01*
X980640000Y-325520000D02*
X986770000Y-326810000D01*
X606710000Y-547150000D02*
X600040000Y-557530000D01*
X1408120000Y-268500000D02*
X1409020000Y-259800000D01*
X910620000Y-575530000D02*
X899120000Y-556420000D01*
X685710000Y-567960000D02*
X685710000Y-567960000D01*
X1399280000Y-215720000D02*
X1399910000Y-234330000D01*
X254470000Y-67450000D02*
X233670000Y-68770000D01*
X748910000Y-255020000D02*
X712790000Y-256040000D01*
X1246880000Y-458720000D02*
X1265130000Y-467300000D01*
X472760000Y-108970000D02*
X482670000Y-109200000D01*
X253120000Y-436930000D02*
X283170000Y-417260000D01*
X1313730000Y-360620000D02*
X1280730000Y-369900000D01*
X286750000Y-382340000D02*
X253140000Y-399060000D01*
X629930000Y-518040000D02*
X625700000Y-523940000D01*
X854700000Y-96880000D02*
X878980000Y-96270000D01*
X219270000Y-477270000D02*
X234870000Y-467300000D01*
X1331270000Y-370700000D02*
X1314580000Y-382770000D01*
X1394380000Y-406940000D02*
X1397580000Y-391220000D01*
X871930000Y-579170000D02*
X856690000Y-557750000D01*
X567790000Y-139010000D02*
X581600000Y-140060000D01*
X352570000Y-319630000D02*
X331160000Y-330110000D01*
X1211080000Y-731670000D02*
X1179170000Y-735810000D01*
X406110000Y-60650000D02*
X394030000Y-60400000D01*
X325960000Y-111200000D02*
X357900000Y-112110000D01*
X1042230000Y-288000000D02*
X1041260000Y-287680000D01*
X1357500000Y-222030000D02*
X1357850000Y-230480000D01*
X286980000Y-731600000D02*
X285170000Y-731600000D01*
X840740000Y-566770000D02*
X859740000Y-593130000D01*
X940530000Y-219270000D02*
X928940000Y-212410000D01*
X386630000Y-219270000D02*
X381900000Y-221610000D01*
X369580000Y-506710000D02*
X385370000Y-483060000D01*
X1425270000Y-414200000D02*
X1429890000Y-388450000D01*
X854940000Y-70420000D02*
X839500000Y-70420000D01*
X750000000Y-597014900D02*
X760000000Y-567320000D01*
X899440000Y-591510000D02*
X881710000Y-562110000D01*
X1307640000Y-154170000D02*
X1319740000Y-165210000D01*
X566590000Y-233910000D02*
X546950000Y-238140000D01*
X596290000Y-324050000D02*
X623770000Y-320830000D01*
X1049740000Y-233320000D02*
X1036870000Y-227620000D01*
X437810000Y-115820000D02*
X439940000Y-115870000D01*
X526980000Y-302880000D02*
X543490000Y-299820000D01*
X1275520000Y-150620000D02*
X1300950000Y-166180000D01*
X1396500000Y-75430000D02*
X1385400000Y-75430000D01*
X379050000Y-81230000D02*
X343490000Y-80680000D01*
X240000000Y-125470000D02*
X247920000Y-123760000D01*
X490270000Y-637570000D02*
X475740000Y-644530000D01*
X888650000Y-611970000D02*
X879890000Y-592360000D01*
X591530000Y-258200000D02*
X561320000Y-263160000D01*
X830090000Y-117710000D02*
X865730000Y-116080000D01*
X1283770000Y-573260000D02*
X1300640000Y-586440000D01*
X1086190000Y-229080000D02*
X1077720000Y-224210000D01*
X130950000Y-237400000D02*
X131730000Y-216820000D01*
X1079480000Y-81990000D02*
X1042290000Y-82770000D01*
X1113430000Y-673350000D02*
X1111460000Y-673770000D01*
X626670000Y-376940000D02*
X640520000Y-376030000D01*
X808430000Y-151400000D02*
X845160000Y-147980000D01*
X174100000Y-62950000D02*
X157400000Y-66460000D01*
X131140000Y-145810000D02*
X140050000Y-134650000D01*
X1388840000Y-203430000D02*
X1389280000Y-210210000D01*
X1143610000Y-690690000D02*
X1111460000Y-697470000D01*
X1130200000Y-132830000D02*
X1146650000Y-131220000D01*
X1235300000Y-639980000D02*
X1233590000Y-664590000D01*
X922690000Y-418380000D02*
X927130000Y-418680000D01*
X315320000Y-129720000D02*
X329450000Y-130300000D01*
X90490000Y-228810000D02*
X90990000Y-259790000D01*
X600390000Y-640440000D02*
X593220000Y-663460000D01*
X1081070000Y-449840000D02*
X1088450000Y-455890000D01*
X1164310000Y-141160000D02*
X1190630000Y-140080000D01*
X1333320000Y-449650000D02*
X1348440000Y-441640000D01*
X399710000Y-380920000D02*
X405320000Y-377940000D01*
X339330000Y-488400000D02*
X355080000Y-469550000D01*
X1036870000Y-227620000D02*
X1009610000Y-219270000D01*
X664780000Y-590670000D02*
X668720000Y-585200000D01*
X783870000Y-108970000D02*
X793980000Y-108850000D01*
X1421260000Y-146320000D02*
X1419220000Y-139490000D01*
X938680000Y-263160000D02*
X908460000Y-258190000D01*
X951660000Y-648330000D02*
X944100000Y-636810000D01*
X1225240000Y-169450000D02*
X1248860000Y-173920000D01*
X1055450000Y-199299800D02*
X1054390000Y-197120000D01*
X584740000Y-303940000D02*
X605850000Y-300960000D01*
X229350000Y-76280000D02*
X220650000Y-76280000D01*
X616430000Y-223690000D02*
X610700000Y-224810000D01*
X384710000Y-421250000D02*
X392950000Y-414610000D01*
X368760000Y-104390000D02*
X393020000Y-105560000D01*
X445850000Y-678190000D02*
X422390000Y-678330000D01*
X1015820000Y-61150000D02*
X989740000Y-61150000D01*
X1111470000Y-479590000D02*
X1113320000Y-482000000D01*
X973630000Y-673610000D02*
X969090000Y-667810000D01*
X1328910000Y-211780000D02*
X1330180000Y-235740000D01*
X157400000Y-66460000D02*
X138070000Y-66460000D01*
X54490000Y-247030000D02*
X54490000Y-280750000D01*
X376480000Y-144470000D02*
X384330000Y-144990000D01*
X151560000Y-322620000D02*
X144240000Y-306980000D01*
X98780000Y-125760000D02*
X91270000Y-148930000D01*
X825310000Y-316530000D02*
X830010000Y-316940000D01*
X654840000Y-147960000D02*
X691560000Y-151380000D01*
X786480000Y-54190000D02*
X760000000Y-54190000D01*
X178900000Y-134610000D02*
X201550000Y-125320000D01*
X1366170000Y-351850000D02*
X1348750000Y-380380000D01*
X908460000Y-258190000D02*
X903120000Y-257370000D01*
X677010000Y-737860000D02*
X656750000Y-732410000D01*
X383510000Y-89010000D02*
X416030000Y-89790000D01*
X1247470000Y-348720000D02*
X1219670000Y-339370000D01*
X873220000Y-264540000D02*
X860990000Y-263010000D01*
X964230000Y-355280000D02*
X997440000Y-363370000D01*
X1280730000Y-534220000D02*
X1282780000Y-534930000D01*
X250910000Y-437620000D02*
X253120000Y-436930000D01*
X147270000Y-166480000D02*
X153450000Y-155520000D01*
X398020000Y-53450000D02*
X363090000Y-53450000D01*
X286710000Y-307460000D02*
X280620000Y-308850000D01*
X1037360000Y-91350000D02*
X1045730000Y-90930000D01*
X573350000Y-284100000D02*
X557890000Y-286980000D01*
X1439570000Y-471790000D02*
X1439570000Y-444880000D01*
X128980000Y-112430000D02*
X128850000Y-112520000D01*
X352140000Y-534650000D02*
X354690000Y-530540000D01*
X1214110000Y-367910000D02*
X1193020000Y-355930000D01*
X694890000Y-151560000D02*
X726550000Y-158530000D01*
X213810000Y-688530000D02*
X209540000Y-658370000D01*
X179000000Y-166500000D02*
X190930000Y-155120000D01*
X262500000Y-81430000D02*
X225030000Y-83800000D01*
X1441480000Y-122090000D02*
X1441480000Y-95210000D01*
X940830000Y-124000000D02*
X947620000Y-123230000D01*
X1319750000Y-402970000D02*
X1314580000Y-405760000D01*
X818050000Y-134640000D02*
X836520000Y-132920000D01*
X717940000Y-241230000D02*
X704810000Y-242160000D01*
X207820000Y-177290000D02*
X232490000Y-164070000D01*
X1145310000Y-689790000D02*
X1143610000Y-690690000D01*
X1378480000Y-320030000D02*
X1375670000Y-326030000D01*
X183740000Y-285550000D02*
X182930000Y-283440000D01*
X901020000Y-396440000D02*
X909010000Y-394560000D01*
X492750000Y-76060000D02*
X463140000Y-75480000D01*
X1177420000Y-258810000D02*
X1174180000Y-257120000D01*
X1315050000Y-242480000D02*
X1315070000Y-242890000D01*
X1190630000Y-140080000D02*
X1203690000Y-140310000D01*
X1179170000Y-670420000D02*
X1178330000Y-671740000D01*
X185420000Y-456500000D02*
X209460000Y-452700000D01*
X117710000Y-391900000D02*
X120710000Y-398280000D01*
X719430000Y-267610000D02*
X702300000Y-268460000D01*
X485280000Y-333900000D02*
X513230000Y-326810000D01*
X1043750000Y-740120000D02*
X1024440000Y-738910000D01*
X1436710000Y-236810000D02*
X1436710000Y-213190000D01*
X626550000Y-332630000D02*
X639760000Y-332020000D01*
X830110000Y-54060000D02*
X825400000Y-54140000D01*
X416030000Y-89790000D02*
X423070000Y-90160000D01*
X1258850000Y-548680000D02*
X1280730000Y-571640000D01*
X1199590000Y-87970000D02*
X1233240000Y-88850000D01*
X105090000Y-523920000D02*
X117710000Y-539820000D01*
X1254180000Y-512470000D02*
X1280730000Y-534220000D01*
X1381630000Y-170650000D02*
X1384450000Y-182730000D01*
X955370000Y-69020000D02*
X933270000Y-69460000D01*
X1160310000Y-566390000D02*
X1167340000Y-587650000D01*
X958250000Y-93660000D02*
X969230000Y-93150000D01*
X1150180000Y-538900000D02*
X1160310000Y-566390000D01*
X521250000Y-245140000D02*
X513230000Y-247140000D01*
X694360000Y-494800000D02*
X686340000Y-499370000D01*
X490360000Y-219270000D02*
X463130000Y-227610000D01*
X220270000Y-332350000D02*
X191680000Y-319030000D01*
X94950000Y-425820000D02*
X100470000Y-448790000D01*
X1047770000Y-140940000D02*
X1072710000Y-137910000D01*
X760000000Y-524094000D02*
X786140000Y-528740000D01*
X100140000Y-604540000D02*
X117710000Y-615800000D01*
X314020000Y-103430000D02*
X330400000Y-103460000D01*
X643870000Y-505620000D02*
X629930000Y-518040000D01*
X626770000Y-264550000D02*
X602980000Y-267980000D01*
X418010000Y-149060000D02*
X420760000Y-149270000D01*
X321610000Y-441080000D02*
X322970000Y-439810000D01*
X1358140000Y-152570000D02*
X1371660000Y-176840000D01*
X1013530000Y-693750000D02*
X1009900000Y-693120000D01*
X920190000Y-704310000D02*
X910740000Y-672660000D01*
X770230000Y-356060000D02*
X807200000Y-356670000D01*
X1127790000Y-431580000D02*
X1145630000Y-448790000D01*
X999400000Y-145680000D02*
X1006440000Y-145180000D01*
X656750000Y-732410000D02*
X635260000Y-726200000D01*
X834980000Y-511420000D02*
X813620000Y-499310000D01*
X409900000Y-531260000D02*
X422440000Y-506470000D01*
X1072690000Y-286980000D02*
X1047350000Y-277080000D01*
X751132159Y-406960000D02*
X838360000Y-406960000D01*
X1424320000Y-110630000D02*
X1424320000Y-107930000D01*
X219270000Y-639500000D02*
X226850000Y-618240000D01*
X674690000Y-316540000D02*
X707720000Y-314920000D01*
X485140000Y-457750000D02*
X501420000Y-451740000D01*
X1382290000Y-483660000D02*
X1384970000Y-479310000D01*
X745180000Y-109320000D02*
X750000000Y-109320000D01*
X458960000Y-82770000D02*
X457710000Y-82770000D01*
X626900000Y-309630000D02*
X640700000Y-308010000D01*
X1371660000Y-176840000D02*
X1377930000Y-203620000D01*
X540960000Y-278540000D02*
X532220000Y-280200000D01*
X878120000Y-69940000D02*
X854940000Y-70420000D01*
X1041040000Y-82770000D02*
X1002970000Y-83510000D01*
X394770000Y-311240000D02*
X377740000Y-319630000D01*
X551110000Y-396290000D02*
X560200000Y-396620000D01*
X686960000Y-737760000D02*
X677010000Y-737860000D01*
X146670000Y-344480000D02*
X144050000Y-337350000D01*
X623770000Y-320830000D02*
X632790000Y-319880000D01*
X614100000Y-456326100D02*
X602970000Y-471100000D01*
X355970000Y-411980000D02*
X373070000Y-398800000D01*
X788740000Y-490100000D02*
X772910000Y-484060000D01*
X729770000Y-356060000D02*
X750000000Y-356100000D01*
X796060000Y-62480000D02*
X781640000Y-62620000D01*
X766610000Y-88790000D02*
X760000000Y-88790000D01*
X387760000Y-480300000D02*
X410430000Y-457550000D01*
X555290000Y-555690000D02*
X545460000Y-572210000D01*
X766110000Y-225080000D02*
X733900000Y-225080000D01*
X625700000Y-523940000D02*
X606710000Y-547150000D01*
X1366050000Y-141240000D02*
X1378120000Y-164350000D01*
X647440000Y-296270000D02*
X657660000Y-295480000D01*
X615120000Y-289120000D02*
X633350000Y-286980000D01*
X927190000Y-527820000D02*
X915950000Y-506100000D01*
X520230000Y-259330000D02*
X511990000Y-261270000D01*
X389010000Y-202937800D02*
X389020000Y-204530000D01*
X1004330000Y-253120000D02*
X986770000Y-247140000D01*
X1072710000Y-137910000D02*
X1089110000Y-136680000D01*
X428120000Y-617180000D02*
X422390000Y-616720000D01*
X295890000Y-95850000D02*
X309560000Y-95670000D01*
X1244100000Y-97760000D02*
X1266120000Y-99320000D01*
X750000000Y-54190000D02*
X713520000Y-54190000D01*
X1246550000Y-133390000D02*
X1266900000Y-137740000D01*
X780570000Y-267600000D02*
X757950000Y-266970000D01*
X1153840000Y-282360000D02*
X1128930000Y-269080000D01*
X640520000Y-376030000D02*
X666020000Y-377750000D01*
X321710000Y-335560000D02*
X294150000Y-348280000D01*
X1361700000Y-183020000D02*
X1364600000Y-195430000D01*
X817640000Y-523950000D02*
X795970000Y-511630000D01*
X1043750000Y-677470000D02*
X1036900000Y-676160000D01*
X1035980000Y-296870000D02*
X1003640000Y-288470000D01*
X577000000Y-283500000D02*
X573350000Y-284100000D01*
X768030326Y-158149696D02*
X750290022Y-175890000D01*
X286880000Y-352500000D02*
X256020000Y-363900000D01*
X654850000Y-87460000D02*
X650810000Y-87270000D01*
X253120000Y-721910000D02*
X239400000Y-718990000D01*
X760000000Y-54190000D02*
X750000000Y-62620000D01*
X1266900000Y-137740000D02*
X1280060000Y-140810000D01*
X922300000Y-559450000D02*
X919070000Y-553450000D01*
X72200000Y-231700000D02*
X72590000Y-257420000D01*
X1134540000Y-325600000D02*
X1127170000Y-322060000D01*
X1062200000Y-115820000D02*
X1097840000Y-113940000D01*
X570200000Y-295340000D02*
X579100000Y-294110000D01*
X170680000Y-213060000D02*
X172650000Y-203580000D01*
X1090080000Y-168140000D02*
X1113230000Y-162380000D01*
X1136910000Y-53450000D02*
X1101980000Y-53450000D01*
X1250570000Y-275070000D02*
X1239550000Y-276240000D01*
X772910000Y-484060000D02*
X765450000Y-483140000D01*
X974670000Y-447620000D02*
X983480000Y-449790000D01*
X681940000Y-134630000D02*
X700820000Y-135630000D01*
X219270000Y-389110000D02*
X207080000Y-387560000D01*
X689190000Y-88160000D02*
X654850000Y-87460000D01*
X859640000Y-62240000D02*
X834810000Y-62240000D01*
X889520000Y-77920000D02*
X882700000Y-77920000D01*
X668780000Y-557370000D02*
X683820000Y-544150000D01*
X878980000Y-96270000D02*
X892840000Y-95570000D01*
X844450000Y-214450000D02*
X815970000Y-205980000D01*
X301020000Y-544180000D02*
X316500000Y-519160000D01*
X953510000Y-570100000D02*
X946170000Y-559380000D01*
X581450000Y-230490000D02*
X566590000Y-233910000D01*
X70110000Y-388450000D02*
X74730000Y-414200000D01*
X353350000Y-131220000D02*
X369800000Y-132830000D01*
X159320000Y-149710000D02*
X178900000Y-134610000D01*
X514750000Y-448900000D02*
X521250000Y-447220000D01*
X365640000Y-177530000D02*
X388950000Y-185420000D01*
X1418940000Y-223400000D02*
X1416670000Y-186410000D01*
X437110000Y-436600000D02*
X459770000Y-421660000D01*
X362540000Y-377700000D02*
X388900000Y-361890000D01*
X1050820000Y-253120000D02*
X1028020000Y-243020000D01*
X1429890000Y-388450000D02*
X1429890000Y-372660000D01*
X405620000Y-329760000D02*
X389640000Y-337610000D01*
X106050000Y-143200000D02*
X98470000Y-160500000D01*
X101800000Y-199210000D02*
X106870000Y-174290000D01*
X408980000Y-419000000D02*
X416480000Y-414060000D01*
X1326760000Y-201880000D02*
X1328910000Y-211780000D01*
X1197760000Y-644010000D02*
X1179170000Y-670420000D01*
X1166200000Y-302570000D02*
X1151710000Y-295080000D01*
X931010000Y-94310000D02*
X958250000Y-93660000D01*
X364260000Y-112220000D02*
X397780000Y-113830000D01*
X1399860000Y-604530000D02*
X1416150000Y-582790000D01*
X989740000Y-61150000D02*
X976780000Y-61400000D01*
X357900000Y-112110000D02*
X364260000Y-112220000D01*
X953050000Y-238140000D02*
X933400000Y-233900000D01*
X209540000Y-658370000D02*
X213300000Y-649350000D01*
X1095380000Y-720350000D02*
X1077610000Y-721120000D01*
X1390650000Y-93740000D02*
X1386470000Y-89310000D01*
X633210000Y-184591500D02*
X633700000Y-184790000D01*
X689340000Y-711740000D02*
X671440000Y-705460000D01*
X685710000Y-567960000D02*
X693390000Y-560810000D01*
X1057820000Y-179680000D02*
X1065640000Y-177540000D01*
X1045330000Y-354540000D02*
X1071200000Y-365830000D01*
X422280000Y-356690000D02*
X429090000Y-353680000D01*
X655510000Y-214510000D02*
X650850000Y-215920000D01*
X945570000Y-151560000D02*
X962780000Y-149620000D01*
X1005490000Y-214550000D02*
X996550000Y-208430000D01*
X993980000Y-339380000D02*
X1009340000Y-343270000D01*
X444730000Y-127880000D02*
X470830000Y-129800000D01*
X179070000Y-71600000D02*
X151200000Y-77460000D01*
X1078750000Y-427800000D02*
X1102300000Y-447130000D01*
X1118110000Y-221590000D02*
X1113430000Y-219270000D01*
X1186750000Y-281370000D02*
X1166100000Y-270640000D01*
X300540000Y-606100000D02*
X306750000Y-586360000D01*
X383500000Y-352380000D02*
X387280000Y-350380000D01*
X1087770000Y-387220000D02*
X1112980000Y-403120000D01*
X214520000Y-131470000D02*
X240000000Y-125470000D01*
X334470000Y-448190000D02*
X354800000Y-429320000D01*
X1296230000Y-113280000D02*
X1306460000Y-116580000D01*
X621220000Y-558090000D02*
X616790000Y-564290000D01*
X397780000Y-113830000D02*
X402160000Y-113940000D01*
X1234440000Y-313080000D02*
X1216570000Y-308600000D01*
X944100000Y-636810000D02*
X933900000Y-618490000D01*
X807200000Y-356670000D02*
X809390000Y-356520000D01*
X327468770Y-207010986D02*
X327371727Y-206995434D01*
X229480000Y-425310000D02*
X219270000Y-430100000D01*
X170080000Y-292860000D02*
X161230000Y-269910000D01*
X1145310000Y-470210000D02*
X1160660000Y-488410000D01*
X1158200000Y-377090000D02*
X1181330000Y-393380000D01*
X944790000Y-252530000D02*
X944010000Y-252360000D01*
X784770000Y-717760000D02*
X783640000Y-718090000D01*
X1124990000Y-718880000D02*
X1111460000Y-719670000D01*
X803560000Y-684320000D02*
X785780000Y-691390000D01*
X694820000Y-292460000D02*
X728330000Y-290850000D01*
X470890000Y-719520000D02*
X456250000Y-720440000D01*
X377740000Y-319630000D02*
X366190000Y-325090000D01*
X722440000Y-611390000D02*
X712990000Y-624980000D01*
X318480000Y-111180000D02*
X325960000Y-111200000D01*
X1014110000Y-267240000D02*
X988010000Y-261270000D01*
X388900000Y-361890000D02*
X407210000Y-352190000D01*
X724090000Y-546540000D02*
X738500000Y-543970000D01*
X674620000Y-528130000D02*
X663680000Y-537750000D01*
X907620000Y-114110000D02*
X941420000Y-112440000D01*
X456850000Y-472760000D02*
X471500000Y-462840000D01*
X1409540000Y-228790000D02*
X1409290000Y-221220000D01*
X1179170000Y-486200000D02*
X1196280000Y-506840000D01*
X324170000Y-53390000D02*
X320280000Y-53380000D01*
X581590000Y-207800000D02*
X571060000Y-212420000D01*
X151560000Y-410340000D02*
X136050000Y-389470000D01*
X883580000Y-223670000D02*
X857550000Y-219270000D01*
X1224320000Y-131040000D02*
X1246550000Y-133390000D01*
X1351900000Y-89580000D02*
X1347760000Y-87340000D01*
X1077610000Y-701000000D02*
X1061720000Y-700790000D01*
X935640000Y-539900000D02*
X927190000Y-527820000D01*
X1053500000Y-266370000D02*
X1025170000Y-258260000D01*
X1246880000Y-436920000D02*
X1249100000Y-437610000D01*
X1088770000Y-338640000D02*
X1113700000Y-351120000D01*
X140050000Y-134650000D02*
X165420000Y-116620000D01*
X1123690000Y-446440000D02*
X1138900000Y-462380000D01*
X963600000Y-84350000D02*
X925800000Y-85250000D01*
X1330020000Y-114410000D02*
X1330680000Y-114680000D01*
X345210000Y-282860000D02*
X341640000Y-284350000D01*
X537220000Y-149630000D02*
X554440000Y-151560000D01*
X54720000Y-169650000D02*
X54720000Y-202970000D01*
X673220000Y-655000000D02*
X676020000Y-623090000D01*
X287370000Y-398610000D02*
X267720000Y-408380000D01*
X153450000Y-155520000D02*
X159320000Y-149710000D01*
X1185646667Y-185480000D02*
X1181013398Y-190113269D01*
X941160000Y-457000000D02*
X942440000Y-455750000D01*
X425250000Y-502740000D02*
X429350000Y-497490000D01*
X620850000Y-590940000D02*
X611780000Y-610780000D01*
X122610000Y-441710000D02*
X139680000Y-465160000D01*
X142220000Y-231400000D02*
X142550000Y-222790000D01*
X615600000Y-175890000D02*
X750290022Y-175890000D01*
X750000000Y-71050000D02*
X723200000Y-71050000D01*
X336020000Y-411090000D02*
X357870000Y-395400000D01*
X1244930000Y-202110000D02*
X1262810000Y-220430000D01*
X121810000Y-205480000D02*
X127930000Y-178410000D01*
X1194890000Y-87910000D02*
X1199590000Y-87970000D01*
X310700000Y-232490000D02*
X311396387Y-232490000D01*
X1342350000Y-260070000D02*
X1339020000Y-269300000D01*
X530270000Y-550700000D02*
X528090000Y-553960000D01*
X675540000Y-258900000D02*
X668540000Y-259540000D01*
X663490000Y-132910000D02*
X681940000Y-134630000D01*
X644030000Y-234490000D02*
X624530000Y-237790000D01*
X639790000Y-106470000D02*
X666470000Y-107690000D01*
X1058260000Y-484260000D02*
X1072990000Y-502660000D01*
X840630000Y-343200000D02*
X853170000Y-344330000D01*
X651180000Y-678810000D02*
X645400000Y-654600000D01*
X1361620000Y-504790000D02*
X1382290000Y-483660000D01*
X950990000Y-61400000D02*
X937740000Y-61670000D01*
X1307640000Y-154170000D02*
X1319740000Y-165210000D01*
X942440000Y-455750000D02*
X943910000Y-455630000D01*
X712790000Y-256040000D02*
X709340000Y-256210000D01*
X569950000Y-363480000D02*
X579810000Y-363050000D01*
X1308710000Y-318830000D02*
X1280780000Y-332040000D01*
X1044200000Y-155970000D02*
X1060300000Y-151560000D01*
X281450000Y-578170000D02*
X284260000Y-573440000D01*
X557810000Y-724890000D02*
X553650000Y-728170000D01*
X1169460000Y-370360000D02*
X1152090000Y-360430000D01*
X108450000Y-366430000D02*
X117710000Y-391900000D01*
X852350000Y-628790000D02*
X854370000Y-636490000D01*
X388270000Y-97280000D02*
X411410000Y-97840000D01*
X1409260000Y-493270000D02*
X1416150000Y-469540000D01*
X797690000Y-268450000D02*
X780570000Y-267600000D01*
X1077720000Y-224210000D02*
X1065130000Y-219270000D01*
X219270000Y-409020000D02*
X195940000Y-406040000D01*
X827870000Y-117870000D02*
X830090000Y-117710000D01*
X514610000Y-421550000D02*
X533850000Y-418460000D01*
X283170000Y-417260000D02*
X287060000Y-415330000D01*
X506620000Y-623860000D02*
X490270000Y-637570000D01*
X716130000Y-108970000D02*
X745180000Y-109320000D01*
X853170000Y-344330000D02*
X880910000Y-345630000D01*
X677430000Y-415501600D02*
X614100000Y-456330000D01*
X645400000Y-654600000D02*
X647660000Y-630330000D01*
X1059670000Y-385120000D02*
X1084030000Y-399570000D01*
X462640000Y-91350000D02*
X492520000Y-92040000D01*
X1199410000Y-606070000D02*
X1198900000Y-622000000D01*
X1181230000Y-350560000D02*
X1162340000Y-339710000D01*
X686340000Y-499370000D02*
X665040000Y-511460000D01*
X855130000Y-504610000D02*
X844680000Y-494540000D01*
X930060000Y-363490000D02*
X956320000Y-367860000D01*
X90710000Y-221600000D02*
X90490000Y-228810000D01*
X1230580000Y-141930000D02*
X1241010000Y-143030000D01*
X800720000Y-737830000D02*
X782320000Y-739450000D01*
X860220000Y-106480000D02*
X873300000Y-106150000D01*
X299630000Y-389630000D02*
X287370000Y-398610000D01*
X745530000Y-664420000D02*
X752320000Y-664480000D01*
X1297730000Y-183190000D02*
X1311400000Y-208440000D01*
X1102740000Y-322170000D02*
X1099840000Y-320720000D01*
X609070000Y-278590000D02*
X577000000Y-283500000D01*
X1125040000Y-344720000D02*
X1105780000Y-335470000D01*
X634270000Y-116070000D02*
X670070000Y-117710000D01*
X108210000Y-136560000D02*
X108210000Y-136560000D01*
X1066190000Y-126550000D02*
X1096220000Y-124290000D01*
X220890000Y-313080000D02*
X211730000Y-308810000D01*
X1103790000Y-287170000D02*
X1085470000Y-278420000D01*
X845150000Y-87460000D02*
X810810000Y-88170000D01*
X895500000Y-626540000D02*
X888650000Y-611970000D01*
X414540000Y-278430000D02*
X396810000Y-286930000D01*
X102550000Y-274630000D02*
X100450000Y-254360000D01*
X1169120000Y-356990000D02*
X1154380000Y-348530000D01*
X936430000Y-306870000D02*
X951050000Y-309320000D01*
X335920000Y-73850000D02*
X308550000Y-73800000D01*
X1175230000Y-708850000D02*
X1145310000Y-714880000D01*
X219270000Y-571590000D02*
X241110000Y-548660000D01*
X283750000Y-186150000D02*
X317950000Y-192720000D01*
X1170550000Y-130300000D02*
X1184680000Y-129720000D01*
X712990000Y-624980000D02*
X717390000Y-650220000D01*
X822910000Y-329300000D02*
X832780000Y-329550000D01*
X1077610000Y-678340000D02*
X1054160000Y-678200000D01*
X1145630000Y-448790000D02*
X1151940000Y-454530000D01*
X271910000Y-488570000D02*
X286980000Y-475760000D01*
X843910000Y-688290000D02*
X830670000Y-704210000D01*
X1361630000Y-427020000D02*
X1374800000Y-404300000D01*
X169620000Y-114930000D02*
X169620000Y-114930000D01*
X497030000Y-83520000D02*
X458960000Y-82770000D01*
X872080000Y-397960000D02*
X901020000Y-396440000D01*
X209110000Y-112480000D02*
X238330000Y-107060000D01*
X88750000Y-154680000D02*
X83320000Y-187340000D01*
X1390270000Y-239860000D02*
X1390120000Y-248940000D01*
X300410000Y-87970000D02*
X305110000Y-87910000D01*
X90590000Y-415580000D02*
X94950000Y-425820000D01*
X490100000Y-738890000D02*
X475590000Y-738890000D01*
X121520000Y-320030000D02*
X117710000Y-305000000D01*
X1367120000Y-313510000D02*
X1355950000Y-337350000D01*
X1419200000Y-573250000D02*
X1430340000Y-544260000D01*
X1314580000Y-430190000D02*
X1300080000Y-430560000D01*
X857820000Y-403940000D02*
X872080000Y-397960000D01*
X681510000Y-304660000D02*
X701270000Y-303690000D01*
X635020000Y-185420000D02*
X633580000Y-185850000D01*
X1228070000Y-488580000D02*
X1246880000Y-507790000D01*
X263860000Y-627170000D02*
X271110000Y-604780000D01*
X199890000Y-149530000D02*
X219800000Y-140930000D01*
X1383160000Y-126400000D02*
X1365640000Y-107830000D01*
X491820000Y-692650000D02*
X490100000Y-693110000D01*
X1048800000Y-368180000D02*
X1064840000Y-375180000D01*
X627230000Y-580190000D02*
X620850000Y-590940000D01*
X351330000Y-67030000D02*
X332000000Y-67030000D01*
X377760000Y-88730000D02*
X383510000Y-89010000D01*
X1142100000Y-112110000D02*
X1174040000Y-111200000D01*
X1262810000Y-220430000D02*
X1249410000Y-244530000D01*
X389640000Y-337610000D02*
X377800000Y-343210000D01*
X1150970000Y-346840000D02*
X1129790000Y-335160000D01*
X1095300000Y-378210000D02*
X1116560000Y-391670000D01*
X437220000Y-386830000D02*
X440060000Y-385380000D01*
X132880000Y-313510000D02*
X126500000Y-288390000D01*
X1035320000Y-363020000D02*
X1048800000Y-368180000D01*
X296310000Y-140310000D02*
X309370000Y-140080000D01*
X676820000Y-245120000D02*
X668260000Y-246220000D01*
X891800000Y-432290000D02*
X905670000Y-422390000D01*
X427500000Y-320800000D02*
X405620000Y-329760000D01*
X1399570000Y-254370000D02*
X1397460000Y-274620000D01*
X692810000Y-356680000D02*
X729770000Y-356060000D01*
X115340000Y-184020000D02*
X118000000Y-172260000D01*
X619910000Y-691070000D02*
X617380000Y-661350000D01*
X600090000Y-127540000D02*
X626490000Y-129620000D01*
X581360000Y-94920000D02*
X607160000Y-95570000D01*
X1166200000Y-302570000D02*
X1151710000Y-295080000D01*
X602970000Y-471100000D02*
X596350000Y-490000000D01*
X903120000Y-257370000D02*
X873700000Y-253120000D01*
X253120000Y-538540000D02*
X265070000Y-523530000D01*
X320880000Y-362910000D02*
X319040000Y-363760000D01*
X1291900000Y-215320000D02*
X1293470000Y-229980000D01*
X688970000Y-79150000D02*
X655800000Y-78590000D01*
X1089300000Y-529390000D02*
X1098640000Y-548190000D01*
X1124940000Y-74290000D02*
X1113950000Y-74290000D01*
X795240000Y-581520000D02*
X807970000Y-593400000D01*
X1151940000Y-454530000D02*
X1166640000Y-470580000D01*
X91340000Y-345960000D02*
X96000000Y-373580000D01*
X307910000Y-283630000D02*
X303090000Y-285560000D01*
X253980000Y-348510000D02*
X231790000Y-349660000D01*
X1348440000Y-614020000D02*
X1348700000Y-614040000D01*
X525020000Y-335370000D02*
X549970000Y-330560000D01*
X705670000Y-379060000D02*
X716660000Y-378870000D01*
X1092710000Y-700340000D02*
X1077610000Y-701000000D01*
X1013950000Y-238710000D02*
X995260000Y-232350000D01*
X704050000Y-511660000D02*
X682450000Y-523950000D01*
X1213020000Y-689010000D02*
X1211740000Y-690930000D01*
X219800000Y-140930000D02*
X232920000Y-137850000D01*
X1289990000Y-308040000D02*
X1280890000Y-312340000D01*
X1151860000Y-417480000D02*
X1170730000Y-434100000D01*
X772240000Y-88730000D02*
X766610000Y-88790000D01*
X1181330000Y-393380000D02*
X1187900000Y-397120000D01*
X520640000Y-110790000D02*
X552450000Y-112290000D01*
X1060300000Y-151560000D02*
X1079240000Y-149270000D01*
X650530000Y-147650000D02*
X654840000Y-147960000D01*
X81640000Y-265160000D02*
X83850000Y-295290000D01*
X787580000Y-614563944D02*
X772482304Y-599466248D01*
X668540000Y-259540000D02*
X639020000Y-263020000D01*
X201820000Y-275720000D02*
X186610000Y-248210000D01*
X70110000Y-372660000D02*
X70110000Y-388450000D01*
X471500000Y-462840000D02*
X485140000Y-457750000D01*
X56596267Y-75362160D02*
X56596267Y-62117394D01*
X386760000Y-162370000D02*
X409930000Y-168130000D01*
X411130000Y-338660000D02*
X434050000Y-329270000D01*
X284730000Y-323350000D02*
X262120000Y-329340000D01*
X309020000Y-433240000D02*
X321600000Y-423900000D01*
X436590000Y-257120000D02*
X408110000Y-267250000D01*
X182940000Y-515250000D02*
X185420000Y-515700000D01*
X1416290000Y-183490000D02*
X1411030000Y-152660000D01*
X1043110000Y-321140000D02*
X1057930000Y-326020000D01*
X1233240000Y-88850000D02*
X1239270000Y-89350000D01*
X1231710000Y-294020000D02*
X1216970000Y-291430000D01*
X882490000Y-176887200D02*
X896620000Y-169860000D01*
X1109480000Y-134220000D02*
X1130200000Y-132830000D01*
X909010000Y-394560000D02*
X939790000Y-396640000D01*
X610480000Y-77920000D02*
X578790000Y-77260000D01*
X1042290000Y-82770000D02*
X1041040000Y-82770000D01*
X450780000Y-477690000D02*
X456850000Y-472760000D01*
X138370000Y-427020000D02*
X151560000Y-441650000D01*
X1272710000Y-117730000D02*
X1291070000Y-122020000D01*
X177280000Y-193660000D02*
X186750000Y-177760000D01*
X232490000Y-164070000D02*
X262470000Y-153990000D01*
X216200000Y-573240000D02*
X219270000Y-571590000D01*
X634190000Y-251630000D02*
X632630000Y-251890000D01*
X454650000Y-354560000D02*
X457580000Y-353380000D01*
X1341650000Y-415550000D02*
X1314580000Y-430190000D01*
X1071310000Y-67760000D02*
X1050660000Y-68190000D01*
X648460000Y-551170000D02*
X643570000Y-557330000D01*
X943910000Y-455630000D02*
X974670000Y-447620000D01*
X1213020000Y-731670000D02*
X1211080000Y-731670000D01*
X995260000Y-232350000D02*
X967420000Y-225420000D01*
X833980000Y-377740000D02*
X859480000Y-376020000D01*
X1350340000Y-187050000D02*
X1351410000Y-189230000D01*
X832140000Y-557940000D02*
X840740000Y-566770000D01*
X92610000Y-111170000D02*
X89350000Y-114960000D01*
X1024240000Y-644540000D02*
X1009900000Y-637660000D01*
X1203220000Y-425070000D02*
X1213020000Y-434000000D01*
X1067110000Y-107270000D02*
X1093210000Y-105890000D01*
X1006440000Y-145180000D02*
X1036060000Y-141800000D01*
X1342350000Y-260070000D02*
X1339020000Y-269300000D01*
X456250000Y-650850000D02*
X423590000Y-653460000D01*
X787220000Y-256030000D02*
X751090000Y-255020000D01*
X1042080000Y-353220000D02*
X1045330000Y-354540000D01*
X405250000Y-491560000D02*
X421550000Y-471790000D01*
X1009900000Y-637660000D02*
X993010000Y-623590000D01*
X1160160000Y-80680000D02*
X1156510000Y-80680000D01*
X1346480000Y-77120000D02*
X1320790000Y-71610000D01*
X1181013398Y-190113269D02*
X1170196096Y-200930571D01*
X1072710000Y-137910000D02*
X1089110000Y-136680000D01*
X184570000Y-144240000D02*
X191860000Y-141250000D01*
X879470000Y-649580000D02*
X880430000Y-653100000D01*
X459440000Y-352760000D02*
X490670000Y-343270000D01*
X1216790000Y-272230000D02*
X1205550000Y-268500000D01*
X1261670000Y-107070000D02*
X1290700000Y-112530000D01*
X1091890000Y-267230000D02*
X1063400000Y-257110000D01*
X1069820000Y-405710000D02*
X1080290000Y-411930000D01*
X821300000Y-377270000D02*
X833980000Y-377740000D01*
X972820000Y-370150000D02*
X990610000Y-374490000D01*
X302230000Y-644020000D02*
X301060000Y-621980000D01*
X626470000Y-61950000D02*
X601310000Y-61950000D01*
X1291890000Y-348080000D02*
X1280730000Y-351220000D01*
X199200000Y-586530000D02*
X216200000Y-573240000D01*
X455790000Y-155980000D02*
X462370000Y-158590000D01*
X1036060000Y-141800000D02*
X1047770000Y-140940000D01*
X1409410000Y-415580000D02*
X1416150000Y-382480000D01*
X405320000Y-377940000D02*
X428210000Y-366250000D01*
X773920000Y-279180000D02*
X804730000Y-280700000D01*
X132280000Y-252810000D02*
X130950000Y-237400000D01*
X169620000Y-114930000D02*
X199070000Y-104980000D01*
X55600000Y-325440000D02*
X55600000Y-357890000D01*
X1341220000Y-66260000D02*
X1325810000Y-62950000D01*
X344210000Y-375380000D02*
X355890000Y-368630000D01*
X1024300000Y-53620000D02*
X1020100000Y-53700000D01*
X1233590000Y-664590000D02*
X1213020000Y-689010000D01*
X731690000Y-740340000D02*
X717340000Y-739430000D01*
X651090000Y-357630000D02*
X654610000Y-357870000D01*
X1059660000Y-255650000D02*
X1050820000Y-253120000D01*
X543680000Y-367860000D02*
X569950000Y-363480000D01*
X566380000Y-339670000D02*
X585240000Y-336860000D01*
X1348440000Y-410330000D02*
X1341650000Y-415550000D01*
X115350000Y-88180000D02*
X92610000Y-111170000D01*
X229070000Y-386180000D02*
X219270000Y-389110000D01*
X973020000Y-302880000D02*
X991470000Y-306670000D01*
X60430000Y-444880000D02*
X60430000Y-471790000D01*
X185350000Y-313950000D02*
X170080000Y-292860000D01*
X1157770000Y-152550000D02*
X1158770000Y-152310000D01*
X785080000Y-327470000D02*
X792750000Y-327550000D01*
X1028020000Y-243020000D02*
X1013950000Y-238710000D01*
X1280730000Y-369900000D02*
X1256840000Y-366830000D01*
X219270000Y-534190000D02*
X245800000Y-512460000D01*
X467330000Y-68190000D02*
X449340000Y-68190000D01*
X746920000Y-597020000D02*
X746920000Y-597020000D01*
X764820000Y-278920000D02*
X773920000Y-279180000D01*
X1178330000Y-671740000D02*
X1145310000Y-689790000D01*
X280620000Y-308850000D02*
X255190000Y-314900000D01*
X1445270000Y-202840000D02*
X1445270000Y-169390000D01*
X672140000Y-117860000D02*
X672320000Y-117880000D01*
X1246880000Y-417930000D02*
X1232300000Y-408370000D01*
X444720000Y-107560000D02*
X472760000Y-108970000D01*
X279680000Y-339550000D02*
X253980000Y-348510000D01*
X956320000Y-367860000D02*
X972820000Y-370150000D01*
X1140650000Y-353330000D02*
X1125040000Y-344720000D01*
X301060000Y-621980000D02*
X300540000Y-606100000D01*
X526230000Y-269770000D02*
X504130000Y-274940000D01*
X1013950000Y-238710000D02*
X995260000Y-232350000D01*
X392320000Y-239750000D02*
X373440000Y-253120000D01*
X645300000Y-96870000D02*
X660660000Y-97570000D01*
X1211650000Y-498010000D02*
X1213020000Y-499900000D01*
X700820000Y-135630000D02*
X722050000Y-136760000D01*
X333440000Y-270520000D02*
X307910000Y-283630000D01*
X1135550000Y-569390000D02*
X1135990000Y-580360000D01*
X866760000Y-286980000D02*
X884890000Y-289110000D01*
X422390000Y-721110000D02*
X404590000Y-720330000D01*
X1248150000Y-399270000D02*
X1246880000Y-399050000D01*
X1334370000Y-84250000D02*
X1315760000Y-80260000D01*
X471970000Y-243020000D02*
X449190000Y-253120000D01*
X722530000Y-571790000D02*
X722530000Y-571790000D01*
X785780000Y-691390000D02*
X769890000Y-696010000D01*
X745790000Y-719610000D02*
X716330000Y-718040000D01*
X994020000Y-68610000D02*
X972410000Y-69020000D01*
X969230000Y-93150000D02*
X997810000Y-92500000D01*
X667210000Y-329560000D02*
X677100000Y-329320000D01*
X1339020000Y-269300000D02*
X1330170000Y-292290000D01*
X369800000Y-132830000D02*
X390520000Y-134220000D01*
X811710000Y-674760000D02*
X803560000Y-684320000D01*
X875480000Y-237770000D02*
X855950000Y-234470000D01*
X713870000Y-528760000D02*
X740850000Y-523950000D01*
X467100000Y-339420000D02*
X485280000Y-333900000D01*
X873520000Y-129630000D02*
X899900000Y-127550000D01*
X1330180000Y-235740000D02*
X1328710000Y-251520000D01*
X479900000Y-53700000D02*
X475700000Y-53620000D01*
X529080000Y-636750000D02*
X524790000Y-641530000D01*
X910430000Y-244640000D02*
X899460000Y-242500000D01*
X339290000Y-87990000D02*
X344120000Y-88130000D01*
X732740000Y-290780000D02*
X767270000Y-290770000D01*
X693390000Y-560810000D02*
X699020000Y-557810000D01*
X1110300000Y-301430000D02*
X1082370000Y-290430000D01*
X266760000Y-88850000D02*
X300410000Y-87970000D01*
X388950000Y-185420000D02*
X388980000Y-192910000D01*
X54890000Y-286140000D02*
X54890000Y-319410000D01*
X1339080000Y-195550000D02*
X1344980000Y-222590000D01*
X765250000Y-696240000D02*
X733260000Y-696140000D01*
X421550000Y-471790000D02*
X426850000Y-466890000D01*
X340240000Y-338290000D02*
X321300000Y-349240000D01*
X873440000Y-332620000D02*
X897180000Y-335410000D01*
X739290000Y-99050000D02*
X750000000Y-99060000D01*
X1011110000Y-166060000D02*
X1037640000Y-158570000D01*
X1344980000Y-222590000D02*
X1345300000Y-228600000D01*
X341710000Y-391780000D02*
X356810000Y-381040000D01*
X750000000Y-341185000D02*
X760000000Y-356100000D01*
X544800000Y-136430000D02*
X567790000Y-139010000D01*
X706430000Y-532110000D02*
X706430000Y-532110000D01*
X1237430000Y-153870000D02*
X1266760000Y-163600000D01*
X1032770000Y-339360000D02*
X1047360000Y-344150000D01*
X1002140000Y-288090000D02*
X996710000Y-286980000D01*
X436650000Y-316930000D02*
X427500000Y-320800000D01*
X1152620000Y-141610000D02*
X1164310000Y-141160000D01*
X1389410000Y-326310000D02*
X1382290000Y-350300000D01*
X331100000Y-169960000D02*
X355500000Y-175650000D01*
X922690000Y-418380000D02*
X922690000Y-418380000D01*
X899460000Y-242500000D02*
X875480000Y-237770000D01*
X1065130000Y-219270000D02*
X1060660000Y-210060000D01*
X454270000Y-90930000D02*
X462640000Y-91350000D01*
X1132920000Y-60400000D02*
X1105970000Y-60400000D01*
X1426200000Y-191890000D02*
X1426200000Y-180330000D01*
X579100000Y-294110000D02*
X612500000Y-289390000D01*
X760228072Y-599466248D02*
X760199239Y-599495081D01*
X763980000Y-567320000D02*
X777130000Y-571760000D01*
X1215780000Y-185540000D02*
X1244930000Y-202110000D01*
X1176780000Y-119440000D02*
X1178730000Y-119360000D01*
X919070000Y-553450000D02*
X911800000Y-543070000D01*
X332590000Y-587690000D02*
X339630000Y-566350000D01*
X1196580000Y-150450000D02*
X1197850000Y-150470000D01*
X1140680000Y-120820000D02*
X1176780000Y-119440000D01*
X229660000Y-183580000D02*
X240040000Y-178020000D01*
X195940000Y-406040000D02*
X185420000Y-405770000D01*
X890660000Y-346770000D02*
X921940000Y-349360000D01*
X382750000Y-440180000D02*
X385800000Y-437660000D01*
X1180680000Y-408620000D02*
X1203220000Y-425070000D01*
X646830000Y-344340000D02*
X659370000Y-343220000D01*
X1197850000Y-150470000D02*
X1216010000Y-151560000D01*
X289180000Y-60190000D02*
X277320000Y-60460000D01*
X1029090000Y-719530000D02*
X1009900000Y-716200000D01*
X649800000Y-621120000D02*
X651490000Y-617470000D01*
X831450000Y-259520000D02*
X824470000Y-258880000D01*
X387280000Y-350380000D02*
X411130000Y-338660000D01*
X1111640000Y-513350000D02*
X1113230000Y-515650000D01*
X400110000Y-320860000D02*
X399850000Y-320990000D01*
X354690000Y-714850000D02*
X324810000Y-708830000D01*
X989450000Y-174760000D02*
X989450000Y-174760000D01*
X859740000Y-593130000D02*
X861740000Y-597690000D01*
X1170290000Y-330900000D02*
X1152330000Y-321980000D01*
X405250000Y-391570000D02*
X415720000Y-385220000D01*
X1098320000Y-256050000D02*
X1090070000Y-253120000D01*
X477840000Y-117820000D02*
X515100000Y-120440000D01*
X733260000Y-696140000D02*
X729220000Y-695930000D01*
X511990000Y-261270000D02*
X485880000Y-267240000D01*
X388540000Y-673770000D02*
X386560000Y-673360000D01*
X952900000Y-102980000D02*
X974290000Y-101970000D01*
X978990000Y-177860000D02*
X989450000Y-174760000D01*
X555220000Y-252530000D02*
X553040000Y-253120000D01*
X1335850000Y-162710000D02*
X1350340000Y-187050000D01*
X1076930000Y-90160000D02*
X1083970000Y-89790000D01*
X347330000Y-455310000D02*
X355060000Y-448140000D01*
X486500000Y-693740000D02*
X456250000Y-699520000D01*
X358790000Y-425430000D02*
X367400000Y-418290000D01*
X342230000Y-152540000D02*
X376370000Y-158850000D01*
X1169380000Y-151560000D02*
X1196580000Y-150450000D01*
X327371727Y-216514660D02*
X327468770Y-207010986D01*
X329450000Y-130300000D02*
X353350000Y-131220000D01*
X864330000Y-54060000D02*
X830110000Y-54060000D01*
X360300000Y-315660000D02*
X352570000Y-319630000D01*
X1213140000Y-415430000D02*
X1216850000Y-417250000D01*
X518600000Y-385180000D02*
X550950000Y-380520000D01*
X293560000Y-167610000D02*
X312590000Y-168650000D01*
X186350000Y-360620000D02*
X185420000Y-360200000D01*
X716660000Y-378870000D02*
X750000000Y-379640000D01*
X905670000Y-422390000D02*
X922690000Y-418380000D01*
X484190000Y-61160000D02*
X471510000Y-60910000D01*
X1445110000Y-319410000D02*
X1445110000Y-286140000D01*
X438260000Y-700780000D02*
X422390000Y-700990000D01*
X389430000Y-301590000D02*
X365480000Y-313410000D01*
X559480000Y-219270000D02*
X538690000Y-223750000D01*
X1129970000Y-506030000D02*
X1145310000Y-530640000D01*
X1270940000Y-386180000D02*
X1246880000Y-382100000D01*
X694020000Y-591360000D02*
X705040000Y-581090000D01*
X169130000Y-54300000D02*
X163590000Y-55460000D01*
X219270000Y-430100000D02*
X199890000Y-430570000D01*
X456250000Y-740100000D02*
X439760000Y-740530000D01*
X82610000Y-66950000D02*
X69640000Y-66950000D01*
X400480000Y-320710000D02*
X400110000Y-320860000D01*
X633960000Y-319750000D02*
X670000000Y-316960000D01*
X626390000Y-253120000D02*
X596890000Y-257380000D01*
X1330190000Y-177490000D02*
X1339080000Y-195550000D01*
X323220000Y-119440000D02*
X359320000Y-120820000D01*
X446500000Y-266370000D02*
X426870000Y-274040000D01*
X373050000Y-546660000D02*
X384150000Y-519790000D01*
X1355320000Y-259940000D02*
X1354430000Y-267330000D01*
X549060000Y-509920000D02*
X545940000Y-519420000D01*
X154520000Y-139410000D02*
X173230000Y-124970000D01*
X873300000Y-106150000D02*
X898200000Y-104890000D01*
X1436140000Y-485740000D02*
X1439570000Y-471790000D01*
X1085680000Y-609250000D02*
X1080550000Y-615580000D01*
X1103290000Y-123440000D02*
X1136890000Y-121200000D01*
X275670000Y-131050000D02*
X290480000Y-130150000D01*
X1091890000Y-267230000D02*
X1063400000Y-257110000D01*
X1059660000Y-255650000D02*
X1050820000Y-253120000D01*
X1179170000Y-513560000D02*
X1180910000Y-515670000D01*
X351720000Y-498920000D02*
X353490000Y-496530000D01*
X1167350000Y-601230000D02*
X1166620000Y-626130000D01*
X367080000Y-60400000D02*
X355250000Y-60210000D01*
X1402990000Y-310340000D02*
X1405860000Y-296870000D01*
X185420000Y-598790000D02*
X187870000Y-595850000D01*
X479900000Y-324520000D02*
X494460000Y-320830000D01*
X768630000Y-356100000D02*
X770230000Y-356060000D01*
X804730000Y-280700000D02*
X811630000Y-281240000D01*
X1352630000Y-194820000D02*
X1357500000Y-222030000D01*
X808250000Y-151410000D02*
X808430000Y-151400000D01*
X204910000Y-179100000D02*
X207820000Y-177290000D01*
X945570000Y-151560000D02*
X962780000Y-149620000D01*
X117710000Y-615800000D02*
X151270000Y-614050000D01*
X836970000Y-593530000D02*
X849740000Y-622630000D01*
X381900000Y-221610000D02*
X377360000Y-224830000D01*
X805760000Y-88330000D02*
X772240000Y-88730000D01*
X501420000Y-451740000D02*
X514750000Y-448900000D01*
X496050000Y-352650000D02*
X498790000Y-351950000D01*
X1285460000Y-102950000D02*
X1301090000Y-105080000D01*
X1409020000Y-259800000D02*
X1409540000Y-228790000D01*
X312350000Y-396800000D02*
X321810000Y-391310000D01*
X836940000Y-456250000D02*
X834100000Y-445250000D01*
X995870000Y-274950000D02*
X973770000Y-269770000D01*
X185810000Y-246340000D02*
X188210000Y-210440000D01*
X717630000Y-692700000D02*
X697110000Y-684480000D01*
X335690000Y-141160000D02*
X347380000Y-141610000D01*
X848530000Y-284700000D02*
X866760000Y-286980000D01*
X649750000Y-78590000D02*
X617300000Y-77920000D01*
X951470000Y-607870000D02*
X944070000Y-596840000D01*
X490100000Y-693110000D02*
X486500000Y-693740000D01*
X1099910000Y-562190000D02*
X1101230000Y-588570000D01*
X160650000Y-336450000D02*
X151560000Y-322620000D01*
X1319740000Y-165210000D02*
X1326890000Y-171950000D01*
X56474107Y-75240000D02*
X56596267Y-75362160D01*
X1380360000Y-243340000D02*
X1380160000Y-245670000D01*
X256920000Y-275910000D02*
X220720000Y-265390000D01*
X750000000Y-88790000D02*
X733390000Y-88790000D01*
X707720000Y-314920000D02*
X714700000Y-314580000D01*
X584050000Y-506140000D02*
X575400000Y-522560000D01*
X1179720000Y-53380000D02*
X1175830000Y-53390000D01*
X1079650000Y-511520000D02*
X1089300000Y-529390000D01*
X72590000Y-270360000D02*
X74580000Y-297450000D01*
X1234720000Y-81440000D02*
X1199090000Y-80610000D01*
X214360000Y-694480000D02*
X213810000Y-688530000D01*
X220720000Y-265390000D02*
X219980000Y-264410000D01*
X84420000Y-302450000D02*
X84580000Y-303200000D01*
X1326890000Y-171950000D02*
X1330190000Y-177490000D01*
X151250000Y-380380000D02*
X133830000Y-351850000D01*
X1291070000Y-122020000D02*
X1297800000Y-124860000D01*
X722050000Y-136760000D02*
X738870000Y-137090000D01*
X1111460000Y-739850000D02*
X1094990000Y-740540000D01*
X466250000Y-273200000D02*
X452650000Y-277090000D01*
X123950000Y-279750000D02*
X119870000Y-245690000D01*
X572420000Y-350200000D02*
X578060000Y-349360000D01*
X1252080000Y-123750000D02*
X1259930000Y-125430000D01*
X1097840000Y-113940000D02*
X1102220000Y-113830000D01*
X109750000Y-239880000D02*
X110640000Y-211710000D01*
X325180000Y-480270000D02*
X332310000Y-471730000D01*
X321280000Y-377070000D02*
X299630000Y-389630000D01*
X1399530000Y-448790000D02*
X1405050000Y-425820000D01*
X245800000Y-512460000D02*
X253120000Y-507760000D01*
X63860000Y-508710000D02*
X69660000Y-527960000D01*
X601250000Y-523880000D02*
X596840000Y-529260000D01*
X1290560000Y-658420000D02*
X1286390000Y-688420000D01*
X1040340000Y-352650000D02*
X1042080000Y-353220000D01*
X429350000Y-497490000D02*
X429350000Y-497490000D01*
X1025200000Y-326060000D02*
X1052650000Y-335080000D01*
X1418380000Y-265170000D02*
X1418380000Y-262610000D01*
X288310000Y-690900000D02*
X286980000Y-688920000D01*
X560330000Y-329150000D02*
X592410000Y-324370000D01*
X642570000Y-219270000D02*
X616430000Y-223690000D01*
X1287980000Y-61250000D02*
X1262020000Y-61250000D01*
X1102300000Y-447130000D02*
X1113150000Y-457990000D01*
X1199090000Y-80610000D02*
X1195360000Y-80610000D01*
X768330000Y-740330000D02*
X749710000Y-740320000D01*
X1405860000Y-296870000D02*
X1408120000Y-268500000D01*
X760000000Y-109257600D02*
X783870000Y-108970000D01*
X701270000Y-303690000D02*
X721510000Y-302720000D01*
X859290000Y-307990000D02*
X873110000Y-309620000D01*
X605850000Y-300960000D02*
X621010000Y-299370000D01*
X521770000Y-194290000D02*
X503480000Y-208380000D01*
X592380000Y-114110000D02*
X596450000Y-114210000D01*
X534900000Y-149460000D02*
X537220000Y-149630000D01*
X1382290000Y-435300000D02*
X1394380000Y-406940000D01*
X1348440000Y-513180000D02*
X1361620000Y-504790000D01*
X734550000Y-483150000D02*
X727090000Y-484070000D01*
X296450000Y-425370000D02*
X322100000Y-406310000D01*
X1416670000Y-185810000D02*
X1416290000Y-183490000D01*
X946620000Y-53780000D02*
X942220000Y-53870000D01*
X1080290000Y-411930000D02*
X1086370000Y-415760000D01*
X706430000Y-532110000D02*
X713870000Y-528760000D01*
X1028330000Y-372930000D02*
X1057400000Y-384050000D01*
X1358260000Y-297140000D02*
X1355760000Y-306980000D01*
X422390000Y-616720000D02*
X419400000Y-615610000D01*
X1112640000Y-277140000D02*
X1091890000Y-267230000D01*
X683520000Y-98050000D02*
X700130000Y-98590000D01*
X959370000Y-417380000D02*
X964580000Y-418440000D01*
X1001950000Y-424990000D02*
X1028830000Y-438050000D01*
X609350000Y-346780000D02*
X619090000Y-345640000D01*
X601530000Y-376210000D02*
X626670000Y-376940000D01*
X1164430000Y-525130000D02*
X1179170000Y-551410000D01*
X932670000Y-273630000D02*
X915730000Y-270840000D01*
X247920000Y-123760000D02*
X281930000Y-120160000D01*
X563790000Y-103370000D02*
X586870000Y-104510000D01*
X185420000Y-551940000D02*
X217180000Y-534910000D01*
X1047770000Y-140940000D02*
X1072710000Y-137910000D01*
X1050660000Y-68190000D02*
X1032670000Y-68190000D01*
X579970000Y-591060000D02*
X571590000Y-606950000D01*
X185420000Y-430200000D02*
X158340000Y-415550000D01*
X207080000Y-387560000D02*
X185420000Y-382760000D01*
X1443330000Y-364940000D02*
X1444400000Y-357890000D01*
%TD*%
M02*
