%TF.GenerationSoftware,KiCad,Pcbnew,7.0.1-3b83917a11~172~ubuntu22.04.1*%
%TF.CreationDate,2023-12-10T15:57:57-05:00*%
%TF.ProjectId,coil_template_first,636f696c-5f74-4656-9d70-6c6174655f66,rev?*%
%TF.SameCoordinates,Original*%
%TF.FileFunction,Copper,L2,Bot*%
%TF.FilePolarity,Positive*%
%FSLAX46Y46*%
G04 Gerber Fmt 4.6, Leading zero omitted, Abs format (unit mm)*
G04 Created by KiCad (PCBNEW 7.0.1-3b83917a11~172~ubuntu22.04.1) date 2023-12-10 15:57:57*
%MOMM*%
%LPD*%
G01*
G04 APERTURE LIST*
%TA.AperFunction,SMDPad,CuDef*%
%ADD10R,5.000000X5.000000*%
%TD*%
%TA.AperFunction,ViaPad*%
%ADD11C,4.000000*%
%TD*%
%TA.AperFunction,Conductor*%
%ADD12C,5.000000*%
%TD*%
G04 APERTURE END LIST*
D10*
%TO.P,J1,1,Pin_1*%
%TO.N,Net-(J1-Pin_1)*%
X749431888Y-3250000D03*
%TD*%
D11*
%TO.N,Net-(J1-Pin_1)*%
X752948944Y-170209736D03*
X739942138Y-472602643D03*
X752963080Y-265687332D03*
%TD*%
D12*
%TO.N,Net-(J1-Pin_1)*%
X740150382Y-23970000D02*
X749431888Y-14688494D01*
X750000000Y-391766800D02*
X740000000Y-391770000D01*
X750000000Y-314838000D02*
X740000000Y-314830000D01*
X750000000Y-302898800D02*
X740000000Y-302740000D01*
X747083827Y-162451001D02*
X752937372Y-162451001D01*
X750000000Y-278047600D02*
X740000000Y-278050000D01*
X744474415Y-165060413D02*
X747083827Y-162451001D01*
X740000000Y-364007200D02*
X750000000Y-377770000D01*
X741266830Y-87098630D02*
X740000000Y-85831800D01*
X750000000Y-60090200D02*
X740000000Y-60160000D01*
X750000000Y-278050000D02*
X740000000Y-265495200D01*
X740000000Y-424364100D02*
X750000000Y-444900000D01*
X740000000Y-339029700D02*
X750000000Y-351550000D01*
X740000000Y-326777400D02*
X750000000Y-339030000D01*
X752948944Y-170209736D02*
X752948944Y-265673196D01*
X750000000Y-41887700D02*
X740000000Y-41930000D01*
X752931965Y-87098630D02*
X741266830Y-87098630D01*
X750000000Y-290600300D02*
X740000000Y-290470000D01*
X740000000Y-377737800D02*
X750000000Y-391770000D01*
X740000000Y-85831800D02*
X750000000Y-60090000D01*
X750000000Y-364070700D02*
X740000000Y-364010000D01*
X744617373Y-265495200D02*
X744618946Y-265493627D01*
X752948944Y-265710244D02*
X753054236Y-265815536D01*
X752948944Y-265701468D02*
X752948944Y-265710244D01*
X739942138Y-472602643D02*
X749912643Y-472602643D01*
X752937372Y-162451001D02*
X752937372Y-87104037D01*
X752963080Y-265687332D02*
X752948944Y-265701468D01*
X740000000Y-60155200D02*
X750000000Y-41890000D01*
X740000000Y-23970000D02*
X740150382Y-23970000D01*
X744474415Y-170723078D02*
X744474415Y-165060413D01*
X740000000Y-314831400D02*
X750000000Y-326780000D01*
X740000000Y-290465600D02*
X750000000Y-302900000D01*
X749431888Y-14688494D02*
X749431888Y-3250000D01*
X744618946Y-265493627D02*
X744467324Y-265342005D01*
X740000000Y-406931600D02*
X750000000Y-424330000D01*
X740000000Y-391766800D02*
X750000000Y-406930000D01*
X740000000Y-351540300D02*
X750000000Y-364070000D01*
X750000000Y-406931600D02*
X740000000Y-406930000D01*
X740000000Y-444966700D02*
X750000000Y-472690000D01*
X752948944Y-265673196D02*
X752963080Y-265687332D01*
X750000000Y-326777300D02*
X740000000Y-326780000D01*
X740000000Y-302735700D02*
X750000000Y-314840000D01*
X740000000Y-41931100D02*
X750000000Y-23730000D01*
X750000000Y-23725300D02*
X740000000Y-23970000D01*
X750000000Y-339029600D02*
X740000000Y-339030000D01*
X744467324Y-265342005D02*
X744467324Y-170730169D01*
X750000000Y-444903300D02*
X740000000Y-444970000D01*
X744467324Y-170730169D02*
X744474415Y-170723078D01*
X750000000Y-377768000D02*
X740000000Y-377740000D01*
X750000000Y-424328600D02*
X740000000Y-424360000D01*
X740000000Y-265495200D02*
X744617373Y-265495200D01*
X749912643Y-472602643D02*
X750000000Y-472690000D01*
X750000000Y-351550100D02*
X740000000Y-351540000D01*
X752937372Y-87104037D02*
X752931965Y-87098630D01*
X740000000Y-278047900D02*
X750000000Y-290600000D01*
%TD*%
M02*
