%TF.GenerationSoftware,KiCad,Pcbnew,7.0.1-3b83917a11~172~ubuntu22.04.1*%
%TF.CreationDate,2023-12-10T15:57:57-05:00*%
%TF.ProjectId,coil_template_first,636f696c-5f74-4656-9d70-6c6174655f66,rev?*%
%TF.SameCoordinates,Original*%
%TF.FileFunction,Legend,Bot*%
%TF.FilePolarity,Positive*%
%FSLAX46Y46*%
G04 Gerber Fmt 4.6, Leading zero omitted, Abs format (unit mm)*
G04 Created by KiCad (PCBNEW 7.0.1-3b83917a11~172~ubuntu22.04.1) date 2023-12-10 15:57:57*
%MOMM*%
%LPD*%
G01*
G04 APERTURE LIST*
%ADD10C,2.000000*%
G04 APERTURE END LIST*
D10*
X91190476Y-27652380D02*
X90238095Y-26700000D01*
X90238095Y-26700000D02*
X87380952Y-25747619D01*
X87380952Y-25747619D02*
X85476190Y-25747619D01*
X85476190Y-25747619D02*
X82619047Y-26700000D01*
X82619047Y-26700000D02*
X80714285Y-28604761D01*
X80714285Y-28604761D02*
X79761904Y-30509523D01*
X79761904Y-30509523D02*
X78809523Y-34319047D01*
X78809523Y-34319047D02*
X78809523Y-37176190D01*
X78809523Y-37176190D02*
X79761904Y-40985714D01*
X79761904Y-40985714D02*
X80714285Y-42890476D01*
X80714285Y-42890476D02*
X82619047Y-44795238D01*
X82619047Y-44795238D02*
X85476190Y-45747619D01*
X85476190Y-45747619D02*
X87380952Y-45747619D01*
X87380952Y-45747619D02*
X90238095Y-44795238D01*
X90238095Y-44795238D02*
X91190476Y-43842857D01*
X99761904Y-45747619D02*
X99761904Y-29557142D01*
X99761904Y-29557142D02*
X100714285Y-27652380D01*
X100714285Y-27652380D02*
X101666666Y-26700000D01*
X101666666Y-26700000D02*
X103571428Y-25747619D01*
X103571428Y-25747619D02*
X107380952Y-25747619D01*
X107380952Y-25747619D02*
X109285714Y-26700000D01*
X109285714Y-26700000D02*
X110238095Y-27652380D01*
X110238095Y-27652380D02*
X111190476Y-29557142D01*
X111190476Y-29557142D02*
X111190476Y-45747619D01*
X117857142Y-45747619D02*
X129285714Y-45747619D01*
X123571428Y-25747619D02*
X123571428Y-45747619D01*
X1390000000Y-27652380D02*
X1389047619Y-26700000D01*
X1389047619Y-26700000D02*
X1386190476Y-25747619D01*
X1386190476Y-25747619D02*
X1384285714Y-25747619D01*
X1384285714Y-25747619D02*
X1381428571Y-26700000D01*
X1381428571Y-26700000D02*
X1379523809Y-28604761D01*
X1379523809Y-28604761D02*
X1378571428Y-30509523D01*
X1378571428Y-30509523D02*
X1377619047Y-34319047D01*
X1377619047Y-34319047D02*
X1377619047Y-37176190D01*
X1377619047Y-37176190D02*
X1378571428Y-40985714D01*
X1378571428Y-40985714D02*
X1379523809Y-42890476D01*
X1379523809Y-42890476D02*
X1381428571Y-44795238D01*
X1381428571Y-44795238D02*
X1384285714Y-45747619D01*
X1384285714Y-45747619D02*
X1386190476Y-45747619D01*
X1386190476Y-45747619D02*
X1389047619Y-44795238D01*
X1389047619Y-44795238D02*
X1390000000Y-43842857D01*
X1398571428Y-45747619D02*
X1398571428Y-29557142D01*
X1398571428Y-29557142D02*
X1399523809Y-27652380D01*
X1399523809Y-27652380D02*
X1400476190Y-26700000D01*
X1400476190Y-26700000D02*
X1402380952Y-25747619D01*
X1402380952Y-25747619D02*
X1406190476Y-25747619D01*
X1406190476Y-25747619D02*
X1408095238Y-26700000D01*
X1408095238Y-26700000D02*
X1409047619Y-27652380D01*
X1409047619Y-27652380D02*
X1410000000Y-29557142D01*
X1410000000Y-29557142D02*
X1410000000Y-45747619D01*
X1416666666Y-45747619D02*
X1428095238Y-45747619D01*
X1422380952Y-25747619D02*
X1422380952Y-45747619D01*
X76904761Y-730747619D02*
X88333333Y-730747619D01*
X82619047Y-710747619D02*
X82619047Y-730747619D01*
X98809523Y-730747619D02*
X102619047Y-730747619D01*
X102619047Y-730747619D02*
X104523809Y-729795238D01*
X104523809Y-729795238D02*
X106428571Y-727890476D01*
X106428571Y-727890476D02*
X107380952Y-724080952D01*
X107380952Y-724080952D02*
X107380952Y-717414285D01*
X107380952Y-717414285D02*
X106428571Y-713604761D01*
X106428571Y-713604761D02*
X104523809Y-711700000D01*
X104523809Y-711700000D02*
X102619047Y-710747619D01*
X102619047Y-710747619D02*
X98809523Y-710747619D01*
X98809523Y-710747619D02*
X96904761Y-711700000D01*
X96904761Y-711700000D02*
X94999999Y-713604761D01*
X94999999Y-713604761D02*
X94047618Y-717414285D01*
X94047618Y-717414285D02*
X94047618Y-724080952D01*
X94047618Y-724080952D02*
X94999999Y-727890476D01*
X94999999Y-727890476D02*
X96904761Y-729795238D01*
X96904761Y-729795238D02*
X98809523Y-730747619D01*
X115952380Y-710747619D02*
X115952380Y-730747619D01*
X115952380Y-730747619D02*
X123571428Y-730747619D01*
X123571428Y-730747619D02*
X125476190Y-729795238D01*
X125476190Y-729795238D02*
X126428571Y-728842857D01*
X126428571Y-728842857D02*
X127380952Y-726938095D01*
X127380952Y-726938095D02*
X127380952Y-724080952D01*
X127380952Y-724080952D02*
X126428571Y-722176190D01*
X126428571Y-722176190D02*
X125476190Y-721223809D01*
X125476190Y-721223809D02*
X123571428Y-720271428D01*
X123571428Y-720271428D02*
X115952380Y-720271428D01*
X1405000000Y-729795238D02*
X1403095238Y-730747619D01*
X1403095238Y-730747619D02*
X1400238095Y-730747619D01*
X1400238095Y-730747619D02*
X1397380952Y-729795238D01*
X1397380952Y-729795238D02*
X1395476190Y-727890476D01*
X1395476190Y-727890476D02*
X1394523809Y-725985714D01*
X1394523809Y-725985714D02*
X1393571428Y-722176190D01*
X1393571428Y-722176190D02*
X1393571428Y-719319047D01*
X1393571428Y-719319047D02*
X1394523809Y-715509523D01*
X1394523809Y-715509523D02*
X1395476190Y-713604761D01*
X1395476190Y-713604761D02*
X1397380952Y-711700000D01*
X1397380952Y-711700000D02*
X1400238095Y-710747619D01*
X1400238095Y-710747619D02*
X1402142857Y-710747619D01*
X1402142857Y-710747619D02*
X1405000000Y-711700000D01*
X1405000000Y-711700000D02*
X1405952381Y-712652380D01*
X1405952381Y-712652380D02*
X1405952381Y-719319047D01*
X1405952381Y-719319047D02*
X1402142857Y-719319047D01*
X1412619047Y-724080952D02*
X1417380952Y-710747619D01*
X1422142857Y-724080952D02*
X1417380952Y-710747619D01*
X1417380952Y-710747619D02*
X1415476190Y-705985714D01*
X1415476190Y-705985714D02*
X1414523809Y-705033333D01*
X1414523809Y-705033333D02*
X1412619047Y-704080952D01*
M02*
