%TF.GenerationSoftware,KiCad,Pcbnew,7.0.1-3b83917a11~172~ubuntu22.04.1*%
%TF.CreationDate,2023-07-04T10:09:40-04:00*%
%TF.ProjectId,coil_template_top,636f696c-5f74-4656-9d70-6c6174655f74,rev?*%
%TF.SameCoordinates,Original*%
%TF.FileFunction,Copper,L2,Bot*%
%TF.FilePolarity,Positive*%
%FSLAX46Y46*%
G04 Gerber Fmt 4.6, Leading zero omitted, Abs format (unit mm)*
G04 Created by KiCad (PCBNEW 7.0.1-3b83917a11~172~ubuntu22.04.1) date 2023-07-04 10:09:40*
%MOMM*%
%LPD*%
G01*
G04 APERTURE LIST*
%TA.AperFunction,SMDPad,CuDef*%
%ADD10R,5.000000X5.000000*%
%TD*%
%TA.AperFunction,ViaPad*%
%ADD11C,4.000000*%
%TD*%
%TA.AperFunction,Conductor*%
%ADD12C,5.000000*%
%TD*%
G04 APERTURE END LIST*
D10*
%TO.P,J1,1,Pin_1*%
%TO.N,Net-(J1-Pin_1)*%
X750000000Y-3643012D03*
%TD*%
D11*
%TO.N,Net-(J1-Pin_1)*%
X760040161Y-423157413D03*
X779282586Y-577096807D03*
X750071374Y-86175723D03*
X951337477Y-240783760D03*
X750092820Y-245726634D03*
X732468144Y-327455801D03*
X322826909Y-527785452D03*
X1174411420Y-544413082D03*
X554484289Y-295604908D03*
%TD*%
D12*
%TO.N,Net-(J1-Pin_1)*%
X509310000Y-546445700D02*
X445040000Y-552500000D01*
X602980000Y-278288900D02*
X690740000Y-327660000D01*
X1054710000Y-553089800D02*
X1112430000Y-539140000D01*
X750000000Y-436050000D02*
X760000000Y-447690000D01*
X760000000Y-509704400D02*
X750000000Y-509800000D01*
X750000000Y-495070000D02*
X760000000Y-509700000D01*
X750000000Y-85820628D02*
X750000000Y-86104349D01*
X750000000Y-9880000D02*
X750000000Y-3643012D01*
X750000000Y-423300000D02*
X760000000Y-435950000D01*
X973210000Y-558633300D02*
X1059720000Y-542730000D01*
X760000000Y-551951800D02*
X750000000Y-552150000D01*
X750000000Y-86247097D02*
X750000000Y-245633814D01*
X868290000Y-565769600D02*
X868290000Y-542730629D01*
X558140000Y-258646200D02*
X614350000Y-294190000D01*
X731849309Y-315285102D02*
X732065655Y-315501448D01*
X750000000Y-245633814D02*
X750092820Y-245726634D01*
X989320000Y-547514200D02*
X973210000Y-558630000D01*
X941930000Y-282175800D02*
X888360000Y-289900000D01*
X760000000Y-494817700D02*
X750000000Y-495070000D01*
X779083214Y-566344008D02*
X779083214Y-577296180D01*
X760000000Y-471170000D02*
X750000000Y-471170000D01*
X750000000Y-447690000D02*
X760000000Y-459320000D01*
X440040000Y-542171300D02*
X388460000Y-549010000D01*
X941415685Y-250579765D02*
X951253619Y-240741831D01*
X760040161Y-423157413D02*
X760031435Y-423338661D01*
X760000000Y-459320000D02*
X750000000Y-459320000D01*
X760000000Y-54186200D02*
X750000000Y-54200000D01*
X750000000Y-459320000D02*
X760000000Y-471170000D01*
X941400000Y-271791000D02*
X941400000Y-250579765D01*
X750935435Y-289788383D02*
X760000000Y-266710000D01*
X749974894Y-578027210D02*
X742717751Y-578027210D01*
X826830000Y-310920200D02*
X809280000Y-327480000D01*
X760000000Y-447690000D02*
X750000000Y-447690000D01*
X750000000Y-525030000D02*
X760000000Y-551950000D01*
X868290000Y-542730629D02*
X868401896Y-542618733D01*
X887240000Y-300853100D02*
X826830000Y-310920000D01*
X750000000Y-54196500D02*
X760000000Y-87760000D01*
X330378416Y-535430000D02*
X323012989Y-528064573D01*
X750000000Y-552150000D02*
X750000000Y-578002104D01*
X819834862Y-566344008D02*
X779083214Y-566344008D01*
X742717751Y-578027210D02*
X729040828Y-564350287D01*
X989320000Y-547510000D02*
X868290000Y-565769600D01*
X717354125Y-315068756D02*
X717354125Y-315285102D01*
X760000000Y-327654689D02*
X760040161Y-423157413D01*
X853050248Y-553783568D02*
X832395302Y-553783568D01*
X1168340000Y-535338300D02*
X1174411420Y-544413082D01*
X1059720000Y-542726300D02*
X1054710000Y-553090000D01*
X760031435Y-423338661D02*
X760000000Y-423287912D01*
X832395302Y-553783568D02*
X819834862Y-566344008D01*
X760000000Y-87760000D02*
X760000000Y-246210000D01*
X760000000Y-525030000D02*
X750000000Y-525030000D01*
X690740000Y-327660000D02*
X690740000Y-303605979D01*
X690740000Y-303605979D02*
X690743563Y-303602416D01*
X750000000Y-9880000D02*
X760000000Y-30940000D01*
X864215083Y-542618733D02*
X853050248Y-553783568D01*
X760000000Y-435945600D02*
X750000000Y-436050000D01*
X557227565Y-295478317D02*
X554222760Y-295478317D01*
X601530000Y-552250000D02*
X601260000Y-552120000D01*
X750092820Y-245726634D02*
X750000000Y-245819454D01*
X445040000Y-552498700D02*
X440040000Y-542170000D01*
X750000000Y-30620000D02*
X760000000Y-54190000D01*
X524470000Y-557399500D02*
X509310000Y-546450000D01*
X750000000Y-509800000D02*
X760000000Y-525030000D01*
X941400000Y-250579765D02*
X941415685Y-250579765D01*
X941400000Y-271791000D02*
X941930000Y-282180000D01*
X729040828Y-564350287D02*
X633470000Y-564350287D01*
X750000000Y-423300000D02*
X750000000Y-290723818D01*
X750000000Y-290723818D02*
X750935435Y-289788383D01*
X809280000Y-327610000D02*
X760000000Y-327610000D01*
X705671439Y-303386070D02*
X717354125Y-315068756D01*
X888360000Y-289903800D02*
X887240000Y-300850000D01*
X705455093Y-303602416D02*
X705671439Y-303386070D01*
X750000000Y-245819454D02*
X750000000Y-246220000D01*
X760000000Y-30942900D02*
X750000000Y-30620000D01*
X750000000Y-292170000D02*
X750935435Y-289788383D01*
X330760000Y-535430000D02*
X330378416Y-535430000D01*
X601260000Y-580502792D02*
X633020000Y-565130000D01*
X1111590000Y-549221300D02*
X1168340000Y-535340000D01*
X614350000Y-294189400D02*
X602980000Y-278290000D01*
X760000000Y-483060800D02*
X750000000Y-483120000D01*
X750000000Y-86104349D02*
X750071374Y-86175723D01*
X760000000Y-266713600D02*
X750000000Y-266720000D01*
X750000000Y-266720000D02*
X760000000Y-246210000D01*
X868401896Y-542618733D02*
X864215083Y-542618733D01*
X1174411420Y-544413082D02*
X1174540000Y-544940000D01*
X750071374Y-86175723D02*
X750000000Y-86247097D01*
X387580000Y-538934800D02*
X324850000Y-545080000D01*
X750000000Y-471170000D02*
X760000000Y-483060000D01*
X601260000Y-580502792D02*
X601296506Y-580539298D01*
X558140000Y-258650000D02*
X558820000Y-269862000D01*
X601260000Y-552119000D02*
X524470000Y-557400000D01*
X750000000Y-578002104D02*
X749974894Y-578027210D01*
X732065655Y-315206355D02*
X732065655Y-327610000D01*
X750000000Y-483120000D02*
X760000000Y-494820000D01*
X760000000Y-327610000D02*
X759955311Y-327654689D01*
X690743563Y-303602416D02*
X705455093Y-303602416D01*
X601260000Y-552120000D02*
X601260000Y-580502792D01*
X558820000Y-269862000D02*
X558820000Y-293885882D01*
X558820000Y-293885882D02*
X557227565Y-295478317D01*
X1112430000Y-539141200D02*
X1111590000Y-549220000D01*
X324850000Y-545083300D02*
X330760000Y-535430000D01*
X717354125Y-315285102D02*
X731849309Y-315285102D01*
X388460000Y-549008100D02*
X387580000Y-538930000D01*
%TD*%
M02*
