%TF.GenerationSoftware,KiCad,Pcbnew,7.0.1-3b83917a11~172~ubuntu22.04.1*%
%TF.CreationDate,2023-12-10T14:17:05-05:00*%
%TF.ProjectId,coil_template_first,636f696c-5f74-4656-9d70-6c6174655f66,rev?*%
%TF.SameCoordinates,Original*%
%TF.FileFunction,Copper,L1,Top*%
%TF.FilePolarity,Positive*%
%FSLAX46Y46*%
G04 Gerber Fmt 4.6, Leading zero omitted, Abs format (unit mm)*
G04 Created by KiCad (PCBNEW 7.0.1-3b83917a11~172~ubuntu22.04.1) date 2023-12-10 14:17:05*
%MOMM*%
%LPD*%
G01*
G04 APERTURE LIST*
%TA.AperFunction,SMDPad,CuDef*%
%ADD10R,5.000000X5.000000*%
%TD*%
%TA.AperFunction,ViaPad*%
%ADD11C,4.000000*%
%TD*%
%TA.AperFunction,Conductor*%
%ADD12C,5.000000*%
%TD*%
G04 APERTURE END LIST*
D10*
%TO.P,J56,1*%
%TO.N,Net-(J1-Pin_1)*%
X3250000Y-1464373272D03*
%TD*%
%TO.P,J7,1*%
%TO.N,Net-(J1-Pin_1)*%
X3250000Y-115649133D03*
%TD*%
%TO.P,J20,1*%
%TO.N,Net-(J1-Pin_1)*%
X3250000Y-497339098D03*
%TD*%
%TO.P,J54,1*%
%TO.N,Net-(J1-Pin_1)*%
X3250000Y-1438758095D03*
%TD*%
%TO.P,J34,1*%
%TO.N,Net-(J1-Pin_1)*%
X3250000Y-935666707D03*
%TD*%
%TO.P,J33,1*%
%TO.N,Net-(J1-Pin_1)*%
X3250000Y-912969124D03*
%TD*%
%TO.P,J45,1*%
%TO.N,Net-(J1-Pin_1)*%
X3250000Y-1296376540D03*
%TD*%
%TO.P,J10,1*%
%TO.N,Net-(J1-Pin_1)*%
X3250000Y-163296738D03*
%TD*%
%TO.P,J49,1*%
%TO.N,Net-(J1-Pin_1)*%
X3250000Y-1369480685D03*
%TD*%
%TO.P,J35,1*%
%TO.N,Net-(J1-Pin_1)*%
X3250000Y-958233090D03*
%TD*%
%TO.P,J50,1*%
%TO.N,Net-(J1-Pin_1)*%
X3250000Y-1384034762D03*
%TD*%
%TO.P,J44,1*%
%TO.N,Net-(J1-Pin_1)*%
X3250000Y-1269000000D03*
%TD*%
%TO.P,J31,1*%
%TO.N,Net-(J1-Pin_1)*%
X3250000Y-862787199D03*
%TD*%
%TO.P,J13,1*%
%TO.N,Net-(J1-Pin_1)*%
X3250000Y-231461253D03*
%TD*%
%TO.P,J6,1*%
%TO.N,Net-(J1-Pin_1)*%
X3250000Y-101072427D03*
%TD*%
%TO.P,J40,1*%
%TO.N,Net-(J1-Pin_1)*%
X3250000Y-1085440235D03*
%TD*%
%TO.P,J55,1*%
%TO.N,Net-(J1-Pin_1)*%
X3250000Y-1451565684D03*
%TD*%
%TO.P,J48,1*%
%TO.N,Net-(J1-Pin_1)*%
X3250000Y-1353762280D03*
%TD*%
%TO.P,J51,1*%
%TO.N,Net-(J1-Pin_1)*%
X3250000Y-1398006677D03*
%TD*%
%TO.P,J39,1*%
%TO.N,Net-(J1-Pin_1)*%
X3250000Y-1053411796D03*
%TD*%
%TO.P,J5,1*%
%TO.N,Net-(J1-Pin_1)*%
X3250000Y-87515000D03*
%TD*%
%TO.P,J25,1*%
%TO.N,Net-(J1-Pin_1)*%
X3250000Y-611106415D03*
%TD*%
%TO.P,J27,1*%
%TO.N,Net-(J1-Pin_1)*%
X3250000Y-670366786D03*
%TD*%
%TO.P,J2,1*%
%TO.N,Net-(J1-Pin_1)*%
X3250000Y-48565597D03*
%TD*%
%TO.P,J17,1*%
%TO.N,Net-(J1-Pin_1)*%
X3250000Y-415087466D03*
%TD*%
%TO.P,J16,1*%
%TO.N,Net-(J1-Pin_1)*%
X3250000Y-368850000D03*
%TD*%
%TO.P,J30,1*%
%TO.N,Net-(J1-Pin_1)*%
X3250000Y-830223384D03*
%TD*%
%TO.P,J24,1*%
%TO.N,Net-(J1-Pin_1)*%
X3250000Y-587175553D03*
%TD*%
%TO.P,J8,1*%
%TO.N,Net-(J1-Pin_1)*%
X3250000Y-130230000D03*
%TD*%
%TO.P,J3,1*%
%TO.N,Net-(J1-Pin_1)*%
X3250000Y-61260000D03*
%TD*%
%TO.P,J47,1*%
%TO.N,Net-(J1-Pin_1)*%
X3277770Y-1336928064D03*
%TD*%
%TO.P,J23,1*%
%TO.N,Net-(J1-Pin_1)*%
X3250000Y-564446273D03*
%TD*%
%TO.P,J28,1*%
%TO.N,Net-(J1-Pin_1)*%
X3250000Y-721288889D03*
%TD*%
%TO.P,J22,1*%
%TO.N,Net-(J1-Pin_1)*%
X3250000Y-542409727D03*
%TD*%
%TO.P,J32,1*%
%TO.N,Net-(J1-Pin_1)*%
X3250000Y-889195702D03*
%TD*%
%TO.P,J38,1*%
%TO.N,Net-(J1-Pin_1)*%
X3250000Y-1027460455D03*
%TD*%
%TO.P,J36,1*%
%TO.N,Net-(J1-Pin_1)*%
X3250000Y-979854834D03*
%TD*%
%TO.P,J29,1*%
%TO.N,Net-(J1-Pin_1)*%
X3250000Y-778968895D03*
%TD*%
%TO.P,J12,1*%
%TO.N,Net-(J1-Pin_1)*%
X3250000Y-203541365D03*
%TD*%
%TO.P,J46,1*%
%TO.N,Net-(J1-Pin_1)*%
X3250000Y-1317152037D03*
%TD*%
%TO.P,J43,1*%
%TO.N,Net-(J1-Pin_1)*%
X3250000Y-1228544230D03*
%TD*%
%TO.P,J37,1*%
%TO.N,Net-(J1-Pin_1)*%
X3250000Y-1003109754D03*
%TD*%
%TO.P,J9,1*%
%TO.N,Net-(J1-Pin_1)*%
X3250000Y-146519945D03*
%TD*%
%TO.P,J52,1*%
%TO.N,Net-(J1-Pin_1)*%
X3250000Y-1412560755D03*
%TD*%
%TO.P,J4,1*%
%TO.N,Net-(J1-Pin_1)*%
X3250000Y-74320000D03*
%TD*%
%TO.P,J26,1*%
%TO.N,Net-(J1-Pin_1)*%
X3250000Y-638060123D03*
%TD*%
%TO.P,J14,1*%
%TO.N,Net-(J1-Pin_1)*%
X3250000Y-270992320D03*
%TD*%
%TO.P,J19,1*%
%TO.N,Net-(J1-Pin_1)*%
X3250000Y-473171446D03*
%TD*%
%TO.P,J11,1*%
%TO.N,Net-(J1-Pin_1)*%
X3250000Y-182782671D03*
%TD*%
%TO.P,J41,1*%
%TO.N,Net-(J1-Pin_1)*%
X3250000Y-1131252308D03*
%TD*%
%TO.P,J21,1*%
%TO.N,Net-(J1-Pin_1)*%
X3250000Y-520282497D03*
%TD*%
%TO.P,J1,1*%
%TO.N,Net-(J1-Pin_1)*%
X3250000Y-35800000D03*
%TD*%
%TO.P,J18,1*%
%TO.N,Net-(J1-Pin_1)*%
X3250000Y-447280773D03*
%TD*%
%TO.P,J53,1*%
%TO.N,Net-(J1-Pin_1)*%
X3250000Y-1424786180D03*
%TD*%
D11*
%TO.N,Net-(J1-Pin_1)*%
X423340135Y-364323022D03*
X426741852Y-1132192535D03*
X395452677Y-1091342852D03*
X376955656Y-385086344D03*
%TD*%
D12*
%TO.N,Net-(J1-Pin_1)*%
X44580000Y-525258500D02*
X71220000Y-532730000D01*
X566170000Y-421192700D02*
X569380000Y-436520000D01*
X7606323Y-1130720734D02*
X5180000Y-1131070000D01*
X527300000Y-41575300D02*
X553450000Y-41580000D01*
X614270000Y-1129293700D02*
X613750000Y-1131540000D01*
X254220000Y-1058172800D02*
X270350000Y-1045170000D01*
X13711321Y-1269000000D02*
X14126210Y-1268585111D01*
X6640000Y-87637300D02*
X11289699Y-87642980D01*
X116420000Y-1464115300D02*
X83720000Y-1464120000D01*
X100700000Y-622977400D02*
X103780000Y-625680000D01*
X17242405Y-979614076D02*
X12774451Y-979614076D01*
X607420000Y-444886200D02*
X608710000Y-453960000D01*
X11233298Y-497339098D02*
X11390000Y-497495800D01*
X13081672Y-1464151037D02*
X3650000Y-1464150000D01*
X3250000Y-1424786180D02*
X24946180Y-1424786180D01*
X661180000Y-583931800D02*
X661320000Y-595930000D01*
X686400000Y-1010606700D02*
X685650000Y-1034850000D01*
X701200000Y-618828800D02*
X701350000Y-640920000D01*
X700890000Y-1376853700D02*
X688640000Y-1406470000D01*
X598450000Y-1346831700D02*
X585300000Y-1357290000D01*
X355960000Y-366859100D02*
X377140000Y-385190000D01*
X714120000Y-866416100D02*
X714070000Y-873780000D01*
X513440000Y-1317698200D02*
X486230000Y-1332680000D01*
X11390000Y-497495800D02*
X29730000Y-499410000D01*
X588850000Y-1421932600D02*
X575650000Y-1427560000D01*
X166840000Y-671238000D02*
X178440000Y-701090000D01*
X213600000Y-403971100D02*
X196640000Y-384040000D01*
X615510000Y-969892100D02*
X615470000Y-970440000D01*
X373730000Y-1447031300D02*
X347510000Y-1448330000D01*
X700570000Y-961584100D02*
X700570000Y-978720000D01*
X181350000Y-1015536600D02*
X179770000Y-1016890000D01*
X701460000Y-739064300D02*
X701460000Y-760940000D01*
X457000000Y-301081800D02*
X477950000Y-326010000D01*
X567220000Y-757983500D02*
X567190000Y-782030000D01*
X36510964Y-523414600D02*
X34017794Y-520921430D01*
X244080000Y-36320600D02*
X276280000Y-36320000D01*
X480370000Y-248336500D02*
X506000000Y-275170000D01*
X319900000Y-994250600D02*
X337070000Y-972260000D01*
X347520000Y-51671300D02*
X373730000Y-52970000D01*
X504130000Y-205002100D02*
X526490000Y-224020000D01*
X392990000Y-1274109000D02*
X372210000Y-1282260000D01*
X32030000Y-1317191900D02*
X10382877Y-1317217192D01*
X680930000Y-367021400D02*
X681500000Y-372120000D01*
X222230000Y-413077400D02*
X220290000Y-409730000D01*
X279590000Y-642990400D02*
X286280000Y-660710000D01*
X519360000Y-625359800D02*
X519540000Y-634570000D01*
X239110000Y-236734000D02*
X241070000Y-237000000D01*
X210880000Y-1312423400D02*
X190220000Y-1313850000D01*
X132320000Y-147577400D02*
X148120000Y-148000000D01*
X562510000Y-157277700D02*
X567160000Y-161300000D01*
X48520000Y-502552000D02*
X76580000Y-511280000D01*
X175240000Y-264904400D02*
X184680000Y-265490000D01*
X675570000Y-804251700D02*
X675520000Y-815860000D01*
X486270000Y-1460161700D02*
X475050000Y-1461300000D01*
X256540000Y-603308000D02*
X262950000Y-612520000D01*
X339040000Y-66425700D02*
X341560000Y-66650000D01*
X699310000Y-1058049000D02*
X698330000Y-1082960000D01*
X75580000Y-1269215800D02*
X44230000Y-1268740000D01*
X3250000Y-1269000000D02*
X13711321Y-1269000000D01*
X701350000Y-841057200D02*
X701350000Y-859080000D01*
X32990000Y-857079400D02*
X10990000Y-861700000D01*
X443130000Y-331518300D02*
X454240000Y-345490000D01*
X477350000Y-383966200D02*
X485940000Y-404390000D01*
X170630000Y-1156892000D02*
X176460000Y-1150500000D01*
X3250000Y-611106415D02*
X13156715Y-611106415D01*
X545710000Y-890423400D02*
X543890000Y-928760000D01*
X220290000Y-409728200D02*
X213600000Y-403970000D01*
X196640000Y-384040400D02*
X187890000Y-377950000D01*
X141630000Y-61673100D02*
X178830000Y-62090000D01*
X464550000Y-1292248400D02*
X459890000Y-1295290000D01*
X60670000Y-481393200D02*
X63480000Y-482490000D01*
X467710000Y-77213300D02*
X491530000Y-79700000D01*
X546420000Y-850152200D02*
X546270000Y-860080000D01*
X644740000Y-986679600D02*
X644250000Y-993940000D01*
X166560000Y-993987800D02*
X146120000Y-1006940000D01*
X365240000Y-1126800500D02*
X361460000Y-1130150000D01*
X606220000Y-82400400D02*
X625500000Y-93980000D01*
X184950000Y-1165290100D02*
X176570000Y-1163090000D01*
X10913503Y-48565597D02*
X10940000Y-48539100D01*
X525700000Y-1239700800D02*
X512060000Y-1255470000D01*
X710160000Y-263728800D02*
X711300000Y-274950000D01*
X513000000Y-508932600D02*
X513260000Y-510880000D01*
X536310000Y-1174597500D02*
X524740000Y-1197420000D01*
X162970000Y-746916500D02*
X163350000Y-749780000D01*
X3250000Y-958233090D02*
X13546910Y-958233090D01*
X292180000Y-824208500D02*
X285950000Y-840080000D01*
X586320000Y-272652700D02*
X597130000Y-300500000D01*
X300510000Y-1435135700D02*
X299930000Y-1435180000D01*
X300530000Y-939501300D02*
X295380000Y-947140000D01*
X444410000Y-92041200D02*
X479910000Y-98450000D01*
X103700000Y-1232899700D02*
X96510000Y-1232780000D01*
X395452677Y-1091342852D02*
X393850000Y-1093000000D01*
X176590000Y-336951800D02*
X184920000Y-334760000D01*
X333270000Y-350662500D02*
X342330000Y-355560000D01*
X543770000Y-931565100D02*
X540710000Y-966960000D01*
X464480000Y-1442906500D02*
X456150000Y-1442910000D01*
X675640000Y-735740800D02*
X675640000Y-764260000D01*
X166580000Y-630059000D02*
X184670000Y-658780000D01*
X347510000Y-1448327400D02*
X332960000Y-1448330000D01*
X184180000Y-618028900D02*
X200310000Y-643460000D01*
X299910000Y-877670400D02*
X285460000Y-904730000D01*
X55078271Y-1398789915D02*
X41150000Y-1398860000D01*
X618650000Y-888556500D02*
X618590000Y-891610000D01*
X688330000Y-611436900D02*
X688580000Y-648250000D01*
X107030000Y-717194200D02*
X111800000Y-740230000D01*
X701200000Y-600976800D02*
X701200000Y-618830000D01*
X101770000Y-546507200D02*
X110320000Y-552110000D01*
X390624159Y-408738559D02*
X398440000Y-416554400D01*
X662330000Y-783413100D02*
X662300000Y-796630000D01*
X432901752Y-1120143552D02*
X397521352Y-1120143552D01*
X519190000Y-834512800D02*
X519540000Y-865430000D01*
X684460000Y-210308400D02*
X685650000Y-218960000D01*
X661180000Y-916068800D02*
X660420000Y-944620000D01*
X332300000Y-607085100D02*
X335010000Y-611160000D01*
X107020000Y-470390300D02*
X129000000Y-482980000D01*
X324650000Y-1296273300D02*
X302830000Y-1300840000D01*
X540390000Y-1166577900D02*
X536310000Y-1174600000D01*
X421142010Y-1138086900D02*
X421142010Y-1137918009D01*
X101750000Y-61423400D02*
X138560000Y-61670000D01*
X52840000Y-146581200D02*
X67290000Y-146650000D01*
X80020000Y-916210800D02*
X48920000Y-928450000D01*
X113350000Y-527873700D02*
X132070000Y-540140000D01*
X205550000Y-1410235600D02*
X194620000Y-1410420000D01*
X124640000Y-230636900D02*
X155710000Y-230910000D01*
X268130000Y-78190000D02*
X291830000Y-78940000D01*
X603420000Y-802834600D02*
X603350000Y-817290000D01*
X662300000Y-796630100D02*
X662180000Y-823520000D01*
X695300000Y-1175830200D02*
X692910000Y-1206150000D01*
X560880000Y-978543600D02*
X558180000Y-1003340000D01*
X217250000Y-678800900D02*
X224720000Y-705410000D01*
X689870000Y-92102800D02*
X691470000Y-96530000D01*
X117290000Y-1335985300D02*
X83100000Y-1336420000D01*
X598200000Y-1303124000D02*
X592750000Y-1312450000D01*
X407680000Y-1068835300D02*
X399440000Y-1082610000D01*
X586420000Y-833098000D02*
X585980000Y-867290000D01*
X625500000Y-93975100D02*
X627820000Y-95430000D01*
X123780000Y-35934600D02*
X156420000Y-35930000D01*
X244080000Y-1463679200D02*
X236350000Y-1463860000D01*
X701350000Y-658942700D02*
X701430000Y-680900000D01*
X439040000Y-171121200D02*
X442210000Y-172560000D01*
X88140000Y-1317045700D02*
X71990000Y-1317080000D01*
X662130000Y-663441400D02*
X662180000Y-676480000D01*
X711300000Y-274949400D02*
X711300000Y-304410000D01*
X427300000Y-1284959300D02*
X416830000Y-1290240000D01*
X259500000Y-272237000D02*
X260720000Y-272480000D01*
X657960000Y-305588800D02*
X658650000Y-314200000D01*
X619280000Y-648025900D02*
X619320000Y-651860000D01*
X614900000Y-289067800D02*
X615290000Y-290070000D01*
X132530000Y-657510900D02*
X146490000Y-680780000D01*
X94190000Y-74586600D02*
X106020000Y-74700000D01*
X83720000Y-1464115300D02*
X76400000Y-1464140000D01*
X520510000Y-1366469900D02*
X504500000Y-1373200000D01*
X529600000Y-459368900D02*
X533980000Y-482760000D01*
X713860000Y-953954000D02*
X713860000Y-986350000D01*
X408820000Y-1316254200D02*
X394600000Y-1321230000D01*
X519540000Y-865426400D02*
X519360000Y-874640000D01*
X565110000Y-278942000D02*
X577280000Y-307480000D01*
X620460000Y-1087653300D02*
X620000000Y-1092550000D01*
X653480000Y-190002900D02*
X653880000Y-192130000D01*
X615960000Y-538681600D02*
X617400000Y-569050000D01*
X62150000Y-1369631200D02*
X57920000Y-1369650000D01*
X173760000Y-1424580300D02*
X146280000Y-1424900000D01*
X465890000Y-363340100D02*
X472030000Y-373740000D01*
X712100000Y-1185480500D02*
X711300000Y-1195590000D01*
X379290000Y-1364265700D02*
X369090000Y-1365960000D01*
X602910000Y-642433000D02*
X603100000Y-657320000D01*
X557850000Y-96260200D02*
X560920000Y-96840000D01*
X328810000Y-1316174800D02*
X313480000Y-1319380000D01*
X405100000Y-37901200D02*
X435480000Y-37900000D01*
X475900000Y-163072500D02*
X481540000Y-164990000D01*
X66760000Y-660278100D02*
X84340000Y-676870000D01*
X187770000Y-1122046700D02*
X196610000Y-1115900000D01*
X285950000Y-840083400D02*
X279050000Y-858010000D01*
X591580000Y-1144271100D02*
X589330000Y-1155000000D01*
X60660000Y-1018589600D02*
X59230000Y-1018920000D01*
X33410000Y-87672500D02*
X46630000Y-87690000D01*
X345620000Y-264041500D02*
X368300000Y-273640000D01*
X591860000Y-1455609400D02*
X568940000Y-1455610000D01*
X474730000Y-243717300D02*
X478130000Y-246220000D01*
X362250000Y-1400809300D02*
X360370000Y-1401020000D01*
X619320000Y-848141600D02*
X619280000Y-851970000D01*
X283960000Y-1254865400D02*
X277250000Y-1256300000D01*
X21900000Y-416088200D02*
X55320000Y-421020000D01*
X639430000Y-1063684600D02*
X637750000Y-1077720000D01*
X304350000Y-1007255600D02*
X319900000Y-994250000D01*
X297040000Y-1301786600D02*
X266110000Y-1306600000D01*
X677590000Y-325073700D02*
X678790000Y-333650000D01*
X714150000Y-753645200D02*
X714150000Y-786380000D01*
X12533693Y-979854834D02*
X3250000Y-979854834D01*
X449510000Y-152857200D02*
X475900000Y-163070000D01*
X232550000Y-840714000D02*
X221920000Y-863730000D01*
X428190000Y-190255300D02*
X458490000Y-204030000D01*
X606730000Y-335010400D02*
X613730000Y-368460000D01*
X176570000Y-1163089400D02*
X170630000Y-1156890000D01*
X449500000Y-1347121300D02*
X427810000Y-1352880000D01*
X663610000Y-1142926000D02*
X662700000Y-1157110000D01*
X304350000Y-1007255600D02*
X319900000Y-994250000D01*
X414850000Y-124569300D02*
X424870000Y-126060000D01*
X187670000Y-448230800D02*
X196030000Y-453600000D01*
X81300000Y-101350500D02*
X118620000Y-101740000D01*
X688710000Y-688203300D02*
X688710000Y-691710000D01*
X180950000Y-1367403800D02*
X179270000Y-1367450000D01*
X42030000Y-1125539100D02*
X37520000Y-1126410000D01*
X377880000Y-1431496600D02*
X341560000Y-1433350000D01*
X520650000Y-133592900D02*
X535510000Y-140220000D01*
X224720000Y-705408300D02*
X226570000Y-713470000D01*
X700040000Y-481558700D02*
X700040000Y-498080000D01*
X41081027Y-101072427D02*
X41150000Y-101141400D01*
X713680000Y-994084300D02*
X713680000Y-1026280000D01*
X29730000Y-499414100D02*
X48520000Y-502550000D01*
X176480000Y-349450000D02*
X170690000Y-343110000D01*
X333580000Y-1148141300D02*
X317930000Y-1157860000D01*
X156860000Y-792508200D02*
X146290000Y-819680000D01*
X228300000Y-119850300D02*
X253000000Y-121530000D01*
X30560000Y-1384317800D02*
X14650277Y-1384342068D01*
X589000000Y-1316811900D02*
X568180000Y-1337850000D01*
X194620000Y-89575500D02*
X205550000Y-89760000D01*
X698330000Y-402485200D02*
X698330000Y-417040000D01*
X268130000Y-1421808400D02*
X252700000Y-1422630000D01*
X524730000Y-1062580800D02*
X521420000Y-1075960000D01*
X196640000Y-384040400D02*
X187890000Y-377950000D01*
X276910000Y-464228000D02*
X270020000Y-456400000D01*
X368300000Y-273644400D02*
X376480000Y-277920000D01*
X493060000Y-146028900D02*
X512850000Y-155970000D01*
X83100000Y-163581700D02*
X117290000Y-164010000D01*
X663340000Y-222443100D02*
X665490000Y-238070000D01*
X18190152Y-978666329D02*
X17242405Y-979614076D01*
X513260000Y-510883800D02*
X516660000Y-546850000D01*
X592070000Y-186637400D02*
X598780000Y-197980000D01*
X267540000Y-813445300D02*
X257180000Y-844720000D01*
X243940000Y-105753200D02*
X275390000Y-107550000D01*
X575360000Y-72482200D02*
X587050000Y-77390000D01*
X332670000Y-892047500D02*
X316910000Y-920260000D01*
X341230000Y-532163500D02*
X338490000Y-529110000D01*
X467710000Y-1422788100D02*
X454320000Y-1425200000D01*
X644740000Y-513322000D02*
X646150000Y-547190000D01*
X546420000Y-649847700D02*
X546420000Y-650010000D01*
X248900000Y-1346330400D02*
X230630000Y-1347720000D01*
X3250000Y-203541365D02*
X19903365Y-203541365D01*
X248930000Y-639256100D02*
X257320000Y-655780000D01*
X637750000Y-1077721600D02*
X635510000Y-1101460000D01*
X479860000Y-1335455100D02*
X449500000Y-1347120000D01*
X567210000Y-798014700D02*
X567080000Y-821990000D01*
X425570000Y-519120700D02*
X426310000Y-541000000D01*
X584930000Y-907922000D02*
X584780000Y-912220000D01*
X219210000Y-1437289000D02*
X181420000Y-1437910000D01*
X475050000Y-38697900D02*
X486270000Y-39840000D01*
X9015439Y-163296738D02*
X9033157Y-163314456D01*
X427170000Y-501468300D02*
X425570000Y-519120000D01*
X261040000Y-937226600D02*
X259800000Y-939120000D01*
X252700000Y-77370900D02*
X268130000Y-78190000D01*
X648210000Y-628423200D02*
X648260000Y-631380000D01*
X284250000Y-1463435000D02*
X276280000Y-1463680000D01*
X261160000Y-890509400D02*
X255460000Y-898600000D01*
X13156715Y-611106415D02*
X13950000Y-611899700D01*
X360090000Y-1261143000D02*
X359300000Y-1261430000D01*
X225370000Y-1331118700D02*
X201170000Y-1332920000D01*
X583000000Y-140906800D02*
X597000000Y-151710000D01*
X400530000Y-926468500D02*
X406890000Y-920660000D01*
X236350000Y-1463857800D02*
X203950000Y-1463860000D01*
X553460000Y-1458433200D02*
X527290000Y-1458430000D01*
X146490000Y-680780500D02*
X156370000Y-705980000D01*
X332020000Y-259112000D02*
X345620000Y-264040000D01*
X322280000Y-95615700D02*
X360120000Y-98960000D01*
X10897831Y-830223384D02*
X12675419Y-828445796D01*
X324470000Y-36890400D02*
X356010000Y-36890000D01*
X545190000Y-1210329800D02*
X544430000Y-1211630000D01*
X593790000Y-1022917800D02*
X592380000Y-1036660000D01*
X175230000Y-1235096900D02*
X144670000Y-1234550000D01*
X186680000Y-75762700D02*
X213330000Y-76220000D01*
X44200000Y-906317400D02*
X37420000Y-908440000D01*
X271980000Y-525596600D02*
X274020000Y-527610000D01*
X266910000Y-122321500D02*
X294960000Y-124900000D01*
X698330000Y-1097515600D02*
X697030000Y-1123730000D01*
X295690000Y-480902500D02*
X276910000Y-464230000D01*
X203150000Y-233332300D02*
X239110000Y-236730000D01*
X435800000Y-91343500D02*
X444410000Y-92040000D01*
X502550000Y-1439485000D02*
X498150000Y-1439490000D01*
X521420000Y-1075963900D02*
X511430000Y-1109300000D01*
X156370000Y-705983000D02*
X158420000Y-712590000D01*
X674240000Y-936683400D02*
X673780000Y-963330000D01*
X645550000Y-346700000D02*
X646590000Y-352140000D01*
X255460000Y-898598000D02*
X241160000Y-920390000D01*
X3250000Y-163296738D02*
X9015439Y-163296738D01*
X648670000Y-671174100D02*
X648860000Y-708850000D01*
X619630000Y-812146900D02*
X619320000Y-848140000D01*
X241070000Y-1263001000D02*
X239110000Y-1263260000D01*
X205450000Y-652671600D02*
X217250000Y-678800000D01*
X586630000Y-793193900D02*
X586480000Y-826980000D01*
X687290000Y-528909200D02*
X687290000Y-530790000D01*
X90440000Y-982665300D02*
X82400000Y-986750000D01*
X360370000Y-98976400D02*
X362290000Y-99190000D01*
X685650000Y-465207100D02*
X686390000Y-489390000D01*
X498150000Y-1439485000D02*
X464480000Y-1442910000D01*
X184920000Y-334762700D02*
X209000000Y-323700000D01*
X42320000Y-592946500D02*
X69950000Y-603870000D01*
X700040000Y-1018441800D02*
X699310000Y-1042370000D01*
X236680000Y-1394738000D02*
X202810000Y-1396160000D01*
X120980000Y-446089600D02*
X123310000Y-447640000D01*
X308050000Y-1449305100D02*
X292370000Y-1449310000D01*
X375540000Y-707968300D02*
X376410000Y-712480000D01*
X701350000Y-640918500D02*
X701350000Y-658940000D01*
X3250000Y-87515000D02*
X11161719Y-87515000D01*
X637750000Y-422275400D02*
X639420000Y-436320000D01*
X675410000Y-655813700D02*
X675520000Y-684140000D01*
X619990000Y-407449800D02*
X620450000Y-412340000D01*
X372210000Y-217741000D02*
X392110000Y-225560000D01*
X138850000Y-414966500D02*
X142890000Y-417660000D01*
X303140000Y-872777800D02*
X299910000Y-877670000D01*
X110300000Y-116227000D02*
X130070000Y-116570000D01*
X551790000Y-1047039800D02*
X550840000Y-1052830000D01*
X211420000Y-134036000D02*
X219890000Y-134490000D01*
X511430000Y-1001280900D02*
X506300000Y-1027250000D01*
X12650000Y-564999000D02*
X28200000Y-567050000D01*
X633980000Y-660280300D02*
X634150000Y-679510000D01*
X413950000Y-1053334600D02*
X407680000Y-1068840000D01*
X180580000Y-950414700D02*
X176930000Y-953300000D01*
X650810000Y-266497300D02*
X651470000Y-269290000D01*
X581120000Y-975374300D02*
X579890000Y-989460000D01*
X268970000Y-1172202000D02*
X248520000Y-1177190000D01*
X467940000Y-454758400D02*
X476580000Y-484930000D01*
X138220000Y-764479300D02*
X137110000Y-773090000D01*
X482220000Y-973390300D02*
X477760000Y-1009500000D01*
X295250000Y-282048100D02*
X306830000Y-285460000D01*
X585870000Y-872814300D02*
X584930000Y-907920000D01*
X365930000Y-673456400D02*
X372050000Y-700100000D01*
X675640000Y-764259200D02*
X675620000Y-775780000D01*
X370720000Y-1382584600D02*
X351460000Y-1385510000D01*
X293910000Y-1019977600D02*
X304350000Y-1007260000D01*
X416350000Y-1428792600D02*
X382980000Y-1430930000D01*
X55320000Y-1078972800D02*
X21910000Y-1083910000D01*
X247460000Y-798523300D02*
X238720000Y-826580000D01*
X525920000Y-1276545000D02*
X503420000Y-1295460000D01*
X447620000Y-1274654400D02*
X427300000Y-1284960000D01*
X12870000Y-146469500D02*
X16479746Y-146472152D01*
X668980000Y-1080658200D02*
X667190000Y-1100840000D01*
X9901100Y-415736500D02*
X9900776Y-415736176D01*
X459890000Y-1295292300D02*
X455370000Y-1297590000D01*
X30560000Y-115681800D02*
X49540000Y-115740000D01*
X542510000Y-205407500D02*
X543170000Y-206200000D01*
X642450000Y-474608400D02*
X644240000Y-506060000D01*
X424870000Y-1373926600D02*
X414860000Y-1375420000D01*
X178440000Y-701087400D02*
X182880000Y-721400000D01*
X579720000Y-509029900D02*
X579880000Y-510540000D01*
X360790000Y-169813400D02*
X394600000Y-178760000D01*
X247430000Y-701490100D02*
X250570000Y-720260000D01*
X414190000Y-265971900D02*
X420490000Y-269650000D01*
X477760000Y-1009504600D02*
X477520000Y-1010720000D01*
X260610000Y-1436396100D02*
X259750000Y-1436400000D01*
X200310000Y-643464600D02*
X203290000Y-647980000D01*
X28800075Y-1438758701D02*
X21800000Y-1438770000D01*
X313680000Y-1389424300D02*
X285530000Y-1391520000D01*
X211600000Y-119151500D02*
X228300000Y-119850000D01*
X460260000Y-204784400D02*
X462360000Y-206020000D01*
X427800000Y-147099900D02*
X449510000Y-152860000D01*
X519360000Y-874639900D02*
X519090000Y-905710000D01*
X480510000Y-807783500D02*
X480620000Y-812360000D01*
X685650000Y-218956100D02*
X689490000Y-247450000D01*
X616730000Y-130258500D02*
X617350000Y-130730000D01*
X90910000Y-517535200D02*
X113350000Y-527870000D01*
X14850000Y-473493400D02*
X24740000Y-474260000D01*
X560880000Y-521459100D02*
X562420000Y-539120000D01*
X196400000Y-36017000D02*
X203950000Y-36140000D01*
X109120000Y-897865900D02*
X83390000Y-914430000D01*
X593780000Y-477078900D02*
X596330000Y-501100000D01*
X625600000Y-255186400D02*
X633370000Y-279690000D01*
X323710000Y-1337187300D02*
X316170000Y-1338180000D01*
X149020000Y-48803900D02*
X171340000Y-49050000D01*
X338490000Y-529108600D02*
X337320000Y-528410000D01*
X401750000Y-1296273300D02*
X383860000Y-1302530000D01*
X651470000Y-1230712300D02*
X650810000Y-1233500000D01*
X627680000Y-1016908100D02*
X625100000Y-1044960000D01*
X41570000Y-450333100D02*
X74210000Y-457820000D01*
X519540000Y-634574000D02*
X519190000Y-665490000D01*
X539680000Y-65553100D02*
X541320000Y-66070000D01*
X359300000Y-1261428000D02*
X325960000Y-1271420000D01*
X54250000Y-74424800D02*
X65860000Y-74480000D01*
X318940000Y-660421900D02*
X325630000Y-683310000D01*
X338490000Y-529108600D02*
X337320000Y-528410000D01*
X9520000Y-638353100D02*
X30800000Y-642240000D01*
X625590000Y-1244815700D02*
X623200000Y-1254500000D01*
X361460000Y-1130154900D02*
X353080000Y-1137000000D01*
X553520000Y-1347932800D02*
X536740000Y-1359150000D01*
X440590000Y-1112455304D02*
X432901752Y-1120143552D01*
X705620000Y-181064300D02*
X708430000Y-196540000D01*
X73000000Y-834471700D02*
X55890000Y-846540000D01*
X24800000Y-543854700D02*
X59880000Y-551900000D01*
X216070000Y-948792000D02*
X193600000Y-971700000D01*
X335010000Y-611158700D02*
X337200000Y-616220000D01*
X179140000Y-983145200D02*
X166560000Y-993990000D01*
X141610000Y-131407000D02*
X179270000Y-132550000D01*
X230880000Y-324432900D02*
X248540000Y-322840000D01*
X16431953Y-146519945D02*
X16479746Y-146472152D01*
X360370000Y-1401019100D02*
X360120000Y-1401030000D01*
X500900000Y-1266134600D02*
X488130000Y-1277010000D01*
X316910000Y-920262700D02*
X300530000Y-939500000D01*
X563750000Y-1341778900D02*
X553520000Y-1347930000D01*
X627820000Y-95429500D02*
X651120000Y-116250000D01*
X211390000Y-1365964000D02*
X180950000Y-1367400000D01*
X302360000Y-738995500D02*
X303380000Y-749410000D01*
X189090000Y-1350357400D02*
X171640000Y-1351190000D01*
X27160000Y-1353515900D02*
X17884517Y-1353525052D01*
X244790000Y-1408852500D02*
X235420000Y-1409080000D01*
X359860000Y-1330431600D02*
X356580000Y-1331120000D01*
X527290000Y-1458433200D02*
X514420000Y-1460160000D01*
X293910000Y-1019977600D02*
X304350000Y-1007260000D01*
X630150000Y-978299500D02*
X628470000Y-1003000000D01*
X671810000Y-1018133000D02*
X671060000Y-1041820000D01*
X496950000Y-1140891400D02*
X483790000Y-1164670000D01*
X714150000Y-786382600D02*
X714140000Y-793680000D01*
X683970000Y-1291274100D02*
X678130000Y-1323260000D01*
X158680000Y-588873000D02*
X161350000Y-591930000D01*
X584890000Y-1280161100D02*
X568510000Y-1302480000D01*
X577280000Y-307482300D02*
X578860000Y-310990000D01*
X158240000Y-102456900D02*
X162050000Y-102570000D01*
X57850000Y-876096000D02*
X47210000Y-879700000D01*
X13189425Y-1336928064D02*
X13437437Y-1336680052D01*
X249200000Y-1000258900D02*
X225630000Y-1020930000D01*
X277250000Y-1256297800D02*
X251270000Y-1261430000D01*
X651470000Y-269288000D02*
X651550000Y-270090000D01*
X662360000Y-756634900D02*
X662330000Y-783410000D01*
X681500000Y-1127877500D02*
X680930000Y-1132980000D01*
X3250000Y-1369480685D02*
X25693224Y-1369480685D01*
X518740000Y-705771400D02*
X518730000Y-714160000D01*
X206130000Y-725213900D02*
X207080000Y-735310000D01*
X267510000Y-621896500D02*
X279590000Y-642990000D01*
X308130000Y-495722500D02*
X295690000Y-480900000D01*
X603100000Y-657319800D02*
X603350000Y-682710000D01*
X406890000Y-920658600D02*
X413070000Y-926570000D01*
X106020000Y-1425301000D02*
X94190000Y-1425410000D01*
X545430000Y-1253563800D02*
X525920000Y-1276550000D01*
X135100000Y-957767700D02*
X114040000Y-971770000D01*
X635510000Y-1101464500D02*
X632590000Y-1120710000D01*
X603100000Y-842680400D02*
X602910000Y-857570000D01*
X517210000Y-553181500D02*
X518680000Y-585720000D01*
X356000000Y-1463109100D02*
X324470000Y-1463110000D01*
X586480000Y-673021500D02*
X586630000Y-706810000D01*
X688330000Y-891631500D02*
X687910000Y-928830000D01*
X671060000Y-458176700D02*
X671810000Y-481870000D01*
X171340000Y-49051000D02*
X188910000Y-49050000D01*
X545860000Y-1291003000D02*
X544490000Y-1292620000D01*
X337070000Y-972255500D02*
X340690000Y-970130000D01*
X426310000Y-541001300D02*
X415300000Y-565050000D01*
X3250000Y-35800000D02*
X8986165Y-35800000D01*
X614270000Y-370711200D02*
X615960000Y-380910000D01*
X586790000Y-1226548900D02*
X585310000Y-1230930000D01*
X675300000Y-856016800D02*
X675100000Y-884040000D01*
X178570000Y-798454900D02*
X168140000Y-825480000D01*
X182880000Y-721405000D02*
X184980000Y-737360000D01*
X484510000Y-565323600D02*
X485090000Y-574760000D01*
X445590000Y-1461302200D02*
X435480000Y-1462100000D01*
X261210000Y-449367900D02*
X246390000Y-431390000D01*
X386800000Y-52967000D02*
X414750000Y-54700000D01*
X155710000Y-230912900D02*
X164280000Y-231320000D01*
X636560000Y-1398808000D02*
X627120000Y-1404990000D01*
X550240000Y-1246187300D02*
X548020000Y-1250240000D01*
X512060000Y-1255472300D02*
X500900000Y-1266130000D01*
X109180000Y-1103069300D02*
X85850000Y-1111970000D01*
X351460000Y-1385508300D02*
X327720000Y-1387750000D01*
X651550000Y-270093600D02*
X657960000Y-305590000D01*
X653740000Y-1309208600D02*
X652460000Y-1312350000D01*
X157920000Y-165067400D02*
X162220000Y-165220000D01*
X176590000Y-336951800D02*
X176590000Y-336950000D01*
X600820000Y-401064600D02*
X603720000Y-416800000D01*
X668980000Y-419343500D02*
X669840000Y-440710000D01*
X699300000Y-457631800D02*
X700040000Y-481560000D01*
X73520000Y-1412183200D02*
X46630000Y-1412310000D01*
X325960000Y-228573400D02*
X359300000Y-238570000D01*
X541370000Y-1433941800D02*
X539690000Y-1434470000D01*
X318380000Y-504171600D02*
X308130000Y-495720000D01*
X603530000Y-762871000D02*
X603510000Y-777160000D01*
X513260000Y-989112300D02*
X513000000Y-991070000D01*
X688770000Y-771801700D02*
X688710000Y-808290000D01*
X16479746Y-146472152D02*
X27160000Y-146480000D01*
X484550000Y-894673400D02*
X485100000Y-925240000D01*
X376480000Y-277919800D02*
X383020000Y-281820000D01*
X713440000Y-1034252100D02*
X713440000Y-1066160000D01*
X229870000Y-751607200D02*
X226590000Y-786540000D01*
X184950000Y-1165290100D02*
X176570000Y-1163090000D01*
X219210000Y-62710400D02*
X221090000Y-62710000D01*
X665480000Y-1261933600D02*
X663330000Y-1277550000D01*
X698330000Y-417042600D02*
X699300000Y-441950000D01*
X654900000Y-1377363000D02*
X636560000Y-1398810000D01*
X7899972Y-912969124D02*
X8613643Y-912255453D01*
X617240000Y-1268926400D02*
X610190000Y-1284770000D01*
X3250000Y-1131252308D02*
X7074749Y-1131252308D01*
X118620000Y-1054905300D02*
X89580000Y-1068940000D01*
X124310000Y-853847900D02*
X111050000Y-866450000D01*
X71200000Y-967243300D02*
X44590000Y-974720000D01*
X251920000Y-49961700D02*
X268440000Y-49960000D01*
X511430000Y-498762700D02*
X513000000Y-508930000D01*
X3250000Y-368850000D02*
X8082053Y-368850000D01*
X250570000Y-720258700D02*
X252500000Y-738610000D01*
X708430000Y-196542600D02*
X708430000Y-222710000D01*
X528480000Y-1387485200D02*
X515770000Y-1392820000D01*
X674580000Y-923763900D02*
X674240000Y-936680000D01*
X566450000Y-1158260500D02*
X559880000Y-1177930000D01*
X3250000Y-912969124D02*
X7899972Y-912969124D01*
X496760000Y-358656500D02*
X510950000Y-389470000D01*
X382980000Y-1430927500D02*
X377880000Y-1431500000D01*
X14216700Y-74320000D02*
X14260000Y-74363300D01*
X708430000Y-222707400D02*
X710160000Y-235580000D01*
X81360000Y-584360200D02*
X88670000Y-588970000D01*
X286760000Y-1026515300D02*
X293910000Y-1019980000D01*
X353080000Y-1137000900D02*
X333580000Y-1148140000D01*
X61800000Y-61288700D02*
X98390000Y-61420000D01*
X210880000Y-187574500D02*
X228540000Y-189120000D01*
X3250000Y-670366786D02*
X6829986Y-670366786D01*
X37520000Y-1126414700D02*
X7606323Y-1130720734D01*
X118620000Y-101737000D02*
X121580000Y-101790000D01*
X652460000Y-1312350700D02*
X640990000Y-1338930000D01*
X486230000Y-1332680100D02*
X482590000Y-1334520000D01*
X524720000Y-437413600D02*
X529600000Y-459370000D01*
X483090000Y-966412600D02*
X482220000Y-973390000D01*
X563850000Y-940220300D02*
X562420000Y-960880000D01*
X407680000Y-1068835300D02*
X399440000Y-1082610000D01*
X603830000Y-256620500D02*
X614900000Y-289070000D01*
X110230000Y-203726700D02*
X139780000Y-204290000D01*
X392930000Y-1413603000D02*
X369120000Y-1416260000D01*
X477950000Y-326005000D02*
X480260000Y-329210000D01*
X19836540Y-1296376540D02*
X19910000Y-1296450000D01*
X697030000Y-376270600D02*
X698330000Y-402490000D01*
X209120000Y-505682000D02*
X221170000Y-517210000D01*
X65860000Y-1425522100D02*
X54250000Y-1425570000D01*
X545660000Y-1209240200D02*
X545190000Y-1210330000D01*
X697030000Y-1136799500D02*
X695300000Y-1164750000D01*
X348930000Y-149173600D02*
X369590000Y-152610000D01*
X490880000Y-1082022700D02*
X485950000Y-1095620000D01*
X566180000Y-1078802700D02*
X561900000Y-1099210000D01*
X309290000Y-80154000D02*
X330660000Y-81020000D01*
X483490000Y-1400809300D02*
X480710000Y-1401470000D01*
X38100000Y-591644800D02*
X42320000Y-592950000D01*
X672790000Y-282292000D02*
X675210000Y-295680000D01*
X688580000Y-651608200D02*
X688710000Y-688200000D01*
X210530000Y-1349213500D02*
X189090000Y-1350360000D01*
X67290000Y-146647500D02*
X92680000Y-146900000D01*
X270350000Y-1045168100D02*
X286760000Y-1026520000D01*
X532260000Y-1122214700D02*
X524430000Y-1142180000D01*
X405000000Y-160667600D02*
X432350000Y-168880000D01*
X22200000Y-130229600D02*
X57920000Y-130350000D01*
X92190000Y-882705900D02*
X70000000Y-896130000D01*
X25780000Y-74378400D02*
X54250000Y-74420000D01*
X268960000Y-809206600D02*
X268630000Y-810680000D01*
X28590000Y-932892000D02*
X12650000Y-934990000D01*
X213600000Y-403971100D02*
X196640000Y-384040000D01*
X303730000Y-336284200D02*
X321130000Y-343380000D01*
X240970000Y-1329725300D02*
X239460000Y-1329890000D01*
X69100000Y-48573200D02*
X91060000Y-48650000D01*
X714140000Y-826403900D02*
X714120000Y-833720000D01*
X583030000Y-550956500D02*
X584780000Y-587790000D01*
X138560000Y-61673100D02*
X141630000Y-61670000D01*
X110750000Y-998916200D02*
X94220000Y-1007320000D01*
X407510000Y-431174900D02*
X413460000Y-446020000D01*
X297040000Y-198208100D02*
X302830000Y-199160000D01*
X206140000Y-774794100D02*
X198090000Y-809890000D01*
X107570000Y-1352913100D02*
X92680000Y-1353100000D01*
X70000000Y-896131100D02*
X44200000Y-906320000D01*
X619650000Y-807924400D02*
X619630000Y-812150000D01*
X701460000Y-720907900D02*
X701460000Y-739060000D01*
X203950000Y-36142100D02*
X236350000Y-36140000D01*
X447870000Y-112366100D02*
X470310000Y-116640000D01*
X138550000Y-982627800D02*
X125340000Y-991810000D01*
X294060000Y-1167599900D02*
X268970000Y-1172200000D01*
X21398580Y-270992320D02*
X21420000Y-270970900D01*
X334260000Y-731673700D02*
X334270000Y-768330000D01*
X519090000Y-905712900D02*
X518680000Y-914280000D01*
X21800000Y-1438768000D02*
X18230000Y-1438770000D01*
X292160000Y-675799200D02*
X299660000Y-708420000D01*
X417760000Y-1044115700D02*
X413950000Y-1053330000D01*
X418980000Y-1262237000D02*
X404840000Y-1269370000D01*
X413950000Y-1053334600D02*
X407680000Y-1068840000D01*
X592750000Y-1312451300D02*
X589000000Y-1316810000D01*
X442210000Y-172564700D02*
X470790000Y-184780000D01*
X457400000Y-134036000D02*
X459930000Y-134710000D01*
X295380000Y-947135400D02*
X277630000Y-968500000D01*
X650810000Y-1233502800D02*
X642820000Y-1265770000D01*
X685170000Y-450067400D02*
X685650000Y-465210000D01*
X222230000Y-413077400D02*
X220290000Y-409730000D01*
X126800000Y-851010900D02*
X124310000Y-853850000D01*
X166480000Y-870092700D02*
X161900000Y-875450000D01*
X661870000Y-636271600D02*
X662130000Y-663440000D01*
X258250000Y-137403600D02*
X262370000Y-137840000D01*
X109850000Y-833401000D02*
X96210000Y-848500000D01*
X597720000Y-980631200D02*
X596330000Y-998900000D01*
X14528046Y-473171446D02*
X14850000Y-473493400D01*
X582910000Y-548830800D02*
X583030000Y-550960000D01*
X662130000Y-836558800D02*
X661870000Y-863730000D01*
X18230000Y-61231900D02*
X21800000Y-61230000D01*
X567080000Y-678008600D02*
X567210000Y-701990000D01*
X674900000Y-896276300D02*
X674580000Y-923760000D01*
X415270000Y-934937500D02*
X426310000Y-959000000D01*
X642820000Y-234226100D02*
X650810000Y-266500000D01*
X372050000Y-799938700D02*
X365940000Y-826550000D01*
X383860000Y-1302531900D02*
X375380000Y-1304780000D01*
X659070000Y-514580600D02*
X660230000Y-544450000D01*
X49290000Y-571659300D02*
X75040000Y-581640000D01*
X568490000Y-44373900D02*
X591780000Y-44370000D01*
X261210000Y-449367900D02*
X246390000Y-431390000D01*
X417590000Y-455934800D02*
X422190000Y-481030000D01*
X126230000Y-692411800D02*
X129580000Y-702320000D01*
X261210000Y-449367900D02*
X246390000Y-431390000D01*
X170970000Y-929278500D02*
X149500000Y-947420000D01*
X516110000Y-249101500D02*
X527410000Y-262440000D01*
X600350000Y-560908700D02*
X601180000Y-578360000D01*
X38910000Y-101134000D02*
X41150000Y-101140000D01*
X221170000Y-517212600D02*
X239030000Y-536210000D01*
X461030000Y-1364849900D02*
X459920000Y-1365280000D01*
X625430000Y-1164852500D02*
X623940000Y-1174870000D01*
X546510000Y-810175500D02*
X546420000Y-849990000D01*
X12637030Y-115649133D02*
X12643624Y-115655727D01*
X565030000Y-580647300D02*
X565700000Y-598750000D01*
X342330000Y-355563300D02*
X355960000Y-366860000D01*
X688580000Y-848391600D02*
X688580000Y-851750000D01*
X217810000Y-1091282200D02*
X220900000Y-1088500000D01*
X418910000Y-1192832100D02*
X405760000Y-1203330000D01*
X323710000Y-162807800D02*
X356610000Y-168880000D01*
X227280000Y-76762200D02*
X252700000Y-77370000D01*
X634250000Y-799536900D02*
X634150000Y-820490000D01*
X166070000Y-88816400D02*
X194620000Y-89580000D01*
X318070000Y-95445200D02*
X322280000Y-95620000D01*
X497130000Y-1062009800D02*
X490880000Y-1082020000D01*
X687910000Y-928827200D02*
X687910000Y-931420000D01*
X286660000Y-1342381900D02*
X272920000Y-1343790000D01*
X43200000Y-163366400D02*
X76980000Y-163520000D01*
X687910000Y-931422800D02*
X687290000Y-969210000D01*
X276500000Y-735151900D02*
X276510000Y-764840000D01*
X166220000Y-629578000D02*
X166430000Y-629830000D01*
X270350000Y-1045168100D02*
X286760000Y-1026520000D01*
X661780000Y-876387000D02*
X661320000Y-904070000D01*
X615510000Y-530109800D02*
X615960000Y-538680000D01*
X199040000Y-166968400D02*
X201170000Y-167080000D01*
X211580000Y-1450573400D02*
X188910000Y-1450950000D01*
X41580000Y-1049656000D02*
X38790000Y-1050210000D01*
X128510000Y-183560900D02*
X151260000Y-184300000D01*
X422190000Y-481032400D02*
X427170000Y-501470000D01*
X240970000Y-170271400D02*
X276860000Y-174690000D01*
X36850000Y-163342200D02*
X43200000Y-163370000D01*
X369590000Y-1347379200D02*
X348930000Y-1350820000D01*
X166910000Y-538029200D02*
X176560000Y-545620000D01*
X567160000Y-161296900D02*
X587540000Y-181450000D01*
X10382877Y-1317217192D02*
X7980000Y-1317220000D01*
X246580000Y-1067602000D02*
X254220000Y-1058170000D01*
X642820000Y-1265770400D02*
X637690000Y-1278190000D01*
X341230000Y-532163500D02*
X338490000Y-529110000D01*
X171640000Y-1351188500D02*
X148120000Y-1352000000D01*
X427160000Y-998542000D02*
X422180000Y-1018960000D01*
X101980000Y-1369282700D02*
X98140000Y-1369320000D01*
X615960000Y-380907300D02*
X619990000Y-407450000D01*
X36850000Y-1336657300D02*
X13437437Y-1336680052D01*
X124320000Y-884743200D02*
X109120000Y-897870000D01*
X606750000Y-1164997200D02*
X602910000Y-1177790000D01*
X713680000Y-505915600D02*
X713860000Y-513650000D01*
X372050000Y-562244100D02*
X365890000Y-553400000D01*
X330660000Y-1418976700D02*
X309290000Y-1419840000D01*
X406890000Y-579387400D02*
X400490000Y-573550000D01*
X244790000Y-91146200D02*
X276540000Y-92830000D01*
X705790000Y-1340743100D02*
X700890000Y-1360140000D01*
X322270000Y-1404381200D02*
X318070000Y-1404550000D01*
X61800000Y-1438711100D02*
X58290000Y-1438710000D01*
X117830000Y-640444100D02*
X129550000Y-652950000D01*
X276280000Y-1463679200D02*
X244080000Y-1463680000D01*
X608720000Y-1046047300D02*
X607430000Y-1055110000D01*
X133830000Y-412798700D02*
X138850000Y-414970000D01*
X353060000Y-640822600D02*
X361950000Y-664150000D01*
X170660000Y-117559600D02*
X189280000Y-118100000D01*
X3250000Y-935666707D02*
X11973293Y-935666707D01*
X14126210Y-1268585111D02*
X4070000Y-1268520000D01*
X485940000Y-404387800D02*
X490860000Y-417970000D01*
X169350000Y-184966200D02*
X190220000Y-186150000D01*
X612150000Y-487630500D02*
X612590000Y-491760000D01*
X441840000Y-1110087600D02*
X440590000Y-1112200000D01*
X200770000Y-569961400D02*
X201470000Y-570780000D01*
X83390000Y-914425800D02*
X81810000Y-915440000D01*
X486270000Y-39840500D02*
X514420000Y-39840000D01*
X476580000Y-484927400D02*
X477510000Y-489290000D01*
X502540000Y-60521400D02*
X530920000Y-64350000D01*
X213330000Y-1423778200D02*
X186680000Y-1424240000D01*
X468070000Y-1133142500D02*
X453700000Y-1154900000D01*
X505390000Y-237865800D02*
X516110000Y-249100000D01*
X632440000Y-920662800D02*
X631900000Y-939280000D01*
X319900000Y-994250600D02*
X337070000Y-972260000D01*
X236350000Y-36142100D02*
X244080000Y-36320000D01*
X405080000Y-296452200D02*
X421420000Y-309430000D01*
X674900000Y-603723300D02*
X675100000Y-615960000D01*
X259510000Y-1227756900D02*
X223390000Y-1232220000D01*
X169350000Y-1315032800D02*
X151260000Y-1315700000D01*
X196400000Y-1463982900D02*
X163850000Y-1463980000D01*
X482590000Y-1334524700D02*
X479860000Y-1335460000D01*
X620450000Y-412343200D02*
X624350000Y-444980000D01*
X187770000Y-1122046700D02*
X196610000Y-1115900000D01*
X608110000Y-165907700D02*
X615650000Y-174530000D01*
X400530000Y-926468500D02*
X406890000Y-920660000D01*
X669880000Y-1428117500D02*
X658590000Y-1439460000D01*
X17139765Y-1085440235D02*
X18320000Y-1084260000D01*
X13184298Y-889195702D02*
X14290000Y-888090000D01*
X685650000Y-1034847400D02*
X685180000Y-1049930000D01*
X266110000Y-1306604900D02*
X253340000Y-1308180000D01*
X148220000Y-641390600D02*
X165050000Y-667840000D01*
X262370000Y-1362156800D02*
X258240000Y-1362590000D01*
X48920000Y-928450500D02*
X28590000Y-932890000D01*
X197270000Y-861311000D02*
X184870000Y-880940000D01*
X700570000Y-978721600D02*
X700040000Y-1001920000D01*
X651020000Y-389629500D02*
X651030000Y-389880000D01*
X12675419Y-828445796D02*
X10050000Y-829100000D01*
X506300000Y-1027249300D02*
X504870000Y-1033960000D01*
X202810000Y-103842800D02*
X236680000Y-105260000D01*
X198090000Y-809886300D02*
X198020000Y-810150000D01*
X246580000Y-1067602000D02*
X254220000Y-1058170000D01*
X714120000Y-666277100D02*
X714140000Y-673600000D01*
X546420000Y-650015000D02*
X546510000Y-689820000D01*
X217810000Y-1091282200D02*
X220900000Y-1088500000D01*
X243940000Y-1394244900D02*
X236680000Y-1394740000D01*
X661320000Y-595925500D02*
X661780000Y-623610000D01*
X567210000Y-701985500D02*
X567190000Y-717970000D01*
X209000000Y-323698200D02*
X230880000Y-324430000D01*
X615650000Y-174534500D02*
X620040000Y-181950000D01*
X668030000Y-1355208000D02*
X657250000Y-1373540000D01*
X375550000Y-792038400D02*
X372050000Y-799940000D01*
X388590000Y-1380467300D02*
X370720000Y-1382580000D01*
X48010000Y-1317215400D02*
X32030000Y-1317190000D01*
X619320000Y-651858100D02*
X619630000Y-687850000D01*
X546270000Y-860079100D02*
X545710000Y-889770000D01*
X518680000Y-585724300D02*
X519080000Y-594290000D01*
X608710000Y-453955700D02*
X612150000Y-487630000D01*
X49540000Y-1384255300D02*
X30560000Y-1384320000D01*
X675300000Y-643983000D02*
X675410000Y-655810000D01*
X275740000Y-725259300D02*
X276500000Y-735150000D01*
X397521352Y-1120143552D02*
X383280000Y-1105902200D01*
X342330000Y-355563300D02*
X355960000Y-366860000D01*
X355960000Y-366859100D02*
X376955656Y-385086344D01*
X3250000Y-497339098D02*
X11233298Y-497339098D01*
X565360000Y-1220493800D02*
X550240000Y-1246190000D01*
X328980000Y-805319600D02*
X325640000Y-816680000D01*
X623940000Y-1174873100D02*
X615960000Y-1207400000D01*
X711300000Y-1195588000D02*
X711300000Y-1225050000D01*
X369590000Y-152613400D02*
X394270000Y-158420000D01*
X688770000Y-731773800D02*
X688770000Y-768230000D01*
X44530000Y-853171900D02*
X32990000Y-857080000D01*
X47210000Y-879700800D02*
X24930000Y-886680000D01*
X620670000Y-1365778100D02*
X619630000Y-1367140000D01*
X506000000Y-275165800D02*
X514060000Y-286130000D01*
X511430000Y-390717700D02*
X521420000Y-424040000D01*
X603510000Y-722835100D02*
X603530000Y-737130000D01*
X221920000Y-863732100D02*
X209970000Y-881920000D01*
X425570000Y-519120700D02*
X426310000Y-541000000D01*
X713430000Y-433835800D02*
X713430000Y-465750000D01*
X459920000Y-1365275900D02*
X457330000Y-1365960000D01*
X131170000Y-48803900D02*
X149020000Y-48800000D01*
X531670000Y-166072500D02*
X552230000Y-181280000D01*
X8659677Y-369427624D02*
X37510000Y-373580000D01*
X367040000Y-1226844600D02*
X345620000Y-1235950000D01*
X399440000Y-1082614100D02*
X395452677Y-1091342852D01*
X609940000Y-49133000D02*
X627520000Y-49130000D01*
X581120000Y-524681700D02*
X582910000Y-548830000D01*
X479030000Y-771418300D02*
X480510000Y-807780000D01*
X166420000Y-566637000D02*
X179170000Y-578900000D01*
X92610000Y-933931700D02*
X60510000Y-947830000D01*
X101750000Y-1438576500D02*
X98390000Y-1438580000D01*
X535980000Y-495732100D02*
X540060000Y-526280000D01*
X472210000Y-1126176300D02*
X468070000Y-1133140000D01*
X201470000Y-570782600D02*
X222540000Y-595480000D01*
X170690000Y-343108000D02*
X176590000Y-336950000D01*
X464480000Y-57093700D02*
X498150000Y-60520000D01*
X423930000Y-1228084100D02*
X421540000Y-1229820000D01*
X230630000Y-152277100D02*
X248910000Y-153670000D01*
X286760000Y-1026515300D02*
X293910000Y-1019980000D01*
X248540000Y-322838000D02*
X268970000Y-327810000D01*
X519540000Y-1154424100D02*
X510800000Y-1171610000D01*
X220440000Y-134527900D02*
X258250000Y-137400000D01*
X111050000Y-866451300D02*
X97240000Y-879390000D01*
X553450000Y-41575300D02*
X568490000Y-44370000D01*
X216960000Y-1290709000D02*
X181560000Y-1293770000D01*
X422180000Y-1018963500D02*
X417760000Y-1044120000D01*
X76610000Y-988669000D02*
X48510000Y-997430000D01*
X128090000Y-1017510700D02*
X107010000Y-1029600000D01*
X146290000Y-819675700D02*
X130550000Y-845290000D01*
X579730000Y-990966700D02*
X575310000Y-1026860000D01*
X476620000Y-1117741500D02*
X472210000Y-1126180000D01*
X545710000Y-889774300D02*
X545710000Y-890420000D01*
X480520000Y-692219000D02*
X479030000Y-728580000D01*
X571240000Y-1144603200D02*
X566450000Y-1158260000D01*
X94230000Y-492657900D02*
X109970000Y-500670000D01*
X295690000Y-480902500D02*
X276910000Y-464230000D01*
X631550000Y-202912700D02*
X637850000Y-222240000D01*
X307180000Y-1214439000D02*
X295250000Y-1217940000D01*
X43680000Y-1464142200D02*
X36380000Y-1464150000D01*
X417590000Y-455934800D02*
X422190000Y-481030000D01*
X630850000Y-961604800D02*
X630150000Y-978300000D01*
X327720000Y-112247000D02*
X351460000Y-114490000D01*
X660420000Y-555381900D02*
X661180000Y-583930000D01*
X615290000Y-1209934000D02*
X614920000Y-1210900000D01*
X423310000Y-364288200D02*
X423340135Y-364323022D01*
X233920000Y-970171200D02*
X219160000Y-983740000D01*
X477520000Y-1010718900D02*
X476580000Y-1015110000D01*
X17647289Y-1353762280D02*
X17884517Y-1353525052D01*
X500570000Y-202207100D02*
X504130000Y-205000000D01*
X562420000Y-960877000D02*
X560880000Y-978540000D01*
X568510000Y-1302481700D02*
X553990000Y-1317120000D01*
X365240000Y-1126800500D02*
X361460000Y-1130150000D01*
X103780000Y-625677000D02*
X117830000Y-640440000D01*
X653840000Y-1441292000D02*
X628520000Y-1450300000D01*
X646400000Y-552394000D02*
X647420000Y-587940000D01*
X317930000Y-1157860000D02*
X303980000Y-1163470000D01*
X55320000Y-421019500D02*
X66680000Y-424350000D01*
X673240000Y-522713800D02*
X673780000Y-536670000D01*
X424930000Y-272793900D02*
X445770000Y-290180000D01*
X701460000Y-779092100D02*
X701430000Y-800980000D01*
X482780000Y-846511800D02*
X482900000Y-853700000D01*
X25693224Y-1369480685D02*
X25970116Y-1369757577D01*
X616070000Y-1324826700D02*
X608640000Y-1333480000D01*
X230890000Y-1175580800D02*
X208990000Y-1176320000D01*
X349210000Y-1311897600D02*
X328810000Y-1316170000D01*
X241070000Y-236996100D02*
X251290000Y-238570000D01*
X144810000Y-492213500D02*
X166600000Y-506000000D01*
X565700000Y-901255800D02*
X565030000Y-919350000D01*
X589320000Y-345012000D02*
X591560000Y-355720000D01*
X27510000Y-824749300D02*
X12675419Y-828445796D01*
X543760000Y-568432800D02*
X543890000Y-571240000D01*
X667190000Y-399158700D02*
X668980000Y-419340000D01*
X491530000Y-1420304900D02*
X467710000Y-1422790000D01*
X503260000Y-315657900D02*
X512310000Y-331120000D01*
X675520000Y-684137800D02*
X675570000Y-695750000D01*
X24740000Y-474255500D02*
X59220000Y-481060000D01*
X464430000Y-442811800D02*
X467940000Y-454760000D01*
X138560000Y-1368648100D02*
X101980000Y-1369280000D01*
X546270000Y-425361400D02*
X550840000Y-447170000D01*
X567190000Y-782027500D02*
X567210000Y-798010000D01*
X318070000Y-1404551600D02*
X283710000Y-1406940000D01*
X558180000Y-1003343700D02*
X556610000Y-1016120000D01*
X527550000Y-86679400D02*
X557850000Y-96260000D01*
X6992998Y-587175553D02*
X7390596Y-587573151D01*
X24930000Y-886680700D02*
X14290000Y-888090000D01*
X713110000Y-1074467000D02*
X713110000Y-1106010000D01*
X179270000Y-482720500D02*
X180150000Y-483290000D01*
X619630000Y-687853200D02*
X619650000Y-692080000D01*
X23970000Y-756327300D02*
X8430000Y-776160000D01*
X567040000Y-661860100D02*
X567080000Y-678010000D01*
X6829986Y-670366786D02*
X7180000Y-670716800D01*
X7970000Y-723944900D02*
X23910000Y-743740000D01*
X541320000Y-66071200D02*
X575360000Y-72480000D01*
X427160000Y-998542000D02*
X422180000Y-1018960000D01*
X170630000Y-1156892000D02*
X176460000Y-1150500000D01*
X8082053Y-368850000D02*
X8659677Y-369427624D01*
X519190000Y-665486400D02*
X519220000Y-674420000D01*
X526490000Y-224020600D02*
X545450000Y-246690000D01*
X619770000Y-772198800D02*
X619650000Y-807920000D01*
X179270000Y-1367452300D02*
X141610000Y-1368590000D01*
X3250000Y-115649133D02*
X12637030Y-115649133D01*
X10990000Y-447643900D02*
X3613127Y-447643900D01*
X372050000Y-937777700D02*
X400530000Y-926470000D01*
X253000000Y-1378469800D02*
X228300000Y-1380150000D01*
X275750000Y-774746500D02*
X268960000Y-809210000D01*
X384418668Y-394173439D02*
X390624159Y-400378930D01*
X421540000Y-1229819600D02*
X418040000Y-1231870000D01*
X232670000Y-659553900D02*
X236750000Y-667600000D01*
X248910000Y-153667000D02*
X272920000Y-156210000D01*
X623930000Y-325133100D02*
X625420000Y-335140000D01*
X233070000Y-612072000D02*
X241820000Y-624660000D01*
X96150000Y-693508200D02*
X103040000Y-705360000D01*
X268970000Y-327807100D02*
X293830000Y-332210000D01*
X615470000Y-970436700D02*
X612590000Y-1008250000D01*
X425570000Y-980878600D02*
X427160000Y-998540000D01*
X360160000Y-1191675600D02*
X357580000Y-1193160000D01*
X270350000Y-1045168100D02*
X286760000Y-1026520000D01*
X490860000Y-417966500D02*
X497120000Y-437990000D01*
X337320000Y-528408000D02*
X318380000Y-504170000D01*
X294060000Y-1167599900D02*
X268970000Y-1172200000D01*
X333210000Y-146271500D02*
X348930000Y-149170000D01*
X359860000Y-169561300D02*
X360790000Y-169810000D01*
X647420000Y-587944600D02*
X647540000Y-591770000D01*
X3250000Y-721288889D02*
X5313989Y-721288889D01*
X269030000Y-573247800D02*
X287670000Y-598330000D01*
X19910000Y-203548000D02*
X20120000Y-203550000D01*
X146280000Y-1424897400D02*
X134040000Y-1425100000D01*
X675210000Y-295681500D02*
X677590000Y-325070000D01*
X33410000Y-1412327200D02*
X19501637Y-1412344241D01*
X176570000Y-1163089400D02*
X176570000Y-1163090000D01*
X276510000Y-764843400D02*
X275750000Y-774750000D01*
X120120000Y-583545000D02*
X125470000Y-588110000D01*
X675520000Y-815862100D02*
X675410000Y-844190000D01*
X303980000Y-1163465500D02*
X294060000Y-1167600000D01*
X83300000Y-640079600D02*
X98180000Y-653500000D01*
X75700000Y-775964100D02*
X61460000Y-801940000D01*
X524740000Y-1197419900D02*
X506280000Y-1224710000D01*
X392110000Y-225562200D02*
X404660000Y-230570000D01*
X369120000Y-1416257900D02*
X350840000Y-1417190000D01*
X257320000Y-655781300D02*
X267510000Y-686570000D01*
X137380000Y-487065500D02*
X144810000Y-492210000D01*
X7180000Y-670716800D02*
X26310000Y-674940000D01*
X84510000Y-1269190200D02*
X75580000Y-1269220000D01*
X672630000Y-1002698700D02*
X671810000Y-1018130000D01*
X686390000Y-489394100D02*
X686390000Y-490240000D01*
X118600000Y-445064600D02*
X120980000Y-446090000D01*
X617450000Y-570727800D02*
X618590000Y-608390000D01*
X546270000Y-348251700D02*
X552530000Y-366140000D01*
X253340000Y-191820800D02*
X266120000Y-193390000D01*
X220900000Y-1088501300D02*
X221620000Y-1087320000D01*
X122820000Y-164123900D02*
X157920000Y-165070000D01*
X139470000Y-517972900D02*
X153800000Y-527000000D01*
X50980000Y-1451426700D02*
X29090000Y-1451460000D01*
X360790000Y-1330177100D02*
X359860000Y-1330430000D01*
X585310000Y-1230934000D02*
X582590000Y-1236390000D01*
X662180000Y-676476200D02*
X662300000Y-703370000D01*
X369130000Y-83738600D02*
X392930000Y-86390000D01*
X379290000Y-135725900D02*
X381540000Y-136250000D01*
X413600000Y-364992107D02*
X384418668Y-394173439D01*
X425830000Y-54703600D02*
X456150000Y-57090000D01*
X337200000Y-616221200D02*
X353060000Y-640820000D01*
X675620000Y-775777300D02*
X675570000Y-804250000D01*
X599210000Y-960531600D02*
X597720000Y-980630000D01*
X556610000Y-1016115600D02*
X551790000Y-1047040000D01*
X325630000Y-683314100D02*
X328970000Y-694680000D01*
X93010000Y-542466400D02*
X101770000Y-546510000D01*
X160860000Y-908982600D02*
X158520000Y-911030000D01*
X176590000Y-336951800D02*
X184920000Y-334760000D01*
X567190000Y-717972400D02*
X567220000Y-742020000D01*
X268440000Y-49961700D02*
X292370000Y-50690000D01*
X120220000Y-916320400D02*
X92610000Y-933930000D01*
X71990000Y-182919000D02*
X88140000Y-182950000D01*
X701430000Y-819100300D02*
X701350000Y-841060000D01*
X568940000Y-1455609400D02*
X553460000Y-1458430000D01*
X325960000Y-1271421500D02*
X312580000Y-1274730000D01*
X224740000Y-794579400D02*
X217270000Y-821210000D01*
X138050000Y-735686100D02*
X138220000Y-764480000D01*
X203150000Y-1266666400D02*
X196820000Y-1267210000D01*
X365890000Y-553395300D02*
X341230000Y-532160000D01*
X355960000Y-366859100D02*
X377140000Y-385190000D01*
X208990000Y-1176320500D02*
X184950000Y-1165290000D01*
X603720000Y-416795400D02*
X607420000Y-444890000D01*
X235040000Y-572999800D02*
X243970000Y-583420000D01*
X203240000Y-852239800D02*
X197270000Y-861310000D01*
X96210000Y-848504300D02*
X85580000Y-858450000D01*
X21910000Y-1083907800D02*
X18320000Y-1084260000D01*
X111800000Y-740228300D02*
X111840000Y-757790000D01*
X457330000Y-1365964000D02*
X424870000Y-1373930000D01*
X383280000Y-1105902200D02*
X365240000Y-1126800000D01*
X551780000Y-452955800D02*
X556600000Y-483890000D01*
X634150000Y-679513600D02*
X634250000Y-700460000D01*
X254270000Y-1285984100D02*
X223720000Y-1290070000D01*
X377880000Y-68500700D02*
X382980000Y-69070000D01*
X98390000Y-61423400D02*
X101750000Y-61420000D01*
X388010000Y-328850100D02*
X402940000Y-341490000D01*
X197610000Y-1396402200D02*
X162050000Y-1397430000D01*
X675210000Y-1204319900D02*
X672790000Y-1217710000D01*
X565030000Y-919351200D02*
X563850000Y-940220000D01*
X712100000Y-344896700D02*
X712680000Y-354220000D01*
X166080000Y-669462500D02*
X166840000Y-671240000D01*
X272920000Y-1343785900D02*
X248900000Y-1346330000D01*
X579890000Y-989461100D02*
X579730000Y-990970000D01*
X657410000Y-126023800D02*
X667530000Y-143020000D01*
X223710000Y-209927700D02*
X254270000Y-214010000D01*
X337660000Y-1370455700D02*
X305030000Y-1374350000D01*
X184680000Y-265491200D02*
X216410000Y-266900000D01*
X179770000Y-1016894800D02*
X178800000Y-1017510000D01*
X217270000Y-821212500D02*
X207450000Y-843110000D01*
X55770000Y-653123100D02*
X66760000Y-660280000D01*
X504490000Y-126822400D02*
X520650000Y-133590000D01*
X176930000Y-953301800D02*
X154680000Y-972370000D01*
X78880000Y-760726500D02*
X75700000Y-775960000D01*
X138560000Y-1438326700D02*
X101750000Y-1438580000D01*
X130760000Y-564995700D02*
X156280000Y-586760000D01*
X442810000Y-1327156600D02*
X439010000Y-1328860000D01*
X648860000Y-791149400D02*
X648670000Y-828830000D01*
X561270000Y-1403016700D02*
X559020000Y-1403430000D01*
X688640000Y-1412066700D02*
X685190000Y-1416430000D01*
X390624159Y-400378930D02*
X390624159Y-408738559D01*
X637640000Y-1197871300D02*
X633370000Y-1220320000D01*
X125340000Y-991811500D02*
X110750000Y-998920000D01*
X321130000Y-343379500D02*
X333270000Y-350660000D01*
X85850000Y-1111965300D02*
X76550000Y-1115940000D01*
X483790000Y-1164666900D02*
X480500000Y-1170320000D01*
X627670000Y-483094000D02*
X628470000Y-497000000D01*
X549370000Y-251858800D02*
X565110000Y-278940000D01*
X406890000Y-920658600D02*
X413070000Y-926570000D01*
X631900000Y-939279200D02*
X630850000Y-961600000D01*
X243970000Y-583415600D02*
X256540000Y-603310000D01*
X456150000Y-57093700D02*
X464480000Y-57090000D01*
X612970000Y-1450296500D02*
X591860000Y-1455610000D01*
X618590000Y-891605900D02*
X617450000Y-929270000D01*
X168140000Y-825482200D02*
X165440000Y-831740000D01*
X480710000Y-98538000D02*
X483470000Y-99190000D01*
X299930000Y-64823100D02*
X300510000Y-64860000D01*
X581120000Y-1182384100D02*
X578900000Y-1189020000D01*
X634250000Y-700463000D02*
X634320000Y-719450000D01*
X21420000Y-1229028600D02*
X18630000Y-1229000000D01*
X513000000Y-991070800D02*
X511430000Y-1001280000D01*
X713110000Y-393995100D02*
X713110000Y-425530000D01*
X691470000Y-96534400D02*
X700540000Y-122430000D01*
X624350000Y-1055026500D02*
X620460000Y-1087650000D01*
X345620000Y-1235948500D02*
X332030000Y-1240870000D01*
X35840000Y-231273900D02*
X44230000Y-231260000D01*
X78830000Y-101329300D02*
X81300000Y-101350000D01*
X701430000Y-699016900D02*
X701460000Y-720910000D01*
X49540000Y-115744300D02*
X70490000Y-115850000D01*
X713680000Y-1026276800D02*
X713440000Y-1034250000D01*
X128900000Y-800237600D02*
X126790000Y-806830000D01*
X580430000Y-390145200D02*
X581120000Y-393430000D01*
X423340135Y-364323022D02*
X441830000Y-389940000D01*
X516660000Y-546854800D02*
X517210000Y-553180000D01*
X238670000Y-673393900D02*
X247430000Y-701490000D01*
X592380000Y-463338200D02*
X593780000Y-477080000D01*
X687910000Y-571172300D02*
X688330000Y-608370000D01*
X617450000Y-929270900D02*
X617400000Y-930950000D01*
X118620000Y-1398262700D02*
X81300000Y-1398650000D01*
X581120000Y-393427900D02*
X587190000Y-426290000D01*
X148120000Y-148002000D02*
X171640000Y-148810000D01*
X591830000Y-1389372500D02*
X564710000Y-1401550000D01*
X381080000Y-755186600D02*
X376420000Y-787510000D01*
X541490000Y-407018700D02*
X542900000Y-411700000D01*
X494820000Y-1375590800D02*
X470310000Y-1383360000D01*
X141610000Y-1368592500D02*
X138560000Y-1368650000D01*
X3250000Y-830223384D02*
X10897831Y-830223384D01*
X524110000Y-357006900D02*
X532260000Y-377790000D01*
X100150000Y-203580400D02*
X110230000Y-203730000D01*
X381540000Y-1363734000D02*
X379290000Y-1364270000D01*
X458180000Y-263891200D02*
X480720000Y-285250000D01*
X511140000Y-389916700D02*
X511430000Y-390720000D01*
X587190000Y-1073710100D02*
X581120000Y-1106610000D01*
X111790000Y-1316681700D02*
X88140000Y-1317050000D01*
X601190000Y-921637700D02*
X600360000Y-939090000D01*
X128510000Y-1316438700D02*
X111790000Y-1316680000D01*
X580190000Y-1110785400D02*
X571240000Y-1144600000D01*
X597000000Y-151705300D02*
X608110000Y-165910000D01*
X144670000Y-1234552200D02*
X135450000Y-1234670000D01*
X613750000Y-1131537600D02*
X606750000Y-1165000000D01*
X662330000Y-716586900D02*
X662360000Y-743370000D01*
X149020000Y-1451196000D02*
X131170000Y-1451200000D01*
X441080000Y-1170815500D02*
X430860000Y-1181840000D01*
X425830000Y-1445294700D02*
X414750000Y-1445290000D01*
X274020000Y-527609900D02*
X278840000Y-533920000D01*
X685650000Y-1281027200D02*
X684460000Y-1289690000D01*
X350840000Y-82805900D02*
X369130000Y-83740000D01*
X402940000Y-341490500D02*
X413600000Y-352290000D01*
X213600000Y-403971100D02*
X196640000Y-384040000D01*
X57690000Y-623451900D02*
X58030000Y-623560000D01*
X324680000Y-203726700D02*
X338300000Y-207090000D01*
X541500000Y-1092976200D02*
X532260000Y-1122210000D01*
X372050000Y-562244100D02*
X365890000Y-553400000D01*
X566680000Y-861789900D02*
X566440000Y-878520000D01*
X666260000Y-380876800D02*
X667190000Y-399160000D01*
X71990000Y-1317080600D02*
X48010000Y-1317220000D01*
X84510000Y-230809900D02*
X115430000Y-230460000D01*
X246390000Y-431387000D02*
X222230000Y-413080000D01*
X651040000Y-1110119300D02*
X651020000Y-1110370000D01*
X166070000Y-1411183100D02*
X154070000Y-1411320000D01*
X688580000Y-851747100D02*
X688330000Y-888560000D01*
X238720000Y-826578200D02*
X236760000Y-832500000D01*
X624350000Y-444976100D02*
X625100000Y-455040000D01*
X675100000Y-615964400D02*
X675300000Y-643980000D01*
X559820000Y-321929700D02*
X566250000Y-341180000D01*
X14342971Y-1384034762D02*
X14650277Y-1384342068D01*
X121040000Y-915795300D02*
X120220000Y-916320000D01*
X101980000Y-130717000D02*
X138560000Y-131350000D01*
X59220000Y-481060300D02*
X60670000Y-481390000D01*
X515770000Y-1392822300D02*
X483490000Y-1400810000D01*
X585870000Y-627186200D02*
X585980000Y-632710000D01*
X340690000Y-970127900D02*
X346820000Y-962880000D01*
X155710000Y-1269087000D02*
X124640000Y-1269360000D01*
X304890000Y-631371900D02*
X318940000Y-660420000D01*
X171570000Y-862043400D02*
X166480000Y-870090000D01*
X375380000Y-1304776600D02*
X349210000Y-1311900000D01*
X142890000Y-1082338200D02*
X138850000Y-1085030000D01*
X158700000Y-786418700D02*
X156860000Y-792510000D01*
X340690000Y-970127900D02*
X346820000Y-962880000D01*
X141770000Y-546256100D02*
X147450000Y-551030000D01*
X304350000Y-1007255600D02*
X319900000Y-994250000D01*
X156280000Y-586763900D02*
X158680000Y-588870000D01*
X193600000Y-971702800D02*
X179140000Y-983150000D01*
X248520000Y-1177187300D02*
X230890000Y-1175580000D01*
X574170000Y-1034184200D02*
X569390000Y-1063480000D01*
X414750000Y-1445294700D02*
X386800000Y-1447030000D01*
X3250000Y-1384034762D02*
X14342971Y-1384034762D01*
X184990000Y-762645200D02*
X183000000Y-778170000D01*
X338300000Y-207094200D02*
X342980000Y-208500000D01*
X415000000Y-143256300D02*
X427800000Y-147100000D01*
X648860000Y-788910400D02*
X648860000Y-791150000D01*
X5621105Y-778968895D02*
X8430000Y-776160000D01*
X712680000Y-1145785000D02*
X712100000Y-1155100000D01*
X544200000Y-288348200D02*
X545490000Y-290330000D01*
X121580000Y-101788200D02*
X158240000Y-102460000D01*
X76580000Y-511282900D02*
X82420000Y-513210000D01*
X648650000Y-831297300D02*
X648260000Y-868620000D01*
X13889545Y-1027460455D02*
X3250000Y-1027460455D01*
X501140000Y-1297402300D02*
X499070000Y-1298740000D01*
X506290000Y-472755700D02*
X511430000Y-498760000D01*
X117290000Y-164014300D02*
X122820000Y-164120000D01*
X548020000Y-1250239900D02*
X545430000Y-1253560000D01*
X158230000Y-1397542600D02*
X121580000Y-1398210000D01*
X445770000Y-290176000D02*
X457000000Y-301080000D01*
X17884517Y-1353525052D02*
X12870000Y-1353530000D01*
X27160000Y-146483600D02*
X52840000Y-146580000D01*
X714140000Y-673596200D02*
X714140000Y-706320000D01*
X677840000Y-79916300D02*
X689870000Y-92100000D01*
X634320000Y-719445400D02*
X634350000Y-740540000D01*
X333270000Y-350662500D02*
X342330000Y-355560000D01*
X210530000Y-150784900D02*
X230630000Y-152280000D01*
X421420000Y-309431200D02*
X432000000Y-319300000D01*
X154070000Y-1411321500D02*
X126390000Y-1411790000D01*
X394280000Y-1341560700D02*
X369590000Y-1347380000D01*
X640890000Y-1184607900D02*
X637640000Y-1197870000D01*
X8613643Y-912255453D02*
X3220000Y-912970000D01*
X640320000Y-159774300D02*
X652070000Y-186650000D01*
X521420000Y-424040200D02*
X524720000Y-437410000D01*
X140420000Y-204291900D02*
X178760000Y-206100000D01*
X259750000Y-63602900D02*
X260610000Y-63600000D01*
X579880000Y-510541900D02*
X581120000Y-524680000D01*
X545700000Y-609575800D02*
X545710000Y-610230000D01*
X9033157Y-35846992D02*
X36380000Y-35850000D01*
X615960000Y-1207403300D02*
X615290000Y-1209930000D01*
X122040000Y-685196400D02*
X126230000Y-692410000D01*
X31864798Y-977989366D02*
X23199676Y-977989366D01*
X60290000Y-696762900D02*
X75300000Y-722690000D01*
X633770000Y-639703300D02*
X633980000Y-660280000D01*
X596330000Y-501098400D02*
X597720000Y-519370000D01*
X333920000Y-771901300D02*
X328980000Y-805320000D01*
X225630000Y-1020933500D02*
X222310000Y-1024450000D01*
X619770000Y-732174600D02*
X619770000Y-767830000D01*
X399440000Y-1082614100D02*
X393850000Y-1093000000D01*
X334860000Y-887917900D02*
X333750000Y-890410000D01*
X695300000Y-335245700D02*
X697030000Y-363200000D01*
X568780000Y-1261618900D02*
X545860000Y-1291000000D01*
X711300000Y-1225050800D02*
X710160000Y-1236270000D01*
X217810000Y-1091282200D02*
X220900000Y-1088500000D01*
X24740000Y-1025736900D02*
X14850000Y-1026500000D01*
X14260000Y-74363300D02*
X25780000Y-74380000D01*
X406890000Y-579387400D02*
X400490000Y-573550000D01*
X9227023Y-638060123D02*
X9520000Y-638353100D01*
X422190000Y-481032400D02*
X427170000Y-501470000D01*
X701350000Y-859081600D02*
X701200000Y-881170000D01*
X184680000Y-1234509600D02*
X175230000Y-1235100000D01*
X479000000Y-768626000D02*
X479030000Y-771420000D01*
X637690000Y-1278188700D02*
X631630000Y-1296810000D01*
X262370000Y-137839900D02*
X296050000Y-141280000D01*
X97250000Y-804976900D02*
X89230000Y-817220000D01*
X712680000Y-354215300D02*
X712680000Y-385260000D01*
X46630000Y-1412305700D02*
X33410000Y-1412330000D01*
X577420000Y-1192279600D02*
X565360000Y-1220490000D01*
X36380000Y-1464153600D02*
X13081672Y-1464151037D01*
X482900000Y-853696200D02*
X484670000Y-885450000D01*
X220290000Y-409728200D02*
X213600000Y-403970000D01*
X407680000Y-1068835300D02*
X399440000Y-1082610000D01*
X699300000Y-441951700D02*
X699300000Y-457630000D01*
X109080000Y-48654000D02*
X131170000Y-48800000D01*
X548730000Y-1380791200D02*
X528480000Y-1387490000D01*
X253000000Y-503916700D02*
X271980000Y-525600000D01*
X293830000Y-332211900D02*
X303730000Y-336280000D01*
X10940000Y-48539100D02*
X29090000Y-48540000D01*
X110320000Y-552105100D02*
X130760000Y-565000000D01*
X265100000Y-1226582700D02*
X260720000Y-1227520000D01*
X711300000Y-304411700D02*
X712100000Y-314520000D01*
X147450000Y-551029800D02*
X166420000Y-566640000D01*
X656940000Y-1033715600D02*
X654550000Y-1068070000D01*
X413100000Y-573439800D02*
X406890000Y-579390000D01*
X283720000Y-93059000D02*
X318070000Y-95450000D01*
X276910000Y-464228000D02*
X270020000Y-456400000D01*
X276540000Y-92831600D02*
X283720000Y-93060000D01*
X91060000Y-48654000D02*
X109080000Y-48650000D01*
X122820000Y-1335875600D02*
X117290000Y-1335990000D01*
X36380000Y-35846400D02*
X43680000Y-35860000D01*
X470790000Y-184776500D02*
X496100000Y-199740000D01*
X246580000Y-1067602000D02*
X254220000Y-1058170000D01*
X276860000Y-1325310900D02*
X240970000Y-1329730000D01*
X447880000Y-1387622200D02*
X434600000Y-1390880000D01*
X683960000Y-208692400D02*
X684460000Y-210310000D01*
X657170000Y-1026542600D02*
X656940000Y-1033720000D01*
X226590000Y-786536200D02*
X224740000Y-794580000D01*
X464550000Y-1056889800D02*
X456100000Y-1078020000D01*
X220900000Y-1088501300D02*
X221620000Y-1087320000D01*
X107010000Y-1029595300D02*
X89290000Y-1036280000D01*
X463870000Y-1264047400D02*
X447620000Y-1274650000D01*
X19501637Y-1412344241D02*
X6640000Y-1412360000D01*
X7975629Y-182782671D02*
X7980000Y-182778300D01*
X688770000Y-728198400D02*
X688770000Y-731770000D01*
X338300000Y-1292901100D02*
X324650000Y-1296270000D01*
X532260000Y-377787300D02*
X541490000Y-407020000D01*
X561900000Y-1099212900D02*
X554780000Y-1125380000D01*
X57780000Y-269484500D02*
X62360000Y-269380000D01*
X654550000Y-431926600D02*
X656940000Y-466290000D01*
X338490000Y-529108600D02*
X337320000Y-528410000D01*
X24790000Y-956132400D02*
X14690000Y-957090000D01*
X43680000Y-35857700D02*
X76400000Y-35860000D01*
X634150000Y-820486500D02*
X633980000Y-839720000D01*
X479000000Y-731375000D02*
X479000000Y-768630000D01*
X60160000Y-551976100D02*
X60620000Y-552180000D01*
X230890000Y-1175580800D02*
X208990000Y-1176320000D01*
X96510000Y-1232779100D02*
X62360000Y-1230620000D01*
X688710000Y-808286600D02*
X688710000Y-811800000D01*
X417760000Y-1044115700D02*
X413950000Y-1053330000D01*
X245830000Y-543152000D02*
X261540000Y-563640000D01*
X230880000Y-324432900D02*
X248540000Y-322840000D01*
X585980000Y-867289300D02*
X585870000Y-872810000D01*
X81810000Y-915436800D02*
X80020000Y-916210000D01*
X634350000Y-759455700D02*
X634320000Y-780550000D01*
X36540000Y-523414600D02*
X36510964Y-523414600D01*
X221620000Y-1087323300D02*
X246580000Y-1067600000D01*
X713860000Y-986351700D02*
X713680000Y-994080000D01*
X517210000Y-946816200D02*
X516670000Y-953150000D01*
X547870000Y-249544000D02*
X549370000Y-251860000D01*
X701200000Y-881171000D02*
X701200000Y-899020000D01*
X222540000Y-595483600D02*
X233070000Y-612070000D01*
X115430000Y-1269537900D02*
X84510000Y-1269190000D01*
X620040000Y-181945800D02*
X631550000Y-202910000D01*
X94190000Y-1425413200D02*
X65860000Y-1425520000D01*
X552540000Y-1133861400D02*
X545880000Y-1152820000D01*
X38800000Y-449785500D02*
X41570000Y-450330000D01*
X317650000Y-581104200D02*
X332300000Y-607090000D01*
X465400000Y-1230133500D02*
X463070000Y-1232360000D01*
X99980000Y-203577800D02*
X100150000Y-203580000D01*
X131170000Y-1451196000D02*
X109080000Y-1451350000D01*
X486620000Y-292579400D02*
X503260000Y-315660000D01*
X671060000Y-1041824700D02*
X669850000Y-1059290000D01*
X268920000Y-690767900D02*
X275740000Y-725260000D01*
X36530000Y-976570000D02*
X33284164Y-976570000D01*
X710160000Y-1236271400D02*
X710160000Y-1264420000D01*
X57920000Y-1369652300D02*
X25970116Y-1369757577D01*
X58030000Y-623561400D02*
X58150000Y-623630000D01*
X303380000Y-749409900D02*
X303380000Y-750590000D01*
X631630000Y-1296805200D02*
X620390000Y-1317450000D01*
X59230000Y-1018917500D02*
X24740000Y-1025740000D01*
X182200000Y-948757400D02*
X180580000Y-950410000D01*
X23910000Y-743735300D02*
X23970000Y-756330000D01*
X458490000Y-204030300D02*
X460260000Y-204780000D01*
X123780000Y-1464065300D02*
X116420000Y-1464120000D01*
X246390000Y-431387000D02*
X222230000Y-413080000D01*
X157920000Y-1334931800D02*
X122820000Y-1335880000D01*
X3250000Y-778968895D02*
X5621105Y-778968895D01*
X3250000Y-61260000D02*
X21770000Y-61260000D01*
X110300000Y-1383772700D02*
X89720000Y-1383990000D01*
X166600000Y-505995600D02*
X184500000Y-521630000D01*
X41150000Y-1398858300D02*
X38910000Y-1398870000D01*
X346820000Y-962875800D02*
X366050000Y-946620000D01*
X413070000Y-926573900D02*
X415270000Y-934940000D01*
X221250000Y-474497800D02*
X226080000Y-479390000D01*
X546450000Y-729884800D02*
X546450000Y-730090000D01*
X658650000Y-314200300D02*
X662700000Y-342890000D01*
X283710000Y-1406938900D02*
X276540000Y-1407170000D01*
X18330000Y-415736500D02*
X9901100Y-415736500D01*
X203410000Y-927632800D02*
X182200000Y-948760000D01*
X360090000Y-238855600D02*
X360490000Y-239030000D01*
X398440000Y-416554400D02*
X407510000Y-431170000D01*
X663600000Y-357071100D02*
X666260000Y-380880000D01*
X76550000Y-384054700D02*
X85840000Y-388020000D01*
X426310000Y-959001900D02*
X425570000Y-980880000D01*
X121580000Y-1398211400D02*
X118620000Y-1398260000D01*
X714120000Y-833722800D02*
X714120000Y-866420000D01*
X444410000Y-1407954500D02*
X435800000Y-1408650000D01*
X151680000Y-1037684800D02*
X123270000Y-1052360000D01*
X236680000Y-105260400D02*
X243940000Y-105750000D01*
X198000000Y-689853600D02*
X198070000Y-690100000D01*
X337070000Y-972255500D02*
X340690000Y-970130000D01*
X209000000Y-323698200D02*
X230880000Y-324430000D01*
X184500000Y-521633200D02*
X195410000Y-530210000D01*
X669850000Y-1059288500D02*
X668980000Y-1080660000D01*
X645560000Y-1153295100D02*
X640890000Y-1184610000D01*
X597130000Y-300500300D02*
X602880000Y-322190000D01*
X659080000Y-985418100D02*
X658850000Y-994790000D01*
X267240000Y-1283984600D02*
X254270000Y-1285980000D01*
X74210000Y-457824200D02*
X89280000Y-463700000D01*
X141630000Y-1438326700D02*
X138560000Y-1438330000D01*
X211600000Y-1380847000D02*
X189280000Y-1381900000D01*
X89280000Y-463702000D02*
X107020000Y-470390000D01*
X109970000Y-500665300D02*
X125210000Y-508100000D01*
X316160000Y-1463435000D02*
X284250000Y-1463440000D01*
X415270000Y-934937500D02*
X426310000Y-959000000D01*
X511940000Y-84527400D02*
X527550000Y-86680000D01*
X456100000Y-1078024100D02*
X442830000Y-1108190000D01*
X266470000Y-879818800D02*
X261160000Y-890510000D01*
X163850000Y-36017000D02*
X196400000Y-36020000D01*
X24946180Y-1424786180D02*
X25780000Y-1425620000D01*
X168910000Y-432330100D02*
X187670000Y-448230000D01*
X65860000Y-74477700D02*
X94190000Y-74590000D01*
X386390000Y-1172929200D02*
X363390000Y-1189700000D01*
X584930000Y-592076900D02*
X585870000Y-627190000D01*
X455370000Y-1297586100D02*
X428070000Y-1309820000D01*
X566440000Y-621483200D02*
X566680000Y-638210000D01*
X268970000Y-1172202000D02*
X248520000Y-1177190000D01*
X503420000Y-1295462700D02*
X501140000Y-1297400000D01*
X203430000Y-892236400D02*
X197980000Y-898710000D01*
X424870000Y-126062600D02*
X457400000Y-134040000D01*
X607430000Y-1055110200D02*
X603730000Y-1083210000D01*
X650810000Y-1112298100D02*
X646600000Y-1147860000D01*
X514420000Y-1460161700D02*
X486270000Y-1460160000D01*
X535510000Y-140217600D02*
X551770000Y-150900000D01*
X283960000Y-245127500D02*
X312010000Y-252870000D01*
X284820000Y-1435654600D02*
X260610000Y-1436400000D01*
X65760000Y-871484000D02*
X57850000Y-876100000D01*
X714150000Y-713617400D02*
X714150000Y-746350000D01*
X164280000Y-1268681800D02*
X155710000Y-1269090000D01*
X511430000Y-1109295700D02*
X511140000Y-1110090000D01*
X541880000Y-204876500D02*
X542510000Y-205410000D01*
X432350000Y-168881300D02*
X439040000Y-171120000D01*
X278840000Y-533924400D02*
X296140000Y-553380000D01*
X648920000Y-751086100D02*
X648860000Y-788910000D01*
X627520000Y-49133000D02*
X657050000Y-61550000D01*
X126390000Y-1411785800D02*
X113730000Y-1411880000D01*
X586690000Y-746801000D02*
X586690000Y-753200000D01*
X688580000Y-648253000D02*
X688580000Y-651610000D01*
X553990000Y-1317123200D02*
X532590000Y-1333380000D01*
X404840000Y-1269372200D02*
X392990000Y-1274110000D01*
X144130000Y-952027800D02*
X135100000Y-957770000D01*
X427170000Y-501468300D02*
X425570000Y-519120000D01*
X644250000Y-993937000D02*
X642450000Y-1025390000D01*
X618340000Y-1368163500D02*
X591830000Y-1389370000D01*
X675570000Y-695748400D02*
X675620000Y-724220000D01*
X601990000Y-601878800D02*
X602420000Y-617680000D01*
X426310000Y-541001300D02*
X415300000Y-565050000D01*
X162220000Y-1334784100D02*
X157920000Y-1334930000D01*
X14690000Y-542904600D02*
X14195127Y-542409727D01*
X3250000Y-74320000D02*
X14216700Y-74320000D01*
X69950000Y-603866200D02*
X94440000Y-618890000D01*
X569390000Y-1063483100D02*
X566180000Y-1078800000D01*
X665490000Y-238069500D02*
X670310000Y-258470000D01*
X398440000Y-416554400D02*
X407510000Y-431170000D01*
X318380000Y-504171600D02*
X308130000Y-495720000D01*
X197610000Y-103596800D02*
X202810000Y-103840000D01*
X58290000Y-61288700D02*
X61800000Y-61290000D01*
X570410000Y-1368577800D02*
X548730000Y-1380790000D01*
X482970000Y-287610000D02*
X486620000Y-292580000D01*
X639420000Y-436317800D02*
X641520000Y-464470000D01*
X685140000Y-1050505700D02*
X683570000Y-1089040000D01*
X657250000Y-1373542100D02*
X654900000Y-1377360000D01*
X648920000Y-748913900D02*
X648920000Y-751090000D01*
X483090000Y-533584500D02*
X484510000Y-565320000D01*
X357890000Y-307033400D02*
X360070000Y-308170000D01*
X619630000Y-1367135300D02*
X618340000Y-1368160000D01*
X302360000Y-562932200D02*
X317650000Y-581100000D01*
X688710000Y-691713300D02*
X688770000Y-728200000D01*
X705620000Y-158130100D02*
X705620000Y-181060000D01*
X341230000Y-532163500D02*
X338490000Y-529110000D01*
X207080000Y-735305400D02*
X207090000Y-764690000D01*
X126390000Y-88213900D02*
X154070000Y-88680000D01*
X360490000Y-239025700D02*
X391130000Y-253160000D01*
X106020000Y-74698800D02*
X134040000Y-74900000D01*
X266940000Y-569949200D02*
X269030000Y-573250000D01*
X187890000Y-377953300D02*
X176480000Y-349450000D01*
X408190000Y-183556200D02*
X428190000Y-190260000D01*
X480260000Y-329209900D02*
X482930000Y-333770000D01*
X44230000Y-1268742300D02*
X35840000Y-1268730000D01*
X46630000Y-87694000D02*
X73520000Y-87820000D01*
X453700000Y-1154901700D02*
X441080000Y-1170820000D01*
X184380000Y-841745600D02*
X171570000Y-862040000D01*
X53970000Y-809949200D02*
X27510000Y-824750000D01*
X546420000Y-849985100D02*
X546420000Y-850150000D01*
X57920000Y-130347300D02*
X62150000Y-130370000D01*
X342980000Y-1291498300D02*
X338300000Y-1292900000D01*
X413600000Y-352290000D02*
X413600000Y-364992107D01*
X137470000Y-1012942500D02*
X128090000Y-1017510000D01*
X181560000Y-206231200D02*
X216960000Y-209290000D01*
X209970000Y-881918600D02*
X203430000Y-892240000D01*
X223390000Y-1232219100D02*
X216410000Y-1233090000D01*
X674230000Y-563315900D02*
X674580000Y-576240000D01*
X29090000Y-1451460800D02*
X10940000Y-1451460000D01*
X488130000Y-1277007500D02*
X464550000Y-1292250000D01*
X651550000Y-1229906000D02*
X651470000Y-1230710000D01*
X287670000Y-598325700D02*
X302360000Y-626750000D01*
X252510000Y-761396400D02*
X250590000Y-779730000D01*
X284860000Y-64345400D02*
X299930000Y-64820000D01*
X475390000Y-1255522200D02*
X463870000Y-1264050000D01*
X302360000Y-626753300D02*
X303880000Y-629040000D01*
X586660000Y-786847800D02*
X586630000Y-793190000D01*
X546450000Y-770115100D02*
X546510000Y-809910000D01*
X312580000Y-1274728100D02*
X290630000Y-1279600000D01*
X646150000Y-547186700D02*
X646400000Y-552390000D01*
X208990000Y-1176320500D02*
X184950000Y-1165290000D01*
X266120000Y-193391500D02*
X297040000Y-198210000D01*
X333750000Y-890412100D02*
X332670000Y-892050000D01*
X135450000Y-1234669900D02*
X103700000Y-1232900000D01*
X176460000Y-1150504500D02*
X187770000Y-1122050000D01*
X303880000Y-629040000D02*
X304890000Y-631370000D01*
X692910000Y-1206152900D02*
X692910000Y-1214490000D01*
X713980000Y-586145600D02*
X714070000Y-593580000D01*
X651030000Y-389877800D02*
X654380000Y-427730000D01*
X689490000Y-251852900D02*
X692910000Y-285510000D01*
X308130000Y-495722500D02*
X295690000Y-480900000D01*
X305110000Y-1357425900D02*
X296050000Y-1358720000D01*
X60510000Y-947831400D02*
X60140000Y-948000000D01*
X154070000Y-88678100D02*
X166070000Y-88820000D01*
X443580000Y-392872700D02*
X455950000Y-421610000D01*
X698330000Y-1082956600D02*
X698330000Y-1097520000D01*
X364740000Y-1462677100D02*
X356000000Y-1463110000D01*
X369090000Y-1365964000D02*
X342550000Y-1369990000D01*
X617350000Y-130734900D02*
X617880000Y-131420000D01*
X158520000Y-911029300D02*
X132720000Y-933600000D01*
X184980000Y-737359700D02*
X184990000Y-762650000D01*
X176480000Y-349450000D02*
X170690000Y-343110000D01*
X496100000Y-199739600D02*
X500570000Y-202210000D01*
X586660000Y-713152200D02*
X586690000Y-746800000D01*
X408940000Y-1152444600D02*
X397080000Y-1164190000D01*
X216410000Y-266904100D02*
X223390000Y-267780000D01*
X236750000Y-667596600D02*
X238670000Y-673390000D01*
X460880000Y-135073600D02*
X493060000Y-146030000D01*
X620390000Y-1317445500D02*
X616070000Y-1324830000D01*
X512850000Y-155965900D02*
X523560000Y-160740000D01*
X321130000Y-343379500D02*
X333270000Y-350660000D01*
X413950000Y-1053334600D02*
X407680000Y-1068840000D01*
X710160000Y-1264423000D02*
X708430000Y-1277290000D01*
X194620000Y-1410423700D02*
X166070000Y-1411180000D01*
X391130000Y-253163500D02*
X414190000Y-265970000D01*
X202810000Y-1396156000D02*
X197610000Y-1396400000D01*
X365890000Y-553395300D02*
X341230000Y-532160000D01*
X276280000Y-36320600D02*
X284250000Y-36560000D01*
X369140000Y-134036000D02*
X379290000Y-135730000D01*
X9902801Y-862787199D02*
X10990000Y-861700000D01*
X603530000Y-737129000D02*
X603530000Y-762870000D01*
X12774451Y-979614076D02*
X12533693Y-979854834D01*
X425570000Y-980878600D02*
X427160000Y-998540000D01*
X615960000Y-961380500D02*
X615510000Y-969890000D01*
X4480000Y-587187700D02*
X7390596Y-587573151D01*
X163850000Y-1463982900D02*
X156420000Y-1464070000D01*
X493470000Y-1353794300D02*
X461030000Y-1364850000D01*
X519080000Y-594286400D02*
X519360000Y-625360000D01*
X415270000Y-934937500D02*
X426310000Y-959000000D01*
X25780000Y-1425621300D02*
X14260000Y-1425640000D01*
X110270000Y-603082900D02*
X128260000Y-618890000D01*
X59910000Y-203490100D02*
X60180000Y-203490000D01*
X184870000Y-880941600D02*
X162620000Y-906980000D01*
X503490000Y-1184147000D02*
X496390000Y-1194200000D01*
X89290000Y-1036278100D02*
X74200000Y-1042160000D01*
X677690000Y-174650500D02*
X683960000Y-208690000D01*
X219890000Y-1365510600D02*
X211390000Y-1365960000D01*
X7074749Y-1131252308D02*
X7606323Y-1130720734D01*
X187890000Y-377953300D02*
X176480000Y-349450000D01*
X360070000Y-308173300D02*
X362530000Y-309640000D01*
X494830000Y-124427900D02*
X504490000Y-126820000D01*
X248670000Y-861338700D02*
X241190000Y-876400000D01*
X115430000Y-230462400D02*
X124640000Y-230640000D01*
X685180000Y-1049933700D02*
X685140000Y-1050510000D01*
X582590000Y-1236390600D02*
X568780000Y-1261620000D01*
X183000000Y-778167600D02*
X178570000Y-798450000D01*
X348930000Y-1350819200D02*
X333210000Y-1353720000D01*
X427160000Y-998542000D02*
X422180000Y-1018960000D01*
X632440000Y-579336200D02*
X633060000Y-600080000D01*
X561900000Y-400791000D02*
X566170000Y-421190000D01*
X225400000Y-168881300D02*
X239460000Y-170110000D01*
X360530000Y-1260954700D02*
X360090000Y-1261140000D01*
X527560000Y-1413339700D02*
X511930000Y-1415490000D01*
X417010000Y-209765400D02*
X424160000Y-213420000D01*
X612590000Y-1008245300D02*
X612160000Y-1012370000D01*
X603420000Y-697165400D02*
X603510000Y-722840000D01*
X267240000Y-216010300D02*
X290640000Y-220390000D01*
X13437437Y-1336680052D02*
X3200000Y-1336690000D01*
X189280000Y-118096100D02*
X211600000Y-119150000D01*
X67290000Y-1353352100D02*
X52840000Y-1353420000D01*
X705790000Y-1318158900D02*
X705790000Y-1340740000D01*
X219160000Y-983744500D02*
X207230000Y-995720000D01*
X486300000Y-1207964700D02*
X465400000Y-1230130000D01*
X76980000Y-163521300D02*
X83100000Y-163580000D01*
X589330000Y-1154995800D02*
X581120000Y-1182380000D01*
X146280000Y-75102300D02*
X173760000Y-75420000D01*
X575310000Y-473143700D02*
X579720000Y-509030000D01*
X648670000Y-828826100D02*
X648650000Y-831300000D01*
X692910000Y-1214485900D02*
X689480000Y-1248150000D01*
X14690000Y-542904600D02*
X24800000Y-543850000D01*
X648650000Y-668702500D02*
X648670000Y-671170000D01*
X3250000Y-48565597D02*
X10913503Y-48565597D01*
X3250000Y-1438758095D02*
X28799469Y-1438758095D01*
X3250000Y-101072427D02*
X41081027Y-101072427D01*
X669840000Y-440709900D02*
X671060000Y-458180000D01*
X100150000Y-1296419400D02*
X99980000Y-1296420000D01*
X413460000Y-446020100D02*
X417590000Y-455930000D01*
X63480000Y-482489300D02*
X94230000Y-492660000D01*
X10990000Y-447643900D02*
X38800000Y-449790000D01*
X76400000Y-1464142200D02*
X43680000Y-1464140000D01*
X394270000Y-158423200D02*
X405000000Y-160670000D01*
X260720000Y-1227517600D02*
X259510000Y-1227760000D01*
X11973293Y-935666707D02*
X12650000Y-934990000D01*
X3250000Y-1451565684D02*
X10834316Y-1451565684D01*
X83100000Y-1336417900D02*
X76980000Y-1336480000D01*
X545490000Y-290332100D02*
X546480000Y-292290000D01*
X294960000Y-124897600D02*
X305030000Y-125650000D01*
X221620000Y-1087323300D02*
X246580000Y-1067600000D01*
X700950000Y-938909200D02*
X700570000Y-961580000D01*
X692910000Y-293846500D02*
X695300000Y-324170000D01*
X156420000Y-35934600D02*
X163850000Y-36020000D01*
X648860000Y-708850500D02*
X648860000Y-711090000D01*
X687910000Y-568577700D02*
X687910000Y-571170000D01*
X657160000Y-473455700D02*
X658850000Y-505210000D01*
X317930000Y-1157860000D02*
X303980000Y-1163470000D01*
X33284164Y-976570000D02*
X31864798Y-977989366D01*
X484670000Y-614548100D02*
X482900000Y-646300000D01*
X291820000Y-1421057200D02*
X268130000Y-1421810000D01*
X353080000Y-1137000900D02*
X333580000Y-1148140000D01*
X341560000Y-1433349300D02*
X339040000Y-1433570000D01*
X267510000Y-686565500D02*
X268590000Y-689340000D01*
X259750000Y-1436396100D02*
X221090000Y-1437290000D01*
X619770000Y-767825400D02*
X619770000Y-772200000D01*
X3250000Y-1317152037D02*
X10317722Y-1317152037D01*
X625420000Y-335140000D02*
X630470000Y-361410000D01*
X481540000Y-164990700D02*
X488900000Y-168690000D01*
X86560000Y-87866700D02*
X113730000Y-88120000D01*
X54250000Y-1425574900D02*
X25780000Y-1425620000D01*
X430860000Y-1181844400D02*
X418910000Y-1192830000D01*
X575310000Y-1026859800D02*
X574170000Y-1034180000D01*
X395780000Y-37322300D02*
X405100000Y-37900000D01*
X625100000Y-1044960200D02*
X624350000Y-1055030000D01*
X501660000Y-1230387700D02*
X475390000Y-1255520000D01*
X712100000Y-314519900D02*
X712100000Y-344900000D01*
X656940000Y-466286000D02*
X657160000Y-473460000D01*
X479030000Y-728580600D02*
X479000000Y-731370000D01*
X700570000Y-538415600D02*
X700950000Y-561090000D01*
X543890000Y-571244300D02*
X545700000Y-609580000D01*
X213590000Y-1030999100D02*
X196620000Y-1046230000D01*
X161030000Y-838716300D02*
X146850000Y-860360000D01*
X254220000Y-1058172800D02*
X270350000Y-1045170000D01*
X424930000Y-72412900D02*
X454320000Y-74790000D01*
X512310000Y-331121000D02*
X519370000Y-345160000D01*
X353070000Y-859184900D02*
X334860000Y-887920000D01*
X221090000Y-1437289000D02*
X219210000Y-1437290000D01*
X449360000Y-1206618500D02*
X423930000Y-1228080000D01*
X29740000Y-1000571700D02*
X13975187Y-1002228337D01*
X683570000Y-410960100D02*
X685130000Y-449490000D01*
X265130000Y-273417300D02*
X295250000Y-282050000D01*
X567220000Y-742016500D02*
X567220000Y-757980000D01*
X98390000Y-1438576500D02*
X61800000Y-1438710000D01*
X139780000Y-1295713400D02*
X110210000Y-1296270000D01*
X312010000Y-1247127200D02*
X283960000Y-1254870000D01*
X181560000Y-1293767400D02*
X178760000Y-1293890000D01*
X198070000Y-690103300D02*
X206130000Y-725210000D01*
X586630000Y-706806000D02*
X586660000Y-713150000D01*
X488900000Y-168689700D02*
X511970000Y-181430000D01*
X218060000Y-946814200D02*
X216070000Y-948790000D01*
X149920000Y-1383067500D02*
X130070000Y-1383430000D01*
X658590000Y-1439460800D02*
X653840000Y-1441290000D01*
X20252887Y-520921430D02*
X19613954Y-520282497D01*
X361970000Y-835844500D02*
X353070000Y-859180000D01*
X340690000Y-970127900D02*
X346820000Y-962880000D01*
X258550000Y-940514900D02*
X233920000Y-970170000D01*
X25970116Y-1369757577D02*
X22200000Y-1369770000D01*
X646400000Y-947607100D02*
X646160000Y-952810000D01*
X654550000Y-1068071200D02*
X654380000Y-1072280000D01*
X383280000Y-1105902200D02*
X365240000Y-1126800000D01*
X515280000Y-1342755400D02*
X493470000Y-1353790000D01*
X610190000Y-1284765800D02*
X598200000Y-1303120000D01*
X272670000Y-973690900D02*
X258750000Y-990380000D01*
X569380000Y-436520700D02*
X574160000Y-465810000D01*
X179270000Y-132546800D02*
X180950000Y-132600000D01*
X407510000Y-431174900D02*
X413460000Y-446020000D01*
X148120000Y-1351997400D02*
X132320000Y-1352420000D01*
X32030000Y-182807500D02*
X48010000Y-182780000D01*
X535090000Y-322922600D02*
X540240000Y-333170000D01*
X103880000Y-792569000D02*
X97250000Y-804980000D01*
X132720000Y-933602800D02*
X109560000Y-948460000D01*
X713980000Y-913854300D02*
X713980000Y-946400000D01*
X11289699Y-87642980D02*
X33410000Y-87670000D01*
X654110000Y-1307206300D02*
X653740000Y-1309210000D01*
X28799469Y-1438758095D02*
X28800075Y-1438758701D01*
X129580000Y-702325000D02*
X136650000Y-725090000D01*
X662700000Y-342894100D02*
X663600000Y-357070000D01*
X667530000Y-143024900D02*
X672390000Y-162060000D01*
X604100000Y-1242833500D02*
X593580000Y-1263940000D01*
X82400000Y-986751500D02*
X76610000Y-988670000D01*
X125620000Y-809026500D02*
X109850000Y-833400000D01*
X89590000Y-431049300D02*
X118600000Y-445060000D01*
X480620000Y-812361000D02*
X482780000Y-846510000D01*
X53070000Y-689098800D02*
X56750000Y-691820000D01*
X574160000Y-465811500D02*
X575310000Y-473140000D01*
X136650000Y-725093400D02*
X138050000Y-735690000D01*
X309290000Y-1419843600D02*
X291820000Y-1421060000D01*
X387670000Y-1215273000D02*
X377400000Y-1221460000D01*
X7980000Y-182778300D02*
X32030000Y-182810000D01*
X296050000Y-1358716800D02*
X262370000Y-1362160000D01*
X116420000Y-35884700D02*
X123780000Y-35930000D01*
X650810000Y-387747700D02*
X651020000Y-389630000D01*
X196820000Y-1267213500D02*
X164280000Y-1268680000D01*
X197810000Y-810613800D02*
X184380000Y-841750000D01*
X454320000Y-1425204700D02*
X424930000Y-1427580000D01*
X89230000Y-817220900D02*
X73000000Y-834470000D01*
X662360000Y-743365100D02*
X662360000Y-756630000D01*
X424160000Y-213423100D02*
X447470000Y-225300000D01*
X131080000Y-878319100D02*
X124320000Y-884740000D01*
X154680000Y-972369200D02*
X138550000Y-982630000D01*
X339040000Y-1433572300D02*
X300510000Y-1435140000D01*
X648860000Y-711089600D02*
X648920000Y-748910000D01*
X8986165Y-35800000D02*
X9033157Y-35846992D01*
X518720000Y-785837200D02*
X518740000Y-794230000D01*
X178760000Y-1293894000D02*
X140420000Y-1295710000D01*
X425570000Y-980878600D02*
X427160000Y-998540000D01*
X270020000Y-456398300D02*
X261210000Y-449370000D01*
X701430000Y-680899700D02*
X701430000Y-699020000D01*
X187770000Y-1122046700D02*
X196610000Y-1115900000D01*
X584780000Y-912215500D02*
X583030000Y-949040000D01*
X485100000Y-925235600D02*
X484510000Y-934680000D01*
X25060000Y-613373100D02*
X57690000Y-623450000D01*
X92680000Y-146898100D02*
X107570000Y-147090000D01*
X88140000Y-182953900D02*
X111790000Y-183320000D01*
X578900000Y-1189015400D02*
X577420000Y-1192280000D01*
X52840000Y-1353418300D02*
X27160000Y-1353520000D01*
X42920000Y-646222700D02*
X55770000Y-653120000D01*
X257180000Y-844720400D02*
X248670000Y-861340000D01*
X447470000Y-225300300D02*
X474730000Y-243720000D01*
X228540000Y-189115600D02*
X253340000Y-191820000D01*
X482780000Y-653490900D02*
X480630000Y-687640000D01*
X178830000Y-62085000D02*
X181420000Y-62090000D01*
X510950000Y-389473600D02*
X511140000Y-389920000D01*
X302360000Y-761042700D02*
X300220000Y-788800000D01*
X687290000Y-530785200D02*
X687910000Y-568580000D01*
X107460000Y-781406200D02*
X103880000Y-792570000D01*
X268970000Y-327807100D02*
X293830000Y-332210000D01*
X109190000Y-396920000D02*
X133830000Y-412800000D01*
X632590000Y-1120713000D02*
X630480000Y-1138600000D01*
X124640000Y-1269363300D02*
X115430000Y-1269540000D01*
X467950000Y-1045247900D02*
X464550000Y-1056890000D01*
X207230000Y-995724900D02*
X181350000Y-1015540000D01*
X3898710Y-415736176D02*
X3250000Y-415087466D01*
X540710000Y-966956900D02*
X540070000Y-973720000D01*
X59880000Y-551897800D02*
X60160000Y-551980000D01*
X689480000Y-1252546800D02*
X685650000Y-1281030000D01*
X617400000Y-930951300D02*
X615960000Y-961380000D01*
X19903365Y-203541365D02*
X19910000Y-203548000D01*
X667190000Y-1100839100D02*
X666260000Y-1119130000D01*
X559880000Y-1177929700D02*
X545660000Y-1209240000D01*
X633770000Y-860297000D02*
X633430000Y-880070000D01*
X302830000Y-199155000D02*
X324680000Y-203730000D01*
X654380000Y-1072275200D02*
X651040000Y-1110120000D01*
X539690000Y-1434468400D02*
X531070000Y-1435650000D01*
X556600000Y-483887700D02*
X558170000Y-496650000D01*
X672390000Y-162059600D02*
X677690000Y-174650000D01*
X700540000Y-122427300D02*
X700540000Y-137980000D01*
X78770000Y-737957500D02*
X78880000Y-760730000D01*
X554780000Y-1125377100D02*
X552540000Y-1133860000D01*
X305040000Y-868482400D02*
X303140000Y-872780000D01*
X241190000Y-876398200D02*
X231560000Y-890050000D01*
X602910000Y-1177789900D02*
X597150000Y-1199510000D01*
X714070000Y-593584900D02*
X714070000Y-626220000D01*
X231560000Y-890051100D02*
X222380000Y-904540000D01*
X426310000Y-541001300D02*
X415060000Y-565970000D01*
X85580000Y-858452500D02*
X65760000Y-871480000D01*
X519370000Y-345158400D02*
X524110000Y-357010000D01*
X407110000Y-1412696100D02*
X392930000Y-1413600000D01*
X337070000Y-972255500D02*
X340690000Y-970130000D01*
X258240000Y-1362593600D02*
X220440000Y-1365470000D01*
X230880000Y-324432900D02*
X248540000Y-322840000D01*
X163350000Y-749783100D02*
X163350000Y-750220000D01*
X421142010Y-1137918009D02*
X426828622Y-1132231397D01*
X318940000Y-839580100D02*
X305040000Y-868480000D01*
X713110000Y-425532700D02*
X713430000Y-433840000D01*
X286280000Y-660710100D02*
X292160000Y-675800000D01*
X542600000Y-1294214000D02*
X513440000Y-1317700000D01*
X581210000Y-260939900D02*
X584610000Y-267660000D01*
X397080000Y-1164189500D02*
X386390000Y-1172930000D01*
X565700000Y-598745200D02*
X566440000Y-621480000D01*
X162620000Y-906976800D02*
X160860000Y-908980000D01*
X69100000Y-1451426700D02*
X50980000Y-1451430000D01*
X48510000Y-997431300D02*
X29740000Y-1000570000D01*
X491530000Y-79700100D02*
X511940000Y-84530000D01*
X713860000Y-546045900D02*
X713980000Y-553600000D01*
X228300000Y-1380148000D02*
X211600000Y-1380850000D01*
X179170000Y-578896300D02*
X198960000Y-602380000D01*
X482930000Y-333772600D02*
X496760000Y-358660000D01*
X328970000Y-694684800D02*
X333910000Y-728100000D01*
X383280000Y-1105902200D02*
X365240000Y-1126800000D01*
X62360000Y-269378200D02*
X96510000Y-267220000D01*
X602420000Y-617682600D02*
X602910000Y-642430000D01*
X552530000Y-366141700D02*
X554780000Y-374620000D01*
X3250000Y-270992320D02*
X21398580Y-270992320D01*
X476580000Y-1015112400D02*
X467950000Y-1045250000D01*
X296050000Y-141279300D02*
X305110000Y-142570000D01*
X683350000Y-1091558900D02*
X681500000Y-1127880000D01*
X663330000Y-1277553700D02*
X654110000Y-1307210000D01*
X110210000Y-1296273300D02*
X100150000Y-1296420000D01*
X652070000Y-186653000D02*
X653480000Y-190000000D01*
X608640000Y-1333481700D02*
X598450000Y-1346830000D01*
X713980000Y-553604400D02*
X713980000Y-586150000D01*
X363390000Y-1189698300D02*
X360160000Y-1191680000D01*
X712680000Y-1114742800D02*
X712680000Y-1145790000D01*
X382980000Y-69069200D02*
X416350000Y-71200000D01*
X111840000Y-757787900D02*
X107460000Y-781410000D01*
X356010000Y-36890400D02*
X364740000Y-37320000D01*
X432000000Y-319295400D02*
X443130000Y-331520000D01*
X14850000Y-1026500000D02*
X13889545Y-1027460455D01*
X713110000Y-1106005200D02*
X712680000Y-1114740000D01*
X196610000Y-1115901600D02*
X217810000Y-1091280000D01*
X362530000Y-309639600D02*
X388010000Y-328850000D01*
X677590000Y-1174924300D02*
X675210000Y-1204320000D01*
X21800000Y-61231900D02*
X58290000Y-61290000D01*
X566680000Y-638210400D02*
X567040000Y-661860000D01*
X134040000Y-1425102700D02*
X106020000Y-1425300000D01*
X213330000Y-76221100D02*
X227280000Y-76760000D01*
X641520000Y-464467900D02*
X642450000Y-474610000D01*
X646160000Y-952812000D02*
X644740000Y-986680000D01*
X434280000Y-246562400D02*
X443530000Y-253120000D01*
X60180000Y-203491600D02*
X99980000Y-203580000D01*
X337320000Y-528408000D02*
X318380000Y-504170000D01*
X376410000Y-712478800D02*
X381080000Y-744810000D01*
X308050000Y-50694100D02*
X332960000Y-51670000D01*
X585300000Y-1357294400D02*
X577170000Y-1364510000D01*
X361460000Y-1130154900D02*
X353080000Y-1137000000D01*
X54295033Y-1398006677D02*
X55078271Y-1398789915D01*
X360120000Y-1401031800D02*
X322270000Y-1404380000D01*
X317930000Y-1157860000D02*
X303980000Y-1163470000D01*
X295250000Y-1217942500D02*
X265100000Y-1226580000D01*
X212100000Y-916754800D02*
X203410000Y-927630000D01*
X176570000Y-1163089400D02*
X170630000Y-1156890000D01*
X350840000Y-1417190500D02*
X330660000Y-1418980000D01*
X3250000Y-862787199D02*
X9902801Y-862787199D01*
X187890000Y-377953300D02*
X176480000Y-349450000D01*
X455950000Y-421611800D02*
X464430000Y-442810000D01*
X456150000Y-1442906500D02*
X425830000Y-1445290000D01*
X478130000Y-246217300D02*
X480370000Y-248340000D01*
X342550000Y-1369993800D02*
X337660000Y-1370460000D01*
X277250000Y-243696600D02*
X283960000Y-245130000D01*
X699310000Y-1042367600D02*
X699310000Y-1058050000D01*
X647540000Y-591766800D02*
X648210000Y-628420000D01*
X109560000Y-948460600D02*
X103390000Y-952570000D01*
X149500000Y-947423200D02*
X144130000Y-952030000D01*
X61460000Y-801936700D02*
X58000000Y-806900000D01*
X710160000Y-235576800D02*
X710160000Y-263730000D01*
X400490000Y-573552000D02*
X372050000Y-562240000D01*
X132320000Y-1352422100D02*
X107570000Y-1352910000D01*
X712680000Y-385256900D02*
X713110000Y-394000000D01*
X258750000Y-990379600D02*
X249200000Y-1000260000D01*
X713440000Y-1066164400D02*
X713110000Y-1074470000D01*
X286670000Y-157614300D02*
X316160000Y-161810000D01*
X504500000Y-1373195500D02*
X494820000Y-1375590000D01*
X373730000Y-52967000D02*
X386800000Y-52970000D01*
X554780000Y-374619400D02*
X561900000Y-400790000D01*
X176560000Y-545615900D02*
X198080000Y-567380000D01*
X546510000Y-809907100D02*
X546510000Y-810180000D01*
X588320000Y-224866600D02*
X593000000Y-235250000D01*
X103040000Y-705358500D02*
X107030000Y-717190000D01*
X589790000Y-109502100D02*
X616730000Y-130260000D01*
X227290000Y-1423236800D02*
X213330000Y-1423780000D01*
X144670000Y-265449600D02*
X175240000Y-264900000D01*
X471320000Y-1314987500D02*
X442810000Y-1327160000D01*
X400490000Y-573552000D02*
X372050000Y-562240000D01*
X571230000Y-355403400D02*
X580180000Y-389210000D01*
X414860000Y-1375418000D02*
X388590000Y-1380470000D01*
X641520000Y-1035529800D02*
X639430000Y-1063680000D01*
X275390000Y-107547900D02*
X285530000Y-108480000D01*
X180660000Y-483750500D02*
X209120000Y-505680000D01*
X560920000Y-96838000D02*
X565380000Y-98710000D01*
X3250000Y-1398006677D02*
X54295033Y-1398006677D01*
X3250000Y-1003109754D02*
X13093770Y-1003109754D01*
X394600000Y-1321227400D02*
X360790000Y-1330180000D01*
X475050000Y-1461302200D02*
X445590000Y-1461300000D01*
X294060000Y-1167599900D02*
X268970000Y-1172200000D01*
X552230000Y-181280200D02*
X567350000Y-196280000D01*
X361460000Y-1130154900D02*
X353080000Y-1137000000D01*
X203950000Y-1463857800D02*
X196400000Y-1463980000D01*
X651120000Y-116254200D02*
X657410000Y-126020000D01*
X519210000Y-825583700D02*
X519190000Y-834510000D01*
X514060000Y-286126000D02*
X524900000Y-302750000D01*
X658850000Y-994786500D02*
X657170000Y-1026540000D01*
X697030000Y-1123728400D02*
X697030000Y-1136800000D01*
X134580000Y-625530200D02*
X148220000Y-641390000D01*
X356580000Y-1331118700D02*
X323710000Y-1337190000D01*
X10317722Y-1317152037D02*
X10382877Y-1317217192D01*
X28200000Y-567048600D02*
X49290000Y-571660000D01*
X497120000Y-437994700D02*
X504860000Y-466030000D01*
X635510000Y-398538600D02*
X637750000Y-422280000D01*
X511970000Y-181432900D02*
X541880000Y-204880000D01*
X161900000Y-875450400D02*
X144620000Y-895170000D01*
X535990000Y-1004271700D02*
X533990000Y-1017240000D01*
X186680000Y-1424236700D02*
X173760000Y-1424580000D01*
X599210000Y-539470300D02*
X600350000Y-560910000D01*
X414750000Y-54703600D02*
X425830000Y-54700000D01*
X130070000Y-1383429800D02*
X110300000Y-1383770000D01*
X700540000Y-137975200D02*
X705620000Y-158130000D01*
X318380000Y-504171600D02*
X308130000Y-495720000D01*
X591560000Y-355720000D02*
X597380000Y-380410000D01*
X597720000Y-519366400D02*
X599210000Y-539470000D01*
X75300000Y-722690900D02*
X78770000Y-737960000D01*
X527410000Y-262438500D02*
X544200000Y-288350000D01*
X7390596Y-587573151D02*
X38100000Y-591640000D01*
X22200000Y-1369769900D02*
X17820000Y-1369780000D01*
X137110000Y-773085300D02*
X128900000Y-800240000D01*
X126790000Y-806831200D02*
X125620000Y-809030000D01*
X673780000Y-963331200D02*
X673240000Y-977290000D01*
X525410000Y-1338182400D02*
X515280000Y-1342760000D01*
X70490000Y-115848800D02*
X89720000Y-116010000D01*
X375380000Y-195220200D02*
X383860000Y-197460000D01*
X262950000Y-612523800D02*
X267510000Y-621900000D01*
X151260000Y-184296400D02*
X169350000Y-184970000D01*
X198020000Y-810154000D02*
X197810000Y-810610000D01*
X130070000Y-116569800D02*
X149920000Y-116930000D01*
X701200000Y-899023300D02*
X700950000Y-921340000D01*
X714140000Y-706320400D02*
X714150000Y-713620000D01*
X328800000Y-183819100D02*
X349210000Y-188100000D01*
X223720000Y-1290069300D02*
X216960000Y-1290710000D01*
X299670000Y-791568300D02*
X292180000Y-824210000D01*
X97240000Y-879385000D02*
X92190000Y-882710000D01*
X700950000Y-578659000D02*
X701200000Y-600980000D01*
X3250000Y-182782671D02*
X7975629Y-182782671D01*
X198960000Y-602377600D02*
X202390000Y-606400000D01*
X226080000Y-479392700D02*
X245380000Y-496920000D01*
X413460000Y-446020100D02*
X417590000Y-455930000D01*
X292370000Y-50694100D02*
X308050000Y-50690000D01*
X259800000Y-939116900D02*
X258550000Y-940510000D01*
X29090000Y-48539100D02*
X50980000Y-48570000D01*
X662700000Y-1157108700D02*
X658660000Y-1185800000D01*
X129000000Y-482978400D02*
X137380000Y-487070000D01*
X630480000Y-1138598800D02*
X625430000Y-1164850000D01*
X415300000Y-565047200D02*
X413100000Y-573440000D01*
X592380000Y-1036664900D02*
X588190000Y-1066160000D01*
X341560000Y-66648400D02*
X377880000Y-68500000D01*
X89720000Y-116013900D02*
X110300000Y-116230000D01*
X454240000Y-345493300D02*
X465890000Y-363340000D01*
X120970000Y-1053892300D02*
X118620000Y-1054910000D01*
X586690000Y-753199000D02*
X586660000Y-786850000D01*
X254220000Y-1058172800D02*
X270350000Y-1045170000D01*
X59910000Y-1296509600D02*
X20120000Y-1296450000D01*
X156420000Y-1464065300D02*
X123780000Y-1464070000D01*
X144620000Y-895165100D02*
X121620000Y-915280000D01*
X662300000Y-703369900D02*
X662330000Y-716590000D01*
X614920000Y-1210898100D02*
X604100000Y-1242830000D01*
X697030000Y-363201600D02*
X697030000Y-376270000D01*
X62150000Y-130368400D02*
X98140000Y-130680000D01*
X366050000Y-946617700D02*
X372050000Y-937780000D01*
X207210000Y-613984100D02*
X222040000Y-636450000D01*
X578860000Y-310990800D02*
X581120000Y-317740000D01*
X220900000Y-1088501300D02*
X221620000Y-1087320000D01*
X188910000Y-1450948800D02*
X171340000Y-1450950000D01*
X293830000Y-332211900D02*
X303730000Y-336280000D01*
X567040000Y-838139900D02*
X566680000Y-861790000D01*
X685190000Y-1416425300D02*
X669880000Y-1428120000D01*
X416350000Y-71204400D02*
X424930000Y-72410000D01*
X365240000Y-1126800500D02*
X361460000Y-1130150000D01*
X593580000Y-1263943300D02*
X589520000Y-1273080000D01*
X640880000Y-315396300D02*
X645550000Y-346700000D01*
X646590000Y-352143600D02*
X650810000Y-387750000D01*
X558170000Y-496652700D02*
X560880000Y-521460000D01*
X403300000Y-104446100D02*
X434610000Y-109110000D01*
X35840000Y-1268725700D02*
X14126210Y-1268585111D01*
X303730000Y-336284200D02*
X321130000Y-343380000D01*
X618650000Y-611442800D02*
X619280000Y-648030000D01*
X73520000Y-87816600D02*
X86560000Y-87870000D01*
X362290000Y-99190700D02*
X397860000Y-103400000D01*
X661320000Y-904074000D02*
X661180000Y-916070000D01*
X328390000Y-1205960200D02*
X307180000Y-1214440000D01*
X397860000Y-1396592200D02*
X362250000Y-1400810000D01*
X403300000Y-1395545500D02*
X397860000Y-1396590000D01*
X550840000Y-447170500D02*
X551780000Y-452960000D01*
X407510000Y-431174900D02*
X413460000Y-446020000D01*
X484670000Y-885453500D02*
X484550000Y-894670000D01*
X22522713Y-978666329D02*
X18190152Y-978666329D01*
X422190000Y-481032400D02*
X427170000Y-501470000D01*
X49910000Y-1122046700D02*
X42030000Y-1125540000D01*
X678800000Y-1166352900D02*
X677590000Y-1174920000D01*
X566440000Y-878516200D02*
X565700000Y-901260000D01*
X686400000Y-1009754500D02*
X686400000Y-1010610000D01*
X74200000Y-1042162700D02*
X41580000Y-1049660000D01*
X63430000Y-1017510700D02*
X60660000Y-1018590000D01*
X567080000Y-821991300D02*
X567040000Y-838140000D01*
X246390000Y-431387000D02*
X222230000Y-413080000D01*
X113730000Y-1411875400D02*
X86560000Y-1412130000D01*
X241820000Y-624659200D02*
X248930000Y-639260000D01*
X279050000Y-858013000D02*
X266470000Y-879820000D01*
X370710000Y-117407900D02*
X388600000Y-119530000D01*
X60620000Y-552183200D02*
X91310000Y-565380000D01*
X195410000Y-530209100D02*
X202290000Y-537170000D01*
X196820000Y-232785300D02*
X203150000Y-233330000D01*
X454320000Y-74793800D02*
X467710000Y-77210000D01*
X442830000Y-1108188300D02*
X441840000Y-1110090000D01*
X183090000Y-916747500D02*
X170970000Y-929280000D01*
X482210000Y-526612500D02*
X483090000Y-533580000D01*
X162980000Y-753097800D02*
X158700000Y-786420000D01*
X480720000Y-285252500D02*
X482970000Y-287610000D01*
X615290000Y-290070000D02*
X615960000Y-292630000D01*
X5313989Y-721288889D02*
X7970000Y-723944900D01*
X366050000Y-946617700D02*
X372050000Y-937780000D01*
X546450000Y-730087600D02*
X546450000Y-769910000D01*
X581120000Y-1106613800D02*
X580440000Y-1109860000D01*
X498150000Y-60521400D02*
X502540000Y-60520000D01*
X602420000Y-882318100D02*
X602000000Y-898120000D01*
X43200000Y-1336633100D02*
X36850000Y-1336660000D01*
X158420000Y-712588500D02*
X162970000Y-746920000D01*
X319900000Y-994250600D02*
X337070000Y-972260000D01*
X672790000Y-1217707300D02*
X670310000Y-1241530000D01*
X342980000Y-208495700D02*
X372210000Y-217740000D01*
X591780000Y-44373900D02*
X609940000Y-49130000D01*
X346820000Y-962875800D02*
X366050000Y-946620000D01*
X603350000Y-817286800D02*
X603100000Y-842680000D01*
X432260000Y-1331118700D02*
X404990000Y-1339320000D01*
X612160000Y-1012366600D02*
X608720000Y-1046050000D01*
X316160000Y-161813300D02*
X323710000Y-162810000D01*
X623200000Y-245496600D02*
X625600000Y-255190000D01*
X48010000Y-182784100D02*
X71990000Y-182920000D01*
X3250000Y-1353762280D02*
X17647289Y-1353762280D01*
X527730000Y-112206400D02*
X547990000Y-118870000D01*
X608340000Y-1416880800D02*
X588850000Y-1421930000D01*
X602910000Y-857566600D02*
X602420000Y-882320000D01*
X357580000Y-1193161400D02*
X328390000Y-1205960000D01*
X714070000Y-873779200D02*
X714070000Y-906420000D01*
X276540000Y-1407166300D02*
X244790000Y-1408850000D01*
X30800000Y-642236500D02*
X42920000Y-646220000D01*
X413070000Y-926573900D02*
X415270000Y-934940000D01*
X585980000Y-632710300D02*
X586420000Y-666900000D01*
X44580000Y-525260000D02*
X36540000Y-523414600D01*
X130550000Y-845287700D02*
X126800000Y-851010000D01*
X316160000Y-36564700D02*
X324470000Y-36890000D01*
X675620000Y-724222700D02*
X675640000Y-735740000D01*
X654380000Y-427726800D02*
X654550000Y-431930000D01*
X642450000Y-1025393600D02*
X641520000Y-1035530000D01*
X484510000Y-934677300D02*
X483090000Y-966410000D01*
X565380000Y-98708200D02*
X589790000Y-109500000D01*
X88670000Y-588967700D02*
X110270000Y-603080000D01*
X236760000Y-832503100D02*
X232550000Y-840710000D01*
X164280000Y-231318000D02*
X196820000Y-232790000D01*
X714140000Y-793679600D02*
X714140000Y-826400000D01*
X546480000Y-292291300D02*
X559820000Y-321930000D01*
X688770000Y-768226200D02*
X688770000Y-771800000D01*
X617400000Y-569049900D02*
X617450000Y-570730000D01*
X563850000Y-559781600D02*
X565030000Y-580650000D01*
X252500000Y-738606600D02*
X252510000Y-761400000D01*
X190220000Y-1313850700D02*
X169350000Y-1315030000D01*
X86560000Y-1412133100D02*
X73520000Y-1412180000D01*
X235420000Y-90921700D02*
X244790000Y-91150000D01*
X459840000Y-1195743900D02*
X449360000Y-1206620000D01*
X342550000Y-130001100D02*
X369140000Y-134040000D01*
X477510000Y-489285500D02*
X477750000Y-490490000D01*
X3250000Y-473171446D02*
X14528046Y-473171446D01*
X477740000Y-1174229400D02*
X459840000Y-1195740000D01*
X647430000Y-912054600D02*
X646400000Y-947610000D01*
X312580000Y-225265000D02*
X325960000Y-228570000D01*
X633370000Y-279685800D02*
X637630000Y-302120000D01*
X316170000Y-1338181400D02*
X286660000Y-1342380000D01*
X171640000Y-148810500D02*
X189090000Y-149640000D01*
X688330000Y-888562900D02*
X688330000Y-891630000D01*
X518520000Y-745929200D02*
X518520000Y-754070000D01*
X589520000Y-1273081800D02*
X584890000Y-1280160000D01*
X3613127Y-447643900D02*
X3250000Y-447280773D01*
X138850000Y-1085029700D02*
X133820000Y-1087200000D01*
X349210000Y-188097000D02*
X375380000Y-195220000D01*
X695300000Y-324170900D02*
X695300000Y-335250000D01*
X519220000Y-674417200D02*
X518740000Y-705770000D01*
X180150000Y-483290100D02*
X180660000Y-483750000D01*
X37420000Y-908439200D02*
X8613643Y-912255453D01*
X57780000Y-1230516200D02*
X21420000Y-1229030000D01*
X277630000Y-968504100D02*
X272670000Y-973690000D01*
X151680000Y-462275300D02*
X179270000Y-482720000D01*
X216960000Y-209288600D02*
X223710000Y-209930000D01*
X4070000Y-231482400D02*
X35840000Y-231270000D01*
X395780000Y-1462677100D02*
X364740000Y-1462680000D01*
X405760000Y-1203329100D02*
X387670000Y-1215270000D01*
X633430000Y-880066500D02*
X633070000Y-899920000D01*
X530920000Y-64345400D02*
X539680000Y-65550000D01*
X41150000Y-101141400D02*
X78830000Y-101330000D01*
X700890000Y-1360143300D02*
X700890000Y-1376850000D01*
X582920000Y-951171000D02*
X581120000Y-975370000D01*
X414990000Y-1356730500D02*
X381540000Y-1363730000D01*
X327720000Y-1387748500D02*
X313680000Y-1389420000D01*
X133820000Y-1087201300D02*
X109180000Y-1103070000D01*
X84340000Y-676866400D02*
X96150000Y-693510000D01*
X20120000Y-203548200D02*
X59910000Y-203490000D01*
X588180000Y-433832800D02*
X592380000Y-463340000D01*
X9900776Y-415736176D02*
X3898710Y-415736176D01*
X207090000Y-764688500D02*
X206140000Y-774790000D01*
X633370000Y-1220316200D02*
X625590000Y-1244820000D01*
X376420000Y-787513600D02*
X375550000Y-792040000D01*
X276860000Y-174685100D02*
X284180000Y-175830000D01*
X686390000Y-490244600D02*
X687290000Y-528910000D01*
X567870000Y-236796000D02*
X581210000Y-260940000D01*
X540070000Y-973716000D02*
X535990000Y-1004270000D01*
X598780000Y-197977300D02*
X609860000Y-214690000D01*
X146850000Y-860357100D02*
X131080000Y-878320000D01*
X364740000Y-37322300D02*
X395780000Y-37320000D01*
X683350000Y-408439700D02*
X683570000Y-410960000D01*
X569230000Y-130655600D02*
X575340000Y-134280000D01*
X372050000Y-562244100D02*
X365890000Y-553400000D01*
X633060000Y-600080800D02*
X633430000Y-619930000D01*
X103390000Y-952565500D02*
X97150000Y-955440000D01*
X209000000Y-323698200D02*
X230880000Y-324430000D01*
X713680000Y-473723300D02*
X713680000Y-505920000D01*
X12643624Y-115655727D02*
X30560000Y-115680000D01*
X178830000Y-1437914600D02*
X141630000Y-1438330000D01*
X388600000Y-119525600D02*
X414850000Y-124570000D01*
X333580000Y-1148141300D02*
X317930000Y-1157860000D01*
X42040000Y-374454000D02*
X49940000Y-377950000D01*
X568180000Y-1337851200D02*
X563750000Y-1341780000D01*
X634350000Y-740544300D02*
X634350000Y-759460000D01*
X545450000Y-246688000D02*
X547870000Y-249540000D01*
X550840000Y-1052833100D02*
X546270000Y-1074670000D01*
X94440000Y-618886600D02*
X100700000Y-622980000D01*
X479910000Y-1401548700D02*
X444410000Y-1407950000D01*
X176570000Y-1163089400D02*
X176570000Y-1163090000D01*
X252700000Y-1422627900D02*
X227290000Y-1423240000D01*
X485950000Y-1095619100D02*
X476620000Y-1117740000D01*
X251920000Y-1450037700D02*
X228720000Y-1450570000D01*
X713430000Y-465747700D02*
X713680000Y-473720000D01*
X603350000Y-682713100D02*
X603420000Y-697170000D01*
X3650000Y-35846400D02*
X9033157Y-35846992D01*
X623200000Y-1254500800D02*
X617240000Y-1268930000D01*
X14195127Y-542409727D02*
X3250000Y-542409727D01*
X113730000Y-88124300D02*
X126390000Y-88210000D01*
X260720000Y-272477500D02*
X265130000Y-273420000D01*
X422180000Y-1018963500D02*
X417760000Y-1044120000D01*
X14650277Y-1384342068D02*
X9450000Y-1384350000D01*
X293910000Y-1019977600D02*
X304350000Y-1007260000D01*
X173760000Y-75419200D02*
X186680000Y-75760000D01*
X139780000Y-204286200D02*
X140420000Y-204290000D01*
X441830000Y-389938700D02*
X442830000Y-391570000D01*
X9450000Y-115651400D02*
X12643624Y-115655727D01*
X20935630Y-1228544230D02*
X21420000Y-1229028600D01*
X89580000Y-1068939200D02*
X66680000Y-1075640000D01*
X245380000Y-496920500D02*
X253000000Y-503920000D01*
X524430000Y-1142175700D02*
X519540000Y-1154420000D01*
X270020000Y-456398300D02*
X261210000Y-449370000D01*
X660420000Y-944617100D02*
X660230000Y-955550000D01*
X651020000Y-1110373200D02*
X650810000Y-1112300000D01*
X313480000Y-1319381900D02*
X284190000Y-1324170000D01*
X9033157Y-163314456D02*
X36850000Y-163340000D01*
X330660000Y-81020700D02*
X350840000Y-82810000D01*
X114040000Y-971772000D02*
X90440000Y-982670000D01*
X529610000Y-1040635200D02*
X524730000Y-1062580000D01*
X59900000Y-948067400D02*
X24790000Y-956130000D01*
X121620000Y-915282000D02*
X121040000Y-915800000D01*
X111790000Y-183318000D02*
X128510000Y-183560000D01*
X666260000Y-1119125400D02*
X663610000Y-1142930000D01*
X365940000Y-826549900D02*
X361970000Y-835840000D01*
X303980000Y-1163465500D02*
X294060000Y-1167600000D01*
X197980000Y-898709400D02*
X183090000Y-916750000D01*
X562420000Y-539120300D02*
X563850000Y-559780000D01*
X630840000Y-538393600D02*
X631900000Y-560720000D01*
X597150000Y-1199513400D02*
X586790000Y-1226550000D01*
X21420000Y-270970900D02*
X57780000Y-269480000D01*
X503710000Y-1228216800D02*
X501660000Y-1230390000D01*
X176460000Y-1150504500D02*
X187770000Y-1122050000D01*
X687290000Y-971091400D02*
X686400000Y-1009750000D01*
X76550000Y-1115937700D02*
X49910000Y-1122050000D01*
X518740000Y-794227900D02*
X519210000Y-825580000D01*
X3250000Y-130230000D02*
X17813300Y-130230000D01*
X462360000Y-206024600D02*
X489810000Y-224360000D01*
X324470000Y-1463109100D02*
X316160000Y-1463440000D01*
X514420000Y-39840500D02*
X527300000Y-41580000D01*
X181420000Y-1437914600D02*
X178830000Y-1437910000D01*
X628470000Y-497000500D02*
X630140000Y-521700000D01*
X434600000Y-1390878800D02*
X403300000Y-1395550000D01*
X56750000Y-691820700D02*
X60290000Y-696760000D01*
X426310000Y-959001900D02*
X425570000Y-980880000D01*
X381080000Y-744814200D02*
X381080000Y-755190000D01*
X10834316Y-1451565684D02*
X10940000Y-1451460000D01*
X518730000Y-714163500D02*
X518520000Y-745930000D01*
X544490000Y-1292621500D02*
X542600000Y-1294210000D01*
X123310000Y-447643900D02*
X151680000Y-462280000D01*
X306830000Y-285456100D02*
X328280000Y-294050000D01*
X3250000Y-1464373272D02*
X12859437Y-1464373272D01*
X365890000Y-553395300D02*
X341230000Y-532160000D01*
X648260000Y-631380800D02*
X648650000Y-668700000D01*
X241160000Y-920389000D02*
X221360000Y-942680000D01*
X372210000Y-1282258000D02*
X342980000Y-1291500000D01*
X544430000Y-1211632400D02*
X525700000Y-1239700000D01*
X170660000Y-1382439600D02*
X149920000Y-1383070000D01*
X285530000Y-1391518400D02*
X275390000Y-1392450000D01*
X187110000Y-1052356100D02*
X168920000Y-1067680000D01*
X333580000Y-1148141300D02*
X317930000Y-1157860000D01*
X13975187Y-1002228337D02*
X11390000Y-1002500000D01*
X163350000Y-750217000D02*
X162980000Y-753100000D01*
X229870000Y-748392200D02*
X229870000Y-751610000D01*
X222040000Y-636451100D02*
X232670000Y-659550000D01*
X601180000Y-578363600D02*
X601990000Y-601880000D01*
X536740000Y-1359146300D02*
X520510000Y-1366470000D01*
X424930000Y-1427583600D02*
X416350000Y-1428790000D01*
X603730000Y-1083208100D02*
X600830000Y-1098930000D01*
X303380000Y-750590200D02*
X302360000Y-761040000D01*
X168920000Y-1067684700D02*
X142890000Y-1082340000D01*
X285460000Y-904730600D02*
X261040000Y-937230000D01*
X151260000Y-1315702900D02*
X128510000Y-1316440000D01*
X230630000Y-1347720600D02*
X210530000Y-1349210000D01*
X107570000Y-147086400D02*
X132320000Y-147580000D01*
X313680000Y-110572300D02*
X327720000Y-112250000D01*
X144980000Y-605219700D02*
X166220000Y-629580000D01*
X300510000Y-64862700D02*
X339040000Y-66430000D01*
X428070000Y-1309817200D02*
X408820000Y-1316250000D01*
X202290000Y-537169000D02*
X222400000Y-556960000D01*
X583030000Y-949041600D02*
X582920000Y-951170000D01*
X332960000Y-51671300D02*
X347520000Y-51670000D01*
X421080000Y-1138086900D02*
X421142010Y-1138086900D01*
X205550000Y-89763600D02*
X235420000Y-90920000D01*
X181420000Y-62085000D02*
X219210000Y-62710000D01*
X17813300Y-130230000D02*
X17820000Y-130223300D01*
X523560000Y-160742700D02*
X531670000Y-166070000D01*
X285530000Y-108478600D02*
X313680000Y-110570000D01*
X417760000Y-1044115700D02*
X413950000Y-1053330000D01*
X511930000Y-1415488300D02*
X491530000Y-1420300000D01*
X582950000Y-216757000D02*
X588320000Y-224870000D01*
X125470000Y-588106300D02*
X144980000Y-605220000D01*
X3277770Y-1336928064D02*
X13189425Y-1336928064D01*
X18330000Y-415736500D02*
X21900000Y-416090000D01*
X66680000Y-424351200D02*
X89590000Y-431050000D01*
X422620000Y-239750800D02*
X434280000Y-246560000D01*
X661870000Y-863728100D02*
X661780000Y-876390000D01*
X615470000Y-529561100D02*
X615510000Y-530110000D01*
X620000000Y-1092553500D02*
X615960000Y-1119140000D01*
X228720000Y-1450573400D02*
X211580000Y-1450570000D01*
X325640000Y-816681100D02*
X318940000Y-839580000D01*
X575340000Y-134283200D02*
X583000000Y-140910000D01*
X673780000Y-536669600D02*
X674230000Y-563320000D01*
X135450000Y-265332000D02*
X144670000Y-265450000D01*
X290640000Y-220391800D02*
X312580000Y-225270000D01*
X23199676Y-977989366D02*
X22522713Y-978666329D01*
X675410000Y-844186500D02*
X675300000Y-856020000D01*
X138560000Y-131351300D02*
X141610000Y-131410000D01*
X3250000Y-146519945D02*
X16431953Y-146519945D01*
X303980000Y-1163465500D02*
X294060000Y-1167600000D01*
X584780000Y-587785600D02*
X584930000Y-592080000D01*
X170690000Y-343108000D02*
X176590000Y-336950000D01*
X268440000Y-1450037700D02*
X251920000Y-1450040000D01*
X221360000Y-942680700D02*
X218060000Y-946810000D01*
X203290000Y-647980400D02*
X205450000Y-652670000D01*
X391760000Y-1246521100D02*
X360530000Y-1260950000D01*
X543890000Y-928757700D02*
X543770000Y-931570000D01*
X76400000Y-35857700D02*
X83720000Y-35880000D01*
X184670000Y-658781600D02*
X197850000Y-689520000D01*
X176590000Y-336951800D02*
X176590000Y-336950000D01*
X617880000Y-131419600D02*
X640320000Y-159770000D01*
X284250000Y-36564700D02*
X316160000Y-36560000D01*
X94220000Y-1007322700D02*
X63430000Y-1017510000D01*
X708430000Y-1303456800D02*
X705790000Y-1318160000D01*
X586480000Y-826978500D02*
X586420000Y-833100000D01*
X695300000Y-1164753200D02*
X695300000Y-1175830000D01*
X575650000Y-1427557300D02*
X541370000Y-1433940000D01*
X58290000Y-1438711100D02*
X28800075Y-1438758701D01*
X376955656Y-385086344D02*
X377140000Y-385190000D01*
X499070000Y-1298740300D02*
X471320000Y-1314990000D01*
X19285123Y-1412560755D02*
X19501637Y-1412344241D01*
X434880000Y-1252922100D02*
X418980000Y-1262240000D01*
X50980000Y-48573200D02*
X69100000Y-48570000D01*
X545880000Y-1152822400D02*
X540390000Y-1166580000D01*
X577170000Y-1364509700D02*
X570410000Y-1368580000D01*
X125210000Y-508102300D02*
X139470000Y-517970000D01*
X600830000Y-1098930700D02*
X597390000Y-1119590000D01*
X564710000Y-1401549000D02*
X561270000Y-1403020000D01*
X533980000Y-482757600D02*
X535980000Y-495730000D01*
X3250000Y-638060123D02*
X9227023Y-638060123D01*
X580440000Y-1109859400D02*
X580190000Y-1110790000D01*
X134040000Y-74897100D02*
X146280000Y-75100000D01*
X540240000Y-333171400D02*
X546270000Y-348250000D01*
X435800000Y-1408651200D02*
X407110000Y-1412700000D01*
X681500000Y-372124100D02*
X683350000Y-408440000D01*
X615960000Y-1119145000D02*
X614270000Y-1129290000D01*
X75580000Y-230784300D02*
X84510000Y-230810000D01*
X524900000Y-302745700D02*
X535090000Y-322920000D01*
X292370000Y-1449305100D02*
X268440000Y-1450040000D01*
X199040000Y-1333030100D02*
X162220000Y-1334780000D01*
X442830000Y-391571200D02*
X443580000Y-392870000D01*
X207450000Y-843106200D02*
X203240000Y-852240000D01*
X197850000Y-689517900D02*
X198000000Y-689850000D01*
X149920000Y-116931900D02*
X170660000Y-117560000D01*
X268630000Y-810682100D02*
X267540000Y-813450000D01*
X540700000Y-533046200D02*
X543760000Y-568430000D01*
X479910000Y-98454800D02*
X480710000Y-98540000D01*
X427170000Y-501468300D02*
X425570000Y-519120000D01*
X60180000Y-1296508100D02*
X59910000Y-1296510000D01*
X633430000Y-619933000D02*
X633770000Y-639700000D01*
X284180000Y-175825600D02*
X313480000Y-180610000D01*
X692910000Y-285514800D02*
X692910000Y-293850000D01*
X417590000Y-455934800D02*
X422190000Y-481030000D01*
X20120000Y-1296451200D02*
X19910000Y-1296450000D01*
X268590000Y-689337400D02*
X268920000Y-690770000D01*
X180950000Y-132595300D02*
X211420000Y-134040000D01*
X630470000Y-361405400D02*
X632580000Y-379280000D01*
X305030000Y-125646200D02*
X337650000Y-129540000D01*
X404660000Y-230569200D02*
X422620000Y-239750000D01*
X300210000Y-711205400D02*
X302360000Y-739000000D01*
X261540000Y-563644000D02*
X266940000Y-569950000D01*
X70490000Y-1384150800D02*
X49540000Y-1384260000D01*
X683570000Y-1089041200D02*
X683350000Y-1091560000D01*
X404990000Y-1339318500D02*
X394280000Y-1341560000D01*
X268970000Y-327807100D02*
X293830000Y-332210000D01*
X21770000Y-61260000D02*
X21800000Y-61230000D01*
X627120000Y-1404990500D02*
X608340000Y-1416880000D01*
X251270000Y-1261428000D02*
X241070000Y-1263000000D01*
X633980000Y-839719500D02*
X633770000Y-860300000D01*
X222310000Y-1024451700D02*
X213590000Y-1031000000D01*
X445590000Y-38697900D02*
X475050000Y-38700000D01*
X712100000Y-1155102900D02*
X712100000Y-1185480000D01*
X383860000Y-197464600D02*
X403890000Y-204540000D01*
X19613954Y-520282497D02*
X3098881Y-520282497D01*
X146120000Y-1006935700D02*
X137470000Y-1012940000D01*
X98140000Y-1369322400D02*
X62150000Y-1369630000D01*
X129550000Y-652953500D02*
X132530000Y-657510000D01*
X647540000Y-908234000D02*
X647430000Y-912050000D01*
X458080000Y-1236058400D02*
X434880000Y-1252920000D01*
X416830000Y-1290244900D02*
X401750000Y-1296270000D01*
X276910000Y-464228000D02*
X270020000Y-456400000D01*
X543170000Y-206200200D02*
X567870000Y-236800000D01*
X266910000Y-1377676000D02*
X253000000Y-1378470000D01*
X660230000Y-955552700D02*
X659080000Y-985420000D01*
X201170000Y-167082100D02*
X225400000Y-168880000D01*
X337320000Y-528408000D02*
X318380000Y-504170000D01*
X631900000Y-560722000D02*
X632440000Y-579340000D01*
X91310000Y-565378800D02*
X111940000Y-578390000D01*
X222400000Y-556962200D02*
X235040000Y-573000000D01*
X426310000Y-959001900D02*
X425570000Y-980880000D01*
X684460000Y-1289690100D02*
X683970000Y-1291270000D01*
X407110000Y-87299200D02*
X435800000Y-91340000D01*
X351460000Y-114486800D02*
X370710000Y-117410000D01*
X613730000Y-368455800D02*
X614270000Y-370710000D01*
X222230000Y-413077400D02*
X220290000Y-409730000D01*
X71220000Y-532726600D02*
X93010000Y-542470000D01*
X260610000Y-63602900D02*
X284860000Y-64350000D01*
X176460000Y-1150504500D02*
X187770000Y-1122050000D01*
X226570000Y-713473200D02*
X229870000Y-748390000D01*
X415300000Y-565047200D02*
X413100000Y-573440000D01*
X425570000Y-519120700D02*
X426310000Y-541000000D01*
X665980000Y-64624100D02*
X677840000Y-79920000D01*
X603510000Y-777164900D02*
X603420000Y-802830000D01*
X38790000Y-1050206700D02*
X10950000Y-1052360000D01*
X161350000Y-591934600D02*
X184180000Y-618030000D01*
X439010000Y-1328861300D02*
X432260000Y-1331120000D01*
X427810000Y-1352875200D02*
X414990000Y-1356730000D01*
X372050000Y-937777700D02*
X400530000Y-926470000D01*
X162050000Y-1397427000D02*
X158230000Y-1397540000D01*
X239110000Y-1263262600D02*
X203150000Y-1266670000D01*
X82420000Y-513215000D02*
X90910000Y-517540000D01*
X657960000Y-1194413700D02*
X651550000Y-1229910000D01*
X688640000Y-1406471000D02*
X688640000Y-1412070000D01*
X223390000Y-267779500D02*
X259500000Y-272240000D01*
X3250000Y-1412560755D02*
X19285123Y-1412560755D01*
X305110000Y-142569200D02*
X333210000Y-146270000D01*
X670310000Y-1241531600D02*
X665480000Y-1261930000D01*
X272920000Y-156210400D02*
X286670000Y-157610000D01*
X44590000Y-974716600D02*
X36530000Y-976570000D01*
X483470000Y-99190700D02*
X515760000Y-107190000D01*
X670310000Y-258468200D02*
X672790000Y-282290000D01*
X593000000Y-235253500D02*
X603830000Y-256620000D01*
X300220000Y-788800400D02*
X299670000Y-791570000D01*
X616940000Y-230427100D02*
X623200000Y-245500000D01*
X89720000Y-1383985800D02*
X70490000Y-1384150000D01*
X615960000Y-292627000D02*
X623930000Y-325130000D01*
X321130000Y-343379500D02*
X333270000Y-350660000D01*
X85840000Y-388020600D02*
X109190000Y-396920000D01*
X618590000Y-608394800D02*
X618650000Y-611440000D01*
X504860000Y-466031800D02*
X506290000Y-472760000D01*
X196620000Y-1046231300D02*
X187110000Y-1052360000D01*
X587540000Y-181450200D02*
X592070000Y-186640000D01*
X3250000Y-889195702D02*
X13184298Y-889195702D01*
X26310000Y-674939400D02*
X53070000Y-689100000D01*
X394600000Y-178761300D02*
X408190000Y-183560000D01*
X253340000Y-1308175600D02*
X228540000Y-1310880000D01*
X413460000Y-446020100D02*
X417590000Y-455930000D01*
X220440000Y-1365470100D02*
X219890000Y-1365510000D01*
X284190000Y-1324169300D02*
X276860000Y-1325310000D01*
X587190000Y-426293400D02*
X588180000Y-433830000D01*
X540060000Y-526280300D02*
X540700000Y-533050000D01*
X443530000Y-253118400D02*
X458180000Y-263890000D01*
X11161719Y-87515000D02*
X11289699Y-87642980D01*
X674580000Y-576236700D02*
X674900000Y-603720000D01*
X12097273Y-564446273D02*
X12650000Y-564999000D01*
X333210000Y-1353723200D02*
X305110000Y-1357430000D01*
X602880000Y-322192100D02*
X606730000Y-335010000D01*
X337650000Y-129538800D02*
X342550000Y-130000000D01*
X356610000Y-168881300D02*
X359860000Y-169560000D01*
X128260000Y-618892400D02*
X134580000Y-625530000D01*
X482900000Y-646301100D02*
X482780000Y-653490000D01*
X510800000Y-1171607400D02*
X503490000Y-1184150000D01*
X398440000Y-416554400D02*
X407510000Y-431170000D01*
X700040000Y-498080100D02*
X700570000Y-521280000D01*
X3200000Y-163309100D02*
X9033157Y-163314456D01*
X662060000Y-61546500D02*
X665980000Y-64620000D01*
X708430000Y-1277293200D02*
X708430000Y-1303460000D01*
X108520000Y-664532100D02*
X122040000Y-685200000D01*
X547990000Y-118870100D02*
X569230000Y-130660000D01*
X542900000Y-411702600D02*
X546270000Y-425360000D01*
X506280000Y-1224710400D02*
X503710000Y-1228220000D01*
X660230000Y-544448300D02*
X660420000Y-555380000D01*
X658660000Y-1185796800D02*
X657960000Y-1194410000D01*
X92680000Y-1353101500D02*
X67290000Y-1353350000D01*
X700040000Y-1001919400D02*
X700040000Y-1018440000D01*
X459930000Y-134708600D02*
X460880000Y-135070000D01*
X518520000Y-754070800D02*
X518720000Y-785840000D01*
X332960000Y-1448327400D02*
X308050000Y-1449310000D01*
X3250000Y-1296376540D02*
X19836540Y-1296376540D01*
X434610000Y-109113800D02*
X447870000Y-112370000D01*
X296140000Y-553376600D02*
X302360000Y-562930000D01*
X653880000Y-192132300D02*
X663340000Y-222440000D01*
X9898204Y-1053411796D02*
X10950000Y-1052360000D01*
X18630000Y-270999600D02*
X21420000Y-270970000D01*
X66680000Y-1075635400D02*
X55320000Y-1078970000D01*
X516670000Y-953147500D02*
X513260000Y-989110000D01*
X435480000Y-1462098200D02*
X405100000Y-1462100000D01*
X359300000Y-238572000D02*
X360090000Y-238860000D01*
X630140000Y-521702200D02*
X630840000Y-538390000D01*
X634320000Y-780554600D02*
X634250000Y-799540000D01*
X103700000Y-267102000D02*
X135450000Y-265330000D01*
X713980000Y-946395700D02*
X713860000Y-953950000D01*
X162050000Y-102572400D02*
X197610000Y-103600000D01*
X418040000Y-1231868100D02*
X391760000Y-1246520000D01*
X188910000Y-49051000D02*
X211580000Y-49430000D01*
X361950000Y-664147300D02*
X365930000Y-673460000D01*
X3250000Y-587175553D02*
X6992998Y-587175553D01*
X178760000Y-206104800D02*
X181560000Y-206230000D01*
X413100000Y-573439800D02*
X406890000Y-579390000D01*
X308130000Y-495722500D02*
X295690000Y-480900000D01*
X162220000Y-165215100D02*
X199040000Y-166970000D01*
X201170000Y-1332916500D02*
X199040000Y-1333030000D01*
X619650000Y-692075500D02*
X619770000Y-727800000D01*
X678130000Y-1323262500D02*
X672620000Y-1336810000D01*
X254270000Y-214012100D02*
X267240000Y-216010000D01*
X400490000Y-573552000D02*
X372050000Y-562240000D01*
X515760000Y-107194600D02*
X527730000Y-112210000D01*
X510970000Y-1110490000D02*
X496950000Y-1140890000D01*
X480630000Y-687636400D02*
X480520000Y-692220000D01*
X678790000Y-333648900D02*
X680930000Y-367020000D01*
X132070000Y-540145000D02*
X141770000Y-546260000D01*
X111940000Y-578389800D02*
X120120000Y-583550000D01*
X248520000Y-1177187300D02*
X230890000Y-1175580000D01*
X293830000Y-332211900D02*
X303730000Y-336280000D01*
X153800000Y-527000600D02*
X166910000Y-538030000D01*
X58150000Y-623629200D02*
X83300000Y-640080000D01*
X405100000Y-1462098200D02*
X395780000Y-1462680000D01*
X687290000Y-969214200D02*
X687290000Y-971090000D01*
X685130000Y-449493200D02*
X685170000Y-450070000D01*
X198080000Y-567375100D02*
X200770000Y-569960000D01*
X178800000Y-1017510700D02*
X151680000Y-1037680000D01*
X546270000Y-1074670600D02*
X542900000Y-1088300000D01*
X332030000Y-1240872400D02*
X312010000Y-1247130000D01*
X221090000Y-62710400D02*
X259750000Y-63600000D01*
X546510000Y-690093200D02*
X546450000Y-729880000D01*
X3250000Y-1085440235D02*
X17139765Y-1085440235D01*
X546450000Y-769912600D02*
X546450000Y-770120000D01*
X714070000Y-626220700D02*
X714120000Y-633580000D01*
X700950000Y-921340800D02*
X700950000Y-938910000D01*
X3250000Y-1053411796D02*
X9898204Y-1053411796D01*
X489810000Y-224362700D02*
X505390000Y-237870000D01*
X13093770Y-1003109754D02*
X13975187Y-1002228337D01*
X648210000Y-871576400D02*
X647540000Y-908230000D01*
X386800000Y-1447031300D02*
X373730000Y-1447030000D01*
X60140000Y-947998700D02*
X59900000Y-948070000D01*
X270020000Y-456398300D02*
X261210000Y-449370000D01*
X518680000Y-914276700D02*
X517210000Y-946820000D01*
X286760000Y-1026515300D02*
X293910000Y-1019980000D01*
X420490000Y-269651200D02*
X424930000Y-272790000D01*
X619280000Y-851974400D02*
X618650000Y-888560000D01*
X123270000Y-1052356100D02*
X120970000Y-1053890000D01*
X662180000Y-823523700D02*
X662130000Y-836560000D01*
X98180000Y-653503200D02*
X108520000Y-664530000D01*
X333910000Y-728095800D02*
X334260000Y-731670000D01*
X360120000Y-98963500D02*
X360370000Y-98980000D01*
X55890000Y-846543400D02*
X44530000Y-853170000D01*
X586420000Y-666902000D02*
X586480000Y-673020000D01*
X484550000Y-605325400D02*
X484670000Y-614550000D01*
X222380000Y-904544600D02*
X212100000Y-916750000D01*
X302830000Y-1300840500D02*
X297040000Y-1301790000D01*
X680930000Y-1132976700D02*
X678800000Y-1166350000D01*
X533990000Y-1017237500D02*
X529610000Y-1040640000D01*
X305030000Y-1374350200D02*
X294960000Y-1375100000D01*
X559020000Y-1403434300D02*
X527560000Y-1413340000D01*
X672620000Y-1336806000D02*
X668030000Y-1355210000D01*
X421080000Y-1138086900D02*
X408940000Y-1152440000D01*
X422180000Y-1018963500D02*
X417760000Y-1044120000D01*
X268970000Y-1172202000D02*
X248520000Y-1177190000D01*
X221620000Y-1087323300D02*
X246580000Y-1067600000D01*
X3250000Y-564446273D02*
X12097273Y-564446273D01*
X44230000Y-231257400D02*
X75580000Y-230780000D01*
X648260000Y-868619600D02*
X648210000Y-871580000D01*
X470310000Y-116635100D02*
X494830000Y-124430000D01*
X140420000Y-1295707700D02*
X139780000Y-1295710000D01*
X98140000Y-130677300D02*
X101980000Y-130720000D01*
X165440000Y-831739500D02*
X161030000Y-838720000D01*
X688330000Y-608368800D02*
X688330000Y-611440000D01*
X477750000Y-490489900D02*
X482210000Y-526610000D01*
X609860000Y-214688600D02*
X616940000Y-230430000D01*
X597390000Y-1119593900D02*
X591580000Y-1144270000D01*
X312010000Y-252867000D02*
X332020000Y-259110000D01*
X532590000Y-1333383600D02*
X525410000Y-1338180000D01*
X166430000Y-629830700D02*
X166580000Y-630060000D01*
X253000000Y-121527800D02*
X266910000Y-122320000D01*
X333270000Y-350662500D02*
X342330000Y-355560000D01*
X184920000Y-334762700D02*
X209000000Y-323700000D01*
X291830000Y-78941000D02*
X309290000Y-80150000D01*
X588190000Y-1066163300D02*
X587190000Y-1073710000D01*
X299930000Y-1435175500D02*
X284820000Y-1435650000D01*
X672630000Y-497302400D02*
X673240000Y-522710000D01*
X625100000Y-455037100D02*
X627670000Y-483090000D01*
X551770000Y-150903700D02*
X562510000Y-157280000D01*
X49940000Y-377953300D02*
X76550000Y-384050000D01*
X619770000Y-727801200D02*
X619770000Y-732170000D01*
X228720000Y-49426200D02*
X251920000Y-49960000D01*
X531070000Y-1435654600D02*
X502550000Y-1439490000D01*
X480500000Y-1170320700D02*
X477740000Y-1174230000D01*
X346820000Y-962875800D02*
X366050000Y-946620000D01*
X91060000Y-1451345900D02*
X69100000Y-1451430000D01*
X644240000Y-506061300D02*
X644740000Y-513320000D01*
X219890000Y-134487600D02*
X220440000Y-134530000D01*
X202390000Y-606397800D02*
X207210000Y-613980000D01*
X228540000Y-1310881900D02*
X210880000Y-1312420000D01*
X239460000Y-170107500D02*
X240970000Y-170270000D01*
X295690000Y-480902500D02*
X276910000Y-464230000D01*
X403890000Y-204536200D02*
X417010000Y-209770000D01*
X211580000Y-49426200D02*
X228720000Y-49430000D01*
X658850000Y-505214800D02*
X659070000Y-514580000D01*
X399440000Y-1082614100D02*
X393850000Y-1093000000D01*
X689490000Y-247452700D02*
X689490000Y-251850000D01*
X303730000Y-336284200D02*
X321130000Y-343380000D01*
X216410000Y-1233094800D02*
X184680000Y-1234510000D01*
X97150000Y-955444800D02*
X71200000Y-967240000D01*
X248540000Y-322838000D02*
X268970000Y-327810000D01*
X714070000Y-906415200D02*
X713980000Y-913850000D01*
X383020000Y-281819600D02*
X405080000Y-296450000D01*
X714150000Y-746354800D02*
X714150000Y-753650000D01*
X17820000Y-130223300D02*
X22200000Y-130230000D01*
X13546910Y-958233090D02*
X14690000Y-957090000D01*
X661780000Y-623613300D02*
X661870000Y-636270000D01*
X646600000Y-1147860000D02*
X645560000Y-1153300000D01*
X600360000Y-939089600D02*
X599210000Y-960530000D01*
X470310000Y-1383358700D02*
X447880000Y-1387620000D01*
X83720000Y-35884700D02*
X116420000Y-35880000D01*
X435480000Y-37901200D02*
X445590000Y-38700000D01*
X673240000Y-977285200D02*
X672630000Y-1002700000D01*
X485090000Y-574763800D02*
X484550000Y-605330000D01*
X640990000Y-1338930200D02*
X620670000Y-1365780000D01*
X76980000Y-1336478300D02*
X43200000Y-1336630000D01*
X239030000Y-536212200D02*
X245830000Y-543150000D01*
X377400000Y-1221455900D02*
X367040000Y-1226840000D01*
X353080000Y-1137000900D02*
X333580000Y-1148140000D01*
X250590000Y-779732300D02*
X247460000Y-798520000D01*
X142890000Y-417661200D02*
X168910000Y-432330000D01*
X372050000Y-700099300D02*
X375540000Y-707970000D01*
X657050000Y-61546500D02*
X662060000Y-61550000D01*
X463070000Y-1232364500D02*
X458080000Y-1236060000D01*
X511140000Y-1110085600D02*
X510970000Y-1110490000D01*
X37510000Y-373577500D02*
X42040000Y-374450000D01*
X713860000Y-513648500D02*
X713860000Y-546050000D01*
X566250000Y-341184200D02*
X571230000Y-355400000D01*
X587050000Y-77385300D02*
X606220000Y-82400000D01*
X504870000Y-1033962000D02*
X497130000Y-1062010000D01*
X109080000Y-1451345900D02*
X91060000Y-1451350000D01*
X196640000Y-384040400D02*
X187890000Y-377950000D01*
X628520000Y-1450296500D02*
X612970000Y-1450300000D01*
X546510000Y-689824200D02*
X546510000Y-690090000D01*
X62360000Y-1230622700D02*
X57780000Y-1230520000D01*
X597380000Y-380410600D02*
X600820000Y-401060000D01*
X196610000Y-1115901600D02*
X217810000Y-1091280000D01*
X637850000Y-222236200D02*
X642820000Y-234230000D01*
X581120000Y-317742500D02*
X589320000Y-345010000D01*
X545710000Y-610226400D02*
X546270000Y-639930000D01*
X58000000Y-806901400D02*
X53970000Y-809950000D01*
X328280000Y-294055000D02*
X357890000Y-307030000D01*
X275390000Y-1392449700D02*
X243940000Y-1394240000D01*
X596330000Y-998904100D02*
X593790000Y-1022920000D01*
X196610000Y-1115901600D02*
X217810000Y-1091280000D01*
X542900000Y-1088301300D02*
X541500000Y-1092980000D01*
X392930000Y-86392000D02*
X407110000Y-87300000D01*
X248520000Y-1177187300D02*
X230890000Y-1175580000D01*
X496390000Y-1194204700D02*
X486300000Y-1207960000D01*
X689480000Y-1248147600D02*
X689480000Y-1252550000D01*
X189280000Y-1381903000D02*
X170660000Y-1382440000D01*
X632580000Y-379282600D02*
X635510000Y-398540000D01*
X633070000Y-899919900D02*
X632440000Y-920660000D01*
X480710000Y-1401465200D02*
X479910000Y-1401550000D01*
X701460000Y-760935700D02*
X701460000Y-779090000D01*
X580180000Y-389208500D02*
X580430000Y-390150000D01*
X701430000Y-800983100D02*
X701430000Y-819100000D01*
X294960000Y-1375098800D02*
X266910000Y-1377680000D01*
X342330000Y-355563300D02*
X355960000Y-366860000D01*
X546270000Y-639929100D02*
X546420000Y-649850000D01*
X220290000Y-409728200D02*
X213600000Y-403970000D01*
X75040000Y-581641400D02*
X81360000Y-584360000D01*
X13950000Y-611899700D02*
X25060000Y-613370000D01*
X334270000Y-768328300D02*
X333920000Y-771900000D01*
X196030000Y-453604700D02*
X208720000Y-465000000D01*
X313480000Y-180613100D02*
X328800000Y-183820000D01*
X239460000Y-1329889700D02*
X225370000Y-1331120000D01*
X584610000Y-267658800D02*
X586320000Y-272650000D01*
X189090000Y-149641300D02*
X210530000Y-150780000D01*
X700950000Y-561091000D02*
X700950000Y-578660000D01*
X397860000Y-103401600D02*
X403300000Y-104450000D01*
X34017794Y-520921430D02*
X20252887Y-520921430D01*
X235420000Y-1409076900D02*
X205550000Y-1410240000D01*
X637630000Y-302124600D02*
X640880000Y-315400000D01*
X688710000Y-811796800D02*
X688580000Y-848390000D01*
X208720000Y-464999200D02*
X221250000Y-474500000D01*
X251290000Y-238572000D02*
X277250000Y-243700000D01*
X675100000Y-884035900D02*
X674900000Y-896280000D01*
X81300000Y-1398649200D02*
X78830000Y-1398670000D01*
X248540000Y-322838000D02*
X268970000Y-327810000D01*
X671810000Y-481865800D02*
X672630000Y-497300000D01*
X99980000Y-1296422000D02*
X60180000Y-1296510000D01*
X171340000Y-1450948800D02*
X149020000Y-1451200000D01*
X78830000Y-1398670400D02*
X55078271Y-1398789915D01*
X602000000Y-898120200D02*
X601190000Y-921640000D01*
X12859437Y-1464373272D02*
X13081672Y-1464151037D01*
X381540000Y-136254400D02*
X415000000Y-143260000D01*
X612590000Y-491757200D02*
X615470000Y-529560000D01*
X472030000Y-373738200D02*
X477350000Y-383970000D01*
X700570000Y-521278800D02*
X700570000Y-538420000D01*
X290630000Y-1279603400D02*
X267240000Y-1283980000D01*
X299660000Y-708422900D02*
X300210000Y-711210000D01*
X628470000Y-1002997300D02*
X627680000Y-1016910000D01*
X567350000Y-196279300D02*
X582950000Y-216760000D01*
X714120000Y-633584000D02*
X714120000Y-666280000D01*
X190220000Y-186147900D02*
X210880000Y-187570000D01*
X165050000Y-667836100D02*
X166080000Y-669460000D01*
X5180000Y-368926800D02*
X8659677Y-369427624D01*
X3250000Y-1228544230D02*
X20935630Y-1228544230D01*
X440590000Y-1112200000D02*
X440590000Y-1112455304D01*
X96510000Y-267222500D02*
X103700000Y-267100000D01*
%TD*%
M02*
