%TF.GenerationSoftware,KiCad,Pcbnew,7.0.1-3b83917a11~172~ubuntu22.04.1*%
%TF.CreationDate,2023-12-10T14:17:05-05:00*%
%TF.ProjectId,coil_template_first,636f696c-5f74-4656-9d70-6c6174655f66,rev?*%
%TF.SameCoordinates,Original*%
%TF.FileFunction,Copper,L2,Bot*%
%TF.FilePolarity,Positive*%
%FSLAX46Y46*%
G04 Gerber Fmt 4.6, Leading zero omitted, Abs format (unit mm)*
G04 Created by KiCad (PCBNEW 7.0.1-3b83917a11~172~ubuntu22.04.1) date 2023-12-10 14:17:05*
%MOMM*%
%LPD*%
G01*
G04 APERTURE LIST*
%TA.AperFunction,ViaPad*%
%ADD10C,4.000000*%
%TD*%
%TA.AperFunction,Conductor*%
%ADD11C,5.000000*%
%TD*%
G04 APERTURE END LIST*
D10*
%TO.N,Net-(J1-Pin_1)*%
X423340135Y-364323022D03*
X426741852Y-1132192535D03*
X395452677Y-1091342852D03*
X376955656Y-385086344D03*
%TD*%
D11*
%TO.N,Net-(J1-Pin_1)*%
X387550247Y-391077745D02*
X412443382Y-366184610D01*
X397516496Y-1119969597D02*
X397516496Y-1120047950D01*
X383334755Y-1105787856D02*
X397516496Y-1119969597D01*
X413582056Y-355207551D02*
X414587922Y-354201685D01*
X395452677Y-1091342852D02*
X395452677Y-1091476073D01*
X395452677Y-1091476073D02*
X388976110Y-1097952640D01*
X426741852Y-1131644070D02*
X426741852Y-1132192535D01*
X423340135Y-361641899D02*
X415899921Y-354201685D01*
X397516496Y-1120047950D02*
X432461560Y-1120047950D01*
X388897758Y-1097952640D02*
X388897758Y-1100224853D01*
X414587922Y-354201685D02*
X415899921Y-354201685D01*
X388976110Y-1097952640D02*
X388897758Y-1097952640D01*
X388897758Y-1100224853D02*
X383334755Y-1105787856D01*
X432618264Y-1120204654D02*
X432618264Y-1125767658D01*
X376955656Y-385086344D02*
X382947057Y-391077745D01*
X432461560Y-1120047950D02*
X432618264Y-1120204654D01*
X412443382Y-366184610D02*
X412488724Y-366184610D01*
X382947057Y-391077745D02*
X387550247Y-391077745D01*
X412488724Y-366184610D02*
X413582056Y-365091278D01*
X432618264Y-1125767658D02*
X426741852Y-1131644070D01*
X413582056Y-365091278D02*
X413582056Y-355207551D01*
X423340135Y-364323022D02*
X423340135Y-361641899D01*
%TD*%
M02*
