%TF.GenerationSoftware,KiCad,Pcbnew,7.0.1-3b83917a11~172~ubuntu22.04.1*%
%TF.CreationDate,2023-12-10T14:17:05-05:00*%
%TF.ProjectId,coil_template_first,636f696c-5f74-4656-9d70-6c6174655f66,rev?*%
%TF.SameCoordinates,Original*%
%TF.FileFunction,Legend,Top*%
%TF.FilePolarity,Positive*%
%FSLAX46Y46*%
G04 Gerber Fmt 4.6, Leading zero omitted, Abs format (unit mm)*
G04 Created by KiCad (PCBNEW 7.0.1-3b83917a11~172~ubuntu22.04.1) date 2023-12-10 14:17:05*
%MOMM*%
%LPD*%
G01*
G04 APERTURE LIST*
%ADD10C,2.000000*%
%ADD11C,0.150000*%
G04 APERTURE END LIST*
D10*
X541428571Y-52447619D02*
X537619047Y-52447619D01*
X537619047Y-52447619D02*
X535714285Y-51495238D01*
X535714285Y-51495238D02*
X533809523Y-49590476D01*
X533809523Y-49590476D02*
X532857142Y-45780952D01*
X532857142Y-45780952D02*
X532857142Y-39114285D01*
X532857142Y-39114285D02*
X533809523Y-35304761D01*
X533809523Y-35304761D02*
X535714285Y-33400000D01*
X535714285Y-33400000D02*
X537619047Y-32447619D01*
X537619047Y-32447619D02*
X541428571Y-32447619D01*
X541428571Y-32447619D02*
X543333333Y-33400000D01*
X543333333Y-33400000D02*
X545238095Y-35304761D01*
X545238095Y-35304761D02*
X546190476Y-39114285D01*
X546190476Y-39114285D02*
X546190476Y-45780952D01*
X546190476Y-45780952D02*
X545238095Y-49590476D01*
X545238095Y-49590476D02*
X543333333Y-51495238D01*
X543333333Y-51495238D02*
X541428571Y-52447619D01*
X524285714Y-32447619D02*
X524285714Y-52447619D01*
X524285714Y-52447619D02*
X516666666Y-52447619D01*
X516666666Y-52447619D02*
X514761904Y-51495238D01*
X514761904Y-51495238D02*
X513809523Y-50542857D01*
X513809523Y-50542857D02*
X512857142Y-48638095D01*
X512857142Y-48638095D02*
X512857142Y-45780952D01*
X512857142Y-45780952D02*
X513809523Y-43876190D01*
X513809523Y-43876190D02*
X514761904Y-42923809D01*
X514761904Y-42923809D02*
X516666666Y-41971428D01*
X516666666Y-41971428D02*
X524285714Y-41971428D01*
X504285714Y-32447619D02*
X504285714Y-52447619D01*
X504285714Y-52447619D02*
X497619047Y-38161904D01*
X497619047Y-38161904D02*
X490952380Y-52447619D01*
X490952380Y-52447619D02*
X490952380Y-32447619D01*
X481428571Y-40066666D02*
X466190476Y-40066666D01*
X456666666Y-32447619D02*
X456666666Y-52447619D01*
X456666666Y-52447619D02*
X449999999Y-38161904D01*
X449999999Y-38161904D02*
X443333332Y-52447619D01*
X443333332Y-52447619D02*
X443333332Y-32447619D01*
X433809523Y-42923809D02*
X427142856Y-42923809D01*
X424285713Y-32447619D02*
X433809523Y-32447619D01*
X433809523Y-32447619D02*
X433809523Y-52447619D01*
X433809523Y-52447619D02*
X424285713Y-52447619D01*
X405238094Y-51495238D02*
X407142856Y-52447619D01*
X407142856Y-52447619D02*
X409999999Y-52447619D01*
X409999999Y-52447619D02*
X412857142Y-51495238D01*
X412857142Y-51495238D02*
X414761904Y-49590476D01*
X414761904Y-49590476D02*
X415714285Y-47685714D01*
X415714285Y-47685714D02*
X416666666Y-43876190D01*
X416666666Y-43876190D02*
X416666666Y-41019047D01*
X416666666Y-41019047D02*
X415714285Y-37209523D01*
X415714285Y-37209523D02*
X414761904Y-35304761D01*
X414761904Y-35304761D02*
X412857142Y-33400000D01*
X412857142Y-33400000D02*
X409999999Y-32447619D01*
X409999999Y-32447619D02*
X408095237Y-32447619D01*
X408095237Y-32447619D02*
X405238094Y-33400000D01*
X405238094Y-33400000D02*
X404285713Y-34352380D01*
X404285713Y-34352380D02*
X404285713Y-41019047D01*
X404285713Y-41019047D02*
X408095237Y-41019047D01*
X368095237Y-41971428D02*
X369047618Y-42923809D01*
X369047618Y-42923809D02*
X370952380Y-43876190D01*
X370952380Y-43876190D02*
X372857142Y-43876190D01*
X372857142Y-43876190D02*
X374761904Y-42923809D01*
X374761904Y-42923809D02*
X375714285Y-41971428D01*
X375714285Y-41971428D02*
X376666666Y-40066666D01*
X376666666Y-40066666D02*
X376666666Y-38161904D01*
X376666666Y-38161904D02*
X375714285Y-36257142D01*
X375714285Y-36257142D02*
X374761904Y-35304761D01*
X374761904Y-35304761D02*
X372857142Y-34352380D01*
X372857142Y-34352380D02*
X370952380Y-34352380D01*
X370952380Y-34352380D02*
X369047618Y-35304761D01*
X369047618Y-35304761D02*
X368095237Y-36257142D01*
X368095237Y-43876190D02*
X368095237Y-36257142D01*
X368095237Y-36257142D02*
X367142856Y-35304761D01*
X367142856Y-35304761D02*
X366190475Y-35304761D01*
X366190475Y-35304761D02*
X364285714Y-36257142D01*
X364285714Y-36257142D02*
X363333333Y-38161904D01*
X363333333Y-38161904D02*
X363333333Y-42923809D01*
X363333333Y-42923809D02*
X365238095Y-45780952D01*
X365238095Y-45780952D02*
X368095237Y-47685714D01*
X368095237Y-47685714D02*
X371904761Y-48638095D01*
X371904761Y-48638095D02*
X375714285Y-47685714D01*
X375714285Y-47685714D02*
X378571428Y-45780952D01*
X378571428Y-45780952D02*
X380476190Y-42923809D01*
X380476190Y-42923809D02*
X381428571Y-39114285D01*
X381428571Y-39114285D02*
X380476190Y-35304761D01*
X380476190Y-35304761D02*
X378571428Y-32447619D01*
X378571428Y-32447619D02*
X375714285Y-30542857D01*
X375714285Y-30542857D02*
X371904761Y-29590476D01*
X371904761Y-29590476D02*
X368095237Y-30542857D01*
X368095237Y-30542857D02*
X365238095Y-32447619D01*
X339523809Y-32447619D02*
X339523809Y-52447619D01*
X339523809Y-52447619D02*
X332857142Y-38161904D01*
X332857142Y-38161904D02*
X326190475Y-52447619D01*
X326190475Y-52447619D02*
X326190475Y-32447619D01*
X308095237Y-32447619D02*
X308095237Y-42923809D01*
X308095237Y-42923809D02*
X309047618Y-44828571D01*
X309047618Y-44828571D02*
X310952380Y-45780952D01*
X310952380Y-45780952D02*
X314761904Y-45780952D01*
X314761904Y-45780952D02*
X316666666Y-44828571D01*
X308095237Y-33400000D02*
X309999999Y-32447619D01*
X309999999Y-32447619D02*
X314761904Y-32447619D01*
X314761904Y-32447619D02*
X316666666Y-33400000D01*
X316666666Y-33400000D02*
X317619047Y-35304761D01*
X317619047Y-35304761D02*
X317619047Y-37209523D01*
X317619047Y-37209523D02*
X316666666Y-39114285D01*
X316666666Y-39114285D02*
X314761904Y-40066666D01*
X314761904Y-40066666D02*
X309999999Y-40066666D01*
X309999999Y-40066666D02*
X308095237Y-41019047D01*
X298571428Y-32447619D02*
X298571428Y-45780952D01*
X298571428Y-41971428D02*
X297619047Y-43876190D01*
X297619047Y-43876190D02*
X296666666Y-44828571D01*
X296666666Y-44828571D02*
X294761904Y-45780952D01*
X294761904Y-45780952D02*
X292857142Y-45780952D01*
X289047619Y-45780952D02*
X281428571Y-45780952D01*
X286190476Y-52447619D02*
X286190476Y-35304761D01*
X286190476Y-35304761D02*
X285238095Y-33400000D01*
X285238095Y-33400000D02*
X283333333Y-32447619D01*
X283333333Y-32447619D02*
X281428571Y-32447619D01*
X274761905Y-32447619D02*
X274761905Y-45780952D01*
X274761905Y-52447619D02*
X275714286Y-51495238D01*
X275714286Y-51495238D02*
X274761905Y-50542857D01*
X274761905Y-50542857D02*
X273809524Y-51495238D01*
X273809524Y-51495238D02*
X274761905Y-52447619D01*
X274761905Y-52447619D02*
X274761905Y-50542857D01*
X265238095Y-45780952D02*
X265238095Y-32447619D01*
X265238095Y-43876190D02*
X264285714Y-44828571D01*
X264285714Y-44828571D02*
X262380952Y-45780952D01*
X262380952Y-45780952D02*
X259523809Y-45780952D01*
X259523809Y-45780952D02*
X257619047Y-44828571D01*
X257619047Y-44828571D02*
X256666666Y-42923809D01*
X256666666Y-42923809D02*
X256666666Y-32447619D01*
X244285714Y-32447619D02*
X246190476Y-33400000D01*
X246190476Y-33400000D02*
X247142857Y-34352380D01*
X247142857Y-34352380D02*
X248095238Y-36257142D01*
X248095238Y-36257142D02*
X248095238Y-41971428D01*
X248095238Y-41971428D02*
X247142857Y-43876190D01*
X247142857Y-43876190D02*
X246190476Y-44828571D01*
X246190476Y-44828571D02*
X244285714Y-45780952D01*
X244285714Y-45780952D02*
X241428571Y-45780952D01*
X241428571Y-45780952D02*
X239523809Y-44828571D01*
X239523809Y-44828571D02*
X238571428Y-43876190D01*
X238571428Y-43876190D02*
X237619047Y-41971428D01*
X237619047Y-41971428D02*
X237619047Y-36257142D01*
X237619047Y-36257142D02*
X238571428Y-34352380D01*
X238571428Y-34352380D02*
X239523809Y-33400000D01*
X239523809Y-33400000D02*
X241428571Y-32447619D01*
X241428571Y-32447619D02*
X244285714Y-32447619D01*
X230000000Y-33400000D02*
X228095238Y-32447619D01*
X228095238Y-32447619D02*
X224285714Y-32447619D01*
X224285714Y-32447619D02*
X222380952Y-33400000D01*
X222380952Y-33400000D02*
X221428571Y-35304761D01*
X221428571Y-35304761D02*
X221428571Y-36257142D01*
X221428571Y-36257142D02*
X222380952Y-38161904D01*
X222380952Y-38161904D02*
X224285714Y-39114285D01*
X224285714Y-39114285D02*
X227142857Y-39114285D01*
X227142857Y-39114285D02*
X229047619Y-40066666D01*
X229047619Y-40066666D02*
X230000000Y-41971428D01*
X230000000Y-41971428D02*
X230000000Y-42923809D01*
X230000000Y-42923809D02*
X229047619Y-44828571D01*
X229047619Y-44828571D02*
X227142857Y-45780952D01*
X227142857Y-45780952D02*
X224285714Y-45780952D01*
X224285714Y-45780952D02*
X222380952Y-44828571D01*
X390761642Y-1072017967D02*
X380966783Y-1083691025D01*
X374844996Y-1090986687D02*
X365050138Y-1102659745D01*
X363305748Y-1113628478D02*
X349133492Y-1121628464D01*
X349133492Y-1121628464D02*
X354550954Y-1106282334D01*
X278269223Y-1057701386D02*
X289044184Y-1046926426D01*
X295778534Y-1040192075D02*
X306553495Y-1029417115D01*
X309247235Y-1018642154D02*
X324062806Y-1011907804D01*
X324062806Y-1011907804D02*
X317328455Y-1026723374D01*
X84314960Y-246298738D02*
X99553056Y-246298738D01*
X109076865Y-246298738D02*
X124314961Y-246298738D01*
X133838770Y-240584452D02*
X149076866Y-246298738D01*
X149076866Y-246298738D02*
X133838770Y-252013024D01*
X498871261Y-718062040D02*
X498871261Y-733300136D01*
X498871261Y-742823945D02*
X498871261Y-758062041D01*
X504585547Y-767585850D02*
X498871261Y-782823946D01*
X498871261Y-782823946D02*
X493156975Y-767585850D01*
X349571098Y-385164019D02*
X359365957Y-396837077D01*
X365487744Y-404132738D02*
X375282602Y-415805796D01*
X385781786Y-419428386D02*
X391199248Y-434774516D01*
X391199248Y-434774516D02*
X377026993Y-426774530D01*
X712552380Y-911428571D02*
X712552380Y-907619047D01*
X712552380Y-907619047D02*
X713504761Y-905714285D01*
X713504761Y-905714285D02*
X715409523Y-903809523D01*
X715409523Y-903809523D02*
X719219047Y-902857142D01*
X719219047Y-902857142D02*
X725885714Y-902857142D01*
X725885714Y-902857142D02*
X729695238Y-903809523D01*
X729695238Y-903809523D02*
X731600000Y-905714285D01*
X731600000Y-905714285D02*
X732552380Y-907619047D01*
X732552380Y-907619047D02*
X732552380Y-911428571D01*
X732552380Y-911428571D02*
X731600000Y-913333333D01*
X731600000Y-913333333D02*
X729695238Y-915238095D01*
X729695238Y-915238095D02*
X725885714Y-916190476D01*
X725885714Y-916190476D02*
X719219047Y-916190476D01*
X719219047Y-916190476D02*
X715409523Y-915238095D01*
X715409523Y-915238095D02*
X713504761Y-913333333D01*
X713504761Y-913333333D02*
X712552380Y-911428571D01*
X732552380Y-894285714D02*
X712552380Y-894285714D01*
X712552380Y-894285714D02*
X712552380Y-886666666D01*
X712552380Y-886666666D02*
X713504761Y-884761904D01*
X713504761Y-884761904D02*
X714457142Y-883809523D01*
X714457142Y-883809523D02*
X716361904Y-882857142D01*
X716361904Y-882857142D02*
X719219047Y-882857142D01*
X719219047Y-882857142D02*
X721123809Y-883809523D01*
X721123809Y-883809523D02*
X722076190Y-884761904D01*
X722076190Y-884761904D02*
X723028571Y-886666666D01*
X723028571Y-886666666D02*
X723028571Y-894285714D01*
X732552380Y-874285714D02*
X712552380Y-874285714D01*
X712552380Y-874285714D02*
X726838095Y-867619047D01*
X726838095Y-867619047D02*
X712552380Y-860952380D01*
X712552380Y-860952380D02*
X732552380Y-860952380D01*
X724933333Y-851428571D02*
X724933333Y-836190476D01*
X732552380Y-826666666D02*
X712552380Y-826666666D01*
X712552380Y-826666666D02*
X726838095Y-819999999D01*
X726838095Y-819999999D02*
X712552380Y-813333332D01*
X712552380Y-813333332D02*
X732552380Y-813333332D01*
X722076190Y-803809523D02*
X722076190Y-797142856D01*
X732552380Y-794285713D02*
X732552380Y-803809523D01*
X732552380Y-803809523D02*
X712552380Y-803809523D01*
X712552380Y-803809523D02*
X712552380Y-794285713D01*
X713504761Y-775238094D02*
X712552380Y-777142856D01*
X712552380Y-777142856D02*
X712552380Y-779999999D01*
X712552380Y-779999999D02*
X713504761Y-782857142D01*
X713504761Y-782857142D02*
X715409523Y-784761904D01*
X715409523Y-784761904D02*
X717314285Y-785714285D01*
X717314285Y-785714285D02*
X721123809Y-786666666D01*
X721123809Y-786666666D02*
X723980952Y-786666666D01*
X723980952Y-786666666D02*
X727790476Y-785714285D01*
X727790476Y-785714285D02*
X729695238Y-784761904D01*
X729695238Y-784761904D02*
X731600000Y-782857142D01*
X731600000Y-782857142D02*
X732552380Y-779999999D01*
X732552380Y-779999999D02*
X732552380Y-778095237D01*
X732552380Y-778095237D02*
X731600000Y-775238094D01*
X731600000Y-775238094D02*
X730647619Y-774285713D01*
X730647619Y-774285713D02*
X723980952Y-774285713D01*
X723980952Y-774285713D02*
X723980952Y-778095237D01*
X723028571Y-738095237D02*
X722076190Y-739047618D01*
X722076190Y-739047618D02*
X721123809Y-740952380D01*
X721123809Y-740952380D02*
X721123809Y-742857142D01*
X721123809Y-742857142D02*
X722076190Y-744761904D01*
X722076190Y-744761904D02*
X723028571Y-745714285D01*
X723028571Y-745714285D02*
X724933333Y-746666666D01*
X724933333Y-746666666D02*
X726838095Y-746666666D01*
X726838095Y-746666666D02*
X728742857Y-745714285D01*
X728742857Y-745714285D02*
X729695238Y-744761904D01*
X729695238Y-744761904D02*
X730647619Y-742857142D01*
X730647619Y-742857142D02*
X730647619Y-740952380D01*
X730647619Y-740952380D02*
X729695238Y-739047618D01*
X729695238Y-739047618D02*
X728742857Y-738095237D01*
X721123809Y-738095237D02*
X728742857Y-738095237D01*
X728742857Y-738095237D02*
X729695238Y-737142856D01*
X729695238Y-737142856D02*
X729695238Y-736190475D01*
X729695238Y-736190475D02*
X728742857Y-734285714D01*
X728742857Y-734285714D02*
X726838095Y-733333333D01*
X726838095Y-733333333D02*
X722076190Y-733333333D01*
X722076190Y-733333333D02*
X719219047Y-735238095D01*
X719219047Y-735238095D02*
X717314285Y-738095237D01*
X717314285Y-738095237D02*
X716361904Y-741904761D01*
X716361904Y-741904761D02*
X717314285Y-745714285D01*
X717314285Y-745714285D02*
X719219047Y-748571428D01*
X719219047Y-748571428D02*
X722076190Y-750476190D01*
X722076190Y-750476190D02*
X725885714Y-751428571D01*
X725885714Y-751428571D02*
X729695238Y-750476190D01*
X729695238Y-750476190D02*
X732552380Y-748571428D01*
X732552380Y-748571428D02*
X734457142Y-745714285D01*
X734457142Y-745714285D02*
X735409523Y-741904761D01*
X735409523Y-741904761D02*
X734457142Y-738095237D01*
X734457142Y-738095237D02*
X732552380Y-735238095D01*
X732552380Y-709523809D02*
X712552380Y-709523809D01*
X712552380Y-709523809D02*
X726838095Y-702857142D01*
X726838095Y-702857142D02*
X712552380Y-696190475D01*
X712552380Y-696190475D02*
X732552380Y-696190475D01*
X732552380Y-678095237D02*
X722076190Y-678095237D01*
X722076190Y-678095237D02*
X720171428Y-679047618D01*
X720171428Y-679047618D02*
X719219047Y-680952380D01*
X719219047Y-680952380D02*
X719219047Y-684761904D01*
X719219047Y-684761904D02*
X720171428Y-686666666D01*
X731600000Y-678095237D02*
X732552380Y-679999999D01*
X732552380Y-679999999D02*
X732552380Y-684761904D01*
X732552380Y-684761904D02*
X731600000Y-686666666D01*
X731600000Y-686666666D02*
X729695238Y-687619047D01*
X729695238Y-687619047D02*
X727790476Y-687619047D01*
X727790476Y-687619047D02*
X725885714Y-686666666D01*
X725885714Y-686666666D02*
X724933333Y-684761904D01*
X724933333Y-684761904D02*
X724933333Y-679999999D01*
X724933333Y-679999999D02*
X723980952Y-678095237D01*
X732552380Y-668571428D02*
X719219047Y-668571428D01*
X723028571Y-668571428D02*
X721123809Y-667619047D01*
X721123809Y-667619047D02*
X720171428Y-666666666D01*
X720171428Y-666666666D02*
X719219047Y-664761904D01*
X719219047Y-664761904D02*
X719219047Y-662857142D01*
X719219047Y-659047619D02*
X719219047Y-651428571D01*
X712552380Y-656190476D02*
X729695238Y-656190476D01*
X729695238Y-656190476D02*
X731600000Y-655238095D01*
X731600000Y-655238095D02*
X732552380Y-653333333D01*
X732552380Y-653333333D02*
X732552380Y-651428571D01*
X732552380Y-644761905D02*
X719219047Y-644761905D01*
X712552380Y-644761905D02*
X713504761Y-645714286D01*
X713504761Y-645714286D02*
X714457142Y-644761905D01*
X714457142Y-644761905D02*
X713504761Y-643809524D01*
X713504761Y-643809524D02*
X712552380Y-644761905D01*
X712552380Y-644761905D02*
X714457142Y-644761905D01*
X719219047Y-635238095D02*
X732552380Y-635238095D01*
X721123809Y-635238095D02*
X720171428Y-634285714D01*
X720171428Y-634285714D02*
X719219047Y-632380952D01*
X719219047Y-632380952D02*
X719219047Y-629523809D01*
X719219047Y-629523809D02*
X720171428Y-627619047D01*
X720171428Y-627619047D02*
X722076190Y-626666666D01*
X722076190Y-626666666D02*
X732552380Y-626666666D01*
X732552380Y-614285714D02*
X731600000Y-616190476D01*
X731600000Y-616190476D02*
X730647619Y-617142857D01*
X730647619Y-617142857D02*
X728742857Y-618095238D01*
X728742857Y-618095238D02*
X723028571Y-618095238D01*
X723028571Y-618095238D02*
X721123809Y-617142857D01*
X721123809Y-617142857D02*
X720171428Y-616190476D01*
X720171428Y-616190476D02*
X719219047Y-614285714D01*
X719219047Y-614285714D02*
X719219047Y-611428571D01*
X719219047Y-611428571D02*
X720171428Y-609523809D01*
X720171428Y-609523809D02*
X721123809Y-608571428D01*
X721123809Y-608571428D02*
X723028571Y-607619047D01*
X723028571Y-607619047D02*
X728742857Y-607619047D01*
X728742857Y-607619047D02*
X730647619Y-608571428D01*
X730647619Y-608571428D02*
X731600000Y-609523809D01*
X731600000Y-609523809D02*
X732552380Y-611428571D01*
X732552380Y-611428571D02*
X732552380Y-614285714D01*
X731600000Y-600000000D02*
X732552380Y-598095238D01*
X732552380Y-598095238D02*
X732552380Y-594285714D01*
X732552380Y-594285714D02*
X731600000Y-592380952D01*
X731600000Y-592380952D02*
X729695238Y-591428571D01*
X729695238Y-591428571D02*
X728742857Y-591428571D01*
X728742857Y-591428571D02*
X726838095Y-592380952D01*
X726838095Y-592380952D02*
X725885714Y-594285714D01*
X725885714Y-594285714D02*
X725885714Y-597142857D01*
X725885714Y-597142857D02*
X724933333Y-599047619D01*
X724933333Y-599047619D02*
X723028571Y-600000000D01*
X723028571Y-600000000D02*
X722076190Y-600000000D01*
X722076190Y-600000000D02*
X720171428Y-599047619D01*
X720171428Y-599047619D02*
X719219047Y-597142857D01*
X719219047Y-597142857D02*
X719219047Y-594285714D01*
X719219047Y-594285714D02*
X720171428Y-592380952D01*
X354387887Y-778397804D02*
X354387887Y-763159709D01*
X354387887Y-753635899D02*
X354387887Y-738397804D01*
X348673601Y-728873994D02*
X354387887Y-713635899D01*
X354387887Y-713635899D02*
X360102173Y-728873994D01*
X312804434Y-476733647D02*
X302029474Y-465958686D01*
X295295123Y-459224336D02*
X284520163Y-448449375D01*
X273745202Y-445755635D02*
X267010852Y-430940064D01*
X267010852Y-430940064D02*
X281826422Y-437674415D01*
X541428571Y-1482447619D02*
X537619047Y-1482447619D01*
X537619047Y-1482447619D02*
X535714285Y-1481495238D01*
X535714285Y-1481495238D02*
X533809523Y-1479590476D01*
X533809523Y-1479590476D02*
X532857142Y-1475780952D01*
X532857142Y-1475780952D02*
X532857142Y-1469114285D01*
X532857142Y-1469114285D02*
X533809523Y-1465304761D01*
X533809523Y-1465304761D02*
X535714285Y-1463400000D01*
X535714285Y-1463400000D02*
X537619047Y-1462447619D01*
X537619047Y-1462447619D02*
X541428571Y-1462447619D01*
X541428571Y-1462447619D02*
X543333333Y-1463400000D01*
X543333333Y-1463400000D02*
X545238095Y-1465304761D01*
X545238095Y-1465304761D02*
X546190476Y-1469114285D01*
X546190476Y-1469114285D02*
X546190476Y-1475780952D01*
X546190476Y-1475780952D02*
X545238095Y-1479590476D01*
X545238095Y-1479590476D02*
X543333333Y-1481495238D01*
X543333333Y-1481495238D02*
X541428571Y-1482447619D01*
X524285714Y-1462447619D02*
X524285714Y-1482447619D01*
X524285714Y-1482447619D02*
X516666666Y-1482447619D01*
X516666666Y-1482447619D02*
X514761904Y-1481495238D01*
X514761904Y-1481495238D02*
X513809523Y-1480542857D01*
X513809523Y-1480542857D02*
X512857142Y-1478638095D01*
X512857142Y-1478638095D02*
X512857142Y-1475780952D01*
X512857142Y-1475780952D02*
X513809523Y-1473876190D01*
X513809523Y-1473876190D02*
X514761904Y-1472923809D01*
X514761904Y-1472923809D02*
X516666666Y-1471971428D01*
X516666666Y-1471971428D02*
X524285714Y-1471971428D01*
X504285714Y-1462447619D02*
X504285714Y-1482447619D01*
X504285714Y-1482447619D02*
X497619047Y-1468161904D01*
X497619047Y-1468161904D02*
X490952380Y-1482447619D01*
X490952380Y-1482447619D02*
X490952380Y-1462447619D01*
X481428571Y-1470066666D02*
X466190476Y-1470066666D01*
X456666666Y-1462447619D02*
X456666666Y-1482447619D01*
X456666666Y-1482447619D02*
X449999999Y-1468161904D01*
X449999999Y-1468161904D02*
X443333332Y-1482447619D01*
X443333332Y-1482447619D02*
X443333332Y-1462447619D01*
X433809523Y-1472923809D02*
X427142856Y-1472923809D01*
X424285713Y-1462447619D02*
X433809523Y-1462447619D01*
X433809523Y-1462447619D02*
X433809523Y-1482447619D01*
X433809523Y-1482447619D02*
X424285713Y-1482447619D01*
X405238094Y-1481495238D02*
X407142856Y-1482447619D01*
X407142856Y-1482447619D02*
X409999999Y-1482447619D01*
X409999999Y-1482447619D02*
X412857142Y-1481495238D01*
X412857142Y-1481495238D02*
X414761904Y-1479590476D01*
X414761904Y-1479590476D02*
X415714285Y-1477685714D01*
X415714285Y-1477685714D02*
X416666666Y-1473876190D01*
X416666666Y-1473876190D02*
X416666666Y-1471019047D01*
X416666666Y-1471019047D02*
X415714285Y-1467209523D01*
X415714285Y-1467209523D02*
X414761904Y-1465304761D01*
X414761904Y-1465304761D02*
X412857142Y-1463400000D01*
X412857142Y-1463400000D02*
X409999999Y-1462447619D01*
X409999999Y-1462447619D02*
X408095237Y-1462447619D01*
X408095237Y-1462447619D02*
X405238094Y-1463400000D01*
X405238094Y-1463400000D02*
X404285713Y-1464352380D01*
X404285713Y-1464352380D02*
X404285713Y-1471019047D01*
X404285713Y-1471019047D02*
X408095237Y-1471019047D01*
X368095237Y-1471971428D02*
X369047618Y-1472923809D01*
X369047618Y-1472923809D02*
X370952380Y-1473876190D01*
X370952380Y-1473876190D02*
X372857142Y-1473876190D01*
X372857142Y-1473876190D02*
X374761904Y-1472923809D01*
X374761904Y-1472923809D02*
X375714285Y-1471971428D01*
X375714285Y-1471971428D02*
X376666666Y-1470066666D01*
X376666666Y-1470066666D02*
X376666666Y-1468161904D01*
X376666666Y-1468161904D02*
X375714285Y-1466257142D01*
X375714285Y-1466257142D02*
X374761904Y-1465304761D01*
X374761904Y-1465304761D02*
X372857142Y-1464352380D01*
X372857142Y-1464352380D02*
X370952380Y-1464352380D01*
X370952380Y-1464352380D02*
X369047618Y-1465304761D01*
X369047618Y-1465304761D02*
X368095237Y-1466257142D01*
X368095237Y-1473876190D02*
X368095237Y-1466257142D01*
X368095237Y-1466257142D02*
X367142856Y-1465304761D01*
X367142856Y-1465304761D02*
X366190475Y-1465304761D01*
X366190475Y-1465304761D02*
X364285714Y-1466257142D01*
X364285714Y-1466257142D02*
X363333333Y-1468161904D01*
X363333333Y-1468161904D02*
X363333333Y-1472923809D01*
X363333333Y-1472923809D02*
X365238095Y-1475780952D01*
X365238095Y-1475780952D02*
X368095237Y-1477685714D01*
X368095237Y-1477685714D02*
X371904761Y-1478638095D01*
X371904761Y-1478638095D02*
X375714285Y-1477685714D01*
X375714285Y-1477685714D02*
X378571428Y-1475780952D01*
X378571428Y-1475780952D02*
X380476190Y-1472923809D01*
X380476190Y-1472923809D02*
X381428571Y-1469114285D01*
X381428571Y-1469114285D02*
X380476190Y-1465304761D01*
X380476190Y-1465304761D02*
X378571428Y-1462447619D01*
X378571428Y-1462447619D02*
X375714285Y-1460542857D01*
X375714285Y-1460542857D02*
X371904761Y-1459590476D01*
X371904761Y-1459590476D02*
X368095237Y-1460542857D01*
X368095237Y-1460542857D02*
X365238095Y-1462447619D01*
X339523809Y-1462447619D02*
X339523809Y-1482447619D01*
X339523809Y-1482447619D02*
X332857142Y-1468161904D01*
X332857142Y-1468161904D02*
X326190475Y-1482447619D01*
X326190475Y-1482447619D02*
X326190475Y-1462447619D01*
X308095237Y-1462447619D02*
X308095237Y-1472923809D01*
X308095237Y-1472923809D02*
X309047618Y-1474828571D01*
X309047618Y-1474828571D02*
X310952380Y-1475780952D01*
X310952380Y-1475780952D02*
X314761904Y-1475780952D01*
X314761904Y-1475780952D02*
X316666666Y-1474828571D01*
X308095237Y-1463400000D02*
X309999999Y-1462447619D01*
X309999999Y-1462447619D02*
X314761904Y-1462447619D01*
X314761904Y-1462447619D02*
X316666666Y-1463400000D01*
X316666666Y-1463400000D02*
X317619047Y-1465304761D01*
X317619047Y-1465304761D02*
X317619047Y-1467209523D01*
X317619047Y-1467209523D02*
X316666666Y-1469114285D01*
X316666666Y-1469114285D02*
X314761904Y-1470066666D01*
X314761904Y-1470066666D02*
X309999999Y-1470066666D01*
X309999999Y-1470066666D02*
X308095237Y-1471019047D01*
X298571428Y-1462447619D02*
X298571428Y-1475780952D01*
X298571428Y-1471971428D02*
X297619047Y-1473876190D01*
X297619047Y-1473876190D02*
X296666666Y-1474828571D01*
X296666666Y-1474828571D02*
X294761904Y-1475780952D01*
X294761904Y-1475780952D02*
X292857142Y-1475780952D01*
X289047619Y-1475780952D02*
X281428571Y-1475780952D01*
X286190476Y-1482447619D02*
X286190476Y-1465304761D01*
X286190476Y-1465304761D02*
X285238095Y-1463400000D01*
X285238095Y-1463400000D02*
X283333333Y-1462447619D01*
X283333333Y-1462447619D02*
X281428571Y-1462447619D01*
X274761905Y-1462447619D02*
X274761905Y-1475780952D01*
X274761905Y-1482447619D02*
X275714286Y-1481495238D01*
X275714286Y-1481495238D02*
X274761905Y-1480542857D01*
X274761905Y-1480542857D02*
X273809524Y-1481495238D01*
X273809524Y-1481495238D02*
X274761905Y-1482447619D01*
X274761905Y-1482447619D02*
X274761905Y-1480542857D01*
X265238095Y-1475780952D02*
X265238095Y-1462447619D01*
X265238095Y-1473876190D02*
X264285714Y-1474828571D01*
X264285714Y-1474828571D02*
X262380952Y-1475780952D01*
X262380952Y-1475780952D02*
X259523809Y-1475780952D01*
X259523809Y-1475780952D02*
X257619047Y-1474828571D01*
X257619047Y-1474828571D02*
X256666666Y-1472923809D01*
X256666666Y-1472923809D02*
X256666666Y-1462447619D01*
X244285714Y-1462447619D02*
X246190476Y-1463400000D01*
X246190476Y-1463400000D02*
X247142857Y-1464352380D01*
X247142857Y-1464352380D02*
X248095238Y-1466257142D01*
X248095238Y-1466257142D02*
X248095238Y-1471971428D01*
X248095238Y-1471971428D02*
X247142857Y-1473876190D01*
X247142857Y-1473876190D02*
X246190476Y-1474828571D01*
X246190476Y-1474828571D02*
X244285714Y-1475780952D01*
X244285714Y-1475780952D02*
X241428571Y-1475780952D01*
X241428571Y-1475780952D02*
X239523809Y-1474828571D01*
X239523809Y-1474828571D02*
X238571428Y-1473876190D01*
X238571428Y-1473876190D02*
X237619047Y-1471971428D01*
X237619047Y-1471971428D02*
X237619047Y-1466257142D01*
X237619047Y-1466257142D02*
X238571428Y-1464352380D01*
X238571428Y-1464352380D02*
X239523809Y-1463400000D01*
X239523809Y-1463400000D02*
X241428571Y-1462447619D01*
X241428571Y-1462447619D02*
X244285714Y-1462447619D01*
X230000000Y-1463400000D02*
X228095238Y-1462447619D01*
X228095238Y-1462447619D02*
X224285714Y-1462447619D01*
X224285714Y-1462447619D02*
X222380952Y-1463400000D01*
X222380952Y-1463400000D02*
X221428571Y-1465304761D01*
X221428571Y-1465304761D02*
X221428571Y-1466257142D01*
X221428571Y-1466257142D02*
X222380952Y-1468161904D01*
X222380952Y-1468161904D02*
X224285714Y-1469114285D01*
X224285714Y-1469114285D02*
X227142857Y-1469114285D01*
X227142857Y-1469114285D02*
X229047619Y-1470066666D01*
X229047619Y-1470066666D02*
X230000000Y-1471971428D01*
X230000000Y-1471971428D02*
X230000000Y-1472923809D01*
X230000000Y-1472923809D02*
X229047619Y-1474828571D01*
X229047619Y-1474828571D02*
X227142857Y-1475780952D01*
X227142857Y-1475780952D02*
X224285714Y-1475780952D01*
X224285714Y-1475780952D02*
X222380952Y-1474828571D01*
D11*
%TO.C,J56*%
X2440476Y-1460025891D02*
X2440476Y-1460740176D01*
X2440476Y-1460740176D02*
X2392857Y-1460883033D01*
X2392857Y-1460883033D02*
X2297619Y-1460978272D01*
X2297619Y-1460978272D02*
X2154762Y-1461025891D01*
X2154762Y-1461025891D02*
X2059524Y-1461025891D01*
X3392857Y-1460025891D02*
X2916667Y-1460025891D01*
X2916667Y-1460025891D02*
X2869048Y-1460502081D01*
X2869048Y-1460502081D02*
X2916667Y-1460454462D01*
X2916667Y-1460454462D02*
X3011905Y-1460406843D01*
X3011905Y-1460406843D02*
X3250000Y-1460406843D01*
X3250000Y-1460406843D02*
X3345238Y-1460454462D01*
X3345238Y-1460454462D02*
X3392857Y-1460502081D01*
X3392857Y-1460502081D02*
X3440476Y-1460597319D01*
X3440476Y-1460597319D02*
X3440476Y-1460835414D01*
X3440476Y-1460835414D02*
X3392857Y-1460930652D01*
X3392857Y-1460930652D02*
X3345238Y-1460978272D01*
X3345238Y-1460978272D02*
X3250000Y-1461025891D01*
X3250000Y-1461025891D02*
X3011905Y-1461025891D01*
X3011905Y-1461025891D02*
X2916667Y-1460978272D01*
X2916667Y-1460978272D02*
X2869048Y-1460930652D01*
X4297619Y-1460025891D02*
X4107143Y-1460025891D01*
X4107143Y-1460025891D02*
X4011905Y-1460073510D01*
X4011905Y-1460073510D02*
X3964286Y-1460121129D01*
X3964286Y-1460121129D02*
X3869048Y-1460263986D01*
X3869048Y-1460263986D02*
X3821429Y-1460454462D01*
X3821429Y-1460454462D02*
X3821429Y-1460835414D01*
X3821429Y-1460835414D02*
X3869048Y-1460930652D01*
X3869048Y-1460930652D02*
X3916667Y-1460978272D01*
X3916667Y-1460978272D02*
X4011905Y-1461025891D01*
X4011905Y-1461025891D02*
X4202381Y-1461025891D01*
X4202381Y-1461025891D02*
X4297619Y-1460978272D01*
X4297619Y-1460978272D02*
X4345238Y-1460930652D01*
X4345238Y-1460930652D02*
X4392857Y-1460835414D01*
X4392857Y-1460835414D02*
X4392857Y-1460597319D01*
X4392857Y-1460597319D02*
X4345238Y-1460502081D01*
X4345238Y-1460502081D02*
X4297619Y-1460454462D01*
X4297619Y-1460454462D02*
X4202381Y-1460406843D01*
X4202381Y-1460406843D02*
X4011905Y-1460406843D01*
X4011905Y-1460406843D02*
X3916667Y-1460454462D01*
X3916667Y-1460454462D02*
X3869048Y-1460502081D01*
X3869048Y-1460502081D02*
X3821429Y-1460597319D01*
%TO.C,J7*%
X2916666Y-111301752D02*
X2916666Y-112016037D01*
X2916666Y-112016037D02*
X2869047Y-112158894D01*
X2869047Y-112158894D02*
X2773809Y-112254133D01*
X2773809Y-112254133D02*
X2630952Y-112301752D01*
X2630952Y-112301752D02*
X2535714Y-112301752D01*
X3297619Y-111301752D02*
X3964285Y-111301752D01*
X3964285Y-111301752D02*
X3535714Y-112301752D01*
%TO.C,J20*%
X2440476Y-492991717D02*
X2440476Y-493706002D01*
X2440476Y-493706002D02*
X2392857Y-493848859D01*
X2392857Y-493848859D02*
X2297619Y-493944098D01*
X2297619Y-493944098D02*
X2154762Y-493991717D01*
X2154762Y-493991717D02*
X2059524Y-493991717D01*
X2869048Y-493086955D02*
X2916667Y-493039336D01*
X2916667Y-493039336D02*
X3011905Y-492991717D01*
X3011905Y-492991717D02*
X3250000Y-492991717D01*
X3250000Y-492991717D02*
X3345238Y-493039336D01*
X3345238Y-493039336D02*
X3392857Y-493086955D01*
X3392857Y-493086955D02*
X3440476Y-493182193D01*
X3440476Y-493182193D02*
X3440476Y-493277431D01*
X3440476Y-493277431D02*
X3392857Y-493420288D01*
X3392857Y-493420288D02*
X2821429Y-493991717D01*
X2821429Y-493991717D02*
X3440476Y-493991717D01*
X4059524Y-492991717D02*
X4154762Y-492991717D01*
X4154762Y-492991717D02*
X4250000Y-493039336D01*
X4250000Y-493039336D02*
X4297619Y-493086955D01*
X4297619Y-493086955D02*
X4345238Y-493182193D01*
X4345238Y-493182193D02*
X4392857Y-493372669D01*
X4392857Y-493372669D02*
X4392857Y-493610764D01*
X4392857Y-493610764D02*
X4345238Y-493801240D01*
X4345238Y-493801240D02*
X4297619Y-493896478D01*
X4297619Y-493896478D02*
X4250000Y-493944098D01*
X4250000Y-493944098D02*
X4154762Y-493991717D01*
X4154762Y-493991717D02*
X4059524Y-493991717D01*
X4059524Y-493991717D02*
X3964286Y-493944098D01*
X3964286Y-493944098D02*
X3916667Y-493896478D01*
X3916667Y-493896478D02*
X3869048Y-493801240D01*
X3869048Y-493801240D02*
X3821429Y-493610764D01*
X3821429Y-493610764D02*
X3821429Y-493372669D01*
X3821429Y-493372669D02*
X3869048Y-493182193D01*
X3869048Y-493182193D02*
X3916667Y-493086955D01*
X3916667Y-493086955D02*
X3964286Y-493039336D01*
X3964286Y-493039336D02*
X4059524Y-492991717D01*
%TO.C,J54*%
X2440476Y-1434410714D02*
X2440476Y-1435124999D01*
X2440476Y-1435124999D02*
X2392857Y-1435267856D01*
X2392857Y-1435267856D02*
X2297619Y-1435363095D01*
X2297619Y-1435363095D02*
X2154762Y-1435410714D01*
X2154762Y-1435410714D02*
X2059524Y-1435410714D01*
X3392857Y-1434410714D02*
X2916667Y-1434410714D01*
X2916667Y-1434410714D02*
X2869048Y-1434886904D01*
X2869048Y-1434886904D02*
X2916667Y-1434839285D01*
X2916667Y-1434839285D02*
X3011905Y-1434791666D01*
X3011905Y-1434791666D02*
X3250000Y-1434791666D01*
X3250000Y-1434791666D02*
X3345238Y-1434839285D01*
X3345238Y-1434839285D02*
X3392857Y-1434886904D01*
X3392857Y-1434886904D02*
X3440476Y-1434982142D01*
X3440476Y-1434982142D02*
X3440476Y-1435220237D01*
X3440476Y-1435220237D02*
X3392857Y-1435315475D01*
X3392857Y-1435315475D02*
X3345238Y-1435363095D01*
X3345238Y-1435363095D02*
X3250000Y-1435410714D01*
X3250000Y-1435410714D02*
X3011905Y-1435410714D01*
X3011905Y-1435410714D02*
X2916667Y-1435363095D01*
X2916667Y-1435363095D02*
X2869048Y-1435315475D01*
X4297619Y-1434744047D02*
X4297619Y-1435410714D01*
X4059524Y-1434363095D02*
X3821429Y-1435077380D01*
X3821429Y-1435077380D02*
X4440476Y-1435077380D01*
%TO.C,J34*%
X2440476Y-931319326D02*
X2440476Y-932033611D01*
X2440476Y-932033611D02*
X2392857Y-932176468D01*
X2392857Y-932176468D02*
X2297619Y-932271707D01*
X2297619Y-932271707D02*
X2154762Y-932319326D01*
X2154762Y-932319326D02*
X2059524Y-932319326D01*
X2821429Y-931319326D02*
X3440476Y-931319326D01*
X3440476Y-931319326D02*
X3107143Y-931700278D01*
X3107143Y-931700278D02*
X3250000Y-931700278D01*
X3250000Y-931700278D02*
X3345238Y-931747897D01*
X3345238Y-931747897D02*
X3392857Y-931795516D01*
X3392857Y-931795516D02*
X3440476Y-931890754D01*
X3440476Y-931890754D02*
X3440476Y-932128849D01*
X3440476Y-932128849D02*
X3392857Y-932224087D01*
X3392857Y-932224087D02*
X3345238Y-932271707D01*
X3345238Y-932271707D02*
X3250000Y-932319326D01*
X3250000Y-932319326D02*
X2964286Y-932319326D01*
X2964286Y-932319326D02*
X2869048Y-932271707D01*
X2869048Y-932271707D02*
X2821429Y-932224087D01*
X4297619Y-931652659D02*
X4297619Y-932319326D01*
X4059524Y-931271707D02*
X3821429Y-931985992D01*
X3821429Y-931985992D02*
X4440476Y-931985992D01*
%TO.C,J33*%
X2440476Y-908621743D02*
X2440476Y-909336028D01*
X2440476Y-909336028D02*
X2392857Y-909478885D01*
X2392857Y-909478885D02*
X2297619Y-909574124D01*
X2297619Y-909574124D02*
X2154762Y-909621743D01*
X2154762Y-909621743D02*
X2059524Y-909621743D01*
X2821429Y-908621743D02*
X3440476Y-908621743D01*
X3440476Y-908621743D02*
X3107143Y-909002695D01*
X3107143Y-909002695D02*
X3250000Y-909002695D01*
X3250000Y-909002695D02*
X3345238Y-909050314D01*
X3345238Y-909050314D02*
X3392857Y-909097933D01*
X3392857Y-909097933D02*
X3440476Y-909193171D01*
X3440476Y-909193171D02*
X3440476Y-909431266D01*
X3440476Y-909431266D02*
X3392857Y-909526504D01*
X3392857Y-909526504D02*
X3345238Y-909574124D01*
X3345238Y-909574124D02*
X3250000Y-909621743D01*
X3250000Y-909621743D02*
X2964286Y-909621743D01*
X2964286Y-909621743D02*
X2869048Y-909574124D01*
X2869048Y-909574124D02*
X2821429Y-909526504D01*
X3773810Y-908621743D02*
X4392857Y-908621743D01*
X4392857Y-908621743D02*
X4059524Y-909002695D01*
X4059524Y-909002695D02*
X4202381Y-909002695D01*
X4202381Y-909002695D02*
X4297619Y-909050314D01*
X4297619Y-909050314D02*
X4345238Y-909097933D01*
X4345238Y-909097933D02*
X4392857Y-909193171D01*
X4392857Y-909193171D02*
X4392857Y-909431266D01*
X4392857Y-909431266D02*
X4345238Y-909526504D01*
X4345238Y-909526504D02*
X4297619Y-909574124D01*
X4297619Y-909574124D02*
X4202381Y-909621743D01*
X4202381Y-909621743D02*
X3916667Y-909621743D01*
X3916667Y-909621743D02*
X3821429Y-909574124D01*
X3821429Y-909574124D02*
X3773810Y-909526504D01*
%TO.C,J45*%
X2440476Y-1292029159D02*
X2440476Y-1292743444D01*
X2440476Y-1292743444D02*
X2392857Y-1292886301D01*
X2392857Y-1292886301D02*
X2297619Y-1292981540D01*
X2297619Y-1292981540D02*
X2154762Y-1293029159D01*
X2154762Y-1293029159D02*
X2059524Y-1293029159D01*
X3345238Y-1292362492D02*
X3345238Y-1293029159D01*
X3107143Y-1291981540D02*
X2869048Y-1292695825D01*
X2869048Y-1292695825D02*
X3488095Y-1292695825D01*
X4345238Y-1292029159D02*
X3869048Y-1292029159D01*
X3869048Y-1292029159D02*
X3821429Y-1292505349D01*
X3821429Y-1292505349D02*
X3869048Y-1292457730D01*
X3869048Y-1292457730D02*
X3964286Y-1292410111D01*
X3964286Y-1292410111D02*
X4202381Y-1292410111D01*
X4202381Y-1292410111D02*
X4297619Y-1292457730D01*
X4297619Y-1292457730D02*
X4345238Y-1292505349D01*
X4345238Y-1292505349D02*
X4392857Y-1292600587D01*
X4392857Y-1292600587D02*
X4392857Y-1292838682D01*
X4392857Y-1292838682D02*
X4345238Y-1292933920D01*
X4345238Y-1292933920D02*
X4297619Y-1292981540D01*
X4297619Y-1292981540D02*
X4202381Y-1293029159D01*
X4202381Y-1293029159D02*
X3964286Y-1293029159D01*
X3964286Y-1293029159D02*
X3869048Y-1292981540D01*
X3869048Y-1292981540D02*
X3821429Y-1292933920D01*
%TO.C,J10*%
X2440476Y-158949357D02*
X2440476Y-159663642D01*
X2440476Y-159663642D02*
X2392857Y-159806499D01*
X2392857Y-159806499D02*
X2297619Y-159901738D01*
X2297619Y-159901738D02*
X2154762Y-159949357D01*
X2154762Y-159949357D02*
X2059524Y-159949357D01*
X3440476Y-159949357D02*
X2869048Y-159949357D01*
X3154762Y-159949357D02*
X3154762Y-158949357D01*
X3154762Y-158949357D02*
X3059524Y-159092214D01*
X3059524Y-159092214D02*
X2964286Y-159187452D01*
X2964286Y-159187452D02*
X2869048Y-159235071D01*
X4059524Y-158949357D02*
X4154762Y-158949357D01*
X4154762Y-158949357D02*
X4250000Y-158996976D01*
X4250000Y-158996976D02*
X4297619Y-159044595D01*
X4297619Y-159044595D02*
X4345238Y-159139833D01*
X4345238Y-159139833D02*
X4392857Y-159330309D01*
X4392857Y-159330309D02*
X4392857Y-159568404D01*
X4392857Y-159568404D02*
X4345238Y-159758880D01*
X4345238Y-159758880D02*
X4297619Y-159854118D01*
X4297619Y-159854118D02*
X4250000Y-159901738D01*
X4250000Y-159901738D02*
X4154762Y-159949357D01*
X4154762Y-159949357D02*
X4059524Y-159949357D01*
X4059524Y-159949357D02*
X3964286Y-159901738D01*
X3964286Y-159901738D02*
X3916667Y-159854118D01*
X3916667Y-159854118D02*
X3869048Y-159758880D01*
X3869048Y-159758880D02*
X3821429Y-159568404D01*
X3821429Y-159568404D02*
X3821429Y-159330309D01*
X3821429Y-159330309D02*
X3869048Y-159139833D01*
X3869048Y-159139833D02*
X3916667Y-159044595D01*
X3916667Y-159044595D02*
X3964286Y-158996976D01*
X3964286Y-158996976D02*
X4059524Y-158949357D01*
%TO.C,J49*%
X2440476Y-1365133304D02*
X2440476Y-1365847589D01*
X2440476Y-1365847589D02*
X2392857Y-1365990446D01*
X2392857Y-1365990446D02*
X2297619Y-1366085685D01*
X2297619Y-1366085685D02*
X2154762Y-1366133304D01*
X2154762Y-1366133304D02*
X2059524Y-1366133304D01*
X3345238Y-1365466637D02*
X3345238Y-1366133304D01*
X3107143Y-1365085685D02*
X2869048Y-1365799970D01*
X2869048Y-1365799970D02*
X3488095Y-1365799970D01*
X3916667Y-1366133304D02*
X4107143Y-1366133304D01*
X4107143Y-1366133304D02*
X4202381Y-1366085685D01*
X4202381Y-1366085685D02*
X4250000Y-1366038065D01*
X4250000Y-1366038065D02*
X4345238Y-1365895208D01*
X4345238Y-1365895208D02*
X4392857Y-1365704732D01*
X4392857Y-1365704732D02*
X4392857Y-1365323780D01*
X4392857Y-1365323780D02*
X4345238Y-1365228542D01*
X4345238Y-1365228542D02*
X4297619Y-1365180923D01*
X4297619Y-1365180923D02*
X4202381Y-1365133304D01*
X4202381Y-1365133304D02*
X4011905Y-1365133304D01*
X4011905Y-1365133304D02*
X3916667Y-1365180923D01*
X3916667Y-1365180923D02*
X3869048Y-1365228542D01*
X3869048Y-1365228542D02*
X3821429Y-1365323780D01*
X3821429Y-1365323780D02*
X3821429Y-1365561875D01*
X3821429Y-1365561875D02*
X3869048Y-1365657113D01*
X3869048Y-1365657113D02*
X3916667Y-1365704732D01*
X3916667Y-1365704732D02*
X4011905Y-1365752351D01*
X4011905Y-1365752351D02*
X4202381Y-1365752351D01*
X4202381Y-1365752351D02*
X4297619Y-1365704732D01*
X4297619Y-1365704732D02*
X4345238Y-1365657113D01*
X4345238Y-1365657113D02*
X4392857Y-1365561875D01*
%TO.C,J35*%
X2440476Y-953885709D02*
X2440476Y-954599994D01*
X2440476Y-954599994D02*
X2392857Y-954742851D01*
X2392857Y-954742851D02*
X2297619Y-954838090D01*
X2297619Y-954838090D02*
X2154762Y-954885709D01*
X2154762Y-954885709D02*
X2059524Y-954885709D01*
X2821429Y-953885709D02*
X3440476Y-953885709D01*
X3440476Y-953885709D02*
X3107143Y-954266661D01*
X3107143Y-954266661D02*
X3250000Y-954266661D01*
X3250000Y-954266661D02*
X3345238Y-954314280D01*
X3345238Y-954314280D02*
X3392857Y-954361899D01*
X3392857Y-954361899D02*
X3440476Y-954457137D01*
X3440476Y-954457137D02*
X3440476Y-954695232D01*
X3440476Y-954695232D02*
X3392857Y-954790470D01*
X3392857Y-954790470D02*
X3345238Y-954838090D01*
X3345238Y-954838090D02*
X3250000Y-954885709D01*
X3250000Y-954885709D02*
X2964286Y-954885709D01*
X2964286Y-954885709D02*
X2869048Y-954838090D01*
X2869048Y-954838090D02*
X2821429Y-954790470D01*
X4345238Y-953885709D02*
X3869048Y-953885709D01*
X3869048Y-953885709D02*
X3821429Y-954361899D01*
X3821429Y-954361899D02*
X3869048Y-954314280D01*
X3869048Y-954314280D02*
X3964286Y-954266661D01*
X3964286Y-954266661D02*
X4202381Y-954266661D01*
X4202381Y-954266661D02*
X4297619Y-954314280D01*
X4297619Y-954314280D02*
X4345238Y-954361899D01*
X4345238Y-954361899D02*
X4392857Y-954457137D01*
X4392857Y-954457137D02*
X4392857Y-954695232D01*
X4392857Y-954695232D02*
X4345238Y-954790470D01*
X4345238Y-954790470D02*
X4297619Y-954838090D01*
X4297619Y-954838090D02*
X4202381Y-954885709D01*
X4202381Y-954885709D02*
X3964286Y-954885709D01*
X3964286Y-954885709D02*
X3869048Y-954838090D01*
X3869048Y-954838090D02*
X3821429Y-954790470D01*
%TO.C,J50*%
X2440476Y-1379687381D02*
X2440476Y-1380401666D01*
X2440476Y-1380401666D02*
X2392857Y-1380544523D01*
X2392857Y-1380544523D02*
X2297619Y-1380639762D01*
X2297619Y-1380639762D02*
X2154762Y-1380687381D01*
X2154762Y-1380687381D02*
X2059524Y-1380687381D01*
X3392857Y-1379687381D02*
X2916667Y-1379687381D01*
X2916667Y-1379687381D02*
X2869048Y-1380163571D01*
X2869048Y-1380163571D02*
X2916667Y-1380115952D01*
X2916667Y-1380115952D02*
X3011905Y-1380068333D01*
X3011905Y-1380068333D02*
X3250000Y-1380068333D01*
X3250000Y-1380068333D02*
X3345238Y-1380115952D01*
X3345238Y-1380115952D02*
X3392857Y-1380163571D01*
X3392857Y-1380163571D02*
X3440476Y-1380258809D01*
X3440476Y-1380258809D02*
X3440476Y-1380496904D01*
X3440476Y-1380496904D02*
X3392857Y-1380592142D01*
X3392857Y-1380592142D02*
X3345238Y-1380639762D01*
X3345238Y-1380639762D02*
X3250000Y-1380687381D01*
X3250000Y-1380687381D02*
X3011905Y-1380687381D01*
X3011905Y-1380687381D02*
X2916667Y-1380639762D01*
X2916667Y-1380639762D02*
X2869048Y-1380592142D01*
X4059524Y-1379687381D02*
X4154762Y-1379687381D01*
X4154762Y-1379687381D02*
X4250000Y-1379735000D01*
X4250000Y-1379735000D02*
X4297619Y-1379782619D01*
X4297619Y-1379782619D02*
X4345238Y-1379877857D01*
X4345238Y-1379877857D02*
X4392857Y-1380068333D01*
X4392857Y-1380068333D02*
X4392857Y-1380306428D01*
X4392857Y-1380306428D02*
X4345238Y-1380496904D01*
X4345238Y-1380496904D02*
X4297619Y-1380592142D01*
X4297619Y-1380592142D02*
X4250000Y-1380639762D01*
X4250000Y-1380639762D02*
X4154762Y-1380687381D01*
X4154762Y-1380687381D02*
X4059524Y-1380687381D01*
X4059524Y-1380687381D02*
X3964286Y-1380639762D01*
X3964286Y-1380639762D02*
X3916667Y-1380592142D01*
X3916667Y-1380592142D02*
X3869048Y-1380496904D01*
X3869048Y-1380496904D02*
X3821429Y-1380306428D01*
X3821429Y-1380306428D02*
X3821429Y-1380068333D01*
X3821429Y-1380068333D02*
X3869048Y-1379877857D01*
X3869048Y-1379877857D02*
X3916667Y-1379782619D01*
X3916667Y-1379782619D02*
X3964286Y-1379735000D01*
X3964286Y-1379735000D02*
X4059524Y-1379687381D01*
%TO.C,J44*%
X2440476Y-1264652619D02*
X2440476Y-1265366904D01*
X2440476Y-1265366904D02*
X2392857Y-1265509761D01*
X2392857Y-1265509761D02*
X2297619Y-1265605000D01*
X2297619Y-1265605000D02*
X2154762Y-1265652619D01*
X2154762Y-1265652619D02*
X2059524Y-1265652619D01*
X3345238Y-1264985952D02*
X3345238Y-1265652619D01*
X3107143Y-1264605000D02*
X2869048Y-1265319285D01*
X2869048Y-1265319285D02*
X3488095Y-1265319285D01*
X4297619Y-1264985952D02*
X4297619Y-1265652619D01*
X4059524Y-1264605000D02*
X3821429Y-1265319285D01*
X3821429Y-1265319285D02*
X4440476Y-1265319285D01*
%TO.C,J31*%
X2440476Y-858439818D02*
X2440476Y-859154103D01*
X2440476Y-859154103D02*
X2392857Y-859296960D01*
X2392857Y-859296960D02*
X2297619Y-859392199D01*
X2297619Y-859392199D02*
X2154762Y-859439818D01*
X2154762Y-859439818D02*
X2059524Y-859439818D01*
X2821429Y-858439818D02*
X3440476Y-858439818D01*
X3440476Y-858439818D02*
X3107143Y-858820770D01*
X3107143Y-858820770D02*
X3250000Y-858820770D01*
X3250000Y-858820770D02*
X3345238Y-858868389D01*
X3345238Y-858868389D02*
X3392857Y-858916008D01*
X3392857Y-858916008D02*
X3440476Y-859011246D01*
X3440476Y-859011246D02*
X3440476Y-859249341D01*
X3440476Y-859249341D02*
X3392857Y-859344579D01*
X3392857Y-859344579D02*
X3345238Y-859392199D01*
X3345238Y-859392199D02*
X3250000Y-859439818D01*
X3250000Y-859439818D02*
X2964286Y-859439818D01*
X2964286Y-859439818D02*
X2869048Y-859392199D01*
X2869048Y-859392199D02*
X2821429Y-859344579D01*
X4392857Y-859439818D02*
X3821429Y-859439818D01*
X4107143Y-859439818D02*
X4107143Y-858439818D01*
X4107143Y-858439818D02*
X4011905Y-858582675D01*
X4011905Y-858582675D02*
X3916667Y-858677913D01*
X3916667Y-858677913D02*
X3821429Y-858725532D01*
%TO.C,J13*%
X2440476Y-227113872D02*
X2440476Y-227828157D01*
X2440476Y-227828157D02*
X2392857Y-227971014D01*
X2392857Y-227971014D02*
X2297619Y-228066253D01*
X2297619Y-228066253D02*
X2154762Y-228113872D01*
X2154762Y-228113872D02*
X2059524Y-228113872D01*
X3440476Y-228113872D02*
X2869048Y-228113872D01*
X3154762Y-228113872D02*
X3154762Y-227113872D01*
X3154762Y-227113872D02*
X3059524Y-227256729D01*
X3059524Y-227256729D02*
X2964286Y-227351967D01*
X2964286Y-227351967D02*
X2869048Y-227399586D01*
X3773810Y-227113872D02*
X4392857Y-227113872D01*
X4392857Y-227113872D02*
X4059524Y-227494824D01*
X4059524Y-227494824D02*
X4202381Y-227494824D01*
X4202381Y-227494824D02*
X4297619Y-227542443D01*
X4297619Y-227542443D02*
X4345238Y-227590062D01*
X4345238Y-227590062D02*
X4392857Y-227685300D01*
X4392857Y-227685300D02*
X4392857Y-227923395D01*
X4392857Y-227923395D02*
X4345238Y-228018633D01*
X4345238Y-228018633D02*
X4297619Y-228066253D01*
X4297619Y-228066253D02*
X4202381Y-228113872D01*
X4202381Y-228113872D02*
X3916667Y-228113872D01*
X3916667Y-228113872D02*
X3821429Y-228066253D01*
X3821429Y-228066253D02*
X3773810Y-228018633D01*
%TO.C,J6*%
X2916666Y-96725046D02*
X2916666Y-97439331D01*
X2916666Y-97439331D02*
X2869047Y-97582188D01*
X2869047Y-97582188D02*
X2773809Y-97677427D01*
X2773809Y-97677427D02*
X2630952Y-97725046D01*
X2630952Y-97725046D02*
X2535714Y-97725046D01*
X3821428Y-96725046D02*
X3630952Y-96725046D01*
X3630952Y-96725046D02*
X3535714Y-96772665D01*
X3535714Y-96772665D02*
X3488095Y-96820284D01*
X3488095Y-96820284D02*
X3392857Y-96963141D01*
X3392857Y-96963141D02*
X3345238Y-97153617D01*
X3345238Y-97153617D02*
X3345238Y-97534569D01*
X3345238Y-97534569D02*
X3392857Y-97629807D01*
X3392857Y-97629807D02*
X3440476Y-97677427D01*
X3440476Y-97677427D02*
X3535714Y-97725046D01*
X3535714Y-97725046D02*
X3726190Y-97725046D01*
X3726190Y-97725046D02*
X3821428Y-97677427D01*
X3821428Y-97677427D02*
X3869047Y-97629807D01*
X3869047Y-97629807D02*
X3916666Y-97534569D01*
X3916666Y-97534569D02*
X3916666Y-97296474D01*
X3916666Y-97296474D02*
X3869047Y-97201236D01*
X3869047Y-97201236D02*
X3821428Y-97153617D01*
X3821428Y-97153617D02*
X3726190Y-97105998D01*
X3726190Y-97105998D02*
X3535714Y-97105998D01*
X3535714Y-97105998D02*
X3440476Y-97153617D01*
X3440476Y-97153617D02*
X3392857Y-97201236D01*
X3392857Y-97201236D02*
X3345238Y-97296474D01*
%TO.C,J40*%
X2440476Y-1081092854D02*
X2440476Y-1081807139D01*
X2440476Y-1081807139D02*
X2392857Y-1081949996D01*
X2392857Y-1081949996D02*
X2297619Y-1082045235D01*
X2297619Y-1082045235D02*
X2154762Y-1082092854D01*
X2154762Y-1082092854D02*
X2059524Y-1082092854D01*
X3345238Y-1081426187D02*
X3345238Y-1082092854D01*
X3107143Y-1081045235D02*
X2869048Y-1081759520D01*
X2869048Y-1081759520D02*
X3488095Y-1081759520D01*
X4059524Y-1081092854D02*
X4154762Y-1081092854D01*
X4154762Y-1081092854D02*
X4250000Y-1081140473D01*
X4250000Y-1081140473D02*
X4297619Y-1081188092D01*
X4297619Y-1081188092D02*
X4345238Y-1081283330D01*
X4345238Y-1081283330D02*
X4392857Y-1081473806D01*
X4392857Y-1081473806D02*
X4392857Y-1081711901D01*
X4392857Y-1081711901D02*
X4345238Y-1081902377D01*
X4345238Y-1081902377D02*
X4297619Y-1081997615D01*
X4297619Y-1081997615D02*
X4250000Y-1082045235D01*
X4250000Y-1082045235D02*
X4154762Y-1082092854D01*
X4154762Y-1082092854D02*
X4059524Y-1082092854D01*
X4059524Y-1082092854D02*
X3964286Y-1082045235D01*
X3964286Y-1082045235D02*
X3916667Y-1081997615D01*
X3916667Y-1081997615D02*
X3869048Y-1081902377D01*
X3869048Y-1081902377D02*
X3821429Y-1081711901D01*
X3821429Y-1081711901D02*
X3821429Y-1081473806D01*
X3821429Y-1081473806D02*
X3869048Y-1081283330D01*
X3869048Y-1081283330D02*
X3916667Y-1081188092D01*
X3916667Y-1081188092D02*
X3964286Y-1081140473D01*
X3964286Y-1081140473D02*
X4059524Y-1081092854D01*
%TO.C,J55*%
X2440476Y-1447218303D02*
X2440476Y-1447932588D01*
X2440476Y-1447932588D02*
X2392857Y-1448075445D01*
X2392857Y-1448075445D02*
X2297619Y-1448170684D01*
X2297619Y-1448170684D02*
X2154762Y-1448218303D01*
X2154762Y-1448218303D02*
X2059524Y-1448218303D01*
X3392857Y-1447218303D02*
X2916667Y-1447218303D01*
X2916667Y-1447218303D02*
X2869048Y-1447694493D01*
X2869048Y-1447694493D02*
X2916667Y-1447646874D01*
X2916667Y-1447646874D02*
X3011905Y-1447599255D01*
X3011905Y-1447599255D02*
X3250000Y-1447599255D01*
X3250000Y-1447599255D02*
X3345238Y-1447646874D01*
X3345238Y-1447646874D02*
X3392857Y-1447694493D01*
X3392857Y-1447694493D02*
X3440476Y-1447789731D01*
X3440476Y-1447789731D02*
X3440476Y-1448027826D01*
X3440476Y-1448027826D02*
X3392857Y-1448123064D01*
X3392857Y-1448123064D02*
X3345238Y-1448170684D01*
X3345238Y-1448170684D02*
X3250000Y-1448218303D01*
X3250000Y-1448218303D02*
X3011905Y-1448218303D01*
X3011905Y-1448218303D02*
X2916667Y-1448170684D01*
X2916667Y-1448170684D02*
X2869048Y-1448123064D01*
X4345238Y-1447218303D02*
X3869048Y-1447218303D01*
X3869048Y-1447218303D02*
X3821429Y-1447694493D01*
X3821429Y-1447694493D02*
X3869048Y-1447646874D01*
X3869048Y-1447646874D02*
X3964286Y-1447599255D01*
X3964286Y-1447599255D02*
X4202381Y-1447599255D01*
X4202381Y-1447599255D02*
X4297619Y-1447646874D01*
X4297619Y-1447646874D02*
X4345238Y-1447694493D01*
X4345238Y-1447694493D02*
X4392857Y-1447789731D01*
X4392857Y-1447789731D02*
X4392857Y-1448027826D01*
X4392857Y-1448027826D02*
X4345238Y-1448123064D01*
X4345238Y-1448123064D02*
X4297619Y-1448170684D01*
X4297619Y-1448170684D02*
X4202381Y-1448218303D01*
X4202381Y-1448218303D02*
X3964286Y-1448218303D01*
X3964286Y-1448218303D02*
X3869048Y-1448170684D01*
X3869048Y-1448170684D02*
X3821429Y-1448123064D01*
%TO.C,J48*%
X2440476Y-1349414899D02*
X2440476Y-1350129184D01*
X2440476Y-1350129184D02*
X2392857Y-1350272041D01*
X2392857Y-1350272041D02*
X2297619Y-1350367280D01*
X2297619Y-1350367280D02*
X2154762Y-1350414899D01*
X2154762Y-1350414899D02*
X2059524Y-1350414899D01*
X3345238Y-1349748232D02*
X3345238Y-1350414899D01*
X3107143Y-1349367280D02*
X2869048Y-1350081565D01*
X2869048Y-1350081565D02*
X3488095Y-1350081565D01*
X4011905Y-1349843470D02*
X3916667Y-1349795851D01*
X3916667Y-1349795851D02*
X3869048Y-1349748232D01*
X3869048Y-1349748232D02*
X3821429Y-1349652994D01*
X3821429Y-1349652994D02*
X3821429Y-1349605375D01*
X3821429Y-1349605375D02*
X3869048Y-1349510137D01*
X3869048Y-1349510137D02*
X3916667Y-1349462518D01*
X3916667Y-1349462518D02*
X4011905Y-1349414899D01*
X4011905Y-1349414899D02*
X4202381Y-1349414899D01*
X4202381Y-1349414899D02*
X4297619Y-1349462518D01*
X4297619Y-1349462518D02*
X4345238Y-1349510137D01*
X4345238Y-1349510137D02*
X4392857Y-1349605375D01*
X4392857Y-1349605375D02*
X4392857Y-1349652994D01*
X4392857Y-1349652994D02*
X4345238Y-1349748232D01*
X4345238Y-1349748232D02*
X4297619Y-1349795851D01*
X4297619Y-1349795851D02*
X4202381Y-1349843470D01*
X4202381Y-1349843470D02*
X4011905Y-1349843470D01*
X4011905Y-1349843470D02*
X3916667Y-1349891089D01*
X3916667Y-1349891089D02*
X3869048Y-1349938708D01*
X3869048Y-1349938708D02*
X3821429Y-1350033946D01*
X3821429Y-1350033946D02*
X3821429Y-1350224422D01*
X3821429Y-1350224422D02*
X3869048Y-1350319660D01*
X3869048Y-1350319660D02*
X3916667Y-1350367280D01*
X3916667Y-1350367280D02*
X4011905Y-1350414899D01*
X4011905Y-1350414899D02*
X4202381Y-1350414899D01*
X4202381Y-1350414899D02*
X4297619Y-1350367280D01*
X4297619Y-1350367280D02*
X4345238Y-1350319660D01*
X4345238Y-1350319660D02*
X4392857Y-1350224422D01*
X4392857Y-1350224422D02*
X4392857Y-1350033946D01*
X4392857Y-1350033946D02*
X4345238Y-1349938708D01*
X4345238Y-1349938708D02*
X4297619Y-1349891089D01*
X4297619Y-1349891089D02*
X4202381Y-1349843470D01*
%TO.C,J51*%
X2440476Y-1393659296D02*
X2440476Y-1394373581D01*
X2440476Y-1394373581D02*
X2392857Y-1394516438D01*
X2392857Y-1394516438D02*
X2297619Y-1394611677D01*
X2297619Y-1394611677D02*
X2154762Y-1394659296D01*
X2154762Y-1394659296D02*
X2059524Y-1394659296D01*
X3392857Y-1393659296D02*
X2916667Y-1393659296D01*
X2916667Y-1393659296D02*
X2869048Y-1394135486D01*
X2869048Y-1394135486D02*
X2916667Y-1394087867D01*
X2916667Y-1394087867D02*
X3011905Y-1394040248D01*
X3011905Y-1394040248D02*
X3250000Y-1394040248D01*
X3250000Y-1394040248D02*
X3345238Y-1394087867D01*
X3345238Y-1394087867D02*
X3392857Y-1394135486D01*
X3392857Y-1394135486D02*
X3440476Y-1394230724D01*
X3440476Y-1394230724D02*
X3440476Y-1394468819D01*
X3440476Y-1394468819D02*
X3392857Y-1394564057D01*
X3392857Y-1394564057D02*
X3345238Y-1394611677D01*
X3345238Y-1394611677D02*
X3250000Y-1394659296D01*
X3250000Y-1394659296D02*
X3011905Y-1394659296D01*
X3011905Y-1394659296D02*
X2916667Y-1394611677D01*
X2916667Y-1394611677D02*
X2869048Y-1394564057D01*
X4392857Y-1394659296D02*
X3821429Y-1394659296D01*
X4107143Y-1394659296D02*
X4107143Y-1393659296D01*
X4107143Y-1393659296D02*
X4011905Y-1393802153D01*
X4011905Y-1393802153D02*
X3916667Y-1393897391D01*
X3916667Y-1393897391D02*
X3821429Y-1393945010D01*
%TO.C,J39*%
X2440476Y-1049064415D02*
X2440476Y-1049778700D01*
X2440476Y-1049778700D02*
X2392857Y-1049921557D01*
X2392857Y-1049921557D02*
X2297619Y-1050016796D01*
X2297619Y-1050016796D02*
X2154762Y-1050064415D01*
X2154762Y-1050064415D02*
X2059524Y-1050064415D01*
X2821429Y-1049064415D02*
X3440476Y-1049064415D01*
X3440476Y-1049064415D02*
X3107143Y-1049445367D01*
X3107143Y-1049445367D02*
X3250000Y-1049445367D01*
X3250000Y-1049445367D02*
X3345238Y-1049492986D01*
X3345238Y-1049492986D02*
X3392857Y-1049540605D01*
X3392857Y-1049540605D02*
X3440476Y-1049635843D01*
X3440476Y-1049635843D02*
X3440476Y-1049873938D01*
X3440476Y-1049873938D02*
X3392857Y-1049969176D01*
X3392857Y-1049969176D02*
X3345238Y-1050016796D01*
X3345238Y-1050016796D02*
X3250000Y-1050064415D01*
X3250000Y-1050064415D02*
X2964286Y-1050064415D01*
X2964286Y-1050064415D02*
X2869048Y-1050016796D01*
X2869048Y-1050016796D02*
X2821429Y-1049969176D01*
X3916667Y-1050064415D02*
X4107143Y-1050064415D01*
X4107143Y-1050064415D02*
X4202381Y-1050016796D01*
X4202381Y-1050016796D02*
X4250000Y-1049969176D01*
X4250000Y-1049969176D02*
X4345238Y-1049826319D01*
X4345238Y-1049826319D02*
X4392857Y-1049635843D01*
X4392857Y-1049635843D02*
X4392857Y-1049254891D01*
X4392857Y-1049254891D02*
X4345238Y-1049159653D01*
X4345238Y-1049159653D02*
X4297619Y-1049112034D01*
X4297619Y-1049112034D02*
X4202381Y-1049064415D01*
X4202381Y-1049064415D02*
X4011905Y-1049064415D01*
X4011905Y-1049064415D02*
X3916667Y-1049112034D01*
X3916667Y-1049112034D02*
X3869048Y-1049159653D01*
X3869048Y-1049159653D02*
X3821429Y-1049254891D01*
X3821429Y-1049254891D02*
X3821429Y-1049492986D01*
X3821429Y-1049492986D02*
X3869048Y-1049588224D01*
X3869048Y-1049588224D02*
X3916667Y-1049635843D01*
X3916667Y-1049635843D02*
X4011905Y-1049683462D01*
X4011905Y-1049683462D02*
X4202381Y-1049683462D01*
X4202381Y-1049683462D02*
X4297619Y-1049635843D01*
X4297619Y-1049635843D02*
X4345238Y-1049588224D01*
X4345238Y-1049588224D02*
X4392857Y-1049492986D01*
%TO.C,J5*%
X2916666Y-83167619D02*
X2916666Y-83881904D01*
X2916666Y-83881904D02*
X2869047Y-84024761D01*
X2869047Y-84024761D02*
X2773809Y-84120000D01*
X2773809Y-84120000D02*
X2630952Y-84167619D01*
X2630952Y-84167619D02*
X2535714Y-84167619D01*
X3869047Y-83167619D02*
X3392857Y-83167619D01*
X3392857Y-83167619D02*
X3345238Y-83643809D01*
X3345238Y-83643809D02*
X3392857Y-83596190D01*
X3392857Y-83596190D02*
X3488095Y-83548571D01*
X3488095Y-83548571D02*
X3726190Y-83548571D01*
X3726190Y-83548571D02*
X3821428Y-83596190D01*
X3821428Y-83596190D02*
X3869047Y-83643809D01*
X3869047Y-83643809D02*
X3916666Y-83739047D01*
X3916666Y-83739047D02*
X3916666Y-83977142D01*
X3916666Y-83977142D02*
X3869047Y-84072380D01*
X3869047Y-84072380D02*
X3821428Y-84120000D01*
X3821428Y-84120000D02*
X3726190Y-84167619D01*
X3726190Y-84167619D02*
X3488095Y-84167619D01*
X3488095Y-84167619D02*
X3392857Y-84120000D01*
X3392857Y-84120000D02*
X3345238Y-84072380D01*
%TO.C,J25*%
X2440476Y-606759034D02*
X2440476Y-607473319D01*
X2440476Y-607473319D02*
X2392857Y-607616176D01*
X2392857Y-607616176D02*
X2297619Y-607711415D01*
X2297619Y-607711415D02*
X2154762Y-607759034D01*
X2154762Y-607759034D02*
X2059524Y-607759034D01*
X2869048Y-606854272D02*
X2916667Y-606806653D01*
X2916667Y-606806653D02*
X3011905Y-606759034D01*
X3011905Y-606759034D02*
X3250000Y-606759034D01*
X3250000Y-606759034D02*
X3345238Y-606806653D01*
X3345238Y-606806653D02*
X3392857Y-606854272D01*
X3392857Y-606854272D02*
X3440476Y-606949510D01*
X3440476Y-606949510D02*
X3440476Y-607044748D01*
X3440476Y-607044748D02*
X3392857Y-607187605D01*
X3392857Y-607187605D02*
X2821429Y-607759034D01*
X2821429Y-607759034D02*
X3440476Y-607759034D01*
X4345238Y-606759034D02*
X3869048Y-606759034D01*
X3869048Y-606759034D02*
X3821429Y-607235224D01*
X3821429Y-607235224D02*
X3869048Y-607187605D01*
X3869048Y-607187605D02*
X3964286Y-607139986D01*
X3964286Y-607139986D02*
X4202381Y-607139986D01*
X4202381Y-607139986D02*
X4297619Y-607187605D01*
X4297619Y-607187605D02*
X4345238Y-607235224D01*
X4345238Y-607235224D02*
X4392857Y-607330462D01*
X4392857Y-607330462D02*
X4392857Y-607568557D01*
X4392857Y-607568557D02*
X4345238Y-607663795D01*
X4345238Y-607663795D02*
X4297619Y-607711415D01*
X4297619Y-607711415D02*
X4202381Y-607759034D01*
X4202381Y-607759034D02*
X3964286Y-607759034D01*
X3964286Y-607759034D02*
X3869048Y-607711415D01*
X3869048Y-607711415D02*
X3821429Y-607663795D01*
%TO.C,J27*%
X2440476Y-666019405D02*
X2440476Y-666733690D01*
X2440476Y-666733690D02*
X2392857Y-666876547D01*
X2392857Y-666876547D02*
X2297619Y-666971786D01*
X2297619Y-666971786D02*
X2154762Y-667019405D01*
X2154762Y-667019405D02*
X2059524Y-667019405D01*
X2869048Y-666114643D02*
X2916667Y-666067024D01*
X2916667Y-666067024D02*
X3011905Y-666019405D01*
X3011905Y-666019405D02*
X3250000Y-666019405D01*
X3250000Y-666019405D02*
X3345238Y-666067024D01*
X3345238Y-666067024D02*
X3392857Y-666114643D01*
X3392857Y-666114643D02*
X3440476Y-666209881D01*
X3440476Y-666209881D02*
X3440476Y-666305119D01*
X3440476Y-666305119D02*
X3392857Y-666447976D01*
X3392857Y-666447976D02*
X2821429Y-667019405D01*
X2821429Y-667019405D02*
X3440476Y-667019405D01*
X3773810Y-666019405D02*
X4440476Y-666019405D01*
X4440476Y-666019405D02*
X4011905Y-667019405D01*
%TO.C,J2*%
X2916666Y-44218216D02*
X2916666Y-44932501D01*
X2916666Y-44932501D02*
X2869047Y-45075358D01*
X2869047Y-45075358D02*
X2773809Y-45170597D01*
X2773809Y-45170597D02*
X2630952Y-45218216D01*
X2630952Y-45218216D02*
X2535714Y-45218216D01*
X3345238Y-44313454D02*
X3392857Y-44265835D01*
X3392857Y-44265835D02*
X3488095Y-44218216D01*
X3488095Y-44218216D02*
X3726190Y-44218216D01*
X3726190Y-44218216D02*
X3821428Y-44265835D01*
X3821428Y-44265835D02*
X3869047Y-44313454D01*
X3869047Y-44313454D02*
X3916666Y-44408692D01*
X3916666Y-44408692D02*
X3916666Y-44503930D01*
X3916666Y-44503930D02*
X3869047Y-44646787D01*
X3869047Y-44646787D02*
X3297619Y-45218216D01*
X3297619Y-45218216D02*
X3916666Y-45218216D01*
%TO.C,J17*%
X2440476Y-410740085D02*
X2440476Y-411454370D01*
X2440476Y-411454370D02*
X2392857Y-411597227D01*
X2392857Y-411597227D02*
X2297619Y-411692466D01*
X2297619Y-411692466D02*
X2154762Y-411740085D01*
X2154762Y-411740085D02*
X2059524Y-411740085D01*
X3440476Y-411740085D02*
X2869048Y-411740085D01*
X3154762Y-411740085D02*
X3154762Y-410740085D01*
X3154762Y-410740085D02*
X3059524Y-410882942D01*
X3059524Y-410882942D02*
X2964286Y-410978180D01*
X2964286Y-410978180D02*
X2869048Y-411025799D01*
X3773810Y-410740085D02*
X4440476Y-410740085D01*
X4440476Y-410740085D02*
X4011905Y-411740085D01*
%TO.C,J16*%
X2440476Y-364502619D02*
X2440476Y-365216904D01*
X2440476Y-365216904D02*
X2392857Y-365359761D01*
X2392857Y-365359761D02*
X2297619Y-365455000D01*
X2297619Y-365455000D02*
X2154762Y-365502619D01*
X2154762Y-365502619D02*
X2059524Y-365502619D01*
X3440476Y-365502619D02*
X2869048Y-365502619D01*
X3154762Y-365502619D02*
X3154762Y-364502619D01*
X3154762Y-364502619D02*
X3059524Y-364645476D01*
X3059524Y-364645476D02*
X2964286Y-364740714D01*
X2964286Y-364740714D02*
X2869048Y-364788333D01*
X4297619Y-364502619D02*
X4107143Y-364502619D01*
X4107143Y-364502619D02*
X4011905Y-364550238D01*
X4011905Y-364550238D02*
X3964286Y-364597857D01*
X3964286Y-364597857D02*
X3869048Y-364740714D01*
X3869048Y-364740714D02*
X3821429Y-364931190D01*
X3821429Y-364931190D02*
X3821429Y-365312142D01*
X3821429Y-365312142D02*
X3869048Y-365407380D01*
X3869048Y-365407380D02*
X3916667Y-365455000D01*
X3916667Y-365455000D02*
X4011905Y-365502619D01*
X4011905Y-365502619D02*
X4202381Y-365502619D01*
X4202381Y-365502619D02*
X4297619Y-365455000D01*
X4297619Y-365455000D02*
X4345238Y-365407380D01*
X4345238Y-365407380D02*
X4392857Y-365312142D01*
X4392857Y-365312142D02*
X4392857Y-365074047D01*
X4392857Y-365074047D02*
X4345238Y-364978809D01*
X4345238Y-364978809D02*
X4297619Y-364931190D01*
X4297619Y-364931190D02*
X4202381Y-364883571D01*
X4202381Y-364883571D02*
X4011905Y-364883571D01*
X4011905Y-364883571D02*
X3916667Y-364931190D01*
X3916667Y-364931190D02*
X3869048Y-364978809D01*
X3869048Y-364978809D02*
X3821429Y-365074047D01*
%TO.C,J30*%
X2440476Y-825876003D02*
X2440476Y-826590288D01*
X2440476Y-826590288D02*
X2392857Y-826733145D01*
X2392857Y-826733145D02*
X2297619Y-826828384D01*
X2297619Y-826828384D02*
X2154762Y-826876003D01*
X2154762Y-826876003D02*
X2059524Y-826876003D01*
X2821429Y-825876003D02*
X3440476Y-825876003D01*
X3440476Y-825876003D02*
X3107143Y-826256955D01*
X3107143Y-826256955D02*
X3250000Y-826256955D01*
X3250000Y-826256955D02*
X3345238Y-826304574D01*
X3345238Y-826304574D02*
X3392857Y-826352193D01*
X3392857Y-826352193D02*
X3440476Y-826447431D01*
X3440476Y-826447431D02*
X3440476Y-826685526D01*
X3440476Y-826685526D02*
X3392857Y-826780764D01*
X3392857Y-826780764D02*
X3345238Y-826828384D01*
X3345238Y-826828384D02*
X3250000Y-826876003D01*
X3250000Y-826876003D02*
X2964286Y-826876003D01*
X2964286Y-826876003D02*
X2869048Y-826828384D01*
X2869048Y-826828384D02*
X2821429Y-826780764D01*
X4059524Y-825876003D02*
X4154762Y-825876003D01*
X4154762Y-825876003D02*
X4250000Y-825923622D01*
X4250000Y-825923622D02*
X4297619Y-825971241D01*
X4297619Y-825971241D02*
X4345238Y-826066479D01*
X4345238Y-826066479D02*
X4392857Y-826256955D01*
X4392857Y-826256955D02*
X4392857Y-826495050D01*
X4392857Y-826495050D02*
X4345238Y-826685526D01*
X4345238Y-826685526D02*
X4297619Y-826780764D01*
X4297619Y-826780764D02*
X4250000Y-826828384D01*
X4250000Y-826828384D02*
X4154762Y-826876003D01*
X4154762Y-826876003D02*
X4059524Y-826876003D01*
X4059524Y-826876003D02*
X3964286Y-826828384D01*
X3964286Y-826828384D02*
X3916667Y-826780764D01*
X3916667Y-826780764D02*
X3869048Y-826685526D01*
X3869048Y-826685526D02*
X3821429Y-826495050D01*
X3821429Y-826495050D02*
X3821429Y-826256955D01*
X3821429Y-826256955D02*
X3869048Y-826066479D01*
X3869048Y-826066479D02*
X3916667Y-825971241D01*
X3916667Y-825971241D02*
X3964286Y-825923622D01*
X3964286Y-825923622D02*
X4059524Y-825876003D01*
%TO.C,J24*%
X2440476Y-582828172D02*
X2440476Y-583542457D01*
X2440476Y-583542457D02*
X2392857Y-583685314D01*
X2392857Y-583685314D02*
X2297619Y-583780553D01*
X2297619Y-583780553D02*
X2154762Y-583828172D01*
X2154762Y-583828172D02*
X2059524Y-583828172D01*
X2869048Y-582923410D02*
X2916667Y-582875791D01*
X2916667Y-582875791D02*
X3011905Y-582828172D01*
X3011905Y-582828172D02*
X3250000Y-582828172D01*
X3250000Y-582828172D02*
X3345238Y-582875791D01*
X3345238Y-582875791D02*
X3392857Y-582923410D01*
X3392857Y-582923410D02*
X3440476Y-583018648D01*
X3440476Y-583018648D02*
X3440476Y-583113886D01*
X3440476Y-583113886D02*
X3392857Y-583256743D01*
X3392857Y-583256743D02*
X2821429Y-583828172D01*
X2821429Y-583828172D02*
X3440476Y-583828172D01*
X4297619Y-583161505D02*
X4297619Y-583828172D01*
X4059524Y-582780553D02*
X3821429Y-583494838D01*
X3821429Y-583494838D02*
X4440476Y-583494838D01*
%TO.C,J8*%
X2916666Y-125882619D02*
X2916666Y-126596904D01*
X2916666Y-126596904D02*
X2869047Y-126739761D01*
X2869047Y-126739761D02*
X2773809Y-126835000D01*
X2773809Y-126835000D02*
X2630952Y-126882619D01*
X2630952Y-126882619D02*
X2535714Y-126882619D01*
X3535714Y-126311190D02*
X3440476Y-126263571D01*
X3440476Y-126263571D02*
X3392857Y-126215952D01*
X3392857Y-126215952D02*
X3345238Y-126120714D01*
X3345238Y-126120714D02*
X3345238Y-126073095D01*
X3345238Y-126073095D02*
X3392857Y-125977857D01*
X3392857Y-125977857D02*
X3440476Y-125930238D01*
X3440476Y-125930238D02*
X3535714Y-125882619D01*
X3535714Y-125882619D02*
X3726190Y-125882619D01*
X3726190Y-125882619D02*
X3821428Y-125930238D01*
X3821428Y-125930238D02*
X3869047Y-125977857D01*
X3869047Y-125977857D02*
X3916666Y-126073095D01*
X3916666Y-126073095D02*
X3916666Y-126120714D01*
X3916666Y-126120714D02*
X3869047Y-126215952D01*
X3869047Y-126215952D02*
X3821428Y-126263571D01*
X3821428Y-126263571D02*
X3726190Y-126311190D01*
X3726190Y-126311190D02*
X3535714Y-126311190D01*
X3535714Y-126311190D02*
X3440476Y-126358809D01*
X3440476Y-126358809D02*
X3392857Y-126406428D01*
X3392857Y-126406428D02*
X3345238Y-126501666D01*
X3345238Y-126501666D02*
X3345238Y-126692142D01*
X3345238Y-126692142D02*
X3392857Y-126787380D01*
X3392857Y-126787380D02*
X3440476Y-126835000D01*
X3440476Y-126835000D02*
X3535714Y-126882619D01*
X3535714Y-126882619D02*
X3726190Y-126882619D01*
X3726190Y-126882619D02*
X3821428Y-126835000D01*
X3821428Y-126835000D02*
X3869047Y-126787380D01*
X3869047Y-126787380D02*
X3916666Y-126692142D01*
X3916666Y-126692142D02*
X3916666Y-126501666D01*
X3916666Y-126501666D02*
X3869047Y-126406428D01*
X3869047Y-126406428D02*
X3821428Y-126358809D01*
X3821428Y-126358809D02*
X3726190Y-126311190D01*
%TO.C,J3*%
X2916666Y-56912619D02*
X2916666Y-57626904D01*
X2916666Y-57626904D02*
X2869047Y-57769761D01*
X2869047Y-57769761D02*
X2773809Y-57865000D01*
X2773809Y-57865000D02*
X2630952Y-57912619D01*
X2630952Y-57912619D02*
X2535714Y-57912619D01*
X3297619Y-56912619D02*
X3916666Y-56912619D01*
X3916666Y-56912619D02*
X3583333Y-57293571D01*
X3583333Y-57293571D02*
X3726190Y-57293571D01*
X3726190Y-57293571D02*
X3821428Y-57341190D01*
X3821428Y-57341190D02*
X3869047Y-57388809D01*
X3869047Y-57388809D02*
X3916666Y-57484047D01*
X3916666Y-57484047D02*
X3916666Y-57722142D01*
X3916666Y-57722142D02*
X3869047Y-57817380D01*
X3869047Y-57817380D02*
X3821428Y-57865000D01*
X3821428Y-57865000D02*
X3726190Y-57912619D01*
X3726190Y-57912619D02*
X3440476Y-57912619D01*
X3440476Y-57912619D02*
X3345238Y-57865000D01*
X3345238Y-57865000D02*
X3297619Y-57817380D01*
%TO.C,J47*%
X2468246Y-1332580683D02*
X2468246Y-1333294968D01*
X2468246Y-1333294968D02*
X2420627Y-1333437825D01*
X2420627Y-1333437825D02*
X2325389Y-1333533064D01*
X2325389Y-1333533064D02*
X2182532Y-1333580683D01*
X2182532Y-1333580683D02*
X2087294Y-1333580683D01*
X3373008Y-1332914016D02*
X3373008Y-1333580683D01*
X3134913Y-1332533064D02*
X2896818Y-1333247349D01*
X2896818Y-1333247349D02*
X3515865Y-1333247349D01*
X3801580Y-1332580683D02*
X4468246Y-1332580683D01*
X4468246Y-1332580683D02*
X4039675Y-1333580683D01*
%TO.C,J23*%
X2440476Y-560098892D02*
X2440476Y-560813177D01*
X2440476Y-560813177D02*
X2392857Y-560956034D01*
X2392857Y-560956034D02*
X2297619Y-561051273D01*
X2297619Y-561051273D02*
X2154762Y-561098892D01*
X2154762Y-561098892D02*
X2059524Y-561098892D01*
X2869048Y-560194130D02*
X2916667Y-560146511D01*
X2916667Y-560146511D02*
X3011905Y-560098892D01*
X3011905Y-560098892D02*
X3250000Y-560098892D01*
X3250000Y-560098892D02*
X3345238Y-560146511D01*
X3345238Y-560146511D02*
X3392857Y-560194130D01*
X3392857Y-560194130D02*
X3440476Y-560289368D01*
X3440476Y-560289368D02*
X3440476Y-560384606D01*
X3440476Y-560384606D02*
X3392857Y-560527463D01*
X3392857Y-560527463D02*
X2821429Y-561098892D01*
X2821429Y-561098892D02*
X3440476Y-561098892D01*
X3773810Y-560098892D02*
X4392857Y-560098892D01*
X4392857Y-560098892D02*
X4059524Y-560479844D01*
X4059524Y-560479844D02*
X4202381Y-560479844D01*
X4202381Y-560479844D02*
X4297619Y-560527463D01*
X4297619Y-560527463D02*
X4345238Y-560575082D01*
X4345238Y-560575082D02*
X4392857Y-560670320D01*
X4392857Y-560670320D02*
X4392857Y-560908415D01*
X4392857Y-560908415D02*
X4345238Y-561003653D01*
X4345238Y-561003653D02*
X4297619Y-561051273D01*
X4297619Y-561051273D02*
X4202381Y-561098892D01*
X4202381Y-561098892D02*
X3916667Y-561098892D01*
X3916667Y-561098892D02*
X3821429Y-561051273D01*
X3821429Y-561051273D02*
X3773810Y-561003653D01*
%TO.C,J28*%
X2440476Y-716941508D02*
X2440476Y-717655793D01*
X2440476Y-717655793D02*
X2392857Y-717798650D01*
X2392857Y-717798650D02*
X2297619Y-717893889D01*
X2297619Y-717893889D02*
X2154762Y-717941508D01*
X2154762Y-717941508D02*
X2059524Y-717941508D01*
X2869048Y-717036746D02*
X2916667Y-716989127D01*
X2916667Y-716989127D02*
X3011905Y-716941508D01*
X3011905Y-716941508D02*
X3250000Y-716941508D01*
X3250000Y-716941508D02*
X3345238Y-716989127D01*
X3345238Y-716989127D02*
X3392857Y-717036746D01*
X3392857Y-717036746D02*
X3440476Y-717131984D01*
X3440476Y-717131984D02*
X3440476Y-717227222D01*
X3440476Y-717227222D02*
X3392857Y-717370079D01*
X3392857Y-717370079D02*
X2821429Y-717941508D01*
X2821429Y-717941508D02*
X3440476Y-717941508D01*
X4011905Y-717370079D02*
X3916667Y-717322460D01*
X3916667Y-717322460D02*
X3869048Y-717274841D01*
X3869048Y-717274841D02*
X3821429Y-717179603D01*
X3821429Y-717179603D02*
X3821429Y-717131984D01*
X3821429Y-717131984D02*
X3869048Y-717036746D01*
X3869048Y-717036746D02*
X3916667Y-716989127D01*
X3916667Y-716989127D02*
X4011905Y-716941508D01*
X4011905Y-716941508D02*
X4202381Y-716941508D01*
X4202381Y-716941508D02*
X4297619Y-716989127D01*
X4297619Y-716989127D02*
X4345238Y-717036746D01*
X4345238Y-717036746D02*
X4392857Y-717131984D01*
X4392857Y-717131984D02*
X4392857Y-717179603D01*
X4392857Y-717179603D02*
X4345238Y-717274841D01*
X4345238Y-717274841D02*
X4297619Y-717322460D01*
X4297619Y-717322460D02*
X4202381Y-717370079D01*
X4202381Y-717370079D02*
X4011905Y-717370079D01*
X4011905Y-717370079D02*
X3916667Y-717417698D01*
X3916667Y-717417698D02*
X3869048Y-717465317D01*
X3869048Y-717465317D02*
X3821429Y-717560555D01*
X3821429Y-717560555D02*
X3821429Y-717751031D01*
X3821429Y-717751031D02*
X3869048Y-717846269D01*
X3869048Y-717846269D02*
X3916667Y-717893889D01*
X3916667Y-717893889D02*
X4011905Y-717941508D01*
X4011905Y-717941508D02*
X4202381Y-717941508D01*
X4202381Y-717941508D02*
X4297619Y-717893889D01*
X4297619Y-717893889D02*
X4345238Y-717846269D01*
X4345238Y-717846269D02*
X4392857Y-717751031D01*
X4392857Y-717751031D02*
X4392857Y-717560555D01*
X4392857Y-717560555D02*
X4345238Y-717465317D01*
X4345238Y-717465317D02*
X4297619Y-717417698D01*
X4297619Y-717417698D02*
X4202381Y-717370079D01*
%TO.C,J22*%
X2440476Y-538062346D02*
X2440476Y-538776631D01*
X2440476Y-538776631D02*
X2392857Y-538919488D01*
X2392857Y-538919488D02*
X2297619Y-539014727D01*
X2297619Y-539014727D02*
X2154762Y-539062346D01*
X2154762Y-539062346D02*
X2059524Y-539062346D01*
X2869048Y-538157584D02*
X2916667Y-538109965D01*
X2916667Y-538109965D02*
X3011905Y-538062346D01*
X3011905Y-538062346D02*
X3250000Y-538062346D01*
X3250000Y-538062346D02*
X3345238Y-538109965D01*
X3345238Y-538109965D02*
X3392857Y-538157584D01*
X3392857Y-538157584D02*
X3440476Y-538252822D01*
X3440476Y-538252822D02*
X3440476Y-538348060D01*
X3440476Y-538348060D02*
X3392857Y-538490917D01*
X3392857Y-538490917D02*
X2821429Y-539062346D01*
X2821429Y-539062346D02*
X3440476Y-539062346D01*
X3821429Y-538157584D02*
X3869048Y-538109965D01*
X3869048Y-538109965D02*
X3964286Y-538062346D01*
X3964286Y-538062346D02*
X4202381Y-538062346D01*
X4202381Y-538062346D02*
X4297619Y-538109965D01*
X4297619Y-538109965D02*
X4345238Y-538157584D01*
X4345238Y-538157584D02*
X4392857Y-538252822D01*
X4392857Y-538252822D02*
X4392857Y-538348060D01*
X4392857Y-538348060D02*
X4345238Y-538490917D01*
X4345238Y-538490917D02*
X3773810Y-539062346D01*
X3773810Y-539062346D02*
X4392857Y-539062346D01*
%TO.C,J32*%
X2440476Y-884848321D02*
X2440476Y-885562606D01*
X2440476Y-885562606D02*
X2392857Y-885705463D01*
X2392857Y-885705463D02*
X2297619Y-885800702D01*
X2297619Y-885800702D02*
X2154762Y-885848321D01*
X2154762Y-885848321D02*
X2059524Y-885848321D01*
X2821429Y-884848321D02*
X3440476Y-884848321D01*
X3440476Y-884848321D02*
X3107143Y-885229273D01*
X3107143Y-885229273D02*
X3250000Y-885229273D01*
X3250000Y-885229273D02*
X3345238Y-885276892D01*
X3345238Y-885276892D02*
X3392857Y-885324511D01*
X3392857Y-885324511D02*
X3440476Y-885419749D01*
X3440476Y-885419749D02*
X3440476Y-885657844D01*
X3440476Y-885657844D02*
X3392857Y-885753082D01*
X3392857Y-885753082D02*
X3345238Y-885800702D01*
X3345238Y-885800702D02*
X3250000Y-885848321D01*
X3250000Y-885848321D02*
X2964286Y-885848321D01*
X2964286Y-885848321D02*
X2869048Y-885800702D01*
X2869048Y-885800702D02*
X2821429Y-885753082D01*
X3821429Y-884943559D02*
X3869048Y-884895940D01*
X3869048Y-884895940D02*
X3964286Y-884848321D01*
X3964286Y-884848321D02*
X4202381Y-884848321D01*
X4202381Y-884848321D02*
X4297619Y-884895940D01*
X4297619Y-884895940D02*
X4345238Y-884943559D01*
X4345238Y-884943559D02*
X4392857Y-885038797D01*
X4392857Y-885038797D02*
X4392857Y-885134035D01*
X4392857Y-885134035D02*
X4345238Y-885276892D01*
X4345238Y-885276892D02*
X3773810Y-885848321D01*
X3773810Y-885848321D02*
X4392857Y-885848321D01*
%TO.C,J38*%
X2440476Y-1023113074D02*
X2440476Y-1023827359D01*
X2440476Y-1023827359D02*
X2392857Y-1023970216D01*
X2392857Y-1023970216D02*
X2297619Y-1024065455D01*
X2297619Y-1024065455D02*
X2154762Y-1024113074D01*
X2154762Y-1024113074D02*
X2059524Y-1024113074D01*
X2821429Y-1023113074D02*
X3440476Y-1023113074D01*
X3440476Y-1023113074D02*
X3107143Y-1023494026D01*
X3107143Y-1023494026D02*
X3250000Y-1023494026D01*
X3250000Y-1023494026D02*
X3345238Y-1023541645D01*
X3345238Y-1023541645D02*
X3392857Y-1023589264D01*
X3392857Y-1023589264D02*
X3440476Y-1023684502D01*
X3440476Y-1023684502D02*
X3440476Y-1023922597D01*
X3440476Y-1023922597D02*
X3392857Y-1024017835D01*
X3392857Y-1024017835D02*
X3345238Y-1024065455D01*
X3345238Y-1024065455D02*
X3250000Y-1024113074D01*
X3250000Y-1024113074D02*
X2964286Y-1024113074D01*
X2964286Y-1024113074D02*
X2869048Y-1024065455D01*
X2869048Y-1024065455D02*
X2821429Y-1024017835D01*
X4011905Y-1023541645D02*
X3916667Y-1023494026D01*
X3916667Y-1023494026D02*
X3869048Y-1023446407D01*
X3869048Y-1023446407D02*
X3821429Y-1023351169D01*
X3821429Y-1023351169D02*
X3821429Y-1023303550D01*
X3821429Y-1023303550D02*
X3869048Y-1023208312D01*
X3869048Y-1023208312D02*
X3916667Y-1023160693D01*
X3916667Y-1023160693D02*
X4011905Y-1023113074D01*
X4011905Y-1023113074D02*
X4202381Y-1023113074D01*
X4202381Y-1023113074D02*
X4297619Y-1023160693D01*
X4297619Y-1023160693D02*
X4345238Y-1023208312D01*
X4345238Y-1023208312D02*
X4392857Y-1023303550D01*
X4392857Y-1023303550D02*
X4392857Y-1023351169D01*
X4392857Y-1023351169D02*
X4345238Y-1023446407D01*
X4345238Y-1023446407D02*
X4297619Y-1023494026D01*
X4297619Y-1023494026D02*
X4202381Y-1023541645D01*
X4202381Y-1023541645D02*
X4011905Y-1023541645D01*
X4011905Y-1023541645D02*
X3916667Y-1023589264D01*
X3916667Y-1023589264D02*
X3869048Y-1023636883D01*
X3869048Y-1023636883D02*
X3821429Y-1023732121D01*
X3821429Y-1023732121D02*
X3821429Y-1023922597D01*
X3821429Y-1023922597D02*
X3869048Y-1024017835D01*
X3869048Y-1024017835D02*
X3916667Y-1024065455D01*
X3916667Y-1024065455D02*
X4011905Y-1024113074D01*
X4011905Y-1024113074D02*
X4202381Y-1024113074D01*
X4202381Y-1024113074D02*
X4297619Y-1024065455D01*
X4297619Y-1024065455D02*
X4345238Y-1024017835D01*
X4345238Y-1024017835D02*
X4392857Y-1023922597D01*
X4392857Y-1023922597D02*
X4392857Y-1023732121D01*
X4392857Y-1023732121D02*
X4345238Y-1023636883D01*
X4345238Y-1023636883D02*
X4297619Y-1023589264D01*
X4297619Y-1023589264D02*
X4202381Y-1023541645D01*
%TO.C,J36*%
X2440476Y-975507453D02*
X2440476Y-976221738D01*
X2440476Y-976221738D02*
X2392857Y-976364595D01*
X2392857Y-976364595D02*
X2297619Y-976459834D01*
X2297619Y-976459834D02*
X2154762Y-976507453D01*
X2154762Y-976507453D02*
X2059524Y-976507453D01*
X2821429Y-975507453D02*
X3440476Y-975507453D01*
X3440476Y-975507453D02*
X3107143Y-975888405D01*
X3107143Y-975888405D02*
X3250000Y-975888405D01*
X3250000Y-975888405D02*
X3345238Y-975936024D01*
X3345238Y-975936024D02*
X3392857Y-975983643D01*
X3392857Y-975983643D02*
X3440476Y-976078881D01*
X3440476Y-976078881D02*
X3440476Y-976316976D01*
X3440476Y-976316976D02*
X3392857Y-976412214D01*
X3392857Y-976412214D02*
X3345238Y-976459834D01*
X3345238Y-976459834D02*
X3250000Y-976507453D01*
X3250000Y-976507453D02*
X2964286Y-976507453D01*
X2964286Y-976507453D02*
X2869048Y-976459834D01*
X2869048Y-976459834D02*
X2821429Y-976412214D01*
X4297619Y-975507453D02*
X4107143Y-975507453D01*
X4107143Y-975507453D02*
X4011905Y-975555072D01*
X4011905Y-975555072D02*
X3964286Y-975602691D01*
X3964286Y-975602691D02*
X3869048Y-975745548D01*
X3869048Y-975745548D02*
X3821429Y-975936024D01*
X3821429Y-975936024D02*
X3821429Y-976316976D01*
X3821429Y-976316976D02*
X3869048Y-976412214D01*
X3869048Y-976412214D02*
X3916667Y-976459834D01*
X3916667Y-976459834D02*
X4011905Y-976507453D01*
X4011905Y-976507453D02*
X4202381Y-976507453D01*
X4202381Y-976507453D02*
X4297619Y-976459834D01*
X4297619Y-976459834D02*
X4345238Y-976412214D01*
X4345238Y-976412214D02*
X4392857Y-976316976D01*
X4392857Y-976316976D02*
X4392857Y-976078881D01*
X4392857Y-976078881D02*
X4345238Y-975983643D01*
X4345238Y-975983643D02*
X4297619Y-975936024D01*
X4297619Y-975936024D02*
X4202381Y-975888405D01*
X4202381Y-975888405D02*
X4011905Y-975888405D01*
X4011905Y-975888405D02*
X3916667Y-975936024D01*
X3916667Y-975936024D02*
X3869048Y-975983643D01*
X3869048Y-975983643D02*
X3821429Y-976078881D01*
%TO.C,J29*%
X2440476Y-774621514D02*
X2440476Y-775335799D01*
X2440476Y-775335799D02*
X2392857Y-775478656D01*
X2392857Y-775478656D02*
X2297619Y-775573895D01*
X2297619Y-775573895D02*
X2154762Y-775621514D01*
X2154762Y-775621514D02*
X2059524Y-775621514D01*
X2869048Y-774716752D02*
X2916667Y-774669133D01*
X2916667Y-774669133D02*
X3011905Y-774621514D01*
X3011905Y-774621514D02*
X3250000Y-774621514D01*
X3250000Y-774621514D02*
X3345238Y-774669133D01*
X3345238Y-774669133D02*
X3392857Y-774716752D01*
X3392857Y-774716752D02*
X3440476Y-774811990D01*
X3440476Y-774811990D02*
X3440476Y-774907228D01*
X3440476Y-774907228D02*
X3392857Y-775050085D01*
X3392857Y-775050085D02*
X2821429Y-775621514D01*
X2821429Y-775621514D02*
X3440476Y-775621514D01*
X3916667Y-775621514D02*
X4107143Y-775621514D01*
X4107143Y-775621514D02*
X4202381Y-775573895D01*
X4202381Y-775573895D02*
X4250000Y-775526275D01*
X4250000Y-775526275D02*
X4345238Y-775383418D01*
X4345238Y-775383418D02*
X4392857Y-775192942D01*
X4392857Y-775192942D02*
X4392857Y-774811990D01*
X4392857Y-774811990D02*
X4345238Y-774716752D01*
X4345238Y-774716752D02*
X4297619Y-774669133D01*
X4297619Y-774669133D02*
X4202381Y-774621514D01*
X4202381Y-774621514D02*
X4011905Y-774621514D01*
X4011905Y-774621514D02*
X3916667Y-774669133D01*
X3916667Y-774669133D02*
X3869048Y-774716752D01*
X3869048Y-774716752D02*
X3821429Y-774811990D01*
X3821429Y-774811990D02*
X3821429Y-775050085D01*
X3821429Y-775050085D02*
X3869048Y-775145323D01*
X3869048Y-775145323D02*
X3916667Y-775192942D01*
X3916667Y-775192942D02*
X4011905Y-775240561D01*
X4011905Y-775240561D02*
X4202381Y-775240561D01*
X4202381Y-775240561D02*
X4297619Y-775192942D01*
X4297619Y-775192942D02*
X4345238Y-775145323D01*
X4345238Y-775145323D02*
X4392857Y-775050085D01*
%TO.C,J12*%
X2440476Y-199193984D02*
X2440476Y-199908269D01*
X2440476Y-199908269D02*
X2392857Y-200051126D01*
X2392857Y-200051126D02*
X2297619Y-200146365D01*
X2297619Y-200146365D02*
X2154762Y-200193984D01*
X2154762Y-200193984D02*
X2059524Y-200193984D01*
X3440476Y-200193984D02*
X2869048Y-200193984D01*
X3154762Y-200193984D02*
X3154762Y-199193984D01*
X3154762Y-199193984D02*
X3059524Y-199336841D01*
X3059524Y-199336841D02*
X2964286Y-199432079D01*
X2964286Y-199432079D02*
X2869048Y-199479698D01*
X3821429Y-199289222D02*
X3869048Y-199241603D01*
X3869048Y-199241603D02*
X3964286Y-199193984D01*
X3964286Y-199193984D02*
X4202381Y-199193984D01*
X4202381Y-199193984D02*
X4297619Y-199241603D01*
X4297619Y-199241603D02*
X4345238Y-199289222D01*
X4345238Y-199289222D02*
X4392857Y-199384460D01*
X4392857Y-199384460D02*
X4392857Y-199479698D01*
X4392857Y-199479698D02*
X4345238Y-199622555D01*
X4345238Y-199622555D02*
X3773810Y-200193984D01*
X3773810Y-200193984D02*
X4392857Y-200193984D01*
%TO.C,J46*%
X2440476Y-1312804656D02*
X2440476Y-1313518941D01*
X2440476Y-1313518941D02*
X2392857Y-1313661798D01*
X2392857Y-1313661798D02*
X2297619Y-1313757037D01*
X2297619Y-1313757037D02*
X2154762Y-1313804656D01*
X2154762Y-1313804656D02*
X2059524Y-1313804656D01*
X3345238Y-1313137989D02*
X3345238Y-1313804656D01*
X3107143Y-1312757037D02*
X2869048Y-1313471322D01*
X2869048Y-1313471322D02*
X3488095Y-1313471322D01*
X4297619Y-1312804656D02*
X4107143Y-1312804656D01*
X4107143Y-1312804656D02*
X4011905Y-1312852275D01*
X4011905Y-1312852275D02*
X3964286Y-1312899894D01*
X3964286Y-1312899894D02*
X3869048Y-1313042751D01*
X3869048Y-1313042751D02*
X3821429Y-1313233227D01*
X3821429Y-1313233227D02*
X3821429Y-1313614179D01*
X3821429Y-1313614179D02*
X3869048Y-1313709417D01*
X3869048Y-1313709417D02*
X3916667Y-1313757037D01*
X3916667Y-1313757037D02*
X4011905Y-1313804656D01*
X4011905Y-1313804656D02*
X4202381Y-1313804656D01*
X4202381Y-1313804656D02*
X4297619Y-1313757037D01*
X4297619Y-1313757037D02*
X4345238Y-1313709417D01*
X4345238Y-1313709417D02*
X4392857Y-1313614179D01*
X4392857Y-1313614179D02*
X4392857Y-1313376084D01*
X4392857Y-1313376084D02*
X4345238Y-1313280846D01*
X4345238Y-1313280846D02*
X4297619Y-1313233227D01*
X4297619Y-1313233227D02*
X4202381Y-1313185608D01*
X4202381Y-1313185608D02*
X4011905Y-1313185608D01*
X4011905Y-1313185608D02*
X3916667Y-1313233227D01*
X3916667Y-1313233227D02*
X3869048Y-1313280846D01*
X3869048Y-1313280846D02*
X3821429Y-1313376084D01*
%TO.C,J43*%
X2440476Y-1224196849D02*
X2440476Y-1224911134D01*
X2440476Y-1224911134D02*
X2392857Y-1225053991D01*
X2392857Y-1225053991D02*
X2297619Y-1225149230D01*
X2297619Y-1225149230D02*
X2154762Y-1225196849D01*
X2154762Y-1225196849D02*
X2059524Y-1225196849D01*
X3345238Y-1224530182D02*
X3345238Y-1225196849D01*
X3107143Y-1224149230D02*
X2869048Y-1224863515D01*
X2869048Y-1224863515D02*
X3488095Y-1224863515D01*
X3773810Y-1224196849D02*
X4392857Y-1224196849D01*
X4392857Y-1224196849D02*
X4059524Y-1224577801D01*
X4059524Y-1224577801D02*
X4202381Y-1224577801D01*
X4202381Y-1224577801D02*
X4297619Y-1224625420D01*
X4297619Y-1224625420D02*
X4345238Y-1224673039D01*
X4345238Y-1224673039D02*
X4392857Y-1224768277D01*
X4392857Y-1224768277D02*
X4392857Y-1225006372D01*
X4392857Y-1225006372D02*
X4345238Y-1225101610D01*
X4345238Y-1225101610D02*
X4297619Y-1225149230D01*
X4297619Y-1225149230D02*
X4202381Y-1225196849D01*
X4202381Y-1225196849D02*
X3916667Y-1225196849D01*
X3916667Y-1225196849D02*
X3821429Y-1225149230D01*
X3821429Y-1225149230D02*
X3773810Y-1225101610D01*
%TO.C,J37*%
X2440476Y-998762373D02*
X2440476Y-999476658D01*
X2440476Y-999476658D02*
X2392857Y-999619515D01*
X2392857Y-999619515D02*
X2297619Y-999714754D01*
X2297619Y-999714754D02*
X2154762Y-999762373D01*
X2154762Y-999762373D02*
X2059524Y-999762373D01*
X2821429Y-998762373D02*
X3440476Y-998762373D01*
X3440476Y-998762373D02*
X3107143Y-999143325D01*
X3107143Y-999143325D02*
X3250000Y-999143325D01*
X3250000Y-999143325D02*
X3345238Y-999190944D01*
X3345238Y-999190944D02*
X3392857Y-999238563D01*
X3392857Y-999238563D02*
X3440476Y-999333801D01*
X3440476Y-999333801D02*
X3440476Y-999571896D01*
X3440476Y-999571896D02*
X3392857Y-999667134D01*
X3392857Y-999667134D02*
X3345238Y-999714754D01*
X3345238Y-999714754D02*
X3250000Y-999762373D01*
X3250000Y-999762373D02*
X2964286Y-999762373D01*
X2964286Y-999762373D02*
X2869048Y-999714754D01*
X2869048Y-999714754D02*
X2821429Y-999667134D01*
X3773810Y-998762373D02*
X4440476Y-998762373D01*
X4440476Y-998762373D02*
X4011905Y-999762373D01*
%TO.C,J9*%
X2916666Y-142172564D02*
X2916666Y-142886849D01*
X2916666Y-142886849D02*
X2869047Y-143029706D01*
X2869047Y-143029706D02*
X2773809Y-143124945D01*
X2773809Y-143124945D02*
X2630952Y-143172564D01*
X2630952Y-143172564D02*
X2535714Y-143172564D01*
X3440476Y-143172564D02*
X3630952Y-143172564D01*
X3630952Y-143172564D02*
X3726190Y-143124945D01*
X3726190Y-143124945D02*
X3773809Y-143077325D01*
X3773809Y-143077325D02*
X3869047Y-142934468D01*
X3869047Y-142934468D02*
X3916666Y-142743992D01*
X3916666Y-142743992D02*
X3916666Y-142363040D01*
X3916666Y-142363040D02*
X3869047Y-142267802D01*
X3869047Y-142267802D02*
X3821428Y-142220183D01*
X3821428Y-142220183D02*
X3726190Y-142172564D01*
X3726190Y-142172564D02*
X3535714Y-142172564D01*
X3535714Y-142172564D02*
X3440476Y-142220183D01*
X3440476Y-142220183D02*
X3392857Y-142267802D01*
X3392857Y-142267802D02*
X3345238Y-142363040D01*
X3345238Y-142363040D02*
X3345238Y-142601135D01*
X3345238Y-142601135D02*
X3392857Y-142696373D01*
X3392857Y-142696373D02*
X3440476Y-142743992D01*
X3440476Y-142743992D02*
X3535714Y-142791611D01*
X3535714Y-142791611D02*
X3726190Y-142791611D01*
X3726190Y-142791611D02*
X3821428Y-142743992D01*
X3821428Y-142743992D02*
X3869047Y-142696373D01*
X3869047Y-142696373D02*
X3916666Y-142601135D01*
%TO.C,J52*%
X2440476Y-1408213374D02*
X2440476Y-1408927659D01*
X2440476Y-1408927659D02*
X2392857Y-1409070516D01*
X2392857Y-1409070516D02*
X2297619Y-1409165755D01*
X2297619Y-1409165755D02*
X2154762Y-1409213374D01*
X2154762Y-1409213374D02*
X2059524Y-1409213374D01*
X3392857Y-1408213374D02*
X2916667Y-1408213374D01*
X2916667Y-1408213374D02*
X2869048Y-1408689564D01*
X2869048Y-1408689564D02*
X2916667Y-1408641945D01*
X2916667Y-1408641945D02*
X3011905Y-1408594326D01*
X3011905Y-1408594326D02*
X3250000Y-1408594326D01*
X3250000Y-1408594326D02*
X3345238Y-1408641945D01*
X3345238Y-1408641945D02*
X3392857Y-1408689564D01*
X3392857Y-1408689564D02*
X3440476Y-1408784802D01*
X3440476Y-1408784802D02*
X3440476Y-1409022897D01*
X3440476Y-1409022897D02*
X3392857Y-1409118135D01*
X3392857Y-1409118135D02*
X3345238Y-1409165755D01*
X3345238Y-1409165755D02*
X3250000Y-1409213374D01*
X3250000Y-1409213374D02*
X3011905Y-1409213374D01*
X3011905Y-1409213374D02*
X2916667Y-1409165755D01*
X2916667Y-1409165755D02*
X2869048Y-1409118135D01*
X3821429Y-1408308612D02*
X3869048Y-1408260993D01*
X3869048Y-1408260993D02*
X3964286Y-1408213374D01*
X3964286Y-1408213374D02*
X4202381Y-1408213374D01*
X4202381Y-1408213374D02*
X4297619Y-1408260993D01*
X4297619Y-1408260993D02*
X4345238Y-1408308612D01*
X4345238Y-1408308612D02*
X4392857Y-1408403850D01*
X4392857Y-1408403850D02*
X4392857Y-1408499088D01*
X4392857Y-1408499088D02*
X4345238Y-1408641945D01*
X4345238Y-1408641945D02*
X3773810Y-1409213374D01*
X3773810Y-1409213374D02*
X4392857Y-1409213374D01*
%TO.C,J4*%
X2916666Y-69972619D02*
X2916666Y-70686904D01*
X2916666Y-70686904D02*
X2869047Y-70829761D01*
X2869047Y-70829761D02*
X2773809Y-70925000D01*
X2773809Y-70925000D02*
X2630952Y-70972619D01*
X2630952Y-70972619D02*
X2535714Y-70972619D01*
X3821428Y-70305952D02*
X3821428Y-70972619D01*
X3583333Y-69925000D02*
X3345238Y-70639285D01*
X3345238Y-70639285D02*
X3964285Y-70639285D01*
%TO.C,J26*%
X2440476Y-633712742D02*
X2440476Y-634427027D01*
X2440476Y-634427027D02*
X2392857Y-634569884D01*
X2392857Y-634569884D02*
X2297619Y-634665123D01*
X2297619Y-634665123D02*
X2154762Y-634712742D01*
X2154762Y-634712742D02*
X2059524Y-634712742D01*
X2869048Y-633807980D02*
X2916667Y-633760361D01*
X2916667Y-633760361D02*
X3011905Y-633712742D01*
X3011905Y-633712742D02*
X3250000Y-633712742D01*
X3250000Y-633712742D02*
X3345238Y-633760361D01*
X3345238Y-633760361D02*
X3392857Y-633807980D01*
X3392857Y-633807980D02*
X3440476Y-633903218D01*
X3440476Y-633903218D02*
X3440476Y-633998456D01*
X3440476Y-633998456D02*
X3392857Y-634141313D01*
X3392857Y-634141313D02*
X2821429Y-634712742D01*
X2821429Y-634712742D02*
X3440476Y-634712742D01*
X4297619Y-633712742D02*
X4107143Y-633712742D01*
X4107143Y-633712742D02*
X4011905Y-633760361D01*
X4011905Y-633760361D02*
X3964286Y-633807980D01*
X3964286Y-633807980D02*
X3869048Y-633950837D01*
X3869048Y-633950837D02*
X3821429Y-634141313D01*
X3821429Y-634141313D02*
X3821429Y-634522265D01*
X3821429Y-634522265D02*
X3869048Y-634617503D01*
X3869048Y-634617503D02*
X3916667Y-634665123D01*
X3916667Y-634665123D02*
X4011905Y-634712742D01*
X4011905Y-634712742D02*
X4202381Y-634712742D01*
X4202381Y-634712742D02*
X4297619Y-634665123D01*
X4297619Y-634665123D02*
X4345238Y-634617503D01*
X4345238Y-634617503D02*
X4392857Y-634522265D01*
X4392857Y-634522265D02*
X4392857Y-634284170D01*
X4392857Y-634284170D02*
X4345238Y-634188932D01*
X4345238Y-634188932D02*
X4297619Y-634141313D01*
X4297619Y-634141313D02*
X4202381Y-634093694D01*
X4202381Y-634093694D02*
X4011905Y-634093694D01*
X4011905Y-634093694D02*
X3916667Y-634141313D01*
X3916667Y-634141313D02*
X3869048Y-634188932D01*
X3869048Y-634188932D02*
X3821429Y-634284170D01*
%TO.C,J14*%
X2440476Y-266644939D02*
X2440476Y-267359224D01*
X2440476Y-267359224D02*
X2392857Y-267502081D01*
X2392857Y-267502081D02*
X2297619Y-267597320D01*
X2297619Y-267597320D02*
X2154762Y-267644939D01*
X2154762Y-267644939D02*
X2059524Y-267644939D01*
X3440476Y-267644939D02*
X2869048Y-267644939D01*
X3154762Y-267644939D02*
X3154762Y-266644939D01*
X3154762Y-266644939D02*
X3059524Y-266787796D01*
X3059524Y-266787796D02*
X2964286Y-266883034D01*
X2964286Y-266883034D02*
X2869048Y-266930653D01*
X4297619Y-266978272D02*
X4297619Y-267644939D01*
X4059524Y-266597320D02*
X3821429Y-267311605D01*
X3821429Y-267311605D02*
X4440476Y-267311605D01*
%TO.C,J19*%
X2440476Y-468824065D02*
X2440476Y-469538350D01*
X2440476Y-469538350D02*
X2392857Y-469681207D01*
X2392857Y-469681207D02*
X2297619Y-469776446D01*
X2297619Y-469776446D02*
X2154762Y-469824065D01*
X2154762Y-469824065D02*
X2059524Y-469824065D01*
X3440476Y-469824065D02*
X2869048Y-469824065D01*
X3154762Y-469824065D02*
X3154762Y-468824065D01*
X3154762Y-468824065D02*
X3059524Y-468966922D01*
X3059524Y-468966922D02*
X2964286Y-469062160D01*
X2964286Y-469062160D02*
X2869048Y-469109779D01*
X3916667Y-469824065D02*
X4107143Y-469824065D01*
X4107143Y-469824065D02*
X4202381Y-469776446D01*
X4202381Y-469776446D02*
X4250000Y-469728826D01*
X4250000Y-469728826D02*
X4345238Y-469585969D01*
X4345238Y-469585969D02*
X4392857Y-469395493D01*
X4392857Y-469395493D02*
X4392857Y-469014541D01*
X4392857Y-469014541D02*
X4345238Y-468919303D01*
X4345238Y-468919303D02*
X4297619Y-468871684D01*
X4297619Y-468871684D02*
X4202381Y-468824065D01*
X4202381Y-468824065D02*
X4011905Y-468824065D01*
X4011905Y-468824065D02*
X3916667Y-468871684D01*
X3916667Y-468871684D02*
X3869048Y-468919303D01*
X3869048Y-468919303D02*
X3821429Y-469014541D01*
X3821429Y-469014541D02*
X3821429Y-469252636D01*
X3821429Y-469252636D02*
X3869048Y-469347874D01*
X3869048Y-469347874D02*
X3916667Y-469395493D01*
X3916667Y-469395493D02*
X4011905Y-469443112D01*
X4011905Y-469443112D02*
X4202381Y-469443112D01*
X4202381Y-469443112D02*
X4297619Y-469395493D01*
X4297619Y-469395493D02*
X4345238Y-469347874D01*
X4345238Y-469347874D02*
X4392857Y-469252636D01*
%TO.C,J11*%
X2440476Y-178435290D02*
X2440476Y-179149575D01*
X2440476Y-179149575D02*
X2392857Y-179292432D01*
X2392857Y-179292432D02*
X2297619Y-179387671D01*
X2297619Y-179387671D02*
X2154762Y-179435290D01*
X2154762Y-179435290D02*
X2059524Y-179435290D01*
X3440476Y-179435290D02*
X2869048Y-179435290D01*
X3154762Y-179435290D02*
X3154762Y-178435290D01*
X3154762Y-178435290D02*
X3059524Y-178578147D01*
X3059524Y-178578147D02*
X2964286Y-178673385D01*
X2964286Y-178673385D02*
X2869048Y-178721004D01*
X4392857Y-179435290D02*
X3821429Y-179435290D01*
X4107143Y-179435290D02*
X4107143Y-178435290D01*
X4107143Y-178435290D02*
X4011905Y-178578147D01*
X4011905Y-178578147D02*
X3916667Y-178673385D01*
X3916667Y-178673385D02*
X3821429Y-178721004D01*
%TO.C,J41*%
X2440476Y-1126904927D02*
X2440476Y-1127619212D01*
X2440476Y-1127619212D02*
X2392857Y-1127762069D01*
X2392857Y-1127762069D02*
X2297619Y-1127857308D01*
X2297619Y-1127857308D02*
X2154762Y-1127904927D01*
X2154762Y-1127904927D02*
X2059524Y-1127904927D01*
X3345238Y-1127238260D02*
X3345238Y-1127904927D01*
X3107143Y-1126857308D02*
X2869048Y-1127571593D01*
X2869048Y-1127571593D02*
X3488095Y-1127571593D01*
X4392857Y-1127904927D02*
X3821429Y-1127904927D01*
X4107143Y-1127904927D02*
X4107143Y-1126904927D01*
X4107143Y-1126904927D02*
X4011905Y-1127047784D01*
X4011905Y-1127047784D02*
X3916667Y-1127143022D01*
X3916667Y-1127143022D02*
X3821429Y-1127190641D01*
%TO.C,J21*%
X2440476Y-515935116D02*
X2440476Y-516649401D01*
X2440476Y-516649401D02*
X2392857Y-516792258D01*
X2392857Y-516792258D02*
X2297619Y-516887497D01*
X2297619Y-516887497D02*
X2154762Y-516935116D01*
X2154762Y-516935116D02*
X2059524Y-516935116D01*
X2869048Y-516030354D02*
X2916667Y-515982735D01*
X2916667Y-515982735D02*
X3011905Y-515935116D01*
X3011905Y-515935116D02*
X3250000Y-515935116D01*
X3250000Y-515935116D02*
X3345238Y-515982735D01*
X3345238Y-515982735D02*
X3392857Y-516030354D01*
X3392857Y-516030354D02*
X3440476Y-516125592D01*
X3440476Y-516125592D02*
X3440476Y-516220830D01*
X3440476Y-516220830D02*
X3392857Y-516363687D01*
X3392857Y-516363687D02*
X2821429Y-516935116D01*
X2821429Y-516935116D02*
X3440476Y-516935116D01*
X4392857Y-516935116D02*
X3821429Y-516935116D01*
X4107143Y-516935116D02*
X4107143Y-515935116D01*
X4107143Y-515935116D02*
X4011905Y-516077973D01*
X4011905Y-516077973D02*
X3916667Y-516173211D01*
X3916667Y-516173211D02*
X3821429Y-516220830D01*
%TO.C,J1*%
X2916666Y-31452619D02*
X2916666Y-32166904D01*
X2916666Y-32166904D02*
X2869047Y-32309761D01*
X2869047Y-32309761D02*
X2773809Y-32405000D01*
X2773809Y-32405000D02*
X2630952Y-32452619D01*
X2630952Y-32452619D02*
X2535714Y-32452619D01*
X3916666Y-32452619D02*
X3345238Y-32452619D01*
X3630952Y-32452619D02*
X3630952Y-31452619D01*
X3630952Y-31452619D02*
X3535714Y-31595476D01*
X3535714Y-31595476D02*
X3440476Y-31690714D01*
X3440476Y-31690714D02*
X3345238Y-31738333D01*
%TO.C,J18*%
X2440476Y-442933392D02*
X2440476Y-443647677D01*
X2440476Y-443647677D02*
X2392857Y-443790534D01*
X2392857Y-443790534D02*
X2297619Y-443885773D01*
X2297619Y-443885773D02*
X2154762Y-443933392D01*
X2154762Y-443933392D02*
X2059524Y-443933392D01*
X3440476Y-443933392D02*
X2869048Y-443933392D01*
X3154762Y-443933392D02*
X3154762Y-442933392D01*
X3154762Y-442933392D02*
X3059524Y-443076249D01*
X3059524Y-443076249D02*
X2964286Y-443171487D01*
X2964286Y-443171487D02*
X2869048Y-443219106D01*
X4011905Y-443361963D02*
X3916667Y-443314344D01*
X3916667Y-443314344D02*
X3869048Y-443266725D01*
X3869048Y-443266725D02*
X3821429Y-443171487D01*
X3821429Y-443171487D02*
X3821429Y-443123868D01*
X3821429Y-443123868D02*
X3869048Y-443028630D01*
X3869048Y-443028630D02*
X3916667Y-442981011D01*
X3916667Y-442981011D02*
X4011905Y-442933392D01*
X4011905Y-442933392D02*
X4202381Y-442933392D01*
X4202381Y-442933392D02*
X4297619Y-442981011D01*
X4297619Y-442981011D02*
X4345238Y-443028630D01*
X4345238Y-443028630D02*
X4392857Y-443123868D01*
X4392857Y-443123868D02*
X4392857Y-443171487D01*
X4392857Y-443171487D02*
X4345238Y-443266725D01*
X4345238Y-443266725D02*
X4297619Y-443314344D01*
X4297619Y-443314344D02*
X4202381Y-443361963D01*
X4202381Y-443361963D02*
X4011905Y-443361963D01*
X4011905Y-443361963D02*
X3916667Y-443409582D01*
X3916667Y-443409582D02*
X3869048Y-443457201D01*
X3869048Y-443457201D02*
X3821429Y-443552439D01*
X3821429Y-443552439D02*
X3821429Y-443742915D01*
X3821429Y-443742915D02*
X3869048Y-443838153D01*
X3869048Y-443838153D02*
X3916667Y-443885773D01*
X3916667Y-443885773D02*
X4011905Y-443933392D01*
X4011905Y-443933392D02*
X4202381Y-443933392D01*
X4202381Y-443933392D02*
X4297619Y-443885773D01*
X4297619Y-443885773D02*
X4345238Y-443838153D01*
X4345238Y-443838153D02*
X4392857Y-443742915D01*
X4392857Y-443742915D02*
X4392857Y-443552439D01*
X4392857Y-443552439D02*
X4345238Y-443457201D01*
X4345238Y-443457201D02*
X4297619Y-443409582D01*
X4297619Y-443409582D02*
X4202381Y-443361963D01*
%TO.C,J53*%
X2440476Y-1420438799D02*
X2440476Y-1421153084D01*
X2440476Y-1421153084D02*
X2392857Y-1421295941D01*
X2392857Y-1421295941D02*
X2297619Y-1421391180D01*
X2297619Y-1421391180D02*
X2154762Y-1421438799D01*
X2154762Y-1421438799D02*
X2059524Y-1421438799D01*
X3392857Y-1420438799D02*
X2916667Y-1420438799D01*
X2916667Y-1420438799D02*
X2869048Y-1420914989D01*
X2869048Y-1420914989D02*
X2916667Y-1420867370D01*
X2916667Y-1420867370D02*
X3011905Y-1420819751D01*
X3011905Y-1420819751D02*
X3250000Y-1420819751D01*
X3250000Y-1420819751D02*
X3345238Y-1420867370D01*
X3345238Y-1420867370D02*
X3392857Y-1420914989D01*
X3392857Y-1420914989D02*
X3440476Y-1421010227D01*
X3440476Y-1421010227D02*
X3440476Y-1421248322D01*
X3440476Y-1421248322D02*
X3392857Y-1421343560D01*
X3392857Y-1421343560D02*
X3345238Y-1421391180D01*
X3345238Y-1421391180D02*
X3250000Y-1421438799D01*
X3250000Y-1421438799D02*
X3011905Y-1421438799D01*
X3011905Y-1421438799D02*
X2916667Y-1421391180D01*
X2916667Y-1421391180D02*
X2869048Y-1421343560D01*
X3773810Y-1420438799D02*
X4392857Y-1420438799D01*
X4392857Y-1420438799D02*
X4059524Y-1420819751D01*
X4059524Y-1420819751D02*
X4202381Y-1420819751D01*
X4202381Y-1420819751D02*
X4297619Y-1420867370D01*
X4297619Y-1420867370D02*
X4345238Y-1420914989D01*
X4345238Y-1420914989D02*
X4392857Y-1421010227D01*
X4392857Y-1421010227D02*
X4392857Y-1421248322D01*
X4392857Y-1421248322D02*
X4345238Y-1421343560D01*
X4345238Y-1421343560D02*
X4297619Y-1421391180D01*
X4297619Y-1421391180D02*
X4202381Y-1421438799D01*
X4202381Y-1421438799D02*
X3916667Y-1421438799D01*
X3916667Y-1421438799D02*
X3821429Y-1421391180D01*
X3821429Y-1421391180D02*
X3773810Y-1421343560D01*
%TD*%
M02*
