%TF.GenerationSoftware,KiCad,Pcbnew,7.0.1-3b83917a11~172~ubuntu22.04.1*%
%TF.CreationDate,2023-12-10T16:36:06-05:00*%
%TF.ProjectId,coil_template_first,636f696c-5f74-4656-9d70-6c6174655f66,rev?*%
%TF.SameCoordinates,Original*%
%TF.FileFunction,Legend,Top*%
%TF.FilePolarity,Positive*%
%FSLAX46Y46*%
G04 Gerber Fmt 4.6, Leading zero omitted, Abs format (unit mm)*
G04 Created by KiCad (PCBNEW 7.0.1-3b83917a11~172~ubuntu22.04.1) date 2023-12-10 16:36:06*
%MOMM*%
%LPD*%
G01*
G04 APERTURE LIST*
%ADD10C,2.000000*%
%ADD11C,0.150000*%
G04 APERTURE END LIST*
D10*
X541428571Y-52447619D02*
X537619047Y-52447619D01*
X537619047Y-52447619D02*
X535714285Y-51495238D01*
X535714285Y-51495238D02*
X533809523Y-49590476D01*
X533809523Y-49590476D02*
X532857142Y-45780952D01*
X532857142Y-45780952D02*
X532857142Y-39114285D01*
X532857142Y-39114285D02*
X533809523Y-35304761D01*
X533809523Y-35304761D02*
X535714285Y-33400000D01*
X535714285Y-33400000D02*
X537619047Y-32447619D01*
X537619047Y-32447619D02*
X541428571Y-32447619D01*
X541428571Y-32447619D02*
X543333333Y-33400000D01*
X543333333Y-33400000D02*
X545238095Y-35304761D01*
X545238095Y-35304761D02*
X546190476Y-39114285D01*
X546190476Y-39114285D02*
X546190476Y-45780952D01*
X546190476Y-45780952D02*
X545238095Y-49590476D01*
X545238095Y-49590476D02*
X543333333Y-51495238D01*
X543333333Y-51495238D02*
X541428571Y-52447619D01*
X524285714Y-32447619D02*
X524285714Y-52447619D01*
X524285714Y-52447619D02*
X516666666Y-52447619D01*
X516666666Y-52447619D02*
X514761904Y-51495238D01*
X514761904Y-51495238D02*
X513809523Y-50542857D01*
X513809523Y-50542857D02*
X512857142Y-48638095D01*
X512857142Y-48638095D02*
X512857142Y-45780952D01*
X512857142Y-45780952D02*
X513809523Y-43876190D01*
X513809523Y-43876190D02*
X514761904Y-42923809D01*
X514761904Y-42923809D02*
X516666666Y-41971428D01*
X516666666Y-41971428D02*
X524285714Y-41971428D01*
X504285714Y-32447619D02*
X504285714Y-52447619D01*
X504285714Y-52447619D02*
X497619047Y-38161904D01*
X497619047Y-38161904D02*
X490952380Y-52447619D01*
X490952380Y-52447619D02*
X490952380Y-32447619D01*
X481428571Y-40066666D02*
X466190476Y-40066666D01*
X456666666Y-32447619D02*
X456666666Y-52447619D01*
X456666666Y-52447619D02*
X449999999Y-38161904D01*
X449999999Y-38161904D02*
X443333332Y-52447619D01*
X443333332Y-52447619D02*
X443333332Y-32447619D01*
X433809523Y-42923809D02*
X427142856Y-42923809D01*
X424285713Y-32447619D02*
X433809523Y-32447619D01*
X433809523Y-32447619D02*
X433809523Y-52447619D01*
X433809523Y-52447619D02*
X424285713Y-52447619D01*
X405238094Y-51495238D02*
X407142856Y-52447619D01*
X407142856Y-52447619D02*
X409999999Y-52447619D01*
X409999999Y-52447619D02*
X412857142Y-51495238D01*
X412857142Y-51495238D02*
X414761904Y-49590476D01*
X414761904Y-49590476D02*
X415714285Y-47685714D01*
X415714285Y-47685714D02*
X416666666Y-43876190D01*
X416666666Y-43876190D02*
X416666666Y-41019047D01*
X416666666Y-41019047D02*
X415714285Y-37209523D01*
X415714285Y-37209523D02*
X414761904Y-35304761D01*
X414761904Y-35304761D02*
X412857142Y-33400000D01*
X412857142Y-33400000D02*
X409999999Y-32447619D01*
X409999999Y-32447619D02*
X408095237Y-32447619D01*
X408095237Y-32447619D02*
X405238094Y-33400000D01*
X405238094Y-33400000D02*
X404285713Y-34352380D01*
X404285713Y-34352380D02*
X404285713Y-41019047D01*
X404285713Y-41019047D02*
X408095237Y-41019047D01*
X368095237Y-41971428D02*
X369047618Y-42923809D01*
X369047618Y-42923809D02*
X370952380Y-43876190D01*
X370952380Y-43876190D02*
X372857142Y-43876190D01*
X372857142Y-43876190D02*
X374761904Y-42923809D01*
X374761904Y-42923809D02*
X375714285Y-41971428D01*
X375714285Y-41971428D02*
X376666666Y-40066666D01*
X376666666Y-40066666D02*
X376666666Y-38161904D01*
X376666666Y-38161904D02*
X375714285Y-36257142D01*
X375714285Y-36257142D02*
X374761904Y-35304761D01*
X374761904Y-35304761D02*
X372857142Y-34352380D01*
X372857142Y-34352380D02*
X370952380Y-34352380D01*
X370952380Y-34352380D02*
X369047618Y-35304761D01*
X369047618Y-35304761D02*
X368095237Y-36257142D01*
X368095237Y-43876190D02*
X368095237Y-36257142D01*
X368095237Y-36257142D02*
X367142856Y-35304761D01*
X367142856Y-35304761D02*
X366190475Y-35304761D01*
X366190475Y-35304761D02*
X364285714Y-36257142D01*
X364285714Y-36257142D02*
X363333333Y-38161904D01*
X363333333Y-38161904D02*
X363333333Y-42923809D01*
X363333333Y-42923809D02*
X365238095Y-45780952D01*
X365238095Y-45780952D02*
X368095237Y-47685714D01*
X368095237Y-47685714D02*
X371904761Y-48638095D01*
X371904761Y-48638095D02*
X375714285Y-47685714D01*
X375714285Y-47685714D02*
X378571428Y-45780952D01*
X378571428Y-45780952D02*
X380476190Y-42923809D01*
X380476190Y-42923809D02*
X381428571Y-39114285D01*
X381428571Y-39114285D02*
X380476190Y-35304761D01*
X380476190Y-35304761D02*
X378571428Y-32447619D01*
X378571428Y-32447619D02*
X375714285Y-30542857D01*
X375714285Y-30542857D02*
X371904761Y-29590476D01*
X371904761Y-29590476D02*
X368095237Y-30542857D01*
X368095237Y-30542857D02*
X365238095Y-32447619D01*
X339523809Y-32447619D02*
X339523809Y-52447619D01*
X339523809Y-52447619D02*
X332857142Y-38161904D01*
X332857142Y-38161904D02*
X326190475Y-52447619D01*
X326190475Y-52447619D02*
X326190475Y-32447619D01*
X308095237Y-32447619D02*
X308095237Y-42923809D01*
X308095237Y-42923809D02*
X309047618Y-44828571D01*
X309047618Y-44828571D02*
X310952380Y-45780952D01*
X310952380Y-45780952D02*
X314761904Y-45780952D01*
X314761904Y-45780952D02*
X316666666Y-44828571D01*
X308095237Y-33400000D02*
X309999999Y-32447619D01*
X309999999Y-32447619D02*
X314761904Y-32447619D01*
X314761904Y-32447619D02*
X316666666Y-33400000D01*
X316666666Y-33400000D02*
X317619047Y-35304761D01*
X317619047Y-35304761D02*
X317619047Y-37209523D01*
X317619047Y-37209523D02*
X316666666Y-39114285D01*
X316666666Y-39114285D02*
X314761904Y-40066666D01*
X314761904Y-40066666D02*
X309999999Y-40066666D01*
X309999999Y-40066666D02*
X308095237Y-41019047D01*
X298571428Y-32447619D02*
X298571428Y-45780952D01*
X298571428Y-41971428D02*
X297619047Y-43876190D01*
X297619047Y-43876190D02*
X296666666Y-44828571D01*
X296666666Y-44828571D02*
X294761904Y-45780952D01*
X294761904Y-45780952D02*
X292857142Y-45780952D01*
X289047619Y-45780952D02*
X281428571Y-45780952D01*
X286190476Y-52447619D02*
X286190476Y-35304761D01*
X286190476Y-35304761D02*
X285238095Y-33400000D01*
X285238095Y-33400000D02*
X283333333Y-32447619D01*
X283333333Y-32447619D02*
X281428571Y-32447619D01*
X274761905Y-32447619D02*
X274761905Y-45780952D01*
X274761905Y-52447619D02*
X275714286Y-51495238D01*
X275714286Y-51495238D02*
X274761905Y-50542857D01*
X274761905Y-50542857D02*
X273809524Y-51495238D01*
X273809524Y-51495238D02*
X274761905Y-52447619D01*
X274761905Y-52447619D02*
X274761905Y-50542857D01*
X265238095Y-45780952D02*
X265238095Y-32447619D01*
X265238095Y-43876190D02*
X264285714Y-44828571D01*
X264285714Y-44828571D02*
X262380952Y-45780952D01*
X262380952Y-45780952D02*
X259523809Y-45780952D01*
X259523809Y-45780952D02*
X257619047Y-44828571D01*
X257619047Y-44828571D02*
X256666666Y-42923809D01*
X256666666Y-42923809D02*
X256666666Y-32447619D01*
X244285714Y-32447619D02*
X246190476Y-33400000D01*
X246190476Y-33400000D02*
X247142857Y-34352380D01*
X247142857Y-34352380D02*
X248095238Y-36257142D01*
X248095238Y-36257142D02*
X248095238Y-41971428D01*
X248095238Y-41971428D02*
X247142857Y-43876190D01*
X247142857Y-43876190D02*
X246190476Y-44828571D01*
X246190476Y-44828571D02*
X244285714Y-45780952D01*
X244285714Y-45780952D02*
X241428571Y-45780952D01*
X241428571Y-45780952D02*
X239523809Y-44828571D01*
X239523809Y-44828571D02*
X238571428Y-43876190D01*
X238571428Y-43876190D02*
X237619047Y-41971428D01*
X237619047Y-41971428D02*
X237619047Y-36257142D01*
X237619047Y-36257142D02*
X238571428Y-34352380D01*
X238571428Y-34352380D02*
X239523809Y-33400000D01*
X239523809Y-33400000D02*
X241428571Y-32447619D01*
X241428571Y-32447619D02*
X244285714Y-32447619D01*
X230000000Y-33400000D02*
X228095238Y-32447619D01*
X228095238Y-32447619D02*
X224285714Y-32447619D01*
X224285714Y-32447619D02*
X222380952Y-33400000D01*
X222380952Y-33400000D02*
X221428571Y-35304761D01*
X221428571Y-35304761D02*
X221428571Y-36257142D01*
X221428571Y-36257142D02*
X222380952Y-38161904D01*
X222380952Y-38161904D02*
X224285714Y-39114285D01*
X224285714Y-39114285D02*
X227142857Y-39114285D01*
X227142857Y-39114285D02*
X229047619Y-40066666D01*
X229047619Y-40066666D02*
X230000000Y-41971428D01*
X230000000Y-41971428D02*
X230000000Y-42923809D01*
X230000000Y-42923809D02*
X229047619Y-44828571D01*
X229047619Y-44828571D02*
X227142857Y-45780952D01*
X227142857Y-45780952D02*
X224285714Y-45780952D01*
X224285714Y-45780952D02*
X222380952Y-44828571D01*
X170305272Y-370642448D02*
X155298678Y-367996380D01*
X145919556Y-366342588D02*
X130912962Y-363696521D01*
X120541565Y-367670201D02*
X106527246Y-359396661D01*
X106527246Y-359396661D02*
X122526116Y-356415256D01*
X231094749Y-711742004D02*
X231094749Y-726980100D01*
X231094749Y-736503909D02*
X231094749Y-751742005D01*
X236809035Y-761265814D02*
X231094749Y-776503910D01*
X231094749Y-776503910D02*
X225380463Y-761265814D01*
X107562798Y-1137826087D02*
X122569392Y-1135180020D01*
X131948514Y-1133526227D02*
X146955108Y-1130880160D01*
X155341955Y-1123598895D02*
X171340824Y-1126580300D01*
X171340824Y-1126580300D02*
X157326505Y-1134853841D01*
X712552380Y-911428571D02*
X712552380Y-907619047D01*
X712552380Y-907619047D02*
X713504761Y-905714285D01*
X713504761Y-905714285D02*
X715409523Y-903809523D01*
X715409523Y-903809523D02*
X719219047Y-902857142D01*
X719219047Y-902857142D02*
X725885714Y-902857142D01*
X725885714Y-902857142D02*
X729695238Y-903809523D01*
X729695238Y-903809523D02*
X731600000Y-905714285D01*
X731600000Y-905714285D02*
X732552380Y-907619047D01*
X732552380Y-907619047D02*
X732552380Y-911428571D01*
X732552380Y-911428571D02*
X731600000Y-913333333D01*
X731600000Y-913333333D02*
X729695238Y-915238095D01*
X729695238Y-915238095D02*
X725885714Y-916190476D01*
X725885714Y-916190476D02*
X719219047Y-916190476D01*
X719219047Y-916190476D02*
X715409523Y-915238095D01*
X715409523Y-915238095D02*
X713504761Y-913333333D01*
X713504761Y-913333333D02*
X712552380Y-911428571D01*
X732552380Y-894285714D02*
X712552380Y-894285714D01*
X712552380Y-894285714D02*
X712552380Y-886666666D01*
X712552380Y-886666666D02*
X713504761Y-884761904D01*
X713504761Y-884761904D02*
X714457142Y-883809523D01*
X714457142Y-883809523D02*
X716361904Y-882857142D01*
X716361904Y-882857142D02*
X719219047Y-882857142D01*
X719219047Y-882857142D02*
X721123809Y-883809523D01*
X721123809Y-883809523D02*
X722076190Y-884761904D01*
X722076190Y-884761904D02*
X723028571Y-886666666D01*
X723028571Y-886666666D02*
X723028571Y-894285714D01*
X732552380Y-874285714D02*
X712552380Y-874285714D01*
X712552380Y-874285714D02*
X726838095Y-867619047D01*
X726838095Y-867619047D02*
X712552380Y-860952380D01*
X712552380Y-860952380D02*
X732552380Y-860952380D01*
X724933333Y-851428571D02*
X724933333Y-836190476D01*
X732552380Y-826666666D02*
X712552380Y-826666666D01*
X712552380Y-826666666D02*
X726838095Y-819999999D01*
X726838095Y-819999999D02*
X712552380Y-813333332D01*
X712552380Y-813333332D02*
X732552380Y-813333332D01*
X722076190Y-803809523D02*
X722076190Y-797142856D01*
X732552380Y-794285713D02*
X732552380Y-803809523D01*
X732552380Y-803809523D02*
X712552380Y-803809523D01*
X712552380Y-803809523D02*
X712552380Y-794285713D01*
X713504761Y-775238094D02*
X712552380Y-777142856D01*
X712552380Y-777142856D02*
X712552380Y-779999999D01*
X712552380Y-779999999D02*
X713504761Y-782857142D01*
X713504761Y-782857142D02*
X715409523Y-784761904D01*
X715409523Y-784761904D02*
X717314285Y-785714285D01*
X717314285Y-785714285D02*
X721123809Y-786666666D01*
X721123809Y-786666666D02*
X723980952Y-786666666D01*
X723980952Y-786666666D02*
X727790476Y-785714285D01*
X727790476Y-785714285D02*
X729695238Y-784761904D01*
X729695238Y-784761904D02*
X731600000Y-782857142D01*
X731600000Y-782857142D02*
X732552380Y-779999999D01*
X732552380Y-779999999D02*
X732552380Y-778095237D01*
X732552380Y-778095237D02*
X731600000Y-775238094D01*
X731600000Y-775238094D02*
X730647619Y-774285713D01*
X730647619Y-774285713D02*
X723980952Y-774285713D01*
X723980952Y-774285713D02*
X723980952Y-778095237D01*
X723028571Y-738095237D02*
X722076190Y-739047618D01*
X722076190Y-739047618D02*
X721123809Y-740952380D01*
X721123809Y-740952380D02*
X721123809Y-742857142D01*
X721123809Y-742857142D02*
X722076190Y-744761904D01*
X722076190Y-744761904D02*
X723028571Y-745714285D01*
X723028571Y-745714285D02*
X724933333Y-746666666D01*
X724933333Y-746666666D02*
X726838095Y-746666666D01*
X726838095Y-746666666D02*
X728742857Y-745714285D01*
X728742857Y-745714285D02*
X729695238Y-744761904D01*
X729695238Y-744761904D02*
X730647619Y-742857142D01*
X730647619Y-742857142D02*
X730647619Y-740952380D01*
X730647619Y-740952380D02*
X729695238Y-739047618D01*
X729695238Y-739047618D02*
X728742857Y-738095237D01*
X721123809Y-738095237D02*
X728742857Y-738095237D01*
X728742857Y-738095237D02*
X729695238Y-737142856D01*
X729695238Y-737142856D02*
X729695238Y-736190475D01*
X729695238Y-736190475D02*
X728742857Y-734285714D01*
X728742857Y-734285714D02*
X726838095Y-733333333D01*
X726838095Y-733333333D02*
X722076190Y-733333333D01*
X722076190Y-733333333D02*
X719219047Y-735238095D01*
X719219047Y-735238095D02*
X717314285Y-738095237D01*
X717314285Y-738095237D02*
X716361904Y-741904761D01*
X716361904Y-741904761D02*
X717314285Y-745714285D01*
X717314285Y-745714285D02*
X719219047Y-748571428D01*
X719219047Y-748571428D02*
X722076190Y-750476190D01*
X722076190Y-750476190D02*
X725885714Y-751428571D01*
X725885714Y-751428571D02*
X729695238Y-750476190D01*
X729695238Y-750476190D02*
X732552380Y-748571428D01*
X732552380Y-748571428D02*
X734457142Y-745714285D01*
X734457142Y-745714285D02*
X735409523Y-741904761D01*
X735409523Y-741904761D02*
X734457142Y-738095237D01*
X734457142Y-738095237D02*
X732552380Y-735238095D01*
X732552380Y-709523809D02*
X712552380Y-709523809D01*
X712552380Y-709523809D02*
X726838095Y-702857142D01*
X726838095Y-702857142D02*
X712552380Y-696190475D01*
X712552380Y-696190475D02*
X732552380Y-696190475D01*
X732552380Y-678095237D02*
X722076190Y-678095237D01*
X722076190Y-678095237D02*
X720171428Y-679047618D01*
X720171428Y-679047618D02*
X719219047Y-680952380D01*
X719219047Y-680952380D02*
X719219047Y-684761904D01*
X719219047Y-684761904D02*
X720171428Y-686666666D01*
X731600000Y-678095237D02*
X732552380Y-679999999D01*
X732552380Y-679999999D02*
X732552380Y-684761904D01*
X732552380Y-684761904D02*
X731600000Y-686666666D01*
X731600000Y-686666666D02*
X729695238Y-687619047D01*
X729695238Y-687619047D02*
X727790476Y-687619047D01*
X727790476Y-687619047D02*
X725885714Y-686666666D01*
X725885714Y-686666666D02*
X724933333Y-684761904D01*
X724933333Y-684761904D02*
X724933333Y-679999999D01*
X724933333Y-679999999D02*
X723980952Y-678095237D01*
X732552380Y-668571428D02*
X719219047Y-668571428D01*
X723028571Y-668571428D02*
X721123809Y-667619047D01*
X721123809Y-667619047D02*
X720171428Y-666666666D01*
X720171428Y-666666666D02*
X719219047Y-664761904D01*
X719219047Y-664761904D02*
X719219047Y-662857142D01*
X719219047Y-659047619D02*
X719219047Y-651428571D01*
X712552380Y-656190476D02*
X729695238Y-656190476D01*
X729695238Y-656190476D02*
X731600000Y-655238095D01*
X731600000Y-655238095D02*
X732552380Y-653333333D01*
X732552380Y-653333333D02*
X732552380Y-651428571D01*
X732552380Y-644761905D02*
X719219047Y-644761905D01*
X712552380Y-644761905D02*
X713504761Y-645714286D01*
X713504761Y-645714286D02*
X714457142Y-644761905D01*
X714457142Y-644761905D02*
X713504761Y-643809524D01*
X713504761Y-643809524D02*
X712552380Y-644761905D01*
X712552380Y-644761905D02*
X714457142Y-644761905D01*
X719219047Y-635238095D02*
X732552380Y-635238095D01*
X721123809Y-635238095D02*
X720171428Y-634285714D01*
X720171428Y-634285714D02*
X719219047Y-632380952D01*
X719219047Y-632380952D02*
X719219047Y-629523809D01*
X719219047Y-629523809D02*
X720171428Y-627619047D01*
X720171428Y-627619047D02*
X722076190Y-626666666D01*
X722076190Y-626666666D02*
X732552380Y-626666666D01*
X732552380Y-614285714D02*
X731600000Y-616190476D01*
X731600000Y-616190476D02*
X730647619Y-617142857D01*
X730647619Y-617142857D02*
X728742857Y-618095238D01*
X728742857Y-618095238D02*
X723028571Y-618095238D01*
X723028571Y-618095238D02*
X721123809Y-617142857D01*
X721123809Y-617142857D02*
X720171428Y-616190476D01*
X720171428Y-616190476D02*
X719219047Y-614285714D01*
X719219047Y-614285714D02*
X719219047Y-611428571D01*
X719219047Y-611428571D02*
X720171428Y-609523809D01*
X720171428Y-609523809D02*
X721123809Y-608571428D01*
X721123809Y-608571428D02*
X723028571Y-607619047D01*
X723028571Y-607619047D02*
X728742857Y-607619047D01*
X728742857Y-607619047D02*
X730647619Y-608571428D01*
X730647619Y-608571428D02*
X731600000Y-609523809D01*
X731600000Y-609523809D02*
X732552380Y-611428571D01*
X732552380Y-611428571D02*
X732552380Y-614285714D01*
X731600000Y-600000000D02*
X732552380Y-598095238D01*
X732552380Y-598095238D02*
X732552380Y-594285714D01*
X732552380Y-594285714D02*
X731600000Y-592380952D01*
X731600000Y-592380952D02*
X729695238Y-591428571D01*
X729695238Y-591428571D02*
X728742857Y-591428571D01*
X728742857Y-591428571D02*
X726838095Y-592380952D01*
X726838095Y-592380952D02*
X725885714Y-594285714D01*
X725885714Y-594285714D02*
X725885714Y-597142857D01*
X725885714Y-597142857D02*
X724933333Y-599047619D01*
X724933333Y-599047619D02*
X723028571Y-600000000D01*
X723028571Y-600000000D02*
X722076190Y-600000000D01*
X722076190Y-600000000D02*
X720171428Y-599047619D01*
X720171428Y-599047619D02*
X719219047Y-597142857D01*
X719219047Y-597142857D02*
X719219047Y-594285714D01*
X719219047Y-594285714D02*
X720171428Y-592380952D01*
X541428571Y-1482447619D02*
X537619047Y-1482447619D01*
X537619047Y-1482447619D02*
X535714285Y-1481495238D01*
X535714285Y-1481495238D02*
X533809523Y-1479590476D01*
X533809523Y-1479590476D02*
X532857142Y-1475780952D01*
X532857142Y-1475780952D02*
X532857142Y-1469114285D01*
X532857142Y-1469114285D02*
X533809523Y-1465304761D01*
X533809523Y-1465304761D02*
X535714285Y-1463400000D01*
X535714285Y-1463400000D02*
X537619047Y-1462447619D01*
X537619047Y-1462447619D02*
X541428571Y-1462447619D01*
X541428571Y-1462447619D02*
X543333333Y-1463400000D01*
X543333333Y-1463400000D02*
X545238095Y-1465304761D01*
X545238095Y-1465304761D02*
X546190476Y-1469114285D01*
X546190476Y-1469114285D02*
X546190476Y-1475780952D01*
X546190476Y-1475780952D02*
X545238095Y-1479590476D01*
X545238095Y-1479590476D02*
X543333333Y-1481495238D01*
X543333333Y-1481495238D02*
X541428571Y-1482447619D01*
X524285714Y-1462447619D02*
X524285714Y-1482447619D01*
X524285714Y-1482447619D02*
X516666666Y-1482447619D01*
X516666666Y-1482447619D02*
X514761904Y-1481495238D01*
X514761904Y-1481495238D02*
X513809523Y-1480542857D01*
X513809523Y-1480542857D02*
X512857142Y-1478638095D01*
X512857142Y-1478638095D02*
X512857142Y-1475780952D01*
X512857142Y-1475780952D02*
X513809523Y-1473876190D01*
X513809523Y-1473876190D02*
X514761904Y-1472923809D01*
X514761904Y-1472923809D02*
X516666666Y-1471971428D01*
X516666666Y-1471971428D02*
X524285714Y-1471971428D01*
X504285714Y-1462447619D02*
X504285714Y-1482447619D01*
X504285714Y-1482447619D02*
X497619047Y-1468161904D01*
X497619047Y-1468161904D02*
X490952380Y-1482447619D01*
X490952380Y-1482447619D02*
X490952380Y-1462447619D01*
X481428571Y-1470066666D02*
X466190476Y-1470066666D01*
X456666666Y-1462447619D02*
X456666666Y-1482447619D01*
X456666666Y-1482447619D02*
X449999999Y-1468161904D01*
X449999999Y-1468161904D02*
X443333332Y-1482447619D01*
X443333332Y-1482447619D02*
X443333332Y-1462447619D01*
X433809523Y-1472923809D02*
X427142856Y-1472923809D01*
X424285713Y-1462447619D02*
X433809523Y-1462447619D01*
X433809523Y-1462447619D02*
X433809523Y-1482447619D01*
X433809523Y-1482447619D02*
X424285713Y-1482447619D01*
X405238094Y-1481495238D02*
X407142856Y-1482447619D01*
X407142856Y-1482447619D02*
X409999999Y-1482447619D01*
X409999999Y-1482447619D02*
X412857142Y-1481495238D01*
X412857142Y-1481495238D02*
X414761904Y-1479590476D01*
X414761904Y-1479590476D02*
X415714285Y-1477685714D01*
X415714285Y-1477685714D02*
X416666666Y-1473876190D01*
X416666666Y-1473876190D02*
X416666666Y-1471019047D01*
X416666666Y-1471019047D02*
X415714285Y-1467209523D01*
X415714285Y-1467209523D02*
X414761904Y-1465304761D01*
X414761904Y-1465304761D02*
X412857142Y-1463400000D01*
X412857142Y-1463400000D02*
X409999999Y-1462447619D01*
X409999999Y-1462447619D02*
X408095237Y-1462447619D01*
X408095237Y-1462447619D02*
X405238094Y-1463400000D01*
X405238094Y-1463400000D02*
X404285713Y-1464352380D01*
X404285713Y-1464352380D02*
X404285713Y-1471019047D01*
X404285713Y-1471019047D02*
X408095237Y-1471019047D01*
X368095237Y-1471971428D02*
X369047618Y-1472923809D01*
X369047618Y-1472923809D02*
X370952380Y-1473876190D01*
X370952380Y-1473876190D02*
X372857142Y-1473876190D01*
X372857142Y-1473876190D02*
X374761904Y-1472923809D01*
X374761904Y-1472923809D02*
X375714285Y-1471971428D01*
X375714285Y-1471971428D02*
X376666666Y-1470066666D01*
X376666666Y-1470066666D02*
X376666666Y-1468161904D01*
X376666666Y-1468161904D02*
X375714285Y-1466257142D01*
X375714285Y-1466257142D02*
X374761904Y-1465304761D01*
X374761904Y-1465304761D02*
X372857142Y-1464352380D01*
X372857142Y-1464352380D02*
X370952380Y-1464352380D01*
X370952380Y-1464352380D02*
X369047618Y-1465304761D01*
X369047618Y-1465304761D02*
X368095237Y-1466257142D01*
X368095237Y-1473876190D02*
X368095237Y-1466257142D01*
X368095237Y-1466257142D02*
X367142856Y-1465304761D01*
X367142856Y-1465304761D02*
X366190475Y-1465304761D01*
X366190475Y-1465304761D02*
X364285714Y-1466257142D01*
X364285714Y-1466257142D02*
X363333333Y-1468161904D01*
X363333333Y-1468161904D02*
X363333333Y-1472923809D01*
X363333333Y-1472923809D02*
X365238095Y-1475780952D01*
X365238095Y-1475780952D02*
X368095237Y-1477685714D01*
X368095237Y-1477685714D02*
X371904761Y-1478638095D01*
X371904761Y-1478638095D02*
X375714285Y-1477685714D01*
X375714285Y-1477685714D02*
X378571428Y-1475780952D01*
X378571428Y-1475780952D02*
X380476190Y-1472923809D01*
X380476190Y-1472923809D02*
X381428571Y-1469114285D01*
X381428571Y-1469114285D02*
X380476190Y-1465304761D01*
X380476190Y-1465304761D02*
X378571428Y-1462447619D01*
X378571428Y-1462447619D02*
X375714285Y-1460542857D01*
X375714285Y-1460542857D02*
X371904761Y-1459590476D01*
X371904761Y-1459590476D02*
X368095237Y-1460542857D01*
X368095237Y-1460542857D02*
X365238095Y-1462447619D01*
X339523809Y-1462447619D02*
X339523809Y-1482447619D01*
X339523809Y-1482447619D02*
X332857142Y-1468161904D01*
X332857142Y-1468161904D02*
X326190475Y-1482447619D01*
X326190475Y-1482447619D02*
X326190475Y-1462447619D01*
X308095237Y-1462447619D02*
X308095237Y-1472923809D01*
X308095237Y-1472923809D02*
X309047618Y-1474828571D01*
X309047618Y-1474828571D02*
X310952380Y-1475780952D01*
X310952380Y-1475780952D02*
X314761904Y-1475780952D01*
X314761904Y-1475780952D02*
X316666666Y-1474828571D01*
X308095237Y-1463400000D02*
X309999999Y-1462447619D01*
X309999999Y-1462447619D02*
X314761904Y-1462447619D01*
X314761904Y-1462447619D02*
X316666666Y-1463400000D01*
X316666666Y-1463400000D02*
X317619047Y-1465304761D01*
X317619047Y-1465304761D02*
X317619047Y-1467209523D01*
X317619047Y-1467209523D02*
X316666666Y-1469114285D01*
X316666666Y-1469114285D02*
X314761904Y-1470066666D01*
X314761904Y-1470066666D02*
X309999999Y-1470066666D01*
X309999999Y-1470066666D02*
X308095237Y-1471019047D01*
X298571428Y-1462447619D02*
X298571428Y-1475780952D01*
X298571428Y-1471971428D02*
X297619047Y-1473876190D01*
X297619047Y-1473876190D02*
X296666666Y-1474828571D01*
X296666666Y-1474828571D02*
X294761904Y-1475780952D01*
X294761904Y-1475780952D02*
X292857142Y-1475780952D01*
X289047619Y-1475780952D02*
X281428571Y-1475780952D01*
X286190476Y-1482447619D02*
X286190476Y-1465304761D01*
X286190476Y-1465304761D02*
X285238095Y-1463400000D01*
X285238095Y-1463400000D02*
X283333333Y-1462447619D01*
X283333333Y-1462447619D02*
X281428571Y-1462447619D01*
X274761905Y-1462447619D02*
X274761905Y-1475780952D01*
X274761905Y-1482447619D02*
X275714286Y-1481495238D01*
X275714286Y-1481495238D02*
X274761905Y-1480542857D01*
X274761905Y-1480542857D02*
X273809524Y-1481495238D01*
X273809524Y-1481495238D02*
X274761905Y-1482447619D01*
X274761905Y-1482447619D02*
X274761905Y-1480542857D01*
X265238095Y-1475780952D02*
X265238095Y-1462447619D01*
X265238095Y-1473876190D02*
X264285714Y-1474828571D01*
X264285714Y-1474828571D02*
X262380952Y-1475780952D01*
X262380952Y-1475780952D02*
X259523809Y-1475780952D01*
X259523809Y-1475780952D02*
X257619047Y-1474828571D01*
X257619047Y-1474828571D02*
X256666666Y-1472923809D01*
X256666666Y-1472923809D02*
X256666666Y-1462447619D01*
X244285714Y-1462447619D02*
X246190476Y-1463400000D01*
X246190476Y-1463400000D02*
X247142857Y-1464352380D01*
X247142857Y-1464352380D02*
X248095238Y-1466257142D01*
X248095238Y-1466257142D02*
X248095238Y-1471971428D01*
X248095238Y-1471971428D02*
X247142857Y-1473876190D01*
X247142857Y-1473876190D02*
X246190476Y-1474828571D01*
X246190476Y-1474828571D02*
X244285714Y-1475780952D01*
X244285714Y-1475780952D02*
X241428571Y-1475780952D01*
X241428571Y-1475780952D02*
X239523809Y-1474828571D01*
X239523809Y-1474828571D02*
X238571428Y-1473876190D01*
X238571428Y-1473876190D02*
X237619047Y-1471971428D01*
X237619047Y-1471971428D02*
X237619047Y-1466257142D01*
X237619047Y-1466257142D02*
X238571428Y-1464352380D01*
X238571428Y-1464352380D02*
X239523809Y-1463400000D01*
X239523809Y-1463400000D02*
X241428571Y-1462447619D01*
X241428571Y-1462447619D02*
X244285714Y-1462447619D01*
X230000000Y-1463400000D02*
X228095238Y-1462447619D01*
X228095238Y-1462447619D02*
X224285714Y-1462447619D01*
X224285714Y-1462447619D02*
X222380952Y-1463400000D01*
X222380952Y-1463400000D02*
X221428571Y-1465304761D01*
X221428571Y-1465304761D02*
X221428571Y-1466257142D01*
X221428571Y-1466257142D02*
X222380952Y-1468161904D01*
X222380952Y-1468161904D02*
X224285714Y-1469114285D01*
X224285714Y-1469114285D02*
X227142857Y-1469114285D01*
X227142857Y-1469114285D02*
X229047619Y-1470066666D01*
X229047619Y-1470066666D02*
X230000000Y-1471971428D01*
X230000000Y-1471971428D02*
X230000000Y-1472923809D01*
X230000000Y-1472923809D02*
X229047619Y-1474828571D01*
X229047619Y-1474828571D02*
X227142857Y-1475780952D01*
X227142857Y-1475780952D02*
X224285714Y-1475780952D01*
X224285714Y-1475780952D02*
X222380952Y-1474828571D01*
D11*
%TO.C,J22*%
X2440476Y-1109745804D02*
X2440476Y-1110460089D01*
X2440476Y-1110460089D02*
X2392857Y-1110602946D01*
X2392857Y-1110602946D02*
X2297619Y-1110698185D01*
X2297619Y-1110698185D02*
X2154762Y-1110745804D01*
X2154762Y-1110745804D02*
X2059524Y-1110745804D01*
X2869048Y-1109841042D02*
X2916667Y-1109793423D01*
X2916667Y-1109793423D02*
X3011905Y-1109745804D01*
X3011905Y-1109745804D02*
X3250000Y-1109745804D01*
X3250000Y-1109745804D02*
X3345238Y-1109793423D01*
X3345238Y-1109793423D02*
X3392857Y-1109841042D01*
X3392857Y-1109841042D02*
X3440476Y-1109936280D01*
X3440476Y-1109936280D02*
X3440476Y-1110031518D01*
X3440476Y-1110031518D02*
X3392857Y-1110174375D01*
X3392857Y-1110174375D02*
X2821429Y-1110745804D01*
X2821429Y-1110745804D02*
X3440476Y-1110745804D01*
X3821429Y-1109841042D02*
X3869048Y-1109793423D01*
X3869048Y-1109793423D02*
X3964286Y-1109745804D01*
X3964286Y-1109745804D02*
X4202381Y-1109745804D01*
X4202381Y-1109745804D02*
X4297619Y-1109793423D01*
X4297619Y-1109793423D02*
X4345238Y-1109841042D01*
X4345238Y-1109841042D02*
X4392857Y-1109936280D01*
X4392857Y-1109936280D02*
X4392857Y-1110031518D01*
X4392857Y-1110031518D02*
X4345238Y-1110174375D01*
X4345238Y-1110174375D02*
X3773810Y-1110745804D01*
X3773810Y-1110745804D02*
X4392857Y-1110745804D01*
%TO.C,J34*%
X2440476Y-1463324815D02*
X2440476Y-1464039100D01*
X2440476Y-1464039100D02*
X2392857Y-1464181957D01*
X2392857Y-1464181957D02*
X2297619Y-1464277196D01*
X2297619Y-1464277196D02*
X2154762Y-1464324815D01*
X2154762Y-1464324815D02*
X2059524Y-1464324815D01*
X2821429Y-1463324815D02*
X3440476Y-1463324815D01*
X3440476Y-1463324815D02*
X3107143Y-1463705767D01*
X3107143Y-1463705767D02*
X3250000Y-1463705767D01*
X3250000Y-1463705767D02*
X3345238Y-1463753386D01*
X3345238Y-1463753386D02*
X3392857Y-1463801005D01*
X3392857Y-1463801005D02*
X3440476Y-1463896243D01*
X3440476Y-1463896243D02*
X3440476Y-1464134338D01*
X3440476Y-1464134338D02*
X3392857Y-1464229576D01*
X3392857Y-1464229576D02*
X3345238Y-1464277196D01*
X3345238Y-1464277196D02*
X3250000Y-1464324815D01*
X3250000Y-1464324815D02*
X2964286Y-1464324815D01*
X2964286Y-1464324815D02*
X2869048Y-1464277196D01*
X2869048Y-1464277196D02*
X2821429Y-1464229576D01*
X4297619Y-1463658148D02*
X4297619Y-1464324815D01*
X4059524Y-1463277196D02*
X3821429Y-1463991481D01*
X3821429Y-1463991481D02*
X4440476Y-1463991481D01*
%TO.C,J11*%
X2440476Y-278841042D02*
X2440476Y-279555327D01*
X2440476Y-279555327D02*
X2392857Y-279698184D01*
X2392857Y-279698184D02*
X2297619Y-279793423D01*
X2297619Y-279793423D02*
X2154762Y-279841042D01*
X2154762Y-279841042D02*
X2059524Y-279841042D01*
X3440476Y-279841042D02*
X2869048Y-279841042D01*
X3154762Y-279841042D02*
X3154762Y-278841042D01*
X3154762Y-278841042D02*
X3059524Y-278983899D01*
X3059524Y-278983899D02*
X2964286Y-279079137D01*
X2964286Y-279079137D02*
X2869048Y-279126756D01*
X4392857Y-279841042D02*
X3821429Y-279841042D01*
X4107143Y-279841042D02*
X4107143Y-278841042D01*
X4107143Y-278841042D02*
X4011905Y-278983899D01*
X4011905Y-278983899D02*
X3916667Y-279079137D01*
X3916667Y-279079137D02*
X3821429Y-279126756D01*
%TO.C,J1*%
X2916666Y-28325652D02*
X2916666Y-29039937D01*
X2916666Y-29039937D02*
X2869047Y-29182794D01*
X2869047Y-29182794D02*
X2773809Y-29278033D01*
X2773809Y-29278033D02*
X2630952Y-29325652D01*
X2630952Y-29325652D02*
X2535714Y-29325652D01*
X3916666Y-29325652D02*
X3345238Y-29325652D01*
X3630952Y-29325652D02*
X3630952Y-28325652D01*
X3630952Y-28325652D02*
X3535714Y-28468509D01*
X3535714Y-28468509D02*
X3440476Y-28563747D01*
X3440476Y-28563747D02*
X3345238Y-28611366D01*
%TO.C,J31*%
X2440476Y-1396861193D02*
X2440476Y-1397575478D01*
X2440476Y-1397575478D02*
X2392857Y-1397718335D01*
X2392857Y-1397718335D02*
X2297619Y-1397813574D01*
X2297619Y-1397813574D02*
X2154762Y-1397861193D01*
X2154762Y-1397861193D02*
X2059524Y-1397861193D01*
X2821429Y-1396861193D02*
X3440476Y-1396861193D01*
X3440476Y-1396861193D02*
X3107143Y-1397242145D01*
X3107143Y-1397242145D02*
X3250000Y-1397242145D01*
X3250000Y-1397242145D02*
X3345238Y-1397289764D01*
X3345238Y-1397289764D02*
X3392857Y-1397337383D01*
X3392857Y-1397337383D02*
X3440476Y-1397432621D01*
X3440476Y-1397432621D02*
X3440476Y-1397670716D01*
X3440476Y-1397670716D02*
X3392857Y-1397765954D01*
X3392857Y-1397765954D02*
X3345238Y-1397813574D01*
X3345238Y-1397813574D02*
X3250000Y-1397861193D01*
X3250000Y-1397861193D02*
X2964286Y-1397861193D01*
X2964286Y-1397861193D02*
X2869048Y-1397813574D01*
X2869048Y-1397813574D02*
X2821429Y-1397765954D01*
X4392857Y-1397861193D02*
X3821429Y-1397861193D01*
X4107143Y-1397861193D02*
X4107143Y-1396861193D01*
X4107143Y-1396861193D02*
X4011905Y-1397004050D01*
X4011905Y-1397004050D02*
X3916667Y-1397099288D01*
X3916667Y-1397099288D02*
X3821429Y-1397146907D01*
%TO.C,J7*%
X2660737Y-164896666D02*
X2660737Y-165610951D01*
X2660737Y-165610951D02*
X2613118Y-165753808D01*
X2613118Y-165753808D02*
X2517880Y-165849047D01*
X2517880Y-165849047D02*
X2375023Y-165896666D01*
X2375023Y-165896666D02*
X2279785Y-165896666D01*
X3041690Y-164896666D02*
X3708356Y-164896666D01*
X3708356Y-164896666D02*
X3279785Y-165896666D01*
%TO.C,J23*%
X2440476Y-1172531058D02*
X2440476Y-1173245343D01*
X2440476Y-1173245343D02*
X2392857Y-1173388200D01*
X2392857Y-1173388200D02*
X2297619Y-1173483439D01*
X2297619Y-1173483439D02*
X2154762Y-1173531058D01*
X2154762Y-1173531058D02*
X2059524Y-1173531058D01*
X2869048Y-1172626296D02*
X2916667Y-1172578677D01*
X2916667Y-1172578677D02*
X3011905Y-1172531058D01*
X3011905Y-1172531058D02*
X3250000Y-1172531058D01*
X3250000Y-1172531058D02*
X3345238Y-1172578677D01*
X3345238Y-1172578677D02*
X3392857Y-1172626296D01*
X3392857Y-1172626296D02*
X3440476Y-1172721534D01*
X3440476Y-1172721534D02*
X3440476Y-1172816772D01*
X3440476Y-1172816772D02*
X3392857Y-1172959629D01*
X3392857Y-1172959629D02*
X2821429Y-1173531058D01*
X2821429Y-1173531058D02*
X3440476Y-1173531058D01*
X3773810Y-1172531058D02*
X4392857Y-1172531058D01*
X4392857Y-1172531058D02*
X4059524Y-1172912010D01*
X4059524Y-1172912010D02*
X4202381Y-1172912010D01*
X4202381Y-1172912010D02*
X4297619Y-1172959629D01*
X4297619Y-1172959629D02*
X4345238Y-1173007248D01*
X4345238Y-1173007248D02*
X4392857Y-1173102486D01*
X4392857Y-1173102486D02*
X4392857Y-1173340581D01*
X4392857Y-1173340581D02*
X4345238Y-1173435819D01*
X4345238Y-1173435819D02*
X4297619Y-1173483439D01*
X4297619Y-1173483439D02*
X4202381Y-1173531058D01*
X4202381Y-1173531058D02*
X3916667Y-1173531058D01*
X3916667Y-1173531058D02*
X3821429Y-1173483439D01*
X3821429Y-1173483439D02*
X3773810Y-1173435819D01*
%TO.C,J29*%
X2440476Y-1350579226D02*
X2440476Y-1351293511D01*
X2440476Y-1351293511D02*
X2392857Y-1351436368D01*
X2392857Y-1351436368D02*
X2297619Y-1351531607D01*
X2297619Y-1351531607D02*
X2154762Y-1351579226D01*
X2154762Y-1351579226D02*
X2059524Y-1351579226D01*
X2869048Y-1350674464D02*
X2916667Y-1350626845D01*
X2916667Y-1350626845D02*
X3011905Y-1350579226D01*
X3011905Y-1350579226D02*
X3250000Y-1350579226D01*
X3250000Y-1350579226D02*
X3345238Y-1350626845D01*
X3345238Y-1350626845D02*
X3392857Y-1350674464D01*
X3392857Y-1350674464D02*
X3440476Y-1350769702D01*
X3440476Y-1350769702D02*
X3440476Y-1350864940D01*
X3440476Y-1350864940D02*
X3392857Y-1351007797D01*
X3392857Y-1351007797D02*
X2821429Y-1351579226D01*
X2821429Y-1351579226D02*
X3440476Y-1351579226D01*
X3916667Y-1351579226D02*
X4107143Y-1351579226D01*
X4107143Y-1351579226D02*
X4202381Y-1351531607D01*
X4202381Y-1351531607D02*
X4250000Y-1351483987D01*
X4250000Y-1351483987D02*
X4345238Y-1351341130D01*
X4345238Y-1351341130D02*
X4392857Y-1351150654D01*
X4392857Y-1351150654D02*
X4392857Y-1350769702D01*
X4392857Y-1350769702D02*
X4345238Y-1350674464D01*
X4345238Y-1350674464D02*
X4297619Y-1350626845D01*
X4297619Y-1350626845D02*
X4202381Y-1350579226D01*
X4202381Y-1350579226D02*
X4011905Y-1350579226D01*
X4011905Y-1350579226D02*
X3916667Y-1350626845D01*
X3916667Y-1350626845D02*
X3869048Y-1350674464D01*
X3869048Y-1350674464D02*
X3821429Y-1350769702D01*
X3821429Y-1350769702D02*
X3821429Y-1351007797D01*
X3821429Y-1351007797D02*
X3869048Y-1351103035D01*
X3869048Y-1351103035D02*
X3916667Y-1351150654D01*
X3916667Y-1351150654D02*
X4011905Y-1351198273D01*
X4011905Y-1351198273D02*
X4202381Y-1351198273D01*
X4202381Y-1351198273D02*
X4297619Y-1351150654D01*
X4297619Y-1351150654D02*
X4345238Y-1351103035D01*
X4345238Y-1351103035D02*
X4392857Y-1351007797D01*
%TO.C,J28*%
X2440476Y-1327292701D02*
X2440476Y-1328006986D01*
X2440476Y-1328006986D02*
X2392857Y-1328149843D01*
X2392857Y-1328149843D02*
X2297619Y-1328245082D01*
X2297619Y-1328245082D02*
X2154762Y-1328292701D01*
X2154762Y-1328292701D02*
X2059524Y-1328292701D01*
X2869048Y-1327387939D02*
X2916667Y-1327340320D01*
X2916667Y-1327340320D02*
X3011905Y-1327292701D01*
X3011905Y-1327292701D02*
X3250000Y-1327292701D01*
X3250000Y-1327292701D02*
X3345238Y-1327340320D01*
X3345238Y-1327340320D02*
X3392857Y-1327387939D01*
X3392857Y-1327387939D02*
X3440476Y-1327483177D01*
X3440476Y-1327483177D02*
X3440476Y-1327578415D01*
X3440476Y-1327578415D02*
X3392857Y-1327721272D01*
X3392857Y-1327721272D02*
X2821429Y-1328292701D01*
X2821429Y-1328292701D02*
X3440476Y-1328292701D01*
X4011905Y-1327721272D02*
X3916667Y-1327673653D01*
X3916667Y-1327673653D02*
X3869048Y-1327626034D01*
X3869048Y-1327626034D02*
X3821429Y-1327530796D01*
X3821429Y-1327530796D02*
X3821429Y-1327483177D01*
X3821429Y-1327483177D02*
X3869048Y-1327387939D01*
X3869048Y-1327387939D02*
X3916667Y-1327340320D01*
X3916667Y-1327340320D02*
X4011905Y-1327292701D01*
X4011905Y-1327292701D02*
X4202381Y-1327292701D01*
X4202381Y-1327292701D02*
X4297619Y-1327340320D01*
X4297619Y-1327340320D02*
X4345238Y-1327387939D01*
X4345238Y-1327387939D02*
X4392857Y-1327483177D01*
X4392857Y-1327483177D02*
X4392857Y-1327530796D01*
X4392857Y-1327530796D02*
X4345238Y-1327626034D01*
X4345238Y-1327626034D02*
X4297619Y-1327673653D01*
X4297619Y-1327673653D02*
X4202381Y-1327721272D01*
X4202381Y-1327721272D02*
X4011905Y-1327721272D01*
X4011905Y-1327721272D02*
X3916667Y-1327768891D01*
X3916667Y-1327768891D02*
X3869048Y-1327816510D01*
X3869048Y-1327816510D02*
X3821429Y-1327911748D01*
X3821429Y-1327911748D02*
X3821429Y-1328102224D01*
X3821429Y-1328102224D02*
X3869048Y-1328197462D01*
X3869048Y-1328197462D02*
X3916667Y-1328245082D01*
X3916667Y-1328245082D02*
X4011905Y-1328292701D01*
X4011905Y-1328292701D02*
X4202381Y-1328292701D01*
X4202381Y-1328292701D02*
X4297619Y-1328245082D01*
X4297619Y-1328245082D02*
X4345238Y-1328197462D01*
X4345238Y-1328197462D02*
X4392857Y-1328102224D01*
X4392857Y-1328102224D02*
X4392857Y-1327911748D01*
X4392857Y-1327911748D02*
X4345238Y-1327816510D01*
X4345238Y-1327816510D02*
X4297619Y-1327768891D01*
X4297619Y-1327768891D02*
X4202381Y-1327721272D01*
%TO.C,J14*%
X2440476Y-478461274D02*
X2440476Y-479175559D01*
X2440476Y-479175559D02*
X2392857Y-479318416D01*
X2392857Y-479318416D02*
X2297619Y-479413655D01*
X2297619Y-479413655D02*
X2154762Y-479461274D01*
X2154762Y-479461274D02*
X2059524Y-479461274D01*
X3440476Y-479461274D02*
X2869048Y-479461274D01*
X3154762Y-479461274D02*
X3154762Y-478461274D01*
X3154762Y-478461274D02*
X3059524Y-478604131D01*
X3059524Y-478604131D02*
X2964286Y-478699369D01*
X2964286Y-478699369D02*
X2869048Y-478746988D01*
X4297619Y-478794607D02*
X4297619Y-479461274D01*
X4059524Y-478413655D02*
X3821429Y-479127940D01*
X3821429Y-479127940D02*
X4440476Y-479127940D01*
%TO.C,J17*%
X2440476Y-649453052D02*
X2440476Y-650167337D01*
X2440476Y-650167337D02*
X2392857Y-650310194D01*
X2392857Y-650310194D02*
X2297619Y-650405433D01*
X2297619Y-650405433D02*
X2154762Y-650453052D01*
X2154762Y-650453052D02*
X2059524Y-650453052D01*
X3440476Y-650453052D02*
X2869048Y-650453052D01*
X3154762Y-650453052D02*
X3154762Y-649453052D01*
X3154762Y-649453052D02*
X3059524Y-649595909D01*
X3059524Y-649595909D02*
X2964286Y-649691147D01*
X2964286Y-649691147D02*
X2869048Y-649738766D01*
X3773810Y-649453052D02*
X4440476Y-649453052D01*
X4440476Y-649453052D02*
X4011905Y-650453052D01*
%TO.C,J20*%
X2440476Y-944442575D02*
X2440476Y-945156860D01*
X2440476Y-945156860D02*
X2392857Y-945299717D01*
X2392857Y-945299717D02*
X2297619Y-945394956D01*
X2297619Y-945394956D02*
X2154762Y-945442575D01*
X2154762Y-945442575D02*
X2059524Y-945442575D01*
X2869048Y-944537813D02*
X2916667Y-944490194D01*
X2916667Y-944490194D02*
X3011905Y-944442575D01*
X3011905Y-944442575D02*
X3250000Y-944442575D01*
X3250000Y-944442575D02*
X3345238Y-944490194D01*
X3345238Y-944490194D02*
X3392857Y-944537813D01*
X3392857Y-944537813D02*
X3440476Y-944633051D01*
X3440476Y-944633051D02*
X3440476Y-944728289D01*
X3440476Y-944728289D02*
X3392857Y-944871146D01*
X3392857Y-944871146D02*
X2821429Y-945442575D01*
X2821429Y-945442575D02*
X3440476Y-945442575D01*
X4059524Y-944442575D02*
X4154762Y-944442575D01*
X4154762Y-944442575D02*
X4250000Y-944490194D01*
X4250000Y-944490194D02*
X4297619Y-944537813D01*
X4297619Y-944537813D02*
X4345238Y-944633051D01*
X4345238Y-944633051D02*
X4392857Y-944823527D01*
X4392857Y-944823527D02*
X4392857Y-945061622D01*
X4392857Y-945061622D02*
X4345238Y-945252098D01*
X4345238Y-945252098D02*
X4297619Y-945347336D01*
X4297619Y-945347336D02*
X4250000Y-945394956D01*
X4250000Y-945394956D02*
X4154762Y-945442575D01*
X4154762Y-945442575D02*
X4059524Y-945442575D01*
X4059524Y-945442575D02*
X3964286Y-945394956D01*
X3964286Y-945394956D02*
X3916667Y-945347336D01*
X3916667Y-945347336D02*
X3869048Y-945252098D01*
X3869048Y-945252098D02*
X3821429Y-945061622D01*
X3821429Y-945061622D02*
X3821429Y-944823527D01*
X3821429Y-944823527D02*
X3869048Y-944633051D01*
X3869048Y-944633051D02*
X3916667Y-944537813D01*
X3916667Y-944537813D02*
X3964286Y-944490194D01*
X3964286Y-944490194D02*
X4059524Y-944442575D01*
%TO.C,J9*%
X2916666Y-216841133D02*
X2916666Y-217555418D01*
X2916666Y-217555418D02*
X2869047Y-217698275D01*
X2869047Y-217698275D02*
X2773809Y-217793514D01*
X2773809Y-217793514D02*
X2630952Y-217841133D01*
X2630952Y-217841133D02*
X2535714Y-217841133D01*
X3440476Y-217841133D02*
X3630952Y-217841133D01*
X3630952Y-217841133D02*
X3726190Y-217793514D01*
X3726190Y-217793514D02*
X3773809Y-217745894D01*
X3773809Y-217745894D02*
X3869047Y-217603037D01*
X3869047Y-217603037D02*
X3916666Y-217412561D01*
X3916666Y-217412561D02*
X3916666Y-217031609D01*
X3916666Y-217031609D02*
X3869047Y-216936371D01*
X3869047Y-216936371D02*
X3821428Y-216888752D01*
X3821428Y-216888752D02*
X3726190Y-216841133D01*
X3726190Y-216841133D02*
X3535714Y-216841133D01*
X3535714Y-216841133D02*
X3440476Y-216888752D01*
X3440476Y-216888752D02*
X3392857Y-216936371D01*
X3392857Y-216936371D02*
X3345238Y-217031609D01*
X3345238Y-217031609D02*
X3345238Y-217269704D01*
X3345238Y-217269704D02*
X3392857Y-217364942D01*
X3392857Y-217364942D02*
X3440476Y-217412561D01*
X3440476Y-217412561D02*
X3535714Y-217460180D01*
X3535714Y-217460180D02*
X3726190Y-217460180D01*
X3726190Y-217460180D02*
X3821428Y-217412561D01*
X3821428Y-217412561D02*
X3869047Y-217364942D01*
X3869047Y-217364942D02*
X3916666Y-217269704D01*
%TO.C,J24*%
X2440476Y-1212303969D02*
X2440476Y-1213018254D01*
X2440476Y-1213018254D02*
X2392857Y-1213161111D01*
X2392857Y-1213161111D02*
X2297619Y-1213256350D01*
X2297619Y-1213256350D02*
X2154762Y-1213303969D01*
X2154762Y-1213303969D02*
X2059524Y-1213303969D01*
X2869048Y-1212399207D02*
X2916667Y-1212351588D01*
X2916667Y-1212351588D02*
X3011905Y-1212303969D01*
X3011905Y-1212303969D02*
X3250000Y-1212303969D01*
X3250000Y-1212303969D02*
X3345238Y-1212351588D01*
X3345238Y-1212351588D02*
X3392857Y-1212399207D01*
X3392857Y-1212399207D02*
X3440476Y-1212494445D01*
X3440476Y-1212494445D02*
X3440476Y-1212589683D01*
X3440476Y-1212589683D02*
X3392857Y-1212732540D01*
X3392857Y-1212732540D02*
X2821429Y-1213303969D01*
X2821429Y-1213303969D02*
X3440476Y-1213303969D01*
X4297619Y-1212637302D02*
X4297619Y-1213303969D01*
X4059524Y-1212256350D02*
X3821429Y-1212970635D01*
X3821429Y-1212970635D02*
X4440476Y-1212970635D01*
%TO.C,J3*%
X2853197Y-72460442D02*
X2853197Y-73174727D01*
X2853197Y-73174727D02*
X2805578Y-73317584D01*
X2805578Y-73317584D02*
X2710340Y-73412823D01*
X2710340Y-73412823D02*
X2567483Y-73460442D01*
X2567483Y-73460442D02*
X2472245Y-73460442D01*
X3234150Y-72460442D02*
X3853197Y-72460442D01*
X3853197Y-72460442D02*
X3519864Y-72841394D01*
X3519864Y-72841394D02*
X3662721Y-72841394D01*
X3662721Y-72841394D02*
X3757959Y-72889013D01*
X3757959Y-72889013D02*
X3805578Y-72936632D01*
X3805578Y-72936632D02*
X3853197Y-73031870D01*
X3853197Y-73031870D02*
X3853197Y-73269965D01*
X3853197Y-73269965D02*
X3805578Y-73365203D01*
X3805578Y-73365203D02*
X3757959Y-73412823D01*
X3757959Y-73412823D02*
X3662721Y-73460442D01*
X3662721Y-73460442D02*
X3377007Y-73460442D01*
X3377007Y-73460442D02*
X3281769Y-73412823D01*
X3281769Y-73412823D02*
X3234150Y-73365203D01*
%TO.C,J8*%
X2916666Y-190028028D02*
X2916666Y-190742313D01*
X2916666Y-190742313D02*
X2869047Y-190885170D01*
X2869047Y-190885170D02*
X2773809Y-190980409D01*
X2773809Y-190980409D02*
X2630952Y-191028028D01*
X2630952Y-191028028D02*
X2535714Y-191028028D01*
X3535714Y-190456599D02*
X3440476Y-190408980D01*
X3440476Y-190408980D02*
X3392857Y-190361361D01*
X3392857Y-190361361D02*
X3345238Y-190266123D01*
X3345238Y-190266123D02*
X3345238Y-190218504D01*
X3345238Y-190218504D02*
X3392857Y-190123266D01*
X3392857Y-190123266D02*
X3440476Y-190075647D01*
X3440476Y-190075647D02*
X3535714Y-190028028D01*
X3535714Y-190028028D02*
X3726190Y-190028028D01*
X3726190Y-190028028D02*
X3821428Y-190075647D01*
X3821428Y-190075647D02*
X3869047Y-190123266D01*
X3869047Y-190123266D02*
X3916666Y-190218504D01*
X3916666Y-190218504D02*
X3916666Y-190266123D01*
X3916666Y-190266123D02*
X3869047Y-190361361D01*
X3869047Y-190361361D02*
X3821428Y-190408980D01*
X3821428Y-190408980D02*
X3726190Y-190456599D01*
X3726190Y-190456599D02*
X3535714Y-190456599D01*
X3535714Y-190456599D02*
X3440476Y-190504218D01*
X3440476Y-190504218D02*
X3392857Y-190551837D01*
X3392857Y-190551837D02*
X3345238Y-190647075D01*
X3345238Y-190647075D02*
X3345238Y-190837551D01*
X3345238Y-190837551D02*
X3392857Y-190932789D01*
X3392857Y-190932789D02*
X3440476Y-190980409D01*
X3440476Y-190980409D02*
X3535714Y-191028028D01*
X3535714Y-191028028D02*
X3726190Y-191028028D01*
X3726190Y-191028028D02*
X3821428Y-190980409D01*
X3821428Y-190980409D02*
X3869047Y-190932789D01*
X3869047Y-190932789D02*
X3916666Y-190837551D01*
X3916666Y-190837551D02*
X3916666Y-190647075D01*
X3916666Y-190647075D02*
X3869047Y-190551837D01*
X3869047Y-190551837D02*
X3821428Y-190504218D01*
X3821428Y-190504218D02*
X3726190Y-190456599D01*
%TO.C,J4*%
X2916666Y-94596592D02*
X2916666Y-95310877D01*
X2916666Y-95310877D02*
X2869047Y-95453734D01*
X2869047Y-95453734D02*
X2773809Y-95548973D01*
X2773809Y-95548973D02*
X2630952Y-95596592D01*
X2630952Y-95596592D02*
X2535714Y-95596592D01*
X3821428Y-94929925D02*
X3821428Y-95596592D01*
X3583333Y-94548973D02*
X3345238Y-95263258D01*
X3345238Y-95263258D02*
X3964285Y-95263258D01*
%TO.C,J15*%
X2074909Y-546826798D02*
X2074909Y-547541083D01*
X2074909Y-547541083D02*
X2027290Y-547683940D01*
X2027290Y-547683940D02*
X1932052Y-547779179D01*
X1932052Y-547779179D02*
X1789195Y-547826798D01*
X1789195Y-547826798D02*
X1693957Y-547826798D01*
X3074909Y-547826798D02*
X2503481Y-547826798D01*
X2789195Y-547826798D02*
X2789195Y-546826798D01*
X2789195Y-546826798D02*
X2693957Y-546969655D01*
X2693957Y-546969655D02*
X2598719Y-547064893D01*
X2598719Y-547064893D02*
X2503481Y-547112512D01*
X3979671Y-546826798D02*
X3503481Y-546826798D01*
X3503481Y-546826798D02*
X3455862Y-547302988D01*
X3455862Y-547302988D02*
X3503481Y-547255369D01*
X3503481Y-547255369D02*
X3598719Y-547207750D01*
X3598719Y-547207750D02*
X3836814Y-547207750D01*
X3836814Y-547207750D02*
X3932052Y-547255369D01*
X3932052Y-547255369D02*
X3979671Y-547302988D01*
X3979671Y-547302988D02*
X4027290Y-547398226D01*
X4027290Y-547398226D02*
X4027290Y-547636321D01*
X4027290Y-547636321D02*
X3979671Y-547731559D01*
X3979671Y-547731559D02*
X3932052Y-547779179D01*
X3932052Y-547779179D02*
X3836814Y-547826798D01*
X3836814Y-547826798D02*
X3598719Y-547826798D01*
X3598719Y-547826798D02*
X3503481Y-547779179D01*
X3503481Y-547779179D02*
X3455862Y-547731559D01*
%TO.C,J6*%
X2916666Y-140785871D02*
X2916666Y-141500156D01*
X2916666Y-141500156D02*
X2869047Y-141643013D01*
X2869047Y-141643013D02*
X2773809Y-141738252D01*
X2773809Y-141738252D02*
X2630952Y-141785871D01*
X2630952Y-141785871D02*
X2535714Y-141785871D01*
X3821428Y-140785871D02*
X3630952Y-140785871D01*
X3630952Y-140785871D02*
X3535714Y-140833490D01*
X3535714Y-140833490D02*
X3488095Y-140881109D01*
X3488095Y-140881109D02*
X3392857Y-141023966D01*
X3392857Y-141023966D02*
X3345238Y-141214442D01*
X3345238Y-141214442D02*
X3345238Y-141595394D01*
X3345238Y-141595394D02*
X3392857Y-141690632D01*
X3392857Y-141690632D02*
X3440476Y-141738252D01*
X3440476Y-141738252D02*
X3535714Y-141785871D01*
X3535714Y-141785871D02*
X3726190Y-141785871D01*
X3726190Y-141785871D02*
X3821428Y-141738252D01*
X3821428Y-141738252D02*
X3869047Y-141690632D01*
X3869047Y-141690632D02*
X3916666Y-141595394D01*
X3916666Y-141595394D02*
X3916666Y-141357299D01*
X3916666Y-141357299D02*
X3869047Y-141262061D01*
X3869047Y-141262061D02*
X3821428Y-141214442D01*
X3821428Y-141214442D02*
X3726190Y-141166823D01*
X3726190Y-141166823D02*
X3535714Y-141166823D01*
X3535714Y-141166823D02*
X3440476Y-141214442D01*
X3440476Y-141214442D02*
X3392857Y-141262061D01*
X3392857Y-141262061D02*
X3345238Y-141357299D01*
%TO.C,J27*%
X2440476Y-1301046847D02*
X2440476Y-1301761132D01*
X2440476Y-1301761132D02*
X2392857Y-1301903989D01*
X2392857Y-1301903989D02*
X2297619Y-1301999228D01*
X2297619Y-1301999228D02*
X2154762Y-1302046847D01*
X2154762Y-1302046847D02*
X2059524Y-1302046847D01*
X2869048Y-1301142085D02*
X2916667Y-1301094466D01*
X2916667Y-1301094466D02*
X3011905Y-1301046847D01*
X3011905Y-1301046847D02*
X3250000Y-1301046847D01*
X3250000Y-1301046847D02*
X3345238Y-1301094466D01*
X3345238Y-1301094466D02*
X3392857Y-1301142085D01*
X3392857Y-1301142085D02*
X3440476Y-1301237323D01*
X3440476Y-1301237323D02*
X3440476Y-1301332561D01*
X3440476Y-1301332561D02*
X3392857Y-1301475418D01*
X3392857Y-1301475418D02*
X2821429Y-1302046847D01*
X2821429Y-1302046847D02*
X3440476Y-1302046847D01*
X3773810Y-1301046847D02*
X4440476Y-1301046847D01*
X4440476Y-1301046847D02*
X4011905Y-1302046847D01*
%TO.C,J32*%
X2440476Y-1419177446D02*
X2440476Y-1419891731D01*
X2440476Y-1419891731D02*
X2392857Y-1420034588D01*
X2392857Y-1420034588D02*
X2297619Y-1420129827D01*
X2297619Y-1420129827D02*
X2154762Y-1420177446D01*
X2154762Y-1420177446D02*
X2059524Y-1420177446D01*
X2821429Y-1419177446D02*
X3440476Y-1419177446D01*
X3440476Y-1419177446D02*
X3107143Y-1419558398D01*
X3107143Y-1419558398D02*
X3250000Y-1419558398D01*
X3250000Y-1419558398D02*
X3345238Y-1419606017D01*
X3345238Y-1419606017D02*
X3392857Y-1419653636D01*
X3392857Y-1419653636D02*
X3440476Y-1419748874D01*
X3440476Y-1419748874D02*
X3440476Y-1419986969D01*
X3440476Y-1419986969D02*
X3392857Y-1420082207D01*
X3392857Y-1420082207D02*
X3345238Y-1420129827D01*
X3345238Y-1420129827D02*
X3250000Y-1420177446D01*
X3250000Y-1420177446D02*
X2964286Y-1420177446D01*
X2964286Y-1420177446D02*
X2869048Y-1420129827D01*
X2869048Y-1420129827D02*
X2821429Y-1420082207D01*
X3821429Y-1419272684D02*
X3869048Y-1419225065D01*
X3869048Y-1419225065D02*
X3964286Y-1419177446D01*
X3964286Y-1419177446D02*
X4202381Y-1419177446D01*
X4202381Y-1419177446D02*
X4297619Y-1419225065D01*
X4297619Y-1419225065D02*
X4345238Y-1419272684D01*
X4345238Y-1419272684D02*
X4392857Y-1419367922D01*
X4392857Y-1419367922D02*
X4392857Y-1419463160D01*
X4392857Y-1419463160D02*
X4345238Y-1419606017D01*
X4345238Y-1419606017D02*
X3773810Y-1420177446D01*
X3773810Y-1420177446D02*
X4392857Y-1420177446D01*
%TO.C,J26*%
X2440476Y-1274364371D02*
X2440476Y-1275078656D01*
X2440476Y-1275078656D02*
X2392857Y-1275221513D01*
X2392857Y-1275221513D02*
X2297619Y-1275316752D01*
X2297619Y-1275316752D02*
X2154762Y-1275364371D01*
X2154762Y-1275364371D02*
X2059524Y-1275364371D01*
X2869048Y-1274459609D02*
X2916667Y-1274411990D01*
X2916667Y-1274411990D02*
X3011905Y-1274364371D01*
X3011905Y-1274364371D02*
X3250000Y-1274364371D01*
X3250000Y-1274364371D02*
X3345238Y-1274411990D01*
X3345238Y-1274411990D02*
X3392857Y-1274459609D01*
X3392857Y-1274459609D02*
X3440476Y-1274554847D01*
X3440476Y-1274554847D02*
X3440476Y-1274650085D01*
X3440476Y-1274650085D02*
X3392857Y-1274792942D01*
X3392857Y-1274792942D02*
X2821429Y-1275364371D01*
X2821429Y-1275364371D02*
X3440476Y-1275364371D01*
X4297619Y-1274364371D02*
X4107143Y-1274364371D01*
X4107143Y-1274364371D02*
X4011905Y-1274411990D01*
X4011905Y-1274411990D02*
X3964286Y-1274459609D01*
X3964286Y-1274459609D02*
X3869048Y-1274602466D01*
X3869048Y-1274602466D02*
X3821429Y-1274792942D01*
X3821429Y-1274792942D02*
X3821429Y-1275173894D01*
X3821429Y-1275173894D02*
X3869048Y-1275269132D01*
X3869048Y-1275269132D02*
X3916667Y-1275316752D01*
X3916667Y-1275316752D02*
X4011905Y-1275364371D01*
X4011905Y-1275364371D02*
X4202381Y-1275364371D01*
X4202381Y-1275364371D02*
X4297619Y-1275316752D01*
X4297619Y-1275316752D02*
X4345238Y-1275269132D01*
X4345238Y-1275269132D02*
X4392857Y-1275173894D01*
X4392857Y-1275173894D02*
X4392857Y-1274935799D01*
X4392857Y-1274935799D02*
X4345238Y-1274840561D01*
X4345238Y-1274840561D02*
X4297619Y-1274792942D01*
X4297619Y-1274792942D02*
X4202381Y-1274745323D01*
X4202381Y-1274745323D02*
X4011905Y-1274745323D01*
X4011905Y-1274745323D02*
X3916667Y-1274792942D01*
X3916667Y-1274792942D02*
X3869048Y-1274840561D01*
X3869048Y-1274840561D02*
X3821429Y-1274935799D01*
%TO.C,J25*%
X2440476Y-1244863166D02*
X2440476Y-1245577451D01*
X2440476Y-1245577451D02*
X2392857Y-1245720308D01*
X2392857Y-1245720308D02*
X2297619Y-1245815547D01*
X2297619Y-1245815547D02*
X2154762Y-1245863166D01*
X2154762Y-1245863166D02*
X2059524Y-1245863166D01*
X2869048Y-1244958404D02*
X2916667Y-1244910785D01*
X2916667Y-1244910785D02*
X3011905Y-1244863166D01*
X3011905Y-1244863166D02*
X3250000Y-1244863166D01*
X3250000Y-1244863166D02*
X3345238Y-1244910785D01*
X3345238Y-1244910785D02*
X3392857Y-1244958404D01*
X3392857Y-1244958404D02*
X3440476Y-1245053642D01*
X3440476Y-1245053642D02*
X3440476Y-1245148880D01*
X3440476Y-1245148880D02*
X3392857Y-1245291737D01*
X3392857Y-1245291737D02*
X2821429Y-1245863166D01*
X2821429Y-1245863166D02*
X3440476Y-1245863166D01*
X4345238Y-1244863166D02*
X3869048Y-1244863166D01*
X3869048Y-1244863166D02*
X3821429Y-1245339356D01*
X3821429Y-1245339356D02*
X3869048Y-1245291737D01*
X3869048Y-1245291737D02*
X3964286Y-1245244118D01*
X3964286Y-1245244118D02*
X4202381Y-1245244118D01*
X4202381Y-1245244118D02*
X4297619Y-1245291737D01*
X4297619Y-1245291737D02*
X4345238Y-1245339356D01*
X4345238Y-1245339356D02*
X4392857Y-1245434594D01*
X4392857Y-1245434594D02*
X4392857Y-1245672689D01*
X4392857Y-1245672689D02*
X4345238Y-1245767927D01*
X4345238Y-1245767927D02*
X4297619Y-1245815547D01*
X4297619Y-1245815547D02*
X4202381Y-1245863166D01*
X4202381Y-1245863166D02*
X3964286Y-1245863166D01*
X3964286Y-1245863166D02*
X3869048Y-1245815547D01*
X3869048Y-1245815547D02*
X3821429Y-1245767927D01*
%TO.C,J10*%
X2440476Y-246051730D02*
X2440476Y-246766015D01*
X2440476Y-246766015D02*
X2392857Y-246908872D01*
X2392857Y-246908872D02*
X2297619Y-247004111D01*
X2297619Y-247004111D02*
X2154762Y-247051730D01*
X2154762Y-247051730D02*
X2059524Y-247051730D01*
X3440476Y-247051730D02*
X2869048Y-247051730D01*
X3154762Y-247051730D02*
X3154762Y-246051730D01*
X3154762Y-246051730D02*
X3059524Y-246194587D01*
X3059524Y-246194587D02*
X2964286Y-246289825D01*
X2964286Y-246289825D02*
X2869048Y-246337444D01*
X4059524Y-246051730D02*
X4154762Y-246051730D01*
X4154762Y-246051730D02*
X4250000Y-246099349D01*
X4250000Y-246099349D02*
X4297619Y-246146968D01*
X4297619Y-246146968D02*
X4345238Y-246242206D01*
X4345238Y-246242206D02*
X4392857Y-246432682D01*
X4392857Y-246432682D02*
X4392857Y-246670777D01*
X4392857Y-246670777D02*
X4345238Y-246861253D01*
X4345238Y-246861253D02*
X4297619Y-246956491D01*
X4297619Y-246956491D02*
X4250000Y-247004111D01*
X4250000Y-247004111D02*
X4154762Y-247051730D01*
X4154762Y-247051730D02*
X4059524Y-247051730D01*
X4059524Y-247051730D02*
X3964286Y-247004111D01*
X3964286Y-247004111D02*
X3916667Y-246956491D01*
X3916667Y-246956491D02*
X3869048Y-246861253D01*
X3869048Y-246861253D02*
X3821429Y-246670777D01*
X3821429Y-246670777D02*
X3821429Y-246432682D01*
X3821429Y-246432682D02*
X3869048Y-246242206D01*
X3869048Y-246242206D02*
X3916667Y-246146968D01*
X3916667Y-246146968D02*
X3964286Y-246099349D01*
X3964286Y-246099349D02*
X4059524Y-246051730D01*
%TO.C,J30*%
X2440476Y-1373574669D02*
X2440476Y-1374288954D01*
X2440476Y-1374288954D02*
X2392857Y-1374431811D01*
X2392857Y-1374431811D02*
X2297619Y-1374527050D01*
X2297619Y-1374527050D02*
X2154762Y-1374574669D01*
X2154762Y-1374574669D02*
X2059524Y-1374574669D01*
X2821429Y-1373574669D02*
X3440476Y-1373574669D01*
X3440476Y-1373574669D02*
X3107143Y-1373955621D01*
X3107143Y-1373955621D02*
X3250000Y-1373955621D01*
X3250000Y-1373955621D02*
X3345238Y-1374003240D01*
X3345238Y-1374003240D02*
X3392857Y-1374050859D01*
X3392857Y-1374050859D02*
X3440476Y-1374146097D01*
X3440476Y-1374146097D02*
X3440476Y-1374384192D01*
X3440476Y-1374384192D02*
X3392857Y-1374479430D01*
X3392857Y-1374479430D02*
X3345238Y-1374527050D01*
X3345238Y-1374527050D02*
X3250000Y-1374574669D01*
X3250000Y-1374574669D02*
X2964286Y-1374574669D01*
X2964286Y-1374574669D02*
X2869048Y-1374527050D01*
X2869048Y-1374527050D02*
X2821429Y-1374479430D01*
X4059524Y-1373574669D02*
X4154762Y-1373574669D01*
X4154762Y-1373574669D02*
X4250000Y-1373622288D01*
X4250000Y-1373622288D02*
X4297619Y-1373669907D01*
X4297619Y-1373669907D02*
X4345238Y-1373765145D01*
X4345238Y-1373765145D02*
X4392857Y-1373955621D01*
X4392857Y-1373955621D02*
X4392857Y-1374193716D01*
X4392857Y-1374193716D02*
X4345238Y-1374384192D01*
X4345238Y-1374384192D02*
X4297619Y-1374479430D01*
X4297619Y-1374479430D02*
X4250000Y-1374527050D01*
X4250000Y-1374527050D02*
X4154762Y-1374574669D01*
X4154762Y-1374574669D02*
X4059524Y-1374574669D01*
X4059524Y-1374574669D02*
X3964286Y-1374527050D01*
X3964286Y-1374527050D02*
X3916667Y-1374479430D01*
X3916667Y-1374479430D02*
X3869048Y-1374384192D01*
X3869048Y-1374384192D02*
X3821429Y-1374193716D01*
X3821429Y-1374193716D02*
X3821429Y-1373955621D01*
X3821429Y-1373955621D02*
X3869048Y-1373765145D01*
X3869048Y-1373765145D02*
X3916667Y-1373669907D01*
X3916667Y-1373669907D02*
X3964286Y-1373622288D01*
X3964286Y-1373622288D02*
X4059524Y-1373574669D01*
%TO.C,J2*%
X2916666Y-50188383D02*
X2916666Y-50902668D01*
X2916666Y-50902668D02*
X2869047Y-51045525D01*
X2869047Y-51045525D02*
X2773809Y-51140764D01*
X2773809Y-51140764D02*
X2630952Y-51188383D01*
X2630952Y-51188383D02*
X2535714Y-51188383D01*
X3345238Y-50283621D02*
X3392857Y-50236002D01*
X3392857Y-50236002D02*
X3488095Y-50188383D01*
X3488095Y-50188383D02*
X3726190Y-50188383D01*
X3726190Y-50188383D02*
X3821428Y-50236002D01*
X3821428Y-50236002D02*
X3869047Y-50283621D01*
X3869047Y-50283621D02*
X3916666Y-50378859D01*
X3916666Y-50378859D02*
X3916666Y-50474097D01*
X3916666Y-50474097D02*
X3869047Y-50616954D01*
X3869047Y-50616954D02*
X3297619Y-51188383D01*
X3297619Y-51188383D02*
X3916666Y-51188383D01*
%TO.C,J12*%
X2440476Y-318749355D02*
X2440476Y-319463640D01*
X2440476Y-319463640D02*
X2392857Y-319606497D01*
X2392857Y-319606497D02*
X2297619Y-319701736D01*
X2297619Y-319701736D02*
X2154762Y-319749355D01*
X2154762Y-319749355D02*
X2059524Y-319749355D01*
X3440476Y-319749355D02*
X2869048Y-319749355D01*
X3154762Y-319749355D02*
X3154762Y-318749355D01*
X3154762Y-318749355D02*
X3059524Y-318892212D01*
X3059524Y-318892212D02*
X2964286Y-318987450D01*
X2964286Y-318987450D02*
X2869048Y-319035069D01*
X3821429Y-318844593D02*
X3869048Y-318796974D01*
X3869048Y-318796974D02*
X3964286Y-318749355D01*
X3964286Y-318749355D02*
X4202381Y-318749355D01*
X4202381Y-318749355D02*
X4297619Y-318796974D01*
X4297619Y-318796974D02*
X4345238Y-318844593D01*
X4345238Y-318844593D02*
X4392857Y-318939831D01*
X4392857Y-318939831D02*
X4392857Y-319035069D01*
X4392857Y-319035069D02*
X4345238Y-319177926D01*
X4345238Y-319177926D02*
X3773810Y-319749355D01*
X3773810Y-319749355D02*
X4392857Y-319749355D01*
%TO.C,J16*%
X2440476Y-596670431D02*
X2440476Y-597384716D01*
X2440476Y-597384716D02*
X2392857Y-597527573D01*
X2392857Y-597527573D02*
X2297619Y-597622812D01*
X2297619Y-597622812D02*
X2154762Y-597670431D01*
X2154762Y-597670431D02*
X2059524Y-597670431D01*
X3440476Y-597670431D02*
X2869048Y-597670431D01*
X3154762Y-597670431D02*
X3154762Y-596670431D01*
X3154762Y-596670431D02*
X3059524Y-596813288D01*
X3059524Y-596813288D02*
X2964286Y-596908526D01*
X2964286Y-596908526D02*
X2869048Y-596956145D01*
X4297619Y-596670431D02*
X4107143Y-596670431D01*
X4107143Y-596670431D02*
X4011905Y-596718050D01*
X4011905Y-596718050D02*
X3964286Y-596765669D01*
X3964286Y-596765669D02*
X3869048Y-596908526D01*
X3869048Y-596908526D02*
X3821429Y-597099002D01*
X3821429Y-597099002D02*
X3821429Y-597479954D01*
X3821429Y-597479954D02*
X3869048Y-597575192D01*
X3869048Y-597575192D02*
X3916667Y-597622812D01*
X3916667Y-597622812D02*
X4011905Y-597670431D01*
X4011905Y-597670431D02*
X4202381Y-597670431D01*
X4202381Y-597670431D02*
X4297619Y-597622812D01*
X4297619Y-597622812D02*
X4345238Y-597575192D01*
X4345238Y-597575192D02*
X4392857Y-597479954D01*
X4392857Y-597479954D02*
X4392857Y-597241859D01*
X4392857Y-597241859D02*
X4345238Y-597146621D01*
X4345238Y-597146621D02*
X4297619Y-597099002D01*
X4297619Y-597099002D02*
X4202381Y-597051383D01*
X4202381Y-597051383D02*
X4011905Y-597051383D01*
X4011905Y-597051383D02*
X3916667Y-597099002D01*
X3916667Y-597099002D02*
X3869048Y-597146621D01*
X3869048Y-597146621D02*
X3821429Y-597241859D01*
%TO.C,J13*%
X2440476Y-381501631D02*
X2440476Y-382215916D01*
X2440476Y-382215916D02*
X2392857Y-382358773D01*
X2392857Y-382358773D02*
X2297619Y-382454012D01*
X2297619Y-382454012D02*
X2154762Y-382501631D01*
X2154762Y-382501631D02*
X2059524Y-382501631D01*
X3440476Y-382501631D02*
X2869048Y-382501631D01*
X3154762Y-382501631D02*
X3154762Y-381501631D01*
X3154762Y-381501631D02*
X3059524Y-381644488D01*
X3059524Y-381644488D02*
X2964286Y-381739726D01*
X2964286Y-381739726D02*
X2869048Y-381787345D01*
X3773810Y-381501631D02*
X4392857Y-381501631D01*
X4392857Y-381501631D02*
X4059524Y-381882583D01*
X4059524Y-381882583D02*
X4202381Y-381882583D01*
X4202381Y-381882583D02*
X4297619Y-381930202D01*
X4297619Y-381930202D02*
X4345238Y-381977821D01*
X4345238Y-381977821D02*
X4392857Y-382073059D01*
X4392857Y-382073059D02*
X4392857Y-382311154D01*
X4392857Y-382311154D02*
X4345238Y-382406392D01*
X4345238Y-382406392D02*
X4297619Y-382454012D01*
X4297619Y-382454012D02*
X4202381Y-382501631D01*
X4202381Y-382501631D02*
X3916667Y-382501631D01*
X3916667Y-382501631D02*
X3821429Y-382454012D01*
X3821429Y-382454012D02*
X3773810Y-382406392D01*
%TO.C,J33*%
X2440476Y-1440523427D02*
X2440476Y-1441237712D01*
X2440476Y-1441237712D02*
X2392857Y-1441380569D01*
X2392857Y-1441380569D02*
X2297619Y-1441475808D01*
X2297619Y-1441475808D02*
X2154762Y-1441523427D01*
X2154762Y-1441523427D02*
X2059524Y-1441523427D01*
X2821429Y-1440523427D02*
X3440476Y-1440523427D01*
X3440476Y-1440523427D02*
X3107143Y-1440904379D01*
X3107143Y-1440904379D02*
X3250000Y-1440904379D01*
X3250000Y-1440904379D02*
X3345238Y-1440951998D01*
X3345238Y-1440951998D02*
X3392857Y-1440999617D01*
X3392857Y-1440999617D02*
X3440476Y-1441094855D01*
X3440476Y-1441094855D02*
X3440476Y-1441332950D01*
X3440476Y-1441332950D02*
X3392857Y-1441428188D01*
X3392857Y-1441428188D02*
X3345238Y-1441475808D01*
X3345238Y-1441475808D02*
X3250000Y-1441523427D01*
X3250000Y-1441523427D02*
X2964286Y-1441523427D01*
X2964286Y-1441523427D02*
X2869048Y-1441475808D01*
X2869048Y-1441475808D02*
X2821429Y-1441428188D01*
X3773810Y-1440523427D02*
X4392857Y-1440523427D01*
X4392857Y-1440523427D02*
X4059524Y-1440904379D01*
X4059524Y-1440904379D02*
X4202381Y-1440904379D01*
X4202381Y-1440904379D02*
X4297619Y-1440951998D01*
X4297619Y-1440951998D02*
X4345238Y-1440999617D01*
X4345238Y-1440999617D02*
X4392857Y-1441094855D01*
X4392857Y-1441094855D02*
X4392857Y-1441332950D01*
X4392857Y-1441332950D02*
X4345238Y-1441428188D01*
X4345238Y-1441428188D02*
X4297619Y-1441475808D01*
X4297619Y-1441475808D02*
X4202381Y-1441523427D01*
X4202381Y-1441523427D02*
X3916667Y-1441523427D01*
X3916667Y-1441523427D02*
X3821429Y-1441475808D01*
X3821429Y-1441475808D02*
X3773810Y-1441428188D01*
%TO.C,J19*%
X2440476Y-894667558D02*
X2440476Y-895381843D01*
X2440476Y-895381843D02*
X2392857Y-895524700D01*
X2392857Y-895524700D02*
X2297619Y-895619939D01*
X2297619Y-895619939D02*
X2154762Y-895667558D01*
X2154762Y-895667558D02*
X2059524Y-895667558D01*
X3440476Y-895667558D02*
X2869048Y-895667558D01*
X3154762Y-895667558D02*
X3154762Y-894667558D01*
X3154762Y-894667558D02*
X3059524Y-894810415D01*
X3059524Y-894810415D02*
X2964286Y-894905653D01*
X2964286Y-894905653D02*
X2869048Y-894953272D01*
X3916667Y-895667558D02*
X4107143Y-895667558D01*
X4107143Y-895667558D02*
X4202381Y-895619939D01*
X4202381Y-895619939D02*
X4250000Y-895572319D01*
X4250000Y-895572319D02*
X4345238Y-895429462D01*
X4345238Y-895429462D02*
X4392857Y-895238986D01*
X4392857Y-895238986D02*
X4392857Y-894858034D01*
X4392857Y-894858034D02*
X4345238Y-894762796D01*
X4345238Y-894762796D02*
X4297619Y-894715177D01*
X4297619Y-894715177D02*
X4202381Y-894667558D01*
X4202381Y-894667558D02*
X4011905Y-894667558D01*
X4011905Y-894667558D02*
X3916667Y-894715177D01*
X3916667Y-894715177D02*
X3869048Y-894762796D01*
X3869048Y-894762796D02*
X3821429Y-894858034D01*
X3821429Y-894858034D02*
X3821429Y-895096129D01*
X3821429Y-895096129D02*
X3869048Y-895191367D01*
X3869048Y-895191367D02*
X3916667Y-895238986D01*
X3916667Y-895238986D02*
X4011905Y-895286605D01*
X4011905Y-895286605D02*
X4202381Y-895286605D01*
X4202381Y-895286605D02*
X4297619Y-895238986D01*
X4297619Y-895238986D02*
X4345238Y-895191367D01*
X4345238Y-895191367D02*
X4392857Y-895096129D01*
%TO.C,J5*%
X2916666Y-117447374D02*
X2916666Y-118161659D01*
X2916666Y-118161659D02*
X2869047Y-118304516D01*
X2869047Y-118304516D02*
X2773809Y-118399755D01*
X2773809Y-118399755D02*
X2630952Y-118447374D01*
X2630952Y-118447374D02*
X2535714Y-118447374D01*
X3869047Y-117447374D02*
X3392857Y-117447374D01*
X3392857Y-117447374D02*
X3345238Y-117923564D01*
X3345238Y-117923564D02*
X3392857Y-117875945D01*
X3392857Y-117875945D02*
X3488095Y-117828326D01*
X3488095Y-117828326D02*
X3726190Y-117828326D01*
X3726190Y-117828326D02*
X3821428Y-117875945D01*
X3821428Y-117875945D02*
X3869047Y-117923564D01*
X3869047Y-117923564D02*
X3916666Y-118018802D01*
X3916666Y-118018802D02*
X3916666Y-118256897D01*
X3916666Y-118256897D02*
X3869047Y-118352135D01*
X3869047Y-118352135D02*
X3821428Y-118399755D01*
X3821428Y-118399755D02*
X3726190Y-118447374D01*
X3726190Y-118447374D02*
X3488095Y-118447374D01*
X3488095Y-118447374D02*
X3392857Y-118399755D01*
X3392857Y-118399755D02*
X3345238Y-118352135D01*
%TO.C,J21*%
X2440476Y-1012892908D02*
X2440476Y-1013607193D01*
X2440476Y-1013607193D02*
X2392857Y-1013750050D01*
X2392857Y-1013750050D02*
X2297619Y-1013845289D01*
X2297619Y-1013845289D02*
X2154762Y-1013892908D01*
X2154762Y-1013892908D02*
X2059524Y-1013892908D01*
X2869048Y-1012988146D02*
X2916667Y-1012940527D01*
X2916667Y-1012940527D02*
X3011905Y-1012892908D01*
X3011905Y-1012892908D02*
X3250000Y-1012892908D01*
X3250000Y-1012892908D02*
X3345238Y-1012940527D01*
X3345238Y-1012940527D02*
X3392857Y-1012988146D01*
X3392857Y-1012988146D02*
X3440476Y-1013083384D01*
X3440476Y-1013083384D02*
X3440476Y-1013178622D01*
X3440476Y-1013178622D02*
X3392857Y-1013321479D01*
X3392857Y-1013321479D02*
X2821429Y-1013892908D01*
X2821429Y-1013892908D02*
X3440476Y-1013892908D01*
X4392857Y-1013892908D02*
X3821429Y-1013892908D01*
X4107143Y-1013892908D02*
X4107143Y-1012892908D01*
X4107143Y-1012892908D02*
X4011905Y-1013035765D01*
X4011905Y-1013035765D02*
X3916667Y-1013131003D01*
X3916667Y-1013131003D02*
X3821429Y-1013178622D01*
%TO.C,J18*%
X2440476Y-842652619D02*
X2440476Y-843366904D01*
X2440476Y-843366904D02*
X2392857Y-843509761D01*
X2392857Y-843509761D02*
X2297619Y-843605000D01*
X2297619Y-843605000D02*
X2154762Y-843652619D01*
X2154762Y-843652619D02*
X2059524Y-843652619D01*
X3440476Y-843652619D02*
X2869048Y-843652619D01*
X3154762Y-843652619D02*
X3154762Y-842652619D01*
X3154762Y-842652619D02*
X3059524Y-842795476D01*
X3059524Y-842795476D02*
X2964286Y-842890714D01*
X2964286Y-842890714D02*
X2869048Y-842938333D01*
X4011905Y-843081190D02*
X3916667Y-843033571D01*
X3916667Y-843033571D02*
X3869048Y-842985952D01*
X3869048Y-842985952D02*
X3821429Y-842890714D01*
X3821429Y-842890714D02*
X3821429Y-842843095D01*
X3821429Y-842843095D02*
X3869048Y-842747857D01*
X3869048Y-842747857D02*
X3916667Y-842700238D01*
X3916667Y-842700238D02*
X4011905Y-842652619D01*
X4011905Y-842652619D02*
X4202381Y-842652619D01*
X4202381Y-842652619D02*
X4297619Y-842700238D01*
X4297619Y-842700238D02*
X4345238Y-842747857D01*
X4345238Y-842747857D02*
X4392857Y-842843095D01*
X4392857Y-842843095D02*
X4392857Y-842890714D01*
X4392857Y-842890714D02*
X4345238Y-842985952D01*
X4345238Y-842985952D02*
X4297619Y-843033571D01*
X4297619Y-843033571D02*
X4202381Y-843081190D01*
X4202381Y-843081190D02*
X4011905Y-843081190D01*
X4011905Y-843081190D02*
X3916667Y-843128809D01*
X3916667Y-843128809D02*
X3869048Y-843176428D01*
X3869048Y-843176428D02*
X3821429Y-843271666D01*
X3821429Y-843271666D02*
X3821429Y-843462142D01*
X3821429Y-843462142D02*
X3869048Y-843557380D01*
X3869048Y-843557380D02*
X3916667Y-843605000D01*
X3916667Y-843605000D02*
X4011905Y-843652619D01*
X4011905Y-843652619D02*
X4202381Y-843652619D01*
X4202381Y-843652619D02*
X4297619Y-843605000D01*
X4297619Y-843605000D02*
X4345238Y-843557380D01*
X4345238Y-843557380D02*
X4392857Y-843462142D01*
X4392857Y-843462142D02*
X4392857Y-843271666D01*
X4392857Y-843271666D02*
X4345238Y-843176428D01*
X4345238Y-843176428D02*
X4297619Y-843128809D01*
X4297619Y-843128809D02*
X4202381Y-843081190D01*
%TD*%
M02*
