%TF.GenerationSoftware,KiCad,Pcbnew,7.0.1-3b83917a11~172~ubuntu22.04.1*%
%TF.CreationDate,2023-12-10T16:36:05-05:00*%
%TF.ProjectId,coil_template_first,636f696c-5f74-4656-9d70-6c6174655f66,rev?*%
%TF.SameCoordinates,Original*%
%TF.FileFunction,Copper,L1,Top*%
%TF.FilePolarity,Positive*%
%FSLAX46Y46*%
G04 Gerber Fmt 4.6, Leading zero omitted, Abs format (unit mm)*
G04 Created by KiCad (PCBNEW 7.0.1-3b83917a11~172~ubuntu22.04.1) date 2023-12-10 16:36:05*
%MOMM*%
%LPD*%
G01*
G04 APERTURE LIST*
%TA.AperFunction,SMDPad,CuDef*%
%ADD10R,5.000000X5.000000*%
%TD*%
%TA.AperFunction,Conductor*%
%ADD11C,5.000000*%
%TD*%
G04 APERTURE END LIST*
D10*
%TO.P,J22,1*%
%TO.N,Net-(J1-Pin_1)*%
X3250000Y-1114093185D03*
%TD*%
%TO.P,J34,1*%
%TO.N,Net-(J1-Pin_1)*%
X3250000Y-1467672196D03*
%TD*%
%TO.P,J11,1*%
%TO.N,Net-(J1-Pin_1)*%
X3250000Y-283188423D03*
%TD*%
%TO.P,J1,1,Pin_1*%
%TO.N,Net-(J1-Pin_1)*%
X3250000Y-32673033D03*
%TD*%
%TO.P,J31,1*%
%TO.N,Net-(J1-Pin_1)*%
X3250000Y-1401208574D03*
%TD*%
%TO.P,J7,1*%
%TO.N,Net-(J1-Pin_1)*%
X3250000Y-169183012D03*
%TD*%
%TO.P,J23,1*%
%TO.N,Net-(J1-Pin_1)*%
X3250000Y-1176878439D03*
%TD*%
%TO.P,J29,1*%
%TO.N,Net-(J1-Pin_1)*%
X3250000Y-1354926607D03*
%TD*%
%TO.P,J28,1*%
%TO.N,Net-(J1-Pin_1)*%
X3250000Y-1331640082D03*
%TD*%
%TO.P,J14,1*%
%TO.N,Net-(J1-Pin_1)*%
X3250000Y-482808655D03*
%TD*%
%TO.P,J17,1*%
%TO.N,Net-(J1-Pin_1)*%
X3250000Y-653800433D03*
%TD*%
%TO.P,J20,1*%
%TO.N,Net-(J1-Pin_1)*%
X3250000Y-948789956D03*
%TD*%
%TO.P,J9,1*%
%TO.N,Net-(J1-Pin_1)*%
X3250000Y-221188514D03*
%TD*%
%TO.P,J24,1*%
%TO.N,Net-(J1-Pin_1)*%
X3250000Y-1216651350D03*
%TD*%
%TO.P,J3,1*%
%TO.N,Net-(J1-Pin_1)*%
X3250000Y-76617652D03*
%TD*%
%TO.P,J8,1*%
%TO.N,Net-(J1-Pin_1)*%
X3250000Y-194375409D03*
%TD*%
%TO.P,J4,1*%
%TO.N,Net-(J1-Pin_1)*%
X3250000Y-98943973D03*
%TD*%
%TO.P,J15,1*%
%TO.N,Net-(J1-Pin_1)*%
X3250000Y-551174179D03*
%TD*%
%TO.P,J6,1*%
%TO.N,Net-(J1-Pin_1)*%
X3250000Y-145133252D03*
%TD*%
%TO.P,J27,1*%
%TO.N,Net-(J1-Pin_1)*%
X3250000Y-1305394228D03*
%TD*%
%TO.P,J32,1*%
%TO.N,Net-(J1-Pin_1)*%
X3250000Y-1423524827D03*
%TD*%
%TO.P,J26,1*%
%TO.N,Net-(J1-Pin_1)*%
X3250000Y-1278711752D03*
%TD*%
%TO.P,J25,1*%
%TO.N,Net-(J1-Pin_1)*%
X3250000Y-1249210547D03*
%TD*%
%TO.P,J10,1*%
%TO.N,Net-(J1-Pin_1)*%
X3250000Y-250399111D03*
%TD*%
%TO.P,J30,1*%
%TO.N,Net-(J1-Pin_1)*%
X3250000Y-1377922050D03*
%TD*%
%TO.P,J2,1*%
%TO.N,Net-(J1-Pin_1)*%
X3250000Y-54535764D03*
%TD*%
%TO.P,J12,1*%
%TO.N,Net-(J1-Pin_1)*%
X3250000Y-323096736D03*
%TD*%
%TO.P,J16,1*%
%TO.N,Net-(J1-Pin_1)*%
X3250000Y-601017812D03*
%TD*%
%TO.P,J13,1*%
%TO.N,Net-(J1-Pin_1)*%
X3250000Y-385849012D03*
%TD*%
%TO.P,J33,1*%
%TO.N,Net-(J1-Pin_1)*%
X3250000Y-1444870808D03*
%TD*%
%TO.P,J19,1*%
%TO.N,Net-(J1-Pin_1)*%
X3250000Y-899014939D03*
%TD*%
%TO.P,J5,1*%
%TO.N,Net-(J1-Pin_1)*%
X3250000Y-121794755D03*
%TD*%
%TO.P,J21,1*%
%TO.N,Net-(J1-Pin_1)*%
X3250000Y-1017240289D03*
%TD*%
%TO.P,J18,1*%
%TO.N,Net-(J1-Pin_1)*%
X3250000Y-847000000D03*
%TD*%
D11*
%TO.N,Net-(J1-Pin_1)*%
X469810000Y-1126261800D02*
X453930000Y-1147610000D01*
X639490000Y-517774500D02*
X641270000Y-538210000D01*
X304390000Y-1094138300D02*
X303490000Y-1094900000D01*
X683130000Y-1088207900D02*
X681140000Y-1100730000D01*
X377940000Y-138575200D02*
X394290000Y-144700000D01*
X36440000Y-169618700D02*
X44630000Y-169890000D01*
X495230000Y-1201621400D02*
X488840000Y-1209760000D01*
X324190000Y-517394000D02*
X330690000Y-533300000D01*
X510780000Y-1451815900D02*
X500680000Y-1451820000D01*
X644980000Y-1268589300D02*
X633160000Y-1290660000D01*
X709100000Y-1184045000D02*
X706090000Y-1207770000D01*
X6823388Y-385849012D02*
X6830000Y-385842400D01*
X198590000Y-770977000D02*
X191570000Y-805640000D01*
X100820000Y-1301579600D02*
X92880000Y-1302150000D01*
X385980000Y-432648100D02*
X399820000Y-453780000D01*
X609660000Y-494449400D02*
X613710000Y-522380000D01*
X567680000Y-437644400D02*
X573160000Y-458630000D01*
X225850000Y-622794600D02*
X231750000Y-630730000D01*
X144800000Y-1296593100D02*
X138890000Y-1297430000D01*
X250950000Y-289233200D02*
X282290000Y-301920000D01*
X694600000Y-647953000D02*
X694600000Y-649760000D01*
X269890000Y-1384628200D02*
X255150000Y-1386220000D01*
X291980000Y-1352641300D02*
X272430000Y-1356130000D01*
X673050000Y-799213900D02*
X672560000Y-822450000D01*
X573160000Y-458632100D02*
X577180000Y-472640000D01*
X190500000Y-1316831100D02*
X172190000Y-1319330000D01*
X554750000Y-1176037000D02*
X551230000Y-1181810000D01*
X186760000Y-817547000D02*
X178340000Y-838490000D01*
X18420000Y-482758300D02*
X22320000Y-483260000D01*
X514970000Y-465668400D02*
X515700000Y-467500000D01*
X227430000Y-1337369500D02*
X204500000Y-1341220000D01*
X180430000Y-130258400D02*
X183970000Y-130720000D01*
X693740000Y-608801300D02*
X694600000Y-647950000D01*
X21610000Y-1445430100D02*
X18850000Y-1445430000D01*
X645000000Y-580809100D02*
X646230000Y-594820000D01*
X706090000Y-277230600D02*
X706090000Y-292230000D01*
X692500000Y-567632700D02*
X692540000Y-568220000D01*
X91540000Y-632714000D02*
X99500000Y-640010000D01*
X667430000Y-553231300D02*
X669350000Y-581540000D01*
X541910000Y-573818100D02*
X546590000Y-605200000D01*
X283770000Y-1197460800D02*
X282290000Y-1198080000D01*
X267140000Y-261041600D02*
X285450000Y-268290000D01*
X22320000Y-483257600D02*
X55600000Y-488470000D01*
X262850000Y-1301931000D02*
X261950000Y-1302150000D01*
X411270000Y-908503100D02*
X405750000Y-928890000D01*
X360700000Y-1191039800D02*
X350830000Y-1197520000D01*
X62830000Y-676932100D02*
X69810000Y-683460000D01*
X21610000Y-54569700D02*
X59470000Y-54840000D01*
X463700000Y-1235105700D02*
X438390000Y-1256310000D01*
X424190000Y-234195800D02*
X437690000Y-243260000D01*
X10626045Y-1467310000D02*
X6280000Y-1467310000D01*
X358140000Y-861090500D02*
X356210000Y-882450000D01*
X485690000Y-286933100D02*
X506710000Y-312140000D01*
X357970000Y-233070800D02*
X362810000Y-235370000D01*
X555570000Y-772192300D02*
X554330000Y-809430000D01*
X589810000Y-1267530800D02*
X586160000Y-1273300000D01*
X394810000Y-1320349100D02*
X368100000Y-1330450000D01*
X56020000Y-558500300D02*
X67340000Y-563120000D01*
X61910000Y-54843100D02*
X100240000Y-55400000D01*
X515700000Y-1032504000D02*
X514980000Y-1034330000D01*
X230540000Y-282258700D02*
X250950000Y-289230000D01*
X551230000Y-1181806800D02*
X536420000Y-1206070000D01*
X16652050Y-1377922050D02*
X16980000Y-1378250000D01*
X128530000Y-1349822700D02*
X113650000Y-1350810000D01*
X474900000Y-1318488200D02*
X447790000Y-1333020000D01*
X28940000Y-323560400D02*
X52530000Y-324540000D01*
X261950000Y-1302149200D02*
X227150000Y-1310210000D01*
X69640000Y-935775300D02*
X55840000Y-941500000D01*
X346130000Y-1306038100D02*
X340670000Y-1307760000D01*
X59470000Y-54843100D02*
X61910000Y-54840000D01*
X181780000Y-57459800D02*
X182370000Y-57500000D01*
X88980000Y-927988600D02*
X69640000Y-935780000D01*
X381170000Y-425777300D02*
X385980000Y-432650000D01*
X629420000Y-1049515400D02*
X628460000Y-1056810000D01*
X299930000Y-274395600D02*
X309450000Y-279210000D01*
X89230000Y-1111575400D02*
X72650000Y-1111650000D01*
X627480000Y-692120600D02*
X628200000Y-726550000D01*
X234840000Y-861767900D02*
X231560000Y-869420000D01*
X690770000Y-973819000D02*
X688980000Y-1010650000D01*
X101510000Y-1301511800D02*
X100820000Y-1301580000D01*
X261500000Y-694418000D02*
X266730000Y-727670000D01*
X649930000Y-673610600D02*
X650620000Y-705410000D01*
X176240000Y-938982700D02*
X162210000Y-950040000D01*
X711300000Y-1144847700D02*
X709100000Y-1165580000D01*
X596110000Y-583148700D02*
X597060000Y-593730000D01*
X346710000Y-571316600D02*
X352530000Y-601680000D01*
X212730000Y-1144223700D02*
X186390000Y-1153740000D01*
X196770000Y-82572300D02*
X207570000Y-82990000D01*
X75970000Y-171246700D02*
X86260000Y-171940000D01*
X584210000Y-505435800D02*
X584950000Y-508640000D01*
X346580000Y-1050671600D02*
X342250000Y-1055970000D01*
X178900000Y-344241300D02*
X186390000Y-346260000D01*
X355330000Y-37070300D02*
X373860000Y-38700000D01*
X357040000Y-268397400D02*
X376470000Y-280320000D01*
X156970000Y-1266929200D02*
X124050000Y-1271590000D01*
X414440000Y-1090107600D02*
X413010000Y-1092290000D01*
X246280000Y-1413948000D02*
X239020000Y-1414300000D01*
X69530000Y-1247112100D02*
X51170000Y-1248280000D01*
X239020000Y-85698500D02*
X246280000Y-86050000D01*
X340830000Y-554127800D02*
X344700000Y-565710000D01*
X459640000Y-418782300D02*
X470590000Y-440180000D01*
X541100000Y-1260299300D02*
X526210000Y-1277560000D01*
X71790000Y-146735500D02*
X89600000Y-147520000D01*
X127980000Y-1466745600D02*
X114930000Y-1467030000D01*
X145420000Y-1238346500D02*
X137050000Y-1239630000D01*
X467730000Y-1182031200D02*
X454080000Y-1197870000D01*
X519620000Y-161591400D02*
X523620000Y-164140000D01*
X430710000Y-435397300D02*
X446490000Y-464320000D01*
X646230000Y-905183700D02*
X645000000Y-919190000D01*
X539700000Y-116460300D02*
X549100000Y-120240000D01*
X347050000Y-926626100D02*
X344460000Y-933760000D01*
X9960000Y-250418300D02*
X30250000Y-250840000D01*
X178680000Y-1096712700D02*
X148320000Y-1102520000D01*
X44580000Y-1400626200D02*
X36430000Y-1400800000D01*
X57590000Y-887372500D02*
X29890000Y-896330000D01*
X254140000Y-1126619500D02*
X245590000Y-1130990000D01*
X451930000Y-591290800D02*
X457310000Y-622410000D01*
X364150000Y-743165800D02*
X364150000Y-756830000D01*
X381600000Y-994444200D02*
X377860000Y-1001880000D01*
X493510000Y-857925400D02*
X489630000Y-887050000D01*
X3250000Y-1401208574D02*
X14252763Y-1401208574D01*
X244560000Y-1334215500D02*
X241360000Y-1334960000D01*
X14963070Y-1305442742D02*
X18042742Y-1305442742D01*
X318850000Y-154250300D02*
X327410000Y-156100000D01*
X469980000Y-1365237900D02*
X463140000Y-1368880000D01*
X361700000Y-1333155000D02*
X348350000Y-1337370000D01*
X126830000Y-976120400D02*
X119430000Y-981670000D01*
X380980000Y-504419400D02*
X384550000Y-512130000D01*
X628200000Y-773453400D02*
X627480000Y-807880000D01*
X426440000Y-778941800D02*
X425460000Y-802530000D01*
X74580000Y-32781000D02*
X87360000Y-32970000D01*
X309450000Y-279206100D02*
X331140000Y-290320000D01*
X361640000Y-1096664200D02*
X351600000Y-1106940000D01*
X415410000Y-610772200D02*
X420230000Y-643710000D01*
X690980000Y-971345000D02*
X690770000Y-973820000D01*
X368050000Y-314624300D02*
X388840000Y-331040000D01*
X500680000Y-1451815900D02*
X472770000Y-1456080000D01*
X643290000Y-556045500D02*
X645000000Y-580810000D01*
X68710000Y-493572400D02*
X89400000Y-500060000D01*
X472030000Y-533038800D02*
X481450000Y-567790000D01*
X397980000Y-339503100D02*
X417150000Y-359220000D01*
X478040000Y-1170386400D02*
X467730000Y-1182030000D01*
X207570000Y-1417006900D02*
X196770000Y-1417430000D01*
X568640000Y-275351500D02*
X583230000Y-302570000D01*
X411270000Y-473710800D02*
X416560000Y-483980000D01*
X165590000Y-56970200D02*
X181780000Y-57460000D01*
X186390000Y-1153742700D02*
X178900000Y-1155760000D01*
X460760000Y-499052800D02*
X467730000Y-519450000D01*
X499580000Y-740035100D02*
X499580000Y-759960000D01*
X619900000Y-1095441200D02*
X611420000Y-1127940000D01*
X165580000Y-1443029800D02*
X142010000Y-1443740000D01*
X9940811Y-250399111D02*
X9960000Y-250418300D01*
X630230000Y-201774000D02*
X633590000Y-210210000D01*
X561710000Y-1303486400D02*
X555320000Y-1309910000D01*
X486840000Y-94525400D02*
X518580000Y-105030000D01*
X3250000Y-1249210547D02*
X12284018Y-1249210547D01*
X61880000Y-1304227800D02*
X59430000Y-1304330000D01*
X556960000Y-1171128300D02*
X554750000Y-1176040000D01*
X3250000Y-250399111D02*
X9940811Y-250399111D01*
X3250000Y-1467672196D02*
X10263849Y-1467672196D01*
X561990000Y-533129400D02*
X566830000Y-559510000D01*
X248130000Y-223697300D02*
X278710000Y-233070000D01*
X470590000Y-440177600D02*
X475590000Y-450070000D01*
X6790000Y-221241100D02*
X33960000Y-221760000D01*
X518600000Y-1394996300D02*
X486830000Y-1405490000D01*
X695490000Y-1294773200D02*
X695490000Y-1297600000D01*
X178900000Y-1155760800D02*
X158520000Y-1161270000D01*
X499150000Y-780248900D02*
X498280000Y-801170000D01*
X59430000Y-1304333800D02*
X22190000Y-1305570000D01*
X552150000Y-1105318000D02*
X542120000Y-1128590000D01*
X11650000Y-283224800D02*
X29020000Y-283600000D01*
X10846115Y-1114049947D02*
X6830000Y-1114150000D01*
X31630000Y-1423183100D02*
X12081453Y-1423318158D01*
X109620000Y-849911600D02*
X91000000Y-867700000D01*
X44630000Y-169889800D02*
X75970000Y-171250000D01*
X681130000Y-399271800D02*
X683120000Y-411790000D01*
X182370000Y-1442500400D02*
X181780000Y-1442540000D01*
X488340000Y-604584900D02*
X489630000Y-612940000D01*
X186390000Y-346264800D02*
X212730000Y-355780000D01*
X664300000Y-989022200D02*
X663950000Y-996280000D01*
X3890000Y-98965000D02*
X8888482Y-99001098D01*
X523620000Y-164139400D02*
X530800000Y-170430000D01*
X184290000Y-405287500D02*
X196430000Y-409280000D01*
X508870000Y-552339700D02*
X516070000Y-587680000D01*
X542120000Y-1128591100D02*
X533200000Y-1144690000D01*
X129000000Y-78910800D02*
X154970000Y-80240000D01*
X83290000Y-796638800D02*
X72560000Y-813380000D01*
X267240000Y-731581900D02*
X267250000Y-768430000D01*
X712930000Y-417533300D02*
X714160000Y-434430000D01*
X547590000Y-54525700D02*
X559020000Y-57210000D01*
X577180000Y-1027358700D02*
X573170000Y-1041360000D01*
X150850000Y-876442400D02*
X139020000Y-890640000D01*
X692540000Y-931780800D02*
X692500000Y-932370000D01*
X72650000Y-388348500D02*
X89230000Y-388430000D01*
X441710000Y-550452100D02*
X446490000Y-567820000D01*
X628250000Y-733022000D02*
X628250000Y-766980000D01*
X683050000Y-1341177600D02*
X676940000Y-1362810000D01*
X182210000Y-268547700D02*
X216960000Y-277970000D01*
X546590000Y-894795900D02*
X541910000Y-926180000D01*
X686410000Y-1049636600D02*
X685340000Y-1057860000D01*
X338210000Y-1433125400D02*
X307860000Y-1435340000D01*
X189380000Y-1289410600D02*
X176180000Y-1291910000D01*
X362810000Y-235366600D02*
X366470000Y-237520000D01*
X717030000Y-635067700D02*
X717030000Y-662640000D01*
X3250000Y-1114093185D02*
X10802877Y-1114093185D01*
X365320000Y-1022550000D02*
X352340000Y-1042860000D01*
X332470000Y-1462928800D02*
X315570000Y-1464160000D01*
X117110000Y-909704200D02*
X105580000Y-916740000D01*
X212730000Y-355784200D02*
X237890000Y-365340000D01*
X622590000Y-1084165700D02*
X620720000Y-1092820000D01*
X716750000Y-877982800D02*
X716750000Y-905230000D01*
X528760000Y-756793500D02*
X528240000Y-783960000D01*
X497570000Y-357204900D02*
X512260000Y-383170000D01*
X46700000Y-222209700D02*
X75630000Y-223870000D01*
X113550000Y-78567000D02*
X129000000Y-78910000D01*
X331220000Y-1209637900D02*
X309820000Y-1220600000D01*
X451930000Y-908707800D02*
X450770000Y-914290000D01*
X148900000Y-127410500D02*
X180430000Y-130260000D01*
X149950000Y-962429800D02*
X126830000Y-976120000D01*
X650800000Y-713570200D02*
X651030000Y-746110000D01*
X232230000Y-110511200D02*
X255150000Y-113780000D01*
X302060000Y-1095956200D02*
X274930000Y-1114090000D01*
X106300000Y-1170234600D02*
X95100000Y-1171800000D01*
X482870000Y-1265416000D02*
X477250000Y-1269890000D01*
X292050000Y-397104600D02*
X301190000Y-403880000D01*
X577180000Y-472643200D02*
X584210000Y-505440000D01*
X593890000Y-1077414300D02*
X587370000Y-1098360000D01*
X580850000Y-753745300D02*
X580380000Y-786440000D01*
X278700000Y-1266929200D02*
X248130000Y-1276300000D01*
X528240000Y-716038800D02*
X528760000Y-743210000D01*
X625700000Y-647065800D02*
X625840000Y-650720000D01*
X6830000Y-385842400D02*
X33250000Y-386510000D01*
X481710000Y-464575300D02*
X488950000Y-482860000D01*
X633990000Y-331734700D02*
X641230000Y-354940000D01*
X75970000Y-1328752000D02*
X44630000Y-1330110000D01*
X660150000Y-1031866400D02*
X659990000Y-1034460000D01*
X644990000Y-231403100D02*
X655490000Y-263170000D01*
X105580000Y-916738700D02*
X88980000Y-927990000D01*
X505670000Y-1242840500D02*
X482870000Y-1265420000D01*
X181010000Y-268291000D02*
X181950000Y-268490000D01*
X34170000Y-1467310000D02*
X10626045Y-1467310000D01*
X701810000Y-1250684600D02*
X701810000Y-1260770000D01*
X232230000Y-1389488400D02*
X211790000Y-1391270000D01*
X625840000Y-849279600D02*
X625700000Y-852930000D01*
X536630000Y-294265400D02*
X552180000Y-319780000D01*
X541690000Y-1047430300D02*
X535890000Y-1062780000D01*
X595750000Y-1068854300D02*
X593890000Y-1077410000D01*
X16932645Y-121794755D02*
X16980000Y-121747400D01*
X627360000Y-813426200D02*
X625840000Y-849280000D01*
X63150000Y-614768100D02*
X77370000Y-623760000D01*
X377280000Y-1178258100D02*
X360700000Y-1191040000D01*
X156260000Y-152933900D02*
X166850000Y-153890000D01*
X30570000Y-145416800D02*
X50100000Y-145840000D01*
X539410000Y-560618300D02*
X541910000Y-573820000D01*
X132620000Y-1106463300D02*
X111080000Y-1108120000D01*
X687440000Y-166900600D02*
X693030000Y-191660000D01*
X345240000Y-1160709200D02*
X343030000Y-1162490000D01*
X113650000Y-149188300D02*
X128530000Y-150180000D01*
X342820000Y-129283500D02*
X345440000Y-130100000D01*
X244860000Y-434574800D02*
X263030000Y-446080000D01*
X462150000Y-660086500D02*
X464020000Y-679150000D01*
X472030000Y-966962500D02*
X467740000Y-980550000D01*
X429840000Y-118659400D02*
X453250000Y-127410000D01*
X587370000Y-977424100D02*
X584960000Y-991360000D01*
X89400000Y-500064400D02*
X112280000Y-515410000D01*
X439550000Y-1417376400D02*
X413520000Y-1423370000D01*
X89600000Y-147515300D02*
X113650000Y-149190000D01*
X359040000Y-1398951600D02*
X325700000Y-1404270000D01*
X556030000Y-403872500D02*
X557760000Y-409320000D01*
X593230000Y-1432341400D02*
X583300000Y-1437330000D01*
X434920000Y-1215254500D02*
X421480000Y-1227230000D01*
X648420000Y-865981200D02*
X647700000Y-877180000D01*
X284460000Y-1409990800D02*
X281870000Y-1410150000D01*
X622590000Y-296775900D02*
X631330000Y-320170000D01*
X181010000Y-1231709000D02*
X145420000Y-1238350000D01*
X678890000Y-1126234500D02*
X675390000Y-1144480000D01*
X266030000Y-1166572900D02*
X257840000Y-1170210000D01*
X659990000Y-465540100D02*
X660140000Y-468130000D01*
X291360000Y-176829400D02*
X312360000Y-182320000D01*
X424190000Y-818111900D02*
X421800000Y-845100000D01*
X212660000Y-600469300D02*
X225850000Y-622790000D01*
X182200000Y-303511100D02*
X199550000Y-308280000D01*
X465790000Y-1233302000D02*
X463700000Y-1235110000D01*
X127180000Y-1397698300D02*
X115980000Y-1398420000D01*
X394290000Y-144701900D02*
X411750000Y-150150000D01*
X216870000Y-1311991300D02*
X190500000Y-1316830000D01*
X549100000Y-120241000D02*
X557190000Y-125540000D01*
X655490000Y-263168300D02*
X656440000Y-265290000D01*
X577440000Y-1361051900D02*
X557530000Y-1374200000D01*
X49210000Y-1423054800D02*
X31630000Y-1423180000D01*
X161440000Y-1266242000D02*
X156970000Y-1266930000D01*
X6280000Y-32689900D02*
X34170000Y-32690000D01*
X246280000Y-86051500D02*
X281870000Y-89850000D01*
X714160000Y-434428300D02*
X714160000Y-458700000D01*
X551100000Y-1248702400D02*
X548150000Y-1252720000D01*
X566830000Y-559506700D02*
X569330000Y-577810000D01*
X641270000Y-538206700D02*
X643290000Y-556050000D01*
X716340000Y-581327100D02*
X716750000Y-594770000D01*
X602480000Y-660403400D02*
X603260000Y-678210000D01*
X255550000Y-1359659000D02*
X227620000Y-1363720000D01*
X314610000Y-1180713000D02*
X285690000Y-1196490000D01*
X378590000Y-207885700D02*
X394610000Y-216770000D01*
X636220000Y-494847300D02*
X639490000Y-517770000D01*
X377220000Y-1219176500D02*
X356610000Y-1231830000D01*
X547430000Y-888892100D02*
X546590000Y-894800000D01*
X88090000Y-571414300D02*
X110980000Y-586860000D01*
X351600000Y-1106936900D02*
X328050000Y-1128160000D01*
X139230000Y-1165408400D02*
X106300000Y-1170230000D01*
X272430000Y-1356129000D02*
X255550000Y-1359660000D01*
X666080000Y-1199794200D02*
X657810000Y-1229720000D01*
X3250000Y-194375409D02*
X18228291Y-194375409D01*
X628460000Y-1056807700D02*
X622590000Y-1084170000D01*
X14230432Y-76693430D02*
X31630000Y-76820000D01*
X99280000Y-124159000D02*
X102940000Y-124290000D01*
X695160000Y-809466400D02*
X695160000Y-811910000D01*
X75640000Y-1276124200D02*
X46700000Y-1277790000D01*
X421480000Y-1227227000D02*
X413860000Y-1232780000D01*
X715090000Y-1025649500D02*
X714160000Y-1041300000D01*
X457770000Y-43915500D02*
X472770000Y-43920000D01*
X124050000Y-228413100D02*
X156980000Y-233070000D01*
X712930000Y-1082466200D02*
X712930000Y-1105330000D01*
X600810000Y-863655500D02*
X599820000Y-878530000D01*
X695430000Y-771607300D02*
X695160000Y-809470000D01*
X716750000Y-905225500D02*
X716340000Y-918670000D01*
X479710000Y-1407809700D02*
X449790000Y-1416080000D01*
X678890000Y-373767500D02*
X681130000Y-399270000D01*
X479700000Y-92190300D02*
X484710000Y-93570000D01*
X10046752Y-145133252D02*
X10050000Y-145136500D01*
X554230000Y-688119500D02*
X554330000Y-690570000D01*
X711300000Y-1123860700D02*
X711300000Y-1144850000D01*
X3250000Y-121794755D02*
X16932645Y-121794755D01*
X248130000Y-1276301600D02*
X235640000Y-1279310000D01*
X285690000Y-1196488900D02*
X283770000Y-1197460000D01*
X256330000Y-681238500D02*
X261500000Y-694420000D01*
X615280000Y-968321400D02*
X613720000Y-977620000D01*
X525510000Y-1334656600D02*
X519500000Y-1338500000D01*
X283770000Y-302538300D02*
X285770000Y-303550000D01*
X19530044Y-948789956D02*
X19550000Y-948770000D01*
X450250000Y-347195700D02*
X470010000Y-374030000D01*
X409380000Y-224365300D02*
X424190000Y-234200000D01*
X50100000Y-145841800D02*
X71790000Y-146740000D01*
X72560000Y-813381900D02*
X66200000Y-820190000D01*
X384760000Y-987594700D02*
X381600000Y-994440000D01*
X717220000Y-675419300D02*
X717220000Y-703210000D01*
X536420000Y-1206072100D02*
X514120000Y-1233950000D01*
X622590000Y-898874500D02*
X619740000Y-930430000D01*
X495210000Y-1353977200D02*
X469980000Y-1365240000D01*
X453930000Y-1147606500D02*
X449320000Y-1153960000D01*
X552150000Y-1011946400D02*
X551930000Y-1012850000D01*
X615920000Y-1425736900D02*
X593230000Y-1432340000D01*
X269890000Y-115370700D02*
X299510000Y-120580000D01*
X450030000Y-346879300D02*
X450250000Y-347200000D01*
X645860000Y-1120991300D02*
X641240000Y-1145060000D01*
X324630000Y-1130917100D02*
X318560000Y-1135170000D01*
X583230000Y-302573500D02*
X585370000Y-306110000D01*
X100240000Y-1444599800D02*
X61910000Y-1445160000D01*
X403730000Y-563610100D02*
X405760000Y-571100000D01*
X364350000Y-475628200D02*
X376650000Y-495950000D01*
X191570000Y-805644300D02*
X186760000Y-817550000D01*
X688450000Y-1015610800D02*
X686410000Y-1049640000D01*
X318560000Y-1135172300D02*
X296270000Y-1149810000D01*
X232940000Y-250154500D02*
X256920000Y-257750000D01*
X355330000Y-1462928800D02*
X332470000Y-1462930000D01*
X552150000Y-657147500D02*
X554230000Y-688120000D01*
X449840000Y-346674800D02*
X450030000Y-346880000D01*
X649930000Y-826389600D02*
X649530000Y-835670000D01*
X366610000Y-356991900D02*
X381580000Y-371340000D01*
X381580000Y-371341300D02*
X391400000Y-381480000D01*
X634630000Y-480107700D02*
X636220000Y-494850000D01*
X102050000Y-55399900D02*
X141200000Y-56260000D01*
X158520000Y-338731300D02*
X178900000Y-344240000D01*
X475590000Y-450074800D02*
X481710000Y-464580000D01*
X506830000Y-1187572600D02*
X495230000Y-1201620000D01*
X361650000Y-677353300D02*
X363730000Y-702470000D01*
X6263133Y-32673033D02*
X6280000Y-32689900D01*
X420570000Y-272098300D02*
X431030000Y-281390000D01*
X560210000Y-977150100D02*
X552150000Y-1011950000D01*
X168460000Y-1419347000D02*
X154970000Y-1419750000D01*
X647700000Y-622816100D02*
X648420000Y-634020000D01*
X525770000Y-1159148300D02*
X516320000Y-1173430000D01*
X331530000Y-965295500D02*
X325520000Y-979970000D01*
X541690000Y-452572500D02*
X551830000Y-486840000D01*
X57880000Y-122518400D02*
X63430000Y-122640000D01*
X144790000Y-203405600D02*
X176180000Y-208090000D01*
X547430000Y-611109100D02*
X551510000Y-648490000D01*
X55840000Y-941503100D02*
X21020000Y-948570000D01*
X386420000Y-1171161100D02*
X377280000Y-1178260000D01*
X481730000Y-1106843300D02*
X469810000Y-1126260000D01*
X714160000Y-458696800D02*
X715090000Y-474350000D01*
X316590000Y-363357800D02*
X322510000Y-367460000D01*
X676940000Y-1362812800D02*
X664450000Y-1382110000D01*
X59470000Y-1445156700D02*
X21610000Y-1445430000D01*
X231750000Y-630728300D02*
X235170000Y-638680000D01*
X620720000Y-1092819400D02*
X619900000Y-1095440000D01*
X195450000Y-1466342300D02*
X168670000Y-1466340000D01*
X463150000Y-131100300D02*
X468910000Y-134200000D01*
X394850000Y-38700300D02*
X415580000Y-40900000D01*
X299930000Y-1225598400D02*
X285440000Y-1231710000D01*
X613720000Y-977616900D02*
X609660000Y-1005550000D01*
X580380000Y-786443300D02*
X580110000Y-794630000D01*
X34170000Y-32689900D02*
X46790000Y-32780000D01*
X10263849Y-1467672196D02*
X10626045Y-1467310000D01*
X481710000Y-1035439000D02*
X475600000Y-1049930000D01*
X566830000Y-940494500D02*
X561990000Y-966870000D01*
X467740000Y-980546600D02*
X460760000Y-1000950000D01*
X245590000Y-1130990200D02*
X237850000Y-1134570000D01*
X667380000Y-1189542200D02*
X666080000Y-1199790000D01*
X503000000Y-202080900D02*
X510300000Y-208880000D01*
X448070000Y-1032298100D02*
X447460000Y-1033760000D01*
X331140000Y-290318000D02*
X354450000Y-304740000D01*
X36150000Y-839351900D02*
X6150000Y-846640000D01*
X86260000Y-1328061800D02*
X75970000Y-1328750000D01*
X209440000Y-34198400D02*
X235600000Y-34200000D01*
X625370000Y-194287700D02*
X630230000Y-201770000D01*
X227150000Y-1310210200D02*
X216870000Y-1311990000D01*
X493510000Y-642075900D02*
X495060000Y-656520000D01*
X346640000Y-388321100D02*
X357300000Y-398780000D01*
X76390000Y-1399929200D02*
X44580000Y-1400630000D01*
X634860000Y-87393900D02*
X659140000Y-109010000D01*
X135620000Y-812320600D02*
X127740000Y-824800000D01*
X252600000Y-372465400D02*
X273060000Y-384870000D01*
X282510000Y-234294400D02*
X284320000Y-235010000D01*
X7110000Y-654104600D02*
X34310000Y-659930000D01*
X459360000Y-863979700D02*
X457310000Y-877590000D01*
X52530000Y-324535600D02*
X68110000Y-325800000D01*
X299640000Y-63586900D02*
X307860000Y-64660000D01*
X72650000Y-1111652900D02*
X47530000Y-1113730000D01*
X14305929Y-1176828238D02*
X11250000Y-1176910000D01*
X628200000Y-726546700D02*
X628250000Y-733020000D01*
X498280000Y-698828800D02*
X499150000Y-719750000D01*
X195450000Y-33657600D02*
X209440000Y-34200000D01*
X164290000Y-1200771200D02*
X158710000Y-1201930000D01*
X90220000Y-784142000D02*
X83290000Y-796640000D01*
X115980000Y-1398420200D02*
X85670000Y-1399540000D01*
X561990000Y-966868900D02*
X560210000Y-977150000D01*
X18409711Y-1017240289D02*
X18420000Y-1017230000D01*
X155180000Y-103765900D02*
X169190000Y-105000000D01*
X577060000Y-216001500D02*
X584620000Y-224480000D01*
X213330000Y-898776000D02*
X200480000Y-911690000D01*
X555620000Y-768233400D02*
X555570000Y-772190000D01*
X216710000Y-1080708600D02*
X195890000Y-1090830000D01*
X172190000Y-1319333700D02*
X153030000Y-1322040000D01*
X535670000Y-1325620000D02*
X525510000Y-1334660000D01*
X426440000Y-195457900D02*
X432950000Y-199440000D01*
X207570000Y-82992900D02*
X239020000Y-85700000D01*
X355320000Y-197850800D02*
X378590000Y-207890000D01*
X412630000Y-407082200D02*
X412670000Y-407150000D01*
X216960000Y-277965300D02*
X230540000Y-282260000D01*
X688980000Y-489348700D02*
X690770000Y-526180000D01*
X322510000Y-367464400D02*
X325980000Y-370200000D01*
X623230000Y-608766400D02*
X625700000Y-647070000D01*
X89910000Y-1212153800D02*
X70850000Y-1214020000D01*
X690770000Y-526180700D02*
X690980000Y-528660000D01*
X170620000Y-556418600D02*
X189260000Y-573680000D01*
X630200000Y-1298087600D02*
X625890000Y-1304780000D01*
X166850000Y-153890500D02*
X199760000Y-158230000D01*
X235640000Y-1279314100D02*
X212630000Y-1284930000D01*
X413520000Y-1423373500D02*
X394490000Y-1425390000D01*
X605280000Y-355701400D02*
X611420000Y-372060000D01*
X584210000Y-994562300D02*
X577180000Y-1027360000D01*
X450770000Y-585708900D02*
X451930000Y-591290000D01*
X411600000Y-1025686000D02*
X400590000Y-1044870000D01*
X673180000Y-718370700D02*
X673340000Y-741080000D01*
X102940000Y-124293700D02*
X141230000Y-126760000D01*
X59430000Y-195664700D02*
X61880000Y-195770000D01*
X669350000Y-581541100D02*
X669750000Y-595030000D01*
X421460000Y-363968200D02*
X430690000Y-375940000D01*
X675390000Y-355513200D02*
X678890000Y-373770000D01*
X22330000Y-1016725000D02*
X18420000Y-1017230000D01*
X199550000Y-1191717200D02*
X182200000Y-1196490000D01*
X3250000Y-221188514D02*
X6737414Y-221188514D01*
X425460000Y-802534500D02*
X424190000Y-818110000D01*
X397150000Y-295744000D02*
X404150000Y-300830000D01*
X499840000Y-517065200D02*
X506200000Y-541540000D01*
X519850000Y-272705900D02*
X536630000Y-294270000D01*
X467000000Y-317090400D02*
X477870000Y-329340000D01*
X63150000Y-885304600D02*
X57590000Y-887370000D01*
X650620000Y-705414600D02*
X650800000Y-713570000D01*
X604570000Y-1244316000D02*
X589810000Y-1267530000D01*
X619740000Y-569575100D02*
X622590000Y-601140000D01*
X717310000Y-756283700D02*
X717310000Y-784170000D01*
X418260000Y-115997700D02*
X429840000Y-118660000D01*
X715800000Y-959441700D02*
X715800000Y-985600000D01*
X156260000Y-1347065500D02*
X128530000Y-1349820000D01*
X643300000Y-943955100D02*
X641270000Y-961790000D01*
X312780000Y-1285886400D02*
X297430000Y-1291690000D01*
X211790000Y-108730000D02*
X232230000Y-110510000D01*
X514980000Y-1034327200D02*
X502710000Y-1065500000D01*
X717310000Y-743716300D02*
X717310000Y-756280000D01*
X289330000Y-1029433400D02*
X271390000Y-1045080000D01*
X106300000Y-329762900D02*
X139230000Y-334590000D01*
X655490000Y-1236835200D02*
X644980000Y-1268590000D01*
X3250000Y-145133252D02*
X10046752Y-145133252D01*
X532770000Y-354516700D02*
X542110000Y-371410000D01*
X694600000Y-850244500D02*
X694600000Y-852050000D01*
X491660000Y-411820900D02*
X502700000Y-434500000D01*
X595740000Y-431142400D02*
X602640000Y-458020000D01*
X322080000Y-1405047800D02*
X301120000Y-1407810000D01*
X297430000Y-1291689400D02*
X263160000Y-1301840000D01*
X628250000Y-766977900D02*
X628200000Y-773450000D01*
X587370000Y-1098364900D02*
X583160000Y-1111710000D01*
X675390000Y-1144483700D02*
X673380000Y-1163530000D01*
X633590000Y-210211300D02*
X644990000Y-231400000D01*
X541910000Y-926183300D02*
X539410000Y-939380000D01*
X9983393Y-1354926607D02*
X10050000Y-1354860000D01*
X119430000Y-981669500D02*
X111300000Y-985170000D01*
X634630000Y-1019893500D02*
X629420000Y-1049520000D01*
X421510000Y-1267661500D02*
X409530000Y-1275550000D01*
X265610000Y-61551100D02*
X299640000Y-63590000D01*
X688450000Y-484388600D02*
X688980000Y-489350000D01*
X712930000Y-394675000D02*
X712930000Y-417530000D01*
X282290000Y-1198082000D02*
X250950000Y-1210770000D01*
X459850000Y-1080861800D02*
X445590000Y-1103920000D01*
X623200000Y-608047000D02*
X623230000Y-608770000D01*
X334150000Y-1372589500D02*
X306810000Y-1378460000D01*
X85670000Y-100463400D02*
X115980000Y-101580000D01*
X295260000Y-349629000D02*
X316590000Y-363360000D01*
X510770000Y-48191400D02*
X544780000Y-54530000D01*
X439520000Y-162630500D02*
X443920000Y-164610000D01*
X30210000Y-603766200D02*
X52950000Y-610950000D01*
X291300000Y-35843000D02*
X315570000Y-35840000D01*
X465320000Y-801276600D02*
X464030000Y-820840000D01*
X250310000Y-34910100D02*
X275650000Y-34910000D01*
X673050000Y-700786200D02*
X673180000Y-718370000D01*
X28940000Y-1176436700D02*
X14305929Y-1176828238D01*
X463140000Y-1368881100D02*
X453190000Y-1372590000D01*
X142010000Y-56263100D02*
X165590000Y-56970000D01*
X715090000Y-474350700D02*
X715090000Y-499690000D01*
X599820000Y-621473800D02*
X600810000Y-636340000D01*
X552180000Y-319778000D02*
X554600000Y-323780000D01*
X494660000Y-145618600D02*
X519620000Y-161590000D01*
X197660000Y-1258869600D02*
X162320000Y-1266080000D01*
X716750000Y-594774600D02*
X716750000Y-622020000D01*
X356610000Y-1231833200D02*
X347160000Y-1237400000D01*
X18816064Y-54535764D02*
X18850000Y-54569700D01*
X297430000Y-208307800D02*
X312770000Y-214110000D01*
X489630000Y-887053500D02*
X488350000Y-895420000D01*
X82220000Y-701361700D02*
X89440000Y-713700000D01*
X439540000Y-82616500D02*
X449790000Y-83920000D01*
X599850000Y-1161749600D02*
X587370000Y-1189560000D01*
X14507132Y-1400954205D02*
X3890000Y-1401030000D01*
X641240000Y-1145064400D02*
X634000000Y-1168260000D01*
X63430000Y-122640000D02*
X99280000Y-124160000D01*
X155180000Y-1396233700D02*
X127180000Y-1397700000D01*
X403730000Y-936390200D02*
X394220000Y-962730000D01*
X85780000Y-224602100D02*
X118340000Y-227790000D01*
X370990000Y-104144300D02*
X395060000Y-108760000D01*
X528760000Y-743206600D02*
X528760000Y-756790000D01*
X583010000Y-62743000D02*
X591460000Y-66940000D01*
X282290000Y-301916600D02*
X283770000Y-302540000D01*
X415380000Y-268325000D02*
X420570000Y-272100000D01*
X3250000Y-1278711752D02*
X13665831Y-1278711752D01*
X87360000Y-32966600D02*
X114930000Y-32970000D01*
X169190000Y-104997300D02*
X193960000Y-106700000D01*
X641230000Y-354940000D02*
X645850000Y-379000000D01*
X439700000Y-956191000D02*
X430070000Y-983320000D01*
X117170000Y-841677900D02*
X109620000Y-849910000D01*
X529310000Y-985637500D02*
X526300000Y-998130000D01*
X93470000Y-254934900D02*
X107930000Y-256490000D01*
X551830000Y-486838600D02*
X551930000Y-487150000D01*
X197660000Y-241129800D02*
X208450000Y-243800000D01*
X181950000Y-268485700D02*
X182210000Y-268550000D01*
X695490000Y-202397800D02*
X695490000Y-205230000D01*
X426800000Y-1178644200D02*
X404920000Y-1198510000D01*
X619270000Y-566031600D02*
X619740000Y-569580000D01*
X457310000Y-622409600D02*
X459360000Y-636020000D01*
X551580000Y-649182600D02*
X552150000Y-657150000D01*
X184290000Y-1094703600D02*
X178680000Y-1096710000D01*
X124740000Y-522576100D02*
X148190000Y-536240000D01*
X477870000Y-329336600D02*
X482770000Y-336120000D01*
X522210000Y-631656200D02*
X525390000Y-664220000D01*
X420190000Y-1007853300D02*
X416560000Y-1016020000D01*
X695160000Y-811908700D02*
X694600000Y-850240000D01*
X527790000Y-796695600D02*
X526120000Y-825640000D01*
X446490000Y-1035670600D02*
X431110000Y-1063970000D01*
X577120000Y-1283668300D02*
X561710000Y-1303490000D01*
X89230000Y-388426800D02*
X111080000Y-391880000D01*
X442070000Y-390774400D02*
X447830000Y-399550000D01*
X449480000Y-1202671300D02*
X434920000Y-1215250000D01*
X89360000Y-999860400D02*
X68760000Y-1006330000D01*
X3250000Y-169183012D02*
X9632749Y-169183012D01*
X208450000Y-243795900D02*
X232940000Y-250150000D01*
X612440000Y-1325566600D02*
X598070000Y-1341200000D01*
X9070000Y-898930000D02*
X29890000Y-896329400D01*
X135480000Y-687311400D02*
X137650000Y-693190000D01*
X114830000Y-174018200D02*
X128730000Y-175440000D01*
X482220000Y-1164633300D02*
X478040000Y-1170390000D01*
X364150000Y-756834200D02*
X363490000Y-783250000D01*
X717030000Y-662640700D02*
X717220000Y-675420000D01*
X255550000Y-140340200D02*
X272430000Y-143870000D01*
X139230000Y-334589900D02*
X143480000Y-335460000D01*
X623240000Y-891233000D02*
X623200000Y-891950000D01*
X434040000Y-1459101900D02*
X415580000Y-1459100000D01*
X483830000Y-235774400D02*
X486140000Y-237480000D01*
X244700000Y-368482300D02*
X252600000Y-372470000D01*
X457770000Y-1456084600D02*
X434040000Y-1459100000D01*
X477250000Y-1269892000D02*
X456080000Y-1286420000D01*
X338160000Y-258310700D02*
X347170000Y-262590000D01*
X466400000Y-720976800D02*
X466770000Y-738350000D01*
X344700000Y-565712500D02*
X346710000Y-571320000D01*
X306810000Y-121541400D02*
X334170000Y-127410000D01*
X23450000Y-1378204900D02*
X16980000Y-1378250000D01*
X695430000Y-731148900D02*
X695430000Y-768850000D01*
X443900000Y-1335374300D02*
X439470000Y-1337370000D01*
X350830000Y-1197524100D02*
X331220000Y-1209640000D01*
X162320000Y-233921600D02*
X197660000Y-241130000D01*
X486830000Y-1405487200D02*
X484710000Y-1406440000D01*
X358120000Y-638920400D02*
X361570000Y-660770000D01*
X284330000Y-1264980100D02*
X282500000Y-1265700000D01*
X50100000Y-1354157400D02*
X30570000Y-1354580000D01*
X475600000Y-1049928200D02*
X470770000Y-1059510000D01*
X183970000Y-1369274600D02*
X180430000Y-1369740000D01*
X195890000Y-1090828400D02*
X184290000Y-1094700000D01*
X647700000Y-877183400D02*
X646230000Y-905180000D01*
X615590000Y-280708500D02*
X618890000Y-286850000D01*
X415580000Y-40896300D02*
X434040000Y-40900000D01*
X489630000Y-612944900D02*
X493510000Y-642080000D01*
X615280000Y-531679600D02*
X619270000Y-566030000D01*
X118340000Y-1272208800D02*
X85780000Y-1275400000D01*
X3250000Y-899014939D02*
X6308512Y-899014939D01*
X3250000Y-1176878439D02*
X14255728Y-1176878439D01*
X71790000Y-1353263500D02*
X50100000Y-1354160000D01*
X257840000Y-1170211400D02*
X233320000Y-1180080000D01*
X551930000Y-487148400D02*
X552150000Y-488070000D01*
X432950000Y-199441100D02*
X456100000Y-213600000D01*
X447060000Y-166531800D02*
X474520000Y-181240000D01*
X112280000Y-515411300D02*
X119030000Y-518300000D01*
X623200000Y-891953600D02*
X622590000Y-898870000D01*
X599830000Y-338260200D02*
X605280000Y-355700000D01*
X546590000Y-605202700D02*
X547430000Y-611110000D01*
X11230664Y-323096736D02*
X11240000Y-323087400D01*
X356470000Y-617378800D02*
X358120000Y-638920000D01*
X535880000Y-437218500D02*
X541690000Y-452570000D01*
X138890000Y-202570800D02*
X144790000Y-203410000D01*
X525400000Y-835779900D02*
X522210000Y-868340000D01*
X11240000Y-323087400D02*
X28940000Y-323560000D01*
X200480000Y-911691700D02*
X193230000Y-921030000D01*
X342250000Y-1055967700D02*
X324830000Y-1074340000D01*
X627480000Y-807879100D02*
X627360000Y-813430000D01*
X481450000Y-932211500D02*
X472030000Y-966960000D01*
X514120000Y-1233954300D02*
X512440000Y-1236230000D01*
X307040000Y-408673200D02*
X324560000Y-425450000D01*
X3740000Y-169148800D02*
X9684192Y-169234455D01*
X61910000Y-1445156700D02*
X59470000Y-1445160000D01*
X695490000Y-205227200D02*
X701810000Y-239230000D01*
X552150000Y-394695800D02*
X556030000Y-403870000D01*
X18850000Y-54569700D02*
X21610000Y-54570000D01*
X328050000Y-1128161900D02*
X324630000Y-1130920000D01*
X580850000Y-746254700D02*
X580850000Y-753750000D01*
X129710000Y-898344100D02*
X117110000Y-909700000D01*
X558340000Y-1443029800D02*
X547610000Y-1445500000D01*
X316230000Y-504992900D02*
X324190000Y-517390000D01*
X394220000Y-537273800D02*
X403730000Y-563610000D01*
X663950000Y-996275200D02*
X660150000Y-1031870000D01*
X261560000Y-805618100D02*
X256450000Y-818690000D01*
X154970000Y-80245000D02*
X168460000Y-80650000D01*
X510300000Y-208880700D02*
X527500000Y-223760000D01*
X3250000Y-1216651350D02*
X11531350Y-1216651350D01*
X686410000Y-450364100D02*
X688450000Y-484390000D01*
X345440000Y-1369893900D02*
X342820000Y-1370710000D01*
X3250000Y-1331640082D02*
X12287722Y-1331640082D01*
X111080000Y-1108123700D02*
X89230000Y-1111580000D01*
X611420000Y-1127941200D02*
X605300000Y-1144290000D01*
X87360000Y-1467033300D02*
X74580000Y-1467220000D01*
X265610000Y-1438448300D02*
X260650000Y-1438980000D01*
X63430000Y-1377359200D02*
X57880000Y-1377480000D01*
X514630000Y-1112805900D02*
X512490000Y-1116460000D01*
X51170000Y-1248278200D02*
X30250000Y-1249150000D01*
X348370000Y-162630500D02*
X361710000Y-166840000D01*
X551930000Y-1012853600D02*
X551840000Y-1013160000D01*
X506200000Y-958453400D02*
X499840000Y-982940000D01*
X267140000Y-1238956500D02*
X256920000Y-1242250000D01*
X716340000Y-918672800D02*
X716340000Y-945450000D01*
X526300000Y-501869200D02*
X529310000Y-514360000D01*
X141950000Y-1373199500D02*
X141230000Y-1373240000D01*
X68110000Y-1174192500D02*
X52540000Y-1175460000D01*
X273060000Y-384867500D02*
X292050000Y-397100000D01*
X227010000Y-875472800D02*
X213330000Y-898780000D01*
X618900000Y-1213151100D02*
X615730000Y-1219090000D01*
X315570000Y-1464156600D02*
X291300000Y-1464160000D01*
X591770000Y-949764400D02*
X591220000Y-954500000D01*
X521590000Y-874049300D02*
X516930000Y-906960000D01*
X18290808Y-1444870808D02*
X18850000Y-1445430000D01*
X625840000Y-650720000D02*
X627360000Y-686570000D01*
X554330000Y-809433200D02*
X554230000Y-811880000D01*
X148320000Y-1102524800D02*
X132620000Y-1106460000D01*
X196770000Y-1417427500D02*
X168460000Y-1419350000D01*
X215630000Y-418599200D02*
X227720000Y-423470000D01*
X517730000Y-328570300D02*
X525550000Y-340460000D01*
X554600000Y-323779600D02*
X556310000Y-327580000D01*
X671430000Y-863551100D02*
X671090000Y-879000000D01*
X281870000Y-1410146100D02*
X246280000Y-1413950000D01*
X620710000Y-407183500D02*
X622590000Y-415860000D01*
X468910000Y-134199100D02*
X494660000Y-145620000D01*
X182370000Y-57499500D02*
X221350000Y-59020000D01*
X548150000Y-1252723000D02*
X541100000Y-1260300000D01*
X583150000Y-388297000D02*
X587370000Y-401660000D01*
X143480000Y-1164541100D02*
X139230000Y-1165410000D01*
X276310000Y-1161268700D02*
X266030000Y-1166570000D01*
X8850000Y-601060200D02*
X3292388Y-601060200D01*
X164290000Y-299228000D02*
X182200000Y-303510000D01*
X342830000Y-337418100D02*
X345930000Y-339850000D01*
X716750000Y-622017100D02*
X717030000Y-635070000D01*
X178720000Y-662360900D02*
X186050000Y-680910000D01*
X450770000Y-914292200D02*
X446490000Y-932180000D01*
X701810000Y-249316600D02*
X706090000Y-277230000D01*
X324830000Y-1074339900D02*
X304390000Y-1094140000D01*
X3250000Y-1305442742D02*
X14963070Y-1305442742D01*
X275650000Y-34910100D02*
X291300000Y-35840000D01*
X18420000Y-482758300D02*
X18369645Y-482808655D01*
X671090000Y-879001400D02*
X669750000Y-904970000D01*
X272430000Y-143869400D02*
X291980000Y-147360000D01*
X221350000Y-1440983300D02*
X182370000Y-1442500000D01*
X693030000Y-191659300D02*
X695490000Y-202400000D01*
X695490000Y-1297601800D02*
X693340000Y-1307040000D01*
X499580000Y-759964700D02*
X499150000Y-780250000D01*
X16980000Y-121747400D02*
X23450000Y-121790000D01*
X551510000Y-648486700D02*
X551580000Y-649180000D01*
X30250000Y-1249153600D02*
X12598032Y-1249524561D01*
X138890000Y-1297428100D02*
X101510000Y-1301510000D01*
X688980000Y-1010651800D02*
X688450000Y-1015610000D01*
X516930000Y-906963800D02*
X516240000Y-911440000D01*
X701810000Y-239225100D02*
X701810000Y-249320000D01*
X587370000Y-1189558900D02*
X585420000Y-1193900000D01*
X30570000Y-1354582500D02*
X10050000Y-1354860000D01*
X548600000Y-247414700D02*
X554580000Y-255710000D01*
X148290000Y-620307700D02*
X160250000Y-633600000D01*
X515860000Y-267673600D02*
X519850000Y-272710000D01*
X3250000Y-76617652D02*
X14154654Y-76617652D01*
X535890000Y-1062776100D02*
X529410000Y-1080830000D01*
X68760000Y-1006332800D02*
X55580000Y-1011500000D01*
X514620000Y-387198700D02*
X516930000Y-392050000D01*
X390050000Y-1167846500D02*
X386420000Y-1171160000D01*
X709100000Y-1165580100D02*
X709100000Y-1184040000D01*
X6805833Y-653800433D02*
X7110000Y-654104600D01*
X525390000Y-664221100D02*
X526120000Y-674360000D01*
X493270000Y-244804800D02*
X515860000Y-267670000D01*
X146290000Y-720133400D02*
X148880000Y-740900000D01*
X583440000Y-1197139700D02*
X568920000Y-1224290000D01*
X418270000Y-1383986500D02*
X395060000Y-1391230000D01*
X602480000Y-839597100D02*
X600810000Y-863660000D01*
X487150000Y-238409800D02*
X493270000Y-244800000D01*
X274930000Y-1114088400D02*
X254140000Y-1126620000D01*
X486140000Y-237475800D02*
X487150000Y-238410000D01*
X619270000Y-933967500D02*
X615280000Y-968320000D01*
X454080000Y-1197868900D02*
X449480000Y-1202670000D01*
X3250000Y-32673033D02*
X6263133Y-32673033D01*
X467730000Y-519451800D02*
X472030000Y-533040000D01*
X384550000Y-512134600D02*
X394220000Y-537270000D01*
X158710000Y-1201931900D02*
X127590000Y-1207310000D01*
X162320000Y-1266077200D02*
X161440000Y-1266240000D01*
X14252763Y-1401208574D02*
X14507132Y-1400954205D01*
X694600000Y-649755400D02*
X695160000Y-688090000D01*
X715800000Y-514400100D02*
X715800000Y-540560000D01*
X260650000Y-1438978000D02*
X223820000Y-1440770000D01*
X181780000Y-1442540100D02*
X165580000Y-1443030000D01*
X554230000Y-811881100D02*
X552150000Y-842880000D01*
X11874784Y-1423524827D02*
X12081453Y-1423318158D01*
X706090000Y-292227800D02*
X709100000Y-315960000D01*
X339760000Y-948472600D02*
X331530000Y-965300000D01*
X609660000Y-1005551900D02*
X606130000Y-1022430000D01*
X552150000Y-842875400D02*
X551580000Y-850820000D01*
X405760000Y-571103900D02*
X411270000Y-591500000D01*
X431110000Y-1063969400D02*
X414440000Y-1090110000D01*
X426230000Y-1304608700D02*
X422410000Y-1306330000D01*
X160250000Y-633598900D02*
X167680000Y-645930000D01*
X77370000Y-623760200D02*
X91540000Y-632710000D01*
X580110000Y-705370300D02*
X580380000Y-713560000D01*
X14914556Y-1305394228D02*
X14963070Y-1305442742D01*
X673340000Y-741077900D02*
X673340000Y-758920000D01*
X472310000Y-1226500700D02*
X465790000Y-1233300000D01*
X695160000Y-690533500D02*
X695430000Y-728390000D01*
X685340000Y-1057856000D02*
X683130000Y-1088210000D01*
X596560000Y-157228900D02*
X611900000Y-173670000D01*
X399820000Y-453775800D02*
X411270000Y-473710000D01*
X169190000Y-1395002400D02*
X155180000Y-1396230000D01*
X453190000Y-1372589500D02*
X429830000Y-1381330000D01*
X330690000Y-533301600D02*
X340830000Y-554130000D01*
X648420000Y-634019200D02*
X649530000Y-664330000D01*
X717030000Y-864932300D02*
X716750000Y-877980000D01*
X308270000Y-1006878700D02*
X296040000Y-1021550000D01*
X72450000Y-1422556300D02*
X49210000Y-1423050000D01*
X266020000Y-333429400D02*
X276170000Y-338650000D01*
X676440000Y-135438800D02*
X682760000Y-157520000D01*
X352340000Y-1042857600D02*
X346580000Y-1050670000D01*
X18042742Y-1305442742D02*
X18230000Y-1305630000D01*
X281870000Y-89852600D02*
X284460000Y-90010000D01*
X430070000Y-983320100D02*
X420190000Y-1007850000D01*
X622590000Y-415858500D02*
X628450000Y-443190000D01*
X193230000Y-921025900D02*
X176240000Y-938980000D01*
X667430000Y-946768300D02*
X667010000Y-957570000D01*
X395060000Y-108763300D02*
X418260000Y-116000000D01*
X204500000Y-1341220100D02*
X199760000Y-1341770000D01*
X511470000Y-1237274600D02*
X505670000Y-1242840000D01*
X233320000Y-319922500D02*
X257840000Y-329790000D01*
X132620000Y-393533500D02*
X148320000Y-397470000D01*
X311100000Y-496975700D02*
X316230000Y-504990000D01*
X412670000Y-407153700D02*
X430710000Y-435400000D01*
X646230000Y-594816800D02*
X647700000Y-622820000D01*
X284320000Y-235014800D02*
X315500000Y-247290000D01*
X415580000Y-1459101900D02*
X394850000Y-1461300000D01*
X613800000Y-73518000D02*
X633970000Y-86810000D01*
X181950000Y-1231513600D02*
X181010000Y-1231710000D01*
X664300000Y-510977100D02*
X667000000Y-542430000D01*
X405750000Y-928895000D02*
X403730000Y-936390000D01*
X154970000Y-1419754800D02*
X129000000Y-1421090000D01*
X371000000Y-1395847800D02*
X359040000Y-1398950000D01*
X363490000Y-716756400D02*
X364150000Y-743170000D01*
X715090000Y-1000308900D02*
X715090000Y-1025650000D01*
X466400000Y-779022500D02*
X465320000Y-801280000D01*
X137050000Y-260366400D02*
X145420000Y-261650000D01*
X464030000Y-820844200D02*
X462160000Y-839910000D01*
X654270000Y-424300100D02*
X655050000Y-427920000D01*
X635750000Y-1412137200D02*
X615920000Y-1425740000D01*
X657810000Y-1051129700D02*
X655050000Y-1072080000D01*
X544780000Y-54525700D02*
X547590000Y-54530000D01*
X693340000Y-1307036000D02*
X688000000Y-1330910000D01*
X3250000Y-98943973D02*
X8831357Y-98943973D01*
X315500000Y-247285800D02*
X338160000Y-258310000D01*
X340670000Y-192235500D02*
X346130000Y-193960000D01*
X97150000Y-748326300D02*
X97160000Y-750050000D01*
X426910000Y-761245000D02*
X426440000Y-778940000D01*
X580110000Y-794629300D02*
X578750000Y-825970000D01*
X382680000Y-1072335200D02*
X380320000Y-1075340000D01*
X633970000Y-86809500D02*
X634860000Y-87390000D01*
X715800000Y-985600000D02*
X715090000Y-1000310000D01*
X186050000Y-680913700D02*
X191500000Y-694170000D01*
X629410000Y-450482600D02*
X634630000Y-480110000D01*
X199760000Y-1341771300D02*
X166850000Y-1346110000D01*
X351870000Y-899433300D02*
X347050000Y-926630000D01*
X102940000Y-1375705600D02*
X99280000Y-1375840000D01*
X44630000Y-1330109000D02*
X36440000Y-1330380000D01*
X20980000Y-551407300D02*
X56020000Y-558500000D01*
X695430000Y-768851100D02*
X695430000Y-771610000D01*
X100240000Y-55399900D02*
X102050000Y-55400000D01*
X140500000Y-610871500D02*
X148290000Y-620310000D01*
X189260000Y-573682400D02*
X201960000Y-589920000D01*
X636220000Y-1005151500D02*
X634630000Y-1019890000D01*
X180430000Y-1369741200D02*
X148890000Y-1372590000D01*
X439470000Y-1337369500D02*
X411740000Y-1349830000D01*
X667000000Y-542426900D02*
X667430000Y-553230000D01*
X631330000Y-320166900D02*
X633990000Y-331730000D01*
X89250000Y-1422309900D02*
X72450000Y-1422560000D01*
X340670000Y-1307760100D02*
X312360000Y-1317680000D01*
X583300000Y-1437326800D02*
X558340000Y-1443030000D01*
X408540000Y-304734200D02*
X428800000Y-323360000D01*
X347160000Y-1237398300D02*
X338180000Y-1241670000D01*
X516080000Y-912323100D02*
X508870000Y-947660000D01*
X19560000Y-551214900D02*
X20980000Y-551410000D01*
X196430000Y-409283500D02*
X215630000Y-418600000D01*
X492240000Y-493071900D02*
X499840000Y-517070000D01*
X322080000Y-94949700D02*
X325700000Y-95730000D01*
X14154654Y-76617652D02*
X14230432Y-76693430D01*
X272040000Y-454087400D02*
X279880000Y-460690000D01*
X551840000Y-1013158500D02*
X541690000Y-1047430000D01*
X276170000Y-338650000D02*
X295260000Y-349630000D01*
X428800000Y-323355800D02*
X449840000Y-346670000D01*
X244560000Y-165783500D02*
X277360000Y-172810000D01*
X447790000Y-1333022900D02*
X443900000Y-1335370000D01*
X516930000Y-471315800D02*
X526300000Y-501870000D01*
X296460000Y-479455900D02*
X311100000Y-496980000D01*
X416560000Y-1016019200D02*
X411600000Y-1025690000D01*
X465320000Y-698724400D02*
X466400000Y-720980000D01*
X52540000Y-1175461200D02*
X28940000Y-1176440000D01*
X355310000Y-1302149200D02*
X346130000Y-1306040000D01*
X527500000Y-223761000D02*
X537520000Y-235510000D01*
X263160000Y-1301837700D02*
X262850000Y-1301930000D01*
X3250000Y-1444870808D02*
X18290808Y-1444870808D01*
X3292388Y-601060200D02*
X3250000Y-601017812D01*
X633160000Y-1290661400D02*
X630200000Y-1298090000D01*
X716340000Y-554547900D02*
X716340000Y-581330000D01*
X572030000Y-903025700D02*
X569330000Y-922190000D01*
X611420000Y-372063600D02*
X619890000Y-404550000D01*
X578060000Y-836263300D02*
X575980000Y-864830000D01*
X227720000Y-423471300D02*
X244860000Y-434570000D01*
X33250000Y-386505500D02*
X47530000Y-386270000D01*
X66200000Y-820194500D02*
X48840000Y-832160000D01*
X528240000Y-783960800D02*
X527790000Y-796700000D01*
X404150000Y-300832000D02*
X408540000Y-304730000D01*
X516930000Y-1028701200D02*
X515700000Y-1032500000D01*
X163270000Y-860840100D02*
X159600000Y-866750000D01*
X143480000Y-335457700D02*
X158520000Y-338730000D01*
X139020000Y-890638300D02*
X129710000Y-898340000D01*
X470010000Y-374033500D02*
X482070000Y-393770000D01*
X227620000Y-1363718600D02*
X218320000Y-1365280000D01*
X584960000Y-991363400D02*
X584210000Y-994560000D01*
X429830000Y-1381328200D02*
X418270000Y-1383990000D01*
X145420000Y-261652000D02*
X181010000Y-268290000D01*
X11531350Y-1216651350D02*
X11650000Y-1216770000D01*
X245900000Y-1065756700D02*
X233450000Y-1073740000D01*
X107920000Y-1243511900D02*
X93480000Y-1245060000D01*
X499150000Y-719751600D02*
X499580000Y-740040000D01*
X282500000Y-1265702600D02*
X278700000Y-1266930000D01*
X717310000Y-784174700D02*
X717220000Y-796790000D01*
X216870000Y-188008100D02*
X227150000Y-189790000D01*
X114930000Y-32966600D02*
X127980000Y-33250000D01*
X46790000Y-32781000D02*
X74580000Y-32780000D01*
X378590000Y-1292115100D02*
X355310000Y-1302150000D01*
X438390000Y-1256313300D02*
X421510000Y-1267660000D01*
X315570000Y-35843000D02*
X332470000Y-37070000D01*
X650800000Y-786429900D02*
X650620000Y-794590000D01*
X301140000Y-92190300D02*
X322080000Y-94950000D01*
X92880000Y-1302149200D02*
X61880000Y-1304230000D01*
X714160000Y-1041302900D02*
X714160000Y-1065570000D01*
X193960000Y-106703200D02*
X211790000Y-108730000D01*
X711300000Y-376138600D02*
X712930000Y-394680000D01*
X233320000Y-1180078000D02*
X206190000Y-1189710000D01*
X622590000Y-1203244000D02*
X618900000Y-1213150000D01*
X602640000Y-1041980100D02*
X595750000Y-1068850000D01*
X178670000Y-403271300D02*
X184290000Y-405290000D01*
X89440000Y-713701700D02*
X97150000Y-748330000D01*
X591460000Y-66942700D02*
X613800000Y-73520000D01*
X672310000Y-839244400D02*
X671430000Y-863550000D01*
X296040000Y-1021553800D02*
X289330000Y-1029430000D01*
X693740000Y-892009700D02*
X693030000Y-915560000D01*
X411490000Y-1094226400D02*
X393040000Y-1116570000D01*
X345440000Y-130099700D02*
X377940000Y-138580000D01*
X506200000Y-541544600D02*
X508870000Y-552340000D01*
X299520000Y-1379417300D02*
X269890000Y-1384630000D01*
X604160000Y-800099900D02*
X603260000Y-821790000D01*
X533200000Y-1144685500D02*
X525770000Y-1159150000D01*
X97160000Y-750046900D02*
X90220000Y-784140000D01*
X8850000Y-601060200D02*
X30210000Y-603770000D01*
X414540000Y-606517500D02*
X415410000Y-610770000D01*
X348350000Y-1337369500D02*
X327410000Y-1343890000D01*
X148190000Y-536236300D02*
X160240000Y-548370000D01*
X515700000Y-467498700D02*
X516930000Y-471320000D01*
X574550000Y-878736300D02*
X572030000Y-903030000D01*
X199550000Y-308283100D02*
X206190000Y-310290000D01*
X672560000Y-822447500D02*
X672310000Y-839240000D01*
X701810000Y-1260773700D02*
X695490000Y-1294770000D01*
X673370000Y-336476800D02*
X675390000Y-355510000D01*
X89250000Y-77689700D02*
X113550000Y-78570000D01*
X366910000Y-1262209700D02*
X362800000Y-1264630000D01*
X235600000Y-34198400D02*
X250310000Y-34910000D01*
X457310000Y-877591800D02*
X451930000Y-908710000D01*
X89920000Y-287843500D02*
X113980000Y-290630000D01*
X369070000Y-1140880900D02*
X345240000Y-1160710000D01*
X312360000Y-182317500D02*
X340670000Y-192240000D01*
X551510000Y-851512200D02*
X547430000Y-888890000D01*
X301120000Y-1407809700D02*
X284460000Y-1409990000D01*
X189380000Y-210588700D02*
X212630000Y-215070000D01*
X279880000Y-460686700D02*
X296460000Y-479460000D01*
X560210000Y-522851400D02*
X561990000Y-533130000D01*
X503210000Y-1298087900D02*
X494440000Y-1304400000D01*
X148960000Y-759221500D02*
X146650000Y-778320000D01*
X148880000Y-740900300D02*
X148960000Y-759220000D01*
X606130000Y-1022433700D02*
X602640000Y-1041980000D01*
X359040000Y-101043900D02*
X370990000Y-104140000D01*
X412590000Y-407038400D02*
X412630000Y-407080000D01*
X158710000Y-298067000D02*
X164290000Y-299230000D01*
X212630000Y-215065800D02*
X235640000Y-220680000D01*
X127980000Y-33254400D02*
X155230000Y-33250000D01*
X429980000Y-1302342700D02*
X426230000Y-1304610000D01*
X301190000Y-403878500D02*
X307040000Y-408670000D01*
X102050000Y-1444599800D02*
X100240000Y-1444600000D01*
X692540000Y-568219400D02*
X693030000Y-584450000D01*
X445830000Y-1157895200D02*
X426800000Y-1178640000D01*
X223820000Y-59229300D02*
X260650000Y-61020000D01*
X363490000Y-783246200D02*
X363740000Y-797530000D01*
X584950000Y-508638000D02*
X587370000Y-522590000D01*
X356210000Y-882445300D02*
X351870000Y-899430000D01*
X70850000Y-1214023900D02*
X51280000Y-1215320000D01*
X307860000Y-1435336100D02*
X299640000Y-1436410000D01*
X669350000Y-918459200D02*
X667430000Y-946770000D01*
X604860000Y-739953500D02*
X604860000Y-760050000D01*
X204500000Y-158779600D02*
X227440000Y-162630000D01*
X604580000Y-719427000D02*
X604860000Y-739950000D01*
X692500000Y-932367100D02*
X690980000Y-971350000D01*
X502710000Y-1065500400D02*
X491690000Y-1088160000D01*
X516930000Y-1107967500D02*
X514630000Y-1112810000D01*
X484710000Y-1406436100D02*
X479710000Y-1407810000D01*
X46790000Y-1467218900D02*
X34170000Y-1467310000D01*
X557760000Y-1090671300D02*
X556040000Y-1096130000D01*
X593890000Y-422588600D02*
X595740000Y-431140000D01*
X487410000Y-1097171900D02*
X481730000Y-1106840000D01*
X413530000Y-76621200D02*
X439540000Y-82620000D01*
X386160000Y-1067300600D02*
X382680000Y-1072340000D01*
X119030000Y-518303300D02*
X124740000Y-522580000D01*
X430070000Y-516679900D02*
X439700000Y-543810000D01*
X420230000Y-643705200D02*
X421800000Y-654900000D01*
X447460000Y-1033763500D02*
X446490000Y-1035670000D01*
X449320000Y-1153963500D02*
X445830000Y-1157900000D01*
X111300000Y-985167900D02*
X89360000Y-999860000D01*
X715090000Y-499690900D02*
X715800000Y-514400000D01*
X260650000Y-61021600D02*
X265610000Y-61550000D01*
X249900000Y-839725800D02*
X234840000Y-861770000D01*
X464020000Y-679154400D02*
X465320000Y-698720000D01*
X3250000Y-1423524827D02*
X11874784Y-1423524827D01*
X52950000Y-610952600D02*
X63150000Y-614770000D01*
X327410000Y-1343892000D02*
X318860000Y-1345750000D01*
X426910000Y-738754600D02*
X426910000Y-761250000D01*
X241360000Y-165043100D02*
X244560000Y-165780000D01*
X591220000Y-954502500D02*
X587370000Y-977420000D01*
X158520000Y-1161268700D02*
X143480000Y-1164540000D01*
X395060000Y-1391228800D02*
X371000000Y-1395850000D01*
X315500000Y-1252708100D02*
X284330000Y-1264980000D01*
X231560000Y-869416200D02*
X227010000Y-875470000D01*
X85780000Y-1275396100D02*
X75640000Y-1276120000D01*
X208450000Y-1256203400D02*
X197660000Y-1258870000D01*
X422410000Y-1306326500D02*
X394810000Y-1320350000D01*
X494440000Y-1304396400D02*
X474900000Y-1318490000D01*
X167680000Y-645925600D02*
X178720000Y-662360000D01*
X159600000Y-866745700D02*
X150850000Y-876440000D01*
X201960000Y-589921400D02*
X212660000Y-600470000D01*
X137650000Y-693188400D02*
X146290000Y-720130000D01*
X99280000Y-1375840200D02*
X63430000Y-1377360000D01*
X3250000Y-551174179D02*
X20746879Y-551174179D01*
X183970000Y-130725000D02*
X218320000Y-134720000D01*
X325700000Y-95725200D02*
X359040000Y-101040000D01*
X33960000Y-1278242200D02*
X13750230Y-1278627353D01*
X466770000Y-761650800D02*
X466400000Y-779020000D01*
X132160000Y-681946800D02*
X135480000Y-687310000D01*
X404920000Y-1198513000D02*
X404530000Y-1198870000D01*
X235600000Y-1465801600D02*
X209440000Y-1465800000D01*
X237850000Y-1134574900D02*
X212730000Y-1144220000D01*
X312360000Y-1317679600D02*
X291370000Y-1323170000D01*
X512260000Y-383167200D02*
X514620000Y-387200000D01*
X693030000Y-915556900D02*
X692540000Y-931780000D01*
X492250000Y-1006925500D02*
X488960000Y-1017140000D01*
X361660000Y-822653800D02*
X361600000Y-839220000D01*
X570350000Y-355194000D02*
X580440000Y-381900000D01*
X466770000Y-738349400D02*
X466770000Y-761650000D01*
X277360000Y-1327185000D02*
X244560000Y-1334220000D01*
X22190000Y-1305568300D02*
X18230000Y-1305630000D01*
X256450000Y-818690900D02*
X249900000Y-839730000D01*
X716340000Y-945452200D02*
X715800000Y-959440000D01*
X554580000Y-255710600D02*
X568640000Y-275350000D01*
X199760000Y-158228300D02*
X204500000Y-158780000D01*
X411270000Y-591497000D02*
X414540000Y-606520000D01*
X569330000Y-922193200D02*
X566830000Y-940490000D01*
X488350000Y-895416500D02*
X481710000Y-931000000D01*
X350730000Y-1431134800D02*
X338210000Y-1433130000D01*
X3250000Y-653800433D02*
X6805833Y-653800433D01*
X625890000Y-1304781700D02*
X612440000Y-1325570000D01*
X591220000Y-545498600D02*
X591770000Y-550230000D01*
X352530000Y-601675800D02*
X356470000Y-617380000D01*
X3250000Y-847000000D02*
X5790000Y-847000000D01*
X516240000Y-588563200D02*
X516930000Y-593050000D01*
X362800000Y-1264629300D02*
X357960000Y-1266930000D01*
X3250000Y-323096736D02*
X11230664Y-323096736D01*
X555620000Y-731766400D02*
X555620000Y-768230000D01*
X346000000Y-447883500D02*
X346750000Y-448890000D01*
X645850000Y-379004100D02*
X648950000Y-390960000D01*
X86260000Y-171936900D02*
X114830000Y-174020000D01*
X453000000Y-300863400D02*
X467000000Y-317090000D01*
X421800000Y-845095800D02*
X420240000Y-856300000D01*
X330830000Y-1279404800D02*
X312780000Y-1285890000D01*
X641270000Y-961792500D02*
X639490000Y-982230000D01*
X683120000Y-411793400D02*
X685340000Y-442140000D01*
X325520000Y-979971700D02*
X317500000Y-992740000D01*
X634000000Y-1168256400D02*
X631340000Y-1179840000D01*
X394300000Y-1355278000D02*
X377940000Y-1361420000D01*
X338180000Y-1241665300D02*
X315500000Y-1252710000D01*
X694600000Y-852047100D02*
X693740000Y-891200000D01*
X142010000Y-1443736800D02*
X141200000Y-1443740000D01*
X178340000Y-838492300D02*
X163270000Y-860840000D01*
X671430000Y-636448700D02*
X672310000Y-660760000D01*
X495060000Y-656523200D02*
X497110000Y-680470000D01*
X592580000Y-1346733300D02*
X577440000Y-1361050000D01*
X541230000Y-1382743900D02*
X518600000Y-1395000000D01*
X347170000Y-262587000D02*
X357040000Y-268400000D01*
X354450000Y-304741500D02*
X360680000Y-308840000D01*
X393320000Y-1247229000D02*
X366910000Y-1262210000D01*
X500690000Y-48191400D02*
X510770000Y-48190000D01*
X85670000Y-1399536100D02*
X76390000Y-1399930000D01*
X434880000Y-1118663200D02*
X418820000Y-1139000000D01*
X89600000Y-1352483800D02*
X71790000Y-1353260000D01*
X487400000Y-402837400D02*
X491660000Y-411820000D01*
X682760000Y-157521900D02*
X687440000Y-166900000D01*
X709100000Y-334419000D02*
X711300000Y-355150000D01*
X324560000Y-425451200D02*
X345430000Y-447210000D01*
X377940000Y-1361417000D02*
X345440000Y-1369890000D01*
X55580000Y-1011497500D02*
X22330000Y-1016720000D01*
X168670000Y-1466342300D02*
X155230000Y-1466750000D01*
X275650000Y-1465089700D02*
X250310000Y-1465090000D01*
X47530000Y-1113734000D02*
X33250000Y-1113490000D01*
X567680000Y-1062358400D02*
X557760000Y-1090670000D01*
X113980000Y-290634000D02*
X127590000Y-292690000D01*
X557760000Y-409324100D02*
X567680000Y-437640000D01*
X568920000Y-1224285700D02*
X551100000Y-1248700000D01*
X9632749Y-169183012D02*
X9684192Y-169234455D01*
X450990000Y-254267500D02*
X460040000Y-261380000D01*
X556310000Y-327579000D02*
X570350000Y-355190000D01*
X250310000Y-1465089700D02*
X235600000Y-1465800000D01*
X631340000Y-1179839900D02*
X622590000Y-1203240000D01*
X656440000Y-1234711200D02*
X655490000Y-1236840000D01*
X36440000Y-1330380300D02*
X13213886Y-1330713918D01*
X431030000Y-281386900D02*
X447870000Y-295930000D01*
X339340000Y-335119900D02*
X342830000Y-337420000D01*
X128740000Y-1324554100D02*
X114830000Y-1325980000D01*
X230540000Y-1217741000D02*
X216960000Y-1222030000D01*
X649530000Y-835669600D02*
X648420000Y-865980000D01*
X338210000Y-66872600D02*
X350730000Y-68860000D01*
X549940000Y-1379222200D02*
X541230000Y-1382740000D01*
X250950000Y-1210766200D02*
X230540000Y-1217740000D01*
X537520000Y-235508700D02*
X548600000Y-247410000D01*
X498280000Y-801170400D02*
X497110000Y-819540000D01*
X330830000Y-220590500D02*
X357970000Y-233070000D01*
X148320000Y-397473400D02*
X178670000Y-403270000D01*
X600810000Y-636343700D02*
X602480000Y-660400000D01*
X11613623Y-283188423D02*
X11650000Y-283224800D01*
X542110000Y-371411000D02*
X552150000Y-394700000D01*
X597060000Y-906265200D02*
X596110000Y-916850000D01*
X146650000Y-778315000D02*
X138830000Y-803680000D01*
X709100000Y-315955900D02*
X709100000Y-334420000D01*
X128730000Y-175444800D02*
X153030000Y-177960000D01*
X539410000Y-939380000D02*
X534930000Y-962630000D01*
X141230000Y-126762100D02*
X141950000Y-126800000D01*
X411750000Y-150153000D02*
X439520000Y-162630000D01*
X14255728Y-1176878439D02*
X14305929Y-1176828238D01*
X717220000Y-796794400D02*
X717220000Y-824580000D01*
X111080000Y-391878700D02*
X132620000Y-393530000D01*
X446490000Y-567824000D02*
X450770000Y-585710000D01*
X182210000Y-1231451300D02*
X181950000Y-1231510000D01*
X443920000Y-164611400D02*
X447060000Y-166530000D01*
X392630000Y-252327200D02*
X415380000Y-268320000D01*
X216960000Y-1222034400D02*
X182210000Y-1231450000D01*
X481710000Y-931002800D02*
X481510000Y-931950000D01*
X138830000Y-803676800D02*
X135620000Y-812320000D01*
X127590000Y-292685800D02*
X158710000Y-298070000D01*
X712930000Y-1105325500D02*
X711300000Y-1123860000D01*
X255150000Y-1386218900D02*
X232230000Y-1389490000D01*
X441710000Y-949548600D02*
X439700000Y-956190000D01*
X586160000Y-1273297900D02*
X577120000Y-1283670000D01*
X706090000Y-1222769700D02*
X701810000Y-1250680000D01*
X255150000Y-113780200D02*
X269890000Y-115370000D01*
X420200000Y-492149400D02*
X430070000Y-516680000D01*
X695160000Y-688091400D02*
X695160000Y-690530000D01*
X483920000Y-284882400D02*
X485690000Y-286930000D01*
X484710000Y-93568400D02*
X486840000Y-94530000D01*
X190500000Y-183168400D02*
X216870000Y-188010000D01*
X221350000Y-59016600D02*
X223820000Y-59230000D01*
X639490000Y-982226300D02*
X636220000Y-1005150000D01*
X650620000Y-794585300D02*
X649930000Y-826390000D01*
X393040000Y-1116566700D02*
X378810000Y-1131460000D01*
X227440000Y-162630500D02*
X241360000Y-165040000D01*
X127740000Y-824797700D02*
X117170000Y-841680000D01*
X655050000Y-1072081100D02*
X654270000Y-1075700000D01*
X227620000Y-136280900D02*
X255550000Y-140340000D01*
X603260000Y-821788600D02*
X602480000Y-839600000D01*
X235170000Y-638680800D02*
X249860000Y-660650000D01*
X395480000Y-1282770600D02*
X378590000Y-1292120000D01*
X72450000Y-77443300D02*
X89250000Y-77690000D01*
X669750000Y-595026400D02*
X671090000Y-621000000D01*
X291980000Y-147356800D02*
X318850000Y-154250000D01*
X162210000Y-950038400D02*
X149950000Y-962430000D01*
X332470000Y-37070300D02*
X355330000Y-37070000D01*
X711300000Y-355153100D02*
X711300000Y-376140000D01*
X46000000Y-666207700D02*
X62830000Y-676930000D01*
X18228291Y-194375409D02*
X18230000Y-194373700D01*
X645000000Y-919190300D02*
X643300000Y-943960000D01*
X580380000Y-713557100D02*
X580850000Y-746250000D01*
X345430000Y-447210000D02*
X346000000Y-447880000D01*
X261950000Y-197850800D02*
X262850000Y-198070000D01*
X5790000Y-847000000D02*
X6150000Y-846640000D01*
X343030000Y-1162487800D02*
X341780000Y-1163360000D01*
X499220000Y-199298800D02*
X503000000Y-202080000D01*
X516070000Y-587675100D02*
X516240000Y-588560000D01*
X3250000Y-1377922050D02*
X16652050Y-1377922050D01*
X47530000Y-386266100D02*
X72650000Y-388350000D01*
X604860000Y-760046500D02*
X604580000Y-780570000D01*
X530800000Y-170427100D02*
X553160000Y-187930000D01*
X232940000Y-1249844800D02*
X208450000Y-1256200000D01*
X446490000Y-464324900D02*
X447460000Y-466240000D01*
X648960000Y-1109039400D02*
X645860000Y-1120990000D01*
X155230000Y-1466745600D02*
X127980000Y-1466750000D01*
X267250000Y-768428200D02*
X266760000Y-772320000D01*
X497110000Y-819535000D02*
X495060000Y-843480000D01*
X141230000Y-1373237300D02*
X102940000Y-1375710000D01*
X654270000Y-1075697700D02*
X648960000Y-1109040000D01*
X241360000Y-1334956300D02*
X227430000Y-1337370000D01*
X285450000Y-268291000D02*
X299930000Y-274400000D01*
X227150000Y-189789200D02*
X261950000Y-197850000D01*
X606130000Y-477564300D02*
X609660000Y-494450000D01*
X446490000Y-932183400D02*
X441710000Y-949550000D01*
X449790000Y-1416077300D02*
X439550000Y-1417380000D01*
X325700000Y-1404271400D02*
X322080000Y-1405050000D01*
X115980000Y-101579300D02*
X127180000Y-102300000D01*
X67880000Y-882348000D02*
X63150000Y-885300000D01*
X110980000Y-586858400D02*
X116770000Y-590450000D01*
X114930000Y-1467033300D02*
X87360000Y-1467030000D01*
X3250000Y-1305394228D02*
X14914556Y-1305394228D01*
X36430000Y-99201900D02*
X44580000Y-99370000D01*
X113550000Y-1421432700D02*
X89250000Y-1422310000D01*
X453250000Y-127410500D02*
X463150000Y-131100000D01*
X285440000Y-1231709000D02*
X267140000Y-1238960000D01*
X36430000Y-1400797700D02*
X14507132Y-1400954205D01*
X218320000Y-1365279400D02*
X183970000Y-1369270000D01*
X95100000Y-328197000D02*
X106300000Y-329760000D01*
X619890000Y-404554500D02*
X620710000Y-407180000D01*
X3250000Y-1354926607D02*
X9983393Y-1354926607D01*
X155230000Y-33254400D02*
X168670000Y-33660000D01*
X526300000Y-998132700D02*
X516930000Y-1028700000D01*
X681140000Y-1100726300D02*
X678890000Y-1126230000D01*
X657810000Y-1229717100D02*
X656440000Y-1234710000D01*
X44580000Y-99373300D02*
X76390000Y-100070000D01*
X211790000Y-1391269700D02*
X193960000Y-1393300000D01*
X3250000Y-283188423D02*
X11613623Y-283188423D01*
X191500000Y-694165200D02*
X198550000Y-728970000D01*
X555320000Y-1309906100D02*
X535670000Y-1325620000D01*
X209440000Y-1465801600D02*
X195450000Y-1466340000D01*
X459360000Y-636018700D02*
X462150000Y-660090000D01*
X584620000Y-224483600D02*
X587730000Y-229310000D01*
X604580000Y-780572800D02*
X604160000Y-800100000D01*
X113980000Y-1209363300D02*
X89910000Y-1212150000D01*
X662980000Y-1384392100D02*
X643860000Y-1406670000D01*
X160240000Y-548369600D02*
X170620000Y-556420000D01*
X357960000Y-1266929200D02*
X330830000Y-1279400000D01*
X218320000Y-134720300D02*
X227620000Y-136280000D01*
X672550000Y-677552300D02*
X673050000Y-700790000D01*
X657810000Y-448889100D02*
X659990000Y-465540000D01*
X481510000Y-931949500D02*
X481450000Y-932210000D01*
X529400000Y-419169800D02*
X535880000Y-437220000D01*
X46700000Y-1277788700D02*
X33960000Y-1278240000D01*
X344460000Y-933759500D02*
X339760000Y-948470000D01*
X363730000Y-702466300D02*
X363490000Y-716760000D01*
X426440000Y-721059000D02*
X426910000Y-738750000D01*
X516930000Y-392052500D02*
X529400000Y-419170000D01*
X256920000Y-257746600D02*
X267140000Y-261040000D01*
X420940000Y-192982800D02*
X426440000Y-195460000D01*
X127180000Y-102301200D02*
X155180000Y-103770000D01*
X67340000Y-563123300D02*
X88090000Y-571410000D01*
X449790000Y-83917200D02*
X479700000Y-92190000D01*
X368100000Y-1330446300D02*
X361700000Y-1333160000D01*
X129000000Y-1421088900D02*
X113550000Y-1421430000D01*
X168460000Y-80652800D02*
X196770000Y-82570000D01*
X669750000Y-904973200D02*
X669350000Y-918460000D01*
X424190000Y-681889900D02*
X425460000Y-697460000D01*
X717220000Y-703205600D02*
X717310000Y-715830000D01*
X717310000Y-715825300D02*
X717310000Y-743720000D01*
X345930000Y-339847500D02*
X366610000Y-356990000D01*
X70840000Y-285973100D02*
X89920000Y-287840000D01*
X309820000Y-1220599000D02*
X299930000Y-1225600000D01*
X116770000Y-590450000D02*
X126200000Y-598970000D01*
X3250000Y-54535764D02*
X18816064Y-54535764D01*
X107930000Y-256486000D02*
X137050000Y-260370000D01*
X404260000Y-1199077200D02*
X377220000Y-1219180000D01*
X376230000Y-71106700D02*
X394480000Y-74610000D01*
X376470000Y-280321300D02*
X397150000Y-295740000D01*
X667010000Y-957573600D02*
X664300000Y-989020000D01*
X271390000Y-1045080000D02*
X253140000Y-1061100000D01*
X554330000Y-690566200D02*
X555570000Y-727810000D01*
X166850000Y-1346109000D02*
X156260000Y-1347070000D01*
X591590000Y-152303700D02*
X596560000Y-157230000D01*
X266760000Y-772315800D02*
X261560000Y-805620000D01*
X172190000Y-180665600D02*
X190500000Y-183170000D01*
X92900000Y-197850800D02*
X100820000Y-198420000D01*
X361570000Y-660770000D02*
X361650000Y-677350000D01*
X3250000Y-385849012D02*
X6823388Y-385849012D01*
X497830000Y-1142376500D02*
X482220000Y-1164630000D01*
X534930000Y-962632100D02*
X529310000Y-985640000D01*
X378010000Y-421840400D02*
X381170000Y-425780000D01*
X552150000Y-488070100D02*
X560210000Y-522850000D01*
X9684192Y-169234455D02*
X36440000Y-169620000D01*
X518580000Y-105032500D02*
X539700000Y-116460000D01*
X314400000Y-319136400D02*
X339340000Y-335120000D01*
X525550000Y-340464500D02*
X532770000Y-354520000D01*
X445590000Y-1103915900D02*
X441200000Y-1110610000D01*
X34310000Y-659928100D02*
X46000000Y-666210000D01*
X95100000Y-1171799900D02*
X68110000Y-1174190000D01*
X373860000Y-1461298200D02*
X355330000Y-1462930000D01*
X239020000Y-1414301000D02*
X207570000Y-1417010000D01*
X12081453Y-1423318158D02*
X8920000Y-1423340000D01*
X368100000Y-169546900D02*
X394810000Y-179640000D01*
X574550000Y-621262700D02*
X575980000Y-635170000D01*
X447460000Y-466236800D02*
X448070000Y-467700000D01*
X128530000Y-150176500D02*
X156260000Y-152930000D01*
X388840000Y-331042500D02*
X397980000Y-339500000D01*
X31630000Y-76816500D02*
X49210000Y-76940000D01*
X291370000Y-1323167800D02*
X277360000Y-1327190000D01*
X30250000Y-250844600D02*
X51170000Y-251720000D01*
X578750000Y-674034000D02*
X580110000Y-705370000D01*
X237890000Y-365338500D02*
X244700000Y-368480000D01*
X413860000Y-1232781600D02*
X393320000Y-1247230000D01*
X706090000Y-1207771900D02*
X706090000Y-1222770000D01*
X578060000Y-663736000D02*
X578750000Y-674030000D01*
X8888482Y-99001098D02*
X36430000Y-99200000D01*
X161440000Y-233756900D02*
X162320000Y-233920000D01*
X526210000Y-1277559400D02*
X514500000Y-1287560000D01*
X472770000Y-1456084600D02*
X457770000Y-1456080000D01*
X559020000Y-57208300D02*
X583010000Y-62740000D01*
X334170000Y-127410500D02*
X342820000Y-129280000D01*
X206190000Y-310293300D02*
X233320000Y-319920000D01*
X587370000Y-522590400D02*
X591220000Y-545500000D01*
X12598032Y-1249524561D02*
X9960000Y-1249580000D01*
X619740000Y-930425600D02*
X619270000Y-933970000D01*
X430690000Y-375938000D02*
X442070000Y-390770000D01*
X8831357Y-98943973D02*
X8888482Y-99001098D01*
X441200000Y-1110612700D02*
X434880000Y-1118660000D01*
X656440000Y-265287400D02*
X657810000Y-270280000D01*
X361600000Y-839215900D02*
X358140000Y-861090000D01*
X560240000Y-194978500D02*
X577060000Y-216000000D01*
X481450000Y-567786500D02*
X481510000Y-568050000D01*
X10802877Y-1114093185D02*
X10846115Y-1114049947D01*
X488950000Y-482860800D02*
X492240000Y-493070000D01*
X673180000Y-781629200D02*
X673050000Y-799210000D01*
X20746879Y-551174179D02*
X20980000Y-551407300D01*
X526120000Y-825635300D02*
X525400000Y-835780000D01*
X101510000Y-198486500D02*
X138890000Y-202570000D01*
X414540000Y-893482800D02*
X411270000Y-908500000D01*
X376230000Y-1428889700D02*
X350730000Y-1431130000D01*
X312770000Y-214107400D02*
X330830000Y-220590000D01*
X118340000Y-227789400D02*
X124050000Y-228410000D01*
X22190000Y-194430700D02*
X59430000Y-195660000D01*
X3250000Y-1017240289D02*
X18409711Y-1017240289D01*
X602640000Y-458021800D02*
X606130000Y-477560000D01*
X168670000Y-33657600D02*
X195450000Y-33660000D01*
X346130000Y-193958600D02*
X355320000Y-197850000D01*
X233450000Y-1073736100D02*
X216710000Y-1080710000D01*
X512440000Y-1236232300D02*
X511470000Y-1237270000D01*
X342820000Y-1370712200D02*
X334150000Y-1372590000D01*
X346750000Y-448894000D02*
X364350000Y-475630000D01*
X715800000Y-540558200D02*
X716340000Y-554550000D01*
X660140000Y-468132500D02*
X663950000Y-503730000D01*
X378810000Y-1131460700D02*
X369070000Y-1140880000D01*
X394220000Y-962725900D02*
X384760000Y-987590000D01*
X176180000Y-208085100D02*
X189380000Y-210590000D01*
X256920000Y-1242251300D02*
X232940000Y-1249840000D01*
X404530000Y-1198865300D02*
X404260000Y-1199080000D01*
X622590000Y-601138300D02*
X623200000Y-608050000D01*
X575870000Y-137787400D02*
X591590000Y-152300000D01*
X522210000Y-868342500D02*
X521590000Y-874050000D01*
X664750000Y-117462700D02*
X676440000Y-135440000D01*
X420240000Y-856296500D02*
X415410000Y-889230000D01*
X649530000Y-664330100D02*
X649930000Y-673610000D01*
X99500000Y-640008100D02*
X117790000Y-659150000D01*
X508870000Y-947661900D02*
X506200000Y-958450000D01*
X176180000Y-1291914200D02*
X144800000Y-1296590000D01*
X206190000Y-1189707100D02*
X199550000Y-1191720000D01*
X266730000Y-727669600D02*
X267240000Y-731580000D01*
X611900000Y-173667000D02*
X625370000Y-194290000D01*
X411740000Y-1349830100D02*
X394300000Y-1355280000D01*
X148890000Y-1372589500D02*
X141950000Y-1373200000D01*
X33250000Y-1113491800D02*
X10846115Y-1114049947D01*
X495060000Y-843475400D02*
X493510000Y-857930000D01*
X613710000Y-522381800D02*
X615280000Y-531680000D01*
X598070000Y-1341202100D02*
X592580000Y-1346730000D01*
X599820000Y-878526900D02*
X597060000Y-906270000D01*
X341780000Y-1163363400D02*
X314610000Y-1180710000D01*
X460760000Y-1000948200D02*
X448070000Y-1032300000D01*
X51280000Y-284674600D02*
X70840000Y-285970000D01*
X717030000Y-837359300D02*
X717030000Y-864930000D01*
X587730000Y-229313100D02*
X604100000Y-254890000D01*
X651030000Y-746107600D02*
X651030000Y-753890000D01*
X141200000Y-56263100D02*
X142010000Y-56260000D01*
X373860000Y-38700300D02*
X394850000Y-38700000D01*
X625700000Y-852934700D02*
X623240000Y-891230000D01*
X618890000Y-286852600D02*
X622590000Y-296780000D01*
X482070000Y-393770400D02*
X487400000Y-402840000D01*
X366470000Y-237521100D02*
X392630000Y-252330000D01*
X3250000Y-948789956D02*
X19530044Y-948789956D01*
X253140000Y-1061099200D02*
X245900000Y-1065760000D01*
X527790000Y-703305000D02*
X528240000Y-716040000D01*
X572030000Y-596975300D02*
X574550000Y-621260000D01*
X350730000Y-68861900D02*
X376230000Y-71110000D01*
X499840000Y-982936400D02*
X492250000Y-1006930000D01*
X555570000Y-727807900D02*
X555620000Y-731770000D01*
X497110000Y-680466000D02*
X498280000Y-698830000D01*
X671090000Y-620998900D02*
X671430000Y-636450000D01*
X51170000Y-251719500D02*
X69540000Y-252890000D01*
X667380000Y-310455100D02*
X673370000Y-336480000D01*
X447830000Y-399546400D02*
X459640000Y-418780000D01*
X655050000Y-427920500D02*
X657810000Y-448890000D01*
X61880000Y-195770800D02*
X92900000Y-197850000D01*
X415410000Y-889227400D02*
X414540000Y-893480000D01*
X212630000Y-1284933700D02*
X189380000Y-1289410000D01*
X156980000Y-233070800D02*
X161440000Y-233760000D01*
X529310000Y-514360300D02*
X534930000Y-537370000D01*
X325980000Y-370204800D02*
X346640000Y-388320000D01*
X460040000Y-261377800D02*
X477510000Y-278720000D01*
X521580000Y-625951900D02*
X522210000Y-631660000D01*
X580450000Y-1118097700D02*
X570360000Y-1144810000D01*
X603260000Y-678211000D02*
X604160000Y-699900000D01*
X361710000Y-166839600D02*
X368100000Y-169550000D01*
X583160000Y-1111707100D02*
X580450000Y-1118100000D01*
X570360000Y-1144812000D02*
X556960000Y-1171130000D01*
X547610000Y-1445501100D02*
X544770000Y-1445500000D01*
X126200000Y-598966000D02*
X140500000Y-610870000D01*
X13213886Y-1330713918D02*
X3740000Y-1330850000D01*
X663950000Y-503725500D02*
X664300000Y-510980000D01*
X153030000Y-177963300D02*
X172190000Y-180670000D01*
X413010000Y-1092285600D02*
X411490000Y-1094230000D01*
X417150000Y-359219800D02*
X421460000Y-363970000D01*
X127590000Y-1207312200D02*
X113980000Y-1209360000D01*
X394850000Y-1461298200D02*
X373860000Y-1461300000D01*
X615730000Y-1219088700D02*
X604570000Y-1244320000D01*
X488960000Y-1017141100D02*
X481710000Y-1035440000D01*
X21020000Y-948566500D02*
X19550000Y-948770000D01*
X100820000Y-198418900D02*
X101510000Y-198490000D01*
X12287722Y-1331640082D02*
X13213886Y-1330713918D01*
X6393451Y-898930000D02*
X9070000Y-898930000D01*
X516930000Y-593054400D02*
X521580000Y-625950000D01*
X74580000Y-1467218900D02*
X46790000Y-1467220000D01*
X477510000Y-278718900D02*
X483920000Y-284880000D01*
X502700000Y-434503600D02*
X514970000Y-465670000D01*
X153030000Y-1322035900D02*
X128740000Y-1324550000D01*
X284460000Y-90008000D02*
X301140000Y-92190000D01*
X263030000Y-446080800D02*
X272040000Y-454090000D01*
X569330000Y-577805500D02*
X572030000Y-596980000D01*
X137050000Y-1239631700D02*
X107920000Y-1243510000D01*
X519500000Y-1338501700D02*
X495210000Y-1353980000D01*
X506710000Y-312138700D02*
X517730000Y-328570000D01*
X18230000Y-194373700D02*
X22190000Y-194430000D01*
X685340000Y-442143000D02*
X686410000Y-450360000D01*
X514500000Y-1287556700D02*
X503210000Y-1298090000D01*
X627360000Y-686574100D02*
X627480000Y-692120000D01*
X198760000Y-730455300D02*
X198780000Y-769560000D01*
X587370000Y-310538500D02*
X599830000Y-338260000D01*
X575980000Y-635167700D02*
X578060000Y-663740000D01*
X91000000Y-867703100D02*
X67880000Y-882350000D01*
X481710000Y-569011400D02*
X488340000Y-604580000D01*
X604160000Y-699900400D02*
X604580000Y-719430000D01*
X29020000Y-1216398400D02*
X11650000Y-1216770000D01*
X12284018Y-1249210547D02*
X12598032Y-1249524561D01*
X51280000Y-1215322700D02*
X29020000Y-1216400000D01*
X557530000Y-1374201500D02*
X549940000Y-1379220000D01*
X75630000Y-223873900D02*
X85780000Y-224600000D01*
X434040000Y-40896300D02*
X457770000Y-43920000D01*
X299510000Y-120580300D02*
X306810000Y-121540000D01*
X585420000Y-1193903300D02*
X583440000Y-1197140000D01*
X470770000Y-1059513400D02*
X459850000Y-1080860000D01*
X551580000Y-850818400D02*
X551510000Y-851510000D01*
X714160000Y-1065572000D02*
X712930000Y-1082470000D01*
X604100000Y-254888900D02*
X615590000Y-280710000D01*
X409530000Y-1275549700D02*
X395480000Y-1282770000D01*
X651030000Y-753892400D02*
X650800000Y-786430000D01*
X693740000Y-891198500D02*
X693740000Y-892010000D01*
X391400000Y-381483600D02*
X412590000Y-407040000D01*
X410810000Y-1147672700D02*
X390050000Y-1167850000D01*
X33960000Y-221756300D02*
X46700000Y-222210000D01*
X182200000Y-1196488900D02*
X164290000Y-1200770000D01*
X418820000Y-1138999400D02*
X410810000Y-1147670000D01*
X263160000Y-198160300D02*
X297430000Y-208310000D01*
X659990000Y-1034461000D02*
X657810000Y-1051130000D01*
X327410000Y-156104500D02*
X348370000Y-162630000D01*
X317500000Y-992739600D02*
X308270000Y-1006880000D01*
X303490000Y-1094898000D02*
X302060000Y-1095960000D01*
X360680000Y-308842200D02*
X368050000Y-314620000D01*
X491690000Y-1088164000D02*
X487410000Y-1097170000D01*
X124050000Y-1271585400D02*
X118340000Y-1272210000D01*
X516320000Y-1173428700D02*
X506830000Y-1187570000D01*
X76390000Y-100070300D02*
X85670000Y-100460000D01*
X117790000Y-659152100D02*
X132160000Y-681950000D01*
X695430000Y-728392700D02*
X695430000Y-731150000D01*
X456080000Y-1286421200D02*
X429980000Y-1302340000D01*
X512490000Y-1116459200D02*
X497830000Y-1142380000D01*
X296270000Y-1149808200D02*
X276310000Y-1161270000D01*
X235640000Y-220684800D02*
X248130000Y-223700000D01*
X400590000Y-1044869900D02*
X386160000Y-1067300000D01*
X357300000Y-398778800D02*
X378010000Y-421840000D01*
X299640000Y-1436412100D02*
X265610000Y-1438450000D01*
X693740000Y-607990400D02*
X693740000Y-608800000D01*
X141950000Y-126799900D02*
X148900000Y-127410000D01*
X318860000Y-1345745800D02*
X291980000Y-1352640000D01*
X114830000Y-1325980700D02*
X86260000Y-1328060000D01*
X113650000Y-1350810700D02*
X89600000Y-1352480000D01*
X643860000Y-1406671100D02*
X635750000Y-1412140000D01*
X198780000Y-769558000D02*
X198590000Y-770980000D01*
X690980000Y-528655300D02*
X692500000Y-567630000D01*
X596110000Y-916852200D02*
X591770000Y-949760000D01*
X672310000Y-660755800D02*
X672550000Y-677550000D01*
X591770000Y-550234400D02*
X596110000Y-583150000D01*
X380320000Y-1075343400D02*
X361640000Y-1096660000D01*
X68110000Y-325804500D02*
X95100000Y-328200000D01*
X448070000Y-467701400D02*
X460760000Y-499050000D01*
X488840000Y-1209762900D02*
X472310000Y-1226500000D01*
X673340000Y-758922100D02*
X673180000Y-781630000D01*
X580440000Y-381896400D02*
X583150000Y-388300000D01*
X69540000Y-252885600D02*
X93470000Y-254930000D01*
X673380000Y-1163525900D02*
X667380000Y-1189540000D01*
X394480000Y-74606400D02*
X413530000Y-76620000D01*
X285770000Y-303549400D02*
X314400000Y-319140000D01*
X481510000Y-568052000D02*
X481710000Y-569010000D01*
X93480000Y-1245062700D02*
X69530000Y-1247110000D01*
X416560000Y-483978900D02*
X420200000Y-492150000D01*
X578750000Y-825966600D02*
X578060000Y-836260000D01*
X688000000Y-1330913500D02*
X683050000Y-1341180000D01*
X544770000Y-1445501100D02*
X510780000Y-1451820000D01*
X516240000Y-911438300D02*
X516080000Y-912320000D01*
X262850000Y-198067600D02*
X263160000Y-198160000D01*
X556040000Y-1096130900D02*
X552150000Y-1105320000D01*
X141200000Y-1443736800D02*
X102050000Y-1444600000D01*
X573170000Y-1041364800D02*
X567680000Y-1062360000D01*
X29020000Y-283599200D02*
X51280000Y-284670000D01*
X394810000Y-179642900D02*
X420940000Y-192980000D01*
X18369645Y-482808655D02*
X3250000Y-482808655D01*
X6308512Y-899014939D02*
X6393451Y-898930000D01*
X439700000Y-543808200D02*
X441710000Y-550450000D01*
X585370000Y-306105900D02*
X587370000Y-310540000D01*
X249860000Y-660645800D02*
X256330000Y-681240000D01*
X597060000Y-593733900D02*
X599820000Y-621470000D01*
X49210000Y-76944800D02*
X72450000Y-77440000D01*
X447870000Y-295933900D02*
X453000000Y-300860000D01*
X648950000Y-390963300D02*
X654270000Y-424300000D01*
X659140000Y-109011900D02*
X664750000Y-117460000D01*
X13665831Y-1278711752D02*
X13750230Y-1278627353D01*
X456100000Y-213603500D02*
X483830000Y-235770000D01*
X462160000Y-839914900D02*
X459360000Y-863980000D01*
X277360000Y-172813400D02*
X291360000Y-176830000D01*
X526120000Y-674363700D02*
X527790000Y-703300000D01*
X421800000Y-654902400D02*
X424190000Y-681890000D01*
X13750230Y-1278627353D02*
X6790000Y-1278760000D01*
X278710000Y-233070800D02*
X282510000Y-234290000D01*
X553160000Y-187925900D02*
X560240000Y-194980000D01*
X474520000Y-181237100D02*
X499220000Y-199300000D01*
X363740000Y-797528700D02*
X361660000Y-822650000D01*
X23450000Y-121794600D02*
X57880000Y-122520000D01*
X48840000Y-832158100D02*
X36150000Y-839350000D01*
X587370000Y-401658800D02*
X593890000Y-422590000D01*
X717220000Y-824580700D02*
X717030000Y-837360000D01*
X307860000Y-64662400D02*
X338210000Y-66870000D01*
X664450000Y-1382113100D02*
X662980000Y-1384390000D01*
X605300000Y-1144286800D02*
X599850000Y-1161750000D01*
X69810000Y-683461300D02*
X82220000Y-701360000D01*
X628450000Y-443194200D02*
X629410000Y-450480000D01*
X57880000Y-1377480800D02*
X23450000Y-1378200000D01*
X8920000Y-76654800D02*
X14230432Y-76693430D01*
X198550000Y-728968400D02*
X198760000Y-730460000D01*
X291300000Y-1464156600D02*
X275650000Y-1465090000D01*
X557190000Y-125540700D02*
X575870000Y-137790000D01*
X257840000Y-329792300D02*
X266020000Y-333430000D01*
X10050000Y-145136500D02*
X30570000Y-145420000D01*
X223820000Y-1440770500D02*
X221350000Y-1440980000D01*
X394610000Y-216767400D02*
X409380000Y-224370000D01*
X6737414Y-221188514D02*
X6790000Y-221241100D01*
X55600000Y-488465800D02*
X68710000Y-493570000D01*
X693030000Y-584454800D02*
X693740000Y-607990000D01*
X377860000Y-1001877900D02*
X365320000Y-1022550000D01*
X425460000Y-697463800D02*
X426440000Y-721060000D01*
X482770000Y-336124100D02*
X497570000Y-357200000D01*
X575980000Y-864833100D02*
X574550000Y-878740000D01*
X534930000Y-537369400D02*
X539410000Y-560620000D01*
X472770000Y-43915500D02*
X500690000Y-48190000D01*
X306810000Y-1378456300D02*
X299520000Y-1379420000D01*
X394490000Y-1425387800D02*
X376230000Y-1428890000D01*
X529410000Y-1080834100D02*
X516930000Y-1107970000D01*
X437690000Y-243263800D02*
X450990000Y-254270000D01*
X376650000Y-495953500D02*
X380980000Y-504420000D01*
X657810000Y-270275500D02*
X666080000Y-300210000D01*
X666080000Y-300207900D02*
X667380000Y-310460000D01*
X193960000Y-1393296600D02*
X169190000Y-1395000000D01*
%TD*%
M02*
