%TF.GenerationSoftware,KiCad,Pcbnew,7.0.1-3b83917a11~172~ubuntu22.04.1*%
%TF.CreationDate,2023-12-10T16:36:06-05:00*%
%TF.ProjectId,coil_template_first,636f696c-5f74-4656-9d70-6c6174655f66,rev?*%
%TF.SameCoordinates,Original*%
%TF.FileFunction,Legend,Bot*%
%TF.FilePolarity,Positive*%
%FSLAX46Y46*%
G04 Gerber Fmt 4.6, Leading zero omitted, Abs format (unit mm)*
G04 Created by KiCad (PCBNEW 7.0.1-3b83917a11~172~ubuntu22.04.1) date 2023-12-10 16:36:06*
%MOMM*%
%LPD*%
G01*
G04 APERTURE LIST*
%ADD10C,2.000000*%
G04 APERTURE END LIST*
D10*
X715238095Y-51495238D02*
X713333333Y-52447619D01*
X713333333Y-52447619D02*
X710476190Y-52447619D01*
X710476190Y-52447619D02*
X707619047Y-51495238D01*
X707619047Y-51495238D02*
X705714285Y-49590476D01*
X705714285Y-49590476D02*
X704761904Y-47685714D01*
X704761904Y-47685714D02*
X703809523Y-43876190D01*
X703809523Y-43876190D02*
X703809523Y-41019047D01*
X703809523Y-41019047D02*
X704761904Y-37209523D01*
X704761904Y-37209523D02*
X705714285Y-35304761D01*
X705714285Y-35304761D02*
X707619047Y-33400000D01*
X707619047Y-33400000D02*
X710476190Y-32447619D01*
X710476190Y-32447619D02*
X712380952Y-32447619D01*
X712380952Y-32447619D02*
X715238095Y-33400000D01*
X715238095Y-33400000D02*
X716190476Y-34352380D01*
X716190476Y-34352380D02*
X716190476Y-41019047D01*
X716190476Y-41019047D02*
X712380952Y-41019047D01*
X722857142Y-45780952D02*
X733333333Y-45780952D01*
X733333333Y-45780952D02*
X722857142Y-32447619D01*
X722857142Y-32447619D02*
X733333333Y-32447619D01*
X42347619Y-116190476D02*
X43300000Y-115238095D01*
X43300000Y-115238095D02*
X44252380Y-112380952D01*
X44252380Y-112380952D02*
X44252380Y-110476190D01*
X44252380Y-110476190D02*
X43300000Y-107619047D01*
X43300000Y-107619047D02*
X41395238Y-105714285D01*
X41395238Y-105714285D02*
X39490476Y-104761904D01*
X39490476Y-104761904D02*
X35680952Y-103809523D01*
X35680952Y-103809523D02*
X32823809Y-103809523D01*
X32823809Y-103809523D02*
X29014285Y-104761904D01*
X29014285Y-104761904D02*
X27109523Y-105714285D01*
X27109523Y-105714285D02*
X25204761Y-107619047D01*
X25204761Y-107619047D02*
X24252380Y-110476190D01*
X24252380Y-110476190D02*
X24252380Y-112380952D01*
X24252380Y-112380952D02*
X25204761Y-115238095D01*
X25204761Y-115238095D02*
X26157142Y-116190476D01*
X24252380Y-124761904D02*
X40442857Y-124761904D01*
X40442857Y-124761904D02*
X42347619Y-125714285D01*
X42347619Y-125714285D02*
X43300000Y-126666666D01*
X43300000Y-126666666D02*
X44252380Y-128571428D01*
X44252380Y-128571428D02*
X44252380Y-132380952D01*
X44252380Y-132380952D02*
X43300000Y-134285714D01*
X43300000Y-134285714D02*
X42347619Y-135238095D01*
X42347619Y-135238095D02*
X40442857Y-136190476D01*
X40442857Y-136190476D02*
X24252380Y-136190476D01*
X24252380Y-142857142D02*
X24252380Y-154285714D01*
X44252380Y-148571428D02*
X24252380Y-148571428D01*
X42347619Y-1366190476D02*
X43300000Y-1365238095D01*
X43300000Y-1365238095D02*
X44252380Y-1362380952D01*
X44252380Y-1362380952D02*
X44252380Y-1360476190D01*
X44252380Y-1360476190D02*
X43300000Y-1357619047D01*
X43300000Y-1357619047D02*
X41395238Y-1355714285D01*
X41395238Y-1355714285D02*
X39490476Y-1354761904D01*
X39490476Y-1354761904D02*
X35680952Y-1353809523D01*
X35680952Y-1353809523D02*
X32823809Y-1353809523D01*
X32823809Y-1353809523D02*
X29014285Y-1354761904D01*
X29014285Y-1354761904D02*
X27109523Y-1355714285D01*
X27109523Y-1355714285D02*
X25204761Y-1357619047D01*
X25204761Y-1357619047D02*
X24252380Y-1360476190D01*
X24252380Y-1360476190D02*
X24252380Y-1362380952D01*
X24252380Y-1362380952D02*
X25204761Y-1365238095D01*
X25204761Y-1365238095D02*
X26157142Y-1366190476D01*
X24252380Y-1374761904D02*
X40442857Y-1374761904D01*
X40442857Y-1374761904D02*
X42347619Y-1375714285D01*
X42347619Y-1375714285D02*
X43300000Y-1376666666D01*
X43300000Y-1376666666D02*
X44252380Y-1378571428D01*
X44252380Y-1378571428D02*
X44252380Y-1382380952D01*
X44252380Y-1382380952D02*
X43300000Y-1384285714D01*
X43300000Y-1384285714D02*
X42347619Y-1385238095D01*
X42347619Y-1385238095D02*
X40442857Y-1386190476D01*
X40442857Y-1386190476D02*
X24252380Y-1386190476D01*
X24252380Y-1392857142D02*
X24252380Y-1404285714D01*
X44252380Y-1398571428D02*
X24252380Y-1398571428D01*
X715238095Y-1481495238D02*
X713333333Y-1482447619D01*
X713333333Y-1482447619D02*
X710476190Y-1482447619D01*
X710476190Y-1482447619D02*
X707619047Y-1481495238D01*
X707619047Y-1481495238D02*
X705714285Y-1479590476D01*
X705714285Y-1479590476D02*
X704761904Y-1477685714D01*
X704761904Y-1477685714D02*
X703809523Y-1473876190D01*
X703809523Y-1473876190D02*
X703809523Y-1471019047D01*
X703809523Y-1471019047D02*
X704761904Y-1467209523D01*
X704761904Y-1467209523D02*
X705714285Y-1465304761D01*
X705714285Y-1465304761D02*
X707619047Y-1463400000D01*
X707619047Y-1463400000D02*
X710476190Y-1462447619D01*
X710476190Y-1462447619D02*
X712380952Y-1462447619D01*
X712380952Y-1462447619D02*
X715238095Y-1463400000D01*
X715238095Y-1463400000D02*
X716190476Y-1464352380D01*
X716190476Y-1464352380D02*
X716190476Y-1471019047D01*
X716190476Y-1471019047D02*
X712380952Y-1471019047D01*
X722857142Y-1475780952D02*
X733333333Y-1475780952D01*
X733333333Y-1475780952D02*
X722857142Y-1462447619D01*
X722857142Y-1462447619D02*
X733333333Y-1462447619D01*
X86428571Y-42923809D02*
X89285714Y-41971428D01*
X89285714Y-41971428D02*
X90238095Y-41019047D01*
X90238095Y-41019047D02*
X91190476Y-39114285D01*
X91190476Y-39114285D02*
X91190476Y-36257142D01*
X91190476Y-36257142D02*
X90238095Y-34352380D01*
X90238095Y-34352380D02*
X89285714Y-33400000D01*
X89285714Y-33400000D02*
X87380952Y-32447619D01*
X87380952Y-32447619D02*
X79761904Y-32447619D01*
X79761904Y-32447619D02*
X79761904Y-52447619D01*
X79761904Y-52447619D02*
X86428571Y-52447619D01*
X86428571Y-52447619D02*
X88333333Y-51495238D01*
X88333333Y-51495238D02*
X89285714Y-50542857D01*
X89285714Y-50542857D02*
X90238095Y-48638095D01*
X90238095Y-48638095D02*
X90238095Y-46733333D01*
X90238095Y-46733333D02*
X89285714Y-44828571D01*
X89285714Y-44828571D02*
X88333333Y-43876190D01*
X88333333Y-43876190D02*
X86428571Y-42923809D01*
X86428571Y-42923809D02*
X79761904Y-42923809D01*
X103571428Y-52447619D02*
X107380952Y-52447619D01*
X107380952Y-52447619D02*
X109285714Y-51495238D01*
X109285714Y-51495238D02*
X111190476Y-49590476D01*
X111190476Y-49590476D02*
X112142857Y-45780952D01*
X112142857Y-45780952D02*
X112142857Y-39114285D01*
X112142857Y-39114285D02*
X111190476Y-35304761D01*
X111190476Y-35304761D02*
X109285714Y-33400000D01*
X109285714Y-33400000D02*
X107380952Y-32447619D01*
X107380952Y-32447619D02*
X103571428Y-32447619D01*
X103571428Y-32447619D02*
X101666666Y-33400000D01*
X101666666Y-33400000D02*
X99761904Y-35304761D01*
X99761904Y-35304761D02*
X98809523Y-39114285D01*
X98809523Y-39114285D02*
X98809523Y-45780952D01*
X98809523Y-45780952D02*
X99761904Y-49590476D01*
X99761904Y-49590476D02*
X101666666Y-51495238D01*
X101666666Y-51495238D02*
X103571428Y-52447619D01*
X117857142Y-52447619D02*
X129285714Y-52447619D01*
X123571428Y-32447619D02*
X123571428Y-52447619D01*
X36904761Y-1482447619D02*
X48333333Y-1482447619D01*
X42619047Y-1462447619D02*
X42619047Y-1482447619D01*
X58809523Y-1482447619D02*
X62619047Y-1482447619D01*
X62619047Y-1482447619D02*
X64523809Y-1481495238D01*
X64523809Y-1481495238D02*
X66428571Y-1479590476D01*
X66428571Y-1479590476D02*
X67380952Y-1475780952D01*
X67380952Y-1475780952D02*
X67380952Y-1469114285D01*
X67380952Y-1469114285D02*
X66428571Y-1465304761D01*
X66428571Y-1465304761D02*
X64523809Y-1463400000D01*
X64523809Y-1463400000D02*
X62619047Y-1462447619D01*
X62619047Y-1462447619D02*
X58809523Y-1462447619D01*
X58809523Y-1462447619D02*
X56904761Y-1463400000D01*
X56904761Y-1463400000D02*
X54999999Y-1465304761D01*
X54999999Y-1465304761D02*
X54047618Y-1469114285D01*
X54047618Y-1469114285D02*
X54047618Y-1475780952D01*
X54047618Y-1475780952D02*
X54999999Y-1479590476D01*
X54999999Y-1479590476D02*
X56904761Y-1481495238D01*
X56904761Y-1481495238D02*
X58809523Y-1482447619D01*
X75952380Y-1462447619D02*
X75952380Y-1482447619D01*
X75952380Y-1482447619D02*
X83571428Y-1482447619D01*
X83571428Y-1482447619D02*
X85476190Y-1481495238D01*
X85476190Y-1481495238D02*
X86428571Y-1480542857D01*
X86428571Y-1480542857D02*
X87380952Y-1478638095D01*
X87380952Y-1478638095D02*
X87380952Y-1475780952D01*
X87380952Y-1475780952D02*
X86428571Y-1473876190D01*
X86428571Y-1473876190D02*
X85476190Y-1472923809D01*
X85476190Y-1472923809D02*
X83571428Y-1471971428D01*
X83571428Y-1471971428D02*
X75952380Y-1471971428D01*
M02*
